<svg xmlns="http://www.w3.org/2000/svg" width="24" height="24" fill="none" viewBox="0 0 24 24"><path fill="#262626" fill-rule="evenodd" d="M12 8c1.6569 0 3-1.34315 3-3s-1.3431-3-3-3-3 1.34315-3 3 1.3431 3 3 3Zm0 2c2.7614 0 5-2.23858 5-5s-2.2386-5-5-5C9.23858 0 7 2.23858 7 5s2.23858 5 5 5Zm4.8296 2.9329-1.5974 1.2521C14.3606 13.4458 13.2323 13 12 13c-2.76142 0-5 2.2386-5 5H5c0-3.866 3.13401-7 7-7 1.8726 0 3.5735.7353 4.8296 1.9329ZM18 24v-4h-4v-2h4v-4h2v4h4v2h-4v4h-2Z" clip-rule="evenodd"/></svg>