<svg xmlns="http://www.w3.org/2000/svg" width="24" height="24" fill="none" viewBox="0 0 24 24"><path fill="#262626" fill-rule="evenodd" d="M15 5c0 1.65685-1.3431 3-3 3S9 6.65685 9 5s1.3431-3 3-3 3 1.34315 3 3Zm2 0c0 2.76142-2.2386 5-5 5-2.76142 0-5-2.23858-5-5s2.23858-5 5-5c2.7614 0 5 2.23858 5 5Zm1 10.6034 2.517 2.0975L18 18.456l-2.517-.7551L18 15.6034Zm0 4.9406 4-1.2V22h-8v-2.656l4 1.2Zm-6-2.0756c0-.2968.1318-.5783.3598-.7682l5-4.1667c.3709-.3091.9095-.3091 1.2804 0l5 4.1667c.228.1899.3598.4714.3598.7682V23c0 .5523-.4477 1-1 1H13c-.5523 0-1-.4477-1-1v-4.5316ZM12 13c-2.76142 0-5 2.2386-5 5H5c0-3.866 3.13401-7 7-7 1.4274 0 2.7549.4272 3.8619 1.1608l-1.6322 1.3627C13.5584 13.1885 12.8012 13 12 13Z" clip-rule="evenodd"/></svg>