<svg xmlns="http://www.w3.org/2000/svg" width="24" height="24" fill="none" viewBox="0 0 24 24"><path fill="#262626" fill-rule="evenodd" d="M17 5c0 2.76142-2.2386 5-5 5-2.76142 0-5-2.23858-5-5s2.23858-5 5-5c2.7614 0 5 2.23858 5 5Zm-4.1298 12.2748L18 18.8946l5.1298-1.6198-4.4896-3.7413c-.3709-.309-.9095-.309-1.2804 0l-4.4896 3.7413ZM24 19.1541l-6 1.8487-6-1.8487V23c0 .5523.4477 1 1 1h10c.5523 0 1-.4477 1-1v-3.8459ZM5 18c0-3.866 3.13401-7 7-7 1.4274 0 2.7549.4272 3.8619 1.1608L8.86795 18H5Z" clip-rule="evenodd"/></svg>