<svg xmlns="http://www.w3.org/2000/svg" width="24" height="24" fill="none" viewBox="0 0 24 24"><path fill="#262626" fill-rule="evenodd" d="M13.377 3.30693c1.7053-1.74258 4.4793-1.74257 6.1846.00001 1.6935 1.7305 1.6935 4.52744 0 6.25795L12.6369 16.641c-1.2129 1.2394-3.18851 1.2394-4.40139 0-1.20108-1.2274-1.20108-3.2085 0-4.4358l4.26779-4.36107c.3862-.39472 1.0194-.40157 1.4141-.01529.3947.38628.4016 1.01941.0153 1.41413L9.66493 13.604c-.4403.45-.4403 1.1882 0 1.6381.42847.4379 1.11407.4379 1.54257 0l6.9247-7.07605c.9327-.95311.9327-2.50717 0-3.46027-.9209-.94104-2.4049-.94104-3.3258-.00001L6.06884 13.6344c-1.42512 1.4563-1.42512 3.8262 0 5.2824 1.41332 1.4443 3.6956 1.4443 5.10896 0l.0072-.0073 9.1076-9.11627c.3903-.39071 1.0235-.39101 1.4142-.00068.3907.39035.391 1.02355.0006 1.41425l-9.104 9.1128c-2.1981 2.2418-5.76754 2.2405-7.96398-.0039-2.18589-2.2337-2.18589-5.8465 0-8.0801L13.377 3.30693Z" clip-rule="evenodd"/></svg>