<svg xmlns="http://www.w3.org/2000/svg" width="24" height="24" fill="none" viewBox="0 0 24 24"><path fill="#262626" fill-rule="evenodd" d="M2 0C.895431 0 0 .89543 0 2v20c0 1.1046.89543 2 2 2h20c1.1046 0 2-.8954 2-2V2c0-1.104569-.8954-2-2-2H2Zm11.377 3.30693c1.7053-1.74258 4.4793-1.74258 6.1846 0 1.6935 1.73051 1.6935 4.52744 0 6.25795L12.6369 16.641c-1.2129 1.2394-3.1885 1.2394-4.40139 0-1.20107-1.2274-1.20107-3.2085 0-4.4358l4.26779-4.36107c.3862-.39473 1.0194-.40157 1.4141-.01529.3947.38627.4016 1.0194.0153 1.41413L9.66493 13.604c-.4403.4499-.4403 1.1882 0 1.6381.42847.4379 1.11407.4379 1.54257 0l6.9247-7.07606c.9327-.9531.9327-2.50717 0-3.46027-.9209-.94104-2.4049-.94104-3.3258 0L6.06885 13.6344c-1.42513 1.4563-1.42513 3.8262 0 5.2824 1.41331 1.4442 3.6956 1.4442 5.10895 0l.0067-.0068 2.0584-2.0634c.0159-.0183.0325-.0363.05-.0537l1.4991-1.4992 5.5009-5.50081c.3905-.39053 1.0237-.39053 1.4142 0 .3905.39051.3905 1.02371 0 1.41421l-5.4991 5.4991-.0008.0008-3.6035 3.6122c-2.198 2.2422-5.76773 2.241-7.96427-.0035-2.1859-2.2337-2.1859-5.8465 0-8.0801L13.377 3.30693Z" clip-rule="evenodd"/></svg>