<svg xmlns="http://www.w3.org/2000/svg" width="24" height="24" fill="none" viewBox="0 0 24 24"><path fill="#262626" fill-rule="evenodd" d="M12 2C7.96771 2 4.49075 4.38664 2.90861 7.82867L1 7.41103V2h2v2.06279C5.19821 1.57211 8.41494 0 12 0c6.6274 0 12 5.37258 12 12h-2c0-5.52285-4.4772-10-10-10Zm0 20c4.0323 0 7.5093-2.3866 9.0914-5.8287L23 16.589V22h-2v-2.0628C18.8018 22.4279 15.5851 24 12 24 5.37258 24 0 18.6274 0 12h2c0 5.5228 4.47715 10 10 10Zm1.8873-18h-3.7748l-.63572 1.90777-1.79913-.89913-2.66901 2.66901.89913 1.79913L4 10.1125v3.7748l1.90764.6362-.899 1.7988 2.66901 2.6691 1.79888-.899L10.1127 20h3.7745l.6366-1.9078 1.7984.8993 2.6693-2.6693-.8993-1.7984L20 13.8872v-3.7745l-1.9076-.63617.899-1.79888-2.6691-2.66901-1.7988.899L13.8873 4ZM13 12c0 .5523-.4477 1-1 1s-1-.4477-1-1 .4477-1 1-1 1 .4477 1 1Z" clip-rule="evenodd"/></svg>