<svg xmlns="http://www.w3.org/2000/svg" width="24" height="24" fill="none" viewBox="0 0 24 24"><path fill="#262626" fill-rule="evenodd" d="M2.90861 7.82867C4.49075 4.38664 7.96771 2 12 2c5.5228 0 10 4.47715 10 10h2c0-6.62742-5.3726-12-12-12-3.58506 0-6.80179 1.57211-9 4.06279V2H1v5.41103l1.90861.41764ZM13.8873 4h-3.7748l-.63572 1.90777-1.79913-.89913-2.66901 2.66901.89913 1.79913L4 10.1125v3.7748l1.90764.6362-.899 1.7988 2.66901 2.6691 1.79888-.899L10.1127 20h3.7745l.6366-1.9078 1.7984.8993 2.6693-2.6693-.8993-1.7984L20 13.8872v-3.7745l-1.9076-.63617.899-1.79888-2.6691-2.66901-1.7988.899L13.8873 4Zm-2.9518 3.85663L11.5542 6h.8918l.6192 1.85683.4435.16845c.0792.03007.1572.06245.2341.09706l.4329.19495 1.7515-.87534.6308.63082-.8753 1.75152.195.43291c.0346.0769.0669.1549.097.2341l.1685.4435L18 11.554v.8922l-1.857.6197-.1685.4433c-.03.0791-.0624.1572-.0971.2341l-.195.4331.8755 1.751-.6305.6305-1.751-.8755-.4331.195c-.0769.0347-.155.0671-.2341.0971l-.4433.1685L12.4462 18h-.8922l-.6192-1.8568-.4435-.1685c-.0792-.0301-.1572-.0624-.2341-.097l-.43291-.195-1.75152.8753-.63082-.6308.87534-1.7515-.19495-.4329c-.03461-.0769-.06699-.1549-.09706-.2341l-.16845-.4435L6 12.446v-.8918l1.85663-.6187.16847-.4437c.03012-.0794.06256-.1576.09724-.2346l.19495-.43291-.87534-1.75152.63082-.63082 1.75152.87534.43291-.19495c.077-.03468.1552-.06712.2346-.09724l.4437-.16847ZM12 22c4.0323 0 7.5093-2.3866 9.0914-5.8287L23 16.589V22h-2v-2.0628C18.8018 22.4279 15.5851 24 12 24 5.37258 24 0 18.6274 0 12h2c0 5.5228 4.47715 10 10 10Zm0-9c.5523 0 1-.4477 1-1s-.4477-1-1-1-1 .4477-1 1 .4477 1 1 1Z" clip-rule="evenodd"/></svg>