<svg xmlns="http://www.w3.org/2000/svg" width="24" height="24" fill="none" viewBox="0 0 24 24"><path fill="#262626" fill-rule="evenodd" d="M10 3c0 .55228-.44772 1-1 1s-1-.44772-1-1 .44772-1 1-1 1 .44772 1 1Zm2 0c0 1.65685-1.3431 3-3 3-1.65685 0-3-1.34315-3-3s1.34315-3 3-3c1.6569 0 3 1.34315 3 3Zm9.5 13c.8284 0 1.5-.6716 1.5-1.5s-.6716-1.5-1.5-1.5-1.5.6716-1.5 1.5.6716 1.5 1.5 1.5ZM3.18079 7.15469C3.36366 6.47353 3.98108 6 4.68636 6c2.09866 0 3.9677 1.19312 4.88184 3H13c.5523 0 1 .44771 1 1 0 .5523-.4477 1-1 1h-2.8107l1.8125 8H9.25773v5h-2v-7h2.24028l-1.42642-6.2959c-.33344-1.47176-1.5738-2.54615-3.05121-2.68812L2.60848 17h2.64925v7h-2v-5H.00073242L3.18079 7.15469ZM19 11c.5523 0 1 .4477 1 1v2c0 1.1046-.8954 2-2 2h-1.382c-.7575 0-1.45-.428-1.7888-1.1056L14.382 14H14c-.5523 0-1-.4477-1-1s.4477-1 1-1h.382c.7575 0 1.45.428 1.7888 1.1056L16.618 14H18v-2c0-.5523.4477-1 1-1Zm-5 6c-.5523 0-1 .4477-1 1s.4477 1 1 1h8c.5523 0 1-.4477 1-1s-.4477-1-1-1h-8Z" clip-rule="evenodd"/></svg>