<svg xmlns="http://www.w3.org/2000/svg" width="24" height="24" fill="none" viewBox="0 0 24 24"><path fill="#262626" fill-rule="evenodd" d="M13 3c0 1.65685-1.3431 3-3 3-1.65685 0-3-1.34315-3-3s1.34315-3 3-3c1.6569 0 3 1.34315 3 3Zm11 11.5c0 .8284-.6716 1.5-1.5 1.5s-1.5-.6716-1.5-1.5.6716-1.5 1.5-1.5 1.5.6716 1.5 1.5ZM5.68636 6c-.70528 0-1.3227.47353-1.50557 1.15469L1.00073 19h3.257v5h2v-5h2v5h1.99997v-5h2.7441l-1.8125-8H14c.5523 0 1-.4477 1-1 0-.55229-.4477-1-1-1h-3.4318c-.91414-1.80688-2.78318-3-4.88184-3ZM21 12c0-.5523-.4477-1-1-1s-1 .4477-1 1v2h-1.382l-.4472-.8944C16.832 12.428 16.1395 12 15.382 12H15c-.5523 0-1 .4477-1 1s.4477 1 1 1h.382l.4472.8944C16.168 15.572 16.8605 16 17.618 16H19c1.1046 0 2-.8954 2-2v-2Zm-7 6c0-.5523.4477-1 1-1h8c.5523 0 1 .4477 1 1s-.4477 1-1 1h-8c-.5523 0-1-.4477-1-1Z" clip-rule="evenodd"/></svg>