<svg xmlns="http://www.w3.org/2000/svg" width="24" height="24" fill="none" viewBox="0 0 24 24"><path fill="#262626" fill-rule="evenodd" d="M14 3h-4c-.55228 0-1 .44772-1 1v1h6V4c0-.55228-.4477-1-1-1ZM7 4v1H1c-.552285 0-1 .44772-1 1v7c0 .7403.402199 1.3866 1 1.7324V21c0 1.1046.89543 2 2 2h18c1.1046 0 2-.8954 2-2v-6.2676c.5978-.3458 1-.9921 1-1.7324V6c0-.55228-.4477-1-1-1h-6V4c0-1.65685-1.3431-3-3-3h-4C8.34315 1 7 2.34315 7 4Zm0 3h15v6h-9v-1c0-.5523-.4477-1-1-1s-1 .4477-1 1v1H2V7h5Zm4 8H3v6h18v-6h-8v1c0 .5523-.4477 1-1 1s-1-.4477-1-1v-1Z" clip-rule="evenodd"/></svg>