<svg xmlns="http://www.w3.org/2000/svg" width="24" height="24" fill="none" viewBox="0 0 24 24"><path fill="#262626" fill-rule="evenodd" d="M14 3h-4c-.55228 0-1 .44772-1 1v1h6V4c0-.55228-.4477-1-1-1ZM7 4v1H1c-.552285 0-1 .44772-1 1v6c0 .5523.447716 1 1 1h10v-1c0-.5523.4477-1 1-1s1 .4477 1 1v1h10c.5523 0 1-.4477 1-1V6c0-.55228-.4477-1-1-1h-6V4c0-1.65685-1.3431-3-3-3h-4C8.34315 1 7 2.34315 7 4Zm4 11v1c0 .5523.4477 1 1 1s1-.4477 1-1v-1h10v6c0 1.1046-.8954 2-2 2H3c-1.10457 0-2-.8954-2-2v-6h10Z" clip-rule="evenodd"/></svg>