<svg xmlns="http://www.w3.org/2000/svg" width="24" height="24" fill="none" viewBox="0 0 24 24"><path fill="#262626" fill-rule="evenodd" d="M10.0823.710268C8.44529-.737681 5.15085.0915334 2.62119 2.62119.0915334 5.15085-.737681 8.44529.710268 10.0823l.107305.1141.796327.7963 9.3788-9.3788-.7963-.796327-.1141-.107305Zm2.3246 2.317842L3.02811 12.4069l8.58579 8.5858 9.3788-9.3788-8.5858-8.58579Zm10 9.99999-9.3788 9.3788.7755.7755.1141.1073c1.637 1.448 4.9315.6188 7.4611-1.9109 2.5899-2.5899 3.3974-5.9814 1.8036-7.5752l-.7755-.7755Zm-9.737.9816c-.37-.3699-.9698-.3699-1.3398 0-.37.37-.37.9699 0 1.3399.37.37.9698.37 1.3398 0 .37-.37.37-.9699 0-1.3399Zm2.6797-2.6796c-.37-.37-.9699-.37-1.3399 0-.3699.37-.3699.9698 0 1.3398.37.37.9699.37 1.3399 0 .37-.37.37-.9698 0-1.3398Zm-5.35934 0c-.36999-.37-.96985-.37-1.33984 0-.36998.37-.36998.9698 0 1.3398.36999.37.96985.37 1.33984 0 .36994-.37.36994-.9698 0-1.3398Zm2.67964-2.67968c-.37-.36998-.9698-.36998-1.3398 0-.37.36999-.37.96985 0 1.33984.37.36994.9698.36994 1.3398 0 .37-.36999.37-.96985 0-1.33984Z" clip-rule="evenodd"/></svg>