<svg xmlns="http://www.w3.org/2000/svg" width="24" height="24" fill="none" viewBox="0 0 24 24"><path fill="#262626" fill-rule="evenodd" d="M2.62119 2.62119C5.15085.0915334 8.44529-.737681 10.0823.710268l.1141.107305L23.1824 13.8036c1.5938 1.5938.7863 4.9853-1.8036 7.5752-2.5296 2.5297-5.8241 3.3589-7.4611 1.9109l-.1141-.1073L.817573 10.1964l-.107305-.1141C-.737681 8.44529.0915334 5.15085 2.62119 2.62119ZM20.039 13.3398l-6.6998 6.6998 1.7626 1.7627.0713.0682c.7248.6411 2.9636.0708 4.8659-1.8315 1.8839-1.8839 2.4499-4.0726 1.8639-4.8271l-.0603-.0685-1.8036-1.8036ZM12 5.30085 5.30085 12l6.69845 6.6998L18.6992 12 12 5.30085Zm-.6699 8.70885c.37-.3699.9698-.3699 1.3398 0 .37.37.37.9699 0 1.3399-.37.37-.9698.37-1.3398 0-.37-.37-.37-.9699 0-1.3399Zm2.6796-2.6796c.37-.37.9699-.37 1.3399 0 .37.37.37.9698 0 1.3398-.37.37-.9699.37-1.3399 0-.3699-.37-.3699-.9698 0-1.3398Zm-5.35928 0c.36999-.37.96985-.37 1.33984 0 .36994.37.36994.9698 0 1.3398-.36999.37-.96985.37-1.33984 0-.36998-.37-.36998-.9698 0-1.3398Zm2.67968-2.67968c.37-.36998.9698-.36998 1.3398 0 .37.36999.37.96985 0 1.33984-.37.36994-.9698.36994-1.3398 0-.37-.36999-.37-.96985 0-1.33984Zm-7.36908-4.6894C2.12011 5.80193 1.52657 7.95798 2.03584 8.71327l.0546.0708.06696.07248 1.80362 1.80365 6.69918-6.69918-1.76205-1.76328-.07121-.06819c-.72488-.64117-2.96364-.07081-4.86592 1.83147Z" clip-rule="evenodd"/></svg>