<svg xmlns="http://www.w3.org/2000/svg" width="24" height="24" fill="none" viewBox="0 0 24 24"><path fill="#262626" fill-rule="evenodd" d="M2 4c0-1.10457.89543-2 2-2h16c1.1046 0 2 .89543 2 2v6c1.1046 0 2 .8954 2 2v10h-2v-4H2v4H0V12c0-1.1046.895431-2 2-2V4Zm0 12h20v-4H2v4ZM20 4v6c0-2.20914-1.7909-4-4-4h-1c-1.1947 0-2.2671.52376-3 1.35418C11.2671 6.52376 10.1947 6 9 6H8c-2.20914 0-4 1.79086-4 4V4h16Zm-4 4c1.1046 0 2 .89543 2 2h-5c0-1.10457.8954-2 2-2h1ZM9 8c1.1046 0 2 .89543 2 2H6c0-1.10457.89543-2 2-2h1Z" clip-rule="evenodd"/></svg>