<svg xmlns="http://www.w3.org/2000/svg" width="24" height="24" fill="none" viewBox="0 0 24 24"><path fill="#262626" fill-rule="evenodd" d="M13 2v2.07089c3.3923.48523 6 3.40264 6 6.92911v1.3767c0 1.3031.3992 2.575 1.1439 3.6443l1.6767 2.4075c.2129.3056.2382.7042.0658 1.0344C21.714 19.793 21.3724 20 21 20h-6c0 1.6569-1.3431 3-3 3s-3-1.3431-3-3H3c-.37244 0-.71403-.207-.88642-.5371-.1724-.3302-.14703-.7288.06582-1.0344l1.67666-2.4075C4.60077 14.9517 5 13.6798 5 12.3767V11c0-3.52647 2.60771-6.44388 6-6.92911V2h2Zm-2 18c0 .5523.4477 1 1 1s1-.4477 1-1h-2Z" clip-rule="evenodd"/></svg>