<svg xmlns="http://www.w3.org/2000/svg" width="24" height="24" fill="none" viewBox="0 0 24 24"><path fill="#262626" fill-rule="evenodd" d="M8.04321 2.70884C8.17136 2.28777 8.55975 2 8.99989 2h3.00001c.5523 0 1 .44772 1 1s-.4477 1-1 1H9.74083L8.03161 9.616C9.79525 10.532 11 12.3753 11 14.5c0 3.0376-2.46243 5.5-5.5 5.5S0 17.5376 0 14.5 2.46243 9 5.5 9c.20895 0 .41517.01165.61806.03434l1.92515-6.3255ZM4.83437 13.2522l.68543-2.2521L5.5 11C3.567 11 2 12.567 2 14.5S3.567 18 5.5 18 9 16.433 9 14.5c0-1.2183-.62247-2.2912-1.56672-2.9181l-.68556 2.2526c-.1608.5283-.71948.8263-1.24783.6655-.52836-.1608-.82632-.7195-.66552-1.2478ZM22 14.5c0 1.933-1.567 3.5-3.5 3.5S15 16.433 15 14.5c0-1.2639.6699-2.3713 1.6741-2.9866l.952 2.7531c.1805.5219.75.7988 1.2719.6183.522-.1805.7988-.75.6183-1.272l-.9029-2.611C20.4939 11.0616 22 12.6049 22 14.5Zm-4.0688-5.47094C18.1182 9.00985 18.3079 9 18.5 9c3.0376 0 5.5 2.4624 5.5 5.5S21.5376 20 18.5 20 13 17.5376 13 14.5c0-2.1415 1.2239-3.9972 3.0104-4.90561L15.4591 8H11c-.5523 0-1-.44772-1-1s.4477-1 1-1h5c.3601 0 .6757.19034.8518.47589.164.11648.2944.28337.3652.48793l.7142 2.06524Z" clip-rule="evenodd"/></svg>