<svg xmlns="http://www.w3.org/2000/svg" width="24" height="24" fill="none" viewBox="0 0 24 24"><path fill="#262626" fill-rule="evenodd" d="M8.04321 2.70884C8.17136 2.28777 8.55975 2 8.99989 2h3.00001c.5523 0 1 .44772 1 1s-.4477 1-1 1H9.74083L8.03161 9.616C9.79525 10.532 11 12.3753 11 14.5c0 3.0376-2.46243 5.5-5.5 5.5S0 17.5376 0 14.5 2.46243 9 5.5 9c.20895 0 .41517.01165.61806.03434l1.92515-6.3255ZM5.5 11l.0198.0001-.30938 1.0165C3.96612 12.1601 3 13.2172 3 14.5 3 15.8807 4.11929 17 5.5 17S8 15.8807 8 14.5c0-.7609-.33995-1.4424-.87627-1.901l.30955-1.0171C8.37753 12.2088 9 13.2817 9 14.5 9 16.433 7.433 18 5.5 18S2 16.433 2 14.5 3.567 11 5.5 11Zm13 6c1.3807 0 2.5-1.1193 2.5-2.5 0-1.2186-.8719-2.2336-2.0259-2.4551l-.3607-1.0431C20.4939 11.0616 22 12.6049 22 14.5c0 1.933-1.567 3.5-3.5 3.5S15 16.433 15 14.5c0-1.2639.6699-2.3713 1.6741-2.9866l.338.9774C16.398 12.9463 16 13.6767 16 14.5c0 1.3807 1.1193 2.5 2.5 2.5Zm-2.4896-7.40561C14.2239 10.5028 13 12.3585 13 14.5c0 3.0376 2.4624 5.5 5.5 5.5s5.5-2.4624 5.5-5.5S21.5376 9 18.5 9c-.1921 0-.3818.00985-.5688.02906l-.7142-2.06524c-.0708-.20456-.2012-.37145-.3652-.48793C16.6757 6.19034 16.3601 6 16 6h-5c-.5523 0-1 .44772-1 1s.4477 1 1 1h4.4591l.5513 1.59439Z" clip-rule="evenodd"/></svg>