<svg xmlns="http://www.w3.org/2000/svg" width="24" height="24" fill="none" viewBox="0 0 24 24"><path fill="#262626" fill-rule="evenodd" d="M2 2C.895431 2 0 2.89543 0 4v16c0 1.1046.89543 2 2 2h20c1.1046 0 2-.8954 2-2V4c0-1.10457-.8954-2-2-2H2Zm2 6c1.10457 0 2-.89543 2-2s-.89543-2-2-2-2 .89543-2 2 .89543 2 2 2Zm16-1c.5523 0 1-.44772 1-1s-.4477-1-1-1-1 .44772-1 1 .4477 1 1 1Zm-9-1c0 .55228-.4477 1-1 1-.55228 0-1-.44772-1-1s.44772-1 1-1c.5523 0 1 .44772 1 1Zm-7 8c1.10457 0 2-.8954 2-2s-.89543-2-2-2-2 .8954-2 2 .89543 2 2 2Zm17-2c0 .5523-.4477 1-1 1s-1-.4477-1-1 .4477-1 1-1 1 .4477 1 1Zm-11 2c1.1046 0 2-.8954 2-2s-.8954-2-2-2c-1.10457 0-2 .8954-2 2s.89543 2 2 2Zm6-2c0 .5523-.4477 1-1 1s-1-.4477-1-1 .4477-1 1-1 1 .4477 1 1ZM4 19c.55228 0 1-.4477 1-1s-.44772-1-1-1-1 .4477-1 1 .44772 1 1 1Zm18-1c0 1.1046-.8954 2-2 2s-2-.8954-2-2 .8954-2 2-2 2 .8954 2 2Z" clip-rule="evenodd"/></svg>