<svg xmlns="http://www.w3.org/2000/svg" width="24" height="24" fill="none" viewBox="0 0 24 24"><path fill="#262626" fill-rule="evenodd" d="M19 0c1.1046 0 2 .89543 2 2v20c0 1.1046-.8954 2-2 2H5c-1.10457 0-2-.8954-2-2V2c0-1.10457.89543-2 2-2h14ZM8 17c.55228 0 1 .4477 1 1s-.44772 1-1 1-1-.4477-1-1 .44772-1 1-1Zm4 0c.5523 0 1 .4477 1 1s-.4477 1-1 1-1-.4477-1-1 .4477-1 1-1Zm4 0c.5523 0 1 .4477 1 1s-.4477 1-1 1-1-.4477-1-1 .4477-1 1-1Zm-8-4c.55228 0 1 .4477 1 1s-.44772 1-1 1-1-.4477-1-1 .44772-1 1-1Zm4 0c.5523 0 1 .4477 1 1s-.4477 1-1 1-1-.4477-1-1 .4477-1 1-1Zm4 0c.5523 0 1 .4477 1 1s-.4477 1-1 1-1-.4477-1-1 .4477-1 1-1ZM8 9c.55228 0 1 .44771 1 1 0 .5523-.44772 1-1 1s-1-.4477-1-1c0-.55229.44772-1 1-1Zm4 0c.5523 0 1 .44771 1 1 0 .5523-.4477 1-1 1s-1-.4477-1-1c0-.55229.4477-1 1-1Zm4 0c.5523 0 1 .44771 1 1 0 .5523-.4477 1-1 1s-1-.4477-1-1c0-.55229.4477-1 1-1Zm1-4v2H7V5h10Z" clip-rule="evenodd"/></svg>