<svg xmlns="http://www.w3.org/2000/svg" width="24" height="24" fill="none" viewBox="0 0 24 24"><path fill="#262626" fill-rule="evenodd" d="M6 4V1c0-.552285.44771-1 1-1 .55228 0 1 .447715 1 1v3c0 .55228-.44772 1-1 1s-1-.44772-1-1ZM2 3h2v1c0 1.65685 1.34315 3 3 3s3-1.34315 3-3V3h4v1c0 1.65685 1.3431 3 3 3s3-1.34315 3-3V3h2c1.1046 0 2 .89543 2 2v5H0V5c0-1.10457.895431-2 2-2Zm-2 9h24v10c0 1.1046-.8954 2-2 2H2c-1.10457 0-2-.8954-2-2V12Zm5 2c-.55228 0-1 .4477-1 1s.44772 1 1 1h2c.55229 0 1-.4477 1-1s-.44772-1-1-1H5Zm0 4c-.55228 0-1 .4477-1 1s.44772 1 1 1h2c.55229 0 1-.4477 1-1s-.44772-1-1-1H5Zm6-4h2c.5523 0 1 .4477 1 1s-.4477 1-1 1h-2c-.5523 0-1-.4477-1-1s.4477-1 1-1Zm2 4h-2c-.5523 0-1 .4477-1 1s.4477 1 1 1h2c.5523 0 1-.4477 1-1s-.4477-1-1-1Zm3-3c0-.5523.4477-1 1-1h2c.5523 0 1 .4477 1 1s-.4477 1-1 1h-2c-.5523 0-1-.4477-1-1Zm4 4c0-.5523-.4477-1-1-1h-2c-.5523 0-1 .4477-1 1s.4477 1 1 1h2c.5523 0 1-.4477 1-1ZM16 1v3c0 .55228.4477 1 1 1s1-.44772 1-1V1c0-.552285-.4477-1-1-1s-1 .447715-1 1Z" clip-rule="evenodd"/></svg>