<svg xmlns="http://www.w3.org/2000/svg" width="24" height="24" fill="none" viewBox="0 0 24 24"><path fill="#262626" fill-rule="evenodd" d="M6 7V5H2v5h20V5h-4v2c0 .55228-.4477 1-1 1s-1-.44772-1-1V5H8v2c0 .55228-.44771 1-1 1-.55228 0-1-.44772-1-1Zm10-4H8V1c0-.552285-.44771-1-1-1-.55228 0-1 .447715-1 1v2H2C.895431 3 0 3.89543 0 5v17c0 1.1046.89543 2 2 2h20c1.1046 0 2-.8954 2-2V5c0-1.10457-.8954-2-2-2h-4V1c0-.552285-.4477-1-1-1s-1 .447715-1 1v2ZM2 12v10h20V12H2Zm6 3c0-.5523-.44772-1-1-1H5c-.55228 0-1 .4477-1 1s.44772 1 1 1h2c.55229 0 1-.4477 1-1Zm-1 3c.55228 0 1 .4477 1 1s-.44771 1-1 1H5c-.55228 0-1-.4477-1-1s.44772-1 1-1h2Zm6-4h-2c-.5523 0-1 .4477-1 1s.4477 1 1 1h2c.5523 0 1-.4477 1-1s-.4477-1-1-1Zm-2 4h2c.5523 0 1 .4477 1 1s-.4477 1-1 1h-2c-.5523 0-1-.4477-1-1s.4477-1 1-1Zm9-3c0-.5523-.4477-1-1-1h-2c-.5523 0-1 .4477-1 1s.4477 1 1 1h2c.5523 0 1-.4477 1-1Zm-4 4c0-.5523.4477-1 1-1h2c.5523 0 1 .4477 1 1s-.4477 1-1 1h-2c-.5523 0-1-.4477-1-1Z" clip-rule="evenodd"/></svg>