<svg xmlns="http://www.w3.org/2000/svg" width="24" height="24" fill="none" viewBox="0 0 24 24"><path fill="#262626" fill-rule="evenodd" d="M7.70711 4.70711c.39052-.39053.39052-1.02369 0-1.41422-.39052-.39052-1.02369-.39052-1.41421 0L2.29289 7.2929C2.10536 7.48043 2 7.73479 2 8c0 .26522.10536.51957.29289.70711L6.2929 12.7071c.39052.3905 1.02369.3905 1.41421 0s.39052-1.0237 0-1.4142L5.41421 9H15c2.7614 0 5 2.2386 5 5s-2.2386 5-5 5h-1.2121c-.5523 0-1 .4477-1 1s.4477 1 1 1H15c3.866 0 7-3.134 7-7s-3.134-7-7-7H5.41422l2.29289-2.29289Z" clip-rule="evenodd"/></svg>