<svg xmlns="http://www.w3.org/2000/svg" width="24" height="24" fill="none" viewBox="0 0 24 24"><path fill="#262626" fill-rule="evenodd" d="M2 0C.895431 0 0 .89543 0 2v20c0 1.1046.89543 2 2 2h20c1.1046 0 2-.8954 2-2V2c0-1.104569-.8954-2-2-2H2Zm5.70711 3.29289c.39052.39053.39052 1.02369 0 1.41422L5.41422 7H15c3.866 0 7 3.134 7 7s-3.134 7-7 7h-1.2121c-.5523 0-1-.4477-1-1s.4477-1 1-1H15c2.7614 0 5-2.2386 5-5s-2.2386-5-5-5H5.41421l2.2929 2.2929c.39052.3905.39052 1.0237 0 1.4142-.39052.3905-1.02369.3905-1.41421 0L2.29289 8.70711C2.10536 8.51957 2 8.26522 2 8c0-.26521.10536-.51957.29289-.7071L6.2929 3.29289c.39052-.39052 1.02369-.39052 1.41421 0Z" clip-rule="evenodd"/></svg>