<svg xmlns="http://www.w3.org/2000/svg" width="24" height="24" fill="none" viewBox="0 0 24 24"><path fill="#262626" fill-rule="evenodd" d="M12 0 9.16115 3.8317c-1.26169 1.70295-.75056 4.12583 1.09155 5.17402.2389.13597.4898.24195.7473.31794V7c0-.55228.4477-1 1-1s1 .44772 1 1v2.32366c.2575-.07599.5084-.18197.7473-.31794 1.8421-1.04819 2.3532-3.47107 1.0915-5.17402L12 0ZM1 11.1429C1 11.064 1.06396 11 1.14286 11H22.8571c.0789 0 .1429.064.1429.1429V16c0 1.1046-1 2-3 2s-3-.8954-3-2v-1c0-.5523-.4477-1-1-1s-1 .4477-1 1v6c0 .5523-.4477 1-1 1s-1-.4477-1-1v-4c0-.5523-.4477-1-1-1s-1 .4477-1 1v4c0 2 .5 2.5 1 3H4c-.55228 0-1-.4477-1-1v-3.0354c4 0 5-1.7014 5-3.4646V15c0-.5523-.44772-1-1-1s-1 .4477-1 1v1.5c0 .8284-1 1.5-2.5 1.5S1 17.3284 1 16.5v-5.3571ZM17 21v-1.5351c.9112.4876 1.8223.5015 3.4899.5269.1626.0025.3324.0051.5101.0082v3c0 .5523-.4477 1-1 1h-4c.5-.5 1-1 1-3Z" clip-rule="evenodd"/></svg>