<svg xmlns="http://www.w3.org/2000/svg" width="24" height="24" fill="none" viewBox="0 0 24 24"><path fill="#262626" fill-rule="evenodd" d="M9.16115 3.8317 12 0l2.8388 3.8317c1.2617 1.70295.7506 4.12583-1.0915 5.17402-1.0833.61645-2.4113.61645-3.4946 0C8.41059 7.95753 7.89946 5.53465 9.16115 3.8317Zm1.60705 1.1906L12 3.35964l1.2318 1.66266c.5475.73896.3257 1.7903-.4736 2.24513-.4701.2675-1.0463.2675-1.5164 0-.7993-.45483-1.0211-1.50617-.4736-2.24513ZM3.14286 12C3.06396 12 3 12.064 3 12.1429V16.5c0 .8284.67157 1.5 1.5 1.5S6 17.3284 6 16.5V15c0-.5523.44772-1 1-1s1 .4477 1 1v1.5c0 1.7632-1.30385 3.2219-3 3.4646V22h6.1707c-.1105-.3128-.1707-.6494-.1707-1v-4c0-.5523.4477-1 1-1s1 .4477 1 1v4c0 .5523.4477 1 1 1s1-.4477 1-1v-6c0-.5523.4477-1 1-1s1 .4477 1 1v1c0 1.1046.8954 2 2 2s2-.8954 2-2v-3.8571c0-.0789-.064-.1429-.1429-.1429H3.14286ZM17 21v-1.5351c.5883.3403 1.2714.5351 2 .5351v2h-2.1707c.1105-.3128.1707-.6494.1707-1Zm4 1v-2.5351c1.1956-.6916 2-1.9843 2-3.4649v-3.8571C23 10.9594 22.0406 10 20.8571 10H3.14286C1.95939 10 1 10.9594 1 12.1429V16.5c0 1.3962.81753 2.6015 2 3.1632V22c0 1.1046.89543 2 2 2h14c1.1046 0 2-.8954 2-2Z" clip-rule="evenodd"/></svg>