<svg xmlns="http://www.w3.org/2000/svg" width="24" height="24" fill="none" viewBox="0 0 24 24"><path fill="#262626" fill-rule="evenodd" d="m6.39538 4.64168 1.4313.94851 1.15423-1.27123C9.71037 3.51556 10.7854 3 11.9999 3c1.2146 0 2.2896.51558 3.0191 1.31901l1.1542 1.2713 1.4314-.94859c.449-.29757.9957-.47505 1.5954-.47505 1.5999 0 2.8 1.24664 2.8 2.66666 0 1.02763-.6168 1.95387-1.5759 2.39932l-1.0592.49194L18.5519 20H5.44793L4.63492 9.72457 3.57581 9.2326C2.6168 8.78714 2 7.86093 2 6.83333c0-1.42002 1.20012-2.66666 2.8-2.66666.59965 0 1.14639.17746 1.59538.47501ZM3.59992 22H20.3999l.8667-10.9535C22.8832 10.2957 24 8.69132 24 6.83333c0-2.57733-2.149-4.66666-4.8-4.66666-1.0013 0-1.931.29807-2.7003.80793C15.4003 1.76371 13.7918 1 11.9999 1c-1.7919 0-3.40029.76368-4.4997 1.97453-.7693-.50982-1.69895-.80786-2.7002-.80786-2.65097 0-4.8 2.08933-4.8 4.66666 0 1.85793 1.11676 3.46227 2.73326 4.21317L3.59992 22ZM17 10H7v2h10v-2Z" clip-rule="evenodd"/></svg>