<svg xmlns="http://www.w3.org/2000/svg" width="24" height="24" fill="none" viewBox="0 0 24 24"><path fill="#262626" fill-rule="evenodd" d="M1 3v.97516c0 .57318.13938 1.18301.50673 1.73005.37109.55261.92998.97402 1.65362 1.23534.45496.16429.62459.31578.6984.41569C3.92505 7.44601 4 7.60964 4 8v1h2V8c0-.64189-.12427-1.27937-.53257-1.83209-.4008-.54258-.98118-.87497-1.62778-1.10846-.37792-.13647-.56903-.31506-.67255-.46922C3.05984 4.43051 3 4.22681 3 3.97516V3H1ZM0 19h24c0 1.1046-.8954 2-2 2H2c-1.10457 0-2-.8954-2-2Zm1.19437-9c-.622626 0-1.093878.5629-.984426 1.1758l.598496 3.3516C1.06394 15.9582 2.30831 17 3.76172 17h2.47652c1.45342 0 2.69778-1.0418 2.95328-2.4726l.5985-3.3516C9.89947 10.5629 9.42822 10 8.80559 10H1.19437Zm9.90073-6c-.5881 0-1.0492.50492-.9959 1.09054l.6554 7.20976C12.2649 10.8998 14.6129 10 17.25 10c.0683 0 .1365.0006.2044.0018l.4465-4.91126C17.9541 4.50492 17.493 4 16.905 4h-5.8099Zm10.7316 11c-.6105-1.7252-2.7639-3-5.3267-3-2.5628 0-4.7162 1.2748-5.3267 3H10c0 1.1046.8954 2 2 2h9c1.1046 0 2-.8954 2-2h-1.1733Z" clip-rule="evenodd"/></svg>