<svg xmlns="http://www.w3.org/2000/svg" width="24" height="24" fill="none" viewBox="0 0 24 24"><path fill="#262626" fill-rule="evenodd" d="M1 3v.97516c0 .57318.13938 1.18301.50673 1.73005.37109.55261.92998.97402 1.65362 1.23534.45496.16429.62459.31578.6984.41569C3.92505 7.44601 4 7.60964 4 8v1h2V8c0-.64189-.12427-1.27937-.53257-1.83209-.4008-.54258-.98118-.87497-1.62778-1.10846-.37792-.13647-.56903-.31506-.67255-.46922C3.05984 4.43051 3 4.22681 3 3.97516V3H1ZM0 19h24c0 1.1046-.8954 2-2 2H2c-1.10457 0-2-.8954-2-2Zm2.38876-7 .38854 2.1758c.08516.4769.49995.8242.98442.8242h2.47652c.48447 0 .89926-.3473.98443-.8242L7.6112 12H2.38876Zm-1.19439-2c-.622626 0-1.093878.5629-.984426 1.1758l.598496 3.3516C1.06394 15.9582 2.30831 17 3.76172 17h2.47652c1.45342 0 2.69778-1.0418 2.95328-2.4726l.5985-3.3516C9.89947 10.5629 9.42822 10 8.80559 10H1.19437ZM12.1901 6l.4564 5.0202c-.7192.3524-1.3579.785-1.8919 1.2801l-.6554-7.20976C10.0459 4.50492 10.507 4 11.0951 4h5.8099c.588 0 1.0491.50492.9959 1.09054l-.4465 4.91126C17.3865 10.0006 17.3183 10 17.25 10c-.6243 0-1.2324.0504-1.817.146L15.81 6h-3.6199Zm9.6366 9H23c0 1.1046-.8954 2-2 2h-9c-1.1046 0-2-.8954-2-2h1.1733c.6105-1.7252 2.7639-3 5.3267-3 2.5628 0 4.7162 1.2748 5.3267 3Zm-2.3554 0c-.0759-.07-.1617-.1405-.2586-.211C18.5946 14.3395 17.642 14 16.5 14s-2.0946.3395-2.7127.789c-.0969.0705-.1827.141-.2586.211h5.9426Z" clip-rule="evenodd"/></svg>