<svg xmlns="http://www.w3.org/2000/svg" width="24" height="24" fill="none" viewBox="0 0 24 24"><path fill="#262626" fill-rule="evenodd" d="M2.73326 11.0465 3.59992 22H20.3999l.8667-10.9535C22.8832 10.2957 24 8.69132 24 6.83333c0-2.57733-2.149-4.66666-4.8-4.66666-1.0013 0-1.931.29807-2.7003.80793C15.4003 1.76371 13.7918 1 11.9999 1c-1.7919 0-3.40029.76368-4.4997 1.97453-.7693-.50982-1.69895-.80786-2.7002-.80786-2.65097 0-4.8 2.08933-4.8 4.66666 0 1.85793 1.11676 3.46227 2.73326 4.21317ZM17 10H7v2h10v-2Z" clip-rule="evenodd"/></svg>