<svg xmlns="http://www.w3.org/2000/svg" width="24" height="24" fill="none" viewBox="0 0 24 24"><path fill="#262626" fill-rule="evenodd" d="M19.5168 11H4.48317c-1.19453 0-2.1227 1.0403-1.98707 2.2271l.22857 2C2.84012 16.2372 3.69503 17 4.71174 17H19.2882c1.0167 0 1.8717-.7628 1.9871-1.7729l.2286-2C21.6395 12.0403 20.7113 11 19.5168 11Zm-.9467-6.1088 1.6594 4.17184c2.0329.36445 3.505 2.25966 3.2614 4.39116l-.2285 2c-.2034 1.7793-1.554 3.1749-3.2624 3.4825V20.5c0 .8284-.6716 1.5-1.5 1.5s-1.5-.6716-1.5-1.5V19H7v1.5c0 .8284-.67157 1.5-1.5 1.5S4 21.3284 4 20.5v-1.5633C2.29154 18.6291.940958 17.2335.737606 15.4542l-.228571-2C.265434 11.3227 1.73756 9.42747 3.77046 9.06304l1.65943-4.17185C5.88406 3.74939 6.98863 3 8.21746 3h7.56504c1.2289 0 2.3334.74939 2.7876 1.8912ZM18.0521 9l-1.3404-3.3696C16.5603 5.2498 16.1922 5 15.7825 5H8.21746c-.40961 0-.7778.2498-.92919.6304L5.94795 9H18.0521ZM7 14c0 .5523-.44772 1-1 1s-1-.4477-1-1 .44772-1 1-1 1 .4477 1 1Zm11 1c.5523 0 1-.4477 1-1s-.4477-1-1-1-1 .4477-1 1 .4477 1 1 1Z" clip-rule="evenodd"/></svg>