<svg xmlns="http://www.w3.org/2000/svg" width="24" height="24" fill="none" viewBox="0 0 24 24"><path fill="#262626" fill-rule="evenodd" d="M3.77046 9.06304C1.73756 9.42747.265434 11.3227.509035 13.4542l.228571 2C.940958 17.2335 2.29154 18.6291 4 18.9367V20.5c0 .8284.67157 1.5 1.5 1.5S7 21.3284 7 20.5V19h10v1.5c0 .8284.6716 1.5 1.5 1.5s1.5-.6716 1.5-1.5v-1.5633c1.7084-.3076 3.059-1.7032 3.2624-3.4825l.2285-2c.2436-2.1315-1.2285-4.02671-3.2614-4.39116L18.5701 4.8912C18.1159 3.74939 17.0114 3 15.7825 3H8.21746c-1.22883 0-2.3334.74939-2.78757 1.89119L3.77046 9.06304ZM18.0521 9l-1.3404-3.3696C16.5603 5.2498 16.1922 5 15.7825 5H8.21746c-.40961 0-.7778.2498-.92919.6304L5.94795 9H18.0521ZM7 14c0 .5523-.44772 1-1 1s-1-.4477-1-1 .44772-1 1-1 1 .4477 1 1Zm12 0c0 .5523-.4477 1-1 1s-1-.4477-1-1 .4477-1 1-1 1 .4477 1 1Z" clip-rule="evenodd"/></svg>