<svg xmlns="http://www.w3.org/2000/svg" width="24" height="24" fill="none" viewBox="0 0 24 24"><path fill="#262626" fill-rule="evenodd" d="M15 5c0 1.65685-1.3431 3-3 3S9 6.65685 9 5s1.3431-3 3-3 3 1.34315 3 3Zm2 0c0 2.76142-2.2386 5-5 5-2.76142 0-5-2.23858-5-5s2.23858-5 5-5c2.7614 0 5 2.23858 5 5Zm.0997 8.9384c-1.3477-1.4327-3.2608-2.3273-5.383-2.3273-4.08076 0-7.38888 3.3081-7.38888 7.3889h2.11111c0-2.9148 2.36294-5.2778 5.27777-5.2778 1.5392 0 2.9245.6589 3.8892 1.71l1.4938-1.4938Zm-.2113 7.5382 4.0107-4.0107c.377-.3769.377-.9881 0-1.365-.3769-.377-.9881-.377-1.365 0l-4.0107 4.0107-.2882 1.6532 1.6532-.2882Zm.879 1.6924 4.4174-4.4174c1.087-1.087 1.087-2.8494 0-3.9364-1.087-1.0869-2.8494-1.0869-3.9363 0l-4.4175 4.4175L13 24l4.7674-.831Z" clip-rule="evenodd"/></svg>