<svg xmlns="http://www.w3.org/2000/svg" width="24" height="24" fill="none" viewBox="0 0 24 24"><path fill="#262626" fill-rule="evenodd" d="M17 5.25c0 2.8995-2.3505 5.25-5.25 5.25-2.89953 0-5.25004-2.3505-5.25004-5.25C6.49996 2.35051 8.85047 0 11.75 0 14.6495 0 17 2.35051 17 5.25Zm-5.3382 6.3611c-4.08079 0-7.38891 3.3081-7.38891 7.3889H14.4367l3.6506-3.6506c-1.2712-2.2327-3.6725-3.7383-6.4255-3.7383Zm10.686 5.0411c-.8696-.8696-2.2795-.8696-3.1491 0l-3.7922 3.7922L15 24l3.5555-.4065 3.7923-3.7922c.8696-.8696.8696-2.2795 0-3.1491Z" clip-rule="evenodd"/></svg>