<svg xmlns="http://www.w3.org/2000/svg" width="24" height="24" fill="none" viewBox="0 0 24 24"><path fill="#262626" fill-rule="evenodd" d="M2.75 12c0 5.1086 4.14137 9.25 9.25 9.25 5.1086 0 9.25-4.1414 9.25-9.25 0-5.10863-4.1414-9.25-9.25-9.25-5.10863 0-9.25 4.14137-9.25 9.25ZM12 22.75C6.06294 22.75 1.25 17.9371 1.25 12 1.25 6.06294 6.06294 1.25 12 1.25c5.9371 0 10.75 4.81294 10.75 10.75 0 5.9371-4.8129 10.75-10.75 10.75Z" clip-rule="evenodd"/><path fill="#262626" fill-rule="evenodd" d="m12 8.43934 4.5303 4.53036-1.0606 1.0606L12 10.5607l-3.46967 3.4696-1.06066-1.0606L12 8.43934Z" clip-rule="evenodd"/></svg>