<svg xmlns="http://www.w3.org/2000/svg" width="24" height="24" fill="none" viewBox="0 0 24 24"><path fill="#262626" fill-rule="evenodd" d="M12 21.25c5.1086 0 9.25-4.1414 9.25-9.25 0-5.10863-4.1414-9.25-9.25-9.25-5.10863 0-9.25 4.14137-9.25 9.25 0 5.1086 4.14137 9.25 9.25 9.25ZM22.75 12c0 5.9371-4.8129 10.75-10.75 10.75-5.93706 0-10.75-4.8129-10.75-10.75C1.25 6.06294 6.06294 1.25 12 1.25c5.9371 0 10.75 4.81294 10.75 10.75Z" clip-rule="evenodd"/><path fill="#262626" d="m10.4393 12 4.5304 4.5303 1.0606-1.0606L12.5607 12l3.4696-3.46967-1.0606-1.06066L10.4393 12Z"/><path fill="#262626" d="m6.93934 12 4.53036 4.5303 1.0606-1.0606L9.06066 12l3.46964-3.46967-1.0606-1.06066L6.93934 12Z"/></svg>