<svg xmlns="http://www.w3.org/2000/svg" width="24" height="24" fill="none" viewBox="0 0 24 24"><path fill="#262626" fill-rule="evenodd" d="M12 2.75c-5.10863 0-9.25 4.14137-9.25 9.25 0 5.1086 4.14137 9.25 9.25 9.25 5.1086 0 9.25-4.1414 9.25-9.25 0-5.10863-4.1414-9.25-9.25-9.25ZM1.25 12C1.25 6.06294 6.06294 1.25 12 1.25c5.9371 0 10.75 4.81294 10.75 10.75 0 5.9371-4.8129 10.75-10.75 10.75-5.93706 0-10.75-4.8129-10.75-10.75Z" clip-rule="evenodd"/><path fill="#262626" fill-rule="evenodd" d="m15.5607 12-4.5304 4.5303-1.06063-1.0606L13.4393 12 9.96967 8.53033l1.06063-1.06066L15.5607 12Z" clip-rule="evenodd"/></svg>