<svg xmlns="http://www.w3.org/2000/svg" width="24" height="24" fill="none" viewBox="0 0 24 24"><path fill="#262626" fill-rule="evenodd" d="M21.25 12c0-5.10863-4.1414-9.25-9.25-9.25-5.10863 0-9.25 4.14137-9.25 9.25 0 5.1086 4.14137 9.25 9.25 9.25 5.1086 0 9.25-4.1414 9.25-9.25ZM12 1.25c5.9371 0 10.75 4.81294 10.75 10.75 0 5.9371-4.8129 10.75-10.75 10.75-5.93706 0-10.75-4.8129-10.75-10.75C1.25 6.06294 6.06294 1.25 12 1.25Z" clip-rule="evenodd"/><path fill="#262626" fill-rule="evenodd" d="m12 15.5607-4.53033-4.5304 1.06066-1.06063L12 13.4393l3.4697-3.46963 1.0606 1.06063L12 15.5607Z" clip-rule="evenodd"/></svg>