<svg xmlns="http://www.w3.org/2000/svg" width="24" height="24" fill="none" viewBox="0 0 24 24"><path fill="#262626" fill-rule="evenodd" d="M18 8c0 3.3137-2.6863 6-6 6-3.31371 0-6-2.6863-6-6 0-3.31371 2.68629-6 6-6 3.3137 0 6 2.68629 6 6Zm2 0c0 4.4183-3.5817 8-8 8-4.41828 0-8-3.5817-8-8 0-4.41828 3.58172-8 8-8 4.4183 0 8 3.58172 8 8Zm-8 9c-3.86599 0-7 3.134-7 7h2c0-2.7614 2.23858-5 5-5 2.7614 0 5 2.2386 5 5h2c0-3.866-3.134-7-7-7Zm-1-9c0 .55229-.4477 1-1 1-.55228 0-1-.44771-1-1 0-.55228.44772-1 1-1 .5523 0 1 .44772 1 1Zm3 1c.5523 0 1-.44771 1-1 0-.55228-.4477-1-1-1s-1 .44772-1 1c0 .55229.4477 1 1 1Z" clip-rule="evenodd"/></svg>