<svg xmlns="http://www.w3.org/2000/svg" width="24" height="24" fill="none" viewBox="0 0 24 24"><path fill="#262626" fill-rule="evenodd" d="M13 6c0 2.20914-1.7909 4-4 4-2.20914 0-4-1.79086-4-4s1.79086-4 4-4c2.2091 0 4 1.79086 4 4Zm2 0c0 3.31371-2.6863 6-6 6-3.31371 0-6-2.68629-6-6s2.68629-6 6-6c3.3137 0 6 2.68629 6 6ZM2 22c0-3.866 3.13401-7 7-7 3.866 0 7 3.134 7 7v2h2v-2c0-4.9706-4.0294-9-9-9-4.97056 0-9 4.0294-9 9v2h2v-2ZM19 7c0-1.65685-1.3431-3-3-3V2c2.7614 0 5 2.23858 5 5 0 1.90071-1.0606 3.5537-2.6222 4.3995C21.6942 12.5511 24 16.0483 24 20h-2c0-3.9956-2.8075-7-6-7v-3c1.6569 0 3-1.34315 3-3Z" clip-rule="evenodd"/></svg>