<svg xmlns="http://www.w3.org/2000/svg" width="25" height="24" fill="none" viewBox="0 0 25 24"><path fill="#262626" fill-rule="evenodd" d="M3.48651 19v-2H1.00418c-.767354 0-1.248777-.8286-.86876-1.4952L2.98833 10.5C2.98833 4.70126 7.68914 0 13.4879 0c8.4401 0 13.4306 9.45374 8.6693 16.4226L21.4211 17.5V24H8.96654v-2H6.48651c-1.65685 0-3-1.3431-3-3ZM15.4444 7c.2752 0 .4982-.22386.4982-.5s-.223-.5-.4982-.5c-.2751 0-.4981.22386-.4981.5s.223.5.4981.5Zm0 2c1.3757 0 2.491-1.11929 2.491-2.5S16.8201 4 15.4444 4c-1.3757 0-2.4909 1.11929-2.4909 2.5 0 .5739.1927 1.10264.5167 1.5246l-.3255.54438-2.1862-1.17025C10.9055 6.06497 9.81144 5 8.46954 5c-1.3757 0-2.49092 1.11929-2.49092 2.5S7.09384 10 8.46954 10c.68515 0 1.30569-.27763 1.75606-.72691l1.8925 1.01301-.4328.724c-.0743-.0067-.1496-.0101-.2256-.0101-1.3757 0-2.49093 1.1193-2.49093 2.5S10.084 16 11.4597 16c1.3757 0 2.4909-1.1193 2.4909-2.5 0-.5743-.1929-1.1034-.5173-1.5255l.4458-.7458 2.0685 1.1073c-.0035.0542-.0053.1089-.0053.164 0 1.3807 1.1152 2.5 2.4909 2.5s2.491-1.1193 2.491-2.5-1.1153-2.5-2.491-2.5c-.5953 0-1.1418.2096-1.5703.5592l-1.9572-1.04762.3119-.52181c.0747.00677.1504.01023.2268.01023ZM8.46954 8c.27514 0 .49819-.22386.49819-.5S8.74468 7 8.46954 7c-.27514 0-.49818.22386-.49818.5s.22304.5.49818.5Zm9.96366 5c.2752 0 .4982-.2239.4982-.5s-.223-.5-.4982-.5c-.2751 0-.4981.2239-.4981.5s.223.5.4981.5Zm-6.4753.5c0 .2761-.2231.5-.4982.5s-.4982-.2239-.4982-.5.2231-.5.4982-.5.4982.2239.4982.5Z" clip-rule="evenodd"/></svg>