<svg xmlns="http://www.w3.org/2000/svg" width="24" height="24" fill="none" viewBox="0 0 24 24"><path fill="#262626" fill-rule="evenodd" d="M2.03257 10.3099C2.13321 4.59864 6.76058 0 12.4542 0h.5535c8.332 0 13.6263 8.98403 9.6365 16.3525l-.7594 1.4025V24h-1.9854v-6.755l1.0018-1.8502C24.1694 9.35908 19.8327 2 13.0077 2h-.5535c-4.66014 0-8.43792 3.80558-8.43792 8.5v.1857L1.98725 16h3.02173v3c0 1.1046.88889 2 1.98539 2h3.97073v3H8.97976v-1H6.99437c-2.193 0-3.97078-1.7909-3.97078-4v-1H1.98725C.593943 18-.365973 16.592.134194 15.282l1.898376-4.9721ZM8.48346 8c.27413 0 .49635-.22386.49635-.5S8.75759 7 8.48346 7c-.27412 0-.49634.22386-.49634.5s.22222.5.49634.5Zm0 2c.68256 0 1.30076-.27758 1.74944-.72679l1.8857 1.01309-.4312.7239c-.0744-.0067-.1497-.0102-.2259-.0102-1.3706 0-2.48169 1.1193-2.48169 2.5S10.0909 16 11.4615 16c1.3707 0 2.4818-1.1193 2.4818-2.5 0-.5741-.1921-1.1031-.5152-1.5251l.4445-.7462 2.0613 1.1074c-.0035.0542-.0052.1088-.0052.1639 0 1.3807 1.1111 2.5 2.4817 2.5s2.4817-1.1193 2.4817-2.5S19.781 10 18.4104 10c-.5932 0-1.1377.2096-1.5646.5594l-1.9504-1.04789.3107-.52175c.0745.00678.15.01024.2262.01024 1.3706 0 2.4818-1.11929 2.4818-2.5S16.8029 4 15.4323 4c-1.3706 0-2.4817 1.11929-2.4817 2.5 0 .57401.192 1.10284.5149 1.52485l-.3242.54428-2.1781-1.17022C10.9106 6.06507 9.82048 5 8.48346 5 7.11284 5 6.00173 6.11929 6.00173 7.5S7.11284 10 8.48346 10Zm10.42334 2.5c0 .2761-.2223.5-.4964.5s-.4963-.2239-.4963-.5.2222-.5.4963-.5.4964.2239.4964.5ZM11.4615 14c.2742 0 .4964-.2239.4964-.5s-.2222-.5-.4964-.5c-.2741 0-.4963.2239-.4963.5s.2222.5.4963.5Zm4.4672-7.5c0 .27614-.2223.5-.4964.5s-.4963-.22386-.4963-.5.2222-.5.4963-.5.4964.22386.4964.5Z" clip-rule="evenodd"/></svg>