<svg xmlns="http://www.w3.org/2000/svg" width="24" height="24" fill="none" viewBox="0 0 24 24"><path fill="#262626" fill-rule="evenodd" d="M4 2c0-1.10457.89543-2 2-2h12c1.1046 0 2 .895431 2 2v9H8V9H6v2H4V2Zm0 11v9c0 1.1046.89543 2 2 2h12c1.1046 0 2-.8954 2-2v-9H8v2H6v-2H4Zm11.2847 4.8695L13.4981 14l-1.7865 3.8695C11.0475 19.3078 12.0133 21 13.4981 21c1.4849 0 2.4506-1.6922 1.7866-3.1305ZM14.4981 3h-2v1.69598l-1.4383-.89875-1.05982 1.6961L11.611 6.50001 10 7.50667l1.0598 1.69609 1.4383-.89873V10h2V8.30407l1.4382.89869 1.0599-1.69609-1.611-1.00666 1.611-1.00668-1.0599-1.6961-1.4382.89871V3Z" clip-rule="evenodd"/></svg>