<svg xmlns="http://www.w3.org/2000/svg" width="24" height="24" fill="none" viewBox="0 0 24 24"><path fill="#262626" fill-rule="evenodd" d="M4 2c0-1.10457.89543-2 2-2h12c1.1046 0 2 .895431 2 2v9H8V9H6v2H4V2Zm0 11v9c0 1.1046.89543 2 2 2h12c1.1046 0 2-.8954 2-2v-9H8v2H6v-2H4Zm10.4981 1v1.6959l1.4382-.8987 1.0599 1.6961-1.611 1.0067 1.611 1.0067-1.0599 1.6961-1.4382-.8987V21h-2v-1.696l-1.4383.8988L10 18.5067 11.611 17.5l-1.61102-1.0067 1.05982-1.6961 1.4383.8988V14h2Zm-1-11 1.7866 3.86951C15.9487 8.30777 14.983 10 13.4981 10c-1.4848 0-2.4506-1.69223-1.7865-3.13049L13.4981 3Z" clip-rule="evenodd"/></svg>