<svg xmlns="http://www.w3.org/2000/svg" width="24" height="24" fill="none" viewBox="0 0 24 24"><path fill="#262626" fill-rule="evenodd" d="M6 2h12v9H8V9H6V2ZM4 13V2c0-1.10457.89543-2 2-2h12c1.1046 0 2 .895431 2 2v20c0 1.1046-.8954 2-2 2H6c-1.10457 0-2-.8954-2-2v-9Zm14 0v9H6v-7h2v-2h10Zm-3.5019 1h-2v1.696l-1.4383-.8988-1.05982 1.6961L11.611 17.5 10 18.5067l1.0598 1.6961 1.4383-.8988V21h2v-1.6959l1.4382.8987 1.0599-1.6961-1.611-1.0067 1.611-1.0067-1.0599-1.6961-1.4382.8987V14Zm.7866-7.13049L13.4981 3l-1.7865 3.86951C11.0475 8.30777 12.0133 10 13.4981 10c1.4849 0 2.4506-1.69223 1.7866-3.13049Z" clip-rule="evenodd"/></svg>