<svg xmlns="http://www.w3.org/2000/svg" width="24" height="24" fill="none" viewBox="0 0 24 24"><path fill="#262626" fill-rule="evenodd" d="M6 2h12v9H8V9H6V2ZM4 13V2c0-1.10457.89543-2 2-2h12c1.1046 0 2 .895431 2 2v20c0 1.1046-.8954 2-2 2H6c-1.10457 0-2-.8954-2-2v-9Zm14 0v9H6v-7h2v-2h10Zm-4.5019 1 1.7866 3.8695C15.9487 19.3078 14.983 21 13.4981 21c-1.4848 0-2.4506-1.6922-1.7865-3.1305L13.4981 14Zm-1-11h2v1.69594l1.4382-.89871 1.0599 1.6961-1.611 1.00668 1.611 1.00666-1.0599 1.69609-1.4382-.89869V10h-2V8.30403l-1.4383.89873L10 7.50667l1.611-1.00666-1.61102-1.00668 1.05982-1.6961 1.4383.89875V3Z" clip-rule="evenodd"/></svg>