<svg xmlns="http://www.w3.org/2000/svg" width="24" height="24" fill="none" viewBox="0 0 24 24"><path fill="#262626" fill-rule="evenodd" d="M2 15H0V9h2l-.001 2 1.0559.0003c.19181-1.73574.87724-3.32273 1.91279-4.61748L4 5.414l-.70711.70732-1.41421-1.41421 2.82843-2.82843 1.41421 1.41421L5.414 4l.96882.96769C7.67757 3.93214 9.26456 3.24671 11.0003 3.0549L11 2H9V0h6v2h-2l.0007 1.05501c1.7353.19197 3.322.87733 4.6165 1.91268L18.586 4l-.7073-.70711 1.4142-1.41421 2.8284 2.82843-1.4142 1.41421L20 5.414l-.9677.96882c1.0356 1.29475 1.721 2.88174 1.9128 4.61748L22 11V9h2v6h-2v-2l-1.055.0007c-.1953 1.7656-.9014 3.3773-1.9672 4.6839l.9612.9614.7681-.7673 1.4142 1.4142-2.8284 2.8284-1.4142-1.4142.6463-.6471-.9754-.9742c-1.2819 1.0055-2.8436 1.6705-4.5489 1.8592L13 22h2v2H9v-2h2l.0003-1.0549c-1.70567-.1885-3.2677-.8536-4.54993-1.8593L5.474 20.06l.64732.6471-1.41421 1.4142-2.82843-2.8284 1.41421-1.4142.76711.7673.96218-.9614c-1.06579-1.3066-1.77186-2.9183-1.96717-4.6839L2 13v2Zm8 0c.5523 0 1 .4477 1 1s-.4477 1-1 1c-.55229 0-1-.4477-1-1s.44771-1 1-1Zm5-1c.5523 0 1 .4477 1 1s-.4477 1-1 1-1-.4477-1-1 .4477-1 1-1Zm-5-7c1.6569 0 3 1.34315 3 3 0 1.6569-1.3431 3-3 3-1.65685 0-3-1.3431-3-3 0-1.65685 1.34315-3 3-3Zm6 2c.5523 0 1 .44771 1 1 0 .5523-.4477 1-1 1s-1-.4477-1-1c0-.55229.4477-1 1-1Z" clip-rule="evenodd"/></svg>