<svg xmlns="http://www.w3.org/2000/svg" width="24" height="24" fill="none" viewBox="0 0 24 24"><path fill="#262626" fill-rule="evenodd" d="M2 16V5h14v11c0 2.2091-1.7909 4-4 4H6c-2.20914 0-4-1.7909-4-4ZM0 4c0-.55229.447715-1 1-1h16c.5523 0 1 .44772 1 1v3.25606C18.4692 7.09023 18.974 7 19.5 7c2.4853 0 4.5 2.01472 4.5 4.5 0 2.4853-2.0147 4.5-4.5 4.5-.526 0-1.0308-.0902-1.5-.2561V16c0 3.3137-2.6863 6-6 6H6c-3.31371 0-6-2.6863-6-6V4Zm18 9.5002c.4178.3138.9372.4998 1.5.4998 1.3807 0 2.5-1.1193 2.5-2.5S20.8807 9 19.5 9c-.5628 0-1.0822.18597-1.5.49982v4.00038Z" clip-rule="evenodd"/></svg>