<svg xmlns="http://www.w3.org/2000/svg" width="24" height="24" fill="none" viewBox="0 0 24 24"><mask id="a" fill="#fff"><path fill-rule="evenodd" d="M9 1c0-.552285.44772-1 1-1h4c.5523 0 1 .447715 1 1v19H9V1ZM2 12c-.55228 0-1 .4477-1 1v7h6v-7c0-.5523-.44772-1-1-1H2Zm22 10H0v2h24v-2ZM18 6c-.5523 0-1 .44772-1 1v13h6V7c0-.55228-.4477-1-1-1h-4Z" clip-rule="evenodd"/></mask><path fill="#262626" fill-rule="evenodd" d="M9 1c0-.552285.44772-1 1-1h4c.5523 0 1 .447715 1 1v19H9V1ZM2 12c-.55228 0-1 .4477-1 1v7h6v-7c0-.5523-.44772-1-1-1H2Zm22 10H0v2h24v-2ZM18 6c-.5523 0-1 .44772-1 1v13h6V7c0-.55228-.4477-1-1-1h-4Z" clip-rule="evenodd"/><path fill="#262626" d="M15 20v2h2v-2h-2Zm-6 0H7v2h2v-2Zm-8 0h-2v2h2v-2Zm6 0v2h2v-2H7Zm-7 2v-2h-2v2h2Zm24 0h2v-2h-2v2ZM0 24h-2v2h2v-2Zm24 0v2h2v-2h-2Zm-7-4h-2v2h2v-2Zm6 0v2h2v-2h-2ZM10-2C8.34315-2 7-.656854 7 1h4c0 .55229-.4477 1-1 1v-4Zm4 0h-4v4h4v-4Zm3 3c0-1.656855-1.3431-3-3-3v4c-.5523 0-1-.44771-1-1h4Zm0 19V1h-4v19h4Zm-8 2h6v-4H9v4ZM7 1v19h4V1H7ZM3 13c0 .5523-.44771 1-1 1v-4c-1.656855 0-3 1.3431-3 3h4Zm0 7v-7h-4v7h4Zm4-2H1v4h6v-4Zm-2-5v7h4v-7H5Zm1 1c-.55229 0-1-.4477-1-1h4c0-1.6569-1.34315-3-3-3v4Zm-4 0h4v-4H2v4ZM0 24h24v-4H0v4Zm2 0v-2h-4v2h4Zm22-2H0v4h24v-4Zm-2 0v2h4v-2h-4ZM19 7c0 .55228-.4477 1-1 1V4c-1.6569 0-3 1.34315-3 3h4Zm0 13V7h-4v13h4Zm4-2h-6v4h6v-4ZM21 7v13h4V7h-4Zm1 1c-.5523 0-1-.44771-1-1h4c0-1.65685-1.3431-3-3-3v4Zm-4 0h4V4h-4v4Z" mask="url(#a)"/></svg>