<svg xmlns="http://www.w3.org/2000/svg" width="24" height="24" fill="none" viewBox="0 0 24 24"><path fill="#262626" fill-rule="evenodd" d="M12 8c1.6569 0 3-1.34315 3-3s-1.3431-3-3-3-3 1.34315-3 3 1.3431 3 3 3Zm0 2c2.7614 0 5-2.23858 5-5s-2.2386-5-5-5C9.23858 0 7 2.23858 7 5s2.23858 5 5 5Zm2.0829 11.0029 7.21-7.21 1.4142 1.4142-8.79 8.79-2.698-3.3724 1.5618-1.2494 1.302 1.6276ZM12 13c-2.76142 0-5 2.2386-5 5H5c0-3.866 3.13401-7 7-7 2.5234 0 4.735 1.3353 5.9667 3.3378l-1.4711 1.4711C15.6835 14.1457 13.9755 13 12 13Z" clip-rule="evenodd"/></svg>