<svg xmlns="http://www.w3.org/2000/svg" width="24" height="24" fill="none" viewBox="0 0 24 24"><path fill="#262626" fill-rule="evenodd" d="M11 10c2.7614 0 5-2.23858 5-5s-2.2386-5-5-5C8.23858 0 6 2.23858 6 5s2.23858 5 5 5Zm0 1c-3.86599 0-7 3.134-7 7h4.7108l6.0769-5.8877C13.6959 11.4084 12.3956 11 11 11Zm6.8639 1.2854c.3906-.3805 1.0237-.3805 1.4143 0l4.4194 4.3069c.3905.3805.3905.9976 0 1.3781l-2.4749 2.4119c-.3905.3805-1.0237.3805-1.4142 0l-1.591-1.5505L12.9142 24 11.5 22.6218l5.3033-5.1682-1.4142-1.3782c-.3906-.3805-.3906-.9976 0-1.3781l2.4748-2.4119Z" clip-rule="evenodd"/></svg>