<svg xmlns="http://www.w3.org/2000/svg" width="24" height="24" fill="none" viewBox="0 0 24 24"><path fill="#262626" fill-rule="evenodd" d="M11.9997 7.99978c1.6568 0 2.9999-1.34311 2.9999-2.99992s-1.3431-2.99992-2.9999-2.99992c-1.6568 0-2.99995 1.34311-2.99995 2.99992s1.34315 2.99992 2.99995 2.99992Zm0 1.99994c2.7613 0 4.9998-2.23851 4.9998-4.99986C16.9995 2.23851 14.761 0 11.9997 0 9.23832 0 6.9998 2.23851 6.9998 4.99986c0 2.76135 2.23852 4.99986 4.9999 4.99986Zm6.4439 8.88648-3.0224-3.886 1.5786-1.2278 2.7106 3.485 2.7105-3.485 1.5787 1.2278-3.0224 3.886 3.0224 3.8859L22.421 24l-2.7106-3.4851L16.9998 24l-1.5787-1.2279 3.0225-3.8859Zm-4.3094-5.4093 1.7013-1.3336c-1.1016-.723-2.4196-1.1436-3.8358-1.1436-3.86592 0-6.99984 3.1339-6.99984 6.9998H6.9998c0-2.7614 2.23852-4.9999 4.9999-4.9999.7635 0 1.4871.1712 2.1345.4773Z" clip-rule="evenodd"/></svg>