<svg xmlns="http://www.w3.org/2000/svg" width="24" height="24" fill="none" viewBox="0 0 24 24"><path fill="#262626" fill-rule="evenodd" d="M10.9565 8c1.6569 0 3-1.34315 3-3s-1.3431-3-3-3C9.29969 2 7.95654 3.34315 7.95654 5s1.34315 3 2.99996 3Zm0 2c2.7615 0 5-2.23858 5-5s-2.2385-5-5-5C8.19512 0 5.95654 2.23858 5.95654 5s2.23858 5 4.99996 5Zm9.1004 1.5858c-.7811-.7811-2.0474-.7811-2.8284 0L15.8143 13c-.7811.781-.7811 2.0474 0 2.8284l.8713.8713-4.5785 4.5785-.7071.7071 1.4142 1.4142.7071-.7071 4.5785-4.5784.9498.9497c.781.7811 2.0473.7811 2.8284 0l1.4142-1.4142c.7811-.781.7811-2.0474 0-2.8284l-3.2353-3.2353ZM18.6427 13l3.2353 3.2353-1.4142 1.4142-3.2353-3.2353L18.6427 13ZM11 11c1.1352 0 2.2095.2709 3.1594.7521l-1.558 1.5096C12.0993 13.092 11.5609 13 11 13c-2.76142 0-5 2.2386-5 5H4c0-3.866 3.13401-7 7-7Z" clip-rule="evenodd"/></svg>