<svg xmlns="http://www.w3.org/2000/svg" width="24" height="24" fill="none" viewBox="0 0 24 24"><path fill="#262626" fill-rule="evenodd" d="M9.99998 3c-.55229 0-1 .44772-1 1v1H15V4c0-.55228-.4477-1-1-1H9.99998ZM17 5V4c0-1.65685-1.3432-3-3-3H9.99998c-1.65686 0-3 1.34315-3 3v1H2v2h2.06442l.81331 12.1996C4.98279 20.7754 6.29169 22 7.87108 22h8.25782c1.5794 0 2.8883-1.2246 2.9933-2.8004L19.9355 7H22V5h-5Zm.9311 2H6.06886l.80444 12.0665c.03502.5253.47132.9335.99778.9335h8.25782c.5264 0 .9627-.4082.9978-.9335L17.9311 7ZM9 18V9h2v9H9Zm4 0V9h2v9h-2Z" clip-rule="evenodd"/></svg>