<svg xmlns="http://www.w3.org/2000/svg" width="24" height="24" fill="none" viewBox="0 0 24 24"><path fill="#262626" fill-rule="evenodd" d="M18 4c0-1.10457-.8954-2-2-2H4c-1.10457 0-2 .89543-2 2v12.7896l4-2.4616V18c0 1.1046.89543 2 2 2h8.4471L22 22.5629V10c0-1.10457-.8954-2-2-2h-2V4ZM6 10v2h-.03304L4 13.2104V4h12v4H8c-1.10457 0-2 .89543-2 2Zm14 8.5714V10H8v8h8.8864L20 19.4371v-.8657ZM11 15c.5523 0 1-.4477 1-1s-.4477-1-1-1-1 .4477-1 1 .4477 1 1 1Zm4-1c0 .5523-.4477 1-1 1s-1-.4477-1-1 .4477-1 1-1 1 .4477 1 1Zm2 1c.5523 0 1-.4477 1-1s-.4477-1-1-1-1 .4477-1 1 .4477 1 1 1Z" clip-rule="evenodd"/></svg>