<svg xmlns="http://www.w3.org/2000/svg" width="24" height="24" fill="none" viewBox="0 0 24 24"><path fill="#262626" fill-rule="evenodd" d="M16 2c1.1046 0 2 .89543 2 2v2H7C5.34315 6 4 7.34315 4 9v6.5588l-2 1.2308V4c0-1.10457.89543-2 2-2h12ZM8 8c-1.10457 0-2 .89543-2 2v8c0 1.1046.89543 2 2 2h8.4471L22 22.5629V10c0-1.10457-.8954-2-2-2H8Zm4 6c0 .5523-.4477 1-1 1s-1-.4477-1-1 .4477-1 1-1 1 .4477 1 1Zm2 1c.5523 0 1-.4477 1-1s-.4477-1-1-1-1 .4477-1 1 .4477 1 1 1Zm4-1c0 .5523-.4477 1-1 1s-1-.4477-1-1 .4477-1 1-1 1 .4477 1 1Z" clip-rule="evenodd"/></svg>