<svg xmlns="http://www.w3.org/2000/svg" width="24" height="24" fill="none" viewBox="0 0 24 24"><path fill="#262626" fill-rule="evenodd" d="M4 0C1.79086 0 0 1.79086 0 4v20l7-5h13c2.2091 0 4-1.7909 4-4V4c0-2.20914-1.7909-4-4-4H4Zm16 2c1.0544 0 1.9182.81588 1.9945 1.85074L22 15c0 1.0544-.9651 1.9237-2 2H6l-4 3V4c0-1.05436.81588-1.91817 1.85074-1.99451L20 2ZM7 9c-.55228 0-1 .44771-1 1 0 .5523.44772 1 1 1s1-.4477 1-1c0-.55229-.44772-1-1-1Zm5 0c-.5523 0-1 .44771-1 1 0 .5523.4477 1 1 1s1-.4477 1-1c0-.55229-.4477-1-1-1Zm5 0c-.5523 0-1 .44771-1 1 0 .5523.4477 1 1 1s1-.4477 1-1c0-.55229-.4477-1-1-1Z" clip-rule="evenodd"/></svg>