<svg xmlns="http://www.w3.org/2000/svg" width="24" height="24" fill="none" viewBox="0 0 24 24"><path fill="#262626" fill-rule="evenodd" d="M0 4c0-2.20914 1.79086-4 4-4h16c2.2091 0 4 1.79086 4 4v11c0 2.2091-1.7909 4-4 4H7l-7 5V4Zm21.9945-.14926C21.9182 2.81588 21.0544 2 20 2l-16.14926.00549C2.81588 2.08183 2 2.94564 2 4v16l4-3h14c1.0349-.0763 2-.9456 2-2l-.0055-11.14926ZM10.5 13.5c0-.8284.6716-1.5 1.5-1.5s1.5.6716 1.5 1.5S12.8284 15 12 15s-1.5-.6716-1.5-1.5ZM11 4h2v6h-2V4Z" clip-rule="evenodd"/></svg>