<svg xmlns="http://www.w3.org/2000/svg" width="24" height="24" fill="none" viewBox="0 0 24 24"><path fill="#262626" fill-rule="evenodd" d="M16.9995 4.99986c0 2.76135-2.2385 4.99986-4.9998 4.99986-2.76138 0-4.9999-2.23851-4.9999-4.99986C6.9998 2.23851 9.23832 0 11.9997 0c2.7613 0 4.9998 2.23851 4.9998 4.99986Zm-4.9998 5.99984c-3.86592 0-6.99984 3.1339-6.99984 6.9998H15.3673l-2.6821-3.4484 3.1853-2.3846c-1.1087-.7373-2.4396-1.1668-3.8708-1.1668Zm3.2608 4.0005 3.0224 3.886-3.0224 3.8859L16.8392 24l2.7106-3.4851L22.2603 24l1.5787-1.2279-3.0224-3.8859 3.0224-3.886-1.5787-1.2278-2.7106 3.485-2.7105-3.485-1.5787 1.2278Z" clip-rule="evenodd"/></svg>