<svg xmlns="http://www.w3.org/2000/svg" width="24" height="24" fill="none" viewBox="0 0 24 24"><path fill="#262626" fill-rule="evenodd" d="M1 1c0-.552285.44772-1 1-1h2c1.65685 0 3 1.34315 3 3v4h9c1.6569 0 3 1.34315 3 3v5h3c.5523 0 1 .4477 1 1s-.4477 1-1 1h-5v-7c0-.55228-.4477-1-1-1H5V3c0-.55228-.44772-1-1-1H2c-.55228 0-1-.44772-1-1Zm14 16c0 3.866-3.134 7-7 7-3.86599 0-7-3.134-7-7s3.13401-7 7-7c3.866 0 7 3.134 7 7Zm4 7c1.6569 0 3-1.3431 3-3s-1.3431-3-3-3-3 1.3431-3 3 1.3431 3 3 3Z" clip-rule="evenodd"/></svg>