<svg xmlns="http://www.w3.org/2000/svg" width="24" height="24" fill="none" viewBox="0 0 24 24"><path fill="#262626" fill-rule="evenodd" d="M3 1c-.55229 0-1 .44772-1 1v3h20V2c0-.55228-.4477-1-1-1H3ZM2 12V7h20v5h-4c0-1.1046-.8954-2-2-2s-2 .8954-2 2h-2c0-.7028.1812-1.3632.4995-1.9371C12.3398 10.0218 12.1725 10 12 10c-1.1046 0-2 .8954-2 2H8c0-.7028.18123-1.3632.49951-1.9371C8.33985 10.0218 8.17247 10 8 10c-1.10457 0-2 .8954-2 2H2Zm-.61257 2c-.682563 0-1.164533.6687-.948689 1.3162l2.333339 7c.13611.4084.51825.6838.94868.6838H20.2792c.4305 0 .8126-.2754.9487-.6838l2.3334-7c.2158-.6475-.2662-1.3162-.9487-1.3162H1.38743ZM15 18H9v-2h6v2Z" clip-rule="evenodd"/></svg>