<svg xmlns="http://www.w3.org/2000/svg" width="24" height="24" fill="none" viewBox="0 0 24 24"><path fill="#262626" fill-rule="evenodd" d="M4 3v2h16V3H4Zm0 9V7h16v5c0-2.20914-1.7909-4-4-4-.7286 0-1.4117.19479-2 .53513C13.4117 8.19479 12.7286 8 12 8c-.7286 0-1.4117.19479-2 .53513C9.41165 8.19479 8.72858 8 8 8c-2.20914 0-4 1.79086-4 4Zm8.4995-1.9371C12.3398 10.0218 12.1725 10 12 10c-1.1046 0-2 .8954-2 2h2c0-.7028.1812-1.3632.4995-1.9371ZM14 12h4c0-1.1046-.8954-2-2-2s-2 .8954-2 2Zm-6-2c.17247 0 .33985.0218.49951.0629C8.18123 10.6368 8 11.2972 8 12H6c0-1.1046.89543-2 2-2ZM2 2v10h-.69078c-.659373 0-1.138256.627-.964763 1.2631l2.454543 9c.11866.4351.51381.7369.96477.7369H20.2362c.4509 0 .8461-.3018.9647-.7369l2.4546-9C23.829 12.627 23.3501 12 22.6907 12H22V2c0-.55228-.4477-1-1-1H3c-.55228 0-1 .44772-1 1Zm2.52756 19-1.90909-7H21.3815l-1.9091 7H4.52756ZM15 18v-2H9v2h6Z" clip-rule="evenodd"/></svg>