<svg xmlns="http://www.w3.org/2000/svg" width="24" height="24" fill="none" viewBox="0 0 24 24"><path fill="#262626" fill-rule="evenodd" d="M2 12c0-5.18535 3.94668-9.4489 9-9.95062V12.4142l7.3288 7.3288C16.6044 21.1544 14.4017 22 12 22 6.47715 22 2 17.5228 2 12Zm17.7488 9.163C17.6587 22.9321 14.9533 24 12 24 5.37258 24 0 18.6274 0 12 0 5.70934 4.84047.549225 11 .0410738V0h2v.0410738C19.1595.549225 24 5.70934 24 12c0 2.9533-1.0679 5.6587-2.837 7.7488l.0294.0294-.7071.7071-.7071.7071-.0294-.0294Zm-.0058-2.8342C21.1543 16.6044 22 14.4017 22 12c0-5.18535-3.9467-9.4489-9-9.95062v9.53642l6.743 6.743Z" clip-rule="evenodd"/></svg>