<svg xmlns="http://www.w3.org/2000/svg" width="24" height="24" fill="none" viewBox="0 0 24 24"><path fill="#262626" fill-rule="evenodd" d="M11 5c0-1.65685 1.3431-3 3-3h2c1.6569 0 3 1.34315 3 3v19h2V5c0-2.76142-2.2386-5-5-5h-2c-2.7614 0-5 2.23858-5 5h2Zm3.2846 13.7063-.1577 2.3602c-.035.5253-.4713.9335-.9978.9335H6.87133c-.52646 0-.96276-.4082-.99778-.9335l-.17179-2.5695c.59672.2513 1.39961.503 2.25157.503.9095 0 1.69681-.2939 2.32137-.527l.0958-.0357c.677-.2516 1.2182-.4373 1.8518-.4373.6325 0 1.1694.1902 1.5566.3893.192.0988.3406.1964.4373.266.0272.0196.0501.0368.0684.051Zm.1484-2.2213L15 8h2l-.8775 13.1996C16.0174 22.7755 14.7085 24 13.1291 24H6.87133c-1.57939 0-2.88829-1.2245-2.99335-2.8004L3 8h2l.54582 8.1643c.0124.0052.0185.0101.0185.0101l.0043.0028c.00659.0044.01831.012.03482.0226.03306.021.08501.0533.15311.0932.1369.08.33522.1881.57359.2961.49367.2236 1.08161.4109 1.62319.4109.53462 0 1.01434-.1749 1.72028-.4373C10.3416 16.3143 11.1893 16 12.2223 16c.8898 0 1.6447.2293 2.2107.485ZM10.0001 6.05635l2.314 3.85667C13.3933 11.7117 12.0977 14 10.0001 14c-2.09758 0-3.3932-2.2883-2.314-4.08697l2.314-3.85668Zm0 3.8873-.59902.99835c-.27937.4656.05603 1.058.59902 1.058.543 0 .8784-.5924.599-1.058l-.599-.99835Z" clip-rule="evenodd"/></svg>