<svg xmlns="http://www.w3.org/2000/svg" width="24" height="24" fill="none" viewBox="0 0 24 24"><path fill="#262626" fill-rule="evenodd" d="M11 5c0-1.65685 1.3431-3 3-3h2c1.6569 0 3 1.34315 3 3v19h2V5c0-2.76142-2.2386-5-5-5h-2c-2.7614 0-5 2.23858-5 5h2ZM5.60366 16.1998c-.00294-.0019-.0241-.0095-.05685-.0207L5 8H3l.87798 13.1996C3.98304 22.7755 5.29194 24 6.87133 24h6.25777c1.5794 0 2.8883-1.2245 2.9934-2.8004L17 8h-2l-.567 8.4849C13.867 16.2293 13.1122 16 12.2226 16c-1.0331 0-1.8808.3143-2.54877.5627C8.9679 16.8251 8.48817 17 7.95356 17c-.54158 0-1.12952-.1873-1.6232-.4109-.23836-.108-.43668-.2161-.57358-.2961-.06811-.0399-.12005-.0722-.15312-.0932Zm6.71044-6.28677-2.314-3.85668-2.314 3.85668C6.6069 11.7117 7.90252 14 10.0001 14c2.0976 0 3.3932-2.2883 2.314-4.08697Z" clip-rule="evenodd"/></svg>