<svg xmlns="http://www.w3.org/2000/svg" width="24" height="24" fill="none" viewBox="0 0 24 24"><path fill="#262626" fill-rule="evenodd" d="M22.8353 1.16464c1.5529 1.55286 1.5529 4.07054 0 5.6234L8.07288 21.5494.682007 24 0 23.318l2.44911-7.392L17.2115 1.16464c1.553-1.552854 4.0708-1.552854 5.6238 0Zm-4.2178 7.02924-2.8119-2.81169L4.18826 16.9987l-1.39329 4.2049 4.20658-1.3946L18.6175 8.19388Zm2.8118-5.62339c-.7411-.74114-1.9219-.77482-2.7031-.10106l-.1087.10106-1.406 1.40585 2.8119 2.8117 1.4059-1.40585c.7412-.74114.7749-1.92183.1011-2.70292l-.1011-.10878Z" clip-rule="evenodd"/></svg>