<svg xmlns="http://www.w3.org/2000/svg" width="24" height="24" fill="none" viewBox="0 0 24 24"><path fill="#262626" fill-rule="evenodd" d="M22 2H2v20h20V2ZM2 0C.895431 0 0 .89543 0 2v20c0 1.1046.89543 2 2 2h20c1.1046 0 2-.8954 2-2V2c0-1.104569-.8954-2-2-2H2Zm14 7c.5523 0 1-.44772 1-1s-.4477-1-1-1-1 .44772-1 1 .4477 1 1 1Zm0 2c1.6569 0 3-1.34315 3-3s-1.3431-3-3-3-3 1.34315-3 3 1.3431 3 3 3Zm0 0h2c1.1046 0 2 .89543 2 2v6h-1v4h-2v-6h1v-4h-4v4h1v6h-2v-4h-1v-6c0-1.10457.8954-2 2-2h2ZM7.00008 3l3.70712 3.70711-1.41423 1.41421L8 6.82835V11H6V6.8285L4.70718 8.12132 3.29297 6.70711 7.00008 3ZM3.29282 17.4142l3.7071 3.7071 3.70708-3.7071L9.29282 16 8 17.2928V13H6v4.293L4.70703 16l-1.41421 1.4142Z" clip-rule="evenodd"/></svg>