<svg xmlns="http://www.w3.org/2000/svg" width="24" height="24" fill="none" viewBox="0 0 24 24"><path fill="#262626" fill-rule="evenodd" d="M2 0C.895431 0 0 .89543 0 2v20c0 1.1046.89543 2 2 2h20c1.1046 0 2-.8954 2-2V2c0-1.104569-.8954-2-2-2H2Zm8.7072 6.70695-3.70712-3.7071-3.70711 3.7071 1.41421 1.41422L6 6.82835V11h2V6.8282l1.29297 1.29297 1.41423-1.41422ZM18.0001 6c0 1.10457-.8954 2-2 2s-2-.89543-2-2 .8954-2 2-2 2 .89543 2 2Zm-4 3c-.5523 0-1 .44772-1 1v5h1v5h4v-5h1v-5c0-.55228-.4477-1-1-1h-4ZM6.99992 21.0041l-3.7071-3.7071 1.41421-1.4143L6 17.1757V13h2v4.1756l1.29282-1.2929L10.707 17.297l-3.70708 3.7071Z" clip-rule="evenodd"/></svg>