<svg xmlns="http://www.w3.org/2000/svg" width="24" height="24" fill="none" viewBox="0 0 24 24"><path fill="#262626" fill-rule="evenodd" d="M24 1C24 .447715 23.5523-2e-8 23-4e-8l-22-9.7e-7C.447716-.00000103-2e-8 .447715-4e-8 .999999L-.00000101 23c-2e-8 .5523.44771601 1 1.00000001 1H23c.5523 0 1-.4477 1-1V1ZM10.5 6.5c0 .82843.6716 1.5 1.5 1.5s1.5-.67157 1.5-1.5S12.8284 5 12 5s-1.5.67157-1.5 1.5Zm0 5.5c0 .8284.6716 1.5 1.5 1.5s1.5-.6716 1.5-1.5-.6716-1.5-1.5-1.5-1.5.6716-1.5 1.5Zm1.5 7c-.8284 0-1.5-.6716-1.5-1.5S11.1716 16 12 16s1.5.6716 1.5 1.5S12.8284 19 12 19Z" clip-rule="evenodd"/></svg>