<svg xmlns="http://www.w3.org/2000/svg" width="24" height="24" fill="none" viewBox="0 0 24 24"><path fill="#262626" fill-rule="evenodd" d="M22 12c0 5.5228-4.4772 10-10 10-5.52285 0-10-4.4772-10-10C2 6.47715 6.47715 2 12 2c5.5228 0 10 4.47715 10 10Zm2 0c0 6.6274-5.3726 12-12 12-6.62742 0-12-5.3726-12-12C0 5.37258 5.37258 0 12 0c6.6274 0 12 5.37258 12 12ZM6.5 13.5c.82843 0 1.5-.6716 1.5-1.5s-.67157-1.5-1.5-1.5S5 11.1716 5 12s.67157 1.5 1.5 1.5Zm5.5 0c.8284 0 1.5-.6716 1.5-1.5s-.6716-1.5-1.5-1.5-1.5.6716-1.5 1.5.6716 1.5 1.5 1.5Zm7-1.5c0 .8284-.6716 1.5-1.5 1.5S16 12.8284 16 12s.6716-1.5 1.5-1.5 1.5.6716 1.5 1.5Z" clip-rule="evenodd"/></svg>