<svg xmlns="http://www.w3.org/2000/svg" width="24" height="24" fill="none" viewBox="0 0 24 24"><path fill="#262626" fill-rule="evenodd" d="M1 0C.447715 0 0 .447716 0 1v22c0 .5523.447716 1 1 1h22c.5523 0 1-.4477 1-1V1c0-.552285-.4477-1-1-1H1Zm5.5 13.5c.82843 0 1.5-.6716 1.5-1.5s-.67157-1.5-1.5-1.5S5 11.1716 5 12s.67157 1.5 1.5 1.5Zm5.5 0c.8284 0 1.5-.6716 1.5-1.5s-.6716-1.5-1.5-1.5-1.5.6716-1.5 1.5.6716 1.5 1.5 1.5Zm7-1.5c0 .8284-.6716 1.5-1.5 1.5S16 12.8284 16 12s.6716-1.5 1.5-1.5 1.5.6716 1.5 1.5Z" clip-rule="evenodd"/></svg>