<svg xmlns="http://www.w3.org/2000/svg" width="24" height="24" fill="none" viewBox="0 0 24 24"><path fill="#262626" fill-rule="evenodd" d="M.210623 7.51518 10.4732 13.0282l.0057.003L12 13.8609l1.5211-.8297.0057-.0031v.0001l10.2626-5.51302L12 1 .210623 7.51518ZM24 9.67234l-8.0686 4.33436L24 19.4557V9.67234Zm-.6217 11.77686-9.4337-6.3708-1.4657.7995-.4789.2612-.4789-.2612-1.4657-.7995-9.433749 6.3708C.980399 21.7905 1.46574 22 2 22h20c.5343 0 1.0196-.2095 1.3783-.5508ZM0 19.4557l8.06862-5.449L0 9.67234v9.78336Z" clip-rule="evenodd"/></svg>