<svg xmlns="http://www.w3.org/2000/svg" width="24" height="24" fill="none" viewBox="0 0 24 24"><path fill="#262626" fill-rule="evenodd" d="M17 7c0 2.76142-2.2385 5-5 5-2.76139 0-4.99997-2.23858-4.99997-5S9.23861 2 12 2c2.7615 0 5 2.23858 5 5Zm2 0c0 3.866-3.134 7-7 7-3.86596 0-6.99997-3.134-6.99997-7 0-3.86599 3.13401-7 6.99997-7 3.866 0 7 3.13401 7 7Zm-6 17v-5h-2v5l-2.77799-8.334c-.63639.2327-1.24527.5225-1.82043.8632C3.71594 18.1202 1.76533 20.821 1.1814 24h2.04167c.52118-2.2967 1.92084-4.2613 3.82891-5.5196L8.89184 24H13Zm7.777 0h2.0416c-.5839-3.179-2.5345-5.8798-5.2201-7.4708-.5752-.3407-1.1841-.6305-1.8205-.8632L13 24h2.1082l1.8399-5.5196c1.908 1.2583 3.3077 3.2229 3.8289 5.5196ZM13 16v2h-2v-2h2Z" clip-rule="evenodd"/></svg>