<svg xmlns="http://www.w3.org/2000/svg" width="24" height="24" fill="none" viewBox="0 0 24 24"><path fill="#BA3A26" d="M11.999 0C5.39479 0 .0125453 5.37181.00002356 11.976-.00623729 15.1815 1.2355 18.1972 3.49775 20.4688c2.26226 2.2706 5.27373 3.5249 8.47925 3.5311H12c6.6031 0 11.9864-5.3728 12-11.978C24.0125 5.40625 18.6396.0125217 11.999 0Z"/><path fill="#fff" fill-rule="evenodd" d="M15.5714 6.99998 17 8.42855 13.428 12 17 15.5714 15.5714 17 12 13.428 8.42855 17l-1.42857-1.4286L10.572 12 6.99998 8.42855l1.42857-1.42857L12 10.572l3.5714-3.57202Z" clip-rule="evenodd"/></svg>