<svg xmlns="http://www.w3.org/2000/svg" width="24" height="24" fill="none" viewBox="0 0 24 24"><path fill="#262626" fill-rule="evenodd" d="M12 0c6.6274 0 12 5.37258 12 12 0 6.6274-5.3726 12-12 12-6.62742 0-12-5.3726-12-12C0 5.37258 5.37258 0 12 0Zm0 2C6.47715 2 2 6.47715 2 12c0 5.5228 4.47715 10 10 10 5.5228 0 10-4.4772 10-10 0-5.52285-4.4772-10-10-10Zm3.5714 5L17 8.42857 13.428 12 17 15.5714 15.5714 17 12 13.428 8.42857 17 7 15.5714 10.572 12 7 8.42857 8.42857 7 12 10.572 15.5714 7Z" clip-rule="evenodd"/></svg>