<svg xmlns="http://www.w3.org/2000/svg" width="24" height="24" fill="none" viewBox="0 0 24 24"><path fill="#262626" fill-rule="evenodd" d="M12.064.585336c-.0599-.184256-.3206-.184257-.3804 0l-.4743 1.459694c-.0268.0824-.1036.13819-.1903.13819H9.48435c-.19374 0-.2743.24793-.11755.36181l1.2416.90207c.0701.05093.0994.1412.0727.22361l-.4743 1.45962c-.0599.18426.151.33749.3077.22361l1.2417-.90214c.0701-.05093.165-.05093.2351 0l1.2416.90212c.1568.11388.3677-.03935.3078-.22361l-.4743-1.4596c-.0268-.08241.0026-.17268.0727-.22361l1.2416-.90207c.1567-.11388.0762-.36181-.1176-.36181h-1.5346c-.0866 0-.1634-.05579-.1902-.13819L12.064.585336ZM3.99083 3.72196c-.17263-.08794-.35694.09639-.26899.26901l.70988 1.39318c.03934.0772.02449.17095-.03678.23222L3.28957 6.72174c-.137.137-.01864.36928.17272.33896l1.54395-.24462c.08559-.01356.17017.02953.2095.10674l.70978 1.39303c.08796.17263.34543.13185.37574-.05951l.24458-1.54418c.01356-.08558.08067-.15269.16625-.16625l1.5441-.24458c.19136-.03031.23214-.28778.05951-.37574l-1.39304-.70978c-.07721-.03933-.1203-.12391-.10674-.20949l.24463-1.54399c.03031-.19136-.20195-.30972-.33896-.17272L5.61621 4.39494c-.06127.06126-.15501.07611-.23221.03678l-1.39317-.70976ZM.585336 12.2185c-.184257-.0598-.184256-.3205 0-.3804l1.572024-.5108c.0824-.0268.13819-.1036.13819-.1902V9.48434c0-.19375.24794-.2743.36181-.11754l.9714 1.3372c.05093.0701.14121.0994.22362.0726l1.57199-.5107c.18426-.0599.33749.151.2236.3077l-.97159 1.3372c-.05094.0701-.05094.165 0 .2351l.97161 1.3372c.11389.1567-.03933.3676-.2236.3077l-1.57202-.5107c-.08241-.0268-.17268.0026-.22361.0727l-.9714 1.3371c-.11388.1567-.36181.0762-.36181-.1176v-1.6527c0-.0867-.05579-.1635-.13819-.1902l-1.572024-.5109Zm3.136494 7.6016c-.08795.1726.09638.3569.269.269l1.3932-.7099c.0772-.0393.17095-.0245.23222.0368l1.10545 1.1055c.137.137.36926.0186.33896-.1727l-.24452-1.5441c-.01355-.0856.02953-.1701.10673-.2095l1.3929-.7098c.17262-.0879.13184-.3454-.05952-.3757l-1.54411-.2446c-.08558-.0136-.15269-.0807-.16625-.1662l-.24464-1.5442c-.03031-.1913-.28779-.2321-.37574-.0595l-.70965 1.3931c-.03933.0772-.12392.1203-.20951.1067l-1.54406-.2447c-.19136-.0303-.30972.202-.17273.339l1.10533 1.1054c.06126.0612.07611.155.03678.2322l-.70984 1.3932Zm8.34217 3.3003c-.0599.1843-.3206.1843-.3804 0l-.4744-1.4597c-.0268-.0824-.1036-.1382-.1902-.1382H9.48438c-.19375 0-.2743-.2479-.11755-.3618l1.24167-.902c.0701-.051.0994-.1412.0726-.2237l-.4743-1.4594c-.0599-.1843.151-.3375.3078-.2236l1.2416.902c.0701.0509.165.0509.2351 0l1.2416-.902c.1568-.1139.3677.0393.3078.2236l-.4743 1.4595c-.0268.0824.0026.1726.0727.2236l1.2416.902c.1567.1139.0762.3618-.1176.3618h-1.5347c-.0866 0-.1634.0558-.1902.1382l-.4742 1.4597Zm7.7561-3.0313c.1726.088.3569-.0964.269-.269l-.7099-1.393c-.0393-.0772-.0245-.171.0368-.2322l1.1054-1.1056c.137-.137.0186-.3693-.1727-.339l-1.544.2447c-.0856.0136-.1702-.0295-.2096-.1067l-.7097-1.3931c-.0879-.1726-.3454-.1318-.3757.0595l-.2446 1.5442c-.0136.0856-.0807.1527-.1662.1662l-1.5441.2446c-.1914.0303-.2322.2878-.0595.3758l1.3929.7097c.0772.0393.1203.1239.1067.2095l-.2446 1.5442c-.0303.1914.2019.3097.3389.1727l1.1056-1.1054c.0612-.0613.155-.0762.2322-.0368l1.3931.7097Zm3.5943-8.2509c.1843.0599.1843.3206 0 .3804l-1.572.5109c-.0824.0267-.1382.1035-.1382.1902v1.6528c0 .1938-.2479.2743-.3618.1176l-.9716-1.3373c-.0509-.0701-.1412-.0994-.2236-.0727l-1.5718.5108c-.1843.0599-.3375-.151-.2236-.3077l.9715-1.3372c.0509-.0701.0509-.165 0-.2351l-.9715-1.3372c-.1139-.1568.0393-.3677.2236-.3078l1.5719.5108c.0824.0268.1727-.0026.2236-.0727l.9715-1.3372c.1138-.15676.3618-.07621.3618.11754v1.65286c0 .0867.0558.1635.1382.1903l1.572.5107ZM20.089 3.991c.088-.17263-.0964-.35695-.269-.269l-1.393.7098c-.0772.03934-.1709.02449-.2322-.03677l-1.1056-1.10541c-.137-.13699-.3693-.01862-.3389.17273l.2446 1.54398c.0136.08558-.0295.17016-.1067.2095l-1.393.70973c-.1726.08795-.1318.34542.0595.37573l1.5441.24465c.0856.01356.1527.08067.1663.16625l.2445 1.54407c.0303.19137.2878.23214.3758.0595l.7096-1.39298c.0393-.07721.1239-.12031.2095-.10675l1.5441.24469c.1914.03032.3098-.20195.1728-.33896L19.416 5.61638c-.0613-.06126-.0761-.15501-.0368-.23221L20.089 3.991Z" clip-rule="evenodd"/></svg>