<svg xmlns="http://www.w3.org/2000/svg" width="24" height="24" fill="none" viewBox="0 0 24 24"><path fill="#262626" fill-rule="evenodd" d="M0 2C0 .89543.895431 0 2 0h20c1.1046 0 2 .895431 2 2v20c0 1.1046-.8954 2-2 2H2c-1.10457 0-2-.8954-2-2V2Zm11.6942-.41464c.0598-.18426.3205-.18425.3804 0l.4152 1.27777c.0268.0824.1036.13819.1902.13819h1.3433c.1938 0 .2743.24793.1176.36181l-1.0869.78963c-.0701.05093-.0994.14121-.0726.22361l.4152 1.27768c.0598.18426-.1511.33749-.3078.22361l-1.0869-.78968c-.0701-.05093-.165-.05093-.2351 0l-1.0869.7897c-.1568.11388-.3676-.03935-.3078-.22361l.4152-1.2777c.0268-.0824-.0025-.17268-.0726-.22361l-1.0869-.78963c-.15675-.11388-.07619-.36181.11755-.36181h1.34345c.0866 0 .1634-.05579.1902-.13819l.4152-1.27777ZM4.704 4.43512c-.17262-.08795-.35694.09638-.26898.26901l.62194 1.2206c.03934.0772.02449.17095-.03678.23222l-.96843.96843c-.137.137-.01864.36927.17272.33895l1.35268-.21431c.08558-.01356.17016.02953.20949.10674l.62185 1.22046c.08796.17263.34543.13185.37574-.0595l.21428-1.35289c.01356-.08558.08068-.1527.16625-.16625l1.35282-.21428c.19136-.03031.23214-.28778.05951-.37574l-1.22047-.62185c-.07721-.03934-.1203-.12392-.10674-.2095l.21432-1.3527c.03032-.19136-.20195-.30972-.33896-.17273l-.96844.9684c-.06127.06126-.15501.07611-.23221.03678L4.704 4.43512ZM1.58536 12.2163c-.18425-.0599-.18425-.3206 0-.3805l1.38074-.4486c.0824-.0268.13819-.1036.13819-.1902V9.74534c0-.19375.24794-.2743.36181-.11754l.85319 1.1745c.05092.0701.1412.0994.22361.0726l1.3807-.4486c.18427-.0599.33749.151.2236.3078l-.85336 1.1744c-.05093.0701-.05093.165 0 .2351l.85338 1.1745c.11389.1567-.03933.3676-.22359.3077l-1.38073-.4486c-.08241-.0267-.17268.0026-.22361.0727l-.85319 1.1744c-.11388.1568-.36181.0762-.36181-.1175v-1.4517c0-.0866-.05579-.1634-.13819-.1902l-1.38074-.4486Zm2.84965 6.9065c-.08796.1726.09637.357.26899.269l1.22062-.6219c.0772-.0393.17095-.0245.23222.0368l.96851.9685c.13699.137.36926.0186.33896-.1727l-.21423-1.3528c-.01356-.0856.02953-.1701.10673-.2095l1.22035-.6218c.17261-.088.13183-.3455-.05952-.3758l-1.35284-.2143c-.08557-.0135-.15268-.0806-.16624-.1662l-.21433-1.3528c-.03032-.1914-.2878-.2322-.37575-.0595l-.62173 1.2204c-.03933.0772-.12392.1203-.20951.1068l-1.35277-.2144c-.19136-.0303-.30972.2019-.17273.3389l.96839.9685c.06127.0612.07611.155.03678.2322l-.6219 1.2206Zm7.63959 3.0223c-.0599.1842-.3206.1842-.3804 0l-.4153-1.2778c-.0268-.0824-.1036-.1382-.1902-.1382H9.74537c-.19374 0-.2743-.2479-.11755-.3618l1.08688-.7896c.0701-.0509.0995-.1412.0727-.2236l-.4152-1.2776c-.0599-.1842.151-.3375.3077-.2236l1.0869.7896c.0701.0509.165.0509.2351 0l1.0869-.7896c.1567-.1139.3676.0394.3077.2236l-.4151 1.2776c-.0268.0824.0025.1727.0726.2236l1.0869.7896c.1567.1139.0762.3618-.1176.3618h-1.3434c-.0866 0-.1634.0558-.1902.1382l-.4151 1.2778Zm7.0482-2.7532c.1726.0879.357-.0964.269-.269l-.6219-1.2205c-.0394-.0772-.0245-.171.0367-.2322l.9686-.9686c.1369-.137.0186-.3693-.1728-.339l-1.3527.2144c-.0856.0135-.1702-.0295-.2095-.1068l-.6218-1.2204c-.088-.1727-.3455-.1319-.3758.0595l-.2143 1.3528c-.0135.0856-.0806.1527-.1662.1663l-1.3528.2142c-.1914.0304-.2321.2878-.0595.3758l1.2204.6218c.0772.0393.1203.1239.1067.2095l-.2143 1.3529c-.0304.1914.2019.3097.3389.1727l.9686-.9685c.0612-.0612.155-.0761.2322-.0368l1.2205.6219Zm3.2918-7.556c.1842.0599.1842.3206 0 .3805l-1.3808.4486c-.0824.0268-.1382.1036-.1382.1902v1.4517c0 .1938-.2479.2743-.3618.1176l-.8533-1.1745c-.0509-.0702-.1412-.0995-.2236-.0727l-1.3806.4486c-.1842.0599-.3374-.151-.2236-.3077l.8533-1.1745c.051-.0701.051-.165 0-.2351l-.8533-1.1745c-.1139-.1568.0394-.3677.2236-.3078l1.3807.4487c.0824.0267.1727-.0026.2236-.0727l.8532-1.1745c.1139-.15676.3618-.07621.3618.11754v1.45176c0 .0867.0558.1634.1382.1902l1.3808.4486Zm-3.0228-7.13174c.0879-.17263-.0964-.35695-.269-.26899l-1.2205.62186c-.0772.03934-.1709.02449-.2322-.03676l-.9686-.96848c-.137-.13699-.3693-.01863-.339.17273l.2144 1.3527c.0135.08558-.0296.17016-.1068.2095l-1.2204.62181c-.1726.08795-.1318.34542.0595.37574l1.3529.21433c.0855.01356.1527.08068.1662.16625l.2143 1.35279c.0303.19136.2878.23213.3757.05949l.6217-1.2204c.0394-.07721.124-.12031.2096-.10675l1.3528.21438c.1913.03032.3097-.20196.1727-.33896l-.9684-.96844c-.0613-.06126-.0761-.15501-.0368-.23221l.6219-1.22059Z" clip-rule="evenodd"/></svg>