<svg xmlns="http://www.w3.org/2000/svg" width="24" height="24" fill="none" viewBox="0 0 24 24"><path fill="#262626" fill-rule="evenodd" d="M12 5c4.4183 0 8.4183 2.33333 12 7-3.5817 4.6667-7.5817 7-12 7-4.41828 0-8.41828-2.3333-12-7 3.58172-4.66667 7.58172-7 12-7Zm-.2169 2.00462L12 7c-3.31103 0-6.39255 1.57682-9.2976 4.8609L2.581 12l.1214.1391c2.81133 3.1781 5.78794 4.7574 8.9779 4.856L12 17c-2.76142 0-5-2.2386-5-5 0-2.68876 2.12231-4.88182 4.7831-4.99538Zm.5366.00031L12.002 7C14.7614 7 17 9.23858 17 12c0 2.6881-2.1213 4.8807-4.7812 4.9953L12.002 17c3.309 0 6.3906-1.5768 9.2956-4.8609L21.418 12l-.1204-.1391c-2.8113-3.17814-5.7879-4.75739-8.9779-4.85597ZM12 9c-1.6569 0-3 1.3431-3 3s1.3431 3 3 3 3-1.3431 3-3-1.3431-3-3-3Z" clip-rule="evenodd"/></svg>