<svg xmlns="http://www.w3.org/2000/svg" width="24" height="24" fill="none" viewBox="0 0 24 24"><path fill="#262626" fill-rule="evenodd" d="m18.5334 6.8808 3.6737-3.67368-1.4142-1.41421-4.1345 4.13453C15.161 5.30916 13.6082 5.00001 12 5.00001 7.58172 5.00001 3.58172 7.33335 0 12c1.72515 2.2477 3.54734 3.9541 5.46657 5.1192l-3.67366 3.6737 1.41421 1.4142 4.13452-4.1345C8.83901 18.6909 10.3918 19 12 19c4.4183 0 8.4183-2.3333 12-7-1.7251-2.2477-3.5473-3.95411-5.4666-5.1192Zm-3.4333.60491c-1.0223-.32879-2.0556-.4857-3.1001-.4857-3.24728 0-6.3872 1.51666-9.41956 4.99999 1.42595 1.638 2.87568 2.8412 4.34918 3.6562l.89847-.8985c-1.28621-1.9413-1.07409-4.5828.63638-6.29322C9.44078 7.48817 10.7204 7.00001 12 7.00001c.9622 0 1.9245.27603 2.7577.82809l.3424-.34239ZM13.2935 9.2923c-1.1151-.53271-2.4912-.33724-3.41482.58639-.92364.92361-1.11911 2.29971-.5864 3.41481l4.00122-4.0012Zm-4.39358 7.222 8.17048-8.17046C18.5439 9.15888 19.9936 10.362 21.4196 12c-3.0324 3.4834-6.1723 5-9.4196 5-1.0445 0-2.07783-.1569-3.10008-.4857Z" clip-rule="evenodd"/></svg>