<svg xmlns="http://www.w3.org/2000/svg" width="24" height="24" fill="none" viewBox="0 0 24 24"><path fill="#262626" fill-rule="evenodd" d="M22.2071 3.20712 18.5334 6.8808C20.4527 8.04589 22.2749 9.7523 24 12c-3.5817 4.6667-7.5817 7-12 7-1.6082 0-3.16099-.3091-4.65836-.9274l-4.13452 4.1345-1.41421-1.4142 3.67366-3.6737C3.54734 15.9541 1.72515 14.2477 0 12c3.58172-4.66665 7.58172-6.99998 12-6.99998 1.6082 0 3.161.30914 4.6584.92742l4.1345-4.13453 1.4142 1.41421ZM12 17c2.7614 0 5-2.2386 5-5 0-1.0191-.3049-1.9669-.8284-2.75737L9.24262 16.1716C10.033 16.6951 10.9809 17 12 17Zm-4.1716-2.2426 1.46398-1.464C9.10495 12.9018 9 12.4632 9 12c0-1.6568 1.3431-2.99998 3-2.99998.4632 0 .9018.10495 1.2934.29237l1.464-1.46397c-.7904-.52353-1.7383-.8284-2.7574-.8284-2.76142 0-5 2.23857-5 4.99998 0 1.0191.30488 1.967.8284 2.7574Z" clip-rule="evenodd"/></svg>