<svg xmlns="http://www.w3.org/2000/svg" width="24" height="24" fill="none" viewBox="0 0 24 24"><path fill="#262626" fill-rule="evenodd" d="M17.0007 7.2676C16.3815 6.91044 16 6.24996 16 5.53513V2h-2.3709C13.4207 4.37363 11.4277 6.23529 9 6.23529 6.57226 6.23529 4.57934 4.37363 4.37093 2H2v14h3.53513c.71483 0 1.37531.3815 1.73247 1.0007.35715.6192.35668 1.382-.00126 2.0008C7.09735 19.2936 7 19.6324 7 20c0 1.1046.89543 2 2 2 1.1046 0 2-.8954 2-2 0-.3676-.0973-.7064-.2663-.9985-.358-.6188-.3585-1.3816-.0013-2.0008C11.0896 16.3815 11.75 16 12.4649 16H16v-3.5351c0-.7149.3815-1.3753 1.0007-1.7325.6192-.3572 1.382-.3567 2.0008.0013.2921.169.6309.2663.9985.2663 1.1046 0 2-.8954 2-2 0-1.10457-.8954-2-2-2-.3676 0-.7064.09735-.9985.26634-.6188.35794-1.3816.35841-2.0008.00126ZM13.6479 1.619c0 .00001-.0001.00046-.0006.00136l.0006-.00136ZM18 1.05882C18 .474051 17.5259 0 16.9412 0h-4.1198c-.7016 0-1.1743.886695-1.1743 1.58824 0 1.46193-1.1852 2.64705-2.6471 2.64705-1.46193 0-2.64706-1.18512-2.64706-2.64705C6.35294.886695 5.88017 0 5.17863 0H1.05882C.474051 0 0 .474051 0 1.05882V16.9412C0 17.5259.474051 18 1.05882 18h4.47631C5.19479 18.5883 5 19.2714 5 20c0 2.2091 1.79086 4 4 4 2.2091 0 4-1.7909 4-4 0-.7286-.1948-1.4117-.5351-2h4.4763C17.5259 18 18 17.5259 18 16.9412v-4.4763c.5883.3403 1.2714.5351 2 .5351 2.2091 0 4-1.7909 4-4 0-2.20914-1.7909-4-4-4-.7286 0-1.4117.19479-2 .53513V1.05882Z" clip-rule="evenodd"/></svg>