<svg xmlns="http://www.w3.org/2000/svg" width="24" height="24" fill="none" viewBox="0 0 24 24"><path fill="#262626" fill-rule="evenodd" d="M9 4.23529c1.4619 0 2.6471-1.18512 2.6471-2.64705C11.6471.886695 12.1198 0 12.8214 0h4.1198C17.5259 0 18 .474052 18 1.05882v4.47631C18.5883 5.19479 19.2714 5 20 5c2.2091 0 4 1.79086 4 4 0 2.2091-1.7909 4-4 4-.7286 0-1.4117-.1948-2-.5351v4.4763C18 17.5259 17.5259 18 16.9412 18h-4.4763c.3403.5883.5351 1.2714.5351 2 0 2.2091-1.7909 4-4 4-2.20914 0-4-1.7909-4-4 0-.7286.19479-1.4117.53513-2H1.05882C.474051 18 0 17.5259 0 16.9412V1.05882C0 .474051.474052 0 1.05882 0h4.11981c.70154 0 1.17431.886695 1.17431 1.58824 0 1.46193 1.18513 2.64705 2.64706 2.64705Z" clip-rule="evenodd"/></svg>