<svg xmlns="http://www.w3.org/2000/svg" width="24" height="24" fill="none" viewBox="0 0 24 24"><path fill="#262626" fill-rule="evenodd" d="M22 10 12 0 2 10v14h20V10ZM4 22V10.8284l8-7.99997 8 7.99997V22H4Zm6.5851-9.5842 1.4127 1.4094 1.4126-1.4094c.2637-.2631.6312-.4158 1.0127-.4158 1.3453 0 2.0243 1.5525 1.217 2.519l-.108.1293-3.5343 3.5264-3.5344-3.5264-.10796-.1293C7.54818 13.5525 8.22712 12 9.57245 12c.38148 0 .74905.1527 1.01265.4158ZM11.9978 21l5.0112-5 .1661-.1989c1.9225-2.3017.247-5.8011-2.752-5.8011-.9066 0-1.7835.3596-2.4253 1-.6418-.6404-1.5187-1-2.42535-1-2.99896 0-4.67447 3.4994-2.75204 5.8011L6.98654 16l5.01126 5Z" clip-rule="evenodd"/></svg>