<svg xmlns="http://www.w3.org/2000/svg" width="24" height="24" fill="none" viewBox="0 0 24 24"><path fill="#262626" fill-rule="evenodd" d="M23.1247.875328c1.1671 1.167102 1.1671 3.059352 0 4.226462-.4345.43447-.9695.7072-1.5301.8182.4471 1.66221.0177 3.51176-1.2876 4.81711.3891.389.3891 1.0198 0 1.4088l-.7044.7044-.8023-.8023-.5402 2.2907c-.255 1.0806-.8059 2.0688-1.5909 2.8538l-6.2239 6.2239c-.77808.7781-2.03958.7781-2.81765 0L.583552 16.3723c-.778069-.778-.778069-2.0395 0-2.8176L6.80745 7.33081c.78506-.78506 1.77326-1.33595 2.85382-1.59091l2.29003-.5409-.8016-.80162.7044-.70441c.389-.38904 1.0198-.38904 1.4088 0 1.3053-1.30532 3.1549-1.7347 4.8183-1.28814.1098-.56007.3825-1.09503.817-1.529502 1.1671-1.167104 3.0594-1.167104 4.2265 0ZM13.6074 6.85506l-3.4886.82396c-.64032.15109-1.232.45806-1.72316.89199l-.17937.16862L6.955 10h9.798l-3.1456-3.14494Z" clip-rule="evenodd"/></svg>