<svg xmlns="http://www.w3.org/2000/svg" width="24" height="24" fill="none" viewBox="0 0 24 24"><path fill="#262626" fill-rule="evenodd" d="M13 3c0 .55228-.4477 1-1 1s-1-.44772-1-1 .4477-1 1-1 1 .44772 1 1Zm2 0c0 1.65685-1.3431 3-3 3-1.6568 0-2.99997-1.34315-2.99997-3S10.3432 0 12 0c1.6569 0 3 1.34315 3 3Zm-4.426 4c-.7109 0-1.36835.37734-1.72693.99114L2.99988 18h6.00015v6H11v-8H6.48456L10.574 9h2.8521l4.0894 7H13v8h2v-6h6.0002L15.153 7.99114C14.7944 7.37734 14.137 7 13.4261 7H10.574Z" clip-rule="evenodd"/></svg>