<svg xmlns="http://www.w3.org/2000/svg" width="24" height="24" fill="none" viewBox="0 0 24 24"><path fill="#262626" fill-rule="evenodd" d="M4 3c0-.55228.44772-1 1-1h9v4c0 1.10457.8954 2 2 2h4v13c0 .5523-.4477 1-1 1H5c-.55228 0-1-.4477-1-1V3Zm10.2929 13.7071c.3905.3905 1.0237.3905 1.4142 0 .3905-.3905.3905-1.0237 0-1.4142L13.4142 13l2.2929-2.2929c.3905-.3905.3905-1.02368 0-1.41421-.3905-.39052-1.0237-.39052-1.4142 0L12 11.5858 9.70711 9.29289c-.39053-.39052-1.02369-.39052-1.41422 0-.39052.39053-.39052 1.02371 0 1.41421L10.5858 13l-2.29291 2.2929c-.39052.3905-.39052 1.0237 0 1.4142.39053.3905 1.02369.3905 1.41422 0L12 14.4142l2.2929 2.2929Z" clip-rule="evenodd"/><path fill="#262626" d="M16 2v4h4c0-.26522-.1054-.51957-.2929-.70711l-3-3C16.5196 2.10536 16.2652 2 16 2Z"/></svg>