<svg xmlns="http://www.w3.org/2000/svg" width="24" height="24" fill="none" viewBox="0 0 24 24"><path fill="#262626" fill-rule="evenodd" d="M4 3c0-.55228.44772-1 1-1h9v4c0 1.10457.8954 2 2 2h4v13c0 .5523-.4477 1-1 1H5c-.55228 0-1-.4477-1-1V3Zm11.7071 7.2929c.3905.3905.3905 1.0237 0 1.4142l-4 4c-.3905.3905-1.0237.3905-1.4142 0l-2.00001-2c-.39052-.3905-.39052-1.0237 0-1.4142.39053-.3905 1.02369-.3905 1.41422 0L11 13.5858l3.2929-3.2929c.3905-.39053 1.0237-.39053 1.4142 0Z" clip-rule="evenodd"/><path fill="#262626" d="M20 6c0-.26522-.1054-.51957-.2929-.70711l-3-3C16.5196 2.10536 16.2652 2 16 2v4h4Z"/></svg>