<svg xmlns="http://www.w3.org/2000/svg" width="24" height="24" fill="none" viewBox="0 0 24 24"><path fill="#262626" d="M15.7071 11.7071c.3905-.3905.3905-1.0237 0-1.4142-.3905-.39053-1.0237-.39053-1.4142 0L11 13.5858l-1.29289-1.2929c-.39053-.3905-1.02369-.3905-1.41422 0-.39052.3905-.39052 1.0237 0 1.4142l2.00001 2c.3905.3905 1.0237.3905 1.4142 0l4-4Z"/><path fill="#262626" fill-rule="evenodd" d="M4 3c0-.55228.44772-1 1-1h11c.2652 0 .5196.10536.7071.29289l3 3C19.8946 5.48043 20 5.73478 20 6v15c0 .5523-.4477 1-1 1H5c-.55228 0-1-.4477-1-1V3Zm2 1v16h12V8h-2c-1.1046 0-2-.89543-2-2V4H6Zm10 .41421L17.5858 6H16V4.41421Z" clip-rule="evenodd"/></svg>