<svg xmlns="http://www.w3.org/2000/svg" width="24" height="24" fill="none" viewBox="0 0 24 24"><path fill="#262626" d="M15.7071 16.7071c-.3905.3905-1.0237.3905-1.4142 0L12 14.4142l-2.29289 2.2929c-.39053.3905-1.02369.3905-1.41422 0-.39052-.3905-.39052-1.0237 0-1.4142L10.5858 13l-2.29291-2.2929c-.39052-.3905-.39052-1.02368 0-1.41421.39053-.39052 1.02369-.39052 1.41421 0L12 11.5858l2.2929-2.29291c.3905-.39052 1.0237-.39052 1.4142 0 .3905.39053.3905 1.02371 0 1.41421L13.4142 13l2.2929 2.2929c.3905.3905.3905 1.0237 0 1.4142Z"/><path fill="#262626" fill-rule="evenodd" d="M5 2c-.55228 0-1 .44772-1 1v18c0 .5523.44772 1 1 1h14c.5523 0 1-.4477 1-1V6c0-.26522-.1054-.51957-.2929-.70711l-3-3C16.5196 2.10536 16.2652 2 16 2H5Zm1 18V4h8v2c0 1.10457.8954 2 2 2h2v12H6ZM17.5858 6 16 4.41421V6h1.5858Z" clip-rule="evenodd"/></svg>