<svg xmlns="http://www.w3.org/2000/svg" width="24" height="24" fill="none" viewBox="0 0 24 24"><path fill="#262626" d="M10 13c0-1.1046.8954-2 2-2s2 .8954 2 2c0 .5523.4477 1 1 1s1-.4477 1-1c0-2.2091-1.7909-4-4-4-2.20914 0-4 1.7909-4 4 0 2.2091 1.79086 4 4 4 .5523 0 1-.4477 1-1s-.4477-1-1-1c-1.1046 0-2-.8954-2-2Z"/><path fill="#262626" fill-rule="evenodd" d="M4 3c0-.55228.44772-1 1-1h11c.2652 0 .5196.10536.7071.29289l3 3C19.8946 5.48043 20 5.73478 20 6v15c0 .5523-.4477 1-1 1H5c-.55228 0-1-.4477-1-1V3Zm2 1v16h12V8h-2c-1.1046 0-2-.89543-2-2V4H6Zm10 .41421L17.5858 6H16V4.41421Z" clip-rule="evenodd"/></svg>