<svg xmlns="http://www.w3.org/2000/svg" width="24" height="24" fill="none" viewBox="0 0 24 24"><path fill="#262626" fill-rule="evenodd" d="M4 3c0-.55228.44772-1 1-1h9v4c0 1.10457.8954 2 2 2h4v13c0 .5523-.4477 1-1 1H5c-.55228 0-1-.4477-1-1V3Zm8 8c-1.1046 0-2 .8954-2 2s.8954 2 2 2c.5523 0 1 .4477 1 1s-.4477 1-1 1c-2.20914 0-4-1.7909-4-4 0-2.2091 1.79086-4 4-4 2.2091 0 4 1.7909 4 4 0 .5523-.4477 1-1 1s-1-.4477-1-1c0-1.1046-.8954-2-2-2Z" clip-rule="evenodd"/><path fill="#262626" d="M20 6c0-.26522-.1054-.51957-.2929-.70711l-3-3C16.5196 2.10536 16.2652 2 16 2v4h4Z"/></svg>