<svg xmlns="http://www.w3.org/2000/svg" width="24" height="24" fill="none" viewBox="0 0 24 24"><path fill="#262626" fill-rule="evenodd" d="m18.0131 1.10893.0302-.03092c1.2424-1.271689 3.3104-1.486718 4.7485-.254001l.0357.030571.166.15643.0327.03385c1.2669 1.31169 1.2787 3.36225.1456 4.74175L21.6859 7.5942l-7.5254 9.1617L6.9503 20.02l1.87613-7.7438 6.35567-7.73727-.0004-.00031 1.2015-1.46193.0673-.08197 1.4096-1.71505.153-.17074Zm-.0324 3.17112 1.3943-1.69649.0957-.10683c.5617-.57489 1.441-.63172 2.0225-.13329l.0976.09194c.5243.54286.5609 1.44493.0387 2.08065l-1.3761 1.67402-2.2727-1.91ZM10.6593 13.193l6.0523-7.36794 2.2727 1.91-6.0705 7.39034-3.05805 1.3844.80355-3.3168ZM0 24h23.965v-2H0v2Z" clip-rule="evenodd"/></svg>