<svg xmlns="http://www.w3.org/2000/svg" width="24" height="25" fill="none" viewBox="0 0 24 25"><path fill="#262626" fill-rule="evenodd" d="M10.3478 12.0683v9.6824l3.8261-.9778v-8.6665L21.7803 4.5H2.27495l8.07285 7.5683Zm-.75238 11.939 5.82608-1.4889c.4427-.1132.7524-.512.7524-.9689v-8.6147l7.5332-7.53321c.1875-.18754.2929-.44189.2929-.70711V3.5c0-.55228-.4477-1-1-1H1c-.552285 0-1 .44772-1 1v1.17546c0 .27641.114409.54049.316059.72954l8.031771 7.5298v10.1036c0 .6527.61519 1.1305 1.24759.9689Z" clip-rule="evenodd"/></svg>