<svg xmlns="http://www.w3.org/2000/svg" width="25" height="25" fill="none" viewBox="0 0 25 25"><path fill="#262626" fill-rule="evenodd" d="M4.13102 0H14.8325l6.8554 5.71281V16.0077c0 1.1954-.3693 2.3046-1 3.2196L25 23.5395 23.5395 25l-4.3122-4.3121c-.915.6307-2.0242 1-3.2196 1H4.13102V0ZM19.6223 16.0077c0-1.9963-1.6183-3.6146-3.6146-3.6146-1.9963 0-3.6146 1.6183-3.6146 3.6146 0 1.9963 1.6183 3.6146 3.6146 3.6146 1.9963 0 3.6146-1.6183 3.6146-3.6146ZM14.4586 2.3771v3.81943h4.5833L14.4586 2.3771Z" clip-rule="evenodd"/></svg>