<svg xmlns="http://www.w3.org/2000/svg" width="24" height="24" fill="none" viewBox="0 0 24 24"><path fill="#262626" fill-rule="evenodd" d="M17.5 5.15051c-.1069 0-.2181.00567-.3327.01655.0668-.0931.1273-.18577.1808-.2776 1.1045-1.89801.5868-3.67333-.8481-4.495195-1.4349-.821864-3.3481-.19937-4.3481 1.518965-.0534.09183-.1041.19017-.1519.29415-.0479-.10398-.0985-.20232-.1519-.29415C10.7435.0152118 8.93486-.427598 7.49999.394267 6.06511 1.21613 5.65191 3.17113 6.65191 4.88946c.05344.09183.11397.1845.1808.27759-.11468-.01087-.22584-.01654-.33272-.01654-2.20914 0-3.5 1.33251-3.5 2.97624 0 1.39328 1.07773 2.56295 2.62416 2.88705C3.37935 12.5856 2 15.1609 2 17.9538V24h2v-6.0462c0-1.8247.76818-3.5282 2.06057-4.7374-.05783 1.1379.49006 2.0991 1.43942 2.6428 1.43487.8219 3.34811.1994 4.34811-1.5189.4656-.8002.7183-2.0949.768-3.3001.6371-.132 1.1999-.4644 1.6185-.9277 1.0771.5601 2.3339.9905 3.2654.9905 2.2091 0 3.5-1.33252 3.5-2.97625s-1.5-2.97624-3.5-2.97624ZM13 8.12675c0 .54791-.4477.99207-1 .99207s-1-.44416-1-.99207.4477-.99208 1-.99208 1 .44417 1 .99208ZM11 20.5277c0-1.9841 2-5.4564 3-5.4564s3 3.4723 3 5.4564C17 22.5119 15.6568 24 14 24c-1.6569 0-3-1.2806-3-3.4723Z" clip-rule="evenodd"/></svg>