<svg xmlns="http://www.w3.org/2000/svg" width="24" height="24" fill="none" viewBox="0 0 24 24"><path fill="#262626" fill-rule="evenodd" d="M10.3794 5.6217c.0789-.05035.1604-.09713.2441-.14011-.0227-1.13823-.2611-2.15285-.5075-2.57628-.3486-.59903-.71148-.81287-.92971-.88241-.20942-.06673-.43663-.05331-.6863.0897-.25729.14737-.70063.78025-.11603 1.78478.24644.42347 1.01307 1.13567 1.99544 1.72432ZM9.00324 7.98708c-1.00514-.5498-2.01031-.85241-2.50325-.85241-.69721 0-1.06533.20485-1.23514.35757-.16297.14657-.26486.34849-.26486.63451 0 .29473.33081.99207 1.5.99207.49294 0 1.49811-.30261 2.50325-.85241-.00215-.04629-.00325-.09285-.00325-.13966 0-.04682.00109-.09338.00325-.13967Zm1.37616 2.64472c-.98237.5886-1.749 1.3009-1.99544 1.7243-.34861.599-.35384 1.0177-.30543 1.24.04646.2133.17178.4018.42146.5448.25729.1474 1.03142.2118 1.61601-.7927.2464-.4234.4848-1.4381.5075-2.5763-.0837-.043-.1652-.0898-.2441-.1401Zm2.2367.4084c-.0497 1.2052-.3024 2.4999-.768 3.3001-1 1.7183-2.91324 2.3408-4.34811 1.5189-.94936-.5437-1.49725-1.5049-1.43942-2.6428C4.76818 14.4256 4 16.1291 4 17.9538V24H2v-6.0462c0-2.7929 1.37935-5.3682 3.62415-6.94-1.54643-.3241-2.62416-1.49378-2.62416-2.88705 0-1.64373 1.29086-2.97624 3.5-2.97624.10688 0 .21804.00567.33272.01654-.06683-.09309-.12736-.18576-.1808-.27759-1-1.71833-.5868-3.67333.84808-4.495193C8.93486-.427598 10.7435.0152118 11.8481 1.91323c.0534.09183.104.19017.1519.29415.0478-.10398.0985-.20232.1519-.29415 1-1.718335 2.9132-2.340829 4.3481-1.518965 1.4349.821865 1.9526 2.597185.8481 4.495195-.0535.09183-.114.1845-.1808.2776.1146-.01088.2258-.01655.3327-.01655 2 0 3.5 1.33251 3.5 2.97624 0 1.64372-1.2909 2.97625-3.5 2.97625-.9315 0-2.1883-.4304-3.2654-.9905-.4186.4633-.9814.7957-1.6185.9277Zm2.3806-2.77379c1.0052.5498 2.0104.85241 2.5033.85241.6972 0 1.0653-.20485 1.2351-.35758.163-.14656.2649-.34848.2649-.63449 0-.29474-.3308-.99208-1.5-.99208-.4929 0-1.4981.30261-2.5033.85241.0022.04629.0033.09285.0033.13967 0 .04681-.0011.09337-.0033.13966ZM13.6206 5.6217c.9824-.58865 1.749-1.30085 1.9954-1.72432.3486-.59902.3539-1.01772.3054-1.23998-.0464-.2133-.1717-.4018-.4214-.5448-.2573-.14737-1.0314-.21183-1.616.7927-.2465.42344-.4848 1.43805-.5075 2.57628.0837.04298.1652.08977.2441.14012ZM13 8.12675c0 .5479-.4477.99207-1 .99207s-1-.44417-1-.99207c0-.54791.4477-.99208 1-.99208s1 .44417 1 .99208Zm0 12.40095c0-.4931.3102-1.5031.8733-2.5087.0425-.0758.0848-.1487.1267-.2185.0419.0698.0842.1427.1267.2185.5631 1.0056.8733 2.0156.8733 2.5087 0 1.16-.7029 1.4881-1 1.4881-.2883 0-.4918-.101-.6396-.2627-.1539-.1685-.3604-.5337-.3604-1.2254Zm-2 0c0-1.9841 2-5.4564 3-5.4564s3 3.4723 3 5.4564C17 22.5119 15.6568 24 14 24c-1.6569 0-3-1.2806-3-3.4723Z" clip-rule="evenodd"/></svg>