<svg xmlns="http://www.w3.org/2000/svg" width="24" height="24" fill="none" viewBox="0 0 24 24"><path fill="#262626" fill-rule="evenodd" d="M2 1c0-.552285-.44772-1-1-1-.552285 0-1 .447715-1 1v7c0 1.86384 1.27477 3.4299 3 3.874V24h2V11.874C6.72523 11.4299 8 9.86384 8 8V1c0-.552285-.44772-1-1-1S6 .447715 6 1v6H5V1c0-.552285-.44772-1-1-1S3 .447715 3 1v6H2V1Zm12 10.8572c1.7252-.5069 3-2.32611 3-4.8572 0-3.31371-1-7-4-7S9 3.68629 9 7c0 2.53109 1.2748 4.3503 3 4.8572V24h2V11.8572ZM24 .396207V24h-2v-8.8333l-1.7962-.7484C18.8693 13.8622 18 12.5577 18 11.112V6.68517C18 3.40371 20.3724.604604 23.6092.065136 23.8138.031039 24 .188803 24 .396207Z" clip-rule="evenodd"/></svg>