<svg xmlns="http://www.w3.org/2000/svg" width="24" height="24" fill="none" viewBox="0 0 24 24"><path fill="#262626" fill-rule="evenodd" d="M1 0c.55228 0 1 .447715 1 1v7c0 1.10457.89543 2 2 2s2-.89543 2-2V1c0-.552285.44772-1 1-1s1 .447715 1 1v7c0 1.86384-1.27477 3.4299-3 3.874V24H3V11.874C1.27477 11.4299 0 9.86384 0 8V1c0-.552285.447715-1 1-1Zm2 1c0-.552285.44772-1 1-1s1 .447715 1 1v6H3V1Zm12 6c0 2.26709-1.2336 3-2 3s-2-.73291-2-3c0-1.50666.2345-2.92903.6865-3.89505C12.1114 2.19681 12.5403 2 13 2c.4597 0 .8886.19681 1.3135 1.10495C14.7655 4.07097 15 5.49334 15 7Zm-1 4.8572c1.7252-.5069 3-2.32611 3-4.8572 0-3.31371-1-7-4-7S9 3.68629 9 7c0 2.53109 1.2748 4.3503 3 4.8572V24h2V11.8572ZM22.0063.5425 22 .545271C19.6159 1.59731 18 3.97697 18 6.68517V11.112c0 1.4457.8693 2.7502 2.2038 3.3063L22 15.1667V24h2V.396207c0-.207404-.1862-.365168-.3908-.331071-.4306.071764-.8459.183516-1.2423.331071-.122.045413-.2423.094219-.3606.146293ZM22 2.83196V13l-1.0269-.4279c-.589-.2454-.9731-.8214-.9731-1.4601V6.68517c0-1.576.7796-2.99369 2-3.85321Z" clip-rule="evenodd"/></svg>