<svg xmlns="http://www.w3.org/2000/svg" width="24" height="24" fill="none" viewBox="0 0 24 24"><path fill="#262626" d="M3 17v1h2v-1H3Zm17-7 .7071.7071.7071-.7071-.7071-.70711L20 10Zm-3.2929-4.70711L16 4.58579 14.5858 6l.7071.70711 1.4142-1.41422Zm-1.4142 8.00001L14.5858 14 16 15.4142l.7071-.7071-1.4142-1.4142ZM5 17v-3H3v3h2Zm3-6h12V9H8v2Zm12.7071-1.70711-4-4-1.4142 1.41422 4 3.99999 1.4142-1.41421Zm-1.4142 0-4 4.00001 1.4142 1.4142 4-4-1.4142-1.41421ZM5 14c0-1.6569 1.34315-3 3-3V9c-2.76142 0-5 2.2386-5 5h2Z"/></svg>