<svg xmlns="http://www.w3.org/2000/svg" width="24" height="24" fill="none" viewBox="0 0 24 24"><path fill="#262626" fill-rule="evenodd" d="M4 3c-1.10457 0-2 .89543-2 2v10h20V5c0-1.10457-.8954-2-2-2s-2 .89543-2 2v1c0 .55228-.4477 1-1 1s-1-.44772-1-1V5c0-2.20914 1.7909-4 4-4 2.2091 0 4 1.79086 4 4v14c0 2.2091-1.7909 4-4 4h-3c-2.2091 0-4-1.7909-4-4v-2h-2v2c0 2.2091-1.79086 4-4 4H4c-2.20914 0-4-1.7909-4-4V5c0-2.20914 1.79086-4 4-4s4 1.79086 4 4v1c0 .55228-.44772 1-1 1s-1-.44772-1-1V5c0-1.10457-.89543-2-2-2Z" clip-rule="evenodd"/></svg>