<svg xmlns="http://www.w3.org/2000/svg" width="24" height="24" fill="none" viewBox="0 0 24 24"><path fill="#262626" fill-rule="evenodd" d="m6.25176 6-.16667-4H17.915l-.1667 4H6.25176Zm.08333 2 .54341 13.0416c.02231.5357.46304.9584.99913.9584h8.24477c.5361 0 .9768-.4227.9992-.9584L17.665 8H6.33509ZM4.04343 1.04163C4.01975.473506 4.47394 0 5.04256 0H18.9575c.5686 0 1.0228.473505.9991 1.04163l-.8368 20.08327C19.0529 22.7318 17.7307 24 16.1224 24H7.87763c-1.60828 0-2.93045-1.2682-2.9974-2.8751l-.8368-20.08327Z" clip-rule="evenodd"/></svg>