<svg xmlns="http://www.w3.org/2000/svg" width="24" height="24" fill="none" viewBox="0 0 24 24"><path fill="#262626" fill-rule="evenodd" d="M12 0c6.6274 0 12 5.37258 12 12 0 1.7071-.3564 3.3309-.999 4.8011L23 17l-.0886.0012C21.0151 21.1316 16.8425 24 12 24c-4.84253 0-9.0151-2.8684-10.91137-6.9988L1 17l.00028-.1959C.356929 15.3331 0 13.7082 0 12 0 5.37258 5.37258 0 12 0Zm2.5034 17.0011H9.49661C10.1208 20.0161 11.2065 22 12 22c.7935 0 1.8792-1.9839 2.5034-4.9989Zm-7.04986-.0002-4.11515.0001c1.23415 2.1329 3.23353 3.7677 5.62269 4.5289-.64425-1.1848-1.16503-2.7383-1.50754-4.529Zm13.20806.0001-4.1151-.0001c-.3426 1.7907-.8633 3.3442-1.5078 4.5296 2.3894-.7618 4.3888-2.3966 5.6229-4.5295ZM7.0691 10.0005 2.20003 10C2.06886 10.6462 2 11.3151 2 12c0 1.0455.16045 2.0536.45808 3.0009l4.69949-.0005C7.05471 14.0415 7 13.0361 7 12c0-.6813.02365-1.3493.0691-1.9995Zm7.8539.0001H9.07699C9.02716 10.6445 9 11.3129 9 12c0 1.0509.06354 2.0581.17457 3.0012h5.65083C14.9365 14.0581 15 13.0509 15 12c0-.6871-.0272-1.3555-.077-1.9994ZM21.8 10l-4.8691.0005C16.9763 10.6507 17 11.3187 17 12c0 1.0361-.0547 2.0415-.1576 3.0004l4.6995.0005C21.8395 14.0536 22 13.0455 22 12c0-.6849-.0689-1.3538-.2-2ZM8.96134 2.46952l-.17257.05723c-2.67171.90536-4.83661 2.90922-5.95694 5.47384l4.45262-.0002c.30427-2.06625.83763-3.87278 1.52684-5.2438l.15005-.28707ZM12 2c-.8784 0-2.1147 2.43084-2.68687 6.0002h5.37377c-.5569-3.47362-1.7427-5.86897-2.6155-5.99498L12 2Zm3.0389.47011.0431.07995c.7409 1.3938 1.3138 3.27861 1.6335 5.45033l4.4527.0002c-1.1444-2.61953-3.3784-4.65404-6.1293-5.53048Z" clip-rule="evenodd"/></svg>