<svg xmlns="http://www.w3.org/2000/svg" width="24" height="24" fill="none" viewBox="0 0 24 24"><path fill="#262626" fill-rule="evenodd" d="m1.08863 17.0012 6.36491-.0003C8.24362 21.1315 9.98223 24 12 24c2.0178 0 3.7564-2.8685 4.5465-6.9991l6.3649.0003C21.0151 21.1316 16.8425 24 12 24c-4.84253 0-9.0151-2.8684-10.91137-6.9988Zm13.41477-.0001C13.8792 20.0161 12.7935 22 12 22c-.7935 0-1.8792-1.9839-2.50339-4.9989h5.00679Zm.4196-7.0005c.0498.6439.077 1.3123.077 1.9994 0 1.0509-.0635 2.0581-.1746 3.0012H9.17457C9.06354 14.0581 9 13.0509 9 12c0-.6871.02716-1.3555.07699-1.9994H14.923Zm8.9111-.0004C23.9432 10.6505 24 11.3186 24 12c0 1.0362-.1313 2.0418-.3783 3.0009l-6.7793-.0005C16.9453 14.0415 17 13.0361 17 12c0-.6813-.0237-1.3493-.0691-1.9995l6.9032-.0003Zm-23.668215 0 6.903215.0003C7.02365 10.6507 7 11.3187 7 12c0 1.0361.05471 2.0415.15757 3.0004l-6.779278.0005C.131344 14.0418 0 13.0362 0 12c0-.6814.0567867-1.3495.165885-1.9998ZM12 0c5.2249 0 9.6699 3.33927 11.3172 8.00008l-6.6017.00031C16.0292 3.33942 14.1771 0 12 0Zm0 0-.1479.00515103C9.73932.152474 7.9552 3.44535 7.28445 8.00039L.682795 8.00008C2.33012 3.33927 6.77509 0 12 0Zm0 2c.8784 0 2.1147 2.43084 2.6869 6.0002H9.31313C9.8853 4.43084 11.1216 2 12 2Z" clip-rule="evenodd"/></svg>