<svg xmlns="http://www.w3.org/2000/svg" width="24" height="24" fill="none" viewBox="0 0 24 24"><path fill="#262626" fill-rule="evenodd" d="M6.61619 24H22l-3.25-7.5-.5611-1.8704 4.1302-3.3714c1.4292-1.1693 1.5363-3.31703.2306-4.62278-1.1247-1.12462-2.9151-1.22378-4.157-.23024l-.7521.79794L18 9.5l1.6421-1.53308c.4462-.35692 1.0893-.3213 1.4933.08271.4691.46908.4306 1.24062-.0828 1.6607l-3.5017 2.79277-.6693-2.2313-.3274-2.01247c-.1748.14467-.3646.24543-.5255.31677-.2486.1102-.5261.19256-.8063.25395-.5616.12301-1.2246.18126-1.8863.16826-.6605-.01298-1.3635-.09781-1.9967-.287-.6111-.18259-1.2825-.49971-1.72617-1.06796-.91985-1.17826-.63988-2.39336-.22601-3.16819.2024-.37891.44686-.68299.63318-.88782.0949-.10423.1789-.18744.2417-.24665.0315-.02971.0579-.05366.078-.07149l.0254-.0222.0089-.00762.0035-.00294.0015-.00124s.0013-.0011.6441.76489c.6429.766.6435.7655.6435.7655-.0058.00509-.017.01529-.0325.02993-.0313.0295-.0789.07639-.1347.13775-.115.12634-.2476.29537-.3485.48418-.1926.36064-.2236.65948.0384.99516.0742.09497.2837.25139.7222.3824.4164.12441.9317.19323 1.4635.20368.5308.01044 1.0344-.03808 1.4191-.12233.1928-.04224.3333-.08862.4235-.12858.5064-.22455.8189-.38216 1.0101-.49261l-.5191-3.1913C15.4213 1.29585 13.9282 0 12.1787 0H9.5C7.83783 0 5.41679.868043 4.68861 2.66658H1.78947C.801175 2.66658 0 3.48739 0 4.49992v2.83333c0 2.02504 1.60235 3.66665 3.57895 3.66665h3.02808l-.65765 3.347c-.50734 2.582-.59262 5.225-.25637 7.8266l11.83449-9.6028.6239 2.0693L6.61619 24Z" clip-rule="evenodd"/></svg>