<svg xmlns="http://www.w3.org/2000/svg" width="24" height="24" fill="none" viewBox="0 0 24 24"><path fill="#262626" fill-rule="evenodd" d="m9.03825 8.99995-1.1264 5.73255c-.39017 1.9857-.50841 4.0108-.355 6.0198l8.33495-6.8195-.9634-3.2111-.2914-1.79127c-.4136.05331-.8575.07659-1.3009.06788-.6605-.01299-1.3635-.09782-1.9967-.287-.6111-.18259-1.2825-.49972-1.72617-1.06796-.91985-1.17827-.63988-2.39337-.22601-3.16819.2024-.37891.44686-.68299.63318-.88782.0949-.10424.1789-.18744.2417-.24666.0315-.0297.0579-.05366.078-.07149l.0254-.02219.0089-.00762.0035-.00294.0015-.00124.0006-.00057c.0004-.00027.0007-.00053.6435.76546.6429.766.6432.76574.6435.7655l.0005-.00046.001-.00083.0015-.00128.0012-.00105-.0043.00376c-.0057.00509-.0169.01514-.0324.02979-.0313.02949-.0789.07639-.1347.13775-.115.12634-.2476.29537-.3485.48418-.1926.36063-.2236.65948.0384.99516.0742.09497.2837.25138.7222.3824.4164.12441.9317.19323 1.4635.20368.3315.00652.6524-.00996.9403-.04376l-.5808-3.56992C13.5991 2.55004 12.9127 2 12.1787 2H9.5c-.52512 0-1.24573.14684-1.87777.45573-.64308.31429-.96489.6776-1.0798.96142l-.50586 1.24943H2v2.66667c0 .9664.7523 1.66667 1.57896 1.66667l5.45929.00003Zm9.15255 5.63595L18.75 16.5 22 24H6c-.66001-3.1822-.67722-6.4642-.05062-9.6531l.65765-3.347H3.57895C1.60235 10.9999 0 9.35829 0 7.33325V4.49992c0-1.01253.801175-1.83334 1.78947-1.83334h2.89914C5.41679.868043 7.83783 0 9.5 0h2.6787c1.7495 0 3.2426 1.29585 3.5303 3.06387l.7705 4.73665.0834.06852 1.8298-1.46386c1.2419-.99354 3.0323-.89438 4.1569.23024 1.3058 1.30575 1.1987 3.45348-.2305 4.62278l-4.1283 3.3777Zm-1.6766 1.3718L9.19027 22h9.76333l-2.0855-4.8127-.3539-1.1796Zm.3535-5.8212 2.7744-2.21958c.4462-.35692 1.0893-.3213 1.4933.08271.4691.46908.4306 1.24062-.0828 1.6607l-3.4843 2.85077-.6867-2.2893-.0139-.0853Z" clip-rule="evenodd"/></svg>