<svg xmlns="http://www.w3.org/2000/svg" width="25" height="24" fill="none" viewBox="0 0 25 24"><path fill="#262626" fill-rule="evenodd" d="m7.00966 7.69902 3.48324-4.52545c.2768-.35971.5848-.68128.9171-.96386C8.17802.018759 3.5804.85612 1.36332 4.29804-.845834 7.72765-.334697 12.287 2.63896 15.1058l7.53904 7.1464c1.0956 1.0386 2.8298.9892 3.8641-.11.3889-.4133.621-.9147.7015-1.4338.594-.0601 1.1692-.332 1.6021-.8116.3442-.3812.5493-.8398.618-1.3131.5138-.0769 1.0067-.3186 1.3933-.7227l.044-.0461c.3389-.3542.55-.7828.6358-1.2296.5907-.0461 1.1686-.2915 1.6248-.7356.4765-.4638.7643-.9723.7858-1.6743.0215-.702-.3848-1.1395-.3848-1.1395l-3.4765-3.96671-1.2111-1.35044-2.8588 3.06455c-1.1058 1.1854-2.9534 1.2779-4.17211.2087L7.14262 9.06068c-.39646-.34781-.45465-.94373-.13296-1.36166Zm4.82374-4.02058L9.00765 7.43908c-.30662.40806-.25671.98153.11577 1.3305l.85162.79783c.80726.75629 2.07496.71369 2.82966-.09507l3.6484-3.90984 5.6094 6.625c2.8229-2.70869 2.5216-7.30807-.6306-9.6253l-.3373-.24791C18.1555.153665 14.0247.762115 11.8334 3.67844Z" clip-rule="evenodd"/></svg>