<svg xmlns="http://www.w3.org/2000/svg" width="24" height="24" fill="none" viewBox="0 0 24 24"><path fill="#262626" fill-rule="evenodd" d="M10.4958 3c.2762 0 .5001.22386.5001.5V9H9.99558V3.5c0-.27614.22392-.5.50022-.5ZM7.99487 9V3.5c0-1.38071 1.11969-2.5 2.50093-2.5.3127 0 .612.05738.888.16218C11.8273.463627 12.6079 0 13.4968 0c.889 0 1.6696.463627 2.1131 1.16219.2759-.10481.5753-.16219.888-.16219 1.2304 0 2.2533.88823 2.4619 2.05823C19.1335 3.0201 19.3139 3 19.4989 3c1.3812 0 2.5009 1.11929 2.5009 2.5v10.1115c0 1.4639-.7926 2.7672-2.0007 3.4647V24H8.99523v-4L4.8375 15.8438l.00134-.0015-2.15694-2.1569c-.9092-.9092-.9092-2.3833 0-3.2925 1.42779-1.42782 3.74271-1.42783 5.1705 0l.14247.1424V9Zm11.31023 8.1261-8.7622 1.5926-2.92777-2.9267.63854-.6878 1.41599-1.416 3.88394.7395 6.4361 1.3787c-.0508.522-.3034.9907-.6846 1.3197Zm-8.3092 3.7072V22h7.0025v-2.3333l-7.0025 1.1666ZM19.9991 11v2.619l-6.0486-1.1517-3.95492-.8471V11H19.9991Zm-13.56116.8073 1.11332 1.1134-.73881.7958-.63526.6352-2.08083-2.0808c-.12801-.128-.12801-.3356 0-.4636.64661-.6466 1.69497-.6466 2.34158 0ZM19.9991 9V5.5c0-.27614-.2239-.5-.5002-.5-.2762 0-.5001.22386-.5001.5V9h1.0003Zm-3.001 0V3.5c0-.27614-.224-.5-.5002-.5-.2763 0-.5002.22386-.5002.5V9h1.0004ZM13.997 9V2.5c0-.27614-.2239-.5-.5002-.5-.2762 0-.5002.22386-.5002.5V9h1.0004Z" clip-rule="evenodd"/></svg>