<svg xmlns="http://www.w3.org/2000/svg" width="24" height="24" fill="none" viewBox="0 0 24 24"><mask id="a" fill="#fff"><path fill-rule="evenodd" d="M13.4941 0c-.8289 0-1.501.672023-1.501 1.501V9h3.002V1.501c0-.828977-.672-1.501-1.501-1.501ZM9.49146 1c-.82898 0-1.50101.67202-1.50101 1.501V9h3.00205V2.501c0-.82898-.6721-1.501-1.50104-1.501Zm12.50834 9H7.99045v1l14.00935 2v-3ZM2.3963 12.0974c-.5284-.5284-.5284-1.3851 0-1.9135 1.05679-1.05681 2.77018-1.05681 3.82697 0l1.76538 1.7654-2.87023 2.8702-2.72212-2.7221ZM15.9958 2.501c0-.82898.672-1.501 1.501-1.501.829 0 1.501.67202 1.501 1.501V9h-3.002V2.501ZM20.9992 3c-.5527 0-1.0007.44802-1.0007 1.00067V9h2.0013V4.00067C21.9998 3.44802 21.5518 3 20.9992 3ZM5.83276 15.8438 8.99112 20l9.31528-.7161c2.0841-.1602 3.6934-1.898 3.6934-3.9882V14L8.99112 12.2344l-3.15836 3.6094ZM19.9985 20 8.99112 21v3H19.9985v-4Z" clip-rule="evenodd"/></mask><path fill="#262626" fill-rule="evenodd" d="M13.4941 0c-.8289 0-1.501.672023-1.501 1.501V9h3.002V1.501c0-.828977-.672-1.501-1.501-1.501ZM9.49146 1c-.82898 0-1.50101.67202-1.50101 1.501V9h3.00205V2.501c0-.82898-.6721-1.501-1.50104-1.501Zm12.50834 9H7.99045v1l14.00935 2v-3ZM2.3963 12.0974c-.5284-.5284-.5284-1.3851 0-1.9135 1.05679-1.05681 2.77018-1.05681 3.82697 0l1.76538 1.7654-2.87023 2.8702-2.72212-2.7221ZM15.9958 2.501c0-.82898.672-1.501 1.501-1.501.829 0 1.501.67202 1.501 1.501V9h-3.002V2.501ZM20.9992 3c-.5527 0-1.0007.44802-1.0007 1.00067V9h2.0013V4.00067C21.9998 3.44802 21.5518 3 20.9992 3ZM5.83276 15.8438 8.99112 20l9.31528-.7161c2.0841-.1602 3.6934-1.898 3.6934-3.9882V14L8.99112 12.2344l-3.15836 3.6094ZM19.9985 20 8.99112 21v3H19.9985v-4Z" clip-rule="evenodd"/><path fill="#262626" d="M11.9931 9H9.99313v2h1.99997V9Zm3.002 0v2h2V9h-2ZM7.99045 9h-2v2h2V9Zm3.00205 0v2h2V9h-2Zm-3.00205 1V8h-2v2h2Zm14.00935 0h2V8h-2v2ZM7.99045 11h-2v1.7348l1.71735.2451L7.99045 11Zm14.00935 2-.2826 1.9799 2.2826.3259V13h-2ZM2.3963 10.1839.982083 8.76966l-.000001.00001L2.3963 10.1839Zm0 1.9135 1.41421-1.4142-1.41421 1.4142Zm3.82697-1.9135 1.41422-1.41423v-.00001L6.22327 10.1839Zm1.76538 1.7654 1.41422 1.4142 1.41423-1.4142-1.41423-1.4143-1.41422 1.4143Zm-2.87023 2.8702-1.41421 1.4142 1.41421 1.4142 1.41422-1.4142-1.41422-1.4142ZM18.9978 9v2h2V9h-2Zm-3.002 0h-2v2h2V9Zm4.0027 0h-2v2h2V9Zm2.0013 0v2h2V9h-2ZM8.99112 20l-1.59239 1.2101.65926.8675 1.08642-.0835L8.99112 20Zm-3.15836-4.1562-1.50512-1.3171-1.07452 1.228.98724 1.2991 1.5924-1.21Zm12.47364 3.4401-.1533-1.9941.1533 1.9941ZM21.9998 14h2v-1.7469l-1.731-.2349L21.9998 14ZM8.99112 12.2344l.26899-1.9819-1.06581-.1446-.7083.8094 1.50512 1.3171Zm0 8.7656-.18095-1.9918-1.81905.1653V21h2Zm11.00738-1h2v-2.1899l-2.181.1981.181 1.9918ZM8.99112 24h-2v2h2v-2Zm11.00738 0v2h2v-2h-2ZM13.9931 1.501c0 .27559-.2234.499-.499.499v-4C11.5606-2 9.99313-.432547 9.99313 1.501h3.99997Zm0 7.499V1.501H9.99313V9h3.99997Zm1.002-2h-3.002v4h3.002V7Zm-2-5.499V9h4V1.501h-4Zm.499.499c-.2755 0-.499-.22341-.499-.499h4c0-1.933549-1.5674-3.501-3.501-3.501v4Zm-3.50365.501c0 .27559-.2234.499-.49899.499v-4C7.55791-1 5.99045.567452 5.99045 2.501h4Zm0 6.499V2.501h-4V9h4Zm1.00205-2H7.99045v4h3.00205V7ZM8.99246 2.501V9h4.00004V2.501H8.99246Zm.499.499c-.27559 0-.499-.22341-.499-.499h4.00004C12.9925.567453 11.425-1 9.49146-1v4Zm-1.50101 9H21.9998V8H7.99045v4Zm2-1v-1h-4v1h4Zm12.29205.0201L8.27311 9.02007 7.7078 12.9799l14.0094 2 .5653-3.9598ZM19.9998 10v3h4v-3h-4ZM.982082 8.76967C-.327358 10.0791-.327363 12.2021.982083 13.5116l2.828427-2.8284c.25266.2526.25265.6622 0 .9149L.982082 8.76967Zm6.655408-.00001c-1.83784-1.83783-4.81757-1.83783-6.655407 0L3.81051 11.5981c.27574-.2757.72281-.2757.99855 0l2.82843-2.82844ZM9.40287 10.535 7.63749 8.76967 4.80906 11.5981l1.76538 1.7654 2.82843-2.8285Zm-2.87023 5.6987 2.87023-2.8702-2.82843-2.8285-2.87023 2.8703 2.82843 2.8284ZM.982082 13.5116l2.722128 2.7221 2.82843-2.8284-2.72213-2.7221-2.828428 2.8284ZM17.4968-1c-1.9335 0-3.501 1.567453-3.501 3.501h4c0 .27559-.2234.499-.499.499v-4Zm3.501 3.501C20.9978.567454 19.4304-1 17.4968-1v4c-.2756 0-.499-.22341-.499-.499h4Zm0 6.499V2.501h-4V9h4Zm-5.002 2h3.002V7h-3.002v4Zm-2-8.499V9h4V2.501h-4Zm8.0027 1.49967c0 .55191-.4474.99933-.9993.99933V1c-1.6573 0-3.0007 1.34345-3.0007 3.00067h4Zm0 4.99933V4.00067h-4V9h4Zm.0013-2h-2.0013v4h2.0013V7Zm-2-2.99933V9h4V4.00067h-4ZM20.9992 5c-.552 0-.9994-.44742-.9994-.99933h4C23.9998 2.34345 22.6564 1 20.9992 1v4ZM10.5835 18.7899l-3.15834-4.1562-3.1848 2.4201 3.15837 4.1563 3.18477-2.4202Zm7.5696-1.5001-9.31527.7161.30658 3.9882 9.31529-.7161-.3066-3.9882Zm1.8467-1.9941c0 1.0451-.8046 1.914-1.8467 1.9941l.3066 3.9882c3.1261-.2403 5.5401-2.847 5.5401-5.9823h-4Zm0-1.2957v1.2957h4V14h-4Zm-11.27766.2162 13.00866 1.7656.538-3.9636-13.00869-1.7657-.53797 3.9637Zm-1.38426 2.9446 3.15832-3.6094-3.0102-2.6341-3.15836 3.6094 3.01024 2.6341Zm1.8342 5.831 11.00732-1-.3619-3.9836-11.00733 1 .36191 3.9836ZM10.9911 24v-3H6.99112v3h3.99998Zm9.0074-2H8.99112v4H19.9985v-4Zm-2-2v4h4v-4h-4Z" mask="url(#a)"/></svg>