<svg xmlns="http://www.w3.org/2000/svg" width="24" height="24" fill="none" viewBox="0 0 24 24"><path fill="#262626" fill-rule="evenodd" d="M11.8782 2.55164C14.5221.525043 18.2832.44271 21.04 2.54645c3.7367 2.85156 3.9735 8.38635.4939 11.54555l-.0866.0787c-.0478.6118-.3093 1.2104-.7858 1.6742-.4562.4441-1.0341.6895-1.6248.7356-.0858.4469-.2969.8754-.6357 1.2296l-.0441.0461c-.3866.4041-.8795.6458-1.3932.7227-.0688.4733-.2739.9319-.618 1.3131-.433.4796-1.0082.7515-1.6022.8116-.0805.5191-.3125 1.0205-.7014 1.4338-1.0344 1.0992-2.7686 1.1486-3.8641.11l-7.53905-7.1463C-.334695 12.2823-.84583 7.72291 1.36331 4.29332 3.68982.681511 8.63769-.062264 11.8782 2.55164Zm8.8026 9.55146c2.0235-2.36729 1.6952-6.01993-.8571-7.96762-2.3625-1.80281-5.7295-1.41907-7.6243.86894L8.82301 9.0816l1.15936 1.0399c.40303.3615 1.02093.3374 1.39453-.0543l3.333-3.49461.7185.68317.0181-.01954 5.1712 4.80628c.0215.02.0425.0402.0631.0606Zm-5.8745-2.73148 4.4498 4.13588c.2615.243.2662.6553.0105.9042-.2404.2339-.6226.2361-.8655.0048l-2.1178-2.0159-1.3789 1.4486 2.0258 1.9284-.0008.001c.191.1698.203.4643.0263.6491l-.0441.046c-.1622.1696-.4308.1768-.6018.0161l-.0067.0072c-.0359-.0378-.0732-.0746-.1119-.1106l-1.9794-1.838-1.3609 1.4656 1.9794 1.838c.1999.1856.2136.4974.0308.6998-.1651.1829-.4337.2145-.6343.0892-.0968-.1285-.2063-.25-.3283-.3628l-.0292.0315-1.7043-1.6527-1.3923 1.4358 1.9323 1.8738c.1252.2649.0835.5885-.1215.8063-.275.2923-.7362.3055-1.0275.0293l-7.53902-7.1464c-2.26737-2.1493-2.66963-5.64758-.97086-8.28485C4.6914 2.81673 8.13134 2.26339 10.4532 3.97454l-3.1739 3.8326c-.6846.82669-.59411 2.04544.20512 2.76226l1.15936 1.0399c1.20914 1.0845 3.06282 1.0123 4.18372-.1629l1.9788-2.07478Z" clip-rule="evenodd"/></svg>