<svg xmlns="http://www.w3.org/2000/svg" width="24" height="24" fill="none" viewBox="0 0 24 24"><path fill="#262626" fill-rule="evenodd" d="M11.9992 0C14.2052 0 16 1.65666 16 3.69307c0 .98627-.4163 1.91365-1.1718 2.61157l-.5932.5413-.2942.27857c-.4026.39376-.745.79354-.8822 1.19593l3.7279 1.12954c.078-.25767.1357-.52412.1713-.79751l4.3071 1.43583C22.8983 10.6328 24 12.1613 24 13.883V24H0V13.883c0-1.7217 1.10172-3.2502 2.73509-3.7947l4.3071-1.43583c.03567.27374.09349.54053.17159.7985l3.81812-1.15948c.1526-1.06345.9023-1.90412 1.6472-2.60757l.7408-.67914c.3798-.35068.589-.81647.589-1.31171 0-1.0226-.9013-1.85476-2.0097-1.85476-1.0545 0-1.9218.75479-2.00205 1.71004l-.00606.14472H8C8 1.65666 9.79393 0 11.9992 0Zm6.2348 11.185-.0723.1404C16.9725 13.5257 14.6448 15 12 15c-2.64476 0-4.97249-1.4743-6.16173-3.6746L5.765 11.185l-2.39746.8007c-.76564.2552-1.29764.9429-1.36115 1.7372L2 13.883V22l2-.001V18h2v3.999h12V18h2v3.999L22 22v-8.117c0-.807-.4842-1.5292-1.2176-1.8406l-.15-.0567-2.3984-.8007ZM12 10.09l-3.80547 1.1534C9.11163 12.3184 10.4762 13 12 13s2.8884-.6816 3.8055-1.7566L12 10.09Z" clip-rule="evenodd"/></svg>