<svg xmlns="http://www.w3.org/2000/svg" width="24" height="24" fill="none" viewBox="0 0 24 24"><path fill="#262626" fill-rule="evenodd" d="M16 3.69307C16 1.65666 14.2052 0 11.9992 0 9.79393 0 8 1.65666 8 3.69307h1.99109l.00606-.14472c.08025-.95525.94755-1.71004 2.00205-1.71004 1.1084 0 2.0097.83216 2.0097 1.85476 0 .49524-.2092.96103-.589 1.31171l-.7408.67914c-.7449.70345-1.4946 1.54412-1.6472 2.60757L7.21378 9.45097c-.0781-.25797-.13592-.52476-.17159-.7985l-4.3071 1.43583C1.10172 10.6328 0 12.1613 0 13.883V24h4v-6h2v6h12v-6h2v6h4V13.883c0-1.7217-1.1017-3.2502-2.7351-3.7947l-4.3071-1.43583c-.0356.27339-.0933.53984-.1713.79751l-3.7279-1.12954c.1372-.40239.4796-.80217.8822-1.19593l.2942-.27857.5932-.5413C15.5837 5.60672 16 4.67934 16 3.69307ZM8.19453 11.2434 12 10.09l3.8055 1.1534C14.8884 12.3184 13.5238 13 12 13s-2.88837-.6816-3.80547-1.7566Z" clip-rule="evenodd"/></svg>