<svg xmlns="http://www.w3.org/2000/svg" width="24" height="25" fill="none" viewBox="0 0 24 25"><path fill="#262626" fill-rule="evenodd" d="M4 8.00069C4.0331 3.26794 8.15389-.475065 12.8802.0490726c1.2224.1355644 2.2953.4013304 3.2832.9455904.9905.545747 1.827 1.333577 2.6366 2.413027.3313.44182.2418 1.06863-.2 1.4-.4419.33137-1.0687.24182-1.4-.2-.6904-.92056-1.3245-1.48816-2.0018-1.86131-.6799-.37463-1.472-.59122-2.5385-.70949-3.52503-.39093-6.63479 2.40883-6.65975 5.97778L4 8.00069Zm14.3147 3.05781c.5242.1738.8083.7396.6345 1.2639l-2.4288 7.3261-.0013.004c-.4374 1.301-1.169 2.4203-2.2145 3.2063-1.0518.7907-2.3589 1.1966-3.8557 1.1668-1.062-.0212-2.12656-.3924-2.95536-1.1245-.05905-.0522-.1062-.0957-.14001-.1277-.01692-.016-.03055-.0291-.04071-.039l-.01263-.0123-.00433-.0043-.00167-.0017-.00103-.001c-.39052-.3905-.39081-1.024-.00029-1.4145.38985-.3899 1.02149-.3905 1.41218-.0021l.00103.0011.00073.0007.00082.0008.01939.0185c.01899.018.04963.0464.09055.0825.44159.3901 1.03853.6113 1.67113.6239 1.0976.0218 1.9561-.2712 2.6141-.7659.6639-.4991 1.186-1.251 1.5199-2.2429l.0006-.002 2.4275-7.3222c.1738-.5242.7396-.8083 1.2639-.6345ZM8.00002 8.00085c.0182-2.6615 2.58758-4.56903 5.14148-3.80274 1.3014.39052 2.2528 1.38458 2.646 2.57671.173.52449-.112 1.08992-.6364 1.26292-.5245.173-1.09-.11194-1.263-.63643-.1978-.59965-.6729-1.09298-1.3214-1.28757-1.2705-.38123-2.5556.56709-2.5667 1.8977v.90635c.1443.1005.3009.22654.4571.38279.5499.54991 1.0429 1.42452 1.0429 2.70712 0 .5523-.4477 1-1 1-.55228 0-1-.4477-1-1 0-.7175-.25702-1.0928-.45711-1.2929-.10956-.1096-.2181-.1813-.29416-.2236-.0375-.0208-.06516-.0334-.0782-.039l-.00292-.0012L8 10.2284l.00002-2.22755ZM3.70718 23.7148 22.7072 4.71479 21.293 3.30057 2.29297 22.3006l1.41421 1.4142Z" clip-rule="evenodd"/></svg>