<svg xmlns="http://www.w3.org/2000/svg" width="24" height="24" fill="none" viewBox="0 0 24 24"><path fill="#262626" fill-rule="evenodd" d="M17 1c3.866 0 7 3.28325 7 7.33333 0 2.05287-.8051 3.90867-2.1026 5.23977L22 13.5714 12 23 2 13.5714l.10265.0017C.805143 12.242 0 10.3862 0 8.33333 0 4.28325 3.13401 1 7 1c1.95901 0 3.7301.84305 5.0006 2.20174C13.2699 1.84305 15.041 1 17 1Zm0 2c-1.2596 0-2.4453.49785-3.3589 1.38457l-.179.18249-1.4608 1.5636-1.4615-1.56288C9.60348 3.56649 8.34359 3 7 3 4.25992 3 2 5.36754 2 8.33333c0 1.38273.49358 2.67357 1.35721 3.65227l.17763.1915L4.637 13.308 12 20.25l7.362-6.942 1.1032-1.1309c.9124-.9361 1.463-2.19902 1.5283-3.56851L22 8.33333C22 5.36754 19.7401 3 17 3Z" clip-rule="evenodd"/></svg>