<svg xmlns="http://www.w3.org/2000/svg" width="25" height="24" fill="none" viewBox="0 0 25 24"><path fill="#262626" fill-rule="evenodd" d="M16.8802.0490061C12.1539-.47442 8.03312 3.26351 8.00002 7.98984l1.99996.01396c.02492-3.56411 3.13472-6.36007 6.65972-5.96968 3.8023.4211 6.2436 4.24123 5.0245 7.86249l-3.0608 9.09279c-.7269 2.1592-2.9777 3.4135-5.1995 2.8973l-.3927-.0913C11.2562 21.3831 10 19.8032 10 17.9833H8c0 2.7487 1.89722 5.1347 4.5781 5.7575l.3927.0912c3.2254.7494 6.4931-1.0715 7.5483-4.2062L23.58 10.533C25.2055 5.70436 21.9503.610507 16.8802.0490061Zm.2613 4.1434139C14.5876 3.42716 12.0182 5.33211 12 7.99v2.7239l.6676.2222.0029.0013c.0131.0056.0407.0181.0782.0389.0761.0422.1846.1139.2942.2233.2001.1998.4571.5747.4571 1.2911 0 .7258-.6281 1.498-1.5 1.498-.5523 0-1 .4471-1 .9986 0 .5516.4477.9987 1 .9987 2.1281 0 3.5-1.8243 3.5-3.4953 0-1.2808-.493-2.1542-1.0429-2.70341-.1562-.15604-.3128-.2819-.4571-.38227V8.00057c.0111-1.3288 1.2962-2.27583 2.5667-1.89513 1.074.32185 1.6711 1.46464 1.3211 2.52852L17.05 11.1804c-.1724.5239.1132 1.0883.6378 1.2604.5247.1722 1.0898-.113 1.2622-.637l.8378-2.54638c.7012-2.13111-.4949-4.42031-2.6463-5.065ZM3.29289 6.29202c.39053-.38999 1.02369-.38999 1.41422 0 3.70423 3.69921 3.70423 9.69678 0 13.39598-.39053.39-1.02369.39-1.41422 0-.39052-.3899-.39052-1.0223 0-1.4122 2.92319-2.9193 2.92319-7.6523 0-10.57148-.39052-.38999-.39052-1.0223 0-1.4123ZM1.70711 9.28796c-.39053-.39-1.023692-.39-1.414217 0-.3905241.38999-.3905241 1.02234 0 1.41234 1.266327 1.2646 1.266327 3.3149 0 4.5795-.3905241.39-.3905241 1.0223 0 1.4123.390524.39 1.023687.39 1.414217 0 2.04737-2.0446 2.04737-5.3595 0-7.40414Z" clip-rule="evenodd"/></svg>