<svg xmlns="http://www.w3.org/2000/svg" width="24" height="24" fill="none" viewBox="0 0 24 24"><path fill="#262626" fill-rule="evenodd" d="M12.8802.0490061C8.83055-.399484 5.22544 2.28056 4.25537 6.03027c3.15378 3.46261 3.94862 9.95683.15833 14.12553.00154.0039.00309.0078.00464.0117l-2.12537 2.1254 1.41421 1.4142L22.7072 4.70711 21.293 3.29289l-1.8276 1.82756C18.4352 2.45838 16.0017.394705 12.8802.0490061ZM8.00002 7.99316c.01819-2.66149 2.58758-4.56903 5.14148-3.80273 1.3014.39051 2.2528 1.38458 2.646 2.5767.173.52449-.112 1.08992-.6365 1.26292-.5244.173-1.0899-.11194-1.2629-.63643-.1978-.59964-.6729-1.09298-1.3214-1.28757-1.2705-.38123-2.5556.5671-2.5667 1.8977v.90635c.1442.10051.3009.22654.4571.38279C11.007 9.8428 11.5 10.7174 11.5 12c0 .5523-.4477 1-1 1-.55229 0-1-.4477-1-1 0-.7174-.25702-1.0928-.45711-1.2929-.10957-.1096-.21811-.1813-.29416-.2236-.03751-.0208-.06516-.0334-.0782-.039l-.00292-.0012L8 10.2208V7.99316h.00002ZM10.1974 22.8827c3.3026.6173 5.4828-.906 6.3738-3.5566L19 11 8 22s1 .5 2.1974.8827Z" clip-rule="evenodd"/></svg>