<svg xmlns="http://www.w3.org/2000/svg" width="24" height="24" fill="none" viewBox="0 0 24 24"><path fill="#262626" fill-rule="evenodd" d="M24 8.33333C24 4.28325 20.866 1 17 1c-1.959 0-3.7301.84305-4.9994 2.20174C10.7301 1.84305 8.95901 1 7 1 3.13401 1 0 4.28325 0 8.33333c0 2.05287.702493 3.90697 2 5.23807L12 23l10-9.4286c1.2975-1.3311 2-3.1852 2-5.23807ZM13.6411 4.38457C14.5547 3.49785 15.7404 3 17 3c2.7401 0 5 2.36754 5 5.33333l-.0065.27526c-.0653 1.36949-.6159 2.63241-1.5283 3.56851L19.362 13.308l-6.9869 6.5883L15.344 10h-4.0424l1.1645-4.36677.996-1.06617.179-.18249Zm-2.992.30008-.1093-.11687C9.60348 3.56649 8.34359 3 7 3 4.25992 3 2 5.36754 2 8.33333c0 1.38273.49358 2.67357 1.35721 3.65227l.17763.1915L4.637 13.308l5.945 5.6051L12.6559 12H8.69836l1.95074-7.31535Z" clip-rule="evenodd"/></svg>