<svg xmlns="http://www.w3.org/2000/svg" width="24" height="24" fill="none" viewBox="0 0 24 24"><path fill="#262626" fill-rule="evenodd" d="M9.37825.0434101C5.79106-.353864 2.59764 2.02012 1.73832 5.34162c2.7937 3.06721 3.49781 8.81998.14025 12.51268l.0041.0103L0 19.7473 1.25272 21 18.0831 4.1696l-1.2527-1.25272-1.6189 1.61887C14.299 2.17766 12.1433.349634 9.37825.0434101ZM4.94122 7.07965c.01663-2.43348 2.36592-4.17786 4.70135-3.4771 1.19013.35711 2.06003 1.26625 2.41953 2.35608.173.52449-.112 1.08991-.6365 1.26292-.5245.173-1.0899-.11194-1.2629-.63643-.16404-.49735-.55774-.90576-1.09493-1.06695-1.05212-.31569-2.1171.46951-2.12658 1.57212v.74347c.11885.0863.2453.19107.37147.31724.50709.50709.95725 1.31036.95725 2.4787 0 .5523-.44772 1-1 1-.55229 0-1-.4477-1-1 0-.6032-.2142-.90722-.37147-1.06449-.08815-.08816-.17528-.14564-.23528-.17897-.02752-.01529-.04763-.02454-.05697-.02862l-.665-.22166V7.07965h.00003ZM7.00179 20.2697c2.92551.5468 4.85671-.8025 5.64601-3.1504l2.1515-7.37539-9.74395 9.74389s.88581.4429 1.94644.7819ZM19 16h-3v-2h8v2h-3v8h-2v-8Z" clip-rule="evenodd"/></svg>