<svg xmlns="http://www.w3.org/2000/svg" width="25" height="24" fill="none" viewBox="0 0 25 24"><path fill="#262626" fill-rule="evenodd" d="M12 8.16944c.0182-2.65789 2.5876-4.56284 5.1415-3.79758 2.1514.64469 3.3475 2.93388 2.6463 5.065L18.95 11.9832c-.1724.524-.7375.8092-1.2622.6371-.5246-.1722-.8102-.7365-.6378-1.2605l.8378-2.5464c.35-1.06388-.2471-2.20668-1.3211-2.52852-1.2705-.38071-2.5556.56633-2.5667 1.89513v1.40445c.1443.10036.3009.22623.4571.38227.5499.54917 1.0429 1.42257 1.0429 2.70347 0 1.671-1.3719 3.4952-3.5 3.4952-.5523 0-1-.4471-1-.9986 0-.5516.4477-.9987 1-.9987.8719 0 1.5-.7722 1.5-1.4979 0-.7165-.257-1.0914-.4571-1.2912-.1096-.1094-.2181-.1811-.2942-.2232-.0375-.0209-.0651-.0334-.0782-.039l-.0029-.0012L12 10.8933V8.16944Zm-3.96826-.84267C8.42394 2.91975 12.3773-.449686 16.8802.0490061 21.9503.610507 25.2055 5.70436 23.58 10.533l-3.0609 9.0928c-1.0552 3.1347-4.3229 4.9556-7.5483 4.2062l-.3927-.0912c-2.3663-.5498-4.12209-2.4732-4.50154-4.8072 1.90717-3.3755 2.01124-7.4816.31217-10.93678H9l-.61337-.00428c-.11066-.22481-.22896-.44686-.35489-.66577Zm-4.73885-.8553c.39053-.39 1.02369-.39 1.41422 0 3.70423 3.69923 3.70423 9.69683 0 13.39603-.39053.39-1.02369.39-1.41422 0-.39052-.39-.39052-1.0223 0-1.4123 2.92319-2.9192 2.92319-7.6522 0-10.57144-.39052-.38999-.39052-1.0223 0-1.41229ZM1.70711 9.4674c-.39053-.39-1.023692-.39-1.414217 0-.3905241.38999-.3905241 1.0223 0 1.4123 1.266327 1.2646 1.266327 3.315 0 4.5796-.3905241.39-.3905241 1.0223 0 1.4123.390524.39 1.023687.39 1.414217 0 2.04737-2.0446 2.04737-5.3596 0-7.4042Z" clip-rule="evenodd"/></svg>