<svg xmlns="http://www.w3.org/2000/svg" width="25" height="25" fill="none" viewBox="0 0 25 25"><path fill="#262626" fill-rule="evenodd" d="M0 7.64063C.0316036 3.12132 3.96647-.453791 8.48114.0468796 9.64273.175698 10.668.428842 11.6138.949968c.9486.522652 1.7473 1.275992 2.5172 2.302562.3393.45243.2476 1.09426-.2048 1.43358-.4524.33932-1.0943.24763-1.4336-.20479-.6479-.86387-1.2392-1.39171-1.8671-1.73762-.63055-.34743-1.36816-.55021-2.37009-.66132-3.28463-.36427-6.18422 2.24497-6.20749 5.57257L0 7.64063Zm3.78098.00017c.01755-2.56805 2.49676-4.4088 4.96119-3.66932 1.25588.37683 2.17383 1.33616 2.55323 2.48632.1771.53707-.1146 1.11606-.6517 1.29321-.5371.17715-1.11606-.11462-1.29321-.65169-.17926-.54347-.60962-.99005-1.1969-1.16627-1.15034-.34517-2.31443.51338-2.32466 1.71863v.81557c.13027.09325.26979.20771.40899.34692.53357.53356 1.00884 1.37993 1.00884 2.61453 0 .5655-.45846 1.024-1.02399 1.024s-1.02399-.4585-1.02399-1.024c0-.6559-.23364-.991-.40899-1.1664-.09743-.0974-.1938-.1611-.26061-.1982-.03246-.018-.05599-.0287-.06631-.0331l-.68192-.22732.00003-2.16288ZM1.74813 21.2117 18.1319 4.82789l-1.4481-1.44814L.299996 19.7635l1.448134 1.4482Zm12.16367-3.796.7241-.7241c2.662-2.662 6.978-2.662 9.64 0l.7241.7241-1.4481 1.4481-.7241-.7241c-1.8622-1.8622-4.8815-1.8622-6.7438 0l-.724.7241-1.4482-1.4481Zm2.7721 2.3478-.7241.7241 1.4481 1.4482.7241-.7241c.7312-.7312 1.9166-.7312 2.6478 0l.7241.7241 1.4481-1.4482-.724-.7241c-1.531-1.5309-4.0132-1.5309-5.5441 0Zm3.7958 3.7961c0 .5655-.4584 1.024-1.0239 1.024-.5656 0-1.024-.4585-1.024-1.024 0-.5656.4584-1.024 1.024-1.024.5655 0 1.0239.4584 1.0239 1.024Zm-6.1961-11.8087c.1779-.5368-.113-1.1162-.6498-1.2942-.5368-.178-1.1162.1129-1.2942.6497l-2.2943 6.9208-.0007.0019c-.30719.9128-.78353 1.6026-1.38379 2.0629-.59421.4556-1.36899.7325-2.36285.7284-.63905-.0026-1.24123-.2265-1.67234-.6239-.01779-.0164-.03049-.0285-.0377-.0354l-.00491-.0048-.00091-.0009-.00076-.0007c-.40007-.3978-1.04683-.3971-1.44601.0021-.39989.3999-.39979 1.0483.00011 1.4482l.00185.0019.00256.0025.00695.0069.02105.0204c.01715.0165.04053.0387.06969.0656.84504.779 1.95548 1.1616 3.05207 1.1661 1.40263.0057 2.62943-.3937 3.61742-1.1513.98147-.7526 1.66767-1.8125 2.07947-3.0373l2.2971-6.9289Z" clip-rule="evenodd"/></svg>