<svg xmlns="http://www.w3.org/2000/svg" width="24" height="25" fill="none" viewBox="0 0 24 25"><path fill="#262626" fill-rule="evenodd" d="M0 7.46165C.0308633 3.0482 3.87356-.443161 8.28247.0457814 9.41685.171583 10.4181.418797 11.3418.927715c.9264.510405 1.7063 1.246105 2.4582 2.248625.3313.44183.2418 1.06863-.2 1.4-.4419.33137-1.0687.24183-1.4-.2-.6327-.84363-1.2103-1.3591-1.8234-1.69691-.61579-.33929-1.33611-.53732-2.31458-.64583-3.20768-.35573-6.03934 2.19238-6.06207 5.44203L0 7.46165Zm21 8.54605h3v-2h-8v2h3v8h2v-8ZM8.53738 3.87844c-2.4067-.72215-4.82783 1.07548-4.84497 3.58337l-.00003 2.11221.66595.22198c.01008.00434.03305.01477.06476.03238.06523.03624.15935.09839.25449.19352.17125.1713.39942.4985.39942 1.1391 0 .5522.44771 1 1 1 .55228 0 1-.4478 1-1 0-1.20567-.46414-2.03224-.9852-2.55331-.13595-.13594-.27219-.24772-.39942-.33879v-.79646c.01-1.17702 1.14681-2.01546 2.27021-1.67838.57352.17209.99381.60822 1.16887 1.13895.173.52449.73842.80943 1.26294.63643.5245-.173.8094-.73843.6364-1.26292-.3705-1.12321-1.26695-2.06007-2.49342-2.42808Zm9.16982.83635L1.70718 20.7148.292969 19.3006 16.293 3.30058l1.4142 1.41421ZM13.949 11.4756c.1738-.5242-.1103-1.09-.6346-1.2638-.5242-.1738-1.09.1102-1.2638.6345l-2.24066 6.7586-.00063.0019c-.3.8914-.76518 1.565-1.35138 2.0145-.58029.445-1.33692.7153-2.3075.7114-.62408-.0026-1.21216-.2212-1.63317-.6093-.01737-.016-.02978-.0279-.03681-.0346l-.0048-.0046-.00088-.0009-.00075-.0008c-.39069-.3884-1.02231-.3877-1.41214.0021-.39052.3905-.39042 1.0238.00011 1.4143l.0018.0018.00251.0025.00679.0067.02055.02c.01675.0161.03958.0377.06806.064.82525.7607 1.90967 1.1344 2.98057 1.1388 1.36977.0056 2.56784-.3844 3.53268-1.1243.95855-.735 1.62865-1.7701 2.03075-2.9662l2.2433-6.7666Z" clip-rule="evenodd"/></svg>