<svg xmlns="http://www.w3.org/2000/svg" width="25" height="24" fill="none" viewBox="0 0 25 24"><path fill="#262626" fill-rule="evenodd" d="M9.37825.0434101C5.79106-.353864 2.59764 2.02012 1.73832 5.34162c2.7937 3.06721 3.49781 8.81998.14025 12.51268l.0041.0103L0 19.7473 1.25272 21 18.0831 4.1696l-1.2527-1.25272-1.6189 1.61887C14.299 2.17766 12.1433.349634 9.37825.0434101ZM4.94122 7.07965c.01663-2.43348 2.36592-4.17786 4.70135-3.4771 1.19013.35711 2.06003 1.26625 2.41953 2.35608.173.52449-.112 1.08991-.6365 1.26292-.5245.173-1.0899-.11194-1.2629-.63643-.16404-.49735-.55774-.90576-1.09493-1.06695-1.05212-.31569-2.1171.46951-2.12658 1.57212v.74347c.11885.0863.2453.19107.37147.31724.50709.50709.95725 1.31036.95725 2.4787 0 .5523-.44772 1-1 1-.55229 0-1-.4477-1-1 0-.6032-.2142-.90722-.37147-1.06449-.08815-.08816-.17528-.14564-.23528-.17897-.02752-.01529-.04763-.02454-.05697-.02862l-.665-.22166V7.07965h.00003ZM7.00179 20.2697c2.92551.5468 4.85671-.8025 5.64601-3.1504l2.1515-7.37539-9.74395 9.74389s.88581.4429 1.94644.7819ZM20 23c0 .5523-.4477 1-1 1s-1-.4477-1-1 .4477-1 1-1 1 .4477 1 1Zm-6.4141-6 .7071-.7071c2.5997-2.5997 6.8146-2.5997 9.4143 0l.7071.7071-1.4142 1.4142-.7072-.7071c-1.8186-1.8186-4.7671-1.8186-6.5857 0l-.7071.7071L13.5859 17Zm2 3 .7071-.7071c1.4951-1.4951 3.9192-1.4951 5.4143 0l.7071.7071-1.4142 1.4142-.7072-.7071c-.714-.714-1.8717-.714-2.5857 0l-.7071.7071L15.5859 20Z" clip-rule="evenodd"/></svg>