<svg xmlns="http://www.w3.org/2000/svg" width="25" height="24" fill="none" viewBox="0 0 25 24"><path fill="#262626" fill-rule="evenodd" d="M13.9959 6.00607 14 6.05135v5.95035c0 .5523.4477 1 1 1s1-.4477 1-1V8.07043c2.3949 1.38458 4.0018 3.97207 4.0018 6.93127v2.6667l1 1.3333H3.00181l1.00001-1.3333v-2.6667c0-2.9577 1.60531-5.54407 3.99818-6.92917v3.92917c0 .5523.44771 1 1 1 .55228 0 1-.4477 1-1V6.05163l.004-.045c.0399-.44901.3808-.8215.8336-.89603l.1879-.03093c.6453-.10623 1.3037-.10623 1.949 0l.1879.03093c.4526.0745.7934.44672.8335.89547Zm8.0059 8.99563v2l1.8 2.4c.4944.6593.0241 1.6-.8 1.6H1.00182c-.82405 0-1.294432-.9407-.800004-1.6l1.800004-2.4v-2c0-4.1045 2.47287-7.63147 6.01005-9.17228.12017-1.3509 1.14056-2.46835 2.50083-2.69226l.1879-.03093c.8605-.14164 1.7383-.14164 2.5988 0l.1879.03093c1.3597.22382 2.3798 1.34045 2.5007 2.69062 3.5392 1.53994 6.0138 5.06792 6.0138 9.17392Zm-11.0018 0c-.5523 0-1 .4477-1 1s.4477 1 1 1h2c.5523 0 1-.4477 1-1s-.4477-1-1-1h-2Z" clip-rule="evenodd"/></svg>