<svg xmlns="http://www.w3.org/2000/svg" width="25" height="24" fill="none" viewBox="0 0 25 24"><path fill="#262626" fill-rule="evenodd" d="M16.0132 5.83879c-.0084-.00368-.0168-.00735-.0252-.01101-.1209-1.35017-1.141-2.4668-2.5007-2.69062l-.1879-.03093c-.8605-.14164-1.7383-.14164-2.5988 0l-.1879.03093c-1.36027.22391-2.38066 1.34136-2.50083 2.69226-.00828.00361-.01656.00722-.02483.01085.00853.05256.01296.10648.01296.16145v5.99998c0 .5523-.44772 1-1 1s-1-.4477-1-1V7.00235C3.57214 8.82684 2.00182 11.7309 2.00182 15.0017v2l-1.800004 2.4c-.494428.6593-.024046 1.6.800004 1.6H23.0018c.8241 0 1.2944-.9407.8-1.6l-1.8-2.4v-2c0-3.2724-1.5719-6.17775-4.0018-8.00208v5.00208c0 .5523-.4477 1-1 1s-1-.4477-1-1V6.00172c0-.05548.0045-.10991.0132-.16293ZM10 16.0017c0-.5523.4477-1 1-1h2c.5523 0 1 .4477 1 1s-.4477 1-1 1h-2c-.5523 0-1-.4477-1-1Z" clip-rule="evenodd"/></svg>