<svg xmlns="http://www.w3.org/2000/svg" width="24" height="24" fill="none" viewBox="0 0 24 24"><path fill="#262626" fill-rule="evenodd" d="M12 0c6.6274 0 12 5.37258 12 12 0 6.6274-5.3726 12-12 12-6.62742 0-12-5.3726-12-12C0 5.37258 5.37258 0 12 0Zm0 16c.8284 0 1.5.6716 1.5 1.5S12.8284 19 12 19s-1.5-.6716-1.5-1.5.6716-1.5 1.5-1.5Zm-.0008-11C14.2052 5 16 6.65666 16 8.69307c0 .98627-.4163 1.91363-1.1718 2.61153l-.5932.5413-.2942.2786c-.4765.4661-.8687.9406-.9361 1.4178l-.0102.1433V14.5h-1.9907v-.8144c0-1.2531.8407-2.2135 1.6753-3.0017l.7408-.6791c.3798-.3507.589-.8165.589-1.31173 0-1.0226-.9013-1.85476-2.0097-1.85476-1.0545 0-1.9218.75479-2.00205 1.71004l-.00606.14472H8C8 6.65666 9.79393 5 11.9992 5Z" clip-rule="evenodd"/></svg>