<svg xmlns="http://www.w3.org/2000/svg" width="24" height="24" fill="none" viewBox="0 0 24 24"><path fill="#262626" fill-rule="evenodd" d="M7.99999 7 6 5l-.55358-.55358C7.20206 2.92183 9.49364 2 12 2v10l8.5 7 .0054-.0129.7669.6307C22.9762 17.5461 24 14.8913 24 12c0-6.62742-5.3726-12-12-12-3.05986 0-5.85162 1.14549-7.97052 3.02948L3 2 .999999 0v7H3.33597l.00126.00072L3.33765 7h4.66234ZM0 11v2h2v-2H0Zm.999999 7v-2H3v2H.999999ZM5 20v2h2v-2H5Zm6 4v-2h2v2h-2Zm6-2h2v-2h-2v2Z" clip-rule="evenodd"/></svg>