<svg xmlns="http://www.w3.org/2000/svg" width="24" height="24" fill="none" viewBox="0 0 24 24"><path fill="#262626" fill-rule="evenodd" d="M3 4.06273V0H.999999v7.99999H8.99999V6H3.99914C5.82465 3.56964 8.72948 2 12 2c5.5229 0 10 4.47715 10 10 0 2.411-.852 4.6204-2.2723 6.3474l1.5446 1.2704C22.9762 17.5461 24 14.8913 24 12c0-6.62742-5.3726-12-12-12-3.58502 0-6.80202 1.57244-9 4.06273ZM16.3753 16.7809 11 12.4806V6h2v5.5194l4.6247 3.6997-1.2494 1.5618ZM0 11v2h2v-2H0Zm.999999 7v-2H3v2H.999999ZM5 22h2v-2H5v2Zm8 2h-2v-2h2v2Zm4-2h2v-2h-2v2Z" clip-rule="evenodd"/></svg>