<svg xmlns="http://www.w3.org/2000/svg" width="24" height="24" fill="none" viewBox="0 0 24 24"><path fill="#262626" fill-rule="evenodd" d="M8 0c1.10457 0 2 .895431 2 2v.00153c.6368.51673 1.1374 1.22311 1.4038 2.08179l.2392.77108.005.01619L12.7656 8h4.543c1.4806 0 2.7733.8044 3.4649 2H22c1.1046 0 2 .8954 2 2v5c-1.1046 0-2-.8954-2-2v-3h-.6914v1c0 1.8893-1.3098 3.4727-3.071 3.8916l1.205 3.6895c.7341-.3696 1.3643-.8022 1.8503-1.2882.3905-.3905 1.0237-.3905 1.4142 0 .3905.3905.3905 1.0237 0 1.4142-1.1536 1.1536-2.7665 1.969-4.4563 2.4973C16.5507 23.736 14.6998 24 13 24c-1.6998 0-3.55072-.264-5.25084-.7956-1.68974-.5283-3.30269-1.3437-4.45627-2.4973-.39052-.3905-.39052-1.0237 0-1.4142.39053-.3905 1.02369-.3905 1.41422 0 .4659.4659 1.06432.8827 1.75981 1.2421l1.26051-3.8597c-1.42276-.6129-2.4188-2.0278-2.4188-3.6753v-1l.00005-.0197V8.27271l-2.2581.41057C2.00044 8.87422.940827 8.4007.38254 7.49099c-.751282-1.22418-.3616435-2.82601.86799-3.56834l3.76092-2.27049C5.95684 1.08143 7.0137.917313 8 1.09058V0Zm1.72535 17h6.44375l1.4104 4.3186C16.1012 21.7718 14.4817 22 13 22c-1.5067 0-3.15575-.236-4.65401-.7044l-.02133-.0067L9.72535 17Z" clip-rule="evenodd"/></svg>