<svg xmlns="http://www.w3.org/2000/svg" width="24" height="24" fill="none" viewBox="0 0 24 24"><path fill="#262626" fill-rule="evenodd" d="M11.0472 4.01852c-.2244-.71159-.6117-1.31711-1.10476-1.79497V2c0-.74028-.40385-1.386626-1.00411-1.732436C8.64295.0973943 8.3 0 7.93422 0v1.12023c-1.05952-.256368-2.22363-.11965-3.25445.49974L1.71171 3.40342C.00864163 4.42676-.51372 6.64514.555157 8.31509 1.09615 9.1603 1.9596 9.71941 2.91542 9.89061c.39471.0707.80516.07525 1.21517.00648l.79423-.13322v2.21643L4.92478 12v1c0 1.7499 1.12891 3.2373 2.70139 3.7801L6.39484 20.535c-.69835-.3593-1.29924-.7762-1.76705-1.2421-.39213-.3905-1.0279-.3905-1.42003 0-.39213.3905-.39213 1.0237 0 1.4142 1.15832 1.1536 2.7779 1.969 4.47459 2.4973C9.38946 23.736 11.248 24 12.9548 24c1.7068 0 3.5653-.264 5.2724-.7956 1.6967-.5283 3.3163-1.3437 4.4746-2.4973.3921-.3905.3921-1.0237 0-1.4142-.3921-.3905-1.0279-.3905-1.42 0-.488.486-1.1208.9186-1.858 1.2882l-1.2346-3.765C19.8184 16.3057 21 14.7902 21 13v-1h.9918v3c0 1.1046.8991 2 2.0082 2v-5c0-1.1046-.8991-2-2.0082-2h-1.5294c-.6949-1.1956-1.9937-2-3.4812-2h-4.5644l-.9425-2.62676-.4271-1.35472ZM9.56875 6.00921 9.12994 4.6173c-.45006-1.4276-2.12473-2.05844-3.41166-1.28514L2.75022 5.1156c-.73678.44272-.96277 1.40244-.50035 2.12489.33069.51665.93989.7862 1.5468.6844l3.13756-.52625V11.99l-.00005.01v1c0 1.1046.89964 2 2.0094 2h8.03762c1.1098 0 2.0094-.8954 2.0094-2v-1c0-1.1046-.8996-2-2.0094-2h-5.9805L9.56875 6.00921ZM9.66667 17h6.47023l1.4162 4.3186c-1.4844.4532-3.1105.6814-4.5983.6814-1.5129 0-3.16875-.236-4.67317-.7044l-.02141-.0067L9.66667 17Z" clip-rule="evenodd"/></svg>