<svg xmlns="http://www.w3.org/2000/svg" width="24" height="24" fill="none" viewBox="0 0 24 24"><path fill="#262626" fill-rule="evenodd" d="M18 16v-5.3924c-.3667.6086-.8234 1.1568-1.3516 1.6263l.0137.0155-8.97132 7.9256C8.7814 21.3005 10.309 22 12 22c3.3137 0 6-2.6863 6-6ZM6.55039 18.5138C6.1971 17.7492 6 16.8976 6 16v-5.3924c1.17144 1.9441 3.26104 3.2724 5.6685 3.3847l-5.11811 4.5215ZM4 8c0-4.41828 3.58172-8 8-8 4.4183 0 8 3.58172 8 8v8c0 4.4183-3.5817 8-8 8-4.41828 0-8-3.5817-8-8V8Zm3-1c0-2.76142 2.23858-5 5-5 2.7614 0 5 2.23858 5 5s-2.2386 5-5 5c-2.76142 0-5-2.23858-5-5Zm3 1c.5523 0 1-.44772 1-1s-.4477-1-1-1c-.55228 0-1 .44772-1 1s.44772 1 1 1Zm5-1c0 .55228-.4477 1-1 1s-1-.44772-1-1 .4477-1 1-1 1 .44772 1 1Z" clip-rule="evenodd"/></svg>