<svg xmlns="http://www.w3.org/2000/svg" width="24" height="24" fill="none" viewBox="0 0 24 24"><path fill="#262626" fill-rule="evenodd" d="M4 8c0-4.41828 3.58172-8 8-8 4.4183 0 8 3.58172 8 8v8c0 4.4183-3.5817 8-8 8-4.41828 0-8-3.5817-8-8V8Zm13-1c0 2.76142-2.2386 5-5 5-2.76142 0-5-2.23858-5-5s2.23858-5 5-5c2.7614 0 5 2.23858 5 5Zm.6139 5.7893c.436-.339.5145-.9673.1755-1.4032-.3391-.436-.9674-.5145-1.4033-.1755l-9.00003 7c-.43595.3391-.51448.9674-.17541 1.4033.33907.436.96734.5145 1.40329.1754l8.99995-7ZM11 7c0 .55228-.4477 1-1 1-.55228 0-1-.44772-1-1s.44772-1 1-1c.5523 0 1 .44772 1 1Zm4 0c0 .55228-.4477 1-1 1s-1-.44772-1-1 .4477-1 1-1 1 .44772 1 1Z" clip-rule="evenodd"/></svg>