<svg xmlns="http://www.w3.org/2000/svg" width="24" height="24" fill="none" viewBox="0 0 24 24"><path fill="#262626" fill-rule="evenodd" d="m12.4332 6.59808-5.19825-3 .5002-.86603 5.19825 3-.5002.86603Zm-6.93099-4c-.37029.6411-.34514 1.40195-.00019 2.00033L3.23354 8.52595c-.69089.00058-1.36265.35923-1.73294 1.00034L0 12.1244l8.66373 5 1.50057-2.5981c.3703-.6411.3452-1.402.0002-2.0003l.652-1.1289 12.1831 7.0311L24 16.6962 11.8169 9.66507l.6161-1.06666c.6909-.00058 1.3626-.35923 1.7329-1.00033L15.6665 5 7.00281 0l-1.5006 2.59808Zm-.40209 6.69616 2.0008-3.4641 3.46548 2-2.00079 3.46406-3.46549-1.99996ZM2.73315 11.3923l.5002-.866 5.19823 3-.5002.866-5.19823-3ZM10.0001 21H1.99987v1h8.00023v-1Zm-8.00023-2C.895371 19 0 19.8954 0 21v3h12v-3c0-1.1046-.8954-2-1.9999-2H1.99987Z" clip-rule="evenodd"/></svg>