<svg xmlns="http://www.w3.org/2000/svg" width="24" height="25" fill="none" viewBox="0 0 24 25"><path fill="#262626" fill-rule="evenodd" d="M11.9376 7.46323c.9567.55199 2.1803.22415 2.7329-.73227l1.0007-1.73209L7.00681 0 6.00608 1.73209c-.53688.92925-.24283 2.10998.65182 2.68258L3.65609 9.6103c-.94345-.48806-2.11349-.15222-2.6502.7771L.00546028 12.1197 8.66897 17.12l1.00043-1.7322c.5524-.9565.22471-2.1796-.73195-2.7317l-.08256-.0477 3.00021-5.19277.0825.0476ZM0 21.0027c0-1.1046.895431-2 2-2h8.0048c1.1046 0 2 .8954 2 2v2.9985H0v-2.9985Zm11.5046-9.1318 11.495 6.6319L24 16.7713l-11.495-6.632-1.0004 1.7316Z" clip-rule="evenodd"/></svg>