<svg xmlns="http://www.w3.org/2000/svg" width="24" height="24" fill="none" viewBox="0 0 24 24"><path fill="#262626" fill-rule="evenodd" d="M14 22c0 1.1046-.8954 2-2 2-1.0544 0-1.9182-.8159-1.9945-1.8507L10 22h4Zm1-3v2H9v-2h6ZM12 0c4.4183 0 8 3.62649 8 8.1 0 1.70782-.522 3.2922-1.4133 4.5985l-.3921.5515c-.652.9521-1.5317 2.5354-2.639 4.75H8.44444l-.53296-1.053c-.85319-1.6601-1.55135-2.8871-2.09448-3.6809l-.21659-.3048C4.59551 11.6073 4 9.92409 4 8.1 4 3.62649 7.58172 0 12 0Zm0 2C8.69189 2 6 4.72554 6 8.1c0 1.24968.3686 2.4375 1.04492 3.4411l.41238.5807.26723.4032c.50514.7859 1.09452 1.83 1.77766 3.1437L9.673 16h4.654l.1734-.3342c.8129-1.5612 1.492-2.7412 2.0535-3.5594l.2427-.341C17.5736 10.7166 18 9.44406 18 8.1 18 4.72554 15.3081 2 12 2Z" clip-rule="evenodd"/></svg>