<svg xmlns="http://www.w3.org/2000/svg" width="24" height="24" fill="none" viewBox="0 0 24 24"><path fill="#262626" fill-rule="evenodd" d="M12 24c1.1046 0 2-.8954 2-2h-4l.0055.1493C10.0818 23.1841 10.9456 24 12 24Zm3-3v-2H9v2h6Zm5-12.9C20 3.62649 16.4183 0 12 0 7.58172 0 4 3.62649 4 8.1c0 1.82409.59551 3.5073 1.60041 4.8613l.21659.3048c.54313.7938 1.24129 2.0208 2.09448 3.6809L8.44444 18h7.11116c1.1073-2.2146 1.987-3.7979 2.639-4.75l.3921-.5515C19.478 11.3922 20 9.80782 20 8.1ZM15 8c1.1046 0 2-.89543 2-2s-.8954-2-2-2-2 .89543-2 2 .8954 2 2 2Z" clip-rule="evenodd"/></svg>