<svg xmlns="http://www.w3.org/2000/svg" width="24" height="24" fill="none" viewBox="0 0 24 24"><path fill="#262626" fill-rule="evenodd" d="M3.97185 8H0v15h5.95778v-1.3524L8.65177 22.72c.46483.185.96015.28 1.45993.28h8.7001c1.37 0 2.5633-.941 2.8919-2.2805l2.2079-9C24.3756 9.82813 22.9542 8 21.0197 8h-6.8173l1.0902-4.5288C15.5956 2.21241 14.6487 1 13.3625 1H11.265c-.594 0-1.1568.26774-1.534.72979L4.61176 8h-.63991Zm1.98593 1.50043v9.99667L9.38175 20.86c.23241.0925.48007.14.72995.14h8.7001c.4567 0 .8544-.3137.964-.7602l2.2079-9c.1546-.6304-.3192-1.2398-.964-1.2398h-9.3422l1.685-7H11.265L5.95778 9.50043ZM3.97185 20.8571V10H1.98593v11h1.98592v-.1429Z" clip-rule="evenodd"/></svg>