<svg xmlns="http://www.w3.org/2000/svg" width="24" height="24" fill="none" viewBox="0 0 24 24"><path fill="#262626" d="M21.7454 1.48842c-2.0157-1.984558-5.2774-1.984559-7.2932 0l-2.5769 2.53705c-.3935.38747-.3985 1.02062-.011 1.41417.3875.39356 1.0206.39849 1.4142.01102l2.5769-2.53706c1.2373-1.21814 3.2496-1.21813 4.4869.00001l.7363.72487c1.2285 1.2096 1.2285 3.1642 0 4.3738l-5.1539 5.07412c-1.2372 1.2181-3.2496 1.2181-4.4869 0l-.7362-.7249c-.3936-.3874-1.02673-.3825-1.41419.011-.38748.3936-.38254 1.0267.01101 1.4142l.73628.7249c2.0157 1.9845 5.2775 1.9845 7.2932 0l5.1538-5.07413c2.0244-1.99309 2.0244-5.23109 0-7.22418l-.7363-.72487Z"/><path fill="#262626" d="M2.25455 22.5116c2.01573 1.9845 5.2775 1.9845 7.29322 0l2.57693-2.5371c.3935-.3874.3985-1.0206.011-1.4141-.3875-.3936-1.0206-.3985-1.4142-.0111l-2.57688 2.5371c-1.23727 1.2181-3.24964 1.2181-4.48691 0l-.73626-.7249c-1.2286-1.2096-1.2286-3.1642 0-4.3738l5.1538-5.0741c1.23728-1.21814 3.24965-1.21813 4.48695 0l.7362.7249c.3936.3874 1.0267.3825 1.4142-.011.3875-.3936.3825-1.0267-.011-1.4142l-.7363-.72488c-2.0157-1.98456-5.27747-1.98456-7.2932-.00001L1.5183 14.5625c-2.024399 1.9931-2.024398 5.2311 0 7.2242l.73625.7249Z"/></svg>