<svg xmlns="http://www.w3.org/2000/svg" width="24" height="24" fill="none" viewBox="0 0 24 24"><path fill="#262626" d="M9.51472 15.906c2.34318 2.3441 6.14218 2.3441 8.48528 0l4.2426-4.2443c2.3432-2.34416 2.3432-6.14471 0-8.48882l-1.4142-1.4148c-2.3431-2.344107-6.1421-2.344107-8.4853 0l-1.0606 1.0611c-.7811.78137-.7811 2.04822 0 2.82959.781.78137 2.0474.78137 2.8284 0l1.0607-1.0611c.781-.78137 2.0474-.78137 2.8284 0l1.4142 1.4148c.7811.78137.7811 2.04822 0 2.82959l-4.2426 4.24434c-.7811.7814-2.0474.7814-2.8285 0l-.7071-.7074c-.781-.7813-2.04734-.7813-2.82839 0-.78105.7814-.78105 2.0483 0 2.8296l.70711.7074Z"/><path fill="#262626" d="M14.4853 8.09397C12.1421 5.74986 8.34315 5.74986 6 8.09396L1.75736 12.3384c-2.343146 2.3441-2.343147 6.1446 0 8.4887l1.41421 1.4148c2.34315 2.3441 6.14214 2.3441 8.48533 0l1.0606-1.0611c.7811-.7813.7811-2.0482 0-2.8296-.781-.7813-2.0474-.7813-2.82841 0l-1.06066 1.0611c-.78105.7814-2.04738.7814-2.82843 0l-1.41421-1.4148c-.78105-.7813-.78105-2.0482 0-2.8296l4.24264-4.2443c.78105-.7814 2.04737-.7814 2.82847 0l.7071.7074c.781.7813 2.0473.7813 2.8284 0 .781-.7814.781-2.04827 0-2.82964l-.7071-.70739Z"/></svg>