<svg xmlns="http://www.w3.org/2000/svg" width="24" height="24" fill="none" viewBox="0 0 24 24"><path fill="#262626" fill-rule="evenodd" d="M12 0c2.7614 0 5 2.23858 5 5v3h1c1.1046 0 2 .89543 2 2v12c0 1.1046-.8954 2-2 2H6c-1.10457 0-2-.8954-2-2V10c0-1.10457.89543-2 2-2h1V5c0-2.76142 2.23858-5 5-5Zm0 13c1.1046 0 2 .8954 2 2 0 .7398-.4017 1.3858-.9989 1.7318L13 20h-2l-.0001-3.2676C10.4022 16.3866 10 15.7403 10 15c0-1.1046.8954-2 2-2Zm0-11c-1.5977 0-2.90366 1.24892-2.99491 2.82373L9 5v3h6V5c0-1.59768-1.2489-2.90366-2.8237-2.99491L12 2Z" clip-rule="evenodd"/></svg>