<svg xmlns="http://www.w3.org/2000/svg" width="24" height="24" fill="none" viewBox="0 0 24 24"><path fill="#262626" fill-rule="evenodd" d="M4 3c-.55228 0-1 .44772-1 1H1c0-1.65685 1.34315-3 3-3s3 1.34315 3 3H5c0-.55228-.44771-1-1-1Zm0 18c-.55228 0-1-.4477-1-1H1c0 1.6569 1.34315 3 3 3s3-1.3431 3-3H5c0 .5523-.44771 1-1 1Zm7-17c0-.55228.4477-1 1-1s1 .44772 1 1h2c0-1.65685-1.3431-3-3-3S9 2.34315 9 4h2Zm1 17c-.5523 0-1-.4477-1-1H9c0 1.6569 1.3431 3 3 3s3-1.3431 3-3h-2c0 .5523-.4477 1-1 1Zm7-17c0-.55228.4477-1 1-1s1 .44772 1 1h2c0-1.65685-1.3431-3-3-3s-3 1.34315-3 3h2Zm1 17c-.5523 0-1-.4477-1-1h-2c0 1.6569 1.3431 3 3 3s3-1.3431 3-3h-2c0 .5523-.4477 1-1 1ZM2 16V8h20v8H2ZM0 7c0-.55229.447715-1 1-1h22c.5523 0 1 .44772 1 1v10c0 .5523-.4477 1-1 1H1c-.552284 0-1-.4477-1-1V7Z" clip-rule="evenodd"/></svg>