<svg xmlns="http://www.w3.org/2000/svg" width="24" height="24" fill="none" viewBox="0 0 24 24"><path fill="#262626" fill-rule="evenodd" d="M6.29999 4 17.5 0l1.2 4H6.29999ZM2 6h18c1.1046 0 2 .89543 2 2v2h-6c-2.7614 0-5 2.2386-5 5s2.2386 5 5 5h6v2c0 1.1046-.8954 2-2 2H2c-1.10457 0-2-.8954-2-2V8c0-1.10457.895431-2 2-2Zm11 9c0-1.6569 1.3431-3 3-3h7c.5523 0 1 .4477 1 1v4c0 .5523-.4477 1-1 1h-7c-1.6569 0-3-1.3431-3-3Zm4.2 0c0 .5523-.4477 1-1 1s-1-.4477-1-1 .4477-1 1-1 1 .4477 1 1Z" clip-rule="evenodd"/></svg>