<svg xmlns="http://www.w3.org/2000/svg" width="24" height="24" fill="none" viewBox="0 0 24 24"><path fill="#262626" fill-rule="evenodd" d="M4.625 6H3C1.34315 6 0 7.34315 0 9v12c0 1.6569 1.34315 3 3 3h16c1.6569 0 3-1.3431 3-3v-2c1.1046 0 2-.8954 2-2v-4c0-1.1046-.8954-2-2-2V9c0-1.57131-1.208-2.86047-2.746-2.9894L17 0 4.625 6Zm4.58428 0H17.114l-1.2161-3.24296L9.20928 6ZM19 8H3c-.55228 0-1 .44772-1 1v12c0 .5523.44772 1 1 1h16c.5523 0 1-.4477 1-1v-2h-4c-2.2091 0-4-1.7909-4-4 0-2.2091 1.7909-4 4-4h4V9c0-.55228-.4477-1-1-1Zm-5 7c0-1.1046.8954-2 2-2h6v4h-6c-1.1046 0-2-.8954-2-2Zm3 0c0 .5523-.4477 1-1 1s-1-.4477-1-1 .4477-1 1-1 1 .4477 1 1Z" clip-rule="evenodd"/></svg>