<svg xmlns="http://www.w3.org/2000/svg" width="24" height="24" fill="none" viewBox="0 0 24 24"><path fill="#262626" fill-rule="evenodd" d="M20.0225 11h.4364c.3316 0 .6348-.1873.7831-.4839L24 5h-3.5778c-1.5794 0-3.1235.4675-4.4376 1.3436L15 7h-2l-.1056-.21115C12.3463 5.69253 11.2257 5 10 5l1-3H8.91548c-1.25339 0-2.48322.34064-3.55799.9855C3.27451 4.23529 2 6.48633 2 8.91548v1.12962c0 .5274.42752.9549.9549.9549h.96234c.21739 0 .43123.0133.64082.0392l-.35131.9661C4.13828 12.0018 4.06934 12 4 12c-2.20914 0-4 1.7909-4 4 0 2.2091 1.79086 4 4 4s4-1.7909 4-4c0-1.4319-.75236-2.688-1.88332-3.3947l.34104-.9379C8.26493 12.6941 9.37059 14.7765 9 17H16.126c.4441 1.7252 2.0102 3 3.874 3 2.2091 0 4-1.7909 4-4 0-2.2091-1.7909-4-4-4-1.8638 0-3.4299 1.2748-3.874 3h-1.0875c.4987-2.255 2.5088-4 4.984-4ZM3.45395 14.0755l-.39374 1.0828c-.18874.519.07901 1.0928.59805 1.2815.51903.1887 1.09279-.079 1.28153-.5981l.46141-1.2688C5.77077 14.9358 6 15.4411 6 16c0 1.1046-.89543 2-2 2s-2-.8954-2-2c0-.9153.6148-1.6869 1.45395-1.9245ZM20 18c-.7403 0-1.3866-.4022-1.7324-1H20c.5523 0 1-.4477 1-1s-.4477-1-1-1h-1.7324c.3458-.5978.9921-1 1.7324-1 1.1046 0 2 .8954 2 2s-.8954 2-2 2Z" clip-rule="evenodd"/></svg>