<svg xmlns="http://www.w3.org/2000/svg" width="24" height="24" fill="none" viewBox="0 0 24 24"><path fill="#262626" fill-rule="evenodd" d="m8.91548 2-.02368.00004c-1.24519.00426-2.4663.34466-3.53431.98546C3.27451 4.23529 2 6.48633 2 8.91548v1.12962c0 .5274.42752.9549.9549.9549h1.08161c.17787 0 .35331.0091.52594.0268l-.35579.9784C4.13822 12.0018 4.06931 12 4 12c-2.20914 0-4 1.7909-4 4 0 2.2091 1.79086 4 4 4s4-1.7909 4-4c0-1.4319-.75239-2.6881-1.8834-3.3947l.35675-.9811c1.80358.9955 2.91324 3.0562 2.54626 5.2582-.01027.0615.03723.1176.09966.1176H16.126c.4441 1.7252 2.0102 3 3.874 3 2.2091 0 4-1.7909 4-4 0-2.2091-1.7909-4-4-4-1.8638 0-3.4299 1.2748-3.874 3h-1.0875c.4987-2.255 2.5088-4 4.984-4h.4364c.3316 0 .6348-.1873.7831-.4839L24 5h-3.5778c-1.5794 0-3.1235.4675-4.4376 1.3436L15 7h-2l-.1056-.21115c-.2366-.47325-.5799-.87125-.9922-1.17079C11.3593 5.22369 10.6966 5 10 5l1-3H8.91548ZM3.45385 14.0755l-.39374 1.0828c-.18874.519.07902 1.0928.59805 1.2815.51904.1887 1.0928-.079 1.28154-.5981l.46143-1.2689C5.77074 14.9357 6 15.4411 6 16c0 1.1046-.89543 2-2 2s-2-.8954-2-2c0-.9152.61475-1.6869 1.45385-1.9245ZM20 18c-.7403 0-1.3866-.4022-1.7324-1H20c.5523 0 1-.4477 1-1s-.4477-1-1-1h-1.7324c.3458-.5978.9921-1 1.7324-1 1.1046 0 2 .8954 2 2s-.8954 2-2 2ZM6.38648 4.70049c.56022-.33613 1.17971-.55598 1.82161-.64933L7.22515 7H10c.4682 0 .8962.26452 1.1056.68328L11.7639 9h3.8417l1.4884-.9923C18.0796 7.35063 19.2377 7 20.4222 7h.3417l-1.0023 2.00466C16.2814 9.12924 13.5133 11.736 13.0032 15h-1.9904c-.5012-3.3415-3.38444-6-6.97629-6H4v-.08452c0-1.72663.90592-3.32665 2.38648-4.21499Z" clip-rule="evenodd"/></svg>