<svg xmlns="http://www.w3.org/2000/svg" width="24" height="24" fill="none" viewBox="0 0 24 24"><path fill="#262626" fill-rule="evenodd" d="M23.7071 1.70711c.3905-.39053.3905-1.023693 0-1.414217-.3905-.3905241-1.0237-.3905241-1.4142 0L.292893 22.2929c-.3905241.3905-.3905241 1.0237 0 1.4142.390524.3905 1.023687.3905 1.414217 0L23.7071 1.70711ZM13.1818 6.57556V2.9091c0-.35274-.2041-.67364-.5235-.82326-.3194-.14962-.6966-.10094-.9676.12488l-6.5653 5.4711H.90909C.407013 7.68182 2e-8 8.08884 2e-8 8.59091v6.81819c0 .5021.40701298.9091.90908998.9091h2.53009L5.25736 14.5H1.81818v-5h3.63636c.21267 0 .41861-.07456.58198-.2107l5.32708-4.43925v3.54369l1.8182-1.81818Zm0 8.48524-1.8182 1.8182v2.271l-1.2387-1.0323-1.29092 1.291 2.85672 2.3806c.271.2258.6482.2745.9676.1249.3194-.1497.5235-.4706.5235-.8233v-6.0301Zm4.8581-4.8581c.2763.5512.424 1.1642.424 1.7923 0 1.0607-.4212 2.0779-1.1711 2.828-.3905.3906-.3904 1.0237.0002 1.4142.3906.3905 1.0237.3904 1.4142-.0002 1.1248-1.1252 1.7567-2.651 1.7567-4.242 0-1.164-.3382-2.29314-.9603-3.256l-1.4637 1.4637Z" clip-rule="evenodd"/></svg>