<svg xmlns="http://www.w3.org/2000/svg" width="24" height="24" fill="none" viewBox="0 0 24 24"><path fill="#262626" fill-rule="evenodd" d="M19.6243 4.32182C18.6354 3.86748 18 2.87823 18 1.78778V0h-2v1.78778c0 1.89247 1.1145 3.60743 2.8439 4.37603l.0005-.00126c.989.45434 1.6244 1.44359 1.6244 2.53404V11h2V8.69659c0-1.89246-1.1145-3.60742-2.8439-4.37603l-.0006.00126ZM15.3846 13 18 10.3846 16.6154 9 11 14.6154 5.38462 9 4 10.3846 6.61539 13H0v6h6.61539L4 21.6154 5.38462 23 11 17.3846 16.6154 23 18 21.6154 15.3846 19H20v-6h-4.6154ZM24 15c0-1.1046-.8954-2-2-2v6c1.1046 0 2-.8954 2-2v-2Z" clip-rule="evenodd"/></svg>