<svg xmlns="http://www.w3.org/2000/svg" width="24" height="24" fill="none" viewBox="0 0 24 24"><path fill="#262626" fill-rule="evenodd" d="M18 1.78778c0 1.09045.6354 2.0797 1.6243 2.53404l.0006-.00126c1.7294.76861 2.8439 2.48357 2.8439 4.37603V11h-2V8.69659c0-1.09045-.6354-2.0797-1.6244-2.53404l-.0005.00126C17.1145 5.39521 16 3.68025 16 1.78778V0h2v1.78778ZM15.3846 13 18 10.3846 16.6154 9 11 14.6154 5.38462 9 4 10.3846 6.61539 13H0v6h6.61539L4 21.6154 5.38462 23 11 17.3846 16.6154 23 18 21.6154 15.3846 19H22c1.1046 0 2-.8954 2-2v-2c0-1.1046-.8954-2-2-2h-6.6154Zm-2 2-1 1 1 1H19v-2h-5.6154ZM22 17h-1v-2h1v2ZM8.61539 17l1-1-1-1H2v2h6.61539Z" clip-rule="evenodd"/></svg>