<svg xmlns="http://www.w3.org/2000/svg" width="25" height="24" fill="none" viewBox="0 0 25 24"><path fill="#262626" fill-rule="evenodd" d="m23.0271 1.01095.0327.03384c1.2688 1.31169 1.2806 3.36226.1459 4.74175L14.1812 16.7559l-7.22075 3.264 1.87887-7.7438 7.63278-9.27842.0025-.00301 1.4116-1.71506.1532-.17074.0302-.03092c1.2443-1.27169 3.3152-1.486719 4.7555-.254002l.0357.030571.1663.156431Zm-1.4048 1.42437c.5199.53744.5661 1.43912.0388 2.08065L12.9327 15.1254l-3.06256 1.3844.80476-3.3169 8.7284-10.6094.0958-.10683c.5711-.58364 1.452-.62412 2.0255-.13329l.0977.09194ZM2 1.99999h12.7037l-1.6454 2H4V22h16v-9.1689l2-2.431V24H2V1.99999Z" clip-rule="evenodd"/></svg>