<svg xmlns="http://www.w3.org/2000/svg" width="24" height="24" fill="none" viewBox="0 0 24 24"><path fill="#262626" fill-rule="evenodd" d="M24 12c0 6.6274-5.3726 12-12 12-6.62742 0-12-5.3726-12-12C0 5.37258 5.37258 0 12 0c2.1857 0 4.235.584366 6 1.60539V2h-2v4h2v2h4V6h.3946C23.4156 7.76504 24 9.81428 24 12Zm-9.4999-4c-.8284 0-1.5.67157-1.5 1.5 0 .8284.6716 1.5 1.5 1.5s1.5-.6716 1.5-1.5c0-.82843-.6716-1.5-1.5-1.5Zm2.4495 4c.6483-.6353 1.0505-1.5207 1.0505-2.5 0-1.933-1.567-3.5-3.5-3.5s-3.5 1.567-3.5 3.5c0 .9793.4022 1.8647 1.0505 2.5-.6483.6353-1.0505 1.5207-1.0505 2.5 0 1.933 1.567 3.5 3.5 3.5s3.5-1.567 3.5-3.5c0-.9793-.4022-1.8647-1.0505-2.5Zm-2.4495 1c-.8284 0-1.5.6716-1.5 1.5s.6716 1.5 1.5 1.5 1.5-.6716 1.5-1.5-.6716-1.5-1.5-1.5ZM8.47196 6.61833c.32516.17402.52815.51288.52815.88167V17c0 .5523-.44772 1-1 1-.55229 0-1-.4477-1-1V9.36607c-.45298.26209-1.0377.13016-1.33205-.31137-.30636-.45953-.18218-1.0804.27735-1.38675l1.5-1c.30685-.20457.7014-.22364 1.02655-.04962ZM19 5v2h2V5h2V3h-2V1h-2v2h-2v2h2Z" clip-rule="evenodd"/></svg>