<svg xmlns="http://www.w3.org/2000/svg" width="24" height="24" fill="none" viewBox="0 0 24 24"><path fill="#262626" fill-rule="evenodd" d="M2 12C2 6.47715 6.47715 2 12 2c.9471 0 1.8619.13139 2.7278.37632l.5444-1.924507C14.2308.157283 13.1329 0 12 0 5.37258 0 0 5.37258 0 12c0 6.6274 5.37258 12 12 12 6.6274 0 12-5.3726 12-12 0-1.0344-.1311-2.03956-.3781-2.99926l-1.9369.49852C21.8905 10.2975 22 11.1352 22 12c0 5.5228-4.4772 10-10 10-5.52285 0-10-4.4772-10-10Zm7-4.5c0-.3688-.20298-.70766-.52814-.88167-.32516-.17402-.7197-.15495-1.02656.04962l-1.5 1c-.45953.30635-.5837.92722-.27735 1.38675.29436.44153.87908.57346 1.33205.31137V17c0 .5523.44772 1 1 1 .55229 0 1-.4477 1-1V7.5Zm5.5.5c-.8284 0-1.5.67157-1.5 1.5 0 .8284.6716 1.5 1.5 1.5s1.5-.6716 1.5-1.5c0-.82843-.6716-1.5-1.5-1.5Zm2.4495 4C17.5978 11.3647 18 10.4793 18 9.5 18 7.567 16.433 6 14.5 6S11 7.567 11 9.5c0 .9793.4022 1.8647 1.0505 2.5C11.4022 12.6353 11 13.5207 11 14.5c0 1.933 1.567 3.5 3.5 3.5s3.5-1.567 3.5-3.5c0-.9793-.4022-1.8647-1.0505-2.5ZM14.5 13c-.8284 0-1.5.6716-1.5 1.5s.6716 1.5 1.5 1.5 1.5-.6716 1.5-1.5-.6716-1.5-1.5-1.5ZM19 5h-2V3h2V1h2v2h2v2h-2v2h-2V5Z" clip-rule="evenodd"/></svg>