<svg xmlns="http://www.w3.org/2000/svg" width="24" height="24" fill="none" viewBox="0 0 24 24"><path fill="#262626" fill-rule="evenodd" d="M20 2H4c-1.10457 0-2 .89543-2 2v16c0 1.1046.89543 2 2 2h16c1.1046 0 2-.8954 2-2V4c0-1.10457-.8954-2-2-2ZM4 0C1.79086 0 0 1.79086 0 4v16c0 2.2091 1.79086 4 4 4h16c2.2091 0 4-1.7909 4-4V4c0-2.20914-1.7909-4-4-4H4Zm5 7v5h4.5c1.3807 0 2.5-1.1193 2.5-2.5C16 8.11929 14.8807 7 13.5 7H9Zm0 7h4.5c2.4853 0 4.5-2.0147 4.5-4.5C18 7.01472 15.9853 5 13.5 5H7v14h2v-5Z" clip-rule="evenodd"/></svg>