<svg xmlns="http://www.w3.org/2000/svg" width="24" height="24" fill="none" viewBox="0 0 24 24"><path fill="#262626" fill-rule="evenodd" d="M13 15.9381c3.9463-.4921 7-3.8585 7-7.9381 0-4.41828-3.5817-8-8-8-4.41828 0-8 3.58172-8 8 0 4.0796 3.05369 7.446 7 7.9381v8.049c-.0003-.1105-.0087-.9209-.1818-1.9911-.2416-1.4938-.8042-3.4937-2.11386-4.8033-1.29869-1.2987-3.2435-1.8301-4.70431-2.0463-.42032-.0622-.80058-.0983-1.11384-.1191-.54315-.0361-.8849-.026-.8849-.026s-.01005.3417.02598.8849c.02078.3133.05689.6935.1191 1.1138.2162 1.4608.74761 3.4057 2.0463 4.7043 1.30963 1.3097 3.30954 1.8723 4.80328 2.1139C10.1487 24.0047 11 24 11 24h2s.8513.0047 2.004-.1818c1.4938-.2416 3.4937-.8042 4.8033-2.1139 1.2987-1.2986 1.8301-3.2435 2.0463-4.7043.0622-.4203.0983-.8005.1191-1.1138.0361-.5432.026-.8849.026-.8849s-.3417-.0101-.8849.026c-.3133.0208-.6935.0569-1.1138.1191-1.4608.2162-3.4057.7476-4.7043 2.0463-1.3097 1.3096-1.8723 3.3095-2.1139 4.8033-.1731 1.0702-.1815 1.8806-.1818 1.9911v-8.049ZM9.375 12.5V4h3.136c.504 0 .8227.05133 1.2614.154.4386.09333.8213.25667 1.148.49.3266.224.5833.52733.77.91.196.37333.294.83533.294 1.386 0 .532-.098.994-.294 1.386-.1867.392-.4434.714-.77.966-.3267.252-.7047.43867-1.134.56-.4294.12133-.7341.182-1.2194.182h-1.192V12.5h-2Zm2-4.104h1.066c1.12 0 1.68-.48533 1.68-1.456 0-.476-.1493-.812-.448-1.008-.2987-.196-.728-.294-1.288-.294h-1.01v2.758Z" clip-rule="evenodd"/></svg>