<svg xmlns="http://www.w3.org/2000/svg" width="24" height="24" fill="none" viewBox="0 0 24 24"><path fill="#262626" fill-rule="evenodd" d="m14.8231 2.27914-1.1791.19652c-1.0885.18141-2.1995.18141-3.288 0l-1.17909-.19652 1.02359 2.93425C10.8135 5.07369 11.451 5 12.105 5c.5682 0 1.1243.05569 1.6627.16207l1.0554-2.88293Zm.7688 3.46325 1.7481-4.3704c.2896-.723871-.3238-1.485954-1.0928-1.3577828l-2.932.4886608c-.8708.145131-1.7596.145131-2.6304 0L7.75286.0142072C6.98384-.113964 6.37044.64812 6.65999 1.37199L8.4408 5.82403C5.69277 7.13072 3.74401 9.86374 3.57401 13.0938l-.26012 4.9422C2.50685 18.7679 2 19.8247 2 21c0 1.6569 1.34315 3 3 3h14.152c.2962 0 .5776-.0591.8338-.1657C21.1584 23.4265 22 22.3115 22 21c0-.9816-.3536-1.8806-.9403-2.5766l-.4383-5.5529c-.2534-3.20854-2.2572-5.88707-5.0295-7.12811ZM9 20V9.568h3.084c.576 0 1.1147.05867 1.616.176.4421.09406.6571.25031.9577.4688.0403.0293.0822.0597.1263.0912.3733.256.6667.6027.88 1.04.224.4267.336.9547.336 1.584 0 .608-.112 1.136-.336 1.584-.2133.448-.5067.816-.88 1.104-.0621.0479-.1194.0937-.1742.1374h-.0001c-.2748.2195-.4846.387-.8937.5026-.4907.1387-1.0133.208-1.568.208H11V20H9Zm2-5.408h1.004c1.28 0 1.92-.5547 1.92-1.664 0-.544-.1707-.928-.512-1.152-.3413-.224-.832-.336-1.472-.336H11v3.152Zm-6.34262 4.9256.61044-.5535.04331-.8229.26012-4.9423C5.75414 9.72388 8.62516 7 12.105 7c3.4138 0 6.2539 2.62468 6.5226 6.0279l.4383 5.5529.0506.6405.4141.4912c.294.3488.4694.7951.4694 1.2875 0 .4341-.2777.8084-.6712.9453l-.0565.0196-.0553.0231c-.0166.0069-.0371.012-.065.012H5c-.55228 0-1-.4477-1-1 0-.5875.25078-1.1137.65738-1.4824Z" clip-rule="evenodd"/></svg>