<svg xmlns="http://www.w3.org/2000/svg" width="24" height="24" fill="none" viewBox="0 0 24 24"><path fill="#262626" fill-rule="evenodd" d="M17.34 1.37199c.2896-.723871-.3238-1.485954-1.0928-1.3577828l-2.932.4886608c-.8708.145131-1.7596.145131-2.6304 0L7.75286.0142072C6.98384-.113964 6.37044.64812 6.65999 1.37199L7.78083 4.1741C9.05144 3.4271 10.5305 3 12.105 3c1.5029 0 2.9207.38961 4.1533 1.07643L17.34 1.37199ZM12.105 5c-4.54356 0-8.29219 3.55652-8.53099 8.0938l-.26012 4.9422C2.50685 18.7679 2 19.8247 2 21c0 1.6569 1.34315 3 3 3h14.152c.2962 0 .5776-.0591.8338-.1657C21.1584 23.4265 22 22.3115 22 21c0-.9816-.3536-1.8806-.9403-2.5766l-.4383-5.5529C20.2706 8.42698 16.5624 5 12.105 5ZM9 20V9.568h3.084c.576 0 1.1147.05867 1.616.176.4421.09406.6571.25031.9577.4688.0403.0293.0822.0597.1263.0912.3733.256.6667.6027.88 1.04.224.4267.336.9547.336 1.584 0 .608-.112 1.136-.336 1.584-.2133.448-.5067.816-.88 1.104-.0621.0479-.1195.0937-.1743.1375-.2748.2194-.4846.3869-.8937.5025-.4907.1387-1.0133.208-1.568.208H11V20H9Zm2-5.408h1.004c1.28 0 1.92-.5547 1.92-1.664 0-.544-.1707-.928-.512-1.152-.3413-.224-.832-.336-1.472-.336H11v3.152Z" clip-rule="evenodd"/></svg>