<svg xmlns="http://www.w3.org/2000/svg" width="24" height="24" fill="none" viewBox="0 0 24 24"><path fill="#262626" fill-rule="evenodd" d="M12 14c3.3137 0 6-2.6863 6-6 0-3.31371-2.6863-6-6-6-3.31371 0-6 2.68629-6 6 0 3.3137 2.68629 6 6 6Zm8-6c0 4.0796-3.0537 7.446-7 7.9381v8.049c.0003-.1105.0087-.9209.1818-1.9911.2416-1.4938.8042-3.4937 2.1139-4.8033 1.2986-1.2987 3.2435-1.8301 4.7043-2.0463.4203-.0622.8005-.0983 1.1138-.1191.5432-.0361.8849-.026.8849-.026s.0101.3417-.026.8849c-.0208.3133-.0569.6935-.1191 1.1138-.2162 1.4608-.7476 3.4057-2.0463 4.7043-1.3096 1.3097-3.3095 1.8723-4.8033 2.1139C13.8513 24.0047 13 24 13 24h-2s-.8513.0047-2.00405-.1818c-1.49374-.2416-3.49365-.8042-4.80328-2.1139-1.29869-1.2986-1.8301-3.2435-2.0463-4.7043-.06221-.4203-.09832-.8005-.1191-1.1138-.03603-.5432-.02598-.8849-.02598-.8849s.34175-.0101.8849.026c.31326.0208.69352.0569 1.11384.1191 1.46081.2162 3.40562.7476 4.70431 2.0463 1.30966 1.3096 1.87226 3.3095 2.11386 4.8033.1731 1.0702.1815 1.8806.1818 1.9911v-8.049C7.05369 15.446 4 12.0796 4 8c0-4.41828 3.58172-8 8-8 4.4183 0 8 3.58172 8 8ZM7.29013 18.6069c.71692.7169 1.1826 1.8924 1.44553 3.1288-1.23637-.263-2.41186-.7287-3.12877-1.4456-.71591-.7159-1.15978-1.8707-1.3958-3.079 1.20831.236 2.36313.6799 3.07904 1.3958Zm7.97417 3.1288c.263-1.2364.7287-2.4119 1.4456-3.1288.7159-.7159 1.8707-1.1598 3.079-1.3958-.236 1.2083-.6799 2.3631-1.3958 3.079-.7169.7169-1.8924 1.1826-3.1288 1.4456ZM9.375 4v8.5h2v-2.466h1.192c.4853 0 .79-.06067 1.2194-.182.4293-.12133.8073-.308 1.134-.56.3266-.252.5833-.574.77-.966.196-.392.294-.854.294-1.386 0-.55067-.098-1.01267-.294-1.386-.1867-.38267-.4434-.686-.77-.91-.3267-.23333-.7094-.39667-1.148-.49C13.3337 4.05133 13.015 4 12.511 4H9.375Zm3.066 4.396h-1.066V5.638h1.01c.56 0 .9893.098 1.288.294.2987.196.448.532.448 1.008 0 .97067-.56 1.456-1.68 1.456Z" clip-rule="evenodd"/></svg>