<svg xmlns="http://www.w3.org/2000/svg" width="24" height="24" fill="none" viewBox="0 0 24 24"><path fill="#262626" fill-rule="evenodd" d="M3 12c0-4.97056 4.02944-9 9-9 4.9706 0 9 4.02944 9 9 0 2.7218-1.2082 5.1615-3.1176 6.8118C17.331 16.0672 14.9069 14 12 14c-2.90691 0-5.331 2.0672-5.88236 4.8118C4.20824 17.1615 3 14.7218 3 12Zm5 8.0645c1.20496.5988 2.5632.9355 4 .9355 1.4368 0 2.795-.3367 4-.9355V20c0-2.2091-1.7909-4-4-4-2.20914 0-4 1.7909-4 4v.0645ZM12 1C5.92487 1 1 5.92487 1 12c0 6.0751 4.92487 11 11 11 6.0751 0 11-4.9249 11-11 0-6.07513-4.9249-11-11-11Zm0 10c-1.1046 0-2-.8954-2-2 0-1.10457.8954-2 2-2s2 .89543 2 2c0 1.1046-.8954 2-2 2ZM8 9c0 2.2091 1.79086 4 4 4 2.2091 0 4-1.7909 4-4 0-2.20914-1.7909-4-4-4-2.20914 0-4 1.79086-4 4Z" clip-rule="evenodd"/></svg>