<svg xmlns="http://www.w3.org/2000/svg" width="24" height="24" fill="none" viewBox="0 0 24 24"><path fill="#262626" fill-rule="evenodd" d="M14 3c0-1.10457.8954-2 2-2h5c1.1046 0 2 .89543 2 2v4c0 1.10457-.8954 2-2 2h-3.7639L14 10.618V3Zm7 0h-5v4l.0001.0082L16 7.38196 16.7639 7H21V3ZM7.5 7C6.11929 7 5 8.11929 5 9.5 5 10.8807 6.11929 12 7.5 12S10 10.8807 10 9.5C10 8.11929 8.88071 7 7.5 7ZM3 9.5C3 7.01472 5.01472 5 7.5 5S12 7.01472 12 9.5c0 2.4853-2.01472 4.5-4.5 4.5S3 11.9853 3 9.5Zm0 12C3 19.0147 5.01472 17 7.5 17s4.5 2.0147 4.5 4.5v.5h2v-.5c0-3.5899-2.9101-6.5-6.5-6.5C3.91015 15 1 17.9101 1 21.5v.5h2v-.5Z" clip-rule="evenodd"/></svg>