<svg xmlns="http://www.w3.org/2000/svg" width="24" height="24" fill="none" viewBox="0 0 24 24"><path fill="#262626" fill-rule="evenodd" d="M12 23c6.0751 0 11-4.9249 11-11 0-6.07513-4.9249-11-11-11C5.92487 1 1 5.92487 1 12c0 6.0751 4.92487 11 11 11Zm3-14c0-1.65685-1.3431-3-3-3S9 7.34315 9 9c0 1.6569 1.3431 3 3 3s3-1.3431 3-3Zm-8.88236 9.8118C6.669 16.0672 9.09309 14 12 14c2.9069 0 5.331 2.0672 5.8824 4.8118C16.3048 20.1753 14.2487 21 12 21c-2.24873 0-4.30484-.8247-5.88236-2.1882Z" clip-rule="evenodd"/></svg>