<svg xmlns="http://www.w3.org/2000/svg" width="24" height="24" fill="none" viewBox="0 0 24 24"><path fill="#262626" fill-rule="evenodd" d="M22 5H2v14h5.45455L14 10l6.5455 9H22V5Zm-1.9638 16H2c-1.10457 0-2-.8954-2-2V5c0-1.10457.895431-2 2-2h20c1.1046 0 2 .89543 2 2v14c0 1.1046-.8954 2-2 2h-1.9638Zm-1.9637-2L14 13.4004 9.92754 19h8.14496ZM7.5 12c.82843 0 1.5-.6716 1.5-1.5C9 9.67157 8.32843 9 7.5 9S6 9.67157 6 10.5c0 .8284.67157 1.5 1.5 1.5Zm0 2c1.933 0 3.5-1.567 3.5-3.5S9.433 7 7.5 7 4 8.567 4 10.5 5.567 14 7.5 14Z" clip-rule="evenodd"/></svg>