<svg xmlns="http://www.w3.org/2000/svg" width="24" height="24" fill="none" viewBox="0 0 24 24"><path fill="#262626" fill-rule="evenodd" d="M7.24622 13.437C4.25896 9.59623 6.99599 4 11.8617 4c4.8657 0 7.6027 5.59623 4.6155 9.437l-4.6155 5.9342-4.61548-5.9342ZM11.8617 2C5.33169 2 1.65848 9.5104 5.66752 14.6649l6.19418 7.9639 6.1942-7.9639C22.0649 9.51039 18.3917 2 11.8617 2Zm-2.00001 8c0-1.10457.89541-2 2.00001-2s2 .89543 2 2c0 1.1046-.8954 2-2 2s-2.00001-.8954-2.00001-2Zm2.00001-4c-2.20914 0-4.00001 1.79086-4.00001 4 0 2.2091 1.79087 4 4.00001 4 2.2091 0 4-1.7909 4-4 0-2.20914-1.7909-4-4-4Z" clip-rule="evenodd"/></svg>