<svg xmlns="http://www.w3.org/2000/svg" width="24" height="25" fill="none" viewBox="0 0 24 25"><path fill="#262626" fill-rule="evenodd" d="M15 16c3.866 0 7 3.134 7 7 0 .3399-.0242.6741-.071 1.001l-2.0293.0002C19.9655 23.6777 20 23.3429 20 23c0-2.7614-2.2386-5-5-5-1.9552 0-3.6483 1.1223-4.4703 2.7578.8065.8672 1.3356 1.9948 1.4479 3.2426L9.96456 24C9.72197 22.3039 8.26325 21 6.5 21s-3.22197 1.3039-3.46456 3l-2.01305.0004C1.27482 21.197 3.63084 19 6.5 19c.86293 0 1.67945.1987 2.40628.5529C10.1085 17.4316 12.3871 16 15 16ZM5.49348.301235 13.208 5.13345l4.81-1.39697c1.8689-.54301 3.9123.05844 5.3782 1.58304.7423.77201.8094 2.02976.15 2.80927-.215.25413-.4913.43559-.7998.52523L8.51231 12.7898c-1.83782.534-3.76359.0232-5.23546-1.2212l-2.11564.6137-.548372-1.9378 1.234792-.35802c-.07834-.12945-.15308-.26229-.22401-.39839L0 5.82603l2.51275-.73009c.5773-.16774 1.20803-.00057 1.68081.44548l2.36821 1.52374.28295-.08314-5.04794-5.56895L3.32232.353247c.64973-.4513775 1.50111-.471773 2.17116-.052012Zm.33459 2.578985L10.994 8.626l-2.0803.62676-.56495-.61066-2.09836.61066-3.2782-2.10924-.06829-.06456-.14821.04306.64999 1.46683.08518.15473c.11377.19714.23826.38279.37195.55633l1.53099-.44452.54837 1.93781-.01834.0066c.6063.1998 1.24348.2403 1.85782.0995l.18229-.0473L21.9988 6.77365l-.009-.02059-.0186-.02677c-.9129-.94945-2.1152-1.34116-3.2123-1.10097l-.1925.04896L13 7.32605 5.82807 2.88022Z" clip-rule="evenodd"/></svg>