<svg xmlns="http://www.w3.org/2000/svg" width="24" height="24" fill="none" viewBox="0 0 24 24"><path fill="#262626" fill-rule="evenodd" d="M9.45029 10.1268c-.00937.0063-.00788.0043.00391-.0026l-.00391.0026ZM6 4.66667C6 6.7546 7.63481 10.0686 8.9844 11.4088c-1.86424 1.6009-2.98439 3.9597-2.98439 6.4967v2.006C3.92385 20.3507 2.01815 21.7135 1 24h13c-1.18-2.6499-3.552-4.0592-5.99999-4.2279v-1.8666c0-2 .90833-3.8556 2.41129-5.0831C11.6085 14.2035 15.1446 16 17.3333 16 20 16 22 14.2091 22 12c0-2.20914-1.7211-4-4.6667-4-1.4526 0-3.4986.79128-5.0606 1.72728C13.2087 8.16533 14 6.11927 14 4.66667 14 1.72115 12.2091 0 10 0 7.79086 0 6 2 6 4.66667Z" clip-rule="evenodd"/></svg>