<svg xmlns="http://www.w3.org/2000/svg" width="24" height="24" fill="none" viewBox="0 0 24 24"><path fill="#262626" fill-rule="evenodd" d="M5.49348.301235 13.208 5.13345l4.81-1.39697c1.8689-.54301 3.9123.05844 5.3782 1.58304.7423.77201.8094 2.02976.15 2.80927-.215.25413-.4913.43559-.7998.52523L8.51231 12.7898c-1.83782.534-3.76359.0232-5.23546-1.2212l-2.11564.6137-.548372-1.9378 1.234792-.35802c-.07834-.12945-.15308-.26229-.22401-.39839L0 5.82603l2.51275-.73009c.5773-.16774 1.20803-.00057 1.68081.44548l2.36821 1.52374.28295-.08314-5.04794-5.56895L3.32232.353247c.64973-.4513775 1.50111-.471773 2.17116-.052012ZM21.9291 24c.0467-.3266.0709-.6605.0709-1 0-3.866-3.134-7-7-7-1.8808 0-3.5884.7418-4.8461 1.9487 2.1577 1.206 3.6583 3.4471 3.8297 6.0513h7.9455Zm-20.929 0h11c-.2537-2.8032-2.61925-5-5.50001-5-2.88076 0-5.24634 2.1968-5.49999 5Z" clip-rule="evenodd"/></svg>