<svg xmlns="http://www.w3.org/2000/svg" width="24" height="24" fill="none" viewBox="0 0 24 24"><path fill="#262626" fill-rule="evenodd" d="M12 4.66667c0 .83043-.4769 2.30678-1.2483 3.69538-.257.46255-.5161.85904-.7517 1.16855-.2356-.30951-.49471-.706-.75169-1.16855C8.47687 6.97345 8 5.4971 8 4.66667 8 2.83081 9.15062 2 10 2c.5644 0 1.018.20946 1.3467.57205.3349.36943.6533 1.02921.6533 2.09462ZM9.45029 10.1268c-.00937.0063-.00788.0043.00391-.0026l-.00391.0026Zm1.09551-.0026c.0118.0069.0133.0089.0039.0026l-.0039-.0026ZM6 4.66667C6 6.7546 7.63481 10.0686 8.9844 11.4088c-1.86424 1.6009-2.98439 3.9597-2.98439 6.4967v2.006C3.92384 20.3507 2.01815 21.7135 1 24h2.23463c2.02657-2.9935 6.50417-2.9935 8.53077 0H14c-1.18-2.6499-3.552-4.0592-5.99999-4.2279v-1.8666c0-2 .90833-3.8556 2.41129-5.0831C11.6085 14.2035 15.1446 16 17.3333 16 20 16 22 14.2091 22 12c0-2.20914-1.7211-4-4.6667-4-1.4526 0-3.4986.79128-5.0606 1.72728C13.2087 8.16533 14 6.11927 14 4.66667 14 1.72115 12.2091 0 10 0 7.79086 0 6 2 6 4.66667ZM17.3333 10c-.8304 0-2.3068.4769-3.6953 1.2483-.4626.257-.8591.5161-1.1686.7517.3095.2356.706.4947 1.1686.7517C15.0265 13.5231 16.5029 14 17.3333 14 19.1692 14 20 12.8494 20 12c0-.5644-.2095-1.018-.572-1.3467-.3695-.3349-1.0293-.6533-2.0947-.6533Zm-5.4601 2.5497c-.0063.0094-.0043.0079.0026-.0039l-.0026.0039Zm.0026-1.0955c-.0069-.0118-.0089-.0133-.0026-.0039l.0026.0039Z" clip-rule="evenodd"/></svg>