<svg xmlns="http://www.w3.org/2000/svg" width="24" height="24" fill="none" viewBox="0 0 24 24"><path fill="#262626" fill-rule="evenodd" d="M14 8c2.2091 0 4-1.79086 4-4s-1.7909-4-4-4c-2.2091 0-4 1.79086-4 4s1.7909 4 4 4Zm-4 5c0-2.2091 1.7909-4 4-4 2.2091 0 4 1.7909 4 4v11h-8v-.0224C7.19675 23.725 5 21.369 5 18.5c0-2.869 2.19675-5.225 5-5.4776V13Zm-1.76613 5.9378C7.68725 18.1766 8.15872 17 9.02866 17c.25794 0 .50714.1193.68846.3297L10 17.658l.2829-.3283c.1813-.2104.4305-.3297.6884-.3297.87 0 1.3415 1.1766.7948 1.9378l-.0549.0764L10 21l-1.71125-1.9858-.05488-.0764Z" clip-rule="evenodd"/></svg>