<svg xmlns="http://www.w3.org/2000/svg" width="24" height="24" fill="none" viewBox="0 0 24 24"><path fill="#262626" fill-rule="evenodd" d="M14 6c1.1046 0 2-.89543 2-2s-.8954-2-2-2-2 .89543-2 2 .8954 2 2 2Zm0 2c2.2091 0 4-1.79086 4-4s-1.7909-4-4-4c-2.2091 0-4 1.79086-4 4s1.7909 4 4 4Zm-3.9713 9c-.86998 0-1.34145 1.1766-.79483 1.9378l.05488.0764L11 21l1.7112-1.9858.0549-.0764c.5467-.7612.0752-1.9378-.7948-1.9378-.2579 0-.5071.1193-.6884.3297L11 17.658l-.2829-.3283c-.1813-.2104-.4305-.3297-.6884-.3297ZM12 14.8503l-1.8205.164C8.39773 15.1749 7 16.6754 7 18.5s1.39773 3.3251 3.1795 3.4856l.1592.0144H10.5v2H10v-.0224C7.19675 23.725 5 21.369 5 18.5c0-2.869 2.19675-5.225 5-5.4776V13c0-2.2091 1.7909-4 4-4 2.2091 0 4 1.7909 4 4v11h-2V13c0-1.1046-.8954-2-2-2s-2 .8954-2 2v1.8503Z" clip-rule="evenodd"/></svg>