<svg xmlns="http://www.w3.org/2000/svg" width="24" height="24" fill="none" viewBox="0 0 24 24"><path fill="#262626" fill-rule="evenodd" d="M17.9999 7.02725v5.16865l2.47-1.5438c.4684-.2927 1.0853-.1503 1.378.318.2928.4683.1504 1.0853-.3179 1.378l-3.5301 2.2063v2.6415l2.47-1.5438c.4684-.2927 1.0853-.1503 1.378.318.2927.4683.1504 1.0853-.318 1.378l-3.53 2.2063V23c0 .5523-.4477 1-1 1H2.99998c-.55228 0-1-.4477-1-1V7.00015c0-.55228.44772-.99999 1-.99999h9.91062L5.00396 1.88735c-.48996-.25487-.68054-.85866-.42568-1.34862.25486-.4899586.85866-.680541 1.34862-.425679L17.4457 6.10481c.1901.09482.3457.24836.4431.43686.0768.1492.1155.31645.1111.48558ZM6.99995 18.0001c-.55228 0-1 .4477-1 1 0 .5522.44772 1 1 1h5.99995c.5523 0 1-.4478 1-1 0-.5523-.4477-1-1-1H6.99995Z" clip-rule="evenodd"/></svg>