<svg xmlns="http://www.w3.org/2000/svg" width="24" height="24" fill="none" viewBox="0 0 24 24"><path fill="#262626" fill-rule="evenodd" d="M17.9999 17.1959v-2.6415l3.5301-2.2063c.4683-.2927.6107-.9097.3179-1.378-.2927-.4684-.9096-.6107-1.378-.318l-2.47 1.5438V7.02725c.0044-.16913-.0343-.33638-.1111-.48558-.0974-.1885-.253-.34204-.4431-.43686L5.9269.113051C5.43694-.141811 4.83314.0487714 4.57828.53873c-.25486.48996-.06428 1.09375.42568 1.34862l7.90664 4.11281H2.99998c-.55228 0-1 .44771-1 .99999V23c0 .5523.44772 1 1 1H16.9999c.5523 0 1-.4477 1-1v-3.4456l3.53-2.2063c.4684-.2927.6107-.9097.318-1.378-.2927-.4684-.9096-.6107-1.378-.318l-2.47 1.5438Zm-2 1.8015V8.00014H3.99997V22H15.9999v-3.0026Zm-8.99995-.9973c-.55228 0-1 .4477-1 1 0 .5522.44772 1 1 1h5.99995c.5523 0 1-.4478 1-1 0-.5523-.4477-1-1-1H6.99995Z" clip-rule="evenodd"/></svg>