<svg xmlns="http://www.w3.org/2000/svg" width="24" height="24" fill="none" viewBox="0 0 24 24"><path fill="#262626" fill-rule="evenodd" d="M19 2H5v20h14V2ZM3 0v24h18V0H3Zm10 7c0 .55228-.4477 1-1 1s-1-.44772-1-1 .4477-1 1-1 1 .44772 1 1Zm2 0c0 1.65685-1.3431 3-3 3S9 8.65685 9 7s1.3431-3 3-3 3 1.34315 3 3Zm-3 3c1.0792 0 2.0921.4013 2.8352 1.1588.7036.7174 1.1166 1.7035 1.1608 2.8412H16v.2051h-2c0-.7583-.2524-1.2989-.5926-1.6457C13.0647 12.21 12.5777 12 12 12s-1.0647.21-1.4074.5594c-.3402.3468-.5926.8874-.5926 1.6457H8V14h.00397c.04425-1.1377.4572-2.1238 1.16082-2.8412C9.90787 10.4013 10.9208 10 12 10Zm-5 7v2h10v-2H7Z" clip-rule="evenodd"/></svg>