<svg xmlns="http://www.w3.org/2000/svg" width="24" height="24" fill="none" viewBox="0 0 24 24"><path fill="#262626" fill-rule="evenodd" d="M22 2h-4.4197l-2.8571 5H18v4h2c.5523 0 1 .4477 1 1s-.4477 1-1 1h-2v2c0 1.1046.8954 2 2 2h2V2ZM2 2h13.2768l-2.2901 4.00772C12.2248 7.34104 13.1875 9 14.7232 9H16v6c0 2.2091 1.7909 4 4 4h2v3h-8v-9.5c0-1.3807-1.1193-2.5-2.5-2.5S9 11.1193 9 12.5v3.8636l-3.05247.8325C4.20729 17.6707 3 19.2514 3 21.0552V22H2V2Zm3 20h7v-9.5c0-.2761-.2239-.5-.5-.5s-.5.2239-.5.5v5.3912l-4.52623 1.2345C5.60364 19.363 5 20.1533 5 21.0552V22Zm-2 2H2c-1.10457 0-2-.8954-2-2V2C0 .89543.895431 0 2 0h20c1.1046 0 2 .895431 2 2v20c0 1.1046-.8954 2-2 2H3Z" clip-rule="evenodd"/></svg>