<svg xmlns="http://www.w3.org/2000/svg" width="24" height="24" fill="none" viewBox="0 0 24 24"><path fill="#262626" fill-rule="evenodd" d="m15.4286 2-2.5737 4.50386C12.474 7.17052 12.9554 8 13.7232 8H16v3h3c.5523 0 1 .4477 1 1s-.4477 1-1 1h-3v2c0 1.6569 1.3431 3 3 3h3V2h-6.5714ZM13 22V11.5c0-.8284-.6716-1.5-1.5-1.5s-1.5.6716-1.5 1.5v5l-2.93621.7069C5.26663 17.6395 4 19.2473 4 21.0958V22h9ZM2 0C.895431 0 0 .89543 0 2v20c0 1.1046.89543 2 2 2h20c1.1046 0 2-.8954 2-2V2c0-1.104569-.8954-2-2-2H2Z" clip-rule="evenodd"/></svg>