<svg xmlns="http://www.w3.org/2000/svg" width="24" height="24" fill="none" viewBox="0 0 24 24"><path fill="#262626" fill-rule="evenodd" d="M18 6c.5523 0 1-.44772 1-1s-.4477-1-1-1-1 .44772-1 1 .4477 1 1 1Zm0 2c1.6569 0 3-1.34315 3-3s-1.3431-3-3-3-3 1.34315-3 3 1.3431 3 3 3Zm-2 5c0-1.1046.8954-2 2-2s2 .8954 2 2v3h-4v-3Zm8 3h-2v-3c0-2.2091-1.7909-4-4-4-2.2091 0-4 1.7909-4 4v3h-2v-1c0-2.2091-1.7909-4-4-4-2.20914 0-4 1.7909-4 4v1H0v6h2v-4h2v4h2v-7c0-1.1046.89543-2 2-2s2 .8954 2 2v7h2v-4h10v4h2v-6ZM9 7c0 .55228-.44772 1-1 1s-1-.44772-1-1 .44772-1 1-1 1 .44772 1 1Zm2 0c0 1.65685-1.34315 3-3 3S5 8.65685 5 7s1.34315-3 3-3 3 1.34315 3 3Z" clip-rule="evenodd"/></svg>