<svg xmlns="http://www.w3.org/2000/svg" width="24" height="24" fill="none" viewBox="0 0 24 24"><path fill="#262626" fill-rule="evenodd" d="m8.67081 3.47762-.76109 1.13041-2.87847 1.02126 1.95861-3.23538c.53529-.83029 1.44504-1.34383 2.43249-1.37312l.77725-.022499 5.9007.022699c.3967.00152.755.23743.9132.60124l1.6791 3.86152 2.014-.87572-1.7746 8.94987-7.7558-4.80595 2.014-.87571-2.1319-4.90308-1.57666.04676c-.32915.00976-.6324.18094-.81083.4577Zm-1.171 16.52068-1.28149-.0088c-.32929-.0018-.6366-.1656-.82169-.438l-.88655-1.3046 2.98973-4.4324 1.82069 1.228-.11385-9.1234L.704894 9.23123 2.52559 10.4593.170963 13.9502c-.2218439.3289-.2282847.7578-.016415 1.0932l3.151322 4.9888.43657.6435c.55526.817 1.47718 1.3084 2.46506 1.3137h3.855l-2.56269-1.9911Zm13.42509-7.9457.9071 1.3606c.1827.274.2187.6204.0964.9261l-.5858 1.4646h-5.3465v-2.1962l-7.50001 5.1962L15.9961 24v-2.1961h4.2107c.3968 0 .756-.2346.9156-.5978l2.3737-5.4022.2893-.7218c.3669-.9172.2587-1.9563-.2893-2.7783l-2.037-3.05551-.5342 2.80431Z" clip-rule="evenodd"/></svg>