<svg xmlns="http://www.w3.org/2000/svg" width="24" height="24" fill="none" viewBox="0 0 24 24"><path fill="#262626" fill-rule="evenodd" d="M9.70711 3.70711c.39049-.39053.39049-1.02369 0-1.41422-.39053-.39052-1.02369-.39052-1.41422 0l-3 3.00001C5.10535 5.48043 5 5.73479 5 6c0 .26522.10535.51957.29289.70711l3 3c.39053.39049 1.02369.39049 1.41422 0 .39049-.39053.39049-1.02369 0-1.41422L8.41421 7H17c1.6569 0 3 1.34315 3 3v2c0 .5523.4477 1 1 1s1-.4477 1-1v-2c0-2.76142-2.2386-5-5-5H8.41421l1.2929-1.29289ZM14.2929 20.2929c-.3905.3905-.3905 1.0237 0 1.4142.3905.3905 1.0237.3905 1.4142 0l3-3C18.8946 18.5196 19 18.2652 19 18c0-.2652-.1054-.5196-.2929-.7071l-3-3c-.3905-.3905-1.0237-.3905-1.4142 0-.3905.3905-.3905 1.0237 0 1.4142L15.5858 17H7c-1.65686 0-3-1.3431-3-3v-2c0-.5523-.44772-1-1-1-.55229 0-1 .4477-1 1v2c0 2.7614 2.23858 5 5 5h8.5858l-1.2929 1.2929Z" clip-rule="evenodd"/></svg>