<svg xmlns="http://www.w3.org/2000/svg" width="24" height="24" fill="none" viewBox="0 0 24 24"><path fill="#262626" fill-rule="evenodd" d="M2 0C.895431 0 0 .89543 0 2v20c0 1.1046.89543 2 2 2h20c1.1046 0 2-.8954 2-2V2c0-1.104569-.8954-2-2-2H2Zm7.70711 2.29289c.39049.39053.39049 1.02369 0 1.41422L8.41421 5H17c2.7614 0 5 2.23858 5 5v2c0 .5523-.4477 1-1 1s-1-.4477-1-1v-2c0-1.65685-1.3431-3-3-3H8.41421l1.2929 1.29289c.39049.39053.39049 1.02369 0 1.41422-.39053.39049-1.02369.39049-1.41422 0l-3-3C5.10535 6.51957 5 6.26522 5 6c0-.26521.10535-.51957.29289-.7071l3-3.00001c.39053-.39052 1.02369-.39052 1.41422 0ZM14.2929 21.7071c-.3905-.3905-.3905-1.0237 0-1.4142L15.5858 19H7c-2.76142 0-5-2.2386-5-5v-2c0-.5523.44771-1 1-1 .55228 0 1 .4477 1 1v2c0 1.6569 1.34314 3 3 3h8.5858l-1.2929-1.2929c-.3905-.3905-.3905-1.0237 0-1.4142.3905-.3905 1.0237-.3905 1.4142 0l3 3c.1875.1875.2929.4419.2929.7071 0 .2652-.1054.5196-.2929.7071l-3 3c-.3905.3905-1.0237.3905-1.4142 0Z" clip-rule="evenodd"/></svg>