<svg xmlns="http://www.w3.org/2000/svg" width="24" height="24" fill="none" viewBox="0 0 24 24"><path fill="#262626" fill-rule="evenodd" d="M1 0C.447715 0 0 .447716 0 1v22c0 .5523.447716 1 1 1h22c.5523 0 1-.4477 1-1V1c0-.552285-.4477-1-1-1H1Zm10.5858 7H9c-2.20914 0-4 1.79086-4 4v4H3v-4c0-3.31371 2.68629-6 6-6h2.5859L9.79287 3.20682l1.41423-1.41416 3.5 3.50024.7071.70711-.7071.70708-3.5 3.50001-1.41421-1.41422L11.5858 7ZM12 13.5c0-.8284.6716-1.5 1.5-1.5h6c.8284 0 1.5.6716 1.5 1.5v6c0 .8284-.6716 1.5-1.5 1.5h-6c-.8284 0-1.5-.6716-1.5-1.5v-6Z" clip-rule="evenodd"/></svg>