<svg xmlns="http://www.w3.org/2000/svg" width="24" height="24" fill="none" viewBox="0 0 24 24"><path fill="#262626" fill-rule="evenodd" d="M1 0C.447715 0 0 .447716 0 1v22c0 .5523.447716 1 1 1h22c.5523 0 1-.4477 1-1V1c0-.552285-.4477-1-1-1H1Zm11.7931 1.79289-3.49996 3.5L8.58603 6l.70711.70711 3.49996 3.49999 1.4143-1.41421L12.4145 7H15c2.2091 0 4 1.79086 4 4v4h2v-4c0-3.31371-2.6863-6-6-6h-2.5855l1.7929-1.79289-1.4143-1.41422ZM3 13.5c0-.8284.67157-1.5 1.5-1.5h6c.8284 0 1.5.6716 1.5 1.5v6c0 .8284-.6716 1.5-1.5 1.5h-6c-.82843 0-1.5-.6716-1.5-1.5v-6Z" clip-rule="evenodd"/></svg>