<svg xmlns="http://www.w3.org/2000/svg" width="24" height="24" fill="none" viewBox="0 0 24 24"><path fill="#262626" fill-rule="evenodd" d="M5.99999 0 24 18V0H5.99999Zm4.82841 2L22 13.1716V2H10.8284ZM5.65685 5.61522 2.82843 8.44365 15.5563 21.1716l2.8285-2.8285L5.65685 5.61522Zm.70711-2.12132c-.39052-.39052-1.02369-.39052-1.41421 0L0 8.44365 15.5563 24l4.9498-4.9497c.3905-.3906.3905-1.0237 0-1.4143L6.36396 3.4939ZM5.6568 8.44365l1.41421-1.41421 1.41421 1.41421-1.41421 1.41421L5.6568 8.44365Zm4.24258 1.41421L8.48516 11.2721l1.41422 1.4142 1.41422-1.4142-1.41422-1.41424ZM14.142 16.9289l1.4142-1.4142 1.4143 1.4142-1.4143 1.4142-1.4142-1.4142Zm-1.4141-4.2426-1.4142 1.4142 1.4142 1.4142 1.4142-1.4142-1.4142-1.4142ZM20 8l-4-4h4v4Z" clip-rule="evenodd"/></svg>