<svg xmlns="http://www.w3.org/2000/svg" width="24" height="24" fill="none" viewBox="0 0 24 24"><path fill="#262626" fill-rule="evenodd" d="M24 0H6l18 18V0Zm-5.1716 4H16l2 2 2 2V4h-1.1716ZM4.94975 3.4939c.39052-.39052 1.02369-.39052 1.41421 0L8.4853 5.61525l-2.82845 2.8284 1.41421 1.41422 2.82846-2.82841 1.41418 1.41416-2.82845 2.82848 1.41422 1.4142 2.82843-2.82846 1.4143 1.41426-2.8285 2.8284 1.4143 1.4142 2.8284-2.8284 1.4141 1.4142-2.8284 2.8284 1.4142 1.4142 2.8284-2.8284 2.1214 2.1213c.3905.3906.3905 1.0237 0 1.4143L15.5563 24 0 8.44365 4.94975 3.4939Z" clip-rule="evenodd"/></svg>