<svg xmlns="http://www.w3.org/2000/svg" width="24" height="24" fill="none" viewBox="0 0 24 24"><path fill="#262626" fill-rule="evenodd" d="M17 2H7v4h10V2ZM7.41604 8C8.1876 9.7659 9.94968 11 12 11c2.0503 0 3.8124-1.2341 4.584-3H7.41604ZM19 6c0 2.54633-1.3596 4.7751-3.3924 6C17.6404 13.2249 19 15.4537 19 18v6H5v-6c0-2.5463 1.35958-4.7751 3.39242-6C6.35958 10.7751 5 8.54633 5 6V0h14v6Zm-2 12v1.8571L12 17l-5 2.8571V18c0-2.7614 2.23858-5 5-5 2.7614 0 5 2.2386 5 5Zm-5 1.3035L16.7189 22H7.28113L12 19.3035ZM11 14v2h2v-2h-2Z" clip-rule="evenodd"/></svg>