<svg xmlns="http://www.w3.org/2000/svg" width="24" height="24" fill="none" viewBox="0 0 24 24"><path fill="#262626" fill-rule="evenodd" d="M3 3c-.55228 0-1 .44772-1 1v15c0 .5523.44772 1 1 1h18c.5523 0 1-.4477 1-1V7c0-.55229-.4477-1-1-1h-6V4h6c1.6569 0 3 1.34315 3 3v12c0 1.6569-1.3431 3-3 3H3c-1.65685 0-3-1.3431-3-3V4c0-1.65685 1.34315-3 3-3h7c1.6569 0 3 1.34315 3 3v10.071l2.5355-2.5355 1.4142 1.4143-4.9498 4.9497-4.94973-4.9497 1.41421-1.4143L11 14.0712V4c0-.55228-.4477-1-1-1H3Z" clip-rule="evenodd"/></svg>