<svg xmlns="http://www.w3.org/2000/svg" width="24" height="24" fill="none" viewBox="0 0 24 24"><path fill="#262626" fill-rule="evenodd" d="M6 1c.18124 0 .35908.04876.5145.14107l2.75379 1.6353C10.4335 2.41717 11.69 2.22139 13 2.22139c6.0751 0 11 4.2105 11 9.40441 0 3.3011-1.9894 6.205-4.9992 7.883L19 24h-2l.0008-3.6112c-1.2399.4141-2.5893.6414-4.0008.6414-1.04 0-2.0462-.1234-2.9998-.354L10 24H8l.00017-3.9952c-1.99073-.87-3.63053-2.2433-4.6898-3.9236L0 16.0805V8.16101l2.77027.0007c.51834-1.1179 1.28013-2.13063 2.22944-2.99039L5 1.98994C5 1.44321 5.44772 1 6 1Zm7 5.18114c1.4745 0 2.8425.35461 3.9708.96016l-.6933 1.88497c-.865-.53063-2.0005-.86526-3.2775-.86526-1.277 0-2.4125.33463-3.27746.86526l-.69251-1.88542C10.1581 6.53557 11.5259 6.18114 13 6.18114Z" clip-rule="evenodd"/></svg>