<svg xmlns="http://www.w3.org/2000/svg" width="24" height="24" fill="none" viewBox="0 0 24 24"><path fill="#262626" fill-rule="evenodd" d="M22 4h-4c-3.3137 0-6 2.68629-6 6v4h10V4Zm-4-2c-4.4183 0-8 3.58172-8 8v5c0 .5523.4477 1 1 1h12c.5523 0 1-.4477 1-1V4c0-1.10457-.8954-2-2-2h-4ZM2 15c-1.104569 0-2-.8954-2-2v-3h2v3h7v2H2Zm-1 7h4v-2H1v2Zm6 0v-2h4v2H7Zm6 0h4v-2h-4v2Zm10-2v2h-4v-2h4ZM19 9.5c0 .8284-.6716 1.5-1.5 1.5S16 10.3284 16 9.5c0-.82843.6716-1.5 1.5-1.5s1.5.67157 1.5 1.5Zm2 0c0 1.933-1.567 3.5-3.5 3.5S14 11.433 14 9.5 15.567 6 17.5 6 21 7.567 21 9.5Z" clip-rule="evenodd"/></svg>