<svg xmlns="http://www.w3.org/2000/svg" width="24" height="24" fill="none" viewBox="0 0 24 24"><path fill="#262626" fill-rule="evenodd" d="M10 2h4v1h-4V2ZM8 3.58152V2c0-1.10457.89543-2 2-2h4c1.1046 0 2 .895431 2 2v1.58152C18.9318 4.76829 21 7.64262 21 11v2h1c1.1046 0 2 .8954 2 2v5c0 1.1046-.8954 2-2 2h-1.5351c-.6916 1.1956-1.9843 2-3.4649 2H7c-1.48056 0-2.77325-.8044-3.46487-2H2c-1.10457 0-2-.8954-2-2v-5c0-1.1046.895431-2 2-2h1v-2c0-3.35738 2.06817-6.23171 5-7.41848ZM19 20v-9c0-3.31371-2.6863-6-6-6h-2c-3.31371 0-6 2.68629-6 6v9c0 1.1046.89543 2 2 2h10c1.1046 0 2-.8954 2-2Zm2-5v5h1v-5h-1ZM2 15h1v5H2v-5Zm13 0H9v3h6v-3Zm-6-2c-1.10457 0-2 .8954-2 2v3c0 1.1046.89543 2 2 2h6c1.1046 0 2-.8954 2-2v-3c0-1.1046-.8954-2-2-2H9Zm0-5c-.55228 0-1 .44772-1 1s.44772 1 1 1h6c.5523 0 1-.44772 1-1s-.4477-1-1-1H9Z" clip-rule="evenodd"/></svg>