<svg xmlns="http://www.w3.org/2000/svg" width="24" height="24" fill="none" viewBox="0 0 24 24"><path fill="#262626" fill-rule="evenodd" d="M10 2h4v1h-4V2ZM8 3.58152V2c0-1.10457.89543-2 2-2h4c1.1046 0 2 .895431 2 2v1.58152C18.9318 4.76829 21 7.64262 21 11v9c0 2.2091-1.7909 4-4 4H7c-2.20914 0-4-1.7909-4-4v-9c0-3.35738 2.06817-6.23171 5-7.41848ZM2 22v-9c-1.104569 0-2 .8954-2 2v5c0 1.1046.895431 2 2 2Zm20-2v2c1.1046 0 2-.8954 2-2v-5c0-1.1046-.8954-2-2-2v7ZM9 8c-.55228 0-1 .44772-1 1s.44772 1 1 1h6c.5523 0 1-.44772 1-1s-.4477-1-1-1H9Zm0 7h6v3H9v-3Zm-2 0c0-1.1046.89543-2 2-2h6c1.1046 0 2 .8954 2 2v3c0 1.1046-.8954 2-2 2H9c-1.10457 0-2-.8954-2-2v-3Z" clip-rule="evenodd"/></svg>