<svg xmlns="http://www.w3.org/2000/svg" width="24" height="24" fill="none" viewBox="0 0 24 24"><path fill="#262626" fill-rule="evenodd" d="M4.75 10.5c1.0766 0 2.04664-.4539 2.72992-1.17913.24282.31543.44198.68373.58155 1.09193.06115.202.10874.3826.1453.5453.05147.2646.07894.5415.07894.8279 0 .2741-.02517.5395-.0725.7937-.01021.0448-.02102.0912-.03235.1398-.01514.065-.03119.1339-.04798.2083-.13372.4832-.34923.9176-.62278 1.2836C6.82477 13.4667 5.84188 13 4.75 13 2.67893 13 1 14.6789 1 16.75s1.67893 3.75 3.75 3.75c2.07107 0 3.75-1.6789 3.75-3.75 0-.1487-.00865-.2953-.02548-.4395L21.8316 8.39522c.2672-.15835.4091-.46502.357-.77121-.0522-.30618-.2877-.54853-.5923-.60945l-2.0209-.40417c-.4328-.08657-.8801-.06767-1.3041.0551l-7.5269 2.17938-2.28752-1.52501C8.48528 7.13391 8.5 6.94358 8.5 6.75 8.5 4.67893 6.82107 3 4.75 3 2.67893 3 1 4.67893 1 6.75c0 2.07107 1.67893 3.75 3.75 3.75ZM2.5 6.75c0-1.24264 1.00736-2.25 2.25-2.25S7 5.50736 7 6.75c0 .27477-.04895.53709-.13845.77945l-.23054.45582C6.22775 8.59789 5.53544 9 4.75 9 3.50736 9 2.5 7.99264 2.5 6.75Zm0 10c0-1.2426 1.00736-2.25 2.25-2.25S7 15.5074 7 16.75 5.99264 19 4.75 19 2.5 17.9926 2.5 16.75Zm8.25-4c.5523 0 1-.4477 1-1s-.4477-1-1-1-1 .4477-1 1 .4477 1 1 1Z" clip-rule="evenodd"/><path fill="#262626" d="M18.1236 12.0997c-.2308-.1327-.5147-.1329-.7459-.0008l-4 2.2876c-.2764.1581-.4229.4735-.3653.7866.0576.3132.3066.5559.6211.6054l5.9969.943c.3208.0504.648.0436.9665-.02l2.1498-.43c.3064-.0613.5427-.3061.5931-.6145.0504-.3083-.0956-.6156-.3665-.7713l-4.8497-2.786Z"/></svg>