<svg xmlns="http://www.w3.org/2000/svg" width="24" height="24" fill="none" viewBox="0 0 24 24"><path fill="#262626" fill-rule="evenodd" d="M4.75 4.5C3.50736 4.5 2.5 5.50736 2.5 6.75S3.50736 9 4.75 9c.78544 0 1.47775-.40211 1.88101-1.01473l.23054-.45582C6.95105 7.28709 7 7.02477 7 6.75 7 5.50736 5.99264 4.5 4.75 4.5Zm2.72992 4.82087C6.79664 10.0461 5.8266 10.5 4.75 10.5 2.67893 10.5 1 8.82107 1 6.75 1 4.67893 2.67893 3 4.75 3 6.82107 3 8.5 4.67893 8.5 6.75c0 .19358-.01472.38391-.04312.56986l2.28752 1.52501 7.5269-2.17938c.424-.12277.8713-.14167 1.3041-.0551l2.0209.40417c.3046.06092.5401.30327.5923.60945.0521.30619-.0898.61286-.357.77121l-5.9812 3.54438 5.9906 3.6693c.2631.1612.4007.4672.3466.771-.054.3038-.2887.5435-.5913.604l-2.0165.4033c-.4367.0874-.888.0674-1.3153-.0583l-7.6912-2.2621-2.09878 1.2437c.01683.1442.02548.2908.02548.4395 0 2.0711-1.67893 3.75-3.75 3.75C2.67893 20.5 1 18.8211 1 16.75S2.67893 13 4.75 13c1.09188 0 2.07477.4667 2.7601 1.2114.27355-.366.48906-.8004.62278-1.2836.01679-.0744.03284-.1433.04798-.2083.01133-.0486.02214-.095.03235-.1398.04733-.2542.0725-.5196.0725-.7937 0-.2864-.02747-.5633-.07894-.8279-.03656-.1627-.08415-.3433-.1453-.5453-.13957-.4082-.33873-.7765-.58155-1.09193Zm1.89244 4.71403c.0923-.2824.17208-.5498.21962-.7588.031-.1162.05844-.2341.08221-.3533.06227-.2737.12399-.5901.13758-.9516.01386-.3688-.02024-.7741-.12335-1.259l9.00008-2.60589c.1927-.05581.396-.0644.5928-.02505l.103.02061-8.346 4.94573-.9614.5499c-.0508.029-.09721.0634-.13882.1021l-.56572.3353Zm2.97724-.0092 6.3382 1.8642c.1942.0571.3994.0662.5978.0265l.1398-.028-4.9893-3.056-2.0865 1.1933ZM4.75 14.5c-1.24264 0-2.25 1.0074-2.25 2.25S3.50736 19 4.75 19 7 17.9926 7 16.75 5.99264 14.5 4.75 14.5Z" clip-rule="evenodd"/></svg>