<svg xmlns="http://www.w3.org/2000/svg" width="24" height="24" fill="none" viewBox="0 0 24 24"><path fill="#262626" fill-rule="evenodd" d="M12 0c1.6569 0 3 1.34315 3 3v6l4.7576.4651c2.5588.34032 4.4145 2.6728 4.2297 5.3167L22.3697 24H8.74161l-6.0675-7.7914c-.97918-1.2573-.97658-3.0026.2269-4.2086 1.15535-1.1578 2.87247-.9923 3.96376-.3197L9.00001 13V3c0-1.65685 1.34319-3 2.99999-3Zm0 2c-.5128 0-.9355.38604-.9933.88338L11 3v13.5806l-5.05097-3.1108-.08468-.0551c-.508-.3494-1.20128-.3491-1.54763-.002-.41176.4126-.46132.9649-.14431 1.4552l.07966.1119 5.46594 7.0192H20.689l1.306-7.438.0047-.1024c.0178-1.4618-.9753-2.7146-2.273-2.9756l-.1637-.0274L13 10.814V3c0-.51284-.386-.93551-.8834-.99327L12 2Z" clip-rule="evenodd"/></svg>