<svg xmlns="http://www.w3.org/2000/svg" width="24" height="24" fill="none" viewBox="0 0 24 24"><path fill="#262626" fill-rule="evenodd" d="M3 0C1.34315 0 0 1.34315 0 3v5c0 1.65685 1.34315 3 3 3h5.78794v3.004c-1.00092-.5665-2.6581-.7671-3.84772.3847-1.21868 1.1799-1.20374 2.9154-.23747 4.1142L9.13365 24H19.7246l1.2601-6.9374.0039-.0536c.1645-2.2747-1.4875-4.2703-3.7496-4.561l-.0166-.0021-2.3497-.222V11H21c1.6569 0 3-1.34315 3-3V3c0-1.65685-1.3431-3-3-3H3Zm11.8727 9H21c.5523 0 1-.44772 1-1V3c0-.55228-.4477-1-1-1H3c-.55228 0-1 .44772-1 1v5c0 .55228.44772 1 1 1h5.78794V7.97321C8.78794 6.29896 10.1828 5 11.8303 5s3.0424 1.29896 3.0424 2.97321V9Zm-4.0848-1.02679c0-.5053.434-.97321 1.0424-.97321s1.0424.46791 1.0424.97321v6.07069l4.1267.3898c1.1975.1617 2.0574 1.2038 1.9974 2.3821L18.0551 22h-7.9647l-3.83051-4.7522c-.36695-.4553-.34848-1.0156.07149-1.4222.36016-.3487.99935-.3623 1.49131-.0695l2.96521 1.7707V7.97321Z" clip-rule="evenodd"/></svg>