<svg xmlns="http://www.w3.org/2000/svg" width="24" height="24" fill="none" viewBox="0 0 24 24"><path fill="#262626" fill-rule="evenodd" d="M0 2C0 .895431.895431 0 2 0h20c1.1046 0 2 .895431 2 2v7c0 1.1046-.8954 2-2 2h-6.127V7.97321C15.873 5.71449 13.9976 4 11.8306 4 9.66355 4 7.78822 5.71449 7.78822 7.97321V11H2c-1.10457 0-2-.8954-2-2V2Zm13.8729 5.97321C13.8729 6.88344 12.9585 6 11.8305 6c-1.128 0-2.04236.88344-2.04236 1.97321v7.79169l-1.45365-.8681c-.74293-.4423-1.91193-.5512-2.69848.2103-.81933.7933-.82109 1.9412-.15448 2.7682L10 24h8.5l1.4914-7.0632c.1258-1.7389-1.1376-3.2731-2.8796-3.497l-3.2389-.3059V7.97321Z" clip-rule="evenodd"/></svg>