<svg xmlns="http://www.w3.org/2000/svg" width="24" height="24" fill="none" viewBox="0 0 24 24"><path fill="#262626" fill-rule="evenodd" d="M5 3c0-1.65685 1.34315-3 3-3h8c1.6569 0 3 1.34315 3 3v11.9573c.6838.7524 1.0684 1.7697.9897 2.8584l-.0039.0536L18.8726 24H9.51859l-3.88014-4.8154c-.39612-.4916-.61647-1.0839-.63689-1.6846H5V3Zm12 0v10.7871c-.1229-.0281-.2483-.0506-.3758-.067l-1.6244-.2118V10c0-1.65685-1.3432-3-3-3-1.6569 0-3.00001 1.34314-3.00001 3v4.9171c-.57605-.2344-1.3019-.334-1.99979-.1391V3c0-.55228.44772-1 1-1h1v2h6V2h1c.5523 0 1 .44772 1 1ZM7 17.3942v.0484c.00581.1648.07096.3322.19579.4872L10.4755 22h6.7276l.7947-4.3765c.0441-.9526-.6554-1.7947-1.6286-1.9198l-3.3694-.4391V10c0-.55228-.4477-1-1-1s-1 .44771-1 1v8.8938l-2.66738-2.0851c-.16134-.0849-.3693-.1395-.57167-.1342-.20914.0055-.38048.0718-.51406.2012-.15772.1527-.24012.333-.24669.5185Z" clip-rule="evenodd"/></svg>