<svg xmlns="http://www.w3.org/2000/svg" width="24" height="24" fill="none" viewBox="0 0 24 24"><path fill="#262626" fill-rule="evenodd" d="M5 2c0-1.10457.89543-2 2-2h10c1.1046 0 2 .895431 2 2v12.6407c-.6387-.4633-1.4007-.7783-2.2416-.8871l-.002-.0003-.7563-.0989v-2.7098c0-2.17853-1.7909-3.9446-4-3.9446-2.20916 0-4.00002 1.76607-4.00002 3.9446v3.7658c-.94895-.0558-1.98815.2043-2.85278 1.0447-.05087.0495-.09996.0997-.1473.1507V2Zm4 2h6V2H9v2Zm5 7v4.3865l2.4969.3254c1.5098.1941 2.6046 1.5241 2.4956 3.0317L18.0381 24H9.99726l-3.57993-4.4428c-.57773-.717-.5762-1.7121.13388-2.3998.68167-.6602 1.6948-.5659 2.33868-.1824L10 17.8428V11c0-1.10457.8954-2 2-2s2 .89543 2 2Z" clip-rule="evenodd"/></svg>