<svg xmlns="http://www.w3.org/2000/svg" width="24" height="24" fill="none" viewBox="0 0 24 24"><path fill="#262626" fill-rule="evenodd" d="M12 12c2.7614 0 5-2.23858 5-5s-2.2386-5-5-5C9.23858 2 7 4.23858 7 7c0 .7111.14845 1.38754.41604 2H11c.5523 0 1 .44772 1 1 0 .5523-.4477 1-1 1H8.99951c.83575.6279 1.87469 1 3.00049 1Zm-5.74531-1C7.51964 12.8135 9.62125 14 12 14c3.866 0 7-3.134 7-7 0-3.86599-3.134-7-7-7-3.86599 0-7 3.13401-7 7 0 .69497.10128 1.36629.28988 2H4V5c0-.55228-.44772-1-1-1s-1 .44772-1 1v4c0 1.1046.89543 2 2 2h2.25469ZM20.9241 24c-.9247-4.008-4.5691-7-8.9241-7-4.35498 0-7.99943 2.992-8.92413 7H1c.95628-5.1202 5.51746-9 11-9 5.4825 0 10.0437 3.8798 11 9h-2.0759ZM21 4c-.5523 0-1 .44772-1 1v4c0 .55228.4477 1 1 1s1-.44772 1-1V5c0-.55228-.4477-1-1-1Z" clip-rule="evenodd"/></svg>