<svg xmlns="http://www.w3.org/2000/svg" width="24" height="24" fill="none" viewBox="0 0 24 24"><path fill="#262626" fill-rule="evenodd" d="M19 7c0 3.866-3.134 7-7 7-2.3909 0-4.50184-1.1987-5.76464-3.0279C6.15988 10.9903 6.08107 11 6 11H4c-1.10457 0-2-.8954-2-2V5c0-.55228.44772-1 1-1s1 .44772 1 1v4h1.28988C5.10128 8.36629 5 7.69497 5 7c0-3.86599 3.13401-7 7-7 3.866 0 7 3.13401 7 7Zm4 17c-1.2608-5.1757-5.7077-9-11-9-5.29229 0-9.73916 3.8243-11 9h22ZM22 5c0-.55228-.4477-1-1-1s-1 .44772-1 1v4c0 .55228.4477 1 1 1s1-.44772 1-1V5ZM8 10c0-.55229.44772-1 1-1h2c.5523 0 1 .44771 1 1 0 .5523-.4477 1-1 1H9c-.55228 0-1-.4477-1-1Z" clip-rule="evenodd"/></svg>