<svg xmlns="http://www.w3.org/2000/svg" width="24" height="24" fill="none" viewBox="0 0 24 24"><path fill="#262626" fill-rule="evenodd" d="m14 0 1.195 3.58361c.168.0638.3335.13247.4965.20586l3.3796-1.68896 2.8284 2.82842-1.689 3.37956c.0734.16297.1421.32853.2059.49648L24 10v4l-3.584 1.196c-.0638.168-.1325.3335-.2059.4965l1.6894 3.3786-2.8284 2.8284-3.3786-1.6894c-.163.0734-.3285.1421-.4965.2059L14 24h-4l-1.19503-3.5836c-.16795-.0638-.33351-.1325-.49648-.2059l-3.37956 1.689-2.82842-2.8284 1.68896-3.3796c-.07339-.163-.14206-.3285-.20586-.4965L0 14v-4l3.58323-1.19403c.0639-.1683.13271-.33418.20624-.49748L2.10051 4.92893l2.82842-2.82842 3.37956 1.68896c.1633-.07353.32918-.14234.49748-.20624L10 0h4Zm-2 8c2.2091 0 4 1.79086 4 4 0 2.2091-1.7909 4-4 4-2.20914 0-4-1.7909-4-4 0-2.20914 1.79086-4 4-4Z" clip-rule="evenodd"/></svg>