<svg xmlns="http://www.w3.org/2000/svg" width="24" height="24" fill="none" viewBox="0 0 24 24"><path fill="#262626" fill-rule="evenodd" d="m14 0 1.195 3.58361c.168.0638.3335.13247.4965.20586l3.3796-1.68896 2.8284 2.82842-1.689 3.37956c.0734.16297.1421.32853.2059.49648L24 10v4l-3.584 1.196c-.0638.168-.1325.3335-.2059.4965l1.6894 3.3786-2.8284 2.8284-3.3786-1.6894c-.163.0734-.3285.1421-.4965.2059L14 24h-4l-1.19503-3.5836c-.16795-.0638-.33351-.1325-.49648-.2059l-3.37956 1.689-2.82842-2.8284 1.68896-3.3796c-.07339-.163-.14206-.3285-.20586-.4965L0 14v-4l3.58323-1.19403c.0639-.1683.13271-.33418.20624-.49748L2.10051 4.92893l2.82842-2.82842 3.37956 1.68896c.1633-.07353.32918-.14234.49748-.20624L10 0h4Zm-1.442 2h-1.117l-1.0377 3.11605-.88739.33694-.19435.07716-.19188.08296-.86585.3899L5.324 4.533l-.791.791 1.47001 2.93983-.3899.86585-.08296.19188-.07716.19435-.33694.88739L2 11.441v1.117l3.11638 1.0399.3369.887.07703.1939.0828.1915.3899.8659L4.533 18.675l.791.791 2.93983-1.469.86585.3899.1915.0828.19395.077.88697.3369L11.441 22h1.117l1.0411-3.1167.8865-.3369.194-.077.1915-.0829.8662-.3901 2.9387 1.4686.789-.789-1.4686-2.9387.3901-.8662.0829-.1915.077-.194.3369-.8865L22 12.558v-1.117l-3.1164-1.0389-.3369-.88697-.077-.19395-.0828-.1915-.3899-.86585L19.466 5.324l-.791-.791-2.9388 1.47001-.8659-.3899-.1915-.0828-.1939-.07703-.887-.3369L12.558 2ZM12 8c2.2091 0 4 1.79086 4 4 0 2.2091-1.7909 4-4 4-2.20914 0-4-1.7909-4-4 0-2.20914 1.79086-4 4-4Zm0 2c-1.1046 0-2 .8954-2 2s.8954 2 2 2 2-.8954 2-2-.8954-2-2-2Z" clip-rule="evenodd"/></svg>