<svg xmlns="http://www.w3.org/2000/svg" width="24" height="24" fill="none" viewBox="0 0 24 24"><path fill="#262626" fill-rule="evenodd" d="M11.1794 2.30094c.3783-.38702.996-.40278 1.3935-.03555l4.036 3.72759H22v6.10872h-3.3986l-5.7175-5.71745v-.00003l-1.4142-1.41421-3.18192 3.18197c-.39052.39052-1.02369.39052-1.41421 0l-.71506-.71507 5.02089-5.13597Zm.2903 5.49752L9.70198 9.56618c-1.17156 1.17162-3.07105 1.17162-4.24261.00001l-.71507-.71507c-.7748-.7748-.7819-2.02878-.01593-2.8123l.04482-.04585H2l.00002 6.58183 8.39518 8.284c.1918.1893.4995.1913.6939.0046.201-.193.2042-.5134.0072-.7104l-1.0409-1.0409 1.4142-1.4142 1.7678 1.7677c.1953.1953.5118.1953.7071 0 .1953-.1953.1953-.5118 0-.7071l-1.7677-1.7677-.0001-.0001 1.4142-1.4142.0001.0001 1.7677 1.7677.7071.7071c.1953.1953.5119.1953.7071 0 .1953-.1952.1953-.5118 0-.7071l-2.4748-2.4748v-.0001l1.4142-1.4142 2.4748 2.4749.7071.7071c.1953.1953.5119.1953.7072 0 .1952-.1953.1952-.5118 0-.7071l-8.1317-8.13164ZM6.72837 3.99298 9.74926.90285C10.8843-.258223 12.7371-.3055 13.9299.796174l3.4612 3.196816H24V14.1017h-3.3986l.4142.4142c.9763.9763.9763 2.5592 0 3.5355-.6284.6284-1.508.8523-2.3155.6718-.1209.2692-.2919.5214-.513.7424-.6283.6284-1.5079.8523-2.3154.6719-.1209.2691-.2919.5213-.513.7423-.6355.6356-1.5281.8574-2.3431.6655-.127.2774-.3074.5362-.5411.7606-.976.9373-2.52089.9269-3.48409-.0235L.00003125 13.4111 0 3.99298h6.72837Z" clip-rule="evenodd"/></svg>