<svg xmlns="http://www.w3.org/2000/svg" width="24" height="24" fill="none" viewBox="0 0 24 24"><path fill="#262626" d="M5.49997 3.90629H0l.00003136 9.52031L9.91153 23.0653c.55937.5573 1.45087.5818 2.03947.056.5105-.4561.6359-1.1814.3639-1.7688l.3543.3577c.5858.5914 1.5355.5914 2.1213 0 .5858-.5914.5858-1.5503 0-2.1417l.7173.7242c.5858.5914 1.5355.5914 2.1213 0 .5858-.5914.5858-1.5503 0-2.1417l.6969.7036c.5858.5914 1.5356.5914 2.1213 0 .5858-.5915.5858-1.5503 0-2.1418l-8.1317-8.20986-2.1213 2.14166c-1.17156 1.1829-3.07106 1.1829-4.24263 0L3.83035 8.50294c-.69195-.6986-.77089-1.78173-.23682-2.56807l1.90644-2.02858Z"/><path fill="#262626" d="M10.6416 1.62619 5.95167 6.36122c-.39053.39428-.39053 1.03353 0 1.42781l.7071.71391c.78105.78856 2.04738.78856 2.82843 0l2.8284-2.85562L19 12.488h5V3.9063h-6.6094l-3.0937-2.88687c-.7927-.697434-2.25-.867634-3.6553.60676Z"/></svg>