<svg xmlns="http://www.w3.org/2000/svg" width="24" height="24" fill="none" viewBox="0 0 24 24"><path fill="#262626" fill-rule="evenodd" d="m14 6.93671-1.7327.23365c-3.57126.48157-6.0822 2.4773-7.75605 5.25264-.90962 1.5082-1.56365 3.2401-1.97579 5.0492.48392-.6158 1.00963-1.2259 1.57764-1.8107 1.91133-1.9677 4.40094-3.7493 7.4824-4.3856L14 10.7794v3.3795l7.2613-5.11481L14 3.92931v3.0074ZM2.00483 21.8319c-.01822.0314-.03631.0627-.05428.094-.07113.1237-.14033.246-.20757.3667-.06568.1179-.1295.2343-.19147.3489C1.20695 23.279 0 23.0173 0 22.2926c0-.1618.00164753-.3242.00495931-.487.00290014-.1425.00707649-.2854.01254039-.4286.0013244-.0347.0027245-.0694.0042005-.1042C.32595 14.1118 3.85178 6.28706 12 5.1883V2.00175c0-.81036.9134-1.284208 1.5759-.81755l9.9978 7.04234c.5655.39834.5655 1.23675 0 1.63509L13.5759 16.904c-.6625.4666-1.5759-.0072-1.5759-.8176v-2.8518c-.6969.1439-1.3636.3598-2 .6339-3.67899 1.585-6.34551 5.1186-7.99517 7.9634Z" clip-rule="evenodd"/></svg>