<svg xmlns="http://www.w3.org/2000/svg" width="24" height="24" fill="none" viewBox="0 0 24 24"><path fill="#262626" fill-rule="evenodd" d="M0 2h9c1.6569 0 3 1.34315 3 3v1.06189C8.72172 6.47069 6.05944 8.86302 5.25204 12 5.08751 12.6392 5 13.3094 5 14h16c0-.6906-.0875-1.3608-.252-2-.8074-3.13698-3.4697-5.52931-6.748-5.93811V5c0-2.76142-2.2386-5-5-5H0v2Zm9 15c0-.5523-.44772-1-1-1s-1 .4477-1 1v1c0 .5523.44772 1 1 1s1-.4477 1-1v-1Zm9-1c.5523 0 1 .4477 1 1v1c0 .5523-.4477 1-1 1s-1-.4477-1-1v-1c0-.5523.4477-1 1-1Zm-4 1c0-.5523-.4477-1-1-1s-1 .4477-1 1v1c0 .5523.4477 1 1 1s1-.4477 1-1v-1Zm-1 4c.5523 0 1 .4477 1 1v1c0 .5523-.4477 1-1 1s-1-.4477-1-1v-1c0-.5523.4477-1 1-1Zm-4 1c0-.5523-.44772-1-1-1s-1 .4477-1 1v1c0 .5523.44772 1 1 1s1-.4477 1-1v-1Zm9-1c.5523 0 1 .4477 1 1v1c0 .5523-.4477 1-1 1s-1-.4477-1-1v-1c0-.5523.4477-1 1-1Zm.6586-9H7.34141C8.16508 9.66961 10.3876 8 13 8s4.8349 1.66961 5.6586 4Z" clip-rule="evenodd"/></svg>