<svg xmlns="http://www.w3.org/2000/svg" width="24" height="24" fill="none" viewBox="0 0 24 24"><path fill="#262626" fill-rule="evenodd" d="M0 2h9c1.6569 0 3 1.34315 3 3v1.06189C8.05369 6.55399 5 9.92038 5 14h16c0-4.07962-3.0537-7.44601-7-7.93811V5c0-2.76142-2.2386-5-5-5H0v2Zm9 15c0-.5523-.44772-1-1-1s-1 .4477-1 1v1c0 .5523.44772 1 1 1s1-.4477 1-1v-1Zm9-1c.5523 0 1 .4477 1 1v1c0 .5523-.4477 1-1 1s-1-.4477-1-1v-1c0-.5523.4477-1 1-1Zm-4 1c0-.5523-.4477-1-1-1s-1 .4477-1 1v1c0 .5523.4477 1 1 1s1-.4477 1-1v-1Zm-1 4c.5523 0 1 .4477 1 1v1c0 .5523-.4477 1-1 1s-1-.4477-1-1v-1c0-.5523.4477-1 1-1Zm-4 1c0-.5523-.44772-1-1-1s-1 .4477-1 1v1c0 .5523.44772 1 1 1s1-.4477 1-1v-1Zm9-1c.5523 0 1 .4477 1 1v1c0 .5523-.4477 1-1 1s-1-.4477-1-1v-1c0-.5523.4477-1 1-1Z" clip-rule="evenodd"/></svg>