<svg xmlns="http://www.w3.org/2000/svg" width="24" height="24" fill="none" viewBox="0 0 24 24"><path fill="#262626" fill-rule="evenodd" d="M3.70718 23 22.7072 3.45479 21.293 2l-3.9709 4.08485c-1.7087-.86357-3.506-1.30006-5.3819-1.30006-4.32403 0-8.14287 2.30867-11.452482 6.63461l-.48674144.6362.48674144.6362c1.700312 2.2224 3.535502 3.916 5.515212 5.037l-3.70996 3.8164L3.70718 23Zm3.77912-6.7972c-1.69538-.8469-3.3397-2.2149-4.9234-4.1473 2.91497-3.55762 6.0396-5.21332 9.3773-5.21332.0656 0 .1311.00063.1965.00191-1.2336.03449-2.45725.53602-3.3988 1.50458C6.90127 10.238 6.79217 13.2315 8.41062 15.252l-.92432.9508Zm2.34974-2.4171c-.8438-1.206-.73844-2.8975.31606-3.98224 1.0545-1.08478 2.6988-1.19316 3.8712-.32514L9.83604 13.7857Zm5.61266-5.77371.363-.37343c-.8991-.3839-1.8192-.62799-2.7625-.73447.8597.13815 1.6911.50745 2.3995 1.1079Zm6.2584 1.61497-8 8.22954c-.3905.4018-1.0237.4018-1.4142 0-.3905-.4017-.3905-1.053 0-1.4548l8-8.22953c.3905-.40173 1.0237-.40173 1.4142 0 .3905.40173.3905 1.05306 0 1.45479Zm2 3.08604c.3905-.4017.3905-1.053 0-1.4547-.3905-.4018-1.0237-.4018-1.4142 0l-4 4.1147c-.3905.4018-.3905 1.0531 0 1.4548.3905.4018 1.0237.4018 1.4142 0l4-4.1148Z" clip-rule="evenodd"/></svg>