<svg xmlns="http://www.w3.org/2000/svg" width="24" height="24" fill="none" viewBox="0 0 24 24"><path fill="#262626" fill-rule="evenodd" d="M24 12c-3.5817-4.66667-7.5817-7-12-7-4.41828 0-8.41828 2.33333-12 7 3.58172 4.6667 7.58172 7 12 7 4.4183 0 8.4183-2.3333 12-7Zm-12 5c2.7614 0 5-2.2386 5-5 0-2.76142-2.2386-5-5-5-2.76142 0-5 2.23858-5 5 0 2.7614 2.23858 5 5 5Zm3-5c0 1.6569-1.3431 3-3 3s-3-1.3431-3-3 1.3431-3 3-3 3 1.3431 3 3Zm-3 1c.5523 0 1-.4477 1-1s-.4477-1-1-1-1 .4477-1 1 .4477 1 1 1Z" clip-rule="evenodd"/></svg>