<svg xmlns="http://www.w3.org/2000/svg" width="24" height="24" fill="none" viewBox="0 0 24 24"><path fill="#262626" fill-rule="evenodd" d="M22.7072 3.45479 3.70718 23l-1.41421-1.4548L6.12816 17.6C3.9683 16.3964 1.92575 14.5364.00048828 12.0199 3.69075 7.1965 7.81196 4.78479 12.3641 4.78479c1.781 0 3.4961.36916 5.1452 1.1075L21.293 2l1.4142 1.45479ZM9.47208 8.56642c-1.61984 1.66628-1.79051 4.25888-.51201 6.12038l1.40153-1.4418c-.2821-.4658-.42084-.9974-.41617-1.5278.00633-.7191.27617-1.4362.80947-1.98479.5334-.54864 1.2304-.82621 1.9294-.83273.5157-.0048 1.0324.13792 1.4852.42817l1.2522-1.28814c-1.8095-1.31518-4.3298-1.13962-5.94962.52671ZM21.7071 9.62696c.3905-.40173.3905-1.05306 0-1.45479-.3905-.40173-1.0237-.40173-1.4142 0l-8 8.22953c-.3905.4018-.3905 1.0531 0 1.4548.3905.4018 1.0237.4018 1.4142 0l8-8.22954Zm2 1.63134c.3905.4017.3905 1.053 0 1.4547l-4 4.1148c-.3905.4018-1.0237.4018-1.4142 0-.3905-.4017-.3905-1.053 0-1.4548l4-4.1147c.3905-.4018 1.0237-.4018 1.4142 0Z" clip-rule="evenodd"/></svg>