<svg xmlns="http://www.w3.org/2000/svg" width="24" height="24" fill="none" viewBox="0 0 24 24"><path fill="#262626" fill-rule="evenodd" d="M17.2759.794173C16.307-.244115 14.667-.262228 13.6754.754399L9.74143 4.78746C9.649 3.25294 8.37333 1.99998 6.77509 1.99998c-.91629 0-1.7136.62699-1.92966 1.51743L4.0564 6.76928c-.03747.1544-.0564.31271-.0564.4716V12h2V7.24088l.78636-3.24083c.57736.00652 1.02269.51337.95295 1.08821l-.23205 1.91259c-.03833.316.07606.63137.30807.84931l.03748.0352c.88392.8303 1.16911 2.11724.71871 3.24324l1.85698.7428c.6009-1.5023.4217-3.17526-.4222-4.49831.0254-.0213.0499-.04405.0735-.06825l5.0273-5.15393c.1946-.19953.5165-.19597.7066.00781.1762.18872.175.4819-.0026.66923l-2.9302 3.09061c-.38.40079-.3631 1.03373.0377 1.41371.4008.37999 1.0337.36312 1.4137-.03767l.6588-.69485.0179.01848 4.1358-4.00055c.2072-.20048.5351-.20389.7464-.00776.2293.21271.2318.57467.0055.79054l-4.587 4.37598c-.3871.36934-.415.97797-.0632 1.38109l1.064 1.21917c.7167.8212.6439 2.0651-.1638 2.797l-.8182.7416 1.343 1.4819.8182-.7415c1.6154-1.4639 1.7611-3.9517.3277-5.5941l-.435-.49838 3.8949-3.71565c1.0601-1.01139 1.0484-2.70718-.0257-3.70378-.9904-.918856-2.5263-.902887-3.4973.03636l-.1166.11275c-.0974-.17696-.218-.344676-.3618-.498727ZM2 17.6C2 16.195 3.18687 15 4.72128 15c1.03171 0 1.93809.5443 2.39786 1.3132l.29108.4868h4.75358c.5069 0 .8607.3891.8607.8 0 .4108-.3538.8-.8607.8H8.44257v2h3.72123c1.0902 0 2.0633-.6061 2.5438-1.5153l6.5068-1.22c.238-.0446.4814.0444.6345.2321.2829.3467.1471.8684-.2689 1.0332l-7.5852 3.0061c-.1065.0422-.2201.0639-.3347.0639H2v-4.4Zm18.8458-1.901-5.9353 1.1128c-.3508-1.1784-1.4682-2.0118-2.7467-2.0118H8.49893C7.62226 13.6954 6.23291 13 4.72128 13 2.14528 13 0 15.0285 0 17.6V24h13.6601c.3669 0 .7305-.0694 1.0716-.2046l7.5852-3.0061c1.6735-.6632 2.2197-2.7619 1.0818-4.1568-.616-.755-1.5952-1.1131-2.5529-.9335Z" clip-rule="evenodd"/></svg>