<svg xmlns="http://www.w3.org/2000/svg" width="24" height="24" fill="none" viewBox="0 0 24 24"><path fill="#262626" d="m14.6641 5.80415 3.1781-3.29231c.5479-.56749.5553-1.46429.017-2.04081-.5775-.618573-1.5551-.629366-2.1462-.023696L10.6778 5.60681l.006.00594-.1246.12569-.1787 1.32391c1.4141 1.26011 2.1404 3.08915 2.0171 4.93325h-1.0032c.0137-.1719.0187-.3437.0149-.5148-.0304-1.4077-.6478-2.76707-1.74761-3.72008-.18893-.16372-.29425-.40135-.29139-.64789.00047-.03372.00295-.0676.00752-.10148l.32799-2.43129c.15815-1.17154-.75284-2.21377-1.93501-2.21377-.4505 0-.8425.30825-.94875.74604l-.79126 3.26051c-.01874.07721-.02821.15638-.02821.23583V14.166c.99838.2698 1.87811.8475 2.49999 1.6309H10.38l.0009-.0031h1.0437l-.0009.0031h.7457c1.2109 0 2.2775.7473 2.6855 1.8272l.1178-.0187 3.0695-2.9535c1.6646-1.6017 1.6296-4.2759-.0765-5.83346l-.7029-.64173 5.0807-5.28816c.5451-.56737.5515-1.46164.0146-2.036728-.5786-.619632-1.5584-.628696-2.1483-.019873L15.0503 6.15674l-.3862-.35259Z"/><path fill="#262626" d="M12.1696 16.7973H7.98101c-.64376-1.0764-1.87969-1.8006-3.2578-1.8006C2.66694 14.9967 1 16.609 1 18.5979v5.402h12.6667c.2409 0 .4795-.0456.7034-.1343l7.5692-2.9992c1.0551-.4181 1.3995-1.7413.682-2.6207-.3779-.4632-.9737-.6903-1.564-.5963l-5.9563.9485c0 1.5677-1.2708 2.8386-2.8385 2.8386H8.44641v-1.0379h3.72319c1.0282 0 1.8616-.8062 1.8616-1.8007 0-.9944-.8334-1.8006-1.8616-1.8006Z"/></svg>