<svg xmlns="http://www.w3.org/2000/svg" width="25" height="24" fill="none" viewBox="0 0 25 24"><path fill="#262626" fill-rule="evenodd" d="M20.4694 2.11485c-.7678-1.149518-2.3221-1.458966-3.4716-.69116l-.0066.00442-3.1111 2.15044c.0212-.72467-.2744-1.45159-.8673-1.95822-1.0405-.889045-2.6047-.766305-3.4937.27417L3.5348 9.00003H0V20h3.83773l4.7864 1.5955c.8038.2679 1.64557.4045 2.49287.4045H16.5c1.3807 0 2.5-1.1193 2.5-2.5 0-.2634-.0407-.5172-.1162-.7556.5067 1.0656 1.7169 1.6527 2.8988 1.336 1.3313-.3567 2.1213-1.7251 1.7646-3.0564l-1.5383-5.7411c-.1853-.6915-.7382-1.2236-1.4363-1.38234l-.0256-.00582-.2314-.03998 1.8933-.62094c1.2951-.36423 2.0599-1.70349 1.7107-3.0067-.3643-1.35977-1.7926-2.13948-3.1343-1.70542l-.0127.00411-.1178.04163c.3589-.76764.3186-1.69806-.1854-2.45259ZM3 18v-7H2v7h1Zm2 .2793 4.25658 1.4188c.59988.2 1.22802.3019 1.86042.3019H16.5c.2761 0 .5-.2238.5-.5 0-.2761-.2239-.5-.5-.5h-2.4677c-1.0115 0-1.936-.5714-2.3884-1.476-.514-1.028-.3125-2.2696.5002-3.0823l1.4812-1.4812c.2949-.2948.6947-.4605 1.1117-.4605h3.2198c.7748 0 1.452.5229 1.6481 1.2725l1.0524 4.0228c.0695.2659.3422.4244.6076.3533.2644-.0709.4213-.3426.3504-.6069l-1.5263-5.6965-4.0718-.7035c-.4525-.0782-.7936-.4546-.827-.9126-.0335-.45798.2493-.8799.6857-1.02302l5.7588-1.88876.0266-.00713c.2463-.066.3924-.31915.3265-.56543-.0679-.25324-.33-.39757-.5776-.32304l-6.3401 2.23994c-.4763.16828-1.0033-.04509-1.2284-.49734-.2251-.45226-.0775-1.00134.3439-1.27984l4.4957-2.97075c.2199-.15775.2759-.46211.125-.68802-.1532-.22937-.4622-.2923-.6927-.14213l-7.67 5.30156c-.4134.28574-.97462.22031-1.31118-.15286-.33657-.37317-.34392-.93815-.01718-1.31996l2.66126-3.10966c.1607-.20106.1334-.49404-.0629-.66181-.2001-.17093-.5005-.14797-.6723.05093L5 10.365v7.9143Zm13.7224.0222c.0111.0424.0232.0843.0363.1257C18.3572 17.5833 17.4967 17 16.5 17h-2.4677c-.2539 0-.486-.1434-.5995-.3705-.129-.258-.0784-.5696.1255-.7736L14.9142 14.5h2.8137l.9945 3.8015Z" clip-rule="evenodd"/></svg>