<svg xmlns="http://www.w3.org/2000/svg" width="24" height="24" fill="none" viewBox="0 0 24 24"><path fill="#262626" fill-rule="evenodd" d="M12.5086 4.44167 9.85051 7.56059l7.64619-5.30728c.6874-.46104 1.6168-.27523 2.076.41503.4535.68184.2791 1.60286-.3919 2.07001l-4.4886 2.97849 7.4051-2.5198c.7926-.25752 1.6371.20471 1.8527 1.01279.2081.77975-.2527 1.58124-1.0292 1.79017l-6.7841 2.1543 4.1461.7194c.3349.0765.6002.3329.6891.6661l1.5319 5.7411c.2129.7978-.2586 1.6179-1.0531 1.8317-.7978.2146-1.6172-.2637-1.8263-1.0661l-1.0479-4.0228c-.0807-.3097-.3592-.5256-.6779-.5256h-3.2064c-.1511 0-.296.0603-.4028.1675l-1.4751 1.4813c-.5062.5083-.6317 1.2849-.3115 1.9279.2817.5659.8576.9233 1.4876.9233h3.4533c.825 0 1.4938.6716 1.4938 1.5s-.6688 1.5-1.4938 1.5h-6.3564c-.7367 0-1.46862-.1193-2.16754-.3532L4 18.9981V9.99809l6.2532-7.4559c.5281-.62059 1.4571-.69381 2.0751-.16354.61.5234.6902 1.44096.1803 2.06302ZM3 9H0v11h3V9Z" clip-rule="evenodd"/></svg>