<svg xmlns="http://www.w3.org/2000/svg" width="24" height="24" fill="none" viewBox="0 0 24 24"><path fill="#262626" fill-rule="evenodd" d="M9 4.5C9 5.88071 7.88071 7 6.5 7S4 5.88071 4 4.5 5.11929 2 6.5 2 9 3.11929 9 4.5Zm2 0C11 6.98528 8.98528 9 6.5 9S2 6.98528 2 4.5 4.01472 0 6.5 0 11 2.01472 11 4.5Zm10 8c0 .8284-.6716 1.5-1.5 1.5s-1.5-.6716-1.5-1.5.6716-1.5 1.5-1.5 1.5.6716 1.5 1.5Zm2 0c0 1.933-1.567 3.5-3.5 3.5S16 14.433 16 12.5 17.567 9 19.5 9s3.5 1.567 3.5 3.5Zm-23 4C0 12.9101 2.91015 10 6.5 10c3.5899 0 6.5 2.9101 6.5 6.5V24h-2v-7.5c0-2.4853-2.01472-4.5-4.5-4.5S2 14.0147 2 16.5V24H0v-7.5Zm19.5.5c-2.4853 0-4.5 2.0147-4.5 4.5V24h2v-2.5c0-1.3807 1.1193-2.5 2.5-2.5s2.5 1.1193 2.5 2.5V24h2v-2.5c0-2.4853-2.0147-4.5-4.5-4.5Z" clip-rule="evenodd"/></svg>