<svg xmlns="http://www.w3.org/2000/svg" width="24" height="25" fill="none" viewBox="0 0 24 25"><path fill="#262626" fill-rule="evenodd" d="M12 .941994C10.5958-.341525 8.40996-.306561 7.04832 1.04689c-1.36089 1.35269-1.39679 3.52368-.10769 4.91954l-.00235.00233L12 11l5.0617-5.03124-.0023-.00233c1.2891-1.39586 1.2532-3.56685-.1077-4.91954C15.59-.306561 13.4042-.341525 12 .941994ZM9.00037 14H14c1.1046 0 2 .8954 2 2s-.8954 2-2 2h-4v2.0248h4.0176c2.1865 0 3.9591-1.7725 3.9591-3.959 0-.8329-.2572-1.6058-.6966-2.2434l3.095-2.36c.8572-.6537 2.057-.6097 2.864.105.9481.8396 1.0197 2.2949.1586 3.2235l-7.9602 8.5841-.0003-.0049c-.3648.3884-.8831.6309-1.458.6309H0v-2.9557c0-.0151.00016825-.0302.00050298-.0453H0v-4c0-2.7614 2.23858-5 5-5 1.63582 0 3.08816.7856 4.00037 2Z" clip-rule="evenodd"/></svg>