<svg xmlns="http://www.w3.org/2000/svg" width="24" height="24" fill="none" viewBox="0 0 24 24"><path fill="#262626" fill-rule="evenodd" d="M10.6507 2.41823 12 3.65158l1.3493-1.23335c.6201-.56674 1.5913-.5504 2.1924.04713.5948.5912.6103 1.53569.0484 2.14416l-.0236.02549L12 8.18009 8.43346 4.63502l-.02354-.0255c-.56194-.60848-.54644-1.55296.04833-2.14415.60116-.59754 1.57235-.61388 2.19245-.04714Zm6.301-1.37134c1.3609 1.35269 1.3968 3.52367.1077 4.91954l.0023.00233L12 11 6.93828 5.96876l.00235-.00233c-1.2891-1.39586-1.2532-3.56685.10769-4.91954C8.40996-.306561 10.5958-.341525 12 .941994c1.4042-1.283519 3.59-1.248555 4.9517.104896Zm6.1699 9.88071c-1.1468-1.17178-3.0115-1.24129-4.2426-.1581l-4.2243 3.7167C14.1832 14.1788 13.6199 14 13.0148 14H9.04443c-.9226-1.2187-2.40749-2-4.03872-2C2.24113 12 0 14.2386 0 17v7h13.5611c1.2144 0 2.3693-.5246 3.1676-1.4386l6.5116-7.4567c1.0569-1.2103 1.0052-3.0287-.1187-4.1771ZM16.0183 17c0-.3214-.0506-.631-.1443-.9213l4.3285-3.8084c.4316-.3798 1.0853-.3554 1.4873.0554.394.4026.4121 1.04.0416 1.4643l-6.5117 7.4567c-.4179.4786-1.0227.7533-1.6586.7533H2.00228v-5c0-1.6568 1.34468-3 3.00343-3 1.12017 0 2.12157.61 2.6374 1.5007L7.93226 16h5.08254c.553 0 1.0012.4477 1.0012 1s-.4482 1-1.0012 1H9.01028v2h4.00452c1.6588 0 3.0035-1.3431 3.0035-3Z" clip-rule="evenodd"/></svg>