<svg xmlns="http://www.w3.org/2000/svg" width="24" height="24" fill="none" viewBox="0 0 24 24"><path fill="#262626" fill-rule="evenodd" d="M20 0c2.1422 0 3.8911 1.68397 3.9951 3.80036L24 4v11c0 2.1422-1.684 3.8911-3.8004 3.9951L20 19H7l-7 5V4C0 1.8578 1.68397.108921 3.80036.00489531L4 0h16Zm0 2-16.14926.00549c-.98312.07253-1.7686.85574-1.8447 1.83786L2 4v16l4-3h14c.9856-.0727 1.9079-.8646 1.9935-1.8507L22 15l-.0055-11.14926c-.0725-.98312-.8557-1.7686-1.8378-1.8447L20 2Z" clip-rule="evenodd"/></svg>