<svg xmlns="http://www.w3.org/2000/svg" width="24" height="24" fill="none" viewBox="0 0 24 24"><path fill="#262626" fill-rule="evenodd" d="M3 2c-.55228 0-1 .44772-1 1v6c0 2.2091 1.79086 4 4 4s4-1.7909 4-4V3c0-.55228-.44772-1-1-1H7V0h2c1.6569 0 3 1.34315 3 3v6c0 2.973-2.16229 5.441-5 5.917V21c0 .5523.44772 1 1 1s1-.4477 1-1v-1.5c0-2.4853 2.0147-4.5 4.5-4.5h2.626c.4441-1.7252 2.0102-3 3.874-3 2.2091 0 4 1.7909 4 4 0 2.2091-1.7909 4-4 4-1.8638 0-3.4299-1.2748-3.874-3H13.5c-1.3807 0-2.5 1.1193-2.5 2.5V21c0 1.6569-1.34315 3-3 3s-3-1.3431-3-3v-6.083C2.16229 14.441 0 11.973 0 9V3c0-1.65685 1.34315-3 3-3h2v2H3Zm17 16c1.1046 0 2-.8954 2-2s-.8954-2-2-2-2 .8954-2 2 .8954 2 2 2Z" clip-rule="evenodd"/></svg>