<svg xmlns="http://www.w3.org/2000/svg" width="24" height="24" fill="none" viewBox="0 0 24 24"><path fill="#262626" fill-rule="evenodd" d="M9.5 17c1.933 0 3.5 1.567 3.5 3.5S11.433 24 9.5 24 6 22.433 6 20.5 7.567 17 9.5 17Zm9 0c1.933 0 3.5 1.567 3.5 3.5S20.433 24 18.5 24 15 22.433 15 20.5s1.567-3.5 3.5-3.5Zm-9 2c-.82843 0-1.5.6716-1.5 1.5S8.67157 22 9.5 22c.8284 0 1.5-.6716 1.5-1.5S10.3284 19 9.5 19Zm9 0c-.8284 0-1.5.6716-1.5 1.5s.6716 1.5 1.5 1.5 1.5-.6716 1.5-1.5-.6716-1.5-1.5-1.5ZM16 0c4.0793 0 7.4455 3.0532 7.938 6.99904L24 7v3c0 3.3137-2.6863 6-6 6h-8c-3.31371 0-6-2.6863-6-6V8.14286C4 5.91814 2.31001 4.11245.199093 4.00505L0 4V2c2.93761 0 5.37402 2.15791 5.89641 5.00078L13.629 6.999 13.6296 0H16ZM6 10c0 2.1422 1.68397 3.8911 3.80036 3.9951L10 14h8c2.1422 0 3.8911-1.684 3.9951-3.8004L22 10V7.623l-.0466-.37624c-.3624-2.90301-2.787-5.12704-5.7149-5.24208L16 2l-.371-.001-.0002 6.99979L6 8.999V10Z" clip-rule="evenodd"/></svg>