<svg xmlns="http://www.w3.org/2000/svg" width="24" height="24" fill="none" viewBox="0 0 24 24"><path fill="#262626" fill-rule="evenodd" d="M12 1c.5063 0 .9167.41041.9167.91667V3.75c0 .50626-.4104.91667-.9167.91667s-.9167-.41041-.9167-.91667V1.91667C11.0833 1.41041 11.4937 1 12 1ZM12 19.3333c.5063 0 .9167.4104.9167.9167v1.8333c0 .5063-.4104.9167-.9167.9167s-.9167-.4104-.9167-.9167V20.25c0-.5063.4104-.9167.9167-.9167ZM19.3333 12c0-.5063.4104-.9167.9167-.9167h1.8333c.5063 0 .9167.4104.9167.9167s-.4104.9167-.9167.9167H20.25c-.5063 0-.9167-.4104-.9167-.9167ZM1 12c0-.5063.41041-.9167.91667-.9167H3.75c.50626 0 .91667.4104.91667.9167s-.41041.9167-.91667.9167H1.91667C1.41041 12.9167 1 12.5063 1 12ZM4.22183 4.22183c.35798-.35798.93838-.35798 1.29636 0l1.29636 1.29636c.35798.35798.35798.93838 0 1.29636-.35798.35798-.93838.35798-1.29636 0L4.22183 5.51819c-.35798-.35798-.35799-.93838 0-1.29636ZM17.1854 17.1854c.358-.3579.9384-.3579 1.2964 0l1.2964 1.2964c.358.358.358.9384 0 1.2964s-.9384.358-1.2964 0l-1.2964-1.2964c-.3579-.358-.3579-.9384 0-1.2964ZM17.1854 6.81455c-.3579-.35798-.3579-.93838 0-1.29636l1.2964-1.29637c.358-.35798.9384-.35798 1.2964 0 .358.35799.358.93839 0 1.29637l-1.2964 1.29636c-.358.35798-.9384.35798-1.2964 0ZM4.22183 19.7782c-.35798-.358-.35798-.9384 0-1.2964l1.29636-1.2964c.35798-.3579.93838-.3579 1.29636 0 .35798.358.35798.9384 0 1.2964l-1.29636 1.2964c-.35798.358-.93838.358-1.29636 0ZM12 16c2.2091 0 4-1.7909 4-4 0-2.20914-1.7909-4-4-4-2.20914 0-4 1.79086-4 4 0 2.2091 1.79086 4 4 4Zm0 2c3.3137 0 6-2.6863 6-6 0-3.31371-2.6863-6-6-6-3.31371 0-6 2.68629-6 6 0 3.3137 2.68629 6 6 6Z" clip-rule="evenodd"/></svg>