<svg xmlns="http://www.w3.org/2000/svg" width="24" height="24" fill="none" viewBox="0 0 24 24"><path fill="#262626" fill-rule="evenodd" d="M13.8081.399316 5.08803 15.9235C4.81982 16.4147 5.19684 17 5.78139 17H23.2186c.5923 0 .9687-.5995.685-1.0912L15.1865.38453c-.2996-.519353-1.0913-.51086-1.3784.014786Zm.6932 2.849784L7.90072 15H21.0996L14.5013 3.2491ZM13.5 5.99999h2v4h-2v-4ZM14.5 14c.8284 0 1.5-.6716 1.5-1.5s-.6716-1.5-1.5-1.5-1.5.6716-1.5 1.5.6716 1.5 1.5 1.5Zm8.5 8c0 1.1046-.8581 2-1.9167 2H1.91667C.858121 24 0 23.1046 0 22h23ZM3 5.99999h5.97997l-1.10089 2H3V19h17v-1h2v1c0 1.1046-.8954 2-2 2H3c-1.10457 0-2-.8954-2-2V7.99999c0-1.10457.89543-2 2-2Z" clip-rule="evenodd"/></svg>