<svg xmlns="http://www.w3.org/2000/svg" width="24" height="24" fill="none" viewBox="0 0 24 24"><path fill="#262626" fill-rule="evenodd" d="M3.79289 3.79289C4.30057 3.28522 4.98913 3 5.70711 3H18.2929c.7179 0 1.4066.28519 1.9143.79294.5075.50762.7928 1.19614.7928 1.91417V18.2929c0 .7179-.2853 1.4066-.7929 1.9142-.5076.5076-1.1963.7929-1.9142.7929H5.70711c-.71803 0-1.40655-.2853-1.91417-.7928C3.28519 19.6995 3 19.0108 3 18.2929V5.70711c0-.71798.28522-1.40654.79289-1.91422ZM5.70711 5c-.18754 0-.3674.0745-.5.20711-.13261.1326-.20711.31246-.20711.5v2.3815h14v-2.3815c0-.18749-.0745-.36739-.2072-.50005C18.6603 5.07453 18.4804 5 18.2929 5H5.70711ZM19 10.0886h-3V19h2.2929c.1875 0 .3674-.0745.5-.2071s.2071-.3125.2071-.5v-8.2043ZM14 19v-8.9114h-4V19h4Zm-6 0v-8.9114H5v8.2043c0 .1875.07453.3674.20706.4999.13266.1327.31256.2072.50005.2072H8Z" clip-rule="evenodd"/></svg>