<svg xmlns="http://www.w3.org/2000/svg" width="24" height="24" fill="none" viewBox="0 0 24 24"><path fill="#262626" fill-rule="evenodd" d="m6.54315 5.1566-1.5863 1.21805 2.03968 2.65634 3.99357-4.01311-1.41764-1.41076-2.3815 2.39314-.64781-.84366ZM11 8h6V6h-6v2Zm6 5h-6v-2h6v2Zm-6 5h6v-2h-6v2Zm-1.99998-6c0 .5523-.44771 1-1 1-.55228 0-1-.4477-1-1s.44772-1 1-1c.55229 0 1 .4477 1 1Zm-1 6c.55229 0 1-.4477 1-1s-.44771-1-1-1c-.55228 0-1 .4477-1 1s.44772 1 1 1ZM4 0C2.89543 0 2 .89543 2 2v20c0 1.1046.89543 2 2 2h16c1.1046 0 2-.8954 2-2V2c0-1.104569-.8954-2-2-2H4Z" clip-rule="evenodd"/></svg>