<svg xmlns="http://www.w3.org/2000/svg" width="24" height="24" fill="none" viewBox="0 0 24 24"><path fill="#262626" fill-rule="evenodd" d="M4 2h16v20H4V2ZM2 2c0-1.10457.89543-2 2-2h16c1.1046 0 2 .895431 2 2v20c0 1.1046-.8954 2-2 2H4c-1.10457 0-2-.8954-2-2V2Zm2.95682 4.37465L6.54313 5.1566l.64781.84366 2.3815-2.39314 1.41766 1.41076-3.99359 4.01311-2.03969-2.65634ZM17 8h-6V6h6v2Zm-6 5h6v-2h-6v2Zm6 5h-6v-2h6v2Zm-8-6c0 .5523-.44772 1-1 1s-1-.4477-1-1 .44772-1 1-1 1 .4477 1 1Zm-1 6c.55228 0 1-.4477 1-1s-.44772-1-1-1-1 .4477-1 1 .44772 1 1 1Z" clip-rule="evenodd"/></svg>