<svg xmlns="http://www.w3.org/2000/svg" width="24" height="24" fill="none" viewBox="0 0 24 24"><path fill="#262626" fill-rule="evenodd" d="M6.36562 5.9328C5.01344 5.6417 4 4.4392 4 3c0-1.65685 1.34315-3 3-3 1.4392 0 2.6417 1.01344 2.9328 2.36562C10.5773 2.1291 11.2735 2 12 2c.7265 0 1.4228.1291 2.0672.36562C14.3583 1.01344 15.5608 0 17 0c1.6569 0 3 1.34315 3 3 0 1.4392-1.0134 2.6417-2.3656 2.9328C17.8709 6.57725 18 7.27355 18 8c0 1.55877-.5944 2.9787-1.5689 4.0455l2.3303-.6244c1.0669-.2859 2.1636.3473 2.4495 1.4142.2858 1.0669-.3473 2.1636-1.4143 2.4495l-3.1577.8461C16.8718 16.7083 17 17.3392 17 18v1.2774c.4083-.1784.8593-.2774 1.3333-.2774H20.5c1.3807 0 2.5 1.1193 2.5 2.5S21.8807 24 20.5 24h-3.8333c-.6025 0-1.1303-.3197-1.4231-.7986-.6958.5025-1.5505.7986-2.4744.7986h-1.5384c-.9239 0-1.7786-.2961-2.4744-.7986-.29279.4789-.8206.7986-1.42307.7986H3.5C2.11929 24 1 22.8807 1 21.5S2.11929 19 3.5 19h2.16667c.47407 0 .92502.099 1.33333.2774V18c0-.6024.10651-1.1798.30173-1.7146L3.5675 15.2848c-1.06693-.2859-1.7001-1.3826-1.41421-2.4495.28588-1.0669 1.38256-1.7001 2.44949-1.4142l3.18733.854C6.68509 11.1869 6 9.67345 6 8c0-.72645.1291-1.42275.36562-2.0672ZM12 10c.5523 0 1-.44772 1-1 0-.55229-.4477-1-1-1s-1 .44771-1 1c0 .55228.4477 1 1 1Zm2 8c0 1.6569-.8954 3-2 3s-2-1.3431-2-3 .8954-3 2-3 2 1.3431 2 3Z" clip-rule="evenodd"/></svg>