<svg xmlns="http://www.w3.org/2000/svg" width="24" height="24" fill="none" viewBox="0 0 24 24"><path fill="#262626" fill-rule="evenodd" d="m7.50256 5.46703-.33075 1.22684C7.06015 7.10802 7 7.54543 7 8c0 2.7614 2.23858 5 5 5 2.7614 0 5-2.2386 5-5 0-.45457-.0602-.89199-.1718-1.30613l-.3308-1.22685.9701-.82066C17.7964 4.3681 18 3.95882 18 3.5c0-.82843-.6716-1.5-1.5-1.5-.4588 0-.8681.20357-1.1464.53248l-.8206.97008-1.2269-.33076C12.892 3.06015 12.4546 3 12 3s-.892.06015-1.3061.17181l-1.22687.33075-.82067-.97008C8.3681 2.20357 7.95882 2 7.5 2 6.67157 2 6 2.67157 6 3.5c0 .45882.20357.8681.53248 1.14636l.97008.82067ZM19 8c0 1.09191-.25 2.1254-.6959 3.0464l1.0076-.2699c1.6004-.4289 3.2454.5209 3.6742 2.1213.4289 1.6004-.5209 3.2454-2.1213 3.6742L19.2673 17H19.5c1.933 0 3.5 1.567 3.5 3.5S21.433 24 19.5 24h-15C2.567 24 1 22.433 1 20.5S2.567 17 4.5 17h.39138l-1.59727-.428c-1.6004-.4288-2.550147-2.0738-2.12132-3.6742.42882-1.6004 2.07383-2.5502 3.67423-2.1213l.82549.2211C5.24127 10.089 5 9.07267 5 8c0-.63197.08375-1.24438.24075-1.82674C4.48185 5.53124 4 4.57189 4 3.5 4 1.567 5.567 0 7.5 0c1.07189 0 2.03124.481847 2.6733 1.24075C10.7556 1.08375 11.368 1 12 1c.632 0 1.2444.08375 1.8267.24075C14.4688.481845 15.4281 0 16.5 0 18.433 0 20 1.567 20 3.5c0 1.07189-.4818 2.03124-1.2407 2.67326C18.9163 6.75562 19 7.36803 19 8Zm-7 7c-1.4939 0-2.73604 1.0939-2.96277 2.5241l-.07665.4836c.5526.5358 1.03933 1.3455 1.03933 2.4923 0 .565-.10906 1.0702-.26074 1.5h4.52163c-.1516-.4298-.2607-.935-.2607-1.5 0-1.1468.4867-1.9565 1.0393-2.4923l-.0766-.4836C14.736 16.0939 13.4939 15 12 15Zm7.5 7h-3.0181c-.0365-.0547-.075-.1161-.1136-.1836-.1922-.3365-.3682-.7902-.3682-1.3164 0-.5311.2158-.8688.4828-1.1047l.9574-.2484C17.8086 19.0514 18.1968 19 18.6 19h.9c.8284 0 1.5.6716 1.5 1.5s-.6716 1.5-1.5 1.5ZM7.51806 22c.03657-.0547.07503-.1161.11361-.1836.19224-.3365.36824-.7902.36824-1.3164 0-.5311-.21581-.8688-.48276-1.1047l-.9574-.2484C6.19139 19.0514 5.80317 19 5.4 19h-.9c-.82843 0-1.5.6716-1.5 1.5S3.67157 22 4.5 22h3.01806Zm-3.70631-7.3598 2.89777.7764c.53347.143 1.08181-.1736 1.22475-.7071.14294-.5335-.17364-1.0818-.70711-1.2247l-2.89777-.7765c-.53347-.1429-1.08181.1736-1.22475.7071-.14294.5335.17364 1.0818.70711 1.2248Zm13.63745.7764 2.8978-.7764c.5334-.143.85-.6913.7071-1.2248-.143-.5335-.6913-.85-1.2248-.7071l-2.8977.7765c-.5335.1429-.8501.6912-.7072 1.2247.143.5335.6913.8501 1.2248.7071ZM12 10c.5523 0 1-.44772 1-1 0-.55229-.4477-1-1-1s-1 .44771-1 1c0 .55228.4477 1 1 1Z" clip-rule="evenodd"/></svg>