<svg xmlns="http://www.w3.org/2000/svg" width="24" height="24" fill="none" viewBox="0 0 24 24"><path fill="#262626" fill-rule="evenodd" d="M5.37475 2.58637c.78087-.78152 2.0475-.78187 2.82881-.00079l3.69274 3.69169c.781.78078.7814 2.04682.0008 2.82804l-1.3089 1.30999 4.2543 4.2536 1.308-1.3091c.7809-.7815 2.0475-.7819 2.8288-.0008l3.2957 3.2947c.781.7808.7814 2.0468.0008 2.8281l-2.1801 2.1819c-1.2783 1.2793-3.2461 1.5648-4.8353.7015-5.39743-2.9321-9.83115-7.3653-12.76465-12.76183-.86338-1.5883-.57937-3.55577.69859-4.83478l2.18041-2.18222Z" clip-rule="evenodd"/></svg>