<svg xmlns="http://www.w3.org/2000/svg" width="24" height="24" fill="none" viewBox="0 0 24 24"><path fill="#262626" fill-rule="evenodd" d="M5.09973 2.0008c.78087-.78152 2.04749-.78187 2.8288-.00079l3.69277 3.69168c.781.78079.7813 2.04683.0008 2.82805l-1.3089 1.30995 4.2543 4.25361 1.308-1.3091c.7809-.7815 2.0475-.7819 2.8288-.0008L22 16.0681c.781.7808.7813 2.0469.0008 2.8281l-2.1801 2.1819c-1.2783 1.2794-3.2462 1.5649-4.8353.7016-5.39746-2.9322-9.83117-7.3653-12.76468-12.7619-.86338-1.5883-.57936-3.55577.69859-4.83478L5.09973 2.0008Zm5.10757 5.10531L6.51452 3.41443 4.33411 5.59665c-.65165.65218-.79665 1.65574-.35622 2.46598C6.72701 13.12 10.8821 17.2745 15.9401 20.0222c.8104.4403 1.8139.2947 2.4658-.3577l2.1801-2.1819-3.2957-3.2948-2.7221 2.7244-7.08296-7.08181 2.72206-2.72428Z" clip-rule="evenodd"/></svg>