<svg xmlns="http://www.w3.org/2000/svg" width="24" height="24" fill="none" viewBox="0 0 24 24"><path fill="#262626" fill-rule="evenodd" d="M23.4044 3.47125c.7941.7941.7941 2.08159 0 2.87569l-9.331 9.33096c-.7043.7043-1.6425 1.1257-2.6369 1.1842l-2.2836.1343c-.23123.0136-.45486-.0118-.66492-.0702l-3.78086 3.7809-1.41421-1.4142 3.78085-3.7809c-.05839-.21-.08377-.4337-.07017-.6649l.13433-2.2836c.05849-.9944.47984-1.9326 1.18413-2.63691L17.6531.595573c.7941-.794097 2.0815-.794097 2.8756 0l2.8757 2.875677ZM13.2929 9.29289l5-5 1.4142 1.41422-5 4.99999-1.4142-1.41421ZM.292893 22.2929l1.999997-2 1.41422 1.4142-2 2c-.39053.3905-1.023693.3905-1.414217 0-.3905241-.3905-.3905241-1.0237 0-1.4142Z" clip-rule="evenodd"/></svg>