<svg xmlns="http://www.w3.org/2000/svg" width="24" height="24" fill="none" viewBox="0 0 24 24"><path fill="#262626" fill-rule="evenodd" d="m21.9902 4.93272-9.331 9.33098c-.3579.358-.8348.5721-1.3401.6018l-2.28364.1344C9.03292 15 9.03088 15 9.02931 15c-.0023-.0001-.00364-.0003-.00419-.0004-.00111-.0002-.00194-.0004-.00288-.0008-.00224-.0008-.00703-.0033-.01237-.0087-.00534-.0053-.00784-.0101-.00872-.0123-.00037-.001-.0006-.0018-.00078-.0029-.00015-.001-.0006-.0041-.00023-.0104l.13433-2.2836c.02973-.5053.24386-.9822.6018-1.3401l9.33103-9.33101c.0058-.00587.0088-.00699.01-.00749.0026-.00104.0073-.0023.0136-.0023.0063 0 .011.00126.0136.0023l.0001.00003c.0012.00051.0042.0017.0099.00746l2.8757 2.87568c.0058.00575.007.00869.0075.00996v.00008c.001.00256.0023.00725.0023.01358 0 .00634-.0013.01103-.0023.01359v.00007c-.0005.00127-.0017.00421-.0075.00997Zm1.4142-1.46147c.7941.7941.7941 2.08159 0 2.87569l-9.331 9.33096c-.7043.7043-1.6425 1.1257-2.6369 1.1842l-2.2836.1343c-.23123.0136-.45486-.0118-.66492-.0702l-3.78086 3.7809-1.41421-1.4142 3.78085-3.7809c-.05839-.21-.08377-.4337-.07017-.6649l.13433-2.2836c.05849-.9944.47984-1.9326 1.18413-2.63691L17.6531.595573c.7941-.794097 2.0815-.794097 2.8756 0l2.8757 2.875677ZM.292893 22.2929l1.999997-2 1.41422 1.4142-2 2c-.39053.3905-1.023693.3905-1.414217 0-.3905241-.3905-.3905241-1.0237 0-1.4142ZM18.2929 4.29289l-5 5 1.4142 1.41421 5-4.99999-1.4142-1.41422Z" clip-rule="evenodd"/></svg>