<svg xmlns="http://www.w3.org/2000/svg" width="24" height="24" fill="none" viewBox="0 0 24 24"><path fill="#262626" fill-rule="evenodd" d="M2.10082 5.88388C1.47922 2.84492 3.80112 0 6.90301 0h.85737c1.59724 0 3.09182.448692 4.36222 1.22672C13.3929.448692 14.8875 0 16.4847 0h.8574c3.1019 0 5.4238 2.84492 4.8022 5.88388l-.669 3.27036c-.4235 2.07066-1.5099 3.86556-3.0093 5.18046l-.4782 3.8256-.8149 4.0744C16.9676 23.2611 16.0663 24 15.0195 24c-1.0786 0-1.9975-.7833-2.1683-1.8483L12 16.8439l-.8512 5.3078C10.978 23.2167 10.0591 24 8.98052 24c-1.0468 0-1.94808-.7389-2.15337-1.7653l-.81488-4.0744-.50976-4.0781c-1.35624-1.2882-2.33574-2.987-2.73275-4.92796l-.66894-3.27036ZM6.90301 2C5.06678 2 3.69228 3.68411 4.06025 5.48309l.66894 3.27036c.33434 1.63455 1.19208 3.04935 2.3779 4.08565l.28695.2508.59372 4.7498.80055 4.0027c.01832.0916.09877.1576.19221.1576.09627 0 .1783-.0699.19354-.165l.84364-5.2609c.0459-.5926.1802-1.3234.3773-1.9317.0994-.3067.2324-.6384.4112-.9142C10.9383 13.5245 11.3189 13 12 13c.6568 0 1.0327.489 1.1704.6938.1784.2654.3102.5841.4087.8788.1972.5899.3334 1.3065.3904 1.9217l.8565 5.3407c.0152.0951.0972.165.1935.165.0935 0 .1739-.066.1922-.1576l.8006-4.0027.5681-4.5449.3164-.2537c1.3105-1.0508 2.2626-2.5445 2.6191-4.28765l.669-3.27036C20.5528 3.68411 19.1783 2 17.3421 2h-.8574c-1.4121 0-2.7142.4589-3.769 1.23601l-.5931.43694-.5932-.43694C10.4746 2.4589 9.17252 2 7.76038 2h-.85737Z" clip-rule="evenodd"/></svg>