<svg xmlns="http://www.w3.org/2000/svg" width="24" height="24" fill="none" viewBox="0 0 24 24"><path fill="#262626" fill-rule="evenodd" d="M2.10495 5.11444C1.56277 2.47361 3.58012 0 6.27603 0h1.01345c1.76305 0 3.39292.570312 4.71512 1.53652C13.3268.570312 14.9566 0 16.7197 0h1.0134c2.6959 0 4.7133 2.47361 4.1711 5.11444l-.7264 3.53807c-.4448 2.16689-1.6305 4.02399-3.26 5.32909l-.5726 4.5639-.8837 4.402C16.3386 23.5596 15.801 24 15.1767 24c-.6434 0-1.1916-.467-1.2938-1.1022l-.9431-5.8593c-.1081-1.221-.5458-2.8567-1.0695-2.8567-.5474 0-1.0009 1.7878-1.082 2.9359l-.9304 5.7801C9.75566 23.533 9.20745 24 8.56409 24c-.62432 0-1.16195-.4404-1.28482-1.0525l-.88368-4.402-.60407-4.8147c-1.47473-1.2873-2.54307-3.0466-2.96018-5.07828l-.72639-3.53808Z" clip-rule="evenodd"/></svg>