<svg xmlns="http://www.w3.org/2000/svg" width="24" height="24" fill="none" viewBox="0 0 24 24"><path fill="#262626" fill-rule="evenodd" d="M4 6.5C4 5.67157 4.67157 5 5.5 5S7 5.67157 7 6.5V11h10V6.5c0-.82843.6716-1.5 1.5-1.5s1.5.67157 1.5 1.5v.58535C20.1564 7.03008 20.3247 7 20.5 7c.8284 0 1.5.67157 1.5 1.5V11h2v2h-2v2.5c0 .8284-.6716 1.5-1.5 1.5-.1753 0-.3436-.0301-.5-.0854V17.5c0 .8284-.6716 1.5-1.5 1.5s-1.5-.6716-1.5-1.5V13H7v4.5c0 .8284-.67157 1.5-1.5 1.5S4 18.3284 4 17.5v-.5854c-.15639.0553-.32468.0854-.5.0854-.82843 0-1.5-.6716-1.5-1.5V13H0v-2h2V8.5C2 7.67157 2.67157 7 3.5 7c.17532 0 .34361.03008.5.08535V6.5Z" clip-rule="evenodd"/></svg>