<svg xmlns="http://www.w3.org/2000/svg" width="24" height="24" fill="none" viewBox="0 0 24 24"><path fill="#262626" fill-rule="evenodd" d="M0 4c0-.55228.447715-1 1-1h12c.5523 0 1 .44772 1 1v14h-3.0275c-.2487-2.25-2.15622-4-4.4725-4-2.31628 0-4.22381 1.75-4.47254 4H1c-.552284 0-1-.4477-1-1V4Zm16 10.7578V6h3.8587c.7074 0 1.3621.3736 1.7219.98254l1.8631 3.15296c.3642.6163.5563 1.3191.5563 2.0349V17c0 .5523-.4477 1-1 1h-.0275c-.2487-2.25-2.1562-4-4.4725-4-.9251 0-1.785.2791-2.5.7578ZM9 18.5C9 19.8807 7.88071 21 6.5 21S4 19.8807 4 18.5 5.11929 16 6.5 16 9 17.1193 9 18.5Zm12 0c0 1.3807-1.1193 2.5-2.5 2.5S16 19.8807 16 18.5s1.1193-2.5 2.5-2.5 2.5 1.1193 2.5 2.5Z" clip-rule="evenodd"/></svg>