<svg xmlns="http://www.w3.org/2000/svg" width="24" height="24" fill="none" viewBox="0 0 24 24"><path fill="#262626" fill-rule="evenodd" d="M14 5H2v11h1.76389C4.31321 15.3863 5.1115 15 6 15c.8885 0 1.68679.3863 2.23611 1H14V5ZM1 18h2c0 1.6569 1.34315 3 3 3s3-1.3431 3-3h7c0 1.6569 1.3431 3 3 3s3-1.3431 3-3h1c.5523 0 1-.4477 1-1v-4.8296c0-.7158-.1921-1.4186-.5563-2.0349l-1.8631-3.15296C21.2208 6.3736 20.5661 6 19.8587 6H16V4c0-.55228-.4477-1-1-1H1c-.552285 0-1 .44772-1 1v13c0 .5523.447715 1 1 1Zm19 0c0-.5523-.4477-1-1-1s-1 .4477-1 1 .4477 1 1 1 1-.4477 1-1Zm1.2361-2H22v-3.8296c0-.3579-.0961-.7093-.2781-1.0174L19.8587 8H16v8h.7639c.5493-.6137 1.3476-1 2.2361-1 .8885 0 1.6868.3863 2.2361 1ZM6 17c.55228 0 1 .4477 1 1s-.44772 1-1 1-1-.4477-1-1 .44772-1 1-1Z" clip-rule="evenodd"/></svg>