<svg xmlns="http://www.w3.org/2000/svg" width="25" height="24" fill="none" viewBox="0 0 25 24"><path fill="#262626" fill-rule="evenodd" d="M1.66722 11.0565c.12591-.088.25519-.1713.3876-.2494C2.92586 10.2933 3.93208 10 5.00389 10c1.23473 0 2.38241.3892 3.33666 1.0565h.32667C9.62147 10.3892 10.7691 10 12.0039 10c1.2347 0 2.3824.3892 3.3367 1.0565h.3266C16.6215 10.3892 17.7691 10 19.0039 10c1.0753 0 2.0846.2952 2.9577.8122.1294.0767.2558.1582.379.2443h1.6749c-.0818-.6852-.2162-1.35339-.3987-1.99999C22.1385 3.82114 17.5005 0 12.0078 0 6.51503 0 1.87701 3.82114.398775 9.05651.216203 9.70311.0818302 10.3713 0 11.0565h1.66722ZM5.00389 8c1.25605 0 2.44445.29999 3.5.83072C9.55943 8.29999 10.7478 8 12.0039 8c1.256 0 2.4444.29999 3.5.83072C16.5594 8.29999 17.7478 8 19.0039 8c.7796 0 1.5332.11558 2.2452.33019C19.6677 4.56965 16.0861 2 12.0078 2 7.93036 2 4.34951 4.56843 2.76761 8.32751 3.47692 8.11462 4.22748 8 5.00389 8ZM11 12v9c0 1.6569 1.3431 3 3 3s3-1.3431 3-3v-.4444h-2V21c0 .5523-.4477 1-1 1s-1-.4477-1-1v-9h-2Z" clip-rule="evenodd"/></svg>