<svg xmlns="http://www.w3.org/2000/svg" width="25" height="24" fill="none" viewBox="0 0 25 24"><path fill="#262626" fill-rule="evenodd" d="M0 11.0565h1.66722C2.62147 10.3892 3.76915 10 5.00389 10c1.23473 0 2.38241.3892 3.33666 1.0565h.32667C9.62147 10.3892 10.7691 10 12.0039 10c1.2347 0 2.3824.3892 3.3367 1.0565h.3266C16.6215 10.3892 17.7691 10 19.0039 10c1.2347 0 2.3824.3892 3.3367 1.0565h1.6749C23.2712 4.8233 18.1789 0 12.0078 0 5.83664 0 .744384 4.8233 0 11.0565ZM11 12v9c0 1.6569 1.3431 3 3 3s3-1.3431 3-3v-.4444h-2V21c0 .5523-.4477 1-1 1s-1-.4477-1-1v-9h-2Z" clip-rule="evenodd"/></svg>