<svg xmlns="http://www.w3.org/2000/svg" width="24" height="24" fill="none" viewBox="0 0 24 24"><path fill="#262626" fill-rule="evenodd" d="M5 0c2.76142 0 5 2.23858 5 5v3h9c1.1046 0 2 .89543 2 2v12c0 1.1046-.8954 2-2 2H7c-1.10457 0-2-.8954-2-2V10c0-1.10457.89543-2 2-2h1V5c0-1.59768-1.24892-2.90366-2.82373-2.99491L5 2C3.40232 2 2.09634 3.24892 2.00509 4.82373L2 5v2H0V5c0-2.76142 2.23858-5 5-5Zm14 10H7v12h12V10Zm-6 3c1.1046 0 2 .8954 2 2 0 .7398-.4017 1.3858-.9989 1.7318L14 20h-2l-.0001-3.2676C11.4022 16.3866 11 15.7403 11 15c0-1.1046.8954-2 2-2Z" clip-rule="evenodd"/></svg>