<svg xmlns="http://www.w3.org/2000/svg" width="24" height="24" fill="none" viewBox="0 0 24 24"><path fill="#262626" fill-rule="evenodd" d="m10.3367 0 .5606 1.96568C16.919.516592 22.3647 1.88447 23.3078 5.19679L24 7.62766l-4.8265 1.39376-1.2421-.69337-.6885 1.25087-3.8614 1.11448 2.1131 8.3155c4.2363.153 7.6934 2.259 8.381 4.9911H21.752c-.2586-.5239-.7345-1.0699-1.4974-1.5785C18.9974 21.5834 17.1455 21 15 21c-2.1455 0-3.9974.5834-5.25456 1.4215-.76296.5086-1.23885 1.0546-1.49742 1.5785H6.12444c.62825-2.4965 3.56905-4.4703 7.30376-4.9088l-1.9773-7.8403-3.86106 1.1155-1.2421-.6933-.68851 1.2509-4.826517 1.3937-.69215-2.4309C-.802614 8.57435 3.09633 4.50786 8.96605 2.52333L8.40613.557505 10.3367 0Zm11.0476 5.74448c-.5476-1.92324-4.6952-3.02784-9.7049-1.90725l-.3142.07294-.9002.21683-.85838.29097C4.68941 6.08047 1.63458 9.22963 2.0332 11.2116l.03091.1275.14189.4999 2.101-.607 1.2588-2.28594L7.836 10.213l8.054-2.326 1.2594-2.28597L19.419 6.868l2.111-.609-.1457-.51452Z" clip-rule="evenodd"/></svg>