<svg xmlns="http://www.w3.org/2000/svg" width="24" height="24" fill="none" viewBox="0 0 24 24"><path fill="#262626" fill-rule="evenodd" d="M13.1818 2.9091c0-.35274-.2041-.67364-.5235-.82326-.3194-.14962-.6966-.10094-.9676.12488l-6.5653 5.4711H.90909C.407013 7.68182 0 8.08884 0 8.59091v6.81819c0 .5021.407013.9091.90909.9091H5.1254l6.5653 5.4711c.271.2258.6482.2745.9676.1249.3194-.1497.5235-.4706.5235-.8233V2.9091Zm5.5254 4.84389c-.3905-.39058-1.0236-.39068-1.4142-.00021-.3906.39046-.3907 1.02363-.0002 1.41421.7499.75011 1.1711 1.76731 1.1711 2.82801 0 1.0606-.4212 2.0779-1.1711 2.828-.3905.3906-.3904 1.0237.0002 1.4142.3906.3905 1.0237.3904 1.4142-.0002 1.1248-1.1252 1.7567-2.651 1.7567-4.242 0-1.591-.6319-3.11684-1.7567-4.24201Z" clip-rule="evenodd"/></svg>