<svg xmlns="http://www.w3.org/2000/svg" width="24" height="24" fill="none" viewBox="0 0 24 24"><path fill="#262626" fill-rule="evenodd" d="M13.1818 2.9091c0-.35274-.2041-.67364-.5235-.82326-.3194-.14962-.6966-.10094-.9676.12488l-6.5653 5.4711H.90909C.407013 7.68182 0 8.08884 0 8.59091v6.81819c0 .5021.407013.9091.90909.9091H5.1254l6.5653 5.4711c.271.2258.6482.2745.9676.1249.3194-.1497.5235-.4706.5235-.8233V2.9091Zm6.5712 2.38369c.3905-.39047 1.0237-.39037 1.4142.00021 1.7784 1.77899 2.7775 4.1915 2.7775 6.707 0 2.5155-.9991 4.928-2.7775 6.707-.3905.3906-1.0237.3907-1.4142.0002-.3906-.3905-.3907-1.0236-.0003-1.4142 1.4036-1.4039 2.192-3.3078 2.192-5.293 0-1.9852-.7884-3.88906-2.192-5.293-.3904-.39058-.3903-1.02375.0003-1.41421Zm-2.46 2.45999c.3906-.39047 1.0237-.39037 1.4142.00021 1.1248 1.12517 1.7567 2.65101 1.7567 4.24201 0 1.591-.6319 3.1168-1.7567 4.242-.3905.3906-1.0236.3907-1.4142.0002-.3906-.3905-.3907-1.0236-.0002-1.4142.7499-.7501 1.1711-1.7674 1.1711-2.828 0-1.0607-.4212-2.0779-1.1711-2.82801-.3905-.39058-.3904-1.02375.0002-1.41421Z" clip-rule="evenodd"/></svg>