<svg xmlns="http://www.w3.org/2000/svg" width="24" height="24" fill="none" viewBox="0 0 24 24"><path fill="#262626" fill-rule="evenodd" d="M6 12c3.31371 0 6-2.68629 6-6S9.31371 0 6 0 0 2.68629 0 6s2.68629 6 6 6Zm0-9c.55228 0 1 .44772 1 1v1.58579l.70711.7071c.39052.39053.39052 1.02369 0 1.41422-.39053.39052-1.02369.39052-1.41422 0L5 6.41421V4c0-.55228.44772-1 1-1Zm13.0296 5.75746c.134-.53579.6769-.86155 1.2127-.7276.5358.13395.8616.67688.7276 1.21268l-.8465 3.38606c-.1875.7498-.7902 1.3245-1.5481 1.4761l-4.3794.8759c-.5416.1083-1.0684-.2429-1.1767-.7845-.1083-.5415.2429-1.0684.7844-1.1767l4.3795-.8759.8465-3.38604Zm2.9746.15037c.0509-.54993.538-.95448 1.0879-.90357.5499.0509.9545.53797.9036 1.08791l-.5592 6.04143c-.1429 1.5432-1.4375 2.7235-2.9873 2.7235H19V24h-2v-6.1429h-2.0001c-.5523 0-1-.4477-1-1 0-.5522.4477-1 1-1h5.4493c.5166 0 .9482-.3934.9958-.9078l.5592-6.04147ZM11.1068 15.5509c.2481-.4935.8492-.6924 1.3426-.4444.4935.2481.6924.8492.4444 1.3426l-3.36605 6.6962c-.24804.4934-.84914.6924-1.34259.4443-.49345-.248-.69239-.8491-.44434-1.3426l3.36598-6.6961ZM23 4.5C23 5.88071 21.8807 7 20.5 7S18 5.88071 18 4.5 19.1193 2 20.5 2 23 3.11929 23 4.5Z" clip-rule="evenodd"/></svg>