<svg xmlns="http://www.w3.org/2000/svg" width="24" height="24" fill="none" viewBox="0 0 24 24"><path fill="#262626" fill-rule="evenodd" d="M10 6c0 2.20914-1.79086 4-4 4S2 8.20914 2 6s1.79086-4 4-4 4 1.79086 4 4Zm2 0c0 3.31371-2.68629 6-6 6S0 9.31371 0 6s2.68629-6 6-6 6 2.68629 6 6Zm8.2423 2.02986c-.5358-.13395-1.0787.19181-1.2127.7276l-.8465 3.38604-4.3795.8759c-.5415.1083-.8927.6352-.7844 1.1767.1083.5416.6351.8928 1.1767.7845l4.3794-.8759c.7579-.1516 1.3606-.7263 1.5481-1.4761l.8465-3.38606c.134-.5358-.1918-1.07873-.7276-1.21268Zm2.8498-.0256c-.5499-.05091-1.037.35364-1.0879.90357l-.5592 6.04147c-.0476.5144-.4792.9078-.9958.9078h-5.4493c-.5523 0-1 .4478-1 1 0 .5523.4477 1 1 1H17V24h2v-6.1429h1.4492c1.5498 0 2.8444-1.1803 2.9873-2.7235l.5592-6.04143c.0509-.54994-.3537-1.03701-.9036-1.08791ZM12.4494 15.1065c-.4934-.248-1.0945-.0491-1.3426.4444L7.74082 22.247c-.24805.4935-.04911 1.0946.44434 1.3426.49345.2481 1.09455.0491 1.34259-.4443l3.36605-6.6962c.248-.4934.0491-1.0945-.4444-1.3426ZM6 3c.55228 0 1 .44772 1 1v1.58579l.70711.7071c.39052.39053.39052 1.02369 0 1.41422-.39053.39052-1.02369.39052-1.41422 0L5 6.41421V4c0-.55228.44772-1 1-1Zm15 1c0 .55228-.4477 1-1 1s-1-.44772-1-1 .4477-1 1-1 1 .44772 1 1Zm2 0c0 1.65685-1.3431 3-3 3s-3-1.34315-3-3 1.3431-3 3-3 3 1.34315 3 3Z" clip-rule="evenodd"/></svg>