<svg xmlns="http://www.w3.org/2000/svg" width="24" height="24" fill="none" viewBox="0 0 24 24"><path fill="#262626" fill-rule="evenodd" d="M10 7c0-1.10457.8954-2 2-2s2 .89543 2 2c0 .87376-.5609 1.6191-1.3453 1.89066C11.9238 9.14372 11 9.84749 11 11v.6908c-.9454.0791-1.88375.2705-2.79473.5741L2.3842 14.2053C.960379 14.6799 0 16.0123 0 17.5132 0 19.4389 1.56111 21 3.48683 21H20.5132C22.4389 21 24 19.4389 24 17.5132c0-1.5009-.9604-2.8333-2.3842-3.3079l-5.8211-1.9404c-.9109-.3036-1.8493-.495-2.7947-.5741v-.6881c.0026-.0075.0114-.0253.0372-.0538.0531-.0588.1488-.1257.2719-.1683C14.874 10.2388 16 8.75219 16 7c0-2.20914-1.7909-4-4-4-2.20914 0-4 1.79086-4 4 0 .55228.44771 1 1 1 .55228 0 1-.44772 1-1Zm2.9991 4.006c-.0001.0006-.0001.0009 0 .0009s.0006-.0013.0008-.0039c-.0005.0014-.0007.0024-.0008.003Z" clip-rule="evenodd"/></svg>