<svg xmlns="http://www.w3.org/2000/svg" width="24" height="24" fill="none" viewBox="0 0 24 24"><path fill="#262626" fill-rule="evenodd" d="M12 0c.3788 0 .725.214002.8944.552786l11 22.000014c.155.31.1385.6781-.0437.9729-.1823.2948-.5041.4743-.8507.4743H1c-.346577 0-.668443-.1795-.85065-.4743-.1822064-.2948-.1987704-.6629-.043776-.9729L11.1056.552786C11.275.214002 11.6212 0 12 0Zm-1 15V8h2v7h-2Zm2.5 3.5c0 .8284-.6716 1.5-1.5 1.5s-1.5-.6716-1.5-1.5.6716-1.5 1.5-1.5 1.5.6716 1.5 1.5Z" clip-rule="evenodd"/></svg>