<svg xmlns="http://www.w3.org/2000/svg" width="24" height="24" fill="none" viewBox="0 0 24 24"><path fill="#262626" fill-rule="evenodd" d="M17 1c0-.552284.4477-1 1-1s1 .447715 1 1v17h4v2h-.3333l.8946 2.6838c.2159.6475-.2661 1.3162-.9487 1.3162h-9.2251c-.6826 0-1.1645-.6687-.9487-1.3162L13.3334 20H13v-2h4V1ZM5.99996 16c-1.30622 0-2.41746-.8348-2.8293-2H0v-2h12v2H8.82925c-.41183 1.1652-1.52307 2-2.82929 2Zm-4.7994-1.5933.72303 8.6763c.04319.5183.47645.917.99654.917h6.15974c.52009 0 .95333-.3987.99653-.917l.7231-8.6767C10.192 16.4831 8.27311 18 5.99996 18c-2.27301 0-4.19176-1.5167-4.7994-3.5933Z" clip-rule="evenodd"/></svg>