<svg xmlns="http://www.w3.org/2000/svg" width="24" height="24" fill="none" viewBox="0 0 24 24"><path fill="#262626" fill-rule="evenodd" d="M18 0c-.5523 0-1 .447716-1 1v17h-4v2h.3334l-.8946 2.6838c-.2158.6475.2661 1.3162.9487 1.3162h9.2251c.6826 0 1.1646-.6687.9487-1.3162L22.6667 20H23v-2h-4V1c0-.552285-.4477-1-1-1Zm2.5585 20h-5.1169l-.6667 2h6.4503l-.6667-2ZM1.10002 14c.02794.1376.06153.2732.10052.4065l.72305 8.6765c.04319.5183.47645.917.99654.917h6.15974c.52009 0 .95333-.3987.99653-.917l.7231-8.6765c.039-.1333.0725-.2689.1005-.4065H12v-2H0v2h1.10002Zm2.34866 3.301L3.84027 22h4.31946l.39159-4.699C7.80441 17.745 6.93198 18 6 18s-1.80441-.255-2.55132-.699Zm5.37683-3.2904C8.41069 15.1703 7.30224 16 6 16c-1.30225 0-2.41069-.8297-2.82552-1.9894L3.1736 14h5.6528l-.00089.0106Z" clip-rule="evenodd"/></svg>