<svg xmlns="http://www.w3.org/2000/svg" width="24" height="24" fill="none" viewBox="0 0 24 24"><path fill="#262626" fill-rule="evenodd" d="M17.5 3c-2.0951 0-3.7873 1.29773-4.3226 3H18c1.5286 0 2.9237.57164 3.9832 1.5128.0111-.11913.0168-.23965.0168-.36137C22 4.91932 20.048 3 17.5 3Zm0-2c-3.4536 0-6.3757 2.58224-6.4961 5.93607-.194.30814-.3062.67293-.3062 1.06393v3.0465L7.81573 9.791 4.80976 6.38165c-.43749-.55598-1.29816-.49429-1.6519.11839L.134897 11.736c-.353733.6127.023187 1.3889.723421 1.4898l3.869422.6454 5.96996 4.2362V21c0 1.1046.8954 2 2 2H22c1.1046 0 2-.8954 2-2v-9c0-.869-.1847-1.6948-.517-2.44033.332-.7384.517-1.55255.517-2.40824C24 3.69343 21.0272 1 17.5 1ZM5.35788 10.0275l-1.0874 1.7398-1.68225-.2806 1.60506-2.78008 1.16459 1.32088Zm1.02244 2.564 6.31738 4.4827V21H22v-9c0-2.20914-1.7908-4-4-4h-5.3023v6.0994l-5.70614-2.4859-.61124.978Z" clip-rule="evenodd"/></svg>