<svg xmlns="http://www.w3.org/2000/svg" width="24" height="24" fill="none" viewBox="0 0 24 24"><path fill="#262626" fill-rule="evenodd" d="M17.5 3c-2.0951 0-3.7873 1.29773-4.3226 3H18c1.5286 0 2.9237.57164 3.9832 1.5128.0111-.11913.0168-.23965.0168-.36137C22 4.91932 20.048 3 17.5 3Zm0-2c-3.4536 0-6.3757 2.58224-6.4961 5.93607-.194.30814-.3062.67293-.3062 1.06393v3.0465L8 10l-2 4 4.6977 4.1074V21c0 1.1046.8954 2 2 2H22c1.1046 0 2-.8954 2-2v-9c0-.869-.1847-1.6948-.517-2.44033.332-.7384.517-1.55255.517-2.40824C24 3.69343 21.0272 1 17.5 1ZM5 13.5l-4.141682-.2742c-.700234-.1009-1.077154-.8771-.723421-1.4898L3.15786 6.50004c.35374-.61268 1.21441-.67437 1.6519-.11839L7 9.5l-2 4Z" clip-rule="evenodd"/></svg>