<svg xmlns="http://www.w3.org/2000/svg" width="24" height="24" fill="none" viewBox="0 0 24 24"><path fill="#262626" fill-rule="evenodd" d="M.456863 7.82891c-.463677-.30022-.596342-.91973-.296316-1.38371 5.556923-8.5936 18.121953-8.5936 23.678853 0 .3001.46398.1674 1.08349-.2963 1.38371-.4636.30022-1.0828.16747-1.3828-.29651-4.7688-7.374814-15.55181-7.374814-20.32063 0-.30003.46398-.91913.59673-1.382807.29651ZM5.44535 10.8233c-.45952-.3065-.5837-.9278-.27735-1.38763 3.25011-4.87834 10.4139-4.87834 13.664 0 .3063.45983.1821 1.08113-.2774 1.38763-.4595.3066-1.0804.1823-1.3867-.2775-2.4585-3.69012-7.87735-3.69012-10.33581 0-.30635.4598-.92722.5841-1.38674.2775Zm7.55455 3.17c0 .5522-.447.9999-.9986 1.0007h-.0028c-.5517-.0008-.9986-.4485-.9986-1.0007 0-.5526.4477-1.0006 1-1.0006s1 .448 1 1.0006Zm1.9999 0c0 1.3071-.8348 2.419-1.9999 2.8311v5.1741h2.9999c.5523 0 1 .448 1 1.0006 0 .5527-.4477 1.0007-1 1.0007H7.99992c-.55228 0-.99999-.448-.99999-1.0007 0-.5526.44771-1.0006.99999-1.0006h2.99998v-5.1741c-1.16519-.4121-1.99999-1.524-1.99999-2.8311 0-1.6579 1.34309-3.0019 2.99999-3.0019 1.6568 0 2.9999 1.344 2.9999 3.0019Z" clip-rule="evenodd"/></svg>