<svg xmlns="http://www.w3.org/2000/svg" width="24" height="24" fill="none" viewBox="0 0 24 24"><path fill="#262626" fill-rule="evenodd" d="M1.04932 9.73652C.0776514 9.21047-.28426 7.99507.240964 7.02187c5.052796-9.36249 18.465236-9.36249 23.518036 0 .5252.9732.1633 2.1886-.8083 2.71465-.9717.52608-2.1852.16357-2.7104-.80963-3.5408-6.56091-12.9398-6.56091-16.48063 0-.52522.9732-1.73869 1.33571-2.71035.80963Zm4.97956 2.99358c-.96554-.5373-1.31341-1.7568-.777-2.7239 2.94118-5.30248 10.55502-5.30248 13.49622 0 .5364.9671.1885 2.1866-.777 2.7239-.9656.5372-2.1831.1888-2.7196-.7783-1.4172-2.555-5.0859-2.555-6.50311 0-.53641.9671-1.75398 1.3155-2.71951.7783ZM14 13.9837c0 .7414-.4022 1.3888-.9999 1.7351v6.2773H16c.5522 0 .9999.4484.9999 1.0016 0 .5531-.4477 1.0015-.9999 1.0015H8.00022c-.55226 0-.99996-.4484-.99996-1.0015 0-.5532.4477-1.0016.99996-1.0016h2.99988v-6.2773c-.5978-.3463-.9999-.9937-.9999-1.7351 0-1.1063.8954-2.0031 1.9999-2.0031S14 12.8774 14 13.9837Z" clip-rule="evenodd"/></svg>