<svg xmlns="http://www.w3.org/2000/svg" width="25" height="25" fill="none" viewBox="0 0 25 25"><path fill="#262626" fill-rule="evenodd" d="M12.3845 2.12476C10.5802.320465 8.06198-.333646 5.74305.158373 4.9647.32352 4.46033.90916 4.31832 1.57519c-.13678.64145.05975 1.33719.55862 1.83607l2.37769 2.37768-1.46569 1.46569-2.37768-2.37769c-.49888-.49888-1.19462-.6954-1.83607-.55862C.909158 4.46033.323519 4.9647.158373 5.74305-.333646 8.06198.320466 10.5802 2.12476 12.3845c1.95429 1.9543 4.74457 2.5593 7.21606 1.8197L18.03 23.6971c1.5427 1.6854 4.1796 1.7437 5.7952.1281 1.6156-1.6157 1.5574-4.2525-.128-5.7952l-9.493-8.68926c.7396-2.47147.1346-5.26171-1.8197-7.21598Zm-3.66419 2.1985L6.52147 2.12442c1.56073-.22175 3.19938.26801 4.39743 1.46603 1.5272 1.52728 1.9034 3.77259 1.1222 5.65406l-.2786.67119 10.5351 9.6433c.8145.7455.8426 2.0197.0619 2.8005-.7807.7807-2.055.7526-2.8005-.0619L9.91577 11.7624l-.6712.2787c-1.88148.7812-4.12683.4051-5.65412-1.1222-1.19802-1.19805-1.68778-2.8367-1.46603-4.39743l2.19884 2.19884c.80947.80947 2.12189.80947 2.93137 0l1.46568-1.46568c.80947-.80948.80947-2.1219 0-2.93137ZM20.8354 21.8718c.5724 0 1.0364-.464 1.0364-1.0364s-.464-1.0364-1.0364-1.0364-1.0364.464-1.0364 1.0364.464 1.0364 1.0364 1.0364Z" clip-rule="evenodd"/></svg>