<svg xmlns="http://www.w3.org/2000/svg" width="25" height="25" fill="none" viewBox="0 0 25 25"><path fill="#262626" fill-rule="evenodd" d="M12.349 2.11868C10.5612.330844 8.07028-.324465 5.77014.148821 4.7521.358295 4.49161 1.57662 5.15008 2.23509l3.4163 3.41631-2.91497 2.91498-3.41632-3.41632c-.65847-.65847-1.876788-.39797-2.086264.62006-.473295 2.30015.18201 4.79108 1.969844 6.57888 2.09721 2.0972 5.15981 2.6366 7.75409 1.6219l8.15254 9.553c1.477 1.7307 4.1158 1.8349 5.7246.226 1.6088-1.6088 1.5046-4.2476-.226-5.7245l-9.553-8.15266c1.0146-2.59428.4753-5.65686-1.6219-7.75406Zm8.5023 19.76972c.5728 0 1.0372-.4643 1.0372-1.0372 0-.5728-.4644-1.0371-1.0372-1.0371s-1.0372.4643-1.0372 1.0371c0 .5729.4644 1.0372 1.0372 1.0372Z" clip-rule="evenodd"/></svg>