<svg xmlns="http://www.w3.org/2000/svg" width="32" height="32" fill="none" viewBox="0 0 32 32">
  <rect width="29.714" height="29.714" x="1.143" y="1.143" fill="#054449" rx="14.857"/>
  <g clip-path="url(#a)">
    <path fill="#e2f1df" d="M15.956 8a7.956 7.956 0 0 0-7.745 6.134 8.85 8.85 0 0 1 4.555 1.22 3.244 3.244 0 0 1 6.424.312 8.85 8.85 0 0 1 4.64-.85A7.95 7.95 0 0 0 15.956 8m7.952 7.949v-.068c-4.664-.545-8.827 3.292-8.66 7.983 4.62.432 8.684-3.279 8.66-7.915m-9.726 7.704a8.8 8.8 0 0 1 1.055-4.198 7.85 7.85 0 0 0-7.196-4.265 7.966 7.966 0 0 0 6.141 8.507z"/>
  </g>
  <defs>
    <clipPath id="a">
      <path fill="#fff" d="M8 8h16v16H8z"/>
    </clipPath>
  </defs>
</svg>
