<svg width="32" height="32" viewBox="0 0 32 32" fill="none" xmlns="http://www.w3.org/2000/svg">
<path fill-rule="evenodd" clip-rule="evenodd" d="M15.9979 32C7.16345 32 0 24.8369 0 16.0011C0 7.1644 7.16345 0 15.9979 0C24.8356 0 31.9998 7.1644 31.9998 16.0011C31.9998 24.8369 24.8356 32 15.9979 32Z" fill="#C30000"/>
<path fill-rule="evenodd" clip-rule="evenodd" d="M29.6456 14.8906H26.8013C26.8013 14.8906 26.6053 14.8906 26.5359 15.0637L24.9619 19.8823L23.3892 15.0637C23.3199 14.8906 23.1227 14.8906 23.1227 14.8906H17.6539C17.5355 14.8906 17.4363 14.9895 17.4363 15.1071V16.7435C17.4363 15.4454 16.0551 14.8906 15.2463 14.8906C13.4351 14.8906 12.2227 16.0836 11.8452 17.8972C11.8247 16.694 11.7247 16.2629 11.4006 15.8214C11.2517 15.6051 11.0366 15.4233 10.8023 15.2729C10.3198 14.9903 9.88663 14.8906 8.95565 14.8906H7.86255C7.86255 14.8906 7.66499 14.8906 7.59528 15.0637L6.60067 17.5286V15.1071C6.60067 14.9895 6.50217 14.8906 6.38398 14.8906H3.85454C3.85454 14.8906 3.65926 14.8906 3.58823 15.0637L2.55421 17.6267C2.55421 17.6267 2.45098 17.883 2.68699 17.883H3.65926V22.7668C3.65926 22.8881 3.75472 22.9841 3.87651 22.9841H6.38398C6.50217 22.9841 6.60067 22.8881 6.60067 22.7668V17.883H7.57805C8.1389 17.883 8.25766 17.8983 8.47587 18C8.60732 18.0497 8.72571 18.1501 8.7903 18.2658C8.92251 18.5147 8.95565 18.8136 8.95565 19.6949V22.7668C8.95565 22.8881 9.05301 22.9841 9.17329 22.9841H11.5766C11.5766 22.9841 11.8482 22.9841 11.9556 22.7159L12.4882 21.3995C13.1964 22.3914 14.3621 22.9841 15.8107 22.9841H16.1273C16.1273 22.9841 16.4006 22.9841 16.5087 22.7159L17.4363 20.4187V22.7668C17.4363 22.8881 17.5355 22.9841 17.6539 22.9841H20.1072C20.1072 22.9841 20.3779 22.9841 20.4866 22.7159C20.4866 22.7159 21.4678 20.2798 21.4716 20.2615H21.4731C21.5108 20.0588 21.2547 20.0588 21.2547 20.0588H20.379V15.8788L23.1341 22.7159C23.2416 22.9841 23.5129 22.9841 23.5129 22.9841H26.4111C26.4111 22.9841 26.6839 22.9841 26.7915 22.7159L29.8458 15.1528C29.9515 14.8906 29.6456 14.8906 29.6456 14.8906ZM17.4363 20.0588H15.7884C15.1324 20.0588 14.5989 19.5277 14.5989 18.871C14.5989 18.2154 15.1324 17.6809 15.7884 17.6809H16.2492C16.9035 17.6809 17.4363 18.2154 17.4363 18.871V20.0588Z" fill="#FEFEFE"/>
</svg>
