<svg width="32" height="32" viewBox="0 0 32 32" fill="none" xmlns="http://www.w3.org/2000/svg">
<circle cx="16" cy="16" r="16" fill="#B3F5FF"/>
<g clip-path="url(#clip0_5531_13543)">
<mask id="mask0_5531_13543" style="mask-type:luminance" maskUnits="userSpaceOnUse" x="7" y="5" width="42" height="22">
<path d="M48.3854 5H7V26.2581H48.3854V5Z" fill="white"/>
</mask>
<g mask="url(#mask0_5531_13543)">
<path d="M21.0848 9.69552L20.7954 9.5163C20.3541 9.22678 19.8854 8.97861 19.389 8.77181C19.1823 8.6891 18.9755 8.60637 18.7687 8.53744C18.2724 8.372 17.7485 8.23413 17.2384 8.15141C17.0178 8.12384 16.7972 8.09627 16.5628 8.06869C16.0389 8.02733 15.5012 8.02733 14.9773 8.06869C14.7568 8.08247 14.5224 8.11005 14.3018 8.15141C13.7779 8.23413 13.2678 8.35821 12.7577 8.53744C12.5509 8.60637 12.3441 8.6891 12.1373 8.77181C11.6547 8.97861 11.186 9.22678 10.731 9.5163L10.4415 9.69552L9.02148 6.97954L9.26965 6.82789C9.75218 6.52458 10.2485 6.26264 10.7586 6.04205L11.0206 5.91796L11.5307 6.89682C11.6823 6.84167 11.8202 6.78652 11.9718 6.73138L11.7099 5.65602L11.9856 5.55951C12.5233 5.39407 13.061 5.2562 13.6125 5.1597L13.902 5.10455L14.1639 6.17991L14.2466 6.16613C14.3707 6.15234 14.5086 6.13855 14.6327 6.12477V5.02183L14.9222 5.00804C15.1979 4.99426 15.4875 4.98047 15.7632 4.98047C16.0389 4.98047 16.3284 4.99426 16.6042 5.00804L16.8937 5.02183V6.12477C17.0454 6.13855 17.197 6.15234 17.3624 6.17991L17.6244 5.10455L17.9139 5.1597C18.4653 5.2562 19.0168 5.39407 19.5408 5.55951L19.8165 5.65602L19.5546 6.73138C19.7062 6.78652 19.8441 6.84167 19.9957 6.89682L20.5058 5.91796L20.7678 6.04205C21.2778 6.27642 21.7741 6.53837 22.2567 6.82789L22.5049 6.97954L21.0848 9.69552ZM9.84868 7.21391L10.6897 8.81317C11.0757 8.5788 11.4755 8.38578 11.8891 8.20656H11.9029C12.1235 8.11005 12.3441 8.02733 12.5647 7.9584C13.1024 7.77917 13.6538 7.62752 14.2053 7.54479C14.4397 7.50344 14.674 7.47586 14.9222 7.46208C15.4875 7.42071 16.0527 7.42071 16.618 7.46208C16.8523 7.48964 17.1005 7.51722 17.3349 7.54479C17.8863 7.62752 18.4379 7.76538 18.9755 7.94461C19.196 8.02733 19.4166 8.11005 19.6372 8.19277C20.0509 8.372 20.4507 8.5788 20.8504 8.79939L21.6915 7.20013C21.402 7.03469 21.0986 6.86925 20.7954 6.73138L20.2853 7.69645L20.0233 7.58615L19.913 7.54479C19.651 7.4345 19.3752 7.3242 19.0996 7.24149L18.8238 7.14498L19.0858 6.08341C18.7549 5.9869 18.4379 5.90418 18.1069 5.83524L17.845 6.89682L17.5555 6.85546C17.2246 6.80032 16.8937 6.75896 16.5766 6.73138L16.2871 6.70381V5.61466C15.9562 5.60087 15.6115 5.60087 15.2806 5.61466V6.70381L14.9911 6.73138C14.7705 6.74517 14.5637 6.77274 14.3569 6.80032C14.2466 6.8141 14.1226 6.82789 14.0123 6.85546L13.7228 6.89682L13.4608 5.83524C13.1299 5.90418 12.799 5.9869 12.4819 6.08341L12.7439 7.14498L12.4682 7.24149C12.1924 7.338 11.9167 7.4345 11.6547 7.54479L11.5445 7.58615L11.2825 7.69645L10.7724 6.73138C10.4415 6.86925 10.1382 7.03469 9.84868 7.21391Z" fill="black" fill-opacity="0.9"/>
<path d="M15.7633 26.2106C10.9104 26.2106 6.9812 22.2814 6.9812 17.4423C6.9812 12.6032 10.9104 8.66016 15.7495 8.66016C20.5887 8.66016 24.5317 12.5894 24.5317 17.4285C24.5317 19.7585 23.608 21.9919 21.9674 23.6463C20.3267 25.2869 18.0795 26.2106 15.7633 26.2106ZM15.7633 9.30813C11.2689 9.30813 7.62918 12.9478 7.62918 17.4285C7.62918 21.9092 11.2689 25.5626 15.7495 25.5626C20.244 25.5626 23.8837 21.923 23.8837 17.4423C23.8837 15.2916 23.0289 13.2236 21.4986 11.6932C19.982 10.1629 17.9141 9.29435 15.7633 9.30813Z" fill="black" fill-opacity="0.9"/>
<path d="M14.0675 14.9351C13.3781 14.0114 13.5712 12.6878 14.4949 11.9985C15.4186 11.3092 16.7421 11.5022 17.4314 12.4259C17.9829 13.1704 17.9829 14.1906 17.4314 14.9351L17.9002 15.2797C18.2448 14.8248 18.4378 14.2595 18.4378 13.6805C18.4378 12.2053 17.2384 11.0059 15.7632 11.0059C14.2881 11.0059 13.0886 12.2053 13.0886 13.6805C13.0886 14.2595 13.2816 14.8248 13.6263 15.2797L14.0675 14.9351Z" fill="black" fill-opacity="0.9"/>
<path d="M15.7494 15.5678C16.3284 15.5678 16.7972 15.099 16.7972 14.52V14.4097H17.1418V13.7479C17.1418 12.9759 16.5214 12.3555 15.7494 12.3555C14.9773 12.3555 14.3569 12.9759 14.3569 13.7479V14.4097H14.7016V14.52C14.7016 15.099 15.1703 15.5678 15.7494 15.5678ZM14.936 13.7617C14.936 13.3067 15.2944 12.9483 15.7494 12.9483C16.2043 12.9483 16.5628 13.3067 16.5628 13.7617V14.4235H16.3146V14.5338C16.3284 14.8509 16.0941 15.1128 15.777 15.1266C15.4599 15.1404 15.1979 14.906 15.1841 14.5889C15.1841 14.5751 15.1841 14.5475 15.1841 14.5338V14.4235H14.936V13.7617Z" fill="black" fill-opacity="0.9"/>
<path d="M10.5657 17.8301H9.76611V18.6434H10.5657V17.8301Z" fill="black" fill-opacity="0.9"/>
<path d="M22.243 17.2089V17.6364H22.6566L21.5399 18.7531V16.7954L21.8293 17.0849L22.1327 16.7816L21.3193 15.9682L20.5058 16.7816L20.8092 17.0849L21.0987 16.7954V18.7393L19.9819 17.6226H20.3818V17.1951H19.2374V18.3533H19.6649V17.9396L20.5334 18.8221H18.7687L18.5895 18.6566L18.4378 17.2227C18.4241 17.1401 18.3413 16.4094 17.7347 16.0923H17.7209L17.1005 15.8441L17.004 15.8027L16.9075 15.8303C16.5215 15.9268 16.1355 15.9682 15.7494 15.9544C15.3634 15.9682 14.9636 15.9268 14.5913 15.8303L14.4948 15.8027L13.7779 16.0785H13.7641C13.1575 16.3956 13.061 17.1263 13.061 17.2089L12.8956 18.6979L12.7577 18.8083H12.1511C12.2063 18.6153 12.2338 18.4222 12.2338 18.2292C12.2338 17.0849 11.2963 16.1612 10.152 16.175C9.00773 16.175 8.08402 17.1125 8.09781 18.2568C8.09781 19.277 8.84229 20.1318 9.84872 20.2972H9.87629C9.93143 20.311 9.98659 20.311 10.0417 20.311L12.7301 20.5867C12.6336 21.4966 12.4544 22.3927 12.1925 23.2752L12.4682 23.3716L12.7439 23.4544C13.0197 22.5307 13.2127 21.5794 13.3092 20.6281L13.9158 20.118L13.8193 23.8679L14.0675 23.9093C15.198 24.1023 16.356 24.1023 17.5003 23.9093L17.7485 23.8679L17.652 20.1318L18.2586 20.6419C18.3551 21.5932 18.5481 22.5445 18.8238 23.4682L19.3753 23.2889C19.1134 22.4065 18.9342 21.5104 18.8376 20.6005L21.5399 20.3523V19.4148L22.9737 17.981V18.3946H23.4011V17.2503L22.243 17.2089ZM15.7494 16.5472C16.163 16.561 16.5766 16.5058 16.9902 16.4232L17.4865 16.6162C17.8174 16.7954 17.8726 17.2779 17.8726 17.2779L17.9967 18.4084H17.2935C17.0178 18.4084 16.7283 18.3395 16.4939 18.1878C16.3147 18.05 16.1492 17.8984 16.0114 17.7191L15.0187 16.5058C15.2669 16.5334 15.5151 16.5472 15.7494 16.5472ZM10.1658 19.732H10.0969L9.94523 19.7182C9.13181 19.594 8.56655 18.8221 8.70443 18.0086C8.8285 17.1951 9.60055 16.6299 10.414 16.7678C11.2274 16.8919 11.7926 17.664 11.6548 18.4773C11.5307 19.1943 10.8965 19.732 10.1658 19.732ZM13.9296 19.3321L13.1024 20.0352L11.448 19.8698C11.6134 19.732 11.7651 19.5803 11.8892 19.401H12.9783L13.9434 18.5877L13.9296 19.3321ZM13.9709 17.8156L13.5436 18.174L13.6401 17.2917V17.2779C13.6401 17.2779 13.6814 16.7954 14.0261 16.6162L14.3018 16.5058L14.7982 17.1125L13.9709 17.8156ZM15.7632 23.4682C15.3083 23.4682 14.8533 23.4406 14.4121 23.3716L14.4397 22.1447L14.5362 18.0914L15.1566 17.5674L15.5702 18.0776C15.7494 18.3119 15.97 18.5187 16.2044 18.6841C16.4525 18.8359 16.7421 18.9323 17.0316 18.9737L17.1419 23.3716C16.6869 23.4268 16.2182 23.4544 15.7632 23.4682ZM20.9608 19.8008L18.4654 20.0352L17.2246 18.9875H17.3211H18.1345L18.6033 19.401H20.9746L20.9608 19.8008Z" fill="black" fill-opacity="0.9"/>
</g>
</g>
<defs>
<clipPath id="clip0_5531_13543">
<rect width="17.5266" height="21.2581" fill="white" transform="translate(7 5)"/>
</clipPath>
</defs>
</svg>
