<svg width="216" height="106" viewBox="0 0 216 106" fill="none" xmlns="http://www.w3.org/2000/svg">
<g clip-path="url(#clip0_2342_3618)">
<rect x="18" y="10" width="180" height="86" rx="2" fill="#D2EAFD"/>
<rect x="18" y="10" width="180" height="2" fill="#1B88DD"/>
<path d="M18 38H198V40H18V38Z" fill="#1B88DD"/>
<path d="M18 66H198V68H18V66Z" fill="#1B88DD"/>
<path d="M18 94H198V96H18V94Z" fill="#1B88DD"/>
<rect x="54" y="23" width="129" height="4" rx="2" fill="#1B88DD"/>
<rect x="54" y="51" width="74" height="4" rx="2" fill="#1B88DD"/>
<rect x="54" y="79" width="107" height="4" rx="2" fill="#1B88DD"/>
<path fill-rule="evenodd" clip-rule="evenodd" d="M29.4393 21.9393C30.0251 21.3536 30.9749 21.3536 31.5607 21.9393L36 26.3787L40.4393 21.9393C41.0251 21.3536 41.9749 21.3536 42.5607 21.9393C43.1464 22.5251 43.1464 23.4749 42.5607 24.0607L37.0607 29.5607C36.4749 30.1464 35.5251 30.1464 34.9393 29.5607L29.4393 24.0607C28.8536 23.4749 28.8536 22.5251 29.4393 21.9393Z" fill="#1B88DD"/>
<path fill-rule="evenodd" clip-rule="evenodd" d="M29.4393 49.9393C30.0251 49.3536 30.9749 49.3536 31.5607 49.9393L36 54.3787L40.4393 49.9393C41.0251 49.3536 41.9749 49.3536 42.5607 49.9393C43.1464 50.5251 43.1464 51.4749 42.5607 52.0607L37.0607 57.5607C36.4749 58.1464 35.5251 58.1464 34.9393 57.5607L29.4393 52.0607C28.8536 51.4749 28.8536 50.5251 29.4393 49.9393Z" fill="#1B88DD"/>
<path fill-rule="evenodd" clip-rule="evenodd" d="M29.4393 77.9393C30.0251 77.3536 30.9749 77.3536 31.5607 77.9393L36 82.3787L40.4393 77.9393C41.0251 77.3536 41.9749 77.3536 42.5607 77.9393C43.1464 78.5251 43.1464 79.4749 42.5607 80.0607L37.0607 85.5607C36.4749 86.1464 35.5251 86.1464 34.9393 85.5607L29.4393 80.0607C28.8536 79.4749 28.8536 78.5251 29.4393 77.9393Z" fill="#1B88DD"/>
<rect x="18" y="10" width="2" height="86" fill="#1B88DD"/>
<rect x="196" y="10" width="2" height="86" fill="#1B88DD"/>
</g>
<defs>
<clipPath id="clip0_2342_3618">
<rect x="18" y="10" width="180" height="86" rx="2" fill="white"/>
</clipPath>
</defs>
</svg>
