<svg width="1196" height="844" viewBox="0 0 1196 844" fill="none" xmlns="http://www.w3.org/2000/svg">
<path d="M562.819 669.473C597.015 684.855 631.847 705.958 631.465 715.238C631.211 721.34 619.007 723.373 604.897 717.398C587.989 710.152 579.472 712.441 572.989 719.051C564.98 727.06 595.489 759.985 596.252 760.748H599.812L614.049 760.62C614.049 760.62 614.05 760.621 613.922 760.748H659.051V610.869C676.849 624.09 696.171 635.277 716.765 644.049C746.131 656.634 777.912 664.388 811.345 666.422C817.066 666.804 822.786 666.931 828.634 666.931C843.126 666.931 857.364 665.787 871.22 663.753C905.416 658.541 937.706 647.354 966.817 631.082C1004.19 610.234 1036.35 581.249 1060.89 546.545C1058.73 544.511 1056.95 542.604 1056.06 541.333C1051.99 535.612 1048.81 526.841 1052.75 522.391C1055.29 519.467 1062.41 523.663 1068.52 528.494C1058.35 517.688 1042.46 499.509 1048.81 490.483C1053.26 484.127 1068.01 495.06 1080.47 505.484C1070.55 495.441 1056.31 477.771 1061.52 472.177C1069.02 463.914 1084.15 476.881 1092.03 482.475C1092.54 482.856 1092.92 483.11 1093.43 483.491C1091.91 481.203 1090.89 477.771 1091.91 472.686C1094.32 460.355 1102.2 440.143 1102.2 440.143C1102.2 440.143 1104.36 440.778 1106.78 442.176C1110.85 423.108 1113.01 403.277 1113.01 382.937C1113.01 255.687 1029.36 148.013 914.061 111.783C899.823 107.333 885.077 103.901 869.949 101.74C856.601 99.8331 842.872 98.8164 828.888 98.8164C729.478 98.8164 642.017 149.92 591.167 227.211C594.091 228.101 596.379 229.372 596.379 229.372C596.379 229.372 586.845 248.949 579.472 258.992C576.421 263.187 573.243 264.839 570.573 265.221C571.082 265.348 571.717 265.348 572.226 265.475C581.633 267.382 601.464 269.67 600.574 280.73C599.939 288.357 577.438 289.883 563.2 289.502C579.345 291.536 597.269 294.968 595.744 302.595C593.455 313.4 569.302 314.163 554.429 314.036C562.056 315.307 569.938 317.723 569.556 321.536C568.921 327.511 560.276 331.071 553.412 331.961C552.395 332.088 550.869 332.215 549.089 332.088C547.818 339.08 546.801 346.326 546.038 353.572C545.403 353.572 544.894 353.444 544.386 353.19C537.394 350.012 538.92 340.224 541.462 331.452C534.979 330.435 528.114 328.401 525.063 324.842C513.749 325.096 501.545 324.333 501.545 324.333H424C463.027 422.6 520.232 599.936 524.809 616.971C526.589 624.344 536.759 657.778 562.819 669.473Z" fill="#F45F63"/>
<path d="M259.379 351.032C182.215 377.473 264.464 443.323 276.032 543.751C284.168 614.431 261.159 713.079 256.074 760.623H495.828C488.328 741.554 485.913 710.537 476.76 691.214C426.8 586.083 336.797 324.463 259.379 351.032Z" fill="#F45F63"/>
<path d="M410.907 260.643C414.34 266.236 419.424 270.177 425.145 272.211L436.459 265.219C435.823 265.092 435.315 264.965 434.679 264.711C434.425 264.202 434.298 263.821 434.044 263.312C433.662 262.295 433.408 261.278 433.281 260.261C433.154 259.244 433.027 258.227 433.027 257.21C433.027 256.701 433.154 256.193 433.154 255.685C433.662 255.176 434.298 254.795 434.933 254.541C435.442 255.177 435.823 255.685 436.332 256.193C436.205 256.575 436.205 257.083 436.205 257.464C436.205 258.354 436.205 259.117 436.332 260.007C436.459 260.77 436.713 261.659 436.967 262.422C437.095 262.804 437.222 263.185 437.476 263.566L436.84 265.092L444.849 260.134L450.443 269.033L461.629 262.168C474.723 254.032 478.791 236.871 470.655 223.904C463.282 211.954 448.281 207.505 435.823 212.971C434.806 213.48 433.662 212.463 433.917 211.446C434.425 209.412 434.044 207.505 432.899 206.488C430.738 204.708 426.67 206.234 423.874 209.793C421.077 213.353 420.441 217.548 422.475 219.327C422.857 219.709 423.492 219.836 424.001 219.963L419.933 222.506C406.839 230.387 402.898 247.549 410.907 260.643Z" fill="#1E2B3C"/>
<path d="M437.093 262.171C436.839 261.408 436.585 260.645 436.458 259.755C436.33 258.992 436.203 258.103 436.33 257.213C436.33 256.831 436.33 256.323 436.458 255.941C436.076 255.433 435.695 254.925 435.059 254.289C434.296 254.543 433.788 255.052 433.279 255.433C433.279 255.942 433.152 256.45 433.152 256.959C433.152 257.976 433.152 258.993 433.407 260.01C433.534 261.027 433.915 262.043 434.169 263.06C434.296 263.569 434.551 264.078 434.805 264.459C435.313 264.713 435.949 264.84 436.585 264.967L437.093 264.586L437.729 263.06C437.475 262.933 437.22 262.552 437.093 262.171Z" fill="#EDCFC5"/>
<path d="M81.5271 389.419C82.1627 396.411 83.8154 404.038 86.3579 412.174C86.2308 411.793 86.1037 411.284 86.1037 410.903C82.0357 392.089 80.0017 372.766 80.6373 353.57C79.8746 366.028 80.5101 378.232 81.5271 389.419Z" fill="#1E2B3C"/>
<path d="M97.1656 437.473C100.344 446.499 104.03 455.27 108.098 464.042C116.234 481.331 125.895 497.984 136.828 513.62C142.294 521.502 148.142 529.129 154.117 536.502C160.219 543.875 166.575 551.122 173.44 557.605L173.948 558.113V558.749L176.745 700.746L178.143 771.808C178.397 777.783 178.27 783.63 178.27 789.605L178.143 807.402C178.143 819.225 178.016 831.047 177.889 842.87C177.253 831.047 176.745 819.225 176.236 807.402L175.474 789.605C175.219 783.63 174.838 777.783 174.838 771.808L173.44 700.746L170.643 559.384C163.778 552.774 157.549 545.655 151.574 538.409C145.473 530.909 139.625 523.281 134.031 515.4C122.972 499.509 113.183 482.856 105.047 465.313C100.979 456.542 97.2927 447.643 93.9875 438.49C92.3349 433.914 90.8094 429.337 89.4111 424.761C88.5212 422.091 87.7584 419.295 87.1228 416.498L112.039 568.664V843.633H251.748C251.748 843.633 251.748 843.378 251.621 842.87H317.598C317.598 842.87 310.86 809.055 292.809 807.656C264.969 805.495 255.688 793.292 254.926 778.672C254.671 774.096 255.053 767.994 255.816 760.621C261.028 713.076 283.91 614.429 275.774 543.749C264.206 443.194 182.084 377.471 259.121 351.029C336.539 324.461 426.542 586.081 476.375 691.212C485.528 710.534 488.07 741.552 495.443 760.621C499.257 770.536 504.469 777.147 512.732 777.274C528.877 777.528 525.953 774.986 525.953 774.986C525.953 774.986 539.174 786.427 556.208 784.012C565.361 782.741 569.683 781.215 571.463 779.435C572.988 777.91 575.404 777.783 577.311 778.927C582.014 781.596 590.15 782.867 602.99 774.859C607.185 772.189 612.778 762.019 613.414 760.748C613.414 760.621 613.541 760.621 613.541 760.621L599.303 760.748H595.871C595.108 759.985 564.598 727.06 572.607 719.052C579.09 712.568 587.735 710.28 604.515 717.399C618.626 723.373 630.83 721.34 631.084 715.238C631.465 705.958 596.633 684.855 562.437 669.474C536.377 657.778 526.207 624.345 524.173 616.845C519.597 599.81 462.518 422.473 423.364 324.206C412.432 296.62 402.897 275.263 396.287 265.475C366.413 220.6 296.368 184.879 213.738 204.583C106.827 230.262 82.4193 296.747 80.0039 353.445C80.6395 372.64 83.3091 391.709 88.2669 410.142C91.3179 419.295 93.8604 428.575 97.1656 437.473Z" fill="#1E2B3C"/>
<path d="M85.9776 410.78C86.1047 411.162 86.2319 411.67 86.2319 412.052C86.6133 413.577 86.8675 414.975 87.2488 416.501C87.8844 419.298 88.6473 422.094 89.5371 424.764C90.9355 429.34 92.4609 434.044 94.1135 438.493C97.2916 447.646 101.105 456.545 105.173 465.316C113.309 482.859 123.225 499.512 134.157 515.403C139.624 523.284 145.471 531.039 151.7 538.412C157.675 545.658 163.904 552.65 170.769 559.388L173.566 700.749L174.964 771.811C174.964 777.786 175.345 783.633 175.6 789.608L176.362 807.405C176.871 819.228 177.379 831.05 178.015 842.873C178.142 831.05 178.142 819.228 178.269 807.405L178.396 789.608C178.396 783.633 178.524 777.786 178.269 771.811L176.871 700.749L174.074 558.752V558.116L173.566 557.608C166.828 550.997 160.345 543.751 154.243 536.505C148.141 529.132 142.421 521.505 136.954 513.623C126.022 497.86 116.36 481.334 108.224 464.045C104.156 455.401 100.47 446.502 97.2916 437.476C93.9864 428.451 91.5711 419.297 88.9015 410.017C83.9437 391.585 81.147 372.516 80.6385 353.32V353.448C79.8757 372.643 81.9096 391.966 85.9776 410.78Z" fill="#EDCFC5"/>
<path d="M524.933 324.585C527.983 328.144 534.848 330.306 541.331 331.196C538.789 339.967 537.136 349.756 544.255 352.934C544.764 353.188 545.399 353.315 545.908 353.315C546.671 346.069 547.688 338.95 548.959 331.831C550.739 331.831 552.137 331.831 553.281 331.704C560.273 330.814 568.79 327.128 569.426 321.28C569.807 317.467 561.925 315.178 554.298 313.779C569.044 313.907 593.325 313.144 595.613 302.338C597.139 294.711 579.214 291.406 563.07 289.245C577.18 289.626 599.808 288.101 600.444 280.473C601.334 269.287 581.502 267.126 572.095 265.219C571.587 265.092 570.951 264.964 570.443 264.964C573.112 264.583 576.29 262.803 579.341 258.735C586.715 248.565 596.249 229.116 596.249 229.116C596.249 229.116 594.088 227.844 591.037 226.954C587.223 225.81 582.011 225.302 578.706 228.734C567.01 240.938 563.959 258.1 563.832 261.405C563.832 262.676 565.103 264.201 567.137 264.837C557.603 264.71 545.018 268.142 541.077 274.498C536.374 281.999 546.671 286.829 552.645 288.482C552.645 288.482 552.773 288.482 552.9 288.482C541.459 288.101 532.306 290.262 530.526 297.381C529.636 300.94 530.78 304.881 533.704 308.186C527.094 307.042 518.449 306.533 509.932 308.695C501.542 310.856 501.669 324.077 501.669 324.204C501.288 324.077 513.491 324.839 524.933 324.585Z" fill="#1E2B3C"/>
<path d="M910.629 779.306C909.866 793.926 900.459 806.002 872.746 808.29C854.695 809.689 847.957 843.504 847.957 843.504H987.666L966.563 630.953C937.452 647.225 905.29 658.412 870.966 663.624C888.255 715.999 911.773 756.806 910.629 779.306Z" fill="#1E2B3C"/>
<path d="M734.183 779.311C733.421 793.93 724.014 806.006 696.301 808.294C678.249 809.693 671.512 843.508 671.512 843.508H811.22V666.171C777.787 664.137 746.006 656.382 716.641 643.797C724.522 706.342 735.328 755.793 734.183 779.311Z" fill="#1E2B3C"/>
<path d="M918.257 104.793L920.418 100.471C920.545 100.979 920.799 101.488 921.181 101.869C923.088 103.776 927.283 102.759 930.588 99.5806C933.893 96.4025 934.91 92.2075 933.003 90.1736C931.859 89.0294 929.953 88.9024 928.046 89.6652C927.029 90.0466 926.012 89.0297 926.393 87.8856C930.715 74.919 924.867 60.4269 912.282 54.1979C898.553 47.3332 881.773 53.0536 875.035 66.783L869.188 78.4786L878.595 83.1818L874.399 91.572L875.925 90.8092C876.306 90.9363 876.688 91.0638 877.069 91.1909C877.832 91.4452 878.722 91.572 879.484 91.572C880.374 91.572 881.137 91.5719 882.027 91.4448C882.408 91.4448 882.79 91.318 883.298 91.1909C883.807 91.5723 884.315 91.9535 884.951 92.3349C884.696 93.0976 884.315 93.7333 883.934 94.2418C883.425 94.3689 882.917 94.4956 882.408 94.4956C881.391 94.6228 880.374 94.6229 879.23 94.6229C878.213 94.4958 877.196 94.3688 876.179 94.1145C875.671 93.9874 875.162 93.8604 874.654 93.6061C874.4 93.0976 874.145 92.5888 874.018 91.9532L869.569 100.979C884.697 103.14 899.443 106.572 913.681 111.022C915.46 109.496 916.986 107.335 918.257 104.793Z" fill="#1E2B3C"/>
<path d="M876.179 94.6217C877.196 94.876 878.212 95.1301 879.229 95.1301C880.246 95.2572 881.263 95.1306 882.408 95.0035C882.916 95.0035 883.424 94.8761 883.933 94.749C884.314 94.1134 884.696 93.6049 884.95 92.8421C884.314 92.3336 883.806 92.0795 883.297 91.6981C882.916 91.8253 882.535 91.8249 882.026 91.952C881.263 92.0791 880.374 92.0793 879.484 92.0793C878.594 92.0793 877.831 91.8253 877.068 91.6981C876.687 91.571 876.306 91.4435 875.924 91.3164L874.399 92.0793L874.145 92.5876C874.272 93.2233 874.526 93.7321 874.78 94.2406C875.162 94.2406 875.67 94.4946 876.179 94.6217Z" fill="#EDCFC5"/>
<path d="M1101.82 439.891C1101.82 439.891 1093.94 460.103 1091.52 472.434C1090.51 477.519 1091.4 480.952 1093.05 483.24C1092.54 482.858 1092.16 482.477 1091.65 482.222C1083.77 476.629 1068.77 463.663 1061.14 471.926C1055.93 477.647 1070.17 495.189 1080.08 505.232C1067.63 494.808 1052.88 484.003 1048.43 490.232C1042.07 499.257 1057.96 517.436 1068.13 528.241C1061.9 523.538 1054.91 519.343 1052.37 522.14C1048.43 526.589 1051.73 535.36 1055.68 541.081C1056.69 542.479 1058.35 544.259 1060.51 546.293C1067.63 552.904 1079.57 560.785 1084.66 554.556C1088.22 550.234 1083.52 542.733 1078.69 537.521C1085.8 541.081 1093.3 539.174 1096.36 534.343C1100.3 528.114 1095.72 519.979 1087.71 511.97L1087.84 512.096C1093.18 515.402 1103.73 519.597 1106.02 511.08C1107.92 503.834 1101.95 492.265 1095.34 485.401C1097.24 486.545 1099.28 486.545 1100.17 485.528C1102.46 483.24 1113.01 469.256 1113.9 452.348C1114.15 447.136 1109.83 443.704 1106.27 441.797C1103.98 440.526 1101.82 439.891 1101.82 439.891Z" fill="#1E2B3C"/>
<path d="M974.192 85.0884C979.404 85.9782 990.337 88.1392 994.405 92.5885C1003.81 102.886 1018.56 88.3939 1005.21 79.7495C994.659 72.8849 979.404 80.1305 973.811 83.1815C973.048 83.5629 973.175 84.8341 974.192 85.0884Z" fill="#1E2B3C"/>
<path d="M840.582 9.83093C844.014 9.83093 849.099 13.6445 851.387 15.4242C851.896 15.8056 852.531 15.4242 852.404 14.7886C851.642 11.2292 848.718 2.20353 841.853 0.296677C833.081 -1.99154 832.7 9.70381 840.582 9.83093Z" fill="#1E2B3C"/>
<path d="M940.119 28.6434C942.916 26.3552 949.145 21.9061 953.213 21.9061C962.747 21.9061 962.239 7.7954 951.687 10.465C943.297 12.6261 939.992 23.6855 938.975 27.8805C938.848 28.5161 939.611 29.0248 940.119 28.6434Z" fill="#1E2B3C"/>
</svg>
