<svg width="1195" height="844" viewBox="0 0 1195 844" fill="none" xmlns="http://www.w3.org/2000/svg">
<path d="M1023.27 776.155L1026.45 791.601L1017.93 793.333L1014.32 775.867C978.07 777.599 949.043 807.191 948.609 843.855C948.609 843.855 948.609 843.854 948.609 843.999H1086.67C1086.53 828.265 1081.04 813.83 1071.94 802.283C1060.39 787.559 1042.91 777.743 1023.27 776.155Z" fill="#1E2B3C"/>
<path d="M605.338 164.846C622.668 161.815 639.131 172.064 644.33 188.231C644.763 189.53 646.496 189.818 647.363 188.664C648.807 186.498 650.829 185.2 652.851 185.488C656.172 186.066 658.194 190.973 657.328 196.603C656.461 202.232 652.995 206.275 649.529 205.842C648.807 205.697 648.229 205.408 647.652 204.975L648.663 210.894C649.385 214.936 649.385 218.977 648.663 222.73C679.279 219.121 706.14 197.902 715.382 166.434C727.802 124.573 703.685 80.5475 661.804 68.2779C619.924 56.0084 575.878 79.9702 563.602 121.831C556.093 147.236 562.014 173.363 577.033 192.706C579.632 178.993 590.464 167.445 605.338 164.846Z" fill="#F45F63"/>
<path d="M1071.8 802.281C1090.57 778.608 1103.14 741.944 1093.89 684.638C1076.56 577.532 1024.14 570.892 956.555 454.98L1023.13 776.01C1042.91 777.742 1060.39 787.557 1071.8 802.281Z" fill="#1E98F5"/>
<path d="M1014.32 775.867L942.549 430.299C909.045 374.581 857.922 354.949 805.644 370.395C819.941 394.645 832.938 424.381 840.014 459.89C851.423 517.052 828.895 555.592 793.369 568.006C788.458 569.739 781.96 571.038 774.595 572.192C774.884 572.192 775.172 572.192 775.317 572.192C781.382 571.615 787.303 570.893 793.224 569.45C787.592 571.904 781.671 573.347 775.606 574.647C772.573 575.368 769.54 575.801 766.507 576.378C763.475 576.811 760.442 576.956 757.409 577.244C747.878 577.966 738.491 578.399 728.96 578.688C722.172 586.771 715.529 593.844 709.608 599.618C694.011 615.208 673.216 632.819 647.365 646.82C647.221 648.408 647.221 649.996 647.221 651.583C647.077 650.14 646.932 648.697 646.788 647.253C646.643 647.397 646.499 647.398 646.21 647.542C646.066 650.14 646.21 651.583 646.21 651.583C646.21 651.583 648.088 674.535 680.87 671.792C695.167 670.637 700.799 687.959 680.148 693.444C651.987 700.806 638.701 685.938 638.701 685.938C634.513 692.289 662.818 698.208 663.829 704.126C665.562 714.663 645.921 722.169 625.126 714.086C608.085 707.446 599.853 694.166 599.853 694.166C595.665 695.754 620.938 722.169 616.75 727.799C612.273 733.861 602.308 735.161 588.589 725.923C584.834 723.469 581.368 719.427 578.191 714.519C578.913 715.818 579.779 717.117 580.646 718.416C582.812 721.592 585.267 724.624 588.3 726.933C584.978 724.912 582.379 722.025 579.924 718.994L578.191 716.684L576.602 714.23C575.447 712.642 574.581 710.91 573.57 709.178C569.815 702.394 566.782 695.176 564.472 687.67C563.316 683.917 562.305 680.164 561.872 676.123C561.728 675.112 561.728 674.102 561.583 673.091C561.583 672.947 561.583 672.658 561.583 672.514C501.362 677.71 478.4 665.73 447.496 649.418C434.643 642.634 424.389 635.994 416.735 630.509C382.22 655.192 359.259 688.104 353.338 718.272C345.539 758.257 346.117 795.065 380.054 842.411L948.181 843.71C949.047 807.335 978.075 777.599 1014.32 775.867Z" fill="#1E98F5"/>
<path d="M942.548 430.443L1014.32 775.867L1017.93 793.334L1026.45 791.601L1023.28 776.156L956.556 455.127L879.15 81.8438L871.207 86.4632L942.548 430.443Z" fill="#1E2B3C"/>
<path d="M777.626 140.883L871.207 86.4641L879.15 81.8447L920.452 57.739L886.804 0L726.215 52.6869L777.626 140.883Z" fill="#1E2B3C"/>
<path d="M207.333 697.919L204.878 685.216L203.867 680.02V679.731C202.711 680.019 203 679.875 203.867 679.731L203.722 678.865L203.433 677.277L203.289 676.844V676.699C201.989 676.988 202.423 676.844 203.289 676.699L198.957 653.315L196.646 640.612C196.646 640.468 196.646 640.324 196.646 640.18C195.635 641.19 194.769 642.056 193.758 642.778C189.714 646.242 184.66 648.263 179.316 648.841C169.929 649.851 160.109 647.397 151.155 644.655C116.496 633.829 97 678.72 97 678.72L213.109 720.581C211.954 717.261 210.799 713.941 209.788 710.621L207.333 697.919Z" fill="#1E2B3C"/>
<path d="M324.743 813.976L324.166 806.903C324.021 804.594 323.877 802.14 323.877 799.83C323.732 795.067 323.588 790.303 323.444 785.539L321.855 728.667L318.678 614.777V612.9H320.555L340.484 613.478C347.128 613.622 353.771 613.91 360.414 614.055L380.343 615.498C386.553 615.931 392.762 616.364 398.972 616.942C396.228 614.344 393.773 611.601 391.318 608.714L381.209 597.022C378.032 593.125 374.855 588.794 371.967 584.464C369.079 580.133 366.479 575.658 364.024 571.183C354.059 553.14 346.117 534.086 336.152 516.331C333.697 511.856 331.098 507.527 328.354 503.196C325.61 498.866 322.577 494.824 319.544 490.782C317.956 488.761 316.367 486.885 314.634 485.008C312.901 483.132 311.168 481.255 309.435 479.523C307.702 477.646 305.825 476.059 303.948 474.327C302.07 472.739 300.048 471.006 298.027 469.563C296.005 467.975 293.983 466.531 291.817 465.088C290.806 464.366 289.651 463.789 288.64 463.212L287.051 462.201L285.318 461.335C284.163 460.758 283.152 460.18 281.997 459.747L278.531 458.448C276.22 457.727 273.765 457.149 271.31 456.571C265.533 455.128 259.468 454.406 253.402 454.406C248.926 454.695 238.961 456.283 225.386 462.634C188.56 479.812 188.56 514.311 187.549 554.151C187.261 564.111 188.705 574.215 190.005 584.031C191.882 598.61 194.337 613.045 196.936 627.335C197.225 629.067 197.658 631.088 197.947 633.253C198.669 635.418 199.391 637.583 199.969 639.748L202.28 652.451L206.612 675.835C207.479 675.691 207.768 675.547 206.612 675.835L207.045 677.857L207.19 678.722V678.867C208.345 678.578 208.056 678.722 207.19 678.867L208.201 684.208L210.656 696.91L213.111 709.613C213.4 713.222 213.544 716.974 213.688 720.583L214.411 720.872C214.555 721.449 214.699 722.171 214.699 722.748C217.01 734.873 219.176 746.999 221.054 759.124C221.776 764.176 219.032 771.105 216.432 775.58C213.833 780.199 209.789 783.808 204.879 786.117C196.359 790.304 186.394 791.314 177.007 791.747C140.759 793.335 137.582 842.269 137.582 842.269H326.476C326.043 832.886 325.465 823.503 324.743 813.976Z" fill="#1E2B3C"/>
<path d="M684.623 578.69C673.358 578.401 661.95 578.113 650.685 577.535C652.274 583.02 653.574 588.506 654.296 594.135C655.162 600.631 655.307 607.27 654.007 613.91C653.14 617.375 652.274 620.117 651.552 623.293C650.83 626.324 649.963 629.355 649.53 632.531C648.663 637.294 648.23 642.059 647.941 646.822C673.792 632.82 694.587 615.21 710.184 599.62C715.961 593.846 722.604 586.773 729.536 578.69C726.792 578.69 724.048 578.834 721.448 578.834C708.884 578.978 696.753 578.978 684.623 578.69Z" fill="#1E2B3C"/>
<path d="M562.015 672.513C562.015 671.791 562.015 670.925 562.015 670.203L561.87 664.429C561.726 656.779 561.581 648.984 561.87 641.334C562.015 633.539 562.592 625.888 563.314 618.238C563.603 614.341 564.181 610.588 564.758 606.69L565.769 600.916C566.058 599.04 566.491 597.163 566.925 595.142C570.102 579.986 575.59 564.974 584.543 551.983C588.876 545.487 594.219 539.568 600.14 534.372C606.061 529.175 612.56 524.845 619.347 520.948C626.135 517.05 633.067 513.73 640.143 510.555L650.685 505.936C654.151 504.348 657.761 502.904 661.372 501.461C668.593 498.574 675.958 496.12 683.323 493.955C690.688 491.789 698.198 489.769 705.707 488.037C720.004 484.717 734.446 481.974 749.031 479.664L742.533 459.6C741.377 455.847 740.078 452.238 738.922 448.63L735.745 437.515C731.413 422.647 727.08 407.779 722.892 392.911C728.236 407.49 733.29 422.07 738.489 436.649L742.388 447.62C743.688 451.228 744.699 454.981 745.999 458.589L753.075 480.675L753.797 482.696L751.631 482.985C736.467 485.294 721.304 488.037 706.429 491.501C698.92 493.233 691.554 495.11 684.189 497.275C676.824 499.44 669.603 501.894 662.527 504.637C659.061 506.08 655.451 507.523 651.985 509.111L641.443 513.73C634.511 516.906 627.579 520.226 620.936 523.979C614.293 527.732 607.938 531.918 602.306 536.971C596.674 541.878 591.62 547.652 587.432 553.859C583.244 560.066 579.633 566.851 576.889 573.924C574.145 580.997 571.979 588.214 570.391 595.72C569.957 597.596 569.524 599.473 569.235 601.35L568.224 606.979C567.791 610.732 567.214 614.485 566.78 618.382C565.914 626.033 565.481 633.683 565.336 641.334C565.192 648.984 565.192 656.634 565.336 664.285L565.481 670.059C565.481 671.069 565.481 672.079 565.481 672.946C565.625 673.812 565.481 674.678 565.625 675.689C565.914 679.297 566.636 683.05 567.502 686.803C569.235 694.165 571.835 701.382 575.012 708.311C576.023 710.332 577.034 712.353 578.189 714.374C581.366 719.281 584.832 723.323 588.587 725.777C602.306 735.015 612.271 733.716 616.748 727.654C620.936 722.024 595.663 695.608 599.851 694.02C599.851 694.02 608.227 707.445 625.124 713.941C645.919 722.024 665.415 714.373 663.827 703.98C662.96 698.062 634.655 692.144 638.699 685.793C638.699 685.793 651.985 700.66 680.146 693.299C700.797 687.814 695.02 670.492 680.868 671.647C648.086 674.389 646.208 651.438 646.208 651.438C646.208 651.438 646.208 649.995 646.208 647.396C646.353 647.252 646.497 647.252 646.786 647.108C646.353 642.2 646.353 637.148 646.497 632.096C646.642 628.92 646.93 625.6 647.508 622.28C648.23 619.104 649.241 615.784 649.963 613.041C651.118 606.979 650.974 600.628 650.252 594.421C649.53 588.214 648.086 582.007 646.064 575.944L645.197 573.49L647.797 573.635C659.928 574.212 672.058 574.645 684.189 574.934C696.32 575.222 708.451 575.223 720.582 575.078C732.713 574.934 744.843 574.501 756.974 573.49C758.418 573.346 760.007 573.202 761.451 573.057C762.895 572.913 764.484 572.624 765.928 572.624C768.672 572.48 771.416 572.335 774.159 572.047C781.525 570.892 787.879 569.593 792.933 567.861C828.459 555.591 850.988 516.906 839.579 459.745C832.503 424.235 819.506 394.499 805.209 370.249C775.026 319.294 738.778 293.456 738.778 293.456C707.873 270.072 671.336 260.689 648.23 261.555C620.647 260.256 581.799 277.001 548.873 303.127C542.085 308.468 533.132 316.985 523.312 326.945V343.111L505.837 344.988C487.352 364.62 467.712 386.271 453.559 402.438L455.437 408.212L460.058 422.359L464.679 436.505L466.99 443.577C467.134 445.454 467.279 447.187 467.423 449.063C473.633 453.827 479.698 458.734 485.764 463.642C489.519 462.342 493.129 461.044 496.739 459.6C501.072 458.445 505.404 457.002 509.737 455.414C513.925 453.826 518.113 451.95 522.012 449.64C525.911 447.331 529.521 444.732 532.554 441.557L533.709 440.402L534.72 439.102C535.298 438.236 535.876 437.226 536.598 436.36C537.175 435.494 537.753 434.483 538.186 433.473C538.764 432.463 539.197 431.452 539.63 430.442C541.508 426.4 542.807 422.07 543.963 417.595C544.974 413.264 545.84 408.79 546.273 404.171C547.284 399.696 548.151 395.221 548.873 390.602C549.595 395.221 549.884 399.84 549.884 404.604C549.306 409.223 548.584 413.842 547.429 418.461C546.273 423.08 544.974 427.555 542.952 431.885C542.519 433.04 541.941 434.051 541.363 435.061C540.786 436.071 540.352 437.227 539.63 438.237C538.908 439.247 538.331 440.257 537.609 441.268L536.453 442.711L535.298 444.011C531.976 447.62 528.077 450.362 524.034 452.816C519.99 455.125 515.658 457.146 511.325 458.878C506.993 460.611 502.516 462.054 498.039 463.209C494.284 463.786 490.529 464.219 486.775 464.363C496.162 472.014 505.549 479.664 514.791 487.459C523.023 494.388 531.11 501.605 539.053 508.823C542.807 512.72 546.562 516.617 550.173 520.659C552.05 522.68 553.639 524.701 555.516 526.866L556.816 528.454L557.971 530.041L560.282 533.362C552.916 525.423 544.829 518.494 536.598 511.565C528.655 504.348 520.568 497.275 512.48 490.346C496.162 476.489 479.41 462.92 462.369 449.785C445.472 436.649 427.998 424.235 409.802 412.832C400.704 407.058 391.605 401.573 382.219 396.376C375.142 391.901 368.066 387.715 360.845 383.818C346.837 377.755 329.507 374.579 304.812 384.395C266.254 399.84 257.733 443.145 256.289 452.527C261.488 452.094 266.687 452.238 271.886 452.96C277.085 453.97 282.139 455.703 286.905 458.012L288.638 458.878L290.371 459.889C291.526 460.611 292.682 461.188 293.692 461.91C295.859 463.353 298.025 464.796 300.047 466.529C302.213 468.116 304.09 469.849 306.112 471.437C307.989 473.169 310.011 474.901 311.744 476.777C313.622 478.654 315.355 480.53 317.088 482.407C318.821 484.428 320.554 486.304 322.142 488.325C325.319 492.367 328.352 496.553 331.24 501.028C334.128 505.359 336.728 509.833 339.183 514.308C349.292 532.351 357.235 551.405 367.055 569.16C369.51 573.635 372.11 577.965 374.853 582.296C375.575 583.306 376.298 584.461 377.02 585.472C377.742 586.482 378.464 587.492 379.186 588.502C379.908 589.513 380.63 590.523 381.496 591.534C382.363 592.544 383.085 593.555 383.807 594.565C389.006 602.071 393.916 609.577 399.548 616.65C399.693 616.65 399.982 616.65 400.126 616.65C400.126 616.65 405.614 622.28 416.878 630.363C424.532 635.848 434.641 642.488 447.638 649.273C478.832 665.728 501.794 677.854 562.015 672.513Z" fill="#1E2B3C"/>
<path d="M203.869 679.734C203.147 680.023 202.714 680.023 203.869 679.734V679.734Z" fill="#EDCFC5"/>
<path d="M213.396 709.899L210.941 697.197L208.486 684.494L207.475 679.153C208.342 678.865 208.631 678.72 207.475 679.153V679.009V678.864L207.331 677.998L206.898 675.977C208.053 675.689 207.764 675.833 206.898 675.977L202.565 652.594L200.255 639.891C199.532 637.725 198.955 635.56 198.233 633.395C197.511 631.374 196.933 629.353 196.211 627.477C196.211 631.663 196.5 635.993 196.644 640.18C196.644 640.324 196.644 640.468 196.644 640.612L198.955 653.315L203.287 676.699C202.421 676.844 201.988 676.988 203.287 676.699V676.844L203.432 677.276L203.721 678.864L203.865 679.731V680.02L204.876 685.216L207.331 697.919L209.786 710.621C210.941 713.941 211.952 717.261 213.107 720.581C213.396 721.302 213.685 722.169 213.974 722.89C213.974 722.169 213.974 721.447 213.83 720.87C213.83 717.261 213.541 713.508 213.396 709.899Z" fill="#EDCFC5"/>
<path d="M432.043 260.836C439.12 258.526 464.681 253.618 465.692 265.888C458.616 278.446 442.73 278.735 431.466 287.252C418.468 297.212 418.18 305.873 417.746 309.77C431.466 287.252 467.569 274.26 494.719 281.911C501.651 283.931 511.183 284.942 507.572 295.046C504.973 302.552 499.052 302.552 493.853 302.264C486.343 301.975 474.935 302.841 467.858 305.295C457.316 309.048 446.196 315.544 442.297 322.328C442.297 322.328 460.638 312.513 478.834 316.121C497.174 319.874 503.384 331.422 501.218 340.66C499.052 349.754 485.044 342.97 480.278 341.238C469.88 337.629 458.76 337.196 450.24 344.991C448.218 346.867 446.918 349.176 446.196 351.775L506.417 345.135L523.891 343.258V327.092V197.467L410.092 210.026L379.477 168.887V314.678L380.487 316.121C385.831 289.561 406.193 269.208 432.043 260.836Z" fill="#E5AA20"/>
<path d="M411.826 409.947C430.022 421.495 447.641 433.909 464.682 447.189C464.97 447.333 465.115 447.477 465.404 447.766C464.97 446.9 464.393 446.034 463.96 445.313L461.649 438.24L457.028 424.093L452.406 409.947L450.096 402.875C449.951 401.864 449.951 400.709 449.807 399.699C447.352 391.038 445.908 383.965 445.908 380.212C445.908 372.417 443.453 360.869 446.052 352.353C446.919 349.755 448.074 347.3 450.096 345.568C458.616 337.629 469.736 338.062 480.134 341.815C484.9 343.547 498.908 350.476 501.074 341.238C503.385 331.855 497.03 320.307 478.69 316.699C460.349 312.946 442.153 322.905 442.153 322.905C446.052 316.265 457.172 309.626 467.714 305.873C474.791 303.419 486.199 302.553 493.709 302.841C498.908 303.13 504.829 303.13 507.428 295.624C510.894 285.519 501.507 284.509 494.575 282.488C467.57 274.693 431.322 287.829 417.603 310.348C418.036 306.45 418.325 297.789 431.322 287.829C442.586 279.168 458.472 279.024 465.548 266.466C464.537 254.196 438.976 259.104 431.9 261.414C406.049 269.786 385.687 290.283 380.488 316.843C380.055 318.72 379.766 320.741 379.621 322.617C378.611 332.288 378.611 369.819 379.621 391.904C381.066 392.626 382.51 393.347 383.954 393.925C393.485 398.544 402.728 404.174 411.826 409.947Z" fill="#1E2B3C"/>
<path d="M620.358 251.308C635.233 248.71 646.208 237.017 648.663 223.016C649.386 219.118 649.386 215.22 648.663 211.179L647.653 205.26C648.23 205.693 648.808 205.982 649.53 206.127C652.851 206.704 656.462 202.518 657.328 196.888C658.195 191.259 656.173 186.206 652.851 185.773C650.83 185.485 648.952 186.64 647.364 188.949C646.642 190.104 644.764 189.816 644.331 188.517C639.132 172.35 622.524 162.101 605.339 165.132C590.609 167.73 579.633 179.278 577.178 193.135C576.456 197.033 576.456 201.219 577.178 205.26L580.067 221.283L593.064 218.973L595.086 230.521L596.097 228.789C596.674 228.645 597.107 228.5 597.541 228.356C598.552 227.923 599.418 227.49 600.429 226.912C601.295 226.335 602.162 225.758 602.884 225.036C603.317 224.603 603.606 224.315 603.895 223.882C604.617 223.882 605.339 223.737 606.35 223.737C606.639 224.603 606.639 225.469 606.639 226.335C606.206 226.768 605.772 227.346 605.339 227.779C604.473 228.645 603.317 229.511 602.306 230.088C601.295 230.666 599.996 231.388 598.84 231.821C598.263 232.11 597.685 232.254 596.963 232.398C596.385 232.109 595.663 231.82 595.086 231.387L597.974 247.699C604.473 251.163 612.415 252.607 620.358 251.308Z" fill="#1E2B3C"/>
<path d="M598.552 231.677C599.707 231.244 600.862 230.667 602.018 229.945C603.173 229.223 604.184 228.501 605.05 227.635C605.484 227.202 605.917 226.769 606.35 226.192C606.35 225.326 606.35 224.46 606.061 223.594C605.05 223.594 604.328 223.738 603.606 223.738C603.317 224.171 602.884 224.46 602.595 224.893C601.873 225.614 601.007 226.192 600.14 226.77C599.274 227.347 598.263 227.78 597.252 228.213C596.819 228.358 596.241 228.502 595.808 228.646L594.797 230.378L594.941 231.1C595.519 231.533 596.097 231.821 596.819 232.11C597.396 232.11 597.974 231.822 598.552 231.677Z" fill="#EDCFC5"/>
<path d="M567.647 686.95C566.78 683.342 566.058 679.588 565.769 675.835C565.625 674.969 565.769 673.959 565.625 673.093C565.625 672.227 565.625 671.216 565.625 670.206L565.48 664.432C565.336 656.782 565.336 649.131 565.48 641.481C565.625 633.831 566.058 626.18 566.925 618.53C567.213 614.777 567.791 611.024 568.369 607.126L569.38 601.496C569.668 599.62 570.102 597.743 570.535 595.867C572.124 588.361 574.29 581.143 577.034 574.07C579.777 566.997 583.388 560.357 587.576 554.006C591.764 547.799 596.818 542.026 602.451 537.118C608.083 532.21 614.437 527.88 621.08 524.127C627.723 520.374 634.655 517.053 641.587 513.878L652.129 509.258C655.595 507.671 659.206 506.227 662.671 504.783C669.748 501.897 676.969 499.443 684.334 497.422C691.699 495.257 699.064 493.381 706.573 491.648C721.448 488.184 736.612 485.297 751.775 483.131L753.941 482.843L753.219 480.822L746.143 458.737C744.988 455.128 743.832 451.375 742.533 447.766L738.633 436.796C733.435 422.217 728.236 407.638 723.037 393.059C727.225 407.926 731.557 422.794 735.89 437.662L739.067 448.777C740.222 452.53 741.522 456.139 742.677 459.747L749.176 479.812C734.59 481.977 720.148 484.719 705.851 488.184C698.342 489.916 690.832 491.792 683.467 494.102C676.102 496.267 668.737 498.721 661.516 501.608C657.906 503.052 654.44 504.64 650.829 506.083L640.287 510.702C633.211 513.878 626.279 517.198 619.492 521.095C612.704 524.848 606.205 529.323 600.284 534.519C594.363 539.716 589.165 545.634 584.688 552.13C575.734 565.121 570.246 579.989 567.069 595.29C566.636 597.166 566.203 599.043 565.914 601.064L564.903 606.838C564.325 610.735 563.748 614.488 563.459 618.385C562.592 626.036 562.159 633.831 562.015 641.481C561.87 649.276 561.87 656.926 562.015 664.577L562.159 670.35C562.159 671.072 562.159 671.794 562.159 672.66C562.159 672.805 562.159 673.093 562.159 673.237C562.159 674.248 562.159 675.258 562.448 676.269C563.025 680.311 563.892 684.064 565.047 687.817C567.358 695.323 570.391 702.396 574.145 709.324C575.156 711.056 576.023 712.644 577.178 714.376L578.767 716.831L580.5 719.14C582.955 722.171 585.554 725.058 588.876 727.079C585.843 724.769 583.388 721.738 581.222 718.562C580.355 717.263 579.489 715.965 578.767 714.665C577.611 712.645 576.6 710.623 575.589 708.603C572.124 701.53 569.524 694.312 567.647 686.95Z" fill="#EDCFC5"/>
<path d="M761.883 573.202C760.438 573.347 758.85 573.491 757.406 573.635C745.275 574.646 733.144 575.079 721.013 575.223C708.882 575.367 696.752 575.367 684.621 575.079C672.49 574.79 660.359 574.357 648.228 573.78L645.629 573.635L646.495 576.089C648.373 582.008 649.817 588.214 650.683 594.566C651.55 600.773 651.55 607.124 650.395 613.186C649.673 616.073 648.662 619.393 647.94 622.424C647.362 625.6 647.073 628.92 646.929 632.24C646.64 637.293 646.784 642.2 647.218 647.252C647.362 648.696 647.506 650.139 647.651 651.583C647.651 649.995 647.795 648.407 647.795 646.82C648.084 642.056 648.662 637.148 649.384 632.529C649.961 629.353 650.683 626.322 651.405 623.291C651.983 620.115 652.994 617.372 653.861 613.908C655.16 607.268 655.016 600.628 654.149 594.133C653.427 588.503 652.272 583.018 650.539 577.533C661.803 578.11 673.212 578.543 684.476 578.687C696.607 578.976 708.882 578.976 721.013 578.832C723.757 578.832 726.501 578.687 729.101 578.687C738.632 578.399 748.019 577.966 757.55 577.244C760.583 576.955 763.616 576.811 766.648 576.378C769.681 575.8 772.714 575.223 775.746 574.646C781.667 573.347 787.733 571.903 793.365 569.449C787.444 570.893 781.379 571.614 775.458 572.192C775.169 572.192 774.88 572.192 774.736 572.192C771.992 572.48 769.248 572.625 766.504 572.769C764.915 572.913 763.327 573.058 761.883 573.202Z" fill="#EDCFC5"/>
<path d="M382.364 396.522C391.751 401.718 400.993 407.204 409.947 412.978C428.143 424.382 445.618 436.795 462.514 449.93C479.555 463.066 496.163 476.635 512.626 490.492C520.713 497.421 528.945 504.494 536.743 511.712C544.975 518.64 553.062 525.569 560.427 533.508L558.116 530.188L556.961 528.6L555.661 527.013C553.928 524.992 552.195 522.826 550.318 520.805C546.708 516.764 542.953 512.867 539.198 508.969C531.255 501.752 523.168 494.534 514.936 487.605C505.694 479.811 496.307 472.16 486.92 464.51C490.675 464.365 494.43 463.933 498.184 463.355C502.661 462.056 507.138 460.757 511.471 459.025C515.803 457.293 520.135 455.416 524.179 452.962C528.223 450.508 532.122 447.765 535.443 444.157L536.599 442.858L537.754 441.414C538.476 440.404 539.054 439.393 539.776 438.383C540.498 437.372 540.931 436.362 541.509 435.207C542.086 434.197 542.664 433.042 543.097 432.032C545.119 427.701 546.419 423.227 547.574 418.607C548.73 413.988 549.452 409.369 550.029 404.75C550.029 399.987 549.74 395.367 549.018 390.748C548.296 395.367 547.43 399.842 546.419 404.317C545.986 408.792 545.119 413.266 544.108 417.741C543.097 422.072 541.653 426.402 539.776 430.588C539.343 431.598 538.909 432.609 538.332 433.619C537.754 434.63 537.321 435.64 536.743 436.506C536.165 437.373 535.588 438.383 534.866 439.249L533.855 440.548L532.7 441.703C529.667 444.879 526.056 447.477 522.157 449.787C518.258 452.096 514.214 453.973 509.882 455.561C505.694 457.148 501.361 458.592 496.885 459.747C493.274 461.19 489.52 462.489 485.909 463.788C479.844 458.88 473.634 453.972 467.569 449.209C467.424 447.332 467.28 445.6 467.135 443.724L464.825 436.651L460.203 422.504L455.582 408.359L453.705 402.585L453.271 401.286C451.972 399.121 450.672 396.811 449.228 394.79C449.228 396.378 449.372 397.822 449.517 399.265C449.661 400.275 449.661 401.43 449.806 402.44L452.116 409.513L456.737 423.66L461.359 437.805L463.669 444.878C464.103 445.744 464.68 446.611 465.114 447.333C464.825 447.188 464.68 447.044 464.391 446.755C447.351 433.475 429.732 421.061 411.536 409.513C402.438 403.739 393.195 398.254 383.808 392.913C382.364 392.191 380.92 391.47 379.476 390.892C376.01 389.305 372.688 387.717 369.222 386.129C364.312 383.964 359.258 381.799 354.203 380.066C356.369 381.221 358.536 382.376 360.702 383.531C368.211 387.861 375.288 392.047 382.364 396.522Z" fill="#EDCFC5"/>
<path d="M384.096 594.856C383.374 593.846 382.507 592.835 381.785 591.825C380.918 590.814 380.196 589.804 379.474 588.793C378.752 587.783 378.03 586.772 377.308 585.762C376.586 584.752 375.864 583.742 375.142 582.587C372.398 578.401 369.799 573.926 367.344 569.451C357.523 551.552 349.581 532.642 339.472 514.599C337.016 510.124 334.273 505.649 331.529 501.319C328.785 496.988 325.752 492.802 322.431 488.616C320.842 486.595 319.109 484.574 317.376 482.698C315.643 480.821 313.91 478.801 312.033 477.068C310.155 475.192 308.278 473.46 306.401 471.727C304.379 469.995 302.501 468.263 300.335 466.82C298.313 465.232 296.147 463.788 293.981 462.2C292.97 461.479 291.67 460.901 290.659 460.18L288.926 459.17L287.193 458.303C282.428 455.994 277.373 454.262 272.174 453.251C266.975 452.529 261.632 452.385 256.578 452.818C251.379 453.251 246.324 454.117 241.414 455.849C245.458 455.127 249.646 454.839 253.689 454.839C259.755 454.839 265.82 455.561 271.597 457.004C274.052 457.582 276.507 458.159 278.817 458.881L282.283 460.18C283.439 460.613 284.594 461.19 285.605 461.768L287.338 462.634L288.926 463.644C289.937 464.365 291.093 464.799 292.104 465.521C294.125 466.964 296.292 468.408 298.313 469.996C300.335 471.439 302.213 473.171 304.234 474.759C306.112 476.491 307.989 478.079 309.722 479.955C311.6 481.688 313.188 483.564 314.921 485.44C316.51 487.317 318.243 489.338 319.831 491.214C323.008 495.112 325.897 499.298 328.64 503.628C331.384 507.814 333.984 512.289 336.439 516.764C346.403 534.519 354.346 553.573 364.311 571.616C366.766 576.091 369.365 580.565 372.254 584.896C375.142 589.226 378.319 593.413 381.496 597.454L391.605 609.147C394.06 611.889 396.66 614.776 399.259 617.374C393.049 616.797 386.839 616.363 380.63 615.93L360.7 614.487C354.057 614.343 347.414 614.198 340.771 613.91L320.842 613.332H318.965V615.209L322.142 729.1L323.73 785.972C323.875 790.736 324.019 795.499 324.164 800.263C324.164 802.572 324.308 805.026 324.452 807.336L325.03 814.408C325.752 823.935 326.33 833.318 327.196 842.845C327.485 833.318 327.63 823.791 327.774 814.408L327.918 807.336C327.918 805.026 327.918 802.572 327.918 800.263C327.774 795.499 327.63 790.736 327.485 785.972L325.897 729.1L322.864 617.086L340.916 617.663C347.559 617.807 354.202 617.951 360.845 618.24L380.774 617.952C386.984 617.808 393.338 617.663 399.548 617.518C400.559 618.529 401.425 619.395 402.436 620.261C401.714 619.395 400.992 618.385 400.27 617.518C400.414 617.518 400.703 617.518 400.848 617.518C400.703 617.518 400.414 617.518 400.27 617.518C394.205 609.868 389.295 602.218 384.096 594.856Z" fill="#EDCFC5"/>
</svg>
