<svg width="1196" height="844" viewBox="0 0 1196 844" fill="none" xmlns="http://www.w3.org/2000/svg">
<path d="M856.691 114.105C870.387 114.105 881.777 124.275 883.539 137.428C883.675 138.512 885.031 138.919 885.844 138.241C887.336 136.749 888.963 136.071 890.455 136.614C893.031 137.427 893.845 141.631 892.353 145.834C890.861 150.037 887.607 152.749 885.166 151.8C884.624 151.664 884.217 151.258 883.81 150.851V155.597C883.81 159.801 882.861 163.732 881.099 167.394C890.726 169.292 900.895 169.021 910.93 166.173C916.625 164.546 921.913 161.97 926.794 158.987C936.964 183.801 964.354 197.225 990.524 189.632C1009.64 183.937 1023.2 168.343 1027.27 150.173C1033.37 151.665 1040.02 151.664 1046.66 149.766C1066.19 144.071 1077.3 123.597 1071.61 104.071C1065.91 84.5453 1045.44 73.4266 1025.91 79.1216C1016.96 81.8335 1009.64 87.5281 1005.03 94.9858C992.422 86.5789 976.422 83.5959 960.693 88.2061C958.117 89.0197 955.676 89.969 953.235 91.0537C953.1 90.5113 952.964 89.9687 952.828 89.4263C943.201 56.6123 908.76 37.9003 875.946 47.5275C843.132 57.1548 824.42 91.5962 834.047 124.41C834.183 124.953 834.318 125.359 834.454 125.766C839.471 118.715 847.471 114.105 856.691 114.105Z" fill="#E5AA20"/>
<path d="M227.262 242.516L226.855 244.007C226.991 243.871 227.262 243.871 227.398 243.736C227.262 243.329 227.262 242.922 227.262 242.516Z" fill="#1E2B3C"/>
<path d="M128.281 396.688C128.281 385.027 129.501 373.772 131.67 362.789L106.043 373.094C104.28 373.094 102.517 372.959 100.619 372.823C93.4326 372.009 85.9749 371.739 79.3307 372.01C68.8899 372.01 59.1271 372.823 53.5677 376.213C42.5844 382.993 31.33 389.502 29.4317 397.773C29.0249 398.722 28.6181 399.807 28.3469 400.891C27.3978 401.434 26.313 401.976 25.2283 402.654C19.2621 405.908 8.27888 412.417 16.0078 417.977C16.5502 418.383 17.0926 418.519 17.6349 418.79C17.7705 418.79 17.7705 418.79 17.9061 418.79C18.8553 418.79 19.9401 418.519 20.8892 418.247C22.9231 417.705 24.8215 417.027 26.7198 416.213C30.6521 415.129 34.5843 413.637 38.5166 412.281C46.3811 409.434 54.3812 406.315 62.9237 404.959C65.0932 404.688 67.2628 404.281 69.4323 404.281C71.6018 404.146 73.6357 404.281 75.6697 404.01C79.7375 403.739 83.8054 403.061 87.7376 401.841C91.6699 400.756 95.4665 399.264 99.2632 397.366C103.195 396.01 107.263 394.518 111.331 393.298C107.806 395.739 104.416 398.18 100.755 400.349C96.9581 402.112 92.8902 403.739 88.6868 404.959C84.4833 406.18 80.2799 406.858 75.9409 407.129C73.7713 407.265 71.6018 407.264 69.5679 407.4C67.8051 407.4 66.0424 407.671 64.2797 407.943C65.9068 409.434 67.5339 410.926 69.0255 412.688C71.195 415.129 73.2289 417.705 74.8561 420.553C75.6697 422.044 76.3476 423.672 76.7544 425.434C76.7544 426.248 76.4832 427.197 76.212 428.01C80.5511 427.739 84.4833 427.061 88.1444 426.112C94.5174 424.621 102.653 418.654 109.704 412.824C114.721 412.417 121.365 411.875 129.094 411.061C128.416 406.451 128.281 401.569 128.281 396.688Z" fill="#1E2B3C"/>
<path d="M386.721 537.437C374.111 545.573 360.28 552.216 345.5 556.691C345.5 556.962 345.365 557.233 345.365 557.369C344.822 559.403 344.009 561.437 342.653 563.335C341.297 565.233 339.398 566.725 337.229 567.539C336.144 567.945 335.059 568.217 333.839 568.217C332.619 568.352 331.534 568.217 330.314 567.946C329.229 567.675 328.144 567.267 327.195 566.725C326.653 566.454 326.246 566.183 325.839 565.776C324.89 566.725 324.076 567.539 322.991 568.352C321.5 569.437 319.873 570.522 317.703 571.064C316.483 571.2 315.669 571.2 314.72 571.064L312.008 570.928C311.059 570.928 310.246 570.657 309.432 570.386C309.161 570.251 308.89 570.25 308.618 570.115C308.618 571.606 308.483 572.962 308.212 574.318C307.805 576.352 307.127 578.251 306.313 580.149C306.72 578.115 306.72 576.081 306.72 574.183C306.72 572.284 306.449 570.251 305.771 568.624L304.957 566.725L307.262 566.996C308.89 567.268 310.652 567.132 312.279 567.403C313.093 567.538 313.907 567.674 314.72 567.674C315.534 567.674 316.483 567.674 316.89 567.674C318.11 567.403 319.466 566.59 320.686 565.64C321.907 564.691 323.127 563.471 324.076 562.251L325.297 560.895L326.653 562.115C327.873 563.2 329.5 564.149 330.992 564.556C331.805 564.827 332.619 564.827 333.432 564.827C334.246 564.827 335.059 564.556 335.873 564.284C339.127 563.2 341.026 560.081 341.975 556.42C342.924 552.895 343.06 548.962 342.924 545.03C342.788 541.097 342.246 537.301 341.568 533.369C340.89 529.572 340.076 525.64 338.72 521.978C337.5 518.317 336.009 514.521 334.517 510.86C333.704 509.097 333.026 507.199 332.212 505.436C331.805 504.487 331.398 503.673 331.127 502.589L330.178 499.741L326.381 488.351C330.72 391.129 325.568 302.992 304.279 229.093C307.534 229.229 310.788 229.5 314.042 229.907C302.381 192.347 281.364 174.177 253.838 183.262C227.668 191.94 223.6 216.483 227.668 240.076L227.397 241.162C227.668 241.84 227.939 242.382 228.21 243.06C233.227 240.89 238.516 238.856 243.804 237.094C242.584 231.67 241.363 226.246 240.143 220.957C243.804 232.076 247.194 243.195 250.584 254.45C251.397 257.297 252.346 260.009 253.16 262.857L255.465 271.263L260.075 288.213L278.381 355.874V356.01V356.146L283.669 491.877V492.013V492.148L281.906 508.148C281.364 513.572 280.279 518.86 279.33 524.148C278.787 526.86 278.245 529.437 277.703 532.013C277.431 533.369 277.025 534.589 276.889 535.945C276.618 537.166 276.618 538.521 276.618 539.877C276.618 541.233 276.754 542.453 276.889 543.809C277.025 545.165 277.16 546.521 277.432 547.742C277.703 549.098 277.974 550.318 278.516 551.539L280.008 555.335V555.199C281.093 557.64 282.042 560.488 283.262 563.335C254.787 561.165 228.346 551.945 205.702 537.301C163.803 637.777 100.751 682.93 97.09 684.693C92.3442 686.998 61.5641 696.625 35.5298 665.981C19.5296 647.133 0.00390625 669.777 0.00390625 669.777L53.0216 797.508C53.0216 797.508 210.448 743.677 285.567 569.166C288.415 575.946 291.805 582.59 296.279 586.251C299.805 589.099 302.652 587.471 304.551 584.081C317.974 602.251 333.297 619.065 349.975 634.252C365.84 648.896 383.06 662.048 401.094 673.845C413.84 682.252 427.129 689.846 440.824 696.761C446.112 699.473 453.163 701.371 457.909 705.032C462.519 708.422 481.502 722.117 465.502 758.999C455.603 781.644 487.197 798.864 487.197 798.864L570.995 675.472C570.588 675.879 459.536 629.913 386.721 537.437Z" fill="#1E2B3C"/>
<path d="M228.347 243.327C228.076 242.785 227.805 242.107 227.533 241.429C227.262 240.887 227.127 240.48 226.855 239.938C226.991 240.751 227.127 241.565 227.127 242.514C227.127 242.921 227.262 243.328 227.262 243.735C227.669 243.599 227.94 243.463 228.347 243.327Z" fill="#EDCFC5"/>
<path d="M73.2243 426.247C72.9532 424.891 72.4108 423.67 71.7328 422.314C70.3768 419.738 68.4785 417.298 66.4446 414.992C64.4107 412.823 62.2411 410.789 59.936 408.891C58.5801 409.162 57.2241 409.569 55.8682 409.976C55.8682 409.976 55.8682 409.975 55.8682 410.111C57.0885 414.314 58.4445 418.382 60.2072 422.314C61.5632 425.704 62.7835 429.095 63.3259 432.891C67.1226 435.332 71.8684 433.434 73.6311 430.179C73.9023 429.637 74.1735 429.094 74.1735 428.416C74.0379 427.603 73.6311 426.925 73.2243 426.247Z" fill="#1E2B3C"/>
<path d="M74.7143 420.684C73.0872 417.701 71.0532 415.125 68.8837 412.82C67.3922 411.192 65.765 409.565 64.1379 408.074C65.9006 407.803 67.6633 407.531 69.4261 407.531C71.46 407.396 73.7651 407.532 75.7991 407.261C80.1381 406.989 84.3416 406.176 88.545 405.091C92.7485 404.006 96.6807 402.244 100.613 400.481C104.274 398.176 107.664 395.735 111.189 393.43C107.122 394.514 103.054 396.142 99.1214 397.498C95.3248 399.26 91.5281 400.887 87.5958 401.972C83.6636 403.057 79.5957 403.735 75.5279 404.142C73.4939 404.277 71.46 404.277 69.2905 404.413C67.121 404.413 64.9515 404.684 62.7819 405.091C54.2394 406.583 46.2393 409.566 38.3748 412.413C34.4426 413.905 30.5103 415.26 26.578 416.345C24.6797 417.159 22.7814 417.837 20.7474 418.379C19.7983 418.65 18.7135 418.786 17.7644 418.921C17.6288 418.921 17.6287 418.921 17.4932 418.921C16.544 418.921 15.5948 418.922 14.7812 418.515C15.5948 419.193 16.6796 419.735 17.7644 419.871C18.8491 420.142 19.9339 420.142 21.0186 420.277C23.1882 420.277 25.3577 420.006 27.5272 419.735C27.5272 419.735 27.5272 419.735 27.6628 419.735C31.595 418.65 35.3917 417.294 39.1884 415.803C39.1884 417.159 39.324 418.379 39.4596 419.599L40.002 422.447L40.2731 423.803C40.2731 424.21 40.2731 424.752 40.4087 425.159C40.5443 426.108 40.4087 426.921 40.4087 427.735C40.2731 428.549 40.1375 429.363 39.8663 430.176C39.324 431.668 38.3748 433.023 37.1544 433.43C36.7477 433.837 36.3409 434.108 35.7985 434.244C35.5273 434.38 35.3917 434.379 35.1205 434.515C34.3069 434.65 33.3578 434.651 32.5442 434.108C32.8154 435.193 33.7646 436.007 34.8493 436.414C35.9341 436.82 37.29 436.955 38.5104 436.549C40.8155 435.464 42.3071 433.43 42.985 431.261C43.3918 430.176 43.5274 429.091 43.663 428.006C43.663 427.328 43.7986 426.786 43.7986 426.108C43.7986 425.701 43.7986 425.295 43.7986 424.752C43.7986 424.21 43.7986 423.667 43.663 423.261L43.3918 421.769L42.8495 418.921C42.5783 417.43 42.5782 415.938 42.5782 414.311C45.9681 413.091 49.2224 411.87 52.6123 410.921C52.6123 410.921 52.6123 410.921 52.6123 411.057C53.8327 415.261 55.3242 419.599 57.0869 423.667C58.7141 427.599 60.07 431.668 60.3412 435.736C60.4768 437.77 60.2056 439.803 59.5276 441.43C59.392 442.379 59.1209 443.329 58.5785 444.142C58.4429 444.278 58.4429 444.414 58.3073 444.549C57.7649 445.227 57.2225 445.905 56.409 446.448C58.7141 446.583 61.1548 444.956 62.6463 442.786C63.5955 440.345 63.8667 437.905 63.7311 435.6C63.7311 434.651 63.5955 433.837 63.4599 432.888C62.9175 429.227 61.6972 425.701 60.3412 422.311C58.7141 418.379 57.2225 414.311 56.0022 410.108C56.0022 410.108 56.0022 410.108 56.0022 409.973C57.3581 409.566 58.7141 409.294 60.07 408.887C62.3751 410.786 64.5447 412.82 66.5786 414.989C68.6125 417.294 70.5109 419.735 71.8668 422.311C72.5448 423.532 73.0872 424.888 73.3584 426.244C73.7651 426.922 74.1719 427.599 74.3075 428.413C74.4431 429.091 74.5787 429.769 74.4431 430.583C75.1211 430.04 75.6635 429.227 76.0703 428.278C76.3414 427.464 76.6126 426.515 76.6126 425.701C76.2058 423.803 75.5279 422.176 74.7143 420.684Z" fill="#EDCFC5"/>
<path d="M59.3957 441.431C60.2093 439.804 60.3448 437.77 60.2092 435.736C59.938 431.668 58.7177 427.6 56.955 423.668C55.1922 419.6 53.7007 415.261 52.4803 411.058C52.4803 411.058 52.4803 411.057 52.4803 410.922C49.0904 412.007 45.8362 413.091 42.4463 414.312C42.4463 415.803 42.4463 417.295 42.7175 418.922L43.2598 421.769L43.5311 423.261C43.6666 423.804 43.6666 424.346 43.6666 424.753C43.6666 425.16 43.6666 425.566 43.6666 426.109C46.9209 436.143 49.6328 447.261 55.8702 445.499C56.6838 445.227 57.4973 444.957 58.1753 444.414C58.3109 444.279 58.3109 444.143 58.4465 444.007C58.8533 443.329 59.2601 442.38 59.3957 441.431Z" fill="#1E2B3C"/>
<path d="M39.7337 430.045C40.0049 429.367 40.1405 428.418 40.2761 427.605C40.2761 426.791 40.4117 425.841 40.2761 425.028C40.2761 424.621 40.2761 424.214 40.1405 423.672L39.8693 422.316L39.3269 419.469C39.1913 418.249 39.0557 416.892 39.0557 415.672C35.2591 417.028 31.4624 418.384 27.5301 419.604C27.5301 419.604 27.5301 419.604 27.3945 419.604C28.6149 425.977 31.0556 430.994 32.4115 432.893C33.0895 433.842 34.1743 434.249 35.5302 434.249C36.0726 433.977 36.4794 433.842 36.8862 433.435C38.2421 432.893 39.1913 431.537 39.7337 430.045Z" fill="#1E2B3C"/>
<path d="M215.736 154.11V163.195L216.685 161.839C217.092 161.839 217.499 161.703 217.906 161.703C218.719 161.568 219.533 161.296 220.211 161.025C220.889 160.754 221.702 160.347 222.38 159.94C222.651 159.669 223.058 159.533 223.329 159.262C224.007 159.398 224.55 159.534 225.363 159.669C225.499 160.483 225.499 161.16 225.363 161.974C224.957 162.245 224.55 162.652 224.143 162.923C223.329 163.466 222.38 164.008 221.431 164.415C220.482 164.822 219.533 165.093 218.448 165.229C217.906 165.364 217.499 165.364 216.956 165.5C216.55 165.093 216.007 164.686 215.736 164.144V177.161C220.346 180.822 226.177 183.127 232.685 183.127C247.736 183.127 259.804 170.923 259.804 156.008V151.262C260.211 151.669 260.618 152.076 261.16 152.211C263.737 153.025 266.991 150.449 268.347 146.245C269.838 142.042 268.889 137.974 266.449 137.025C264.957 136.482 263.33 137.16 261.838 138.652C261.025 139.466 259.804 138.923 259.533 137.838C257.635 124.686 246.381 114.516 232.685 114.516C217.634 114.516 205.566 126.719 205.566 141.635V154.381H215.736V154.11Z" fill="#1E2B3C"/>
<path d="M216.959 165.222C217.501 165.222 218.043 165.086 218.45 164.95C219.399 164.815 220.484 164.408 221.433 164.137C222.382 163.73 223.332 163.323 224.145 162.645C224.552 162.374 224.959 162.103 225.366 161.696C225.501 161.018 225.501 160.34 225.366 159.391C224.552 159.255 223.874 159.12 223.332 158.984C223.06 159.256 222.654 159.527 222.382 159.662C221.704 160.069 221.026 160.476 220.213 160.747C219.535 161.018 218.721 161.289 217.908 161.425C217.501 161.56 217.094 161.561 216.687 161.561L215.738 162.917V163.594C216.145 164.408 216.552 164.815 216.959 165.222Z" fill="#EDCFC5"/>
<path d="M326.517 488.62C328.687 492.01 330.72 495.535 332.619 498.925L334.11 501.502C334.653 502.316 335.06 503.265 335.466 504.214L337.771 509.773C339.263 513.434 340.755 517.231 342.11 521.028C343.466 524.96 344.28 528.892 345.094 532.824C345.772 536.756 346.314 540.825 346.45 544.892C346.585 548.689 346.45 552.621 345.5 556.553C360.145 551.943 373.975 545.435 386.721 537.299C432.824 507.468 463.333 455.535 463.333 396.551C463.333 310.177 398.111 239.125 314.178 230.04C310.924 229.633 307.669 229.362 304.415 229.227C325.703 303.262 330.856 391.399 326.517 488.62Z" fill="#1E98F5"/>
<path d="M279.734 555.604L277.972 552.079C277.429 550.858 276.887 549.503 276.616 548.282C276.209 546.926 275.938 545.57 275.802 544.35C275.531 542.994 275.26 541.638 275.26 540.282C275.124 538.926 275.124 537.57 275.26 536.079C275.395 534.723 275.666 533.367 275.802 532.011C276.209 529.299 276.48 526.722 276.887 524.01C277.158 521.298 277.429 518.722 277.7 516.01C277.972 513.298 278.243 510.722 278.65 508.01L280.412 492.145L275.124 356.686L256.954 289.16L252.344 272.211L250.039 263.803C249.361 260.956 248.683 258.109 248.005 255.261C246.649 249.295 245.293 243.193 243.937 237.227C238.649 238.989 233.496 240.888 228.344 243.193C228.073 243.329 227.666 243.464 227.395 243.6C227.259 243.735 226.988 243.736 226.852 243.871C178.716 265.702 142.648 309.634 131.8 362.652C129.495 373.635 128.41 384.89 128.41 396.551C128.41 401.432 128.681 406.314 129.088 411.196C133.698 464.349 162.987 510.315 205.564 537.706C228.208 552.214 254.649 561.571 283.124 563.74C281.768 560.893 280.683 558.181 279.734 555.604Z" fill="#1E98F5"/>
<path d="M346.449 545.163C346.314 541.095 345.771 537.027 345.093 533.095C344.415 529.163 343.466 525.094 342.11 521.298C340.754 517.501 339.263 513.705 337.771 510.044L335.466 504.484C335.195 503.535 334.653 502.586 334.11 501.772L332.619 499.196C330.72 495.671 328.551 492.281 326.517 488.891L330.313 500.28L331.263 503.128C331.534 504.077 331.941 505.027 332.347 505.976C333.161 507.738 333.975 509.637 334.652 511.4C336.144 515.061 337.636 518.722 338.856 522.519C340.076 526.18 340.89 529.976 341.703 533.908C342.381 537.705 342.924 541.638 343.059 545.57C343.195 549.502 343.059 553.299 342.11 556.96C341.161 560.485 339.263 563.739 336.008 564.824C335.195 565.095 334.381 565.231 333.568 565.366C332.754 565.366 331.941 565.367 331.127 565.095C329.5 564.689 327.873 563.739 326.788 562.654L325.432 561.434L324.212 562.79C323.263 564.01 322.042 565.231 320.822 566.18C319.601 567.129 318.245 567.943 317.025 568.214C316.483 568.349 315.669 568.214 314.856 568.214C314.042 568.214 313.228 568.079 312.415 567.943C310.788 567.672 309.025 567.807 307.398 567.536L305.093 567.265L305.906 569.163C306.584 570.79 306.72 572.824 306.855 574.723C306.855 576.757 306.72 578.655 306.449 580.689C307.262 578.79 307.94 576.892 308.347 574.858C308.618 573.502 308.754 572.011 308.754 570.655C309.025 570.79 309.296 570.79 309.567 570.926C310.381 571.197 311.33 571.332 312.144 571.468L314.856 571.604C315.805 571.604 316.618 571.739 317.839 571.604C320.008 571.197 321.635 570.112 323.127 568.892C324.212 568.078 325.025 567.265 325.974 566.316C326.381 566.587 326.924 566.858 327.33 567.265C328.28 567.807 329.364 568.214 330.449 568.485C331.534 568.756 332.754 568.892 333.975 568.756C335.195 568.62 336.28 568.485 337.364 568.078C339.534 567.264 341.568 565.773 342.788 563.875C344.144 561.977 344.958 559.942 345.5 557.908C345.5 557.637 345.636 557.366 345.636 557.23C346.449 552.891 346.585 548.959 346.449 545.163Z" fill="#EDCFC5"/>
<path d="M249.908 263.941L252.213 272.348L256.823 289.298L274.993 356.824L280.281 492.283L278.518 508.148C278.112 510.86 277.841 513.436 277.569 516.148C277.298 518.86 277.027 521.436 276.756 524.148C276.485 526.86 276.078 529.436 275.671 532.148C275.535 533.504 275.264 534.724 275.129 536.216C274.993 537.572 274.993 538.928 275.129 540.419C275.264 541.775 275.535 543.131 275.671 544.487C275.942 545.843 276.213 547.199 276.485 548.419C276.891 549.775 277.298 550.996 277.841 552.216L279.603 555.742V555.877L278.112 552.081C277.705 550.86 277.298 549.505 277.027 548.284C276.756 546.928 276.62 545.707 276.485 544.351C276.349 542.995 276.213 541.64 276.213 540.419C276.213 539.063 276.349 537.843 276.485 536.487C276.756 535.267 277.027 533.911 277.298 532.555C277.841 529.979 278.383 527.266 278.925 524.69C279.874 519.402 280.959 514.114 281.502 508.69L283.264 492.69V492.555V492.419L277.976 356.688V356.552V356.417L259.671 288.755L255.061 271.805L252.755 263.399C251.942 260.551 250.993 257.839 250.179 254.992C246.654 243.873 243.264 232.619 239.738 221.5C240.959 226.924 242.179 232.347 243.399 237.636C244.755 243.602 246.111 249.703 247.467 255.67C248.688 258.246 249.23 261.094 249.908 263.941Z" fill="#EDCFC5"/>
<path d="M730.182 373.089C728.419 373.089 726.656 372.953 724.758 372.817C717.571 372.004 710.114 371.733 703.469 372.004C693.029 372.004 683.266 372.817 677.706 376.207C666.723 382.987 655.469 389.496 653.57 397.767C653.164 398.716 652.757 399.801 652.486 400.886C651.537 401.428 650.452 401.97 649.367 402.648C643.401 405.902 632.418 412.411 640.146 417.971C640.689 418.377 641.231 418.513 641.774 418.784C641.909 418.784 641.909 418.784 642.045 418.784C642.994 418.784 644.079 418.513 645.028 418.241C647.062 417.699 648.96 417.021 650.859 416.208C654.791 415.123 658.723 413.631 662.655 412.275C670.52 409.428 678.52 406.309 687.062 404.953C689.232 404.682 691.401 404.275 693.571 404.275C695.741 404.14 697.774 404.275 699.808 404.004C703.876 403.733 707.944 403.055 711.876 401.835C715.809 400.75 719.605 399.258 723.402 397.36C727.334 396.004 731.402 394.512 735.47 393.292C731.944 395.733 728.554 398.174 724.893 400.343C721.097 402.106 717.029 403.733 712.826 404.953C708.622 406.174 704.419 406.852 700.08 407.123C697.91 407.259 695.74 407.258 693.707 407.394C691.944 407.394 690.181 407.666 688.418 407.937C690.046 409.428 691.673 410.92 693.164 412.683C695.334 415.123 697.368 417.699 698.995 420.547C699.808 422.038 700.486 423.666 700.893 425.428C700.893 426.242 700.622 427.191 700.351 428.005C704.69 427.733 708.622 427.056 712.283 426.106C718.656 424.615 726.792 418.648 733.843 412.818C746.453 411.869 769.64 409.699 793.64 404.275L774.521 355.055L730.182 373.089Z" fill="#1E2B3C"/>
<path d="M856.016 263.397L855.202 260.143L854.253 256.888C854.118 256.346 853.982 255.804 853.711 255.261C853.575 254.719 853.304 254.176 853.168 253.634C852.49 249.973 851.677 246.312 851.134 242.516L842.728 270.583L856.287 265.295L856.016 263.397Z" fill="#1E2B3C"/>
<path d="M1011 537.839L970.051 553.704C969.916 554.924 969.644 556.144 969.373 557.5C968.831 559.534 968.017 561.568 966.661 563.466C965.305 565.365 963.407 566.856 961.237 567.67C960.153 568.077 959.068 568.348 957.848 568.348C956.627 568.483 955.542 568.348 954.322 568.076C953.237 567.805 952.153 567.398 951.203 566.856C950.661 566.585 950.254 566.314 949.847 565.907C948.898 566.857 948.085 567.67 947 568.484C945.508 569.568 943.881 570.653 941.712 571.195C940.491 571.331 939.678 571.331 938.729 571.195L936.017 571.06C935.068 571.06 934.254 570.789 933.44 570.517C933.169 570.382 932.898 570.382 932.627 570.246C932.627 571.738 932.491 573.094 932.22 574.45C931.813 576.483 931.135 578.382 930.322 580.28C930.729 578.246 930.729 576.212 930.729 574.314C930.729 572.415 930.457 570.381 929.779 568.754L928.966 566.856L931.271 567.128C932.898 567.399 934.661 567.263 936.288 567.534C937.102 567.67 937.915 567.806 938.729 567.806C939.542 567.806 940.491 567.806 940.898 567.806C942.119 567.534 943.475 566.721 944.695 565.772C945.915 564.822 947.136 563.602 948.085 562.382L949.305 561.026L950.661 562.246C951.881 563.331 953.509 564.28 955 564.686C955.814 564.958 956.627 564.958 957.441 564.958C958.254 564.958 959.068 564.687 959.882 564.416C963.136 563.331 965.034 560.212 965.983 556.551C966.932 553.025 967.068 549.093 966.932 545.161C966.797 541.229 966.254 537.432 965.576 533.5C964.898 529.703 964.085 525.771 962.729 522.11C961.509 518.449 960.017 514.652 958.526 510.991C957.712 509.229 957.034 507.33 956.22 505.567C955.814 504.618 955.407 503.805 955.136 502.72L954.187 499.872L950.39 488.482C954.593 394.379 949.847 308.819 930.322 236.275L939 232.886C927.61 193.427 906.186 173.902 877.982 183.393C851.812 192.071 847.744 216.614 851.812 240.208L851.541 241.292C853.168 245.089 854.795 248.75 856.422 252.411C856.694 252.954 856.829 253.496 856.965 254.039C857.1 254.581 857.372 255.123 857.507 255.665L858.456 259.055L859.27 262.445L859.541 263.801L872.694 258.649C872.423 257.428 872.151 256.343 871.88 255.123C869.304 243.733 866.592 232.343 864.151 220.953C867.812 232.072 871.202 243.191 874.592 254.445C875.406 257.293 876.355 260.005 877.169 262.852L879.474 271.259L884.084 288.208L902.389 355.87V356.006V356.141L907.677 491.872V492.008V492.143L905.915 508.144C905.372 513.567 904.288 518.855 903.338 524.144C902.796 526.856 902.254 529.432 901.711 532.009C901.44 533.365 901.033 534.585 900.898 535.941C900.626 537.161 900.626 538.517 900.626 539.873C900.626 541.229 900.762 542.449 900.898 543.805C901.033 545.161 901.169 546.517 901.44 547.737C901.711 549.093 901.982 550.314 902.525 551.534L904.016 555.331V555.195C906.593 561.297 909.169 569.161 912.559 575.806C914.728 580.009 917.305 583.806 920.288 586.247C923.813 589.094 926.661 587.467 928.559 584.077C941.983 602.247 957.305 619.06 973.983 634.247C989.848 648.891 1007.07 662.044 1025.1 673.841C1037.85 682.247 1051.14 689.841 1064.83 696.757C1070.12 699.469 1077.17 701.366 1081.92 705.027C1086.53 708.417 1105.51 722.113 1089.51 758.995C1079.61 781.639 1111.21 798.859 1111.21 798.859L1195 675.468C1194.73 675.875 1083.82 630.044 1011 537.839Z" fill="#1E2B3C"/>
<path d="M837.304 517.367C795.947 632.081 724.76 683.2 720.827 685.099C716.081 687.404 685.301 697.031 659.267 666.386C643.267 647.538 623.741 670.183 623.741 670.183L676.759 797.913C676.759 797.913 828.49 745.98 905.101 578.927L866.999 593.708L837.304 517.367Z" fill="#1E2B3C"/>
<path d="M853.713 255.257C853.848 255.8 854.12 256.342 854.255 256.884L855.204 260.139L856.018 263.393L856.425 265.291L859.679 264.071L859.408 262.715L858.594 259.325L857.645 255.935C857.51 255.393 857.238 254.85 857.103 254.308C856.967 253.765 856.832 253.223 856.56 252.681C854.933 249.02 853.306 245.223 851.679 241.562C851.408 241.02 851.272 240.613 851.001 240.07C851.137 240.884 851.272 241.697 851.272 242.646C851.815 246.443 852.493 250.104 853.306 253.766C853.306 254.172 853.577 254.715 853.713 255.257Z" fill="#EDCFC5"/>
<path d="M697.37 426.247C697.099 424.891 696.556 423.67 695.878 422.314C694.522 419.738 692.624 417.298 690.59 414.992C688.556 412.823 686.387 410.789 684.082 408.891C682.726 409.162 681.37 409.569 680.014 409.976C680.014 409.976 680.014 409.975 680.014 410.111C681.234 414.314 682.59 418.382 684.353 422.314C685.709 425.704 686.929 429.095 687.471 432.891C691.268 435.332 696.014 433.434 697.777 430.179C698.048 429.637 698.319 429.094 698.319 428.416C698.048 427.603 697.777 426.925 697.37 426.247Z" fill="#1E2B3C"/>
<path d="M698.728 420.684C697.101 417.701 695.067 415.125 692.897 412.82C691.406 411.192 689.779 409.565 688.152 408.074C689.914 407.803 691.677 407.531 693.44 407.531C695.474 407.396 697.779 407.532 699.813 407.261C704.152 406.989 708.355 406.176 712.559 405.091C716.762 404.006 720.694 402.244 724.627 400.481C728.288 398.176 731.678 395.735 735.203 393.43C731.135 394.514 727.067 396.142 723.135 397.498C719.338 399.26 715.542 400.887 711.61 401.972C707.677 403.057 703.609 403.735 699.542 404.142C697.508 404.277 695.474 404.277 693.304 404.413C691.135 404.413 688.965 404.684 686.796 405.091C678.253 406.583 670.253 409.566 662.389 412.413C658.456 413.905 654.524 415.26 650.592 416.345C648.693 417.159 646.795 417.837 644.761 418.379C643.812 418.65 642.727 418.786 641.778 418.921C641.642 418.921 641.642 418.921 641.507 418.921C640.558 418.921 639.608 418.922 638.795 418.515C639.608 419.193 640.693 419.735 641.778 419.871C642.863 420.142 643.948 420.142 645.032 420.277C647.202 420.277 649.371 420.006 651.541 419.735C651.541 419.735 651.541 419.735 651.676 419.735C655.609 418.65 659.405 417.294 663.202 415.803C663.202 417.159 663.338 418.379 663.473 419.599L664.016 422.447L664.287 423.803C664.287 424.21 664.287 424.752 664.422 425.159C664.558 426.108 664.422 426.921 664.422 427.735C664.287 428.549 664.151 429.363 663.88 430.176C663.338 431.668 662.388 433.023 661.168 433.43C660.761 433.837 660.355 434.108 659.812 434.244C659.541 434.38 659.405 434.379 659.134 434.515C658.321 434.65 657.372 434.651 656.558 434.108C656.829 435.193 657.778 436.007 658.863 436.414C659.948 436.82 661.304 436.955 662.524 436.549C664.829 435.464 666.321 433.43 666.999 431.261C667.406 430.176 667.541 429.091 667.677 428.006C667.677 427.328 667.677 426.786 667.812 426.108C667.812 425.701 667.812 425.295 667.812 424.752C667.812 424.21 667.812 423.667 667.677 423.261L667.406 421.769L666.863 418.921C666.592 417.43 666.592 415.938 666.592 414.311C669.982 413.091 673.236 411.87 676.626 410.921C676.626 410.921 676.626 410.921 676.626 411.057C677.846 415.261 679.338 419.599 681.101 423.667C682.728 427.599 684.084 431.668 684.355 435.736C684.491 437.77 684.219 439.803 683.541 441.43C683.406 442.379 683.135 443.329 682.592 444.142C682.457 444.278 682.457 444.414 682.321 444.549C681.779 445.227 681.236 445.905 680.423 446.448C682.728 446.583 685.304 444.956 686.66 442.786C687.609 440.345 687.88 437.905 687.745 435.6C687.745 434.651 687.609 433.837 687.474 432.888C686.931 429.227 685.711 425.701 684.355 422.311C682.728 418.379 681.236 414.311 680.016 410.108C680.016 410.108 680.016 410.108 680.016 409.973C681.372 409.566 682.728 409.294 684.084 408.887C686.389 410.786 688.558 412.82 690.592 414.989C692.626 417.294 694.525 419.735 695.881 422.311C696.558 423.532 697.101 424.888 697.372 426.244C697.779 426.922 698.186 427.599 698.321 428.413C698.457 429.091 698.592 429.769 698.457 430.583C699.135 430.04 699.677 429.227 700.084 428.278C700.355 427.464 700.626 426.515 700.626 425.701C700.22 423.803 699.542 422.176 698.728 420.684Z" fill="#EDCFC5"/>
<path d="M683.403 441.431C684.217 439.804 684.353 437.77 684.217 435.736C683.946 431.668 682.726 427.6 680.963 423.668C679.2 419.6 677.709 415.261 676.488 411.058C676.488 411.058 676.488 411.057 676.488 410.922C673.098 412.007 669.844 413.091 666.454 414.312C666.454 415.803 666.454 417.295 666.725 418.922L667.268 421.769L667.539 423.261C667.674 423.804 667.674 424.346 667.674 424.753C667.674 425.16 667.674 425.566 667.674 426.109C670.929 436.143 673.641 447.261 679.878 445.499C680.692 445.227 681.505 444.957 682.183 444.414C682.319 444.279 682.319 444.143 682.454 444.007C682.997 443.329 683.268 442.38 683.403 441.431Z" fill="#1E2B3C"/>
<path d="M663.74 430.045C664.011 429.367 664.146 428.418 664.282 427.605C664.282 426.791 664.418 425.841 664.282 425.028C664.282 424.621 664.282 424.214 664.146 423.672L663.875 422.316L663.333 419.469C663.197 418.249 663.062 416.892 663.062 415.672C659.265 417.028 655.468 418.384 651.536 419.604C651.536 419.604 651.536 419.604 651.4 419.604C652.621 425.977 655.061 430.994 656.417 432.893C657.095 433.842 658.18 434.249 659.536 434.249C660.078 433.977 660.485 433.842 660.892 433.435C662.248 432.893 663.197 431.537 663.74 430.045Z" fill="#1E2B3C"/>
<path d="M839.746 154.104V163.189L840.695 161.833C841.102 161.833 841.509 161.698 841.915 161.698C842.729 161.562 843.542 161.291 844.22 161.02C844.898 160.748 845.712 160.341 846.39 159.934C846.661 159.663 847.068 159.528 847.339 159.256C848.017 159.392 848.56 159.528 849.373 159.664C849.509 160.477 849.509 161.155 849.373 161.968C848.966 162.24 848.56 162.647 848.153 162.918C847.339 163.46 846.39 164.003 845.441 164.409C844.492 164.816 843.542 165.088 842.458 165.223C841.915 165.359 841.509 165.358 840.966 165.494C840.559 165.087 840.017 164.68 839.746 164.138V177.155C844.356 180.816 850.187 183.121 856.695 183.121C867.543 183.121 876.763 176.884 881.102 167.664C882.865 164.138 883.814 160.07 883.814 155.867V151.121C884.221 151.528 884.628 151.935 885.17 152.07C887.746 152.884 891.001 150.308 892.357 146.104C893.848 141.901 892.899 137.832 890.458 136.883C888.967 136.341 887.34 137.019 885.848 138.511C885.035 139.324 883.814 138.782 883.543 137.697C881.645 124.544 870.39 114.375 856.695 114.375C847.61 114.375 839.475 118.85 834.593 125.901C831.475 130.375 829.576 135.798 829.576 141.629V154.376H839.746V154.104Z" fill="#1E2B3C"/>
<path d="M841.098 165.222C841.641 165.222 842.183 165.086 842.59 164.95C843.539 164.815 844.624 164.408 845.573 164.137C846.522 163.866 847.471 163.323 848.285 162.645C848.692 162.374 849.098 162.103 849.505 161.696C849.641 161.018 849.641 160.34 849.505 159.391C848.692 159.255 848.014 159.12 847.471 158.984C847.2 159.256 846.793 159.527 846.522 159.662C845.844 160.069 845.166 160.476 844.353 160.747C843.675 161.018 842.861 161.289 842.047 161.425C841.641 161.56 841.234 161.561 840.827 161.561L839.878 162.917V163.594C840.149 164.408 840.556 164.815 841.098 165.222Z" fill="#EDCFC5"/>
<path d="M903.745 555.599L901.983 552.073C901.44 550.853 900.898 549.497 900.627 548.277C900.22 546.921 899.949 545.564 899.813 544.344C899.542 542.988 899.271 541.632 899.271 540.276C899.135 538.92 899.135 537.565 899.271 536.073C899.406 534.717 899.678 533.361 899.813 532.005C900.22 529.294 900.491 526.717 900.898 524.005C901.169 521.293 901.44 518.717 901.712 516.005C901.983 513.293 902.254 510.717 902.661 508.005L904.423 492.14L899.135 356.681L880.965 289.154L876.355 272.205L874.05 263.798C873.643 262.171 873.237 260.408 872.83 258.781L859.677 263.934L856.423 265.154L842.863 270.442L754.591 304.748L774.252 355.054L793.371 404.275L837.304 517.225L867.135 593.701L905.237 578.921L912.424 576.074C908.898 569.565 906.322 561.701 903.745 555.599Z" fill="#F45F63"/>
<path d="M950.661 488.619C952.83 492.009 954.864 495.534 956.762 498.924L958.254 501.501C958.796 502.314 959.203 503.263 959.61 504.213L961.915 509.771C963.407 513.432 964.898 517.23 966.254 521.026C967.61 524.958 968.424 528.89 969.237 532.823C969.915 536.755 970.458 540.823 970.593 544.891C970.729 547.739 970.593 550.586 970.186 553.569L1011.14 537.704L1156.09 481.296L1043.54 192.344L939.135 233.022L930.457 236.412C949.983 308.956 954.729 394.516 950.661 488.619Z" fill="#F45F63"/>
<path d="M970.457 545.163C970.322 541.095 969.779 537.027 969.101 533.095C968.423 529.163 967.474 525.094 966.118 521.298C964.762 517.501 963.271 513.705 961.779 510.044L959.474 504.484C959.203 503.535 958.66 502.586 958.118 501.772L956.626 499.196C954.728 495.671 952.559 492.281 950.525 488.891L954.321 500.28L955.27 503.128C955.542 504.077 955.948 505.027 956.355 505.976C957.169 507.738 957.982 509.637 958.66 511.4C960.152 515.061 961.643 518.722 962.864 522.519C964.084 526.18 964.898 529.976 965.711 533.908C966.389 537.705 966.932 541.638 967.067 545.57C967.203 549.502 967.067 553.299 966.118 556.96C965.169 560.485 963.271 563.739 960.016 564.824C959.203 565.095 958.389 565.231 957.576 565.366C956.762 565.366 955.948 565.367 955.135 565.095C953.508 564.689 951.881 563.739 950.796 562.654L949.44 561.434L948.219 562.79C947.27 564.01 946.05 565.231 944.83 566.18C943.609 567.129 942.253 567.943 941.033 568.214C940.491 568.349 939.677 568.214 938.863 568.214C938.05 568.214 937.236 568.079 936.423 567.943C934.796 567.672 933.033 567.807 931.406 567.536L929.101 567.265L929.914 569.163C930.592 570.79 930.728 572.824 930.863 574.723C930.863 576.757 930.728 578.655 930.457 580.689C931.27 578.79 931.948 576.892 932.355 574.858C932.626 573.502 932.762 572.011 932.762 570.655C933.033 570.79 933.304 570.79 933.575 570.926C934.389 571.197 935.338 571.332 936.152 571.468L938.863 571.604C939.813 571.604 940.626 571.739 941.846 571.604C944.016 571.197 945.643 570.112 947.135 568.892C948.219 568.078 949.033 567.265 949.982 566.316C950.389 566.587 950.931 566.858 951.338 567.265C952.287 567.807 953.372 568.214 954.457 568.485C955.542 568.756 956.762 568.892 957.982 568.756C959.203 568.62 960.287 568.485 961.372 568.078C963.542 567.264 965.576 565.773 966.796 563.875C968.152 561.977 968.966 559.942 969.508 557.908C969.779 556.688 970.05 555.468 970.186 554.112C970.593 550.858 970.593 548.01 970.457 545.163Z" fill="#EDCFC5"/>
<path d="M876.358 272.348L880.968 289.298L899.138 356.824L904.426 492.283L902.663 508.148C902.256 510.86 901.985 513.436 901.714 516.148C901.443 518.86 901.172 521.436 900.9 524.148C900.629 526.86 900.222 529.436 899.816 532.148C899.68 533.504 899.409 534.724 899.273 536.216C899.138 537.572 899.138 538.928 899.273 540.419C899.409 541.775 899.68 543.131 899.816 544.487C900.087 545.843 900.358 547.199 900.629 548.419C901.036 549.775 901.443 550.996 901.985 552.216L903.748 555.742V555.877L902.256 552.081C901.85 550.86 901.443 549.505 901.171 548.284C900.9 546.928 900.765 545.707 900.629 544.351C900.494 542.995 900.358 541.64 900.358 540.419C900.358 539.063 900.494 537.843 900.629 536.487C900.9 535.267 901.171 533.911 901.443 532.555C901.985 529.979 902.527 527.266 903.07 524.69C904.019 519.402 905.104 514.114 905.646 508.69L907.409 492.69V492.555V492.419L902.121 356.688V356.552V356.417L883.815 288.755L879.205 271.805L876.9 263.399C876.086 260.551 875.137 257.839 874.324 254.992C870.798 243.873 867.408 232.619 863.883 221.5C866.324 232.89 869.035 244.28 871.612 255.67C871.883 256.89 872.154 257.975 872.425 259.195C872.832 260.822 873.239 262.585 873.646 264.212L876.358 272.348Z" fill="#EDCFC5"/>
</svg>
