<svg width="216" height="106" viewBox="0 0 216 106" fill="none" xmlns="http://www.w3.org/2000/svg">
<path d="M108 81.5C92.2599 81.5 79.5 68.7401 79.5 53C79.5 37.2599 92.2599 24.5 108 24.5C123.74 24.5 136.5 37.2599 136.5 53C136.5 68.7401 123.74 81.5 108 81.5Z" fill="#D2EAFD"/>
<path d="M108 81.5C92.2599 81.5 79.5 68.7401 79.5 53C79.5 37.2599 92.2599 24.5 108 24.5C123.74 24.5 136.5 37.2599 136.5 53C136.5 68.7401 123.74 81.5 108 81.5Z" stroke="#1B88DD" stroke-width="3"/>
<path fill-rule="evenodd" clip-rule="evenodd" d="M101.125 44.75C101.125 40.953 104.203 37.875 108 37.875C111.797 37.875 114.875 40.953 114.875 44.75C114.875 48.547 111.797 51.625 108 51.625C104.203 51.625 101.125 48.547 101.125 44.75ZM108 35.125C102.684 35.125 98.375 39.4343 98.375 44.75C98.375 50.0657 102.684 54.375 108 54.375C113.316 54.375 117.625 50.0657 117.625 44.75C117.625 39.4343 113.316 35.125 108 35.125ZM101.194 62.6941C102.999 60.8891 105.447 59.875 108 59.875C110.553 59.875 113.001 60.8891 114.806 62.6941C116.611 64.4991 117.625 66.9473 117.625 69.5C117.625 70.2594 118.241 70.875 119 70.875C119.759 70.875 120.375 70.2594 120.375 69.5C120.375 66.2179 119.071 63.0703 116.75 60.7496C114.43 58.4288 111.282 57.125 108 57.125C104.718 57.125 101.57 58.4288 99.2496 60.7496C96.9288 63.0703 95.625 66.2179 95.625 69.5C95.625 70.2594 96.2406 70.875 97 70.875C97.7594 70.875 98.375 70.2594 98.375 69.5C98.375 66.9473 99.3891 64.4991 101.194 62.6941Z" fill="#1B88DD"/>
</svg>
