<svg width="216" height="106" viewBox="0 0 216 106" fill="none" xmlns="http://www.w3.org/2000/svg">
<rect x="96" y="41.5" width="24" height="24" rx="2" fill="#1B88DD"/>
<rect x="135" y="41.5" width="24" height="24" rx="2" fill="#D2EAFD"/>
<rect x="57" y="41.5" width="24" height="24" rx="2" fill="#D2EAFD"/>
<rect x="103" y="48.5" width="10" height="10" rx="5" fill="white"/>
<rect x="64" y="48.5" width="10" height="10" rx="5" fill="#1B88DD"/>
<rect x="142" y="48.5" width="10" height="10" rx="5" fill="#1B88DD"/>
<path fill-rule="evenodd" clip-rule="evenodd" d="M34.0607 46.9393C34.6464 47.5251 34.6464 48.4749 34.0607 49.0607L29.6213 53.5L34.0607 57.9393C34.6464 58.5251 34.6464 59.4749 34.0607 60.0607C33.4749 60.6464 32.5251 60.6464 31.9393 60.0607L26.4393 54.5607C25.8536 53.9749 25.8536 53.0251 26.4393 52.4393L31.9393 46.9393C32.5251 46.3536 33.4749 46.3536 34.0607 46.9393Z" fill="#1B88DD"/>
<path fill-rule="evenodd" clip-rule="evenodd" d="M182.439 60.0607C181.854 59.4749 181.854 58.5251 182.439 57.9393L186.879 53.5L182.439 49.0607C181.854 48.4749 181.854 47.5251 182.439 46.9393C183.025 46.3536 183.975 46.3536 184.561 46.9393L190.061 52.4393C190.646 53.0251 190.646 53.9749 190.061 54.5607L184.561 60.0607C183.975 60.6464 183.025 60.6464 182.439 60.0607Z" fill="#1B88DD"/>
</svg>
