<svg width="743" height="640" viewBox="0 0 743 640" fill="none" xmlns="http://www.w3.org/2000/svg">
<rect width="743" height="640" fill="white"/>
<path d="M508.012 207.349C513.067 202.293 521.264 202.293 526.319 207.349L629.817 310.846C634.872 315.902 634.872 324.098 629.817 329.154L526.319 432.651C521.264 437.706 513.067 437.706 508.012 432.651L404.515 329.154C399.459 324.098 399.459 315.902 404.515 310.846L508.012 207.349Z" fill="#1E98F5"/>
<rect x="371" y="344.361" width="172.258" height="172.258" rx="12.9455" transform="rotate(45 371 344.361)" fill="#68707C"/>
<rect x="224.834" y="198.195" width="172.258" height="172.258" rx="12.9455" transform="rotate(45 224.834 198.195)" fill="#E5AA20"/>
<rect x="371" y="52.0293" width="172.258" height="172.258" rx="12.9455" transform="rotate(45 371 52.0293)" fill="#F45F63"/>
</svg>
