<svg width="186" height="23" viewBox="0 0 186 23" fill="none" xmlns="http://www.w3.org/2000/svg">
<g clip-path="url(#clip0_629_2031)">
<path d="M11.6434 0H1.29222C1.17943 0 1.07126 0.044715 0.991503 0.124308C0.911749 0.203901 0.866943 0.311852 0.866943 0.424414V20.5756C0.866943 20.6881 0.911749 20.7961 0.991503 20.8757C1.07126 20.9553 1.17943 21 1.29222 21H11.6434C14.3809 20.9223 16.9802 19.7824 18.8889 17.8226C20.7977 15.8627 21.8655 13.2373 21.8655 10.5042C21.8655 7.77116 20.7977 5.14578 18.8889 3.18592C16.9802 1.22606 14.3809 0.086189 11.6434 0.00848847V0ZM12.6555 17.8339C11.0894 18.1029 9.47808 17.8674 8.05497 17.1616C6.63186 16.4557 5.47079 15.3162 4.73988 13.9079C4.00898 12.4996 3.74618 10.8958 3.98955 9.32851C4.23291 7.76126 4.9698 6.31198 6.09351 5.19054C7.21723 4.0691 8.66944 3.3337 10.2399 3.09083C11.8103 2.84796 13.4174 3.11022 14.8285 3.83965C16.2397 4.56907 17.3815 5.7278 18.0888 7.14803C18.796 8.56827 19.032 10.1763 18.7624 11.7393C18.5002 13.2603 17.7722 14.6629 16.6786 15.7543C15.5851 16.8456 14.1796 17.5721 12.6555 17.8339" fill="white"/>
</g>
<path d="M36.0663 18C40.5393 18 42.7332 15.1671 42.7332 10.6515C42.7332 6.17846 40.5393 3.02606 36.0663 3.00476H30.5709C30.507 3.00476 30.4644 3.04736 30.4644 3.11126V17.8935C30.4644 17.9574 30.507 18 30.5709 18H36.0663ZM32.5944 16.1895C32.5305 16.1895 32.4879 16.1469 32.4879 16.083V4.92176C32.4879 4.85786 32.5305 4.81526 32.5944 4.81526H36.0663C38.9205 4.81526 40.6032 7.09436 40.6032 10.6515C40.6032 14.2725 38.9205 16.1895 36.0663 16.1895H32.5944Z" fill="white"/>
<path d="M54.5624 13.3353C54.6263 13.3353 54.6476 13.2927 54.6689 13.2288C54.7115 13.0584 54.7754 12.8241 54.7754 12.6111C54.7754 9.28826 52.901 7.00916 49.5782 7.00916C46.2767 7.00916 44.4023 9.26696 44.4023 12.6111C44.4023 15.9339 46.3832 18.213 49.5782 18.213C51.9851 18.213 53.8808 16.9989 54.4346 14.9115C54.4559 14.8263 54.392 14.805 54.3281 14.805H52.4324C52.3685 14.805 52.3259 14.8263 52.2833 14.9115C51.836 15.7635 51.0905 16.4025 49.5782 16.4025C47.6825 16.4025 46.5536 14.9967 46.5536 13.4418C46.5536 13.3779 46.5962 13.3353 46.6601 13.3353H54.5624ZM52.5602 11.6313C52.5602 11.6952 52.5176 11.7378 52.4537 11.7378H46.6601C46.6175 11.7378 46.5536 11.6952 46.5536 11.6313C46.5536 10.6302 47.5121 8.81966 49.5782 8.81966C51.6869 8.81966 52.5602 10.4172 52.5602 11.6313Z" fill="white"/>
<path d="M65.3097 10.8645C65.3736 10.8645 65.3949 10.8219 65.3949 10.758C65.3949 8.24456 63.3288 7.00916 60.7089 7.00916C58.0677 7.00916 56.385 8.43626 56.385 10.1829C56.385 12.8241 58.9623 13.1436 61.0071 13.3779C61.9017 13.4844 63.6696 13.5696 63.6696 14.7837C63.6696 16.1682 62.0934 16.4025 61.0071 16.4025C59.3031 16.4025 58.2168 15.5292 58.2168 14.4642C58.2168 14.4003 58.1529 14.3577 58.089 14.3577H56.2998C56.2359 14.3577 56.1933 14.4003 56.1933 14.4642C56.1933 16.509 57.7695 18.213 61.0071 18.213C63.6696 18.213 65.6931 17.2119 65.6931 14.7837C65.6931 12.0573 63.1371 11.8656 61.0071 11.5674C59.9421 11.4183 58.4085 11.397 58.4085 10.1829C58.4085 9.52256 59.1114 8.81966 60.7089 8.81966C62.4342 8.81966 63.3714 9.58646 63.3714 10.758C63.3714 10.8219 63.414 10.8645 63.4779 10.8645H65.3097Z" fill="white"/>
<path d="M70.0745 6.89116C70.0745 6.82726 70.0319 6.78466 69.968 6.78466H68.1575C68.0936 6.78466 68.051 6.82726 68.051 6.89116V17.456C68.051 17.5199 68.0936 17.5625 68.1575 17.5625H69.968C70.0319 17.5625 70.0745 17.5199 70.0745 17.456V6.89116ZM70.1171 5.44276C70.181 5.44276 70.2236 5.40016 70.2236 5.33626V3.18496C70.2236 3.12106 70.181 3.07846 70.1171 3.07846H67.9871C67.9232 3.07846 67.8806 3.12106 67.8806 3.18496V5.33626C67.8806 5.40016 67.9232 5.44276 67.9871 5.44276H70.1171Z" fill="white"/>
<path d="M75.0196 19.2567C74.9983 19.1928 74.977 19.1502 74.9131 19.1502H73.06C72.9961 19.1502 72.9535 19.1928 72.9535 19.2567C73.1239 20.9607 75.1048 22.4304 77.7247 22.4304C80.728 22.4304 82.7728 20.4708 82.7728 17.5953V7.32866C82.7728 7.26476 82.7302 7.22216 82.6663 7.22216H81.0688C81.0049 7.22216 80.9836 7.26476 80.9623 7.32866L80.7493 8.18066C80.7067 8.30846 80.6002 8.26586 80.5363 8.20196C79.9399 7.60556 78.5554 7.00916 77.4904 7.00916C74.3806 7.00916 72.421 9.28826 72.421 12.6111C72.421 15.9339 74.5936 18.213 77.4904 18.213C78.9814 18.213 80.302 17.2758 80.5363 16.9776C80.6215 16.8498 80.7493 16.935 80.7493 17.0202V17.5953C80.7493 19.0863 79.9612 20.6199 77.7247 20.6199C75.9568 20.6199 75.19 19.7466 75.0196 19.2567ZM74.4445 12.6111C74.4445 10.3959 75.6586 8.81966 77.7034 8.81966C79.6417 8.81966 80.7493 10.3959 80.7493 12.6111C80.7493 14.8263 79.6417 16.4025 77.7034 16.4025C75.6586 16.4025 74.4445 14.8263 74.4445 12.6111Z" fill="white"/>
<path d="M85.8173 7.22216C85.7534 7.22216 85.7108 7.26476 85.7108 7.32866V17.8935C85.7108 17.9574 85.7534 18 85.8173 18H87.6278C87.6917 18 87.7343 17.9574 87.7343 17.8935V12.036C87.7343 10.3746 88.7567 8.81966 90.5459 8.81966C92.6546 8.81966 93.3788 10.4172 93.3788 12.036V17.8935C93.3788 17.9574 93.4214 18 93.4853 18H95.2958C95.3597 18 95.4023 17.9574 95.4023 17.8935V12.036C95.4023 9.26696 93.8474 7.00916 90.7589 7.00916C89.3318 7.00916 88.3946 7.66946 87.9686 8.30846C87.926 8.37236 87.7556 8.41496 87.7343 8.28716L87.5213 7.32866C87.5 7.26476 87.4787 7.22216 87.4148 7.22216H85.8173Z" fill="white"/>
<path d="M106.558 10.8645C106.622 10.8645 106.643 10.8219 106.643 10.758C106.643 8.24456 104.577 7.00916 101.957 7.00916C99.3157 7.00916 97.633 8.43626 97.633 10.1829C97.633 12.8241 100.21 13.1436 102.255 13.3779C103.15 13.4844 104.918 13.5696 104.918 14.7837C104.918 16.1682 103.341 16.4025 102.255 16.4025C100.551 16.4025 99.4648 15.5292 99.4648 14.4642C99.4648 14.4003 99.4009 14.3577 99.337 14.3577H97.5478C97.4839 14.3577 97.4413 14.4003 97.4413 14.4642C97.4413 16.509 99.0175 18.213 102.255 18.213C104.918 18.213 106.941 17.2119 106.941 14.7837C106.941 12.0573 104.385 11.8656 102.255 11.5674C101.19 11.4183 99.6565 11.397 99.6565 10.1829C99.6565 9.52256 100.359 8.81966 101.957 8.81966C103.682 8.81966 104.619 9.58646 104.619 10.758C104.619 10.8219 104.662 10.8645 104.726 10.8645H106.558Z" fill="white"/>
<path d="M107.492 22.1109C107.492 22.1748 107.534 22.2174 107.598 22.2174H110.367C112.093 22.2174 112.753 21.5784 113.349 19.8531L117.609 7.32866C117.631 7.26476 117.567 7.22216 117.503 7.22216H115.565C115.501 7.22216 115.479 7.26476 115.458 7.32866L112.646 15.8913C112.604 15.9978 112.476 15.9978 112.433 15.8913L109.643 7.32866C109.622 7.26476 109.601 7.22216 109.537 7.22216H107.598C107.534 7.22216 107.449 7.24346 107.471 7.32866L111.262 18.4686C111.645 19.5975 111.262 20.4069 110.005 20.4069H107.598C107.534 20.4069 107.492 20.4495 107.492 20.5134V22.1109Z" fill="white"/>
<path d="M127.109 10.8645C127.173 10.8645 127.194 10.8219 127.194 10.758C127.194 8.24456 125.128 7.00916 122.508 7.00916C119.867 7.00916 118.184 8.43626 118.184 10.1829C118.184 12.8241 120.761 13.1436 122.806 13.3779C123.701 13.4844 125.469 13.5696 125.469 14.7837C125.469 16.1682 123.893 16.4025 122.806 16.4025C121.102 16.4025 120.016 15.5292 120.016 14.4642C120.016 14.4003 119.952 14.3577 119.888 14.3577H118.099C118.035 14.3577 117.992 14.4003 117.992 14.4642C117.992 16.509 119.569 18.213 122.806 18.213C125.469 18.213 127.492 17.2119 127.492 14.7837C127.492 12.0573 124.936 11.8656 122.806 11.5674C121.741 11.4183 120.208 11.397 120.208 10.1829C120.208 9.52256 120.911 8.81966 122.508 8.81966C124.233 8.81966 125.171 9.58646 125.171 10.758C125.171 10.8219 125.213 10.8645 125.277 10.8645H127.109Z" fill="white"/>
<path d="M134.853 16.296C134.853 16.2321 134.81 16.1895 134.746 16.1895H133.489C132.637 16.1895 132.339 15.7848 132.339 15.1245V8.92616C132.339 8.86226 132.382 8.81966 132.446 8.81966H134.746C134.81 8.81966 134.853 8.77706 134.853 8.71316V7.32866C134.853 7.26476 134.81 7.22216 134.746 7.22216H132.446C132.382 7.22216 132.339 7.17956 132.339 7.11566V4.24016C132.339 4.17626 132.297 4.13366 132.233 4.13366H130.422C130.358 4.13366 130.316 4.17626 130.316 4.24016V7.11566C130.316 7.17956 130.273 7.22216 130.209 7.22216H128.313C128.25 7.22216 128.207 7.26476 128.207 7.32866V8.71316C128.207 8.77706 128.25 8.81966 128.313 8.81966H130.209C130.273 8.81966 130.316 8.86226 130.316 8.92616V15.4866C130.316 17.2332 131.338 18 133.106 18H134.746C134.81 18 134.853 17.9574 134.853 17.8935V16.296Z" fill="white"/>
<path d="M146.231 13.3353C146.295 13.3353 146.317 13.2927 146.338 13.2288C146.381 13.0584 146.444 12.8241 146.444 12.6111C146.444 9.28826 144.57 7.00916 141.247 7.00916C137.946 7.00916 136.071 9.26696 136.071 12.6111C136.071 15.9339 138.052 18.213 141.247 18.213C143.654 18.213 145.55 16.9989 146.104 14.9115C146.125 14.8263 146.061 14.805 145.997 14.805H144.101C144.038 14.805 143.995 14.8263 143.952 14.9115C143.505 15.7635 142.76 16.4025 141.247 16.4025C139.352 16.4025 138.223 14.9967 138.223 13.4418C138.223 13.3779 138.265 13.3353 138.329 13.3353H146.231ZM144.229 11.6313C144.229 11.6952 144.187 11.7378 144.123 11.7378H138.329C138.287 11.7378 138.223 11.6952 138.223 11.6313C138.223 10.6302 139.181 8.81966 141.247 8.81966C143.356 8.81966 144.229 10.4172 144.229 11.6313Z" fill="white"/>
<path d="M148.864 7.22216C148.801 7.22216 148.758 7.26476 148.758 7.32866V17.8935C148.758 17.9574 148.801 18 148.864 18H150.675C150.739 18 150.781 17.9574 150.781 17.8935V12.036C150.781 10.3746 151.357 8.81966 153.146 8.81966C155.169 8.81966 155.531 10.3746 155.531 12.036V17.8935C155.531 17.9148 155.531 17.9361 155.553 17.9574C155.553 17.9787 155.574 18 155.617 18H155.638H157.448C157.47 18 157.491 18 157.512 17.9787C157.534 17.9574 157.555 17.9361 157.555 17.8935V12.036C157.555 10.3746 157.917 8.81966 159.919 8.81966C162.028 8.81966 162.305 10.4172 162.305 12.036V17.8935C162.305 17.9574 162.347 18 162.411 18H164.222C164.286 18 164.328 17.9574 164.328 17.8935V12.036C164.328 8.84096 162.901 7.00916 160.132 7.00916C159.11 7.00916 157.725 7.34996 156.916 8.28716C156.809 8.39366 156.767 8.37236 156.66 8.28716C155.659 7.32866 155.063 7.00916 153.572 7.00916C152.528 7.00916 151.42 7.52036 151.037 8.28716C150.994 8.37236 150.824 8.41496 150.781 8.28716L150.568 7.32866C150.547 7.26476 150.526 7.22216 150.462 7.22216H148.864Z" fill="white"/>
<path d="M176.663 13.3353C176.727 13.3353 176.748 13.2927 176.769 13.2288C176.812 13.0584 176.876 12.8241 176.876 12.6111C176.876 9.28826 175.002 7.00916 171.679 7.00916C168.377 7.00916 166.503 9.26696 166.503 12.6111C166.503 15.9339 168.484 18.213 171.679 18.213C174.086 18.213 175.981 16.9989 176.535 14.9115C176.556 14.8263 176.493 14.805 176.429 14.805H174.533C174.469 14.805 174.426 14.8263 174.384 14.9115C173.937 15.7635 173.191 16.4025 171.679 16.4025C169.783 16.4025 168.654 14.9967 168.654 13.4418C168.654 13.3779 168.697 13.3353 168.761 13.3353H176.663ZM174.661 11.6313C174.661 11.6952 174.618 11.7378 174.554 11.7378H168.761C168.718 11.7378 168.654 11.6952 168.654 11.6313C168.654 10.6302 169.613 8.81966 171.679 8.81966C173.787 8.81966 174.661 10.4172 174.661 11.6313Z" fill="white"/>
<path d="M184.254 16.296C184.254 16.2321 184.212 16.1895 184.148 16.1895H182.891C182.039 16.1895 181.741 15.7848 181.741 15.1245V8.92616C181.741 8.86226 181.784 8.81966 181.848 8.81966H184.148C184.212 8.81966 184.254 8.77706 184.254 8.71316V7.32866C184.254 7.26476 184.212 7.22216 184.148 7.22216H181.848C181.784 7.22216 181.741 7.17956 181.741 7.11566V4.24016C181.741 4.17626 181.698 4.13366 181.635 4.13366H179.824C179.76 4.13366 179.718 4.17626 179.718 4.24016V7.11566C179.718 7.17956 179.675 7.22216 179.611 7.22216H177.715C177.651 7.22216 177.609 7.26476 177.609 7.32866V8.71316C177.609 8.77706 177.651 8.81966 177.715 8.81966H179.611C179.675 8.81966 179.718 8.86226 179.718 8.92616V15.4866C179.718 17.2332 180.74 18 182.508 18H184.148C184.212 18 184.254 17.9574 184.254 17.8935V16.296Z" fill="white"/>
<defs>
<clipPath id="clip0_629_2031">
<rect width="21" height="21" fill="white" transform="translate(0.866943)"/>
</clipPath>
</defs>
</svg>
