<svg width="1195" height="844" viewBox="0 0 1195 844" fill="none" xmlns="http://www.w3.org/2000/svg">
<path d="M358.172 455.016C358.172 455.016 360.781 459.363 363.535 465.303C363.245 462.695 363.1 459.942 362.81 457.334C359.911 455.885 358.172 455.016 358.172 455.016Z" fill="white"/>
<path d="M427.887 623.812C424.988 628.014 421.654 632.071 418.176 635.983C419.77 635.259 421.219 634.679 422.669 633.81L427.887 623.812Z" fill="white"/>
<path d="M234.828 441.395C234.828 441.395 234.828 441.54 234.828 441.686C236.567 441.54 238.307 441.395 240.046 441.25L234.828 441.395Z" fill="white"/>
<path d="M891.981 287.955C883.574 292.592 874.878 296.794 865.891 300.416L849.223 310.993C842.701 316.934 836.034 322.875 829.367 328.67C826.033 331.713 822.555 334.466 819.076 337.219C817.337 338.668 815.597 339.972 813.713 341.421C811.974 342.725 809.945 344.029 808.205 345.333C801.393 350.694 795.161 357.359 787.624 362.43C783.856 365.038 779.942 367.211 775.449 368.226C774.29 368.371 773.13 368.661 771.971 368.516C770.811 368.371 769.652 367.936 768.927 366.922C768.202 365.908 768.202 364.748 768.347 363.589C768.492 362.43 768.927 361.416 769.507 360.547C772.116 356.2 775.884 353.591 781.827 346.926C786.175 342 792.117 328.815 792.117 328.815C792.117 328.815 762.84 350.114 746.316 360.112V437.195L789.363 436.18C789.363 436.18 775.739 417.779 773.565 413.432C771.391 409.086 770.811 397.929 775.594 392.712C776.319 391.843 777.188 391.118 778.493 391.118C779.652 391.263 780.667 391.988 781.537 392.712C783.131 394.306 784.435 396.19 785.595 398.074C786.754 399.957 787.914 401.841 789.363 403.29C790.813 404.739 792.552 406.333 794.146 407.637C797.48 410.535 800.814 413.288 804.002 416.33C807.191 419.228 810.525 422.27 813.858 425.168L814.003 425.313L814.148 425.458L838.063 462.406L880.82 470.809L902.561 475.012C909.808 476.606 917.055 478.344 924.157 480.227C936.477 483.56 948.797 487.328 960.682 491.674C964.015 473.563 965.9 454.872 965.9 435.746C965.9 375.181 948.072 318.817 917.49 271.582C917.055 271.872 916.62 272.162 916.185 272.452C908.793 278.102 900.532 283.174 891.981 287.955Z" fill="#1E98F5"/>
<path d="M746.898 337.363C749.218 335.479 751.537 333.595 753.711 331.856C765.016 322.293 773.712 314.18 773.712 314.18C773.712 314.18 740.811 326.785 723.273 332.581H746.898V337.363Z" fill="#1E98F5"/>
<path d="M711.531 322.436C716.314 318.234 757.621 299.833 767.332 292.299C776.898 284.764 781.246 279.258 777.913 273.027C774.579 266.797 766.318 276.07 747.765 270.999C729.068 265.928 731.242 255.93 736.17 255.061C736.17 255.061 782.841 255.93 808.35 249.265C823.859 245.208 836.178 239.992 843.425 236.66L862.123 207.101C850.093 196.669 837.338 187.251 823.859 178.847C801.973 165.227 778.203 154.361 752.983 146.536C752.838 146.971 752.693 147.261 752.548 147.695C751.969 148.999 751.389 150.304 750.809 151.753C750.084 153.057 749.36 154.216 748.635 155.52C745.446 160.446 741.098 164.503 736.17 167.691C731.097 170.734 725.445 172.328 719.792 172.907C714.139 173.487 708.342 172.762 703.124 170.734C686.021 165.807 674.861 150.449 674.426 133.641C671.092 133.496 667.759 133.496 664.57 133.496C648.917 133.496 633.553 134.655 618.479 136.973C608.913 138.422 599.347 140.306 590.071 142.769C580.94 152.767 577.316 161.026 577.316 161.026L581.52 192.612C584.418 208.55 596.593 261.147 596.593 261.147L641.525 290.125C641.525 290.125 654.859 309.975 654.714 312.584C654.569 315.192 655.874 328.522 650.076 331.42C648.337 332.289 646.453 332.723 644.713 332.723H707.472C706.458 329.536 708.777 324.754 711.531 322.436Z" fill="#1E98F5"/>
<path d="M422.666 413.573C414.549 413.428 380.053 411.11 380.053 411.11C380.053 411.11 431.072 438.205 438.609 445.594C446.146 452.839 439.334 462.547 431.942 459.214C424.55 455.881 375.705 435.742 375.705 435.742L374.691 438.495C374.691 438.495 424.115 467.038 425.564 472.544C427.159 478.195 425.419 485.295 417.013 482.397C410.201 480.079 375.415 463.561 362.516 457.331C362.661 460.084 362.95 462.692 363.24 465.3C365.559 470.371 368.023 476.456 369.038 481.817C369.908 484.86 370.487 487.903 370.777 491.09C371.067 494.278 371.067 497.466 370.777 500.653C370.632 502.102 370.342 503.551 369.763 505C380.198 549.048 400.2 589.472 427.449 623.667L446.581 586.575C450.494 578.461 454.987 570.781 459.48 562.957C463.538 555.713 467.597 548.613 471.8 541.368L472.815 538.761V533.254C472.67 517.461 477.887 502.103 487.453 489.497L494.7 480.079C494.7 480.079 487.743 453.418 487.308 445.449C486.729 437.48 490.642 437.77 496.44 439.364C502.092 440.958 512.238 470.95 512.238 470.95C512.238 470.95 516.296 467.908 517.311 466.894C518.326 465.879 522.819 434.148 525.138 424.295C527.457 414.443 534.124 406.763 540.501 410.82C546.879 414.877 539.777 464.72 539.777 464.72C539.777 464.72 553.981 425.165 558.619 421.253C563.257 417.34 570.504 420.962 570.214 426.034C569.924 430.38 560.503 470.951 557.894 481.528C560.793 479.644 563.692 477.76 566.59 476.022C569.924 474.138 573.258 472.255 576.736 470.661V353.877C576.446 353.733 576.011 353.587 575.722 353.442C570.214 351.269 547.458 322.725 545.719 316.785C543.835 310.844 532.24 276.07 532.24 276.07L517.021 240.282C508.615 222.895 500.933 203.623 496.005 183.918C428.463 229.124 380.053 300.847 365.994 384.305C381.503 387.493 415.563 399.229 419.187 400.823C423.97 403.141 430.782 413.718 422.666 413.573Z" fill="#1E98F5"/>
<path d="M637.324 328.232C636.744 318.235 630.367 316.352 630.367 316.352C630.367 316.352 632.106 323.596 637.324 332.724H644.136C640.513 332.579 637.469 330.84 637.324 328.232Z" fill="#1E98F5"/>
<path d="M456.875 574.986L462.673 564.263L470.064 546.441C467.311 552.382 464.702 558.178 461.948 564.119C460.209 567.741 458.614 571.363 456.875 574.986Z" fill="#E5AA20"/>
<path d="M710.279 632.85L707.67 595.323C707.38 590.831 708.25 586.339 710.279 582.282L722.164 558.23L746.949 542.872C746.949 542.872 761.877 537.076 768.834 539.829C771.878 540.988 773.183 542.872 773.617 544.61C792.025 547.073 806.229 562.867 806.229 581.848C806.229 590.397 803.33 598.365 798.547 604.741C804.634 604.596 807.678 610.246 808.693 612.565C809.852 615.318 793.329 623.287 793.329 623.287C793.329 623.287 784.198 632.995 778.98 635.603C773.762 638.356 753.616 650.672 752.601 651.976C751.587 653.135 737.817 723.263 737.817 723.263H737.672L737.093 727.465C755.935 722.684 774.052 716.164 791.3 708.05C850.725 680.085 899.57 633.43 930.152 575.473C931.312 573.155 932.471 570.981 933.631 568.663L845.652 523.021L831.883 516.791C831.883 516.791 790.286 516.211 785.213 513.603C780.14 510.995 755.935 496.796 747.673 492.739C746.804 492.304 745.789 491.724 744.63 491H576.355C569.253 496.651 560.991 503.895 560.991 503.895L530.119 531.425L523.162 566.489C519.973 600.974 511.857 646.615 492 683.562C540.555 716.887 599.545 736.448 662.884 736.448C663.753 736.448 664.623 736.448 665.493 736.448C668.971 721.379 675.203 706.311 682.161 692.546L710.279 632.85Z" fill="#1E98F5"/>
<path d="M732.84 578.895C732.115 582.372 732.26 585.849 732.985 588.892C732.985 589.182 733.13 589.472 733.275 589.616C732.84 587.443 732.695 585.125 732.695 582.807C732.55 581.648 732.695 580.199 732.84 578.895Z" fill="#E5AA20"/>
<path d="M739.069 364.309C727.329 369.525 720.372 364.744 722.401 358.079C723.271 355.036 735.3 346.632 746.896 337.504V332.723H723.271C719.792 333.882 716.893 334.751 715.009 335.186C710.081 336.49 707.762 335.041 707.327 332.723H644.568C644.423 332.723 644.279 332.723 644.279 332.723H637.466C638.336 334.316 639.351 335.91 640.51 337.649C648.192 348.95 655.874 358.079 657.758 360.397C659.642 362.716 664.425 369.96 662.541 372.713C656.019 382.276 648.047 376.481 638.771 368.511C629.495 360.542 630.219 355.326 623.552 352.138C616.885 348.95 618.044 355.471 608.913 355.615C599.782 355.76 604.13 355.905 595.869 355.036C587.752 354.167 590.361 359.093 577.316 354.312V471.095C577.606 470.95 577.896 470.806 578.186 470.661C580.07 469.791 582.099 469.066 584.274 468.632C584.853 468.487 585.433 468.487 585.868 468.342C586.448 468.197 587.027 468.197 587.607 468.197C588.187 468.197 588.767 468.342 589.346 468.342C589.926 468.487 590.506 468.632 590.941 468.777C593.115 469.356 595.144 470.516 596.738 471.965C598.333 473.414 599.637 475.152 600.217 477.181C602.391 481.673 591.086 483.266 586.013 486.164C584.418 487.178 581.23 489.497 577.896 492.25H746.171C737.33 486.744 723.126 474.717 722.981 471.82C722.691 468.632 724.43 465.734 724.43 465.734C724.43 465.734 715.734 459.069 716.169 454.287C716.603 449.506 725.155 449.361 725.155 449.361C725.155 449.361 722.256 446.608 723.85 442.696C725.445 438.784 731.387 437.48 731.387 437.48L747.041 437.045V359.962C743.707 361.846 740.953 363.44 739.069 364.309Z" fill="#F45F63"/>
<path d="M531.372 532.676L562.244 505.146C562.244 505.146 570.651 497.902 577.608 492.251C580.941 489.498 584.13 487.18 585.724 486.165C590.797 483.123 602.103 481.529 599.929 477.182C599.494 476.313 598.769 475.589 597.899 474.864C597.175 474.284 596.305 473.705 595.435 473.27C593.696 472.401 591.957 471.821 590.073 471.676C589.638 471.676 589.203 471.676 588.768 471.676C588.333 471.676 587.898 471.676 587.464 471.821C586.594 471.821 585.724 471.966 584.71 472.111C582.971 472.546 581.086 473.27 579.347 473.995C575.724 475.588 572.245 477.472 568.767 479.5C565.288 481.529 561.954 483.702 558.621 486.02L558.041 486.31H557.316C554.707 486.166 551.809 486.166 549.055 486.455C546.301 486.745 543.547 487.18 540.793 487.904C535.285 489.208 530.068 491.237 525.14 493.845C522.676 495.149 520.357 496.742 518.038 498.336C515.719 499.93 513.4 501.669 511.37 503.407C507.167 507.03 502.239 510.218 499.485 515.289C499.92 512.391 501.515 509.638 503.109 507.32C503.979 506.161 504.848 504.857 505.863 503.698C506.298 503.118 506.877 502.538 507.312 501.959C507.892 501.379 508.472 501.089 509.051 500.51C511.225 498.626 513.69 496.888 516.009 495.149C518.473 493.555 520.936 491.816 523.545 490.512C528.763 487.614 534.271 485.586 540.068 484.137C545.721 482.833 551.229 482.108 557.171 482.398C557.606 482.108 557.896 481.963 558.331 481.674C560.795 471.096 570.361 430.527 570.651 426.18C570.941 421.109 563.694 417.487 559.056 421.399C554.417 425.311 540.213 464.867 540.213 464.867C540.213 464.867 547.315 415.023 540.938 410.966C534.561 406.909 527.894 414.588 525.575 424.441C523.256 434.294 518.907 465.881 517.748 467.04C516.588 468.199 512.675 471.097 512.675 471.097C512.675 471.097 502.529 441.104 496.876 439.51C491.224 437.917 487.166 437.626 487.745 445.595C488.325 453.565 495.137 480.225 495.137 480.225L487.89 489.643C478.179 502.103 473.106 517.607 473.251 533.401V538.906L472.237 541.515C472.527 540.935 472.962 540.355 473.251 539.776C472.237 542.094 471.222 544.268 470.208 546.586L462.816 564.407L457.018 575.129C454.844 579.621 452.67 584.113 450.351 588.46L425.711 636.274L425.421 636.709L424.986 636.999C420.493 639.462 416 641.055 411.362 642.504C406.724 643.953 401.941 644.823 397.158 645.547C387.592 646.851 377.736 646.707 368.17 645.113C363.387 644.388 358.604 643.374 353.966 641.925C349.328 640.476 344.69 638.882 340.342 636.999C335.849 635.115 331.5 632.942 327.297 630.769C323.094 628.595 318.891 626.132 314.832 623.524C298.454 613.382 283.67 600.486 272.075 584.982C269.177 581.07 266.423 577.158 263.814 573.101C261.35 568.899 259.321 564.552 257.292 560.206C253.378 551.512 250.045 542.384 247.436 533.255C251.059 542.094 254.972 550.788 259.611 559.047C261.93 563.249 264.394 567.161 267.002 571.073C269.466 575.13 272.075 579.042 274.974 582.809C286.279 597.878 300.628 610.484 316.717 620.481C320.775 622.944 324.833 625.262 329.037 627.581C333.24 629.754 337.443 631.783 341.791 633.667C346.139 635.55 350.488 636.999 355.126 638.448C359.619 639.752 364.257 640.766 368.895 641.491C378.171 642.94 387.592 643.084 396.868 641.925C401.506 641.345 406.144 640.331 410.637 639.027C413.246 638.303 416 637.289 418.609 636.274C422.088 632.362 425.276 628.305 428.32 623.958C400.927 589.619 380.925 549.339 370.634 505.292C370.634 505.436 370.489 505.581 370.489 505.726C370.199 506.595 369.909 507.32 369.33 508.189C368.895 509.059 368.315 509.783 367.156 510.508C366.286 511.087 365.271 511.377 364.257 511.522C363.242 511.666 362.083 511.522 361.068 511.087C360.054 510.653 359.329 510.218 358.604 509.638C357.88 509.059 357.3 508.479 356.72 507.61L356.43 507.175V506.595C355.85 500.51 354.401 494.135 352.082 488.484C350.923 485.586 349.473 482.833 347.734 480.225C347.444 479.79 347.154 479.355 346.864 478.921C329.906 479.79 312.079 483.123 294.396 488.049C276.279 493.121 256.567 492.686 238.739 492.396C235.116 466.605 235.406 444.582 235.551 441.684C235.261 441.684 234.971 441.684 234.536 441.684C234.826 441.684 235.116 441.684 235.551 441.539C235.551 441.394 235.551 441.249 235.551 441.249L240.768 440.959C246.131 440.38 251.639 439.945 257.002 439.365L268.307 438.351C270.191 438.206 272.075 438.061 273.96 437.916C275.844 437.772 277.728 437.771 279.612 437.626L324.688 435.598H325.848L326.428 436.613C329.181 442.408 332.225 448.059 335.269 453.71C338.313 459.36 341.646 464.866 345.125 470.082C345.994 471.386 346.864 472.69 347.879 473.85C348.748 475.009 349.908 476.458 350.922 477.762C352.807 480.515 354.401 483.558 355.706 486.6C358.169 492.541 359.619 498.771 360.343 505.292C361.068 506.161 361.938 506.885 362.807 507.175C363.822 507.609 364.692 507.465 365.706 506.885C365.996 506.741 366.286 506.305 366.576 505.726C366.866 505.146 367.156 504.567 367.446 503.843C367.735 503.118 367.88 502.539 368.025 501.814L368.605 499.641C369.33 496.743 369.91 493.7 370.199 490.657C370.489 487.614 370.489 484.427 370.344 481.384C369.33 476.023 366.866 469.938 364.547 464.867C361.793 458.926 359.184 454.579 359.184 454.579C359.184 454.579 360.923 455.449 363.822 456.897C376.577 462.983 411.507 479.5 418.319 481.964C426.581 484.861 428.32 477.762 426.871 472.111C425.276 466.46 375.997 438.061 375.997 438.061L377.012 435.308C377.012 435.308 425.856 455.448 433.248 458.781C440.64 462.113 447.452 452.551 439.915 445.161C432.378 437.916 381.36 410.676 381.36 410.676C381.36 410.676 415.855 412.995 423.972 413.14C432.089 413.285 425.276 402.707 420.928 400.824C417.16 399.23 383.099 387.494 367.735 384.306C364.982 383.727 362.808 383.437 361.503 383.582C353.531 384.161 342.516 391.406 341.501 391.985C339.327 390.681 332.805 386.914 323.239 382.278L321.645 381.408C321.645 381.408 321.5 381.408 321.21 381.263C286.859 364.89 218.158 340.114 177.575 379.09C129.02 425.6 138.441 551.077 181.488 629.754C174.241 644.388 176.415 662.5 188.3 674.961C191.779 678.149 195.692 680.611 199.896 682.35C204.099 684.089 208.592 685.103 213.085 685.393C214.245 685.393 215.259 685.393 216.419 685.393C217.578 685.248 218.593 685.248 219.752 685.248L223.086 684.958L226.274 684.234C230.623 683.075 234.681 681.336 238.305 678.728L240.624 677.134L241.058 679.887C241.203 681.046 241.638 681.771 242.363 682.206C243.087 682.64 244.102 682.785 245.262 682.495C247.581 682.06 249.755 680.611 251.639 678.873C253.523 676.989 254.973 674.816 255.697 672.497C256.132 671.338 256.277 670.179 256.132 669.02C255.987 668.006 255.552 667.136 254.827 666.702L252.798 665.687L254.538 663.949L257.581 661.051C258.596 660.037 259.466 659.167 260.335 658.153C261.205 657.139 261.93 656.124 262.799 654.965C263.524 653.951 264.249 652.647 264.973 651.633C267.582 646.996 269.177 641.78 269.611 636.419C270.626 625.697 266.858 614.83 259.321 607.006C251.929 599.182 241.203 594.835 230.478 595.27C225.115 595.415 219.897 596.718 214.969 599.037C213.81 599.616 212.65 600.341 211.491 601.066C210.476 601.79 209.317 602.514 208.302 603.383C207.287 604.253 206.273 605.123 205.258 605.992C204.244 607.006 203.229 608.02 202.215 608.89L200.62 610.339L199.606 608.89C198.736 607.586 196.127 607.296 193.808 607.875C191.489 608.455 189.17 609.614 187.141 611.352C185.112 612.946 183.372 615.12 182.648 617.438C182.213 618.597 182.068 619.902 182.358 621.206C182.503 621.785 182.793 622.364 183.372 622.944C183.807 623.379 184.387 623.814 184.967 624.103C184.242 623.959 183.662 623.669 183.082 623.234C182.503 622.799 182.068 622.219 181.778 621.495C181.198 620.191 181.198 618.597 181.488 617.293C182.213 614.54 183.807 612.077 185.691 610.049C187.721 608.02 190.04 606.282 192.938 605.412C194.388 604.978 195.837 604.543 197.576 604.688C198.591 604.688 199.751 604.977 200.91 605.557C201.49 604.977 202.215 604.253 202.939 603.673L206.273 600.776C207.432 599.906 208.592 599.037 209.896 598.168C211.201 597.443 212.505 596.719 213.665 595.994C218.883 593.386 224.68 591.937 230.623 591.792C242.363 591.357 254.103 596.139 262.22 604.688C266.278 608.89 269.321 614.106 271.351 619.612C273.235 625.118 273.96 631.058 273.525 636.854C273.09 642.649 271.351 648.445 268.452 653.516C267.727 654.82 267.002 655.98 266.133 657.284C265.263 658.443 264.394 659.602 263.379 660.761C262.364 661.775 261.35 662.935 260.335 663.949L258.596 665.543C259.321 666.557 259.755 667.861 259.9 668.875C260.045 670.614 259.756 672.352 259.321 673.801C258.306 676.844 256.567 679.452 254.393 681.77C252.219 683.944 249.465 685.828 246.131 686.407C244.537 686.697 242.508 686.697 240.768 685.538C239.899 684.958 239.174 684.234 238.739 683.364C238.739 683.364 238.739 683.219 238.594 683.219C235.261 685.248 231.637 686.842 227.724 687.856C282.511 740.162 344.69 762.041 418.464 746.683C454.409 739.293 478.469 714.806 494.702 684.523C514.559 647.576 522.676 601.935 525.864 567.45L531.372 532.676Z" fill="#1E2B3C"/>
<path d="M532.677 276.507C532.677 276.507 544.417 311.28 546.157 317.221C548.041 323.161 570.652 351.706 576.159 353.879C576.449 354.024 576.884 354.169 577.174 354.314C590.218 359.095 587.61 354.024 595.726 355.038C604.133 356.052 599.64 355.907 608.771 355.617C617.902 355.328 616.887 348.808 623.41 352.14C630.077 355.328 629.352 360.544 638.628 368.513C647.904 376.483 655.731 382.133 662.398 372.715C664.283 369.962 659.499 362.862 657.615 360.399C655.731 358.081 648.049 348.952 640.367 337.651C639.208 335.912 638.193 334.318 637.324 332.725C632.106 323.596 630.367 316.352 630.367 316.352C630.367 316.352 636.744 318.235 637.324 328.233C637.469 330.841 640.512 332.58 644.136 332.725C644.281 332.725 644.426 332.725 644.426 332.725C646.165 332.725 647.904 332.29 649.788 331.421C655.586 328.523 654.282 315.193 654.427 312.585C654.572 309.977 641.237 290.126 641.237 290.126L596.306 261.148C596.306 261.148 584.131 208.551 581.232 192.613L577.029 161.027C577.029 161.027 580.652 152.768 589.784 142.77C596.451 135.381 606.307 127.122 619.931 120.602C618.771 125.963 618.192 131.469 618.192 136.975C633.265 134.656 648.629 133.497 664.282 133.497C667.616 133.497 670.95 133.642 674.138 133.642C674.573 150.45 685.734 165.809 702.836 170.735C708.344 171.894 713.997 171.894 719.215 170.879C720.519 170.59 721.824 170.3 723.128 169.865C724.432 169.431 725.737 168.996 726.896 168.417L728.781 167.547C729.36 167.257 729.94 166.822 730.52 166.533C731.1 166.243 731.679 165.953 732.259 165.519C732.839 165.084 733.419 164.794 733.998 164.504C738.492 161.751 742.405 157.839 745.449 153.492C746.173 152.333 746.753 151.174 747.478 150.015C748.057 148.856 748.637 147.552 749.072 146.393C749.507 145.089 749.942 143.929 750.377 142.625L751.536 138.569L752.116 136.685L753.855 137.265C755.305 137.844 757.623 136.685 759.218 134.946C760.812 133.208 761.972 131.034 762.841 128.716C763.566 126.398 763.856 123.789 763.276 121.761C762.986 120.747 762.551 119.733 761.827 119.298C761.102 118.719 760.522 118.573 759.508 118.863L757.044 119.298L757.334 116.835C758.348 107.996 756.174 98.868 751.101 91.4784C746.173 84.0889 738.636 78.5828 730.085 76.1197C721.534 73.6565 712.112 74.3814 704.141 78.0037C696.024 81.626 689.357 88.2905 685.589 96.2596L684.429 98.8681L682.545 96.6947C681.82 95.8253 681.095 95.3908 680.226 95.3908C679.356 95.3908 678.487 95.8252 677.617 96.5497C675.733 97.8537 674.283 100.317 673.559 102.78C672.689 105.243 672.399 107.996 672.834 110.749C673.124 112.053 673.414 113.357 674.138 114.516C674.863 115.53 675.878 116.545 677.182 116.69H677.617L677.472 117.125L675.733 121.906L676.747 117.414C675.298 117.269 673.994 116.4 673.124 115.386C672.109 114.227 671.53 112.778 671.095 111.329C670.225 108.431 670.37 105.388 670.95 102.345C671.53 99.4475 672.834 96.4045 675.298 94.0862C676.457 92.9271 678.342 92.0579 680.371 92.0579C681.385 92.0579 682.4 92.3478 683.27 92.9274L683.415 93.0724C687.763 85.2482 694.575 78.8731 702.691 75.1059C711.533 71.0489 721.824 70.3244 731.1 72.9325C740.521 75.5405 748.782 81.6255 754.145 89.7394C759.218 97.2738 761.682 106.402 761.102 115.386C761.247 115.386 761.392 115.386 761.537 115.386C762.552 115.531 763.421 116.11 764.146 116.69C765.595 117.849 766.32 119.587 766.755 121.036C767.479 124.224 767.189 127.267 766.32 130.02C765.45 132.773 764.001 135.526 761.972 137.699C760.957 138.858 759.653 139.872 758.203 140.452C757.189 140.887 756.029 141.176 754.87 141.176L754.145 143.64C753.855 144.654 753.42 145.668 753.13 146.683C778.35 154.362 802.12 165.374 824.006 178.993C829.369 169.72 832.992 159.433 834.586 148.711C862.56 160.158 885.605 170.735 885.605 170.735L862.415 207.247L843.718 236.805C836.471 240.283 824.151 245.354 808.642 249.411C783.133 255.932 736.462 255.207 736.462 255.207C731.679 255.932 729.36 265.929 748.058 271.145C766.61 276.217 774.871 266.943 778.205 273.174C781.539 279.404 777.19 284.91 767.624 292.445C758.058 299.979 716.751 318.38 711.823 322.582C709.069 324.9 706.895 329.682 707.619 332.725C708.199 335.043 710.373 336.492 715.301 335.188C717.185 334.753 720.084 333.884 723.563 332.725C741.1 326.929 774.002 314.323 774.002 314.323C774.002 314.323 765.305 322.292 754 332C751.826 333.884 749.507 335.767 747.188 337.506C735.593 346.779 723.563 355.183 722.693 358.081C720.664 364.746 727.766 369.527 739.361 364.311C741.245 363.442 743.999 361.993 747.188 359.964C763.566 349.967 792.989 328.668 792.989 328.668C792.989 328.668 787.046 341.998 782.698 346.78C776.756 353.445 772.987 356.053 770.378 360.399C769.798 361.414 769.508 362.427 769.364 363.586C769.219 364.601 769.364 365.76 769.943 366.629C770.523 367.499 771.683 367.788 772.697 367.933C773.712 368.078 774.871 367.789 775.886 367.499C780.089 366.195 783.858 363.877 787.481 361.269C790.96 358.661 794.293 355.618 797.482 352.43C800.671 349.387 803.714 346.055 807.193 343.157C814.44 337.941 820.672 331.71 827.484 325.914C834.152 320.119 840.819 314.179 847.486 308.238L847.631 308.093L847.776 307.948L864.589 297.226L864.734 297.081L864.879 296.936C873.72 293.458 882.416 289.112 890.678 284.476C899.085 279.839 907.201 274.768 915.028 269.262C930.681 258.25 945.03 245.21 956.335 229.851C961.988 222.172 966.771 213.913 970.54 205.219C971.409 203.046 972.134 200.727 973.004 198.554C973.728 196.236 974.308 194.063 975.033 191.744C975.612 189.426 976.047 187.107 976.627 184.789C976.917 183.63 976.917 182.471 977.207 181.312C977.352 180.153 977.352 178.994 977.497 177.835C978.077 168.417 976.337 158.999 973.004 150.305C969.67 141.467 964.887 133.208 959.234 125.528C947.929 110.17 933.725 96.9846 918.651 85.2483C903.433 73.512 887.199 63.2244 870.386 53.8063C861.98 49.1698 853.428 44.8229 844.732 40.621C840.384 38.5925 836.036 36.7087 831.688 34.6802C827.339 32.6517 822.991 30.6238 818.498 28.7402C800.815 21.2058 782.698 14.6852 764.001 9.46906C673.269 -12.2648 575.58 2.07996 517.459 66.4123C487.456 99.5927 486.297 142.915 496.877 184.21C501.95 203.915 509.487 223.041 517.894 240.573L532.677 276.507Z" fill="#1E2B3C"/>
<path d="M807.77 582.954C807.77 563.973 793.566 548.179 775.159 545.716C773.565 545.426 771.825 545.426 770.086 545.426C750.664 545.426 734.721 560.205 732.692 579.041C732.547 580.345 732.547 581.649 732.547 583.098C732.547 585.416 732.837 587.735 733.126 589.908C736.315 607.44 751.679 620.77 770.086 620.77C782.261 620.77 793.132 614.975 799.944 605.991C805.017 599.471 807.77 591.502 807.77 582.954ZM801.393 582.954C801.393 600.196 787.479 614.105 770.231 614.105C752.983 614.105 739.069 600.196 739.069 582.954C739.069 565.711 752.983 551.802 770.231 551.802C787.479 551.802 801.393 565.711 801.393 582.954Z" fill="#F45F63"/>
<path d="M738.922 582.957C738.922 600.199 752.836 614.109 770.084 614.109C787.332 614.109 801.246 600.199 801.246 582.957C801.246 565.714 787.332 551.805 770.084 551.805C752.981 551.805 738.922 565.714 738.922 582.957Z" fill="#1E2B3C"/>
<path d="M1002.42 514.274C1003.29 514.998 1004.16 515.723 1005.03 516.447C1001.99 514.419 998.946 512.246 995.757 510.507C994.163 509.638 992.569 508.623 990.974 507.899L986.046 505.58C984.452 504.711 982.713 504.131 980.974 503.407C979.234 502.682 977.64 501.958 975.901 501.379C972.422 500.219 969.233 498.481 965.755 497.177C952.131 491.816 938.072 487.469 923.868 483.557C916.765 481.673 909.663 479.935 902.416 478.341L880.675 474.139L837.194 465.59L836.469 465.445L836.034 464.866L811.829 427.483L802.118 418.79C798.785 415.892 795.741 412.704 792.697 409.517C791.248 407.923 789.653 406.329 788.204 404.446C786.755 402.562 785.74 400.533 784.726 398.65C783.711 396.766 782.696 394.738 781.392 393.144C780.667 392.275 779.943 391.55 778.928 391.405C777.913 391.26 776.899 391.84 776.029 392.564C771.246 397.78 771.826 408.937 774 413.284C776.174 417.631 789.798 436.032 789.798 436.032L746.751 437.046L731.098 437.481C731.098 437.481 725.155 438.93 723.561 442.697C721.967 446.609 724.866 449.362 724.866 449.362C724.866 449.362 716.314 449.507 715.879 454.288C715.445 459.07 724.141 465.735 724.141 465.735C724.141 465.735 722.402 468.488 722.691 471.821C722.981 474.718 737.04 486.745 745.882 492.251C747.041 492.975 748.056 493.554 748.925 493.989C757.187 498.046 781.392 512.246 786.465 514.854C791.538 517.462 833.135 518.041 833.135 518.041L846.904 524.272L934.883 569.913L943.144 574.26C943.144 574.26 944.304 577.447 945.174 583.388C940.825 580.925 936.187 578.751 931.259 576.868C900.677 634.68 851.832 681.48 792.407 709.444C799.799 720.456 809.655 730.019 821.25 737.699L734.431 756.969L738.2 729.005L738.78 724.803H738.925C738.925 724.803 752.839 654.675 753.709 653.516C754.723 652.357 774.87 639.896 780.087 637.143C785.305 634.39 794.436 624.827 794.436 624.827C794.436 624.827 810.96 616.858 809.8 614.105C808.785 611.787 805.742 606.136 799.654 606.281C792.842 615.264 781.972 621.06 769.797 621.06C751.389 621.06 736.026 607.73 732.837 590.198C732.692 589.908 732.692 589.619 732.547 589.474C731.823 586.431 731.678 582.953 732.402 579.476C734.431 560.639 750.375 545.861 769.797 545.861C771.536 545.861 773.275 546.005 774.87 546.15C774.435 544.412 773.13 542.528 770.087 541.369C763.129 538.616 748.201 544.412 748.201 544.412L723.416 559.771L711.531 583.822C709.502 587.879 708.632 592.371 708.922 596.863L711.531 634.39L683.123 694.376C676.166 708.285 669.933 723.354 666.455 738.278C660.657 763.055 662.252 787.687 679.789 805.943C733.272 861.727 889.227 854.772 960.247 794.352C1031.27 733.932 1062.86 664.093 1045.18 579.186C1039.67 550.642 1023.59 529.777 1002.42 514.274ZM882.125 687.131C882.415 685.682 882.995 684.233 884.009 682.784C884.589 681.915 885.458 681.046 886.618 680.466L886.038 677.858C885.748 676.409 885.458 674.96 885.169 673.511C885.024 672.062 884.879 670.614 884.734 669.165C884.734 667.716 884.734 666.267 884.734 664.818C885.169 659.022 886.763 653.226 889.517 648.01C894.88 637.578 905.025 629.754 916.331 627.001C921.983 625.552 928.071 625.406 933.723 626.566C939.521 627.725 945.029 630.043 949.812 633.376C954.595 636.708 958.798 641.055 961.697 646.126C962.421 647.43 963.146 648.734 963.726 650.039C964.306 651.343 964.885 652.646 965.32 654.095C965.61 655.544 966.045 656.994 966.335 658.298L966.914 661.051C967.929 660.906 969.089 661.195 969.958 661.485C971.408 662.064 972.422 662.934 973.437 663.948C975.321 665.977 976.48 668.295 977.35 670.903C978.075 673.366 978.51 675.975 978.22 678.583C978.075 679.887 977.785 681.046 977.06 682.205C976.48 683.364 975.466 684.233 974.306 684.668C973.147 685.102 971.987 684.957 970.828 684.523C971.697 693.651 969.813 703.504 964.595 711.618C963.871 712.632 963.291 713.646 962.566 714.516C961.842 715.385 960.972 716.399 960.247 717.269C959.378 718.138 958.508 719.008 957.493 719.732C956.479 720.456 955.609 721.181 954.595 721.905C950.536 724.658 946.043 726.687 941.405 727.846C931.984 730.164 921.693 729.15 912.997 724.803C904.88 720.891 898.213 714.081 894.155 705.967C894.01 705.967 893.865 706.112 893.72 706.112C892.705 706.402 891.836 706.401 890.821 706.257C888.937 705.967 887.488 704.953 886.328 703.794C884.154 701.476 882.85 698.578 882.27 695.825C881.545 693.217 881.4 690.174 882.125 687.131Z" fill="#1E2B3C"/>
<path d="M447.02 586.724L427.888 623.816L422.671 633.959C421.221 634.683 419.772 635.408 418.177 636.132C415.568 637.146 412.96 638.16 410.206 638.885C405.713 640.189 401.075 641.203 396.436 641.783C387.16 643.087 377.739 642.942 368.463 641.348C363.825 640.624 359.187 639.61 354.694 638.305C350.201 637.001 345.708 635.408 341.359 633.524C337.011 631.641 332.808 629.612 328.605 627.439C324.401 625.265 320.343 622.947 316.285 620.339C300.197 610.341 285.848 597.736 274.542 582.667C271.644 578.9 269.035 574.987 266.571 570.93C263.962 567.018 261.498 562.962 259.179 558.905C254.541 550.646 250.627 541.952 247.004 533.113C249.613 542.242 252.946 551.37 256.86 560.063C258.889 564.41 260.918 568.757 263.382 572.959C265.991 577.016 268.6 581.073 271.644 584.84C283.239 600.344 298.023 613.239 314.401 623.382C318.459 625.99 322.662 628.308 326.866 630.626C331.069 632.945 335.417 634.973 339.91 636.857C344.403 638.74 348.896 640.334 353.534 641.783C358.173 643.087 362.955 644.246 367.738 644.971C377.304 646.42 387.16 646.709 396.726 645.405C401.509 644.681 406.292 643.812 410.93 642.363C415.568 640.914 420.062 639.32 424.555 636.857L424.99 636.567L425.279 636.132L449.919 588.318C452.238 583.971 454.412 579.479 456.586 574.988C458.326 571.366 459.92 567.743 461.659 564.121C464.413 558.18 467.167 552.384 469.776 546.444C470.79 544.125 471.805 541.952 472.82 539.633C472.53 540.213 472.095 540.793 471.805 541.372C467.602 548.472 463.543 555.717 459.485 562.961C455.427 570.93 450.934 578.61 447.02 586.724Z" fill="#EDCFC5"/>
<path d="M831.108 34.9726C835.456 37.0011 839.949 38.8848 844.152 40.9133C852.849 44.9703 861.4 49.4621 869.807 54.0987C886.62 63.3718 902.853 73.8037 918.072 85.54C933.145 97.2763 947.349 110.462 958.655 125.821C964.307 133.5 969.09 141.758 972.424 150.597C975.758 159.435 977.497 168.853 976.917 178.126C976.772 179.285 976.772 180.445 976.627 181.604C976.482 182.763 976.337 183.922 976.047 185.082C975.468 187.4 975.033 189.718 974.453 192.036C973.728 194.354 973.149 196.528 972.424 198.846C971.554 201.02 970.829 203.338 969.96 205.512C966.336 214.205 961.409 222.464 955.756 230.143C944.451 245.502 930.102 258.397 914.448 269.554C906.621 275.06 898.505 280.131 890.098 284.767C881.692 289.404 872.995 293.606 864.299 297.228L864.154 297.373L864.009 297.518L847.196 308.24L847.051 308.385L846.906 308.53C840.239 314.47 833.717 320.411 826.905 326.207C820.092 332.003 813.86 338.233 806.613 343.449C803.135 346.347 800.091 349.679 796.902 352.722C793.713 355.765 790.525 358.807 786.901 361.56C783.423 364.169 779.509 366.487 775.306 367.791C774.292 368.081 773.132 368.371 772.117 368.226C771.103 368.226 769.943 367.791 769.364 366.922C768.784 366.052 768.639 364.893 768.784 363.879C768.929 362.72 769.364 361.705 769.798 360.691C769.219 361.705 768.784 362.72 768.639 363.734C768.494 364.893 768.494 366.053 769.219 367.067C769.943 368.081 771.103 368.515 772.262 368.66C773.422 368.805 774.581 368.66 775.741 368.371C780.234 367.356 784.292 365.183 787.916 362.575C795.308 357.504 801.54 350.838 808.497 345.477C810.092 344.318 812.266 343.014 814.005 341.566C815.744 340.262 817.483 338.813 819.368 337.364C822.846 334.611 826.325 331.712 829.659 328.815C836.326 322.874 842.993 317.079 849.515 311.138L866.183 300.561C875.169 296.938 883.866 292.737 892.272 288.1C900.824 283.464 909.085 278.247 916.912 272.597C917.347 272.307 917.782 272.017 918.217 271.727C933.58 260.715 947.784 247.82 959.089 232.461C970.685 216.813 979.091 198.267 980.83 178.561C981.555 168.564 979.671 158.711 976.192 149.438C972.714 140.165 967.641 131.616 961.988 123.791C950.393 107.998 936.044 94.6684 920.68 82.7872C905.317 70.906 888.939 60.4738 871.981 51.0558C838.21 32.2198 801.54 18.1648 763.856 10.0508C782.408 15.122 800.671 21.6426 818.353 29.3219C822.411 30.9157 826.76 32.9441 831.108 34.9726Z" fill="#EDCFC5"/>
<path d="M976.917 682.351C977.497 681.192 977.787 679.888 977.787 678.728C977.932 676.265 977.352 673.658 976.338 671.34C975.323 669.021 973.874 666.993 971.989 665.399C970.25 663.95 967.786 663.081 966.337 664.095L965.032 665.109L964.453 663.225L963.148 659.168C962.713 657.864 962.278 656.56 961.844 655.401C961.699 654.822 961.409 654.097 961.119 653.517L960.394 651.634C959.814 650.475 959.235 649.316 958.51 648.012C955.756 643.375 951.988 639.463 947.639 636.42C938.943 630.335 927.493 628.016 917.057 630.625C906.622 633.088 897.49 640.332 892.562 649.75C890.098 654.531 888.504 659.748 888.214 665.109C888.214 666.413 888.214 667.717 888.214 669.166C888.359 670.47 888.359 671.774 888.649 673.223C888.939 674.527 889.084 675.831 889.374 677.135L890.388 681.192L890.823 683.075L888.939 683.365C887.345 683.655 886.04 685.829 885.461 688.002C884.881 690.32 885.026 692.784 885.461 695.247C886.04 697.565 887.055 699.883 888.649 701.477C889.374 702.201 890.388 702.781 891.113 702.926C891.983 703.071 892.563 702.926 893.432 702.201L895.316 700.607L896.331 702.926C899.81 711.04 906.332 717.85 914.303 721.762C922.275 725.674 931.551 726.688 940.248 724.515C944.596 723.5 948.654 721.617 952.278 719.154C953.147 718.574 954.017 717.849 954.886 717.125C955.756 716.401 956.481 715.676 957.35 714.952C958.22 714.227 958.945 713.358 959.814 712.634L961.988 710.17C964.742 706.693 967.061 702.781 968.656 698.434C970.105 694.087 970.83 689.451 970.54 684.814C971.699 685.249 972.859 685.394 974.019 685.104C975.468 684.38 976.338 683.365 976.917 682.351Z" fill="#1E2B3C"/>
<path d="M886.33 704.083C887.49 705.242 888.939 706.257 890.823 706.546C891.693 706.691 892.708 706.691 893.722 706.401C893.867 706.401 894.012 706.256 894.157 706.256C898.215 714.37 904.883 721.035 912.999 725.092C921.696 729.439 931.986 730.453 941.407 728.135C946.19 726.976 950.683 724.947 954.597 722.194C955.611 721.47 956.626 720.746 957.496 720.021C958.365 719.297 959.235 718.428 960.249 717.558C961.119 716.689 961.844 715.675 962.568 714.806C963.293 713.791 964.018 712.777 964.598 711.908C969.815 703.794 971.555 693.941 970.83 684.812C971.989 685.247 973.149 685.392 974.309 684.957C973.149 685.392 971.844 685.247 970.83 684.667C971.12 689.304 970.54 693.94 968.946 698.287C967.496 702.634 965.177 706.546 962.279 710.024L960.105 712.487C959.235 713.212 958.51 714.081 957.64 714.806C956.771 715.53 955.901 716.254 955.177 716.979C954.307 717.703 953.437 718.283 952.568 719.007C948.944 721.47 944.741 723.354 940.538 724.368C931.986 726.541 922.565 725.527 914.593 721.615C906.622 717.703 900.1 710.893 896.621 702.779L895.606 700.461L893.722 702.055C892.997 702.779 892.273 702.924 891.403 702.779C890.534 702.634 889.664 702.055 888.939 701.33C887.345 699.736 886.33 697.418 885.751 695.1C885.171 692.637 885.171 690.174 885.751 687.855C886.33 685.537 887.635 683.508 889.229 683.218L891.113 682.929L890.678 681.045L889.664 676.988C889.374 675.684 889.084 674.38 888.939 673.076C888.794 671.772 888.649 670.468 888.504 669.019C888.504 667.715 888.504 666.411 888.504 664.962C888.794 659.601 890.389 654.385 892.853 649.604C897.781 640.186 906.912 632.941 917.347 630.478C927.783 627.87 939.088 630.043 947.93 636.273C952.278 639.316 956.046 643.228 958.8 647.865C959.38 649.024 960.104 650.183 960.684 651.487L961.409 653.37C961.699 653.95 961.989 654.53 962.134 655.254C962.568 656.559 963.003 657.718 963.438 659.022L964.743 663.079L965.322 664.962L966.627 663.948C968.076 662.934 970.54 663.803 972.279 665.252C974.164 666.701 975.613 668.874 976.628 671.193C977.642 673.511 978.222 675.974 978.077 678.582C977.932 679.886 977.787 681.046 977.207 682.205C976.628 683.364 975.758 684.233 974.453 684.812C975.613 684.378 976.628 683.363 977.207 682.349C977.787 681.19 978.077 679.886 978.367 678.727C978.657 676.119 978.367 673.511 977.497 671.048C976.773 668.584 975.468 666.122 973.584 664.093C972.714 663.079 971.555 662.209 970.105 661.63C969.236 661.195 968.221 661.05 967.062 661.195L966.482 658.442C966.192 657.138 965.757 655.689 965.467 654.24C965.032 652.791 964.453 651.487 963.873 650.183C963.293 648.879 962.424 647.575 961.844 646.271C958.8 641.2 954.742 636.853 949.959 633.521C945.176 630.188 939.668 627.87 933.87 626.71C928.073 625.551 922.13 625.841 916.478 627.145C905.027 629.754 895.027 637.723 889.664 648.155C886.91 653.371 885.316 659.021 884.881 664.962C884.881 666.411 884.881 667.86 884.881 669.309C885.026 670.758 885.171 672.207 885.316 673.655C885.605 675.104 885.896 676.553 886.185 678.002L886.765 680.611C885.75 681.19 884.736 682.06 884.156 682.929C883.142 684.233 882.562 685.827 882.272 687.276C881.547 690.319 881.692 693.216 882.272 696.114C882.852 699.012 884.011 701.765 886.33 704.083Z" fill="#EDCFC5"/>
<path d="M237.149 683.654C237.583 684.524 238.453 685.248 239.178 685.828C240.917 686.842 242.946 686.986 244.54 686.697C247.874 685.972 250.628 684.234 252.802 682.06C254.976 679.887 256.715 677.279 257.73 674.091C258.165 672.498 258.455 670.904 258.31 669.165C258.165 668.006 257.73 666.846 257.005 665.832L258.745 664.238C259.759 663.224 260.774 662.21 261.788 661.051C262.803 660.037 263.673 658.733 264.542 657.574C265.412 656.415 266.136 655.11 266.861 653.806C269.76 648.735 271.499 642.939 271.934 637.144C272.369 631.348 271.644 625.408 269.76 619.902C267.876 614.396 264.687 609.324 260.629 604.977C252.657 596.429 240.772 591.647 229.032 592.082C223.234 592.227 217.437 593.676 212.074 596.284C210.77 597.008 209.465 597.733 208.306 598.457C207.146 599.326 205.842 600.051 204.682 601.066L201.349 603.963C200.624 604.543 200.044 605.122 199.319 605.847C198.305 605.267 197.145 604.977 195.986 604.977C194.391 604.832 192.797 605.267 191.348 605.702C188.594 606.716 186.13 608.455 184.101 610.339C182.072 612.367 180.477 614.83 179.897 617.583C179.608 619.032 179.608 620.481 180.187 621.785C180.477 622.365 180.912 623.089 181.492 623.524C182.072 623.959 182.651 624.248 183.376 624.393C182.796 624.103 182.217 623.813 181.782 623.234C181.347 622.799 181.057 622.219 180.767 621.495C180.477 620.191 180.622 618.887 181.057 617.728C181.927 615.265 183.666 613.236 185.55 611.642C187.579 610.049 189.898 608.745 192.217 608.165C194.536 607.586 197.145 607.875 198.015 609.179L199.029 610.628L200.624 609.179C201.638 608.31 202.653 607.295 203.668 606.281C204.682 605.267 205.697 604.543 206.711 603.673C207.726 602.804 208.885 602.079 209.9 601.355C211.059 600.63 212.219 600.051 213.378 599.327C218.161 597.008 223.524 595.704 228.887 595.559C239.613 595.125 250.338 599.471 257.73 607.296C265.122 614.975 268.89 625.987 268.021 636.709C267.586 642.07 265.991 647.286 263.383 651.922C262.658 653.081 262.078 654.241 261.208 655.255C260.339 656.27 259.614 657.428 258.745 658.443C257.73 659.457 257.005 660.326 255.991 661.34L252.947 664.238L251.208 665.977L253.237 666.992C253.962 667.426 254.396 668.295 254.541 669.309C254.686 670.324 254.541 671.628 254.106 672.787C253.382 675.106 251.932 677.424 250.048 679.163C248.309 680.901 245.99 682.495 243.671 682.785C242.511 683.075 241.497 682.93 240.772 682.495C240.047 682.06 239.613 681.336 239.468 680.176L239.033 677.424L236.714 679.018C233.09 681.481 228.887 683.364 224.684 684.523L221.495 685.248L218.162 685.538C217.002 685.538 215.987 685.683 214.828 685.683C213.668 685.683 212.654 685.683 211.494 685.683C207.001 685.538 202.508 684.523 198.305 682.64C194.101 680.901 190.188 678.293 186.71 675.25C189.753 678.873 193.377 681.916 197.58 684.234C201.783 686.552 206.421 688.146 211.204 688.87C212.364 689.015 213.668 689.16 214.828 689.305C215.987 689.305 217.292 689.305 218.451 689.305L222.075 688.87L225.698 688.146C225.843 688.146 225.988 688.001 226.133 688.001C229.902 686.987 233.525 685.393 237.004 683.364C237.149 683.509 237.149 683.654 237.149 683.654Z" fill="#EDCFC5"/>
<path d="M719.65 172.906C725.303 172.327 731.1 170.733 736.028 167.69C740.956 164.502 745.304 160.445 748.493 155.519C749.218 154.215 749.942 153.056 750.667 151.752C751.247 150.448 751.972 149.143 752.406 147.694C752.551 147.405 752.696 146.97 752.841 146.536C753.131 145.521 753.566 144.507 753.856 143.493L754.58 141.03C755.74 141.03 757.044 140.74 757.914 140.305C759.363 139.581 760.668 138.566 761.682 137.552C763.712 135.379 765.161 132.626 766.031 129.873C766.9 127.12 767.19 123.932 766.465 120.889C766.031 119.295 765.306 117.702 763.857 116.542C763.132 115.963 762.262 115.528 761.248 115.239C761.103 115.239 760.958 115.239 760.813 115.239C761.393 106.255 758.929 96.9825 753.856 89.593C748.493 81.479 740.086 75.3934 730.81 72.7853C721.534 70.0323 711.244 70.9017 702.402 74.9587C694.286 78.581 687.473 85.101 683.125 92.9252L682.98 92.7802C682.111 92.2006 681.096 91.9107 680.081 91.9107C678.052 91.9107 676.168 92.7806 675.009 93.9398C672.545 96.2581 671.385 99.3004 670.66 102.198C670.081 105.241 670.081 108.284 670.805 111.182C671.24 112.631 671.82 114.079 672.835 115.239C673.704 116.253 675.009 117.122 676.458 117.267L675.443 121.759L677.183 116.978L677.328 116.542H676.893C675.588 116.398 674.574 115.528 673.849 114.369C673.124 113.21 672.69 112.051 672.545 110.602C672.11 107.994 672.4 105.241 673.269 102.633C674.139 100.17 675.443 97.7066 677.328 96.4025C678.197 95.6781 679.212 95.3886 679.937 95.2437C680.806 95.2437 681.531 95.6782 682.256 96.5476L684.14 98.7209L685.299 96.1132C689.068 88.1441 695.735 81.4789 703.852 77.8565C711.968 74.2342 721.244 73.5093 729.796 75.9725C738.347 78.4357 745.884 83.9418 750.812 91.3313C755.74 98.7208 758.059 107.849 757.044 116.687L756.755 119.151L759.218 118.716C760.233 118.571 760.958 118.716 761.538 119.151C762.117 119.731 762.697 120.599 762.987 121.614C763.567 123.787 763.277 126.251 762.552 128.569C761.827 130.887 760.668 133.205 758.929 134.799C757.334 136.538 755.16 137.697 753.566 137.117L751.827 136.538L751.247 138.421L750.087 142.479C749.653 143.783 749.218 145.086 748.783 146.245C748.348 147.549 747.623 148.709 747.189 149.868C746.464 151.027 745.884 152.187 745.159 153.346C742.261 157.837 738.347 161.604 733.709 164.357C733.129 164.647 732.55 165.082 731.97 165.372C731.39 165.661 730.81 166.096 730.231 166.386C729.651 166.676 729.071 167.11 728.491 167.4L726.607 168.269C725.448 168.849 724.143 169.284 722.839 169.718C721.534 170.153 720.23 170.443 718.925 170.733C713.563 171.747 707.91 171.747 702.547 170.588C708.2 172.761 713.852 173.486 719.65 172.906Z" fill="#EDCFC5"/>
<path d="M590.796 468.634C590.217 468.489 589.637 468.345 589.202 468.2C588.622 468.055 588.042 468.055 587.463 468.055C586.883 468.055 586.303 468.055 585.723 468.2C585.144 468.345 584.564 468.345 584.129 468.49C581.955 468.924 579.926 469.794 578.042 470.518C577.752 470.663 577.462 470.808 577.172 470.953C573.693 472.546 570.36 474.43 567.026 476.314C563.982 478.053 561.084 479.936 558.33 481.819C557.895 482.109 557.605 482.254 557.17 482.544C551.228 482.254 545.72 482.979 540.067 484.283C534.27 485.732 528.762 487.76 523.544 490.658C520.935 492.107 518.471 493.701 516.008 495.295C513.544 497.034 511.224 498.772 509.05 500.656C508.471 501.09 507.891 501.525 507.311 502.104C506.731 502.684 506.297 503.264 505.862 503.843C504.847 505.003 503.977 506.162 503.108 507.466C501.514 509.929 499.919 512.537 499.484 515.435C502.238 510.219 507.166 507.176 511.369 503.553C513.543 501.67 515.718 500.076 518.037 498.482C520.356 496.888 522.675 495.294 525.139 493.99C530.067 491.382 535.284 489.354 540.792 488.05C543.546 487.471 546.3 486.891 549.054 486.601C551.807 486.312 554.706 486.167 557.315 486.456H558.04L558.62 486.166C561.953 483.993 565.287 481.819 568.766 479.646C572.244 477.618 575.723 475.734 579.346 474.14C581.085 473.416 582.97 472.691 584.709 472.256C585.579 471.967 586.448 471.967 587.463 471.967C587.897 471.967 588.332 471.822 588.767 471.822C589.202 471.822 589.637 471.822 590.072 471.822C591.956 471.967 593.695 472.402 595.434 473.416C596.304 473.851 597.029 474.43 597.898 475.01C598.623 475.59 599.348 476.313 599.928 477.328C599.348 475.299 598.043 473.561 596.449 472.112C595 470.373 592.97 469.214 590.796 468.634Z" fill="#EDCFC5"/>
<path d="M902.998 474.865L881.257 470.664L838.5 462.259L814.585 425.312L814.44 425.167L814.295 425.022C810.962 422.125 807.773 419.227 804.439 416.184C801.251 413.141 797.917 410.388 794.583 407.49C792.989 406.041 791.25 404.592 789.801 403.143C788.351 401.695 787.191 399.811 786.032 397.927C784.872 396.044 783.568 394.16 781.974 392.566C781.104 391.841 780.09 390.973 778.93 390.973C777.626 390.973 776.756 391.697 776.031 392.566C776.756 391.841 777.771 391.117 778.93 391.407C779.945 391.552 780.814 392.422 781.394 393.146C782.698 394.885 783.713 396.768 784.728 398.652C785.742 400.535 786.612 402.564 788.206 404.447C789.655 406.186 791.105 407.78 792.699 409.519C795.743 412.706 798.787 416.039 802.12 418.792L811.831 427.485L836.036 464.868L836.471 465.447L837.196 465.592L880.677 474.141L902.418 478.343C909.52 479.792 916.768 481.675 923.87 483.559C938.074 487.326 952.133 491.818 965.757 497.179C969.235 498.338 972.424 500.076 975.903 501.38C977.642 502.105 979.236 502.829 980.976 503.409C982.715 504.133 984.454 504.713 986.048 505.582L990.976 507.901C992.716 508.625 994.165 509.64 995.759 510.509C999.093 512.248 1001.99 514.421 1005.04 516.449C1004.17 515.725 1003.3 515 1002.43 514.276C997.644 510.219 992.426 506.596 987.063 503.409C985.469 502.395 983.874 501.525 982.135 500.656C980.541 499.787 978.801 498.918 977.207 498.048C975.613 497.179 973.874 496.454 972.134 495.875C970.395 495.15 968.656 494.426 966.916 493.846C965.032 493.122 963.148 492.397 961.264 491.673C949.234 487.181 937.059 483.414 924.739 480.226C917.492 478.197 910.39 476.314 902.998 474.865Z" fill="#EDCFC5"/>
<path d="M371.067 491.094C370.777 487.907 370.197 484.864 369.328 481.821C369.618 485.009 369.473 488.052 369.183 491.094C368.893 494.137 368.458 497.18 367.589 500.078L367.009 502.251C366.864 502.976 366.719 503.7 366.429 504.28C366.139 505.004 365.849 505.584 365.559 506.164C365.27 506.743 364.835 507.178 364.69 507.323C363.675 507.902 362.806 508.047 361.791 507.613C360.921 507.323 359.907 506.453 359.327 505.729C358.602 499.208 357.153 492.978 354.689 487.038C353.384 483.995 351.935 480.952 349.906 478.199C348.891 476.75 347.877 475.447 346.862 474.287C345.848 473.128 344.978 471.679 344.108 470.52C340.485 465.304 337.296 459.653 334.252 454.147C331.209 448.496 328.165 442.845 325.411 437.05L324.831 436.035H323.672L278.596 438.064C276.711 438.209 274.827 438.209 272.943 438.354C271.059 438.498 269.175 438.644 267.291 438.789L255.985 439.803C250.622 440.237 245.115 440.817 239.752 441.396C238.013 441.541 236.273 441.686 234.534 441.831C234.244 441.831 233.954 441.831 233.52 441.976C233.809 441.976 234.099 441.976 234.534 441.976C241.781 441.976 248.883 442.121 256.13 442.121H267.435C269.32 442.121 271.204 442.121 273.088 442.121C274.972 442.121 276.856 441.976 278.741 441.831L322.657 439.803C325.411 445.308 328.165 450.67 331.064 456.031C334.253 461.682 337.441 467.332 341.21 472.693C342.224 473.997 343.094 475.446 344.108 476.75C344.833 477.619 345.413 478.489 345.993 479.214C346.282 479.648 346.572 480.083 346.862 480.517C348.601 483.126 350.051 485.879 351.21 488.777C353.529 494.572 354.979 500.803 355.559 506.888V507.468L355.849 507.902C356.428 508.771 357.008 509.351 357.733 509.93C358.457 510.51 359.327 511.09 360.197 511.379C361.211 511.814 362.226 511.959 363.385 511.814C364.545 511.67 365.414 511.235 366.284 510.8C367.299 510.075 367.878 509.206 368.458 508.481C368.893 507.612 369.328 506.888 369.618 506.019C369.618 505.874 369.763 505.729 369.763 505.584C370.342 504.135 370.632 502.686 370.777 501.237C371.357 497.47 371.357 494.282 371.067 491.094Z" fill="#EDCFC5"/>
</svg>
