<svg width="1195" height="844" viewBox="0 0 1195 844" fill="none" xmlns="http://www.w3.org/2000/svg">
<path d="M856.688 114.105C870.383 114.105 881.773 124.275 883.535 137.428C883.671 138.512 885.027 138.919 885.841 138.241C887.332 136.749 888.959 136.071 890.451 136.614C893.027 137.427 893.841 141.631 892.349 145.834C890.858 150.037 887.603 152.749 885.163 151.8C884.62 151.664 884.213 151.258 883.807 150.851V155.597C883.807 159.801 882.857 163.732 881.095 167.394C890.722 169.292 900.892 169.021 910.926 166.173C916.621 164.546 921.909 161.97 926.79 158.987C936.96 183.801 964.35 197.225 990.52 189.632C1009.64 183.937 1023.2 168.343 1027.27 150.173C1033.37 151.665 1040.01 151.664 1046.66 149.766C1066.18 144.071 1077.3 123.597 1071.61 104.071C1065.91 84.5453 1045.44 73.4266 1025.91 79.1216C1016.96 81.8335 1009.64 87.5281 1005.03 94.9858C992.418 86.5789 976.418 83.5959 960.689 88.2061C958.113 89.0197 955.672 89.969 953.231 91.0537C953.096 90.5113 952.96 89.9687 952.825 89.4263C943.197 56.6123 908.756 37.9003 875.942 47.5275C843.128 57.1548 824.416 91.5962 834.043 124.41C834.179 124.953 834.314 125.359 834.45 125.766C839.467 118.715 847.467 114.105 856.688 114.105Z" fill="#E5AA20"/>
<path d="M227.258 242.514L226.852 244.005C226.987 243.869 227.258 243.869 227.394 243.734C227.258 243.327 227.258 242.92 227.258 242.514Z" fill="#1E2B3C"/>
<path d="M128.277 396.686C128.277 385.025 129.497 373.77 131.667 362.787L106.039 373.092C104.276 373.092 102.514 372.957 100.615 372.821C93.4287 372.007 85.971 371.737 79.3268 372.008C68.886 372.008 59.1231 372.821 53.5637 376.211C42.5805 382.991 31.3261 389.5 29.4278 397.771C29.021 398.72 28.6142 399.805 28.343 400.889C27.3939 401.432 26.3091 401.974 25.2244 402.652C19.2582 405.906 8.27498 412.415 16.0039 417.975C16.5463 418.381 17.0887 418.517 17.631 418.788C17.7666 418.788 17.7666 418.788 17.9022 418.788C18.8514 418.788 19.9361 418.517 20.8853 418.245C22.9192 417.703 24.8176 417.025 26.7159 416.211C30.6482 415.127 34.5804 413.635 38.5127 412.279C46.3772 409.432 54.3773 406.313 62.9198 404.957C65.0893 404.686 67.2589 404.279 69.4284 404.279C71.5979 404.144 73.6318 404.279 75.6658 404.008C79.7336 403.737 83.8015 403.059 87.7337 401.839C91.666 400.754 95.4626 399.262 99.2593 397.364C103.192 396.008 107.259 394.516 111.327 393.296C107.802 395.737 104.412 398.178 100.751 400.347C96.9542 402.11 92.8863 403.737 88.6829 404.957C84.4794 406.178 80.276 406.856 75.9369 407.127C73.7674 407.263 71.5979 407.262 69.564 407.398C67.8012 407.398 66.0385 407.669 64.2758 407.941C65.9029 409.432 67.53 410.924 69.0216 412.687C71.1911 415.127 73.225 417.703 74.8522 420.551C75.6658 422.042 76.3437 423.67 76.7505 425.432C76.7505 426.246 76.4793 427.195 76.2081 428.008C80.5472 427.737 84.4794 427.059 88.1405 426.11C94.5135 424.619 102.649 418.652 109.7 412.822C114.717 412.415 121.361 411.873 129.09 411.059C128.412 406.449 128.277 401.567 128.277 396.686Z" fill="#1E2B3C"/>
<path d="M386.717 537.433C374.107 545.569 360.276 552.212 345.496 556.687C345.496 556.958 345.361 557.229 345.361 557.365C344.818 559.399 344.005 561.433 342.649 563.331C341.293 565.229 339.395 566.721 337.225 567.535C336.14 567.941 335.056 568.213 333.835 568.213C332.615 568.348 331.53 568.213 330.31 567.942C329.225 567.671 328.14 567.263 327.191 566.721C326.649 566.45 326.242 566.179 325.835 565.772C324.886 566.721 324.072 567.535 322.988 568.348C321.496 569.433 319.869 570.518 317.699 571.06C316.479 571.196 315.665 571.196 314.716 571.06L312.004 570.925C311.055 570.925 310.242 570.654 309.428 570.382C309.157 570.247 308.886 570.246 308.615 570.111C308.615 571.602 308.479 572.958 308.208 574.314C307.801 576.348 307.123 578.247 306.309 580.145C306.716 578.111 306.716 576.077 306.716 574.179C306.716 572.28 306.445 570.247 305.767 568.62L304.953 566.721L307.259 566.992C308.886 567.264 310.648 567.128 312.276 567.399C313.089 567.535 313.903 567.67 314.716 567.67C315.53 567.67 316.479 567.67 316.886 567.67C318.106 567.399 319.462 566.586 320.682 565.636C321.903 564.687 323.123 563.467 324.072 562.247L325.293 560.891L326.649 562.111C327.869 563.196 329.496 564.145 330.988 564.552C331.801 564.823 332.615 564.823 333.428 564.823C334.242 564.823 335.056 564.552 335.869 564.281C339.123 563.196 341.022 560.077 341.971 556.416C342.92 552.891 343.056 548.958 342.92 545.026C342.784 541.094 342.242 537.297 341.564 533.365C340.886 529.568 340.073 525.636 338.717 521.975C337.496 518.314 336.005 514.517 334.513 510.856C333.7 509.093 333.022 507.195 332.208 505.432C331.801 504.483 331.395 503.669 331.123 502.585L330.174 499.737L326.377 488.347C330.717 391.126 325.564 302.988 304.275 229.089C307.53 229.225 310.784 229.496 314.038 229.903C302.377 192.343 281.36 174.173 253.834 183.258C227.664 191.936 223.596 216.479 227.664 240.072L227.393 241.158C227.664 241.836 227.935 242.378 228.207 243.056C233.224 240.886 238.512 238.853 243.8 237.09C242.58 231.666 241.359 226.242 240.139 220.953C243.8 232.072 247.19 243.191 250.58 254.446C251.393 257.293 252.343 260.005 253.156 262.853L255.461 271.259L260.071 288.209L278.377 355.871V356.006V356.142L283.665 491.873V492.009V492.144L281.902 508.144C281.36 513.568 280.275 518.856 279.326 524.144C278.784 526.856 278.241 529.433 277.699 532.009C277.428 533.365 277.021 534.585 276.885 535.941C276.614 537.162 276.614 538.517 276.614 539.873C276.614 541.229 276.75 542.45 276.885 543.806C277.021 545.161 277.156 546.517 277.428 547.738C277.699 549.094 277.97 550.314 278.512 551.535L280.004 555.331V555.195C281.089 557.636 282.038 560.484 283.258 563.331C254.783 561.162 228.342 551.941 205.698 537.297C163.799 637.773 100.747 682.926 97.0861 684.689C92.3403 686.994 61.5602 696.621 35.5259 665.977C19.5257 647.129 0 669.773 0 669.773L53.0177 797.504C53.0177 797.504 210.444 743.673 285.563 569.162C288.411 575.942 291.801 582.586 296.275 586.247C299.801 589.095 302.648 587.467 304.547 584.078C317.971 602.247 333.293 619.061 349.971 634.248C365.836 648.892 383.056 662.044 401.09 673.841C413.836 682.248 427.125 689.842 440.82 696.757C446.108 699.469 453.159 701.367 457.905 705.028C462.515 708.418 481.498 722.113 465.498 758.995C455.6 781.64 487.193 798.86 487.193 798.86L570.991 675.469C570.584 675.875 459.532 629.909 386.717 537.433Z" fill="#1E2B3C"/>
<path d="M228.343 243.327C228.072 242.785 227.801 242.107 227.53 241.429C227.258 240.887 227.123 240.48 226.852 239.938C226.987 240.751 227.123 241.565 227.123 242.514C227.123 242.921 227.258 243.328 227.258 243.735C227.665 243.599 227.936 243.463 228.343 243.327Z" fill="#EDCFC5"/>
<path d="M73.2195 426.245C72.9483 424.889 72.4059 423.668 71.7279 422.312C70.372 419.736 68.4736 417.296 66.4397 414.99C64.4058 412.821 62.2363 410.787 59.9311 408.889C58.5752 409.16 57.2192 409.567 55.8633 409.974C55.8633 409.974 55.8633 409.973 55.8633 410.109C57.0836 414.312 58.4396 418.38 60.2023 422.312C61.5583 425.702 62.7786 429.093 63.321 432.889C67.1177 435.33 71.8635 433.432 73.6262 430.177C73.8974 429.635 74.1686 429.092 74.1686 428.414C74.033 427.601 73.6262 426.923 73.2195 426.245Z" fill="#1E2B3C"/>
<path d="M74.7104 420.686C73.0833 417.703 71.0493 415.127 68.8798 412.821C67.3883 411.194 65.7611 409.567 64.134 408.076C65.8967 407.804 67.6594 407.533 69.4222 407.533C71.4561 407.398 73.7612 407.534 75.7951 407.263C80.1342 406.991 84.3377 406.178 88.5411 405.093C92.7446 404.008 96.6768 402.246 100.609 400.483C104.27 398.178 107.66 395.737 111.185 393.432C107.118 394.516 103.05 396.144 99.1175 397.499C95.3209 399.262 91.5242 400.889 87.5919 401.974C83.6597 403.059 79.5918 403.737 75.524 404.144C73.49 404.279 71.4561 404.279 69.2866 404.415C67.1171 404.415 64.9476 404.686 62.778 405.093C54.2355 406.584 46.2354 409.567 38.3709 412.415C34.4386 413.907 30.5064 415.262 26.5741 416.347C24.6758 417.161 22.7775 417.839 20.7435 418.381C19.7944 418.652 18.7096 418.788 17.7605 418.923C17.6249 418.923 17.6248 418.923 17.4892 418.923C16.5401 418.923 15.5909 418.924 14.7773 418.517C15.5909 419.195 16.6757 419.737 17.7605 419.873C18.8452 420.144 19.93 420.144 21.0147 420.279C23.1842 420.279 25.3538 420.008 27.5233 419.737C27.5233 419.737 27.5233 419.737 27.6589 419.737C31.5911 418.652 35.3878 417.296 39.1845 415.805C39.1845 417.161 39.3201 418.381 39.4557 419.601L39.998 422.449L40.2692 423.805C40.2692 424.212 40.2692 424.754 40.4048 425.161C40.5404 426.11 40.4048 426.923 40.4048 427.737C40.2692 428.551 40.1336 429.364 39.8624 430.178C39.3201 431.67 38.3709 433.025 37.1505 433.432C36.7438 433.839 36.337 434.11 35.7946 434.246C35.5234 434.382 35.3878 434.381 35.1166 434.517C34.303 434.652 33.3539 434.653 32.5403 434.11C32.8115 435.195 33.7607 436.009 34.8454 436.416C35.9302 436.822 37.2861 436.957 38.5065 436.551C40.8116 435.466 42.3032 433.432 42.9811 431.263C43.3879 430.178 43.5235 429.093 43.6591 428.008C43.6591 427.33 43.7947 426.788 43.7947 426.11C43.7947 425.703 43.7947 425.297 43.7947 424.754C43.7947 424.212 43.7947 423.669 43.6591 423.263L43.3879 421.771L42.8456 418.923C42.5744 417.432 42.5743 415.94 42.5743 414.313C45.9642 413.093 49.2185 411.872 52.6084 410.923C52.6084 410.923 52.6084 410.923 52.6084 411.059C53.8288 415.262 55.3203 419.601 57.083 423.669C58.7102 427.601 60.0661 431.67 60.3373 435.738C60.4729 437.772 60.2017 439.805 59.5237 441.432C59.3881 442.381 59.117 443.331 58.5746 444.144C58.439 444.28 58.439 444.416 58.3034 444.551C57.761 445.229 57.2186 445.907 56.4051 446.449C58.7102 446.585 61.1509 444.958 62.6424 442.788C63.5916 440.347 63.8628 437.907 63.7272 435.602C63.7272 434.653 63.5916 433.839 63.456 432.89C62.9136 429.229 61.6933 425.703 60.3373 422.313C58.7102 418.381 57.2186 414.313 55.9983 410.11C55.9983 410.11 55.9983 410.11 55.9983 409.975C57.3542 409.568 58.7102 409.296 60.0661 408.889C62.3712 410.788 64.5408 412.822 66.5747 414.991C68.6086 417.296 70.5069 419.737 71.8629 422.313C72.5409 423.533 73.0833 424.89 73.3545 426.246C73.7612 426.924 74.168 427.601 74.3036 428.415C74.4392 429.093 74.5748 429.771 74.4392 430.585C75.1172 430.042 75.6596 429.229 76.0664 428.28C76.3375 427.466 76.6087 426.517 76.6087 425.703C76.2019 423.805 75.524 422.178 74.7104 420.686Z" fill="#EDCFC5"/>
<path d="M59.3908 441.431C60.2044 439.804 60.34 437.77 60.2044 435.736C59.9332 431.668 58.7128 427.6 56.9501 423.668C55.1873 419.6 53.6958 415.261 52.4754 411.058C52.4754 411.058 52.4754 411.057 52.4754 410.922C49.0856 412.007 45.8313 413.091 42.4414 414.312C42.4414 415.803 42.4414 417.295 42.7126 418.922L43.255 421.769L43.5262 423.261C43.6618 423.804 43.6618 424.346 43.6618 424.753C43.6618 425.16 43.6618 425.566 43.6618 426.109C46.916 436.143 49.6279 447.261 55.8653 445.499C56.6789 445.227 57.4925 444.957 58.1704 444.414C58.306 444.279 58.306 444.143 58.4416 444.007C58.8484 443.329 59.2552 442.38 59.3908 441.431Z" fill="#1E2B3C"/>
<path d="M39.7298 430.041C40.001 429.363 40.1366 428.414 40.2722 427.601C40.2722 426.787 40.4078 425.837 40.2722 425.024C40.2722 424.617 40.2722 424.21 40.1366 423.668L39.8654 422.312L39.323 419.465C39.1874 418.245 39.0518 416.888 39.0518 415.668C35.2552 417.024 31.4585 418.38 27.5262 419.6C27.5262 419.6 27.5262 419.6 27.3906 419.6C28.611 425.973 31.0517 430.99 32.4076 432.889C33.0856 433.838 34.1704 434.245 35.5263 434.245C36.0687 433.974 36.4755 433.838 36.8823 433.431C38.2382 432.889 39.1874 431.533 39.7298 430.041Z" fill="#1E2B3C"/>
<path d="M215.732 154.106V163.191L216.681 161.835C217.088 161.835 217.495 161.699 217.902 161.699C218.715 161.564 219.529 161.292 220.207 161.021C220.885 160.75 221.698 160.343 222.376 159.936C222.647 159.665 223.054 159.529 223.325 159.258C224.003 159.394 224.546 159.53 225.359 159.665C225.495 160.479 225.495 161.156 225.359 161.97C224.953 162.241 224.546 162.648 224.139 162.919C223.325 163.462 222.376 164.004 221.427 164.411C220.478 164.818 219.529 165.089 218.444 165.225C217.902 165.36 217.495 165.36 216.952 165.496C216.546 165.089 216.003 164.682 215.732 164.14V177.157C220.342 180.818 226.173 183.123 232.682 183.123C247.733 183.123 259.801 170.919 259.801 156.004V151.258C260.207 151.665 260.614 152.072 261.157 152.208C263.733 153.021 266.987 150.445 268.343 146.242C269.835 142.038 268.885 137.97 266.445 137.021C264.953 136.478 263.326 137.157 261.834 138.648C261.021 139.462 259.801 138.919 259.529 137.834C257.631 124.682 246.377 114.512 232.682 114.512C217.63 114.512 205.562 126.715 205.562 141.631V154.377H215.732V154.106Z" fill="#1E2B3C"/>
<path d="M216.955 165.224C217.497 165.224 218.039 165.088 218.446 164.952C219.395 164.817 220.48 164.41 221.429 164.139C222.379 163.732 223.328 163.325 224.141 162.647C224.548 162.376 224.955 162.105 225.362 161.698C225.497 161.02 225.497 160.342 225.362 159.393C224.548 159.257 223.87 159.122 223.328 158.986C223.057 159.258 222.65 159.529 222.379 159.664C221.701 160.071 221.023 160.478 220.209 160.749C219.531 161.02 218.717 161.291 217.904 161.427C217.497 161.562 217.09 161.563 216.684 161.563L215.734 162.918V163.596C216.141 164.41 216.548 164.817 216.955 165.224Z" fill="#EDCFC5"/>
<path d="M326.513 488.618C328.683 492.008 330.717 495.533 332.615 498.923L334.106 501.5C334.649 502.314 335.056 503.263 335.462 504.212L337.768 509.771C339.259 513.432 340.751 517.229 342.107 521.026C343.463 524.958 344.276 528.89 345.09 532.822C345.768 536.754 346.31 540.823 346.446 544.89C346.581 548.687 346.446 552.619 345.496 556.551C360.141 551.941 373.971 545.433 386.717 537.297C432.82 507.466 463.329 455.533 463.329 396.549C463.329 310.175 398.107 239.123 314.174 230.038C310.92 229.632 307.665 229.36 304.411 229.225C325.7 303.26 330.852 391.397 326.513 488.618Z" fill="#1E98F5"/>
<path d="M279.73 555.602L277.968 552.077C277.425 550.856 276.883 549.501 276.612 548.28C276.205 546.924 275.934 545.568 275.798 544.348C275.527 542.992 275.256 541.636 275.256 540.28C275.12 538.924 275.12 537.568 275.256 536.077C275.391 534.721 275.663 533.365 275.798 532.009C276.205 529.297 276.476 526.72 276.883 524.008C277.154 521.296 277.425 518.72 277.696 516.008C277.968 513.296 278.239 510.72 278.646 508.008L280.408 492.143L275.12 356.684L256.95 289.158L252.34 272.209L250.035 263.801C249.357 260.954 248.679 258.107 248.001 255.259C246.645 249.293 245.289 243.191 243.933 237.225C238.645 238.987 233.492 240.886 228.34 243.191C228.069 243.327 227.662 243.462 227.391 243.598C227.255 243.733 226.984 243.734 226.848 243.869C178.712 265.7 142.644 309.632 131.796 362.65C129.491 373.633 128.406 384.888 128.406 396.549C128.406 401.43 128.677 406.312 129.084 411.194C133.694 464.347 162.983 510.313 205.56 537.704C228.204 552.212 254.645 561.569 283.12 563.738C281.764 560.891 280.68 558.179 279.73 555.602Z" fill="#1E98F5"/>
<path d="M346.445 545.163C346.31 541.095 345.767 537.027 345.089 533.095C344.411 529.163 343.462 525.094 342.106 521.298C340.75 517.501 339.259 513.705 337.767 510.044L335.462 504.484C335.191 503.535 334.649 502.586 334.106 501.772L332.615 499.196C330.716 495.671 328.547 492.281 326.513 488.891L330.31 500.28L331.259 503.128C331.53 504.077 331.937 505.027 332.343 505.976C333.157 507.738 333.971 509.637 334.649 511.4C336.14 515.061 337.632 518.722 338.852 522.519C340.072 526.18 340.886 529.976 341.7 533.908C342.378 537.705 342.92 541.638 343.056 545.57C343.191 549.502 343.055 553.299 342.106 556.96C341.157 560.485 339.259 563.739 336.005 564.824C335.191 565.095 334.377 565.231 333.564 565.366C332.75 565.366 331.937 565.367 331.123 565.095C329.496 564.689 327.869 563.739 326.784 562.654L325.428 561.434L324.208 562.79C323.259 564.01 322.038 565.231 320.818 566.18C319.598 567.129 318.242 567.943 317.021 568.214C316.479 568.349 315.665 568.214 314.852 568.214C314.038 568.214 313.225 568.079 312.411 567.943C310.784 567.672 309.021 567.807 307.394 567.536L305.089 567.265L305.902 569.163C306.58 570.79 306.716 572.824 306.852 574.723C306.852 576.757 306.716 578.655 306.445 580.689C307.258 578.79 307.936 576.892 308.343 574.858C308.614 573.502 308.75 572.011 308.75 570.655C309.021 570.79 309.292 570.79 309.563 570.926C310.377 571.197 311.326 571.332 312.14 571.468L314.852 571.604C315.801 571.604 316.614 571.739 317.835 571.604C320.004 571.197 321.631 570.112 323.123 568.892C324.208 568.078 325.021 567.265 325.971 566.316C326.377 566.587 326.92 566.858 327.326 567.265C328.276 567.807 329.36 568.214 330.445 568.485C331.53 568.756 332.75 568.892 333.971 568.756C335.191 568.62 336.276 568.485 337.36 568.078C339.53 567.264 341.564 565.773 342.784 563.875C344.14 561.977 344.954 559.942 345.496 557.908C345.496 557.637 345.632 557.366 345.632 557.23C346.445 552.891 346.581 548.959 346.445 545.163Z" fill="#EDCFC5"/>
<path d="M249.904 263.937L252.209 272.344L256.819 289.294L274.989 356.82L280.277 492.279L278.515 508.144C278.108 510.856 277.837 513.432 277.565 516.144C277.294 518.856 277.023 521.432 276.752 524.144C276.481 526.856 276.074 529.432 275.667 532.144C275.531 533.5 275.26 534.72 275.125 536.212C274.989 537.568 274.989 538.924 275.125 540.415C275.26 541.771 275.531 543.127 275.667 544.483C275.938 545.839 276.209 547.195 276.481 548.415C276.887 549.771 277.294 550.992 277.837 552.212L279.599 555.738V555.873L278.108 552.077C277.701 550.856 277.294 549.501 277.023 548.28C276.752 546.924 276.616 545.703 276.481 544.348C276.345 542.992 276.209 541.636 276.209 540.415C276.209 539.059 276.345 537.839 276.481 536.483C276.752 535.263 277.023 533.907 277.294 532.551C277.837 529.975 278.379 527.263 278.921 524.686C279.871 519.398 280.955 514.11 281.498 508.686L283.26 492.686V492.551V492.415L277.972 356.684V356.548V356.413L259.667 288.751L255.057 271.801L252.752 263.395C251.938 260.547 250.989 257.835 250.175 254.988C246.65 243.869 243.26 232.615 239.734 221.496C240.955 226.92 242.175 232.344 243.395 237.632C244.751 243.598 246.107 249.699 247.463 255.666C248.684 258.242 249.226 261.09 249.904 263.937Z" fill="#EDCFC5"/>
<path d="M730.178 373.091C728.415 373.091 726.652 372.955 724.754 372.819C717.567 372.006 710.11 371.735 703.466 372.006C693.025 372.006 683.262 372.819 677.702 376.209C666.719 382.989 655.465 389.498 653.567 397.769C653.16 398.718 652.753 399.803 652.482 400.888C651.533 401.43 650.448 401.972 649.363 402.65C643.397 405.904 632.414 412.413 640.143 417.973C640.685 418.379 641.227 418.515 641.77 418.786C641.905 418.786 641.905 418.786 642.041 418.786C642.99 418.786 644.075 418.515 645.024 418.243C647.058 417.701 648.956 417.023 650.855 416.21C654.787 415.125 658.719 413.633 662.651 412.277C670.516 409.43 678.516 406.311 687.059 404.955C689.228 404.684 691.398 404.277 693.567 404.277C695.737 404.142 697.77 404.277 699.804 404.006C703.872 403.735 707.94 403.057 711.872 401.837C715.805 400.752 719.601 399.26 723.398 397.362C727.33 396.006 731.398 394.514 735.466 393.294C731.941 395.735 728.551 398.176 724.89 400.345C721.093 402.108 717.025 403.735 712.822 404.955C708.618 406.176 704.415 406.854 700.076 407.125C697.906 407.261 695.737 407.26 693.703 407.396C691.94 407.396 690.177 407.668 688.414 407.939C690.042 409.43 691.669 410.922 693.16 412.685C695.33 415.125 697.364 417.701 698.991 420.549C699.804 422.04 700.482 423.668 700.889 425.43C700.889 426.244 700.618 427.193 700.347 428.007C704.686 427.735 708.618 427.058 712.279 426.108C718.652 424.617 726.788 418.65 733.839 412.82C746.449 411.87 769.636 409.701 793.636 404.277L774.517 355.057L730.178 373.091Z" fill="#1E2B3C"/>
<path d="M856.012 263.395L855.198 260.141L854.249 256.886C854.114 256.344 853.978 255.802 853.707 255.259C853.571 254.717 853.3 254.174 853.164 253.632C852.486 249.971 851.673 246.31 851.131 242.514L842.724 270.581L856.283 265.293L856.012 263.395Z" fill="#1E2B3C"/>
<path d="M1011 537.839L970.047 553.704C969.912 554.924 969.64 556.144 969.369 557.5C968.827 559.534 968.013 561.568 966.657 563.466C965.301 565.365 963.403 566.856 961.234 567.67C960.149 568.077 959.064 568.348 957.844 568.348C956.623 568.483 955.539 568.348 954.318 568.076C953.233 567.805 952.149 567.398 951.2 566.856C950.657 566.585 950.25 566.314 949.844 565.907C948.894 566.857 948.081 567.67 946.996 568.484C945.505 569.568 943.877 570.653 941.708 571.195C940.488 571.331 939.674 571.331 938.725 571.195L936.013 571.06C935.064 571.06 934.25 570.789 933.437 570.517C933.165 570.382 932.894 570.382 932.623 570.246C932.623 571.738 932.487 573.094 932.216 574.45C931.809 576.483 931.131 578.382 930.318 580.28C930.725 578.246 930.725 576.212 930.725 574.314C930.725 572.415 930.453 570.381 929.775 568.754L928.962 566.856L931.267 567.128C932.894 567.399 934.657 567.263 936.284 567.534C937.098 567.67 937.911 567.806 938.725 567.806C939.538 567.806 940.488 567.806 940.894 567.806C942.115 567.534 943.471 566.721 944.691 565.772C945.911 564.822 947.132 563.602 948.081 562.382L949.301 561.026L950.657 562.246C951.877 563.331 953.505 564.28 954.996 564.686C955.81 564.958 956.623 564.958 957.437 564.958C958.25 564.958 959.064 564.687 959.878 564.416C963.132 563.331 965.03 560.212 965.979 556.551C966.929 553.025 967.064 549.093 966.929 545.161C966.793 541.229 966.251 537.432 965.573 533.5C964.895 529.703 964.081 525.771 962.725 522.11C961.505 518.449 960.013 514.652 958.522 510.991C957.708 509.229 957.03 507.33 956.217 505.567C955.81 504.618 955.403 503.805 955.132 502.72L954.183 499.872L950.386 488.482C954.589 394.379 949.844 308.819 930.318 236.275L938.996 232.886C927.606 193.427 906.182 173.902 877.978 183.393C851.808 192.071 847.74 216.614 851.808 240.208L851.537 241.292C853.164 245.089 854.791 248.75 856.418 252.411C856.69 252.954 856.825 253.496 856.961 254.039C857.097 254.581 857.368 255.123 857.503 255.665L858.452 259.055L859.266 262.445L859.537 263.801L872.69 258.649C872.419 257.428 872.148 256.343 871.876 255.123C869.3 243.733 866.588 232.343 864.147 220.953C867.808 232.072 871.198 243.191 874.588 254.445C875.402 257.293 876.351 260.005 877.165 262.852L879.47 271.259L884.08 288.208L902.385 355.87V356.006V356.141L907.674 491.872V492.008V492.143L905.911 508.144C905.368 513.567 904.284 518.855 903.334 524.144C902.792 526.856 902.25 529.432 901.707 532.009C901.436 533.365 901.029 534.585 900.894 535.941C900.623 537.161 900.623 538.517 900.623 539.873C900.623 541.229 900.758 542.449 900.894 543.805C901.029 545.161 901.165 546.517 901.436 547.737C901.707 549.093 901.978 550.314 902.521 551.534L904.012 555.331V555.195C906.589 561.297 909.165 569.161 912.555 575.806C914.724 580.009 917.301 583.806 920.284 586.247C923.809 589.094 926.657 587.467 928.555 584.077C941.979 602.247 957.301 619.06 973.979 634.247C989.844 648.891 1007.06 662.044 1025.1 673.841C1037.84 682.247 1051.13 689.841 1064.83 696.757C1070.12 699.469 1077.17 701.366 1081.91 705.027C1086.52 708.417 1105.51 722.113 1089.51 758.995C1079.61 781.639 1111.2 798.859 1111.2 798.859L1195 675.468C1194.73 675.875 1083.81 630.044 1011 537.839Z" fill="#1E2B3C"/>
<path d="M837.3 517.365C795.943 632.079 724.756 683.198 720.823 685.097C716.078 687.402 685.298 697.029 659.263 666.384C643.263 647.536 623.737 670.181 623.737 670.181L676.755 797.911C676.755 797.911 828.486 745.978 905.097 578.925L866.995 593.706L837.3 517.365Z" fill="#1E2B3C"/>
<path d="M853.709 255.259C853.845 255.802 854.116 256.344 854.251 256.886L855.201 260.141L856.014 263.395L856.421 265.293L859.675 264.073L859.404 262.717L858.59 259.327L857.641 255.937C857.506 255.395 857.234 254.852 857.099 254.31C856.963 253.767 856.828 253.225 856.557 252.683C854.929 249.022 853.302 245.225 851.675 241.564C851.404 241.022 851.268 240.615 850.997 240.072C851.133 240.886 851.268 241.699 851.268 242.648C851.811 246.445 852.489 250.106 853.302 253.768C853.302 254.174 853.573 254.717 853.709 255.259Z" fill="#EDCFC5"/>
<path d="M697.366 426.245C697.095 424.889 696.552 423.668 695.874 422.312C694.518 419.736 692.62 417.296 690.586 414.99C688.552 412.821 686.383 410.787 684.078 408.889C682.722 409.16 681.366 409.567 680.01 409.974C680.01 409.974 680.01 409.973 680.01 410.109C681.23 414.312 682.586 418.38 684.349 422.312C685.705 425.702 686.925 429.093 687.467 432.889C691.264 435.33 696.01 433.432 697.773 430.177C698.044 429.635 698.315 429.092 698.315 428.414C698.044 427.601 697.773 426.923 697.366 426.245Z" fill="#1E2B3C"/>
<path d="M698.724 420.686C697.097 417.703 695.063 415.127 692.894 412.821C691.402 411.194 689.775 409.567 688.148 408.076C689.91 407.804 691.673 407.533 693.436 407.533C695.47 407.398 697.775 407.534 699.809 407.263C704.148 406.991 708.351 406.178 712.555 405.093C716.758 404.008 720.691 402.246 724.623 400.483C728.284 398.178 731.674 395.737 735.199 393.432C731.131 394.516 727.063 396.144 723.131 397.499C719.335 399.262 715.538 400.889 711.606 401.974C707.673 403.059 703.606 403.737 699.538 404.144C697.504 404.279 695.47 404.279 693.3 404.415C691.131 404.415 688.961 404.686 686.792 405.093C678.249 406.584 670.249 409.567 662.385 412.415C658.452 413.907 654.52 415.262 650.588 416.347C648.689 417.161 646.791 417.839 644.757 418.381C643.808 418.652 642.723 418.788 641.774 418.923C641.639 418.923 641.639 418.923 641.503 418.923C640.554 418.923 639.605 418.924 638.791 418.517C639.605 419.195 640.689 419.737 641.774 419.873C642.859 420.144 643.944 420.144 645.028 420.279C647.198 420.279 649.367 420.008 651.537 419.737C651.537 419.737 651.537 419.737 651.673 419.737C655.605 418.652 659.401 417.296 663.198 415.805C663.198 417.161 663.334 418.381 663.469 419.601L664.012 422.449L664.283 423.805C664.283 424.212 664.283 424.754 664.419 425.161C664.554 426.11 664.419 426.923 664.419 427.737C664.283 428.551 664.147 429.364 663.876 430.178C663.334 431.67 662.385 433.025 661.164 433.432C660.757 433.839 660.351 434.11 659.808 434.246C659.537 434.382 659.401 434.381 659.13 434.517C658.317 434.652 657.368 434.653 656.554 434.11C656.825 435.195 657.774 436.009 658.859 436.416C659.944 436.822 661.3 436.957 662.52 436.551C664.825 435.466 666.317 433.432 666.995 431.263C667.402 430.178 667.537 429.093 667.673 428.008C667.673 427.33 667.673 426.788 667.808 426.11C667.808 425.703 667.808 425.297 667.808 424.754C667.808 424.212 667.808 423.669 667.673 423.263L667.402 421.771L666.859 418.923C666.588 417.432 666.588 415.94 666.588 414.313C669.978 413.093 673.232 411.872 676.622 410.923C676.622 410.923 676.622 410.923 676.622 411.059C677.842 415.262 679.334 419.601 681.097 423.669C682.724 427.601 684.08 431.67 684.351 435.738C684.487 437.772 684.215 439.805 683.537 441.432C683.402 442.381 683.131 443.331 682.588 444.144C682.453 444.28 682.453 444.416 682.317 444.551C681.775 445.229 681.232 445.907 680.419 446.449C682.724 446.585 685.3 444.958 686.656 442.788C687.605 440.347 687.877 437.907 687.741 435.602C687.741 434.653 687.605 433.839 687.47 432.89C686.927 429.229 685.707 425.703 684.351 422.313C682.724 418.381 681.232 414.313 680.012 410.11C680.012 410.11 680.012 410.11 680.012 409.975C681.368 409.568 682.724 409.296 684.08 408.889C686.385 410.788 688.554 412.822 690.588 414.991C692.622 417.296 694.521 419.737 695.877 422.313C696.555 423.533 697.097 424.89 697.368 426.246C697.775 426.924 698.182 427.601 698.317 428.415C698.453 429.093 698.588 429.771 698.453 430.585C699.131 430.042 699.673 429.229 700.08 428.28C700.351 427.466 700.622 426.517 700.622 425.703C700.216 423.805 699.538 422.178 698.724 420.686Z" fill="#EDCFC5"/>
<path d="M683.4 441.431C684.213 439.804 684.349 437.77 684.213 435.736C683.942 431.668 682.722 427.6 680.959 423.668C679.196 419.6 677.705 415.261 676.484 411.058C676.484 411.058 676.484 411.057 676.484 410.922C673.094 412.007 669.84 413.091 666.45 414.312C666.45 415.803 666.45 417.295 666.721 418.922L667.264 421.769L667.535 423.261C667.671 423.804 667.671 424.346 667.671 424.753C667.671 425.16 667.671 425.566 667.671 426.109C670.925 436.143 673.637 447.261 679.874 445.499C680.688 445.227 681.501 444.957 682.179 444.414C682.315 444.279 682.315 444.143 682.45 444.007C682.993 443.329 683.264 442.38 683.4 441.431Z" fill="#1E2B3C"/>
<path d="M663.736 430.041C664.007 429.363 664.142 428.414 664.278 427.601C664.278 426.787 664.414 425.837 664.278 425.024C664.278 424.617 664.278 424.21 664.142 423.668L663.871 422.312L663.329 419.465C663.193 418.245 663.058 416.888 663.058 415.668C659.261 417.024 655.464 418.38 651.532 419.6C651.532 419.6 651.532 419.6 651.396 419.6C652.617 425.973 655.057 430.99 656.413 432.889C657.091 433.838 658.176 434.245 659.532 434.245C660.075 433.974 660.481 433.838 660.888 433.431C662.244 432.889 663.193 431.533 663.736 430.041Z" fill="#1E2B3C"/>
<path d="M839.742 154.104V163.189L840.691 161.833C841.098 161.833 841.505 161.698 841.911 161.698C842.725 161.562 843.539 161.291 844.217 161.02C844.894 160.748 845.708 160.341 846.386 159.934C846.657 159.663 847.064 159.528 847.335 159.256C848.013 159.392 848.556 159.528 849.369 159.664C849.505 160.477 849.505 161.155 849.369 161.968C848.962 162.24 848.556 162.647 848.149 162.918C847.335 163.46 846.386 164.003 845.437 164.409C844.488 164.816 843.539 165.088 842.454 165.223C841.911 165.359 841.505 165.358 840.962 165.494C840.556 165.087 840.013 164.68 839.742 164.138V177.155C844.352 180.816 850.183 183.121 856.691 183.121C867.539 183.121 876.759 176.884 881.098 167.664C882.861 164.138 883.81 160.07 883.81 155.867V151.121C884.217 151.528 884.624 151.935 885.166 152.07C887.743 152.884 890.997 150.308 892.353 146.104C893.844 141.901 892.895 137.832 890.455 136.883C888.963 136.341 887.336 137.019 885.844 138.511C885.031 139.324 883.81 138.782 883.539 137.697C881.641 124.544 870.386 114.375 856.691 114.375C847.606 114.375 839.471 118.85 834.589 125.901C831.471 130.375 829.572 135.798 829.572 141.629V154.376H839.742V154.104Z" fill="#1E2B3C"/>
<path d="M841.094 165.224C841.637 165.224 842.179 165.088 842.586 164.952C843.535 164.817 844.62 164.41 845.569 164.139C846.518 163.867 847.467 163.325 848.281 162.647C848.688 162.376 849.094 162.105 849.501 161.698C849.637 161.02 849.637 160.342 849.501 159.393C848.688 159.257 848.01 159.122 847.467 158.986C847.196 159.258 846.789 159.529 846.518 159.664C845.84 160.071 845.162 160.478 844.349 160.749C843.671 161.02 842.857 161.291 842.044 161.427C841.637 161.562 841.23 161.563 840.823 161.563L839.874 162.918V163.596C840.145 164.41 840.552 164.817 841.094 165.224Z" fill="#EDCFC5"/>
<path d="M903.742 555.603L901.979 552.077C901.436 550.857 900.894 549.501 900.623 548.281C900.216 546.925 899.945 545.568 899.809 544.348C899.538 542.992 899.267 541.636 899.267 540.28C899.131 538.924 899.131 537.569 899.267 536.077C899.403 534.721 899.674 533.365 899.809 532.009C900.216 529.297 900.487 526.721 900.894 524.009C901.165 521.297 901.436 518.721 901.708 516.009C901.979 513.297 902.25 510.721 902.657 508.009L904.42 492.144L899.131 356.684L880.962 289.158L876.351 272.209L874.046 263.802C873.639 262.175 873.233 260.412 872.826 258.785L859.673 263.938L856.419 265.158L842.859 270.446L754.587 304.752L774.248 355.058L793.367 404.278L837.3 517.229L867.131 593.705L905.233 578.925L912.42 576.078C908.894 569.569 906.318 561.705 903.742 555.603Z" fill="#F45F63"/>
<path d="M950.657 488.619C952.826 492.009 954.86 495.534 956.759 498.924L958.25 501.501C958.793 502.314 959.199 503.263 959.606 504.213L961.911 509.771C963.403 513.432 964.894 517.23 966.25 521.026C967.606 524.958 968.42 528.89 969.233 532.823C969.911 536.755 970.454 540.823 970.589 544.891C970.725 547.739 970.589 550.586 970.182 553.569L1011.13 537.704L1156.08 481.296L1043.54 192.344L939.131 233.022L930.453 236.412C949.979 308.956 954.725 394.516 950.657 488.619Z" fill="#F45F63"/>
<path d="M970.453 545.163C970.318 541.095 969.775 537.027 969.097 533.095C968.419 529.163 967.47 525.094 966.114 521.298C964.758 517.501 963.267 513.705 961.775 510.044L959.47 504.484C959.199 503.535 958.656 502.586 958.114 501.772L956.622 499.196C954.724 495.671 952.555 492.281 950.521 488.891L954.317 500.28L955.267 503.128C955.538 504.077 955.944 505.027 956.351 505.976C957.165 507.738 957.978 509.637 958.656 511.4C960.148 515.061 961.639 518.722 962.86 522.519C964.08 526.18 964.894 529.976 965.707 533.908C966.385 537.705 966.928 541.638 967.063 545.57C967.199 549.502 967.063 553.299 966.114 556.96C965.165 560.485 963.267 563.739 960.012 564.824C959.199 565.095 958.385 565.231 957.572 565.366C956.758 565.366 955.945 565.367 955.131 565.095C953.504 564.689 951.877 563.739 950.792 562.654L949.436 561.434L948.216 562.79C947.266 564.01 946.046 565.231 944.826 566.18C943.605 567.129 942.249 567.943 941.029 568.214C940.487 568.349 939.673 568.214 938.86 568.214C938.046 568.214 937.232 568.079 936.419 567.943C934.792 567.672 933.029 567.807 931.402 567.536L929.097 567.265L929.91 569.163C930.588 570.79 930.724 572.824 930.859 574.723C930.859 576.757 930.724 578.655 930.453 580.689C931.266 578.79 931.944 576.892 932.351 574.858C932.622 573.502 932.758 572.011 932.758 570.655C933.029 570.79 933.3 570.79 933.571 570.926C934.385 571.197 935.334 571.332 936.148 571.468L938.86 571.604C939.809 571.604 940.622 571.739 941.843 571.604C944.012 571.197 945.639 570.112 947.131 568.892C948.216 568.078 949.029 567.265 949.978 566.316C950.385 566.587 950.927 566.858 951.334 567.265C952.283 567.807 953.368 568.214 954.453 568.485C955.538 568.756 956.758 568.892 957.978 568.756C959.199 568.62 960.284 568.485 961.368 568.078C963.538 567.264 965.572 565.773 966.792 563.875C968.148 561.977 968.962 559.942 969.504 557.908C969.775 556.688 970.046 555.468 970.182 554.112C970.589 550.858 970.589 548.01 970.453 545.163Z" fill="#EDCFC5"/>
<path d="M876.354 272.344L880.964 289.294L899.134 356.82L904.422 492.279L902.659 508.144C902.252 510.856 901.981 513.432 901.71 516.144C901.439 518.856 901.168 521.432 900.896 524.144C900.625 526.856 900.218 529.432 899.812 532.144C899.676 533.5 899.405 534.72 899.269 536.212C899.134 537.568 899.134 538.924 899.269 540.415C899.405 541.771 899.676 543.127 899.812 544.483C900.083 545.839 900.354 547.195 900.625 548.415C901.032 549.771 901.439 550.992 901.981 552.212L903.744 555.738V555.873L902.252 552.077C901.846 550.856 901.439 549.501 901.168 548.28C900.896 546.924 900.761 545.703 900.625 544.348C900.49 542.992 900.354 541.636 900.354 540.415C900.354 539.059 900.49 537.839 900.625 536.483C900.896 535.263 901.168 533.907 901.439 532.551C901.981 529.975 902.524 527.263 903.066 524.686C904.015 519.398 905.1 514.11 905.642 508.686L907.405 492.686V492.551V492.415L902.117 356.684V356.548V356.413L883.811 288.751L879.201 271.801L876.896 263.395C876.083 260.547 875.133 257.835 874.32 254.988C870.794 243.869 867.404 232.615 863.879 221.496C866.32 232.886 869.032 244.276 871.608 255.666C871.879 256.886 872.15 257.971 872.421 259.191C872.828 260.818 873.235 262.581 873.642 264.209L876.354 272.344Z" fill="#EDCFC5"/>
</svg>
