<svg width="947" height="640" viewBox="0 0 947 640" fill="none" xmlns="http://www.w3.org/2000/svg">
<g clip-path="url(#clip0_2478_3464)">
<rect width="946.709" height="640" fill="white"/>
<rect width="318.277" height="11.8085" transform="matrix(0.890435 -0.455111 0 1 201.905 207.692)" fill="#78C1F9"/>
<rect width="291.754" height="11.8085" transform="matrix(0.890435 0.455111 0 1 479.404 65.0522)" fill="#78C1F9"/>
<path d="M408.554 14.276C408.554 2.86309 416.766 -2.1287 426.897 3.12654L502.787 42.4927C508.576 45.4957 513.269 53.2169 513.269 59.7386V335.595C513.269 347.008 505.056 351.999 494.925 346.744L419.036 307.378C413.247 304.375 408.554 296.654 408.554 290.132V14.276Z" fill="#ACDBFF"/>
<path d="M408.554 12.6328C408.554 9.37193 410.908 7.93157 413.811 9.4156L490.042 48.3783C495.85 51.3464 500.557 59.0394 500.557 65.561V343.06C500.557 346.321 498.203 347.762 495.3 346.278L413.811 304.628C410.908 303.144 408.554 299.297 408.554 296.036V12.6328Z" fill="#78C1F9"/>
<g clip-path="url(#clip1_2478_3464)">
<rect width="82.6594" height="282.094" transform="matrix(0.890435 0.455111 0 1 417.41 20.1804)" fill="#78C1F9"/>
<path d="M429.238 89.6968L451.759 52.029C452.242 51.2212 453.579 51.8879 454.083 53.1876L477.869 114.552M429.238 89.6968V306.94M429.238 89.6968L453.553 102.125M477.869 114.552L453.553 102.125M477.869 114.552V332.417M453.553 102.125V319.368" stroke="#DEF0FF" stroke-width="5.90425"/>
<path d="M446.324 67.4327L454.21 56.7027L462.096 75.494L446.324 67.4327Z" fill="#DEF0FF" stroke="#DEF0FF" stroke-width="5.90425"/>
</g>
<path d="M661.078 23.1331C661.078 11.7203 652.839 6.67893 642.677 11.8731L500.369 84.6081C494.562 87.5762 489.855 95.2691 489.855 101.791V377.647C489.855 389.06 498.093 394.101 508.255 388.907L650.563 316.172C656.37 313.204 661.078 305.511 661.078 298.989V23.1331Z" fill="#FEE6AE"/>
<path d="M661.078 21.4899C661.078 18.2291 658.724 16.7887 655.82 18.2728L513.872 90.8241C508.065 93.7922 503.357 101.485 503.357 108.007V385.506C503.357 388.767 505.711 390.207 508.615 388.723L655.82 313.485C658.724 312.001 661.078 308.154 661.078 304.894V21.4899Z" fill="#EFCC79"/>
<path d="M281.612 64.4627C281.612 53.0499 289.851 48.0085 300.013 53.2027L414.36 111.647C420.167 114.615 424.875 122.308 424.875 128.829V404.686C424.875 416.098 416.637 421.14 406.474 415.946L292.127 357.501C286.32 354.533 281.612 346.84 281.612 340.319V64.4627Z" fill="#FFC7C9"/>
<path d="M281.612 62.8195C281.612 59.5587 283.966 58.1183 286.87 59.6024L402.531 118.718C408.338 121.686 413.046 129.379 413.046 135.901V413.4C413.046 416.661 410.692 418.101 407.788 416.617L286.87 354.814C283.966 353.33 281.612 349.484 281.612 346.223V62.8195Z" fill="#F89FA1"/>
<g clip-path="url(#clip2_2478_3464)">
<g clip-path="url(#clip3_2478_3464)">
<path fill-rule="evenodd" clip-rule="evenodd" d="M525.701 116.773C525.646 116.923 525.562 117.069 525.458 117.194C525.355 117.319 525.235 117.418 525.114 117.48L522.923 118.6C522.865 118.63 522.809 118.684 522.768 118.751C522.727 118.818 522.704 118.893 522.704 118.958V120.867C522.704 121.339 522.871 121.707 523.169 121.889C523.466 122.071 523.869 122.052 524.29 121.837L526.866 120.521C526.965 120.47 527.062 120.446 527.151 120.448C527.24 120.451 527.319 120.482 527.38 120.537C527.441 120.592 527.485 120.672 527.506 120.769C527.528 120.866 527.528 120.979 527.506 121.098V121.101L527.503 121.115L527.493 121.173L527.453 121.397C527.242 122.618 527.062 123.83 526.914 125.032C526.672 127.006 526.481 129.28 526.587 130.996L527.032 130.768L532.518 121.803C532.459 121.559 532.405 121.31 532.356 121.058C532.07 119.601 531.794 118.138 531.528 116.667C530.635 117.563 529.605 118.267 528.778 118.413C528.264 118.505 527.786 118.384 527.537 117.883C527.295 117.394 527.325 116.653 527.557 115.752C527.614 115.54 527.733 115.328 527.888 115.163C528.043 114.998 528.222 114.893 528.386 114.871C528.55 114.848 528.686 114.91 528.764 115.043C528.842 115.176 528.857 115.369 528.804 115.581C528.633 116.247 528.676 116.544 528.739 116.67C528.795 116.782 528.911 116.85 529.151 116.807C529.663 116.716 530.512 116.147 531.282 115.287C531.206 114.847 531.131 114.407 531.058 113.965L531.042 113.871L531.035 113.845C530.966 113.626 530.869 113.433 530.745 113.271C530.519 112.981 530.254 112.885 529.933 113.049L527.304 114.393C526.941 114.578 526.559 115.058 526.211 115.684C526.016 116.034 525.847 116.395 525.706 116.76L525.701 116.773ZM534.285 126.061C534.469 126.347 534.646 126.591 534.806 126.795L528.891 129.818L532.929 123.219C533.284 124.26 533.738 125.211 534.285 126.061ZM535.438 124.766C534.823 123.807 534.334 122.712 533.981 121.499L537.407 115.901C537.644 115.518 537.833 115.11 537.963 114.7C538.093 114.289 538.16 113.886 538.162 113.511C538.164 113.137 538.099 112.8 537.973 112.519C537.846 112.238 537.66 112.02 537.425 111.876C537.19 111.732 536.911 111.666 536.603 111.681C536.296 111.696 535.966 111.792 535.634 111.964C535.301 112.136 534.972 112.38 534.666 112.682C534.36 112.984 534.082 113.338 533.85 113.724L532.774 115.481C532.629 114.676 532.489 113.867 532.353 113.055L532.338 112.961L532.335 112.938V112.932L532.334 112.931C532.331 112.913 532.327 112.895 532.323 112.878L532.322 112.874L532.32 112.866L532.314 112.845C532.284 112.742 532.249 112.643 532.211 112.548C532.118 112.314 532 112.104 531.859 111.92C531.537 111.505 530.926 111.066 529.933 111.573L527.304 112.916C526.353 113.402 525.639 114.467 525.221 115.217C525.015 115.588 524.851 115.936 524.736 116.197L522.923 117.124C522.516 117.332 522.126 117.712 521.839 118.182C521.551 118.652 521.39 119.173 521.39 119.63V121.539C521.39 122.402 521.695 123.075 522.239 123.408C522.783 123.74 523.521 123.707 524.29 123.313L526.055 122.411L526.023 122.608C525.905 123.337 525.751 124.35 525.613 125.482C525.339 127.722 525.107 130.509 525.338 132.464C525.358 132.632 525.435 132.757 525.555 132.814C525.675 132.872 525.83 132.859 525.99 132.777L536.066 127.627C536.191 127.563 536.314 127.46 536.419 127.331C536.524 127.202 536.608 127.052 536.661 126.898C536.714 126.744 536.734 126.592 536.718 126.461C536.702 126.33 536.651 126.225 536.571 126.158L536.569 126.156L536.554 126.144C536.541 126.131 536.519 126.113 536.492 126.086C536.436 126.033 536.353 125.95 536.25 125.836C536.043 125.607 535.754 125.254 535.438 124.765V124.766ZM536.478 115.332L533.622 119.999C533.411 118.921 533.227 117.946 533.067 117.089L534.778 114.292C535.004 113.924 535.309 113.625 535.628 113.462C535.947 113.299 536.253 113.285 536.478 113.423C536.704 113.561 536.83 113.84 536.83 114.198C536.83 114.556 536.704 114.964 536.478 115.332Z" fill="#5C5C5C"/>
</g>
<g clip-path="url(#clip4_2478_3464)">
<path fill-rule="evenodd" clip-rule="evenodd" d="M561.477 96.4341C561.339 96.5045 561.204 96.622 561.092 96.7698C560.98 96.9177 560.897 97.0884 560.853 97.2577L560.128 100.076L557.096 101.625C556.689 101.833 556.299 102.214 556.012 102.684C555.724 103.154 555.562 103.675 555.562 104.131V113.972C555.562 114.922 556.249 115.343 557.096 114.91L571.115 107.744C571.522 107.537 571.912 107.156 572.2 106.686C572.487 106.216 572.649 105.695 572.649 105.239V95.3982C572.649 94.9415 572.487 94.586 572.2 94.4101C571.912 94.2341 571.522 94.252 571.115 94.4599L568.084 96.0094L567.357 93.9334C567.314 93.8087 567.23 93.7237 567.118 93.6902C567.007 93.6568 566.872 93.6766 566.734 93.747L561.477 96.4341ZM561.225 100.486L561.95 97.6683L566.259 95.4658L566.987 97.5414C567.03 97.6661 567.114 97.7512 567.226 97.7846C567.338 97.818 567.473 97.7979 567.611 97.7273L571.115 95.9359C571.174 95.9062 571.229 95.9037 571.27 95.9288C571.311 95.9539 571.335 96.0047 571.335 96.07V105.91C571.335 105.976 571.311 106.05 571.27 106.117C571.229 106.184 571.174 106.239 571.115 106.268L557.096 113.434C557.038 113.464 556.982 113.466 556.941 113.441C556.9 113.416 556.877 113.365 556.877 113.3V103.459C556.877 103.394 556.9 103.32 556.941 103.253C556.982 103.186 557.038 103.131 557.096 103.101L560.601 101.31C560.739 101.24 560.873 101.122 560.985 100.974C561.097 100.826 561.181 100.656 561.225 100.486ZM561.696 105.424C561.696 104.707 561.95 103.889 562.402 103.15C562.854 102.412 563.467 101.813 564.106 101.487C564.745 101.16 565.358 101.132 565.81 101.409C566.261 101.685 566.515 102.244 566.515 102.961C566.515 103.679 566.261 104.497 565.81 105.236C565.358 105.974 564.745 106.572 564.106 106.899C563.467 107.226 562.854 107.254 562.402 106.977C561.95 106.701 561.696 106.142 561.696 105.424ZM564.106 100.011C563.617 100.261 563.132 100.616 562.681 101.057C562.229 101.499 561.818 102.016 561.472 102.582C561.127 103.147 560.852 103.748 560.665 104.351C560.478 104.954 560.382 105.547 560.382 106.096C560.382 106.645 560.478 107.14 560.665 107.552C560.852 107.964 561.127 108.284 561.472 108.496C561.818 108.708 562.229 108.806 562.681 108.785C563.132 108.764 563.617 108.625 564.106 108.375C565.093 107.87 566.041 106.946 566.739 105.804C567.437 104.663 567.83 103.399 567.83 102.29C567.83 101.18 567.437 100.317 566.739 99.8898C566.041 99.4624 565.093 99.5059 564.106 100.011Z" fill="#5C5C5C"/>
</g>
<g clip-path="url(#clip5_2478_3464)">
<path fill-rule="evenodd" clip-rule="evenodd" d="M591.051 89.9292C591.051 87.7761 591.812 85.3219 593.168 83.1065C594.524 80.8911 596.362 79.096 598.28 78.1161C600.197 77.1362 602.035 77.0518 603.391 77.8814C604.747 78.7109 605.508 80.3866 605.508 82.5397C605.508 84.6928 604.747 87.147 603.391 89.3624C602.035 91.5778 600.197 93.3729 598.28 94.3528C596.362 95.3327 594.524 95.4172 593.168 94.5876C591.812 93.758 591.051 92.0823 591.051 89.9292ZM598.28 76.6401C593.561 79.0517 589.736 85.3019 589.736 90.601C589.736 95.9 593.561 98.2405 598.28 95.8289C602.998 93.4172 606.823 87.167 606.823 81.868C606.823 76.5689 602.998 74.2284 598.28 76.6401ZM598.937 79.9943C598.937 79.7986 598.867 79.6463 598.744 79.5709C598.621 79.4954 598.454 79.5031 598.28 79.5922C598.105 79.6813 597.938 79.8445 597.815 80.0459C597.692 80.2473 597.622 80.4704 597.622 80.6661V86.5704C597.622 86.7662 597.692 86.9188 597.815 86.9934L600.006 88.3339C600.066 88.3756 600.138 88.3967 600.219 88.3958C600.3 88.395 600.387 88.3722 600.475 88.3288C600.563 88.2855 600.651 88.2224 600.733 88.1435C600.814 88.0646 600.889 87.9713 600.951 87.8693C601.014 87.7674 601.063 87.6587 601.096 87.55C601.129 87.4412 601.145 87.3344 601.144 87.2361C601.142 87.1378 601.123 87.05 601.087 86.9778C601.051 86.9056 600.999 86.8506 600.934 86.8161L598.937 85.5935V79.9943Z" fill="#5C5C5C"/>
</g>
<g clip-path="url(#clip6_2478_3464)">
<path fill-rule="evenodd" clip-rule="evenodd" d="M631.986 59.6279C632.11 59.4267 632.277 59.2637 632.451 59.1747C632.625 59.0857 632.792 59.0779 632.915 59.1532L639.049 62.9065C639.172 62.9811 639.242 63.1337 639.242 63.3295V74.154C639.242 74.3497 639.172 74.5728 639.049 74.7742C638.926 74.9756 638.759 75.1388 638.584 75.2279L634.203 77.4671C634.029 77.5562 633.862 77.5639 633.739 77.4885C633.615 77.4131 633.546 77.2607 633.546 77.065V72.8828L631.356 74.0024V78.1846C631.356 78.3803 631.286 78.6035 631.163 78.8048C631.04 79.0062 630.873 79.1694 630.698 79.2585L626.317 81.4978C626.143 81.5868 625.976 81.5945 625.853 81.5191C625.729 81.4437 625.66 81.2914 625.66 81.0956V70.2712C625.66 70.0754 625.73 69.8524 625.853 69.6511L631.986 59.6279ZM626.974 69.9045V79.6858L630.041 78.1183V73.9362C630.041 73.7404 630.111 73.5173 630.234 73.3159C630.357 73.1145 630.524 72.9513 630.698 72.8623L634.203 71.0709C634.378 70.9818 634.545 70.9741 634.668 71.0495C634.791 71.1249 634.861 71.2773 634.861 71.473V75.6552L637.927 74.0877V64.3064L632.451 60.9552L626.974 69.9045Z" fill="#5C5C5C"/>
</g>
<g clip-path="url(#clip7_2478_3464)">
<path fill-rule="evenodd" clip-rule="evenodd" d="M523.799 145.276C523.624 145.365 523.457 145.528 523.334 145.729C523.211 145.931 523.142 146.154 523.142 146.35V155.206C523.142 156.446 523.58 157.41 524.361 157.888C525.141 158.366 526.2 158.317 527.304 157.753L530.809 155.961C531.912 155.397 532.971 154.364 533.752 153.088C534.532 151.813 534.971 150.4 534.971 149.16V148.828C535.389 148.726 535.824 148.506 536.243 148.187C536.663 147.868 537.055 147.458 537.392 146.986C537.729 146.514 538.001 145.994 538.189 145.464C538.376 144.934 538.473 144.408 538.473 143.926C538.473 143.443 538.376 143.017 538.189 142.678C538.001 142.34 537.729 142.097 537.392 141.97C537.055 141.843 536.663 141.834 536.243 141.944C535.824 142.053 535.389 142.279 534.971 142.603V140.304C534.971 140.108 534.901 139.956 534.778 139.88C534.655 139.805 534.488 139.812 534.313 139.902L523.799 145.276ZM533.656 144.412V149.832C533.656 150.68 533.356 151.647 532.822 152.52C532.288 153.392 531.564 154.099 530.809 154.485L527.304 156.277C526.548 156.663 525.824 156.696 525.29 156.369C524.756 156.043 524.456 155.382 524.456 154.534V146.416L533.656 141.713V144.412ZM534.971 147.273V144.159C535.204 143.916 535.462 143.728 535.72 143.614C535.978 143.5 536.228 143.463 536.447 143.507C536.665 143.55 536.845 143.673 536.97 143.864C537.094 144.055 537.16 144.307 537.16 144.597C537.16 144.887 537.094 145.206 536.97 145.525C536.845 145.843 536.665 146.149 536.447 146.416C536.228 146.683 535.978 146.902 535.72 147.052C535.462 147.201 535.204 147.277 534.971 147.273Z" fill="#5C5C5C"/>
</g>
<g clip-path="url(#clip8_2478_3464)">
<path fill-rule="evenodd" clip-rule="evenodd" d="M566.514 122.213C566.514 122.018 566.583 121.795 566.707 121.593C566.83 121.392 566.997 121.229 567.171 121.14L570.238 119.572C571.085 119.139 571.772 119.56 571.772 120.51V134.287C571.772 134.744 571.61 135.264 571.322 135.734C571.035 136.204 570.645 136.585 570.238 136.793L567.171 138.36C566.997 138.449 566.83 138.457 566.707 138.382C566.583 138.306 566.514 138.154 566.514 137.958C566.514 137.762 566.583 137.539 566.707 137.338C566.83 137.136 566.997 136.973 567.171 136.884L570.238 135.317C570.296 135.287 570.352 135.233 570.393 135.166C570.434 135.098 570.457 135.024 570.457 134.959V121.182C570.457 121.117 570.434 121.066 570.393 121.041C570.352 121.016 570.296 121.018 570.238 121.048L567.171 122.616C566.997 122.705 566.83 122.712 566.707 122.637C566.583 122.562 566.514 122.409 566.514 122.213ZM556 135.46C556 135.264 556.069 135.041 556.192 134.84C556.315 134.638 556.482 134.475 556.657 134.386L565.147 130.046L562.326 128.32C562.21 128.239 562.147 128.087 562.15 127.894C562.153 127.701 562.222 127.483 562.342 127.287C562.462 127.09 562.625 126.929 562.795 126.839C562.965 126.749 563.13 126.735 563.255 126.802L567.198 129.215C567.321 129.29 567.39 129.443 567.39 129.638C567.39 129.834 567.321 130.057 567.198 130.258L563.255 136.702C563.194 136.805 563.122 136.9 563.041 136.982C562.961 137.063 562.874 137.129 562.785 137.176C562.697 137.223 562.61 137.25 562.528 137.254C562.446 137.259 562.372 137.242 562.309 137.203C562.247 137.165 562.198 137.107 562.165 137.032C562.131 136.957 562.115 136.867 562.117 136.767C562.118 136.667 562.138 136.559 562.174 136.451C562.209 136.342 562.261 136.234 562.326 136.133L565.147 131.522L556.657 135.862C556.482 135.951 556.315 135.959 556.192 135.883C556.069 135.808 556 135.656 556 135.46Z" fill="#5C5C5C"/>
</g>
<g clip-path="url(#clip9_2478_3464)">
<path fill-rule="evenodd" clip-rule="evenodd" d="M593.022 112.849C592.576 113.077 592.137 113.394 591.741 113.73C592.326 112.039 593.251 110.389 594.409 108.973C595.566 107.557 596.909 106.433 598.28 105.733C599.651 105.032 600.993 104.783 602.151 105.016C603.309 105.248 604.234 105.952 604.819 107.045C604.404 107.114 603.972 107.259 603.537 107.474C602.748 107.878 601.992 108.555 601.463 109.09C601.274 109.281 601.089 109.479 600.908 109.683C600.728 109.664 600.542 109.655 600.354 109.657C599.825 109.663 599.069 109.758 598.28 110.161C597.49 110.565 596.735 111.242 596.206 111.777C595.988 111.997 595.799 112.202 595.651 112.37C595.47 112.351 595.285 112.342 595.096 112.344C594.567 112.35 593.812 112.445 593.022 112.849ZM600.537 111.339L600.544 111.34L601.273 110.968L601.28 110.959C601.51 110.681 601.75 110.416 601.997 110.166C602.452 109.706 603.013 109.218 603.537 108.95C604.34 108.54 605.197 108.568 605.612 108.622C605.724 108.636 605.851 108.604 605.98 108.53C606.108 108.455 606.231 108.341 606.333 108.201C606.436 108.062 606.514 107.904 606.557 107.746C606.6 107.588 606.606 107.437 606.576 107.313C605.658 103.592 602.293 102.206 598.28 104.257C594.267 106.308 590.902 111.135 589.984 115.792C589.953 115.948 589.96 116.092 590.003 116.206C590.046 116.319 590.124 116.398 590.226 116.433C590.329 116.467 590.452 116.456 590.58 116.4C590.708 116.343 590.836 116.245 590.948 116.116C591.363 115.638 592.22 114.735 593.022 114.325C593.547 114.056 594.106 113.971 594.563 113.965C594.81 113.963 595.05 113.983 595.28 114.026L595.287 114.027C595.395 114.053 595.521 114.031 595.651 113.965C595.781 113.899 595.908 113.791 596.016 113.655L596.023 113.646L596.058 113.604C596.277 113.341 596.505 113.091 596.74 112.853C597.196 112.392 597.755 111.906 598.28 111.638C598.805 111.369 599.364 111.284 599.82 111.278C600.067 111.276 600.307 111.296 600.537 111.339ZM598.937 113.516C598.937 113.32 598.868 113.168 598.745 113.092C598.621 113.017 598.454 113.024 598.28 113.114C598.106 113.203 597.938 113.366 597.815 113.567C597.692 113.769 597.623 113.992 597.623 114.187V121.076V121.122L597.628 121.21C597.653 121.606 597.749 121.957 597.911 122.242C598.06 122.501 598.293 122.737 598.655 122.822C599.02 122.91 599.478 122.833 600.032 122.55C600.585 122.268 601.044 121.876 601.41 121.414C601.772 120.959 602.006 120.483 602.154 120.074C602.327 119.59 602.425 119.108 602.441 118.659V118.63L602.442 118.619V118.614V118.121C602.442 117.925 602.373 117.773 602.249 117.697C602.126 117.622 601.959 117.629 601.785 117.718C601.61 117.808 601.443 117.971 601.32 118.172C601.197 118.374 601.128 118.597 601.128 118.792V119.281C601.128 119.287 601.128 119.299 601.126 119.317C601.113 119.54 601.062 119.776 600.978 120.014C600.908 120.21 600.811 120.395 600.681 120.56C600.554 120.719 600.356 120.909 600.032 121.074C599.709 121.239 599.511 121.252 599.384 121.223C599.252 121.191 599.157 121.104 599.086 120.981C598.997 120.821 598.947 120.624 598.937 120.401V113.516Z" fill="#5C5C5C"/>
</g>
<g clip-path="url(#clip10_2478_3464)">
<path fill-rule="evenodd" clip-rule="evenodd" d="M630.699 87.6864C630.873 87.5974 631.04 87.5897 631.164 87.6651C631.287 87.7405 631.356 87.8929 631.356 88.0886V89.8894C631.59 90.3356 631.894 91.0993 632.139 91.7454C632.273 92.1 632.395 92.4314 632.485 92.678L635.956 90.9036C637.101 90.3183 637.846 90.6048 638.272 91.1862C638.36 91.3037 638.434 91.4349 638.496 91.5734L639.461 91.0803C640.308 90.6477 640.994 91.0681 640.994 92.0186V94.9708C640.994 95.1665 640.925 95.3896 640.802 95.591C640.679 95.7924 640.512 95.9556 640.337 96.0447C640.163 96.1338 639.996 96.1414 639.873 96.066C639.749 95.9906 639.68 95.8383 639.68 95.6425V92.6904C639.68 92.6252 639.657 92.5744 639.616 92.5492C639.575 92.5241 639.519 92.5267 639.461 92.5564L638.797 92.8958C638.801 92.9802 638.804 93.0615 638.804 93.1383C638.804 93.7247 638.678 94.669 638.272 95.635C637.925 96.4618 637.366 97.3114 636.552 97.9144L637.656 99.8289C637.966 99.3644 638.253 98.8829 638.512 98.3896C638.566 98.2865 638.633 98.1897 638.709 98.1047C638.785 98.0196 638.868 97.9481 638.954 97.8941C639.04 97.8401 639.127 97.8046 639.21 97.7899C639.292 97.7751 639.369 97.7812 639.437 97.8079C639.504 97.8346 639.559 97.8814 639.601 97.9455C639.642 98.0096 639.668 98.0899 639.677 98.1817C639.686 98.2735 639.678 98.375 639.653 98.4805C639.629 98.5859 639.588 98.6933 639.534 98.7964C638.734 100.319 637.721 101.734 636.572 102.938C635.422 104.142 634.164 105.105 632.889 105.755C631.615 106.407 630.357 106.731 629.207 106.702C628.057 106.673 627.045 106.293 626.245 105.588C626.191 105.541 626.15 105.475 626.126 105.395C626.101 105.314 626.093 105.221 626.102 105.12C626.111 105.019 626.137 104.912 626.178 104.806C626.219 104.7 626.275 104.596 626.342 104.501C626.409 104.405 626.486 104.32 626.569 104.25C626.652 104.181 626.739 104.127 626.825 104.094C626.91 104.06 626.994 104.046 627.07 104.054C627.145 104.061 627.212 104.09 627.267 104.137C627.526 104.366 627.813 104.554 628.123 104.702L629.24 101.621C628.829 101.691 628.455 101.629 628.153 101.44C627.733 101.183 627.413 100.676 627.413 99.9443V96.88L625.549 98.1809C625.412 98.2761 625.272 98.3238 625.148 98.3172L625.144 98.3194L625.141 98.3178L625.132 98.3183L625.115 98.3155C625.044 98.3066 624.975 98.2913 624.91 98.2697C624.753 98.2171 624.612 98.1349 624.489 98.0251C624.184 97.752 623.907 97.2411 623.907 96.3249C623.907 95.4068 624.184 94.6129 624.489 94.028C624.65 93.7191 624.844 93.4252 625.062 93.1584L625.115 93.0981L625.132 93.0773L625.141 93.0689L625.144 93.0656L625.145 93.0647C625.146 93.0643 625.147 93.0628 625.441 93.5721L625.147 93.0628L625.148 93.0614L625.149 93.06L625.151 93.0591L625.152 93.0572L625.154 93.0553V93.0543L625.155 93.0539L625.156 93.0525L625.158 93.0506L625.159 93.0497L625.161 93.0478L625.162 93.0464L625.163 93.0449L625.165 93.044V93.0431L625.166 93.0412L625.168 93.0403L625.169 93.0388L625.171 93.037L625.172 93.0355L625.173 93.0346L625.174 93.0322L625.176 93.0313L625.178 93.0294L625.18 93.0276L625.18 93.0261L625.182 93.0243L625.184 93.0234L625.186 93.0205L625.187 93.0196L625.189 93.0167L625.191 93.0158L625.193 93.013L625.194 93.0121L625.196 93.0092L625.198 93.0073L625.201 93.005L625.202 93.0031L625.204 93.0013L625.206 92.9984L625.208 92.997L625.21 92.9942L625.213 92.9919L625.215 92.99L625.217 92.9867L625.219 92.9848L625.222 92.9825L625.223 92.9796L625.226 92.9773L625.229 92.9749L625.231 92.9716L625.233 92.9697L625.236 92.9664L625.238 92.9651L625.241 92.9618L625.243 92.9585L625.246 92.9561L625.249 92.9528L625.251 92.9505L625.254 92.9472L625.257 92.9449L625.259 92.9415L625.262 92.9382L625.265 92.9355L625.268 92.9321L625.271 92.9298L625.273 92.9265L625.277 92.9228L625.279 92.9194L625.283 92.9167L625.286 92.9134L625.289 92.9096L625.292 92.9073L625.295 92.9035L625.298 92.9002L625.301 92.8964L625.305 92.8927L625.307 92.8894L625.311 92.8866L625.314 92.8828L625.318 92.8791L625.321 92.8758L625.324 92.872L625.328 92.8682L625.331 92.8645L625.335 92.8607L625.338 92.857L625.342 92.8532L625.345 92.8494L625.349 92.8457L625.352 92.8419L625.356 92.8382L625.36 92.834L625.364 92.8302L625.367 92.8264L625.371 92.8217L625.375 92.8175L625.378 92.8137L625.382 92.81L625.386 92.8058L625.39 92.802L625.394 92.7968L625.398 92.793L625.402 92.7888L625.406 92.7851L625.41 92.7799L625.413 92.7761L625.418 92.7719L625.422 92.7667L625.426 92.763L625.43 92.7588L625.434 92.7536L625.438 92.7498L625.442 92.7446L625.447 92.7404L625.451 92.7362L625.456 92.731L625.46 92.7268L625.464 92.7216L625.469 92.7174L625.473 92.7122L625.477 92.708L625.482 92.7028L625.486 92.6986L625.491 92.6934L625.495 92.6892L625.499 92.684L625.504 92.6788L625.509 92.6742L625.513 92.669L625.518 92.6648L625.522 92.6596L625.527 92.6539L625.532 92.6497L625.537 92.6441L625.541 92.6389L625.546 92.6337L625.551 92.6291L625.555 92.6239L625.561 92.6182L625.565 92.613L625.57 92.6084L625.575 92.6032L625.58 92.5976L625.585 92.5919L625.59 92.5867L625.595 92.5821L625.6 92.5764L625.604 92.5712L625.61 92.5656L625.615 92.56L625.62 92.5543L625.625 92.5491L625.63 92.5435L625.635 92.5388L625.64 92.5332L625.646 92.5276L625.651 92.5219L625.656 92.5163L625.661 92.5106L625.667 92.505L625.672 92.4994L625.677 92.4937L625.682 92.4881L625.688 92.4824L625.693 92.4768L625.698 92.4712L625.703 92.4645L625.709 92.4589L625.715 92.4528L625.72 92.4472L625.725 92.4415L625.731 92.4359L625.737 92.4298L625.742 92.4242L625.747 92.4185L625.753 92.4119L625.759 92.4058L625.764 92.4002L625.77 92.3941L625.775 92.3885L625.781 92.3818L625.787 92.3757L625.792 92.3701L625.798 92.364L625.803 92.3574L625.81 92.3513L625.815 92.3457L625.821 92.3396L625.826 92.333L625.832 92.3269L625.838 92.3208L625.844 92.3142L625.85 92.3081L625.856 92.302L625.861 92.2954L625.867 92.2893L625.873 92.2832L625.879 92.2766L625.885 92.2705L625.891 92.2644L625.897 92.2573L625.903 92.2512L625.909 92.2446L625.915 92.2385L625.921 92.2324L625.927 92.2254L625.933 92.2193L625.939 92.2122L625.945 92.2061L625.951 92.1991L625.957 92.1934L625.963 92.1863L625.969 92.1803L625.975 92.1732L625.981 92.1671L625.987 92.16L625.994 92.1539L626.001 92.1464L626.007 92.1403L626.013 92.1333L626.019 92.1272L626.025 92.1201L626.031 92.114L626.037 92.1069L626.043 92.0999L626.05 92.0938L626.057 92.0863L626.063 92.0802L626.069 92.0731L626.075 92.067L626.081 92.06L626.088 92.0524L626.094 92.0463L626.1 92.0393L626.107 92.0322L626.114 92.0257L626.12 92.0186L626.126 92.0115L626.133 92.005L626.139 91.9979L626.145 91.9908L626.152 91.9843L626.158 91.9772L626.164 91.9702L626.171 91.9636L626.178 91.9566L626.185 91.949L626.191 91.943L626.197 91.9359L626.204 91.9284L626.21 91.9213L626.217 91.9148L626.223 91.9077L626.23 91.9002L626.236 91.8941L626.243 91.8866L626.249 91.8795L626.256 91.872L626.263 91.8659L626.27 91.8584L626.276 91.8513L626.283 91.8438L626.289 91.8367L626.296 91.8302L626.302 91.8231L626.309 91.8156L626.318 91.8072L626.324 91.8001L626.331 91.7936L626.337 91.7865L626.344 91.779L626.351 91.7715L626.357 91.7644L626.364 91.7579L626.371 91.7503L626.377 91.7433L626.384 91.7357L626.391 91.7282L626.397 91.7212L626.404 91.7146L626.411 91.7071L626.418 91.7L626.425 91.6925L626.432 91.685L626.438 91.6779L626.445 91.6714L626.452 91.6639L626.459 91.6563L626.465 91.6493L626.472 91.6418L626.479 91.6342L626.486 91.6267L626.492 91.6196L626.499 91.6131L626.506 91.6056L626.513 91.5981L626.519 91.591L626.526 91.5835L626.533 91.576L626.54 91.5684L626.546 91.5614L626.553 91.5548L626.56 91.5473L626.567 91.5398L626.574 91.5327L626.581 91.5252L626.588 91.5177L626.595 91.5102L626.601 91.5031L626.607 91.496L626.614 91.4885L626.621 91.482L626.628 91.4745L626.635 91.4669L626.641 91.4599L626.648 91.4523L626.655 91.4448L626.662 91.4373L626.669 91.4298L626.676 91.4223L626.682 91.4152L626.689 91.4087L626.696 91.4011L626.703 91.3936L626.71 91.3861L626.716 91.379L626.723 91.3715L626.73 91.364L626.737 91.3565L626.744 91.349L626.751 91.3419L626.758 91.3344L626.765 91.3278L626.772 91.3203L626.779 91.3128L626.785 91.3057L626.792 91.2982L626.799 91.2907L626.806 91.2832L626.813 91.2757L626.819 91.2686L626.826 91.2611L626.833 91.2545L626.84 91.247L626.847 91.2395L626.853 91.2324L626.86 91.2249L626.867 91.2174L626.874 91.2099L626.881 91.2023L626.887 91.1953L626.894 91.1887L626.901 91.1812L626.908 91.1737L626.914 91.1666L626.921 91.1591L626.928 91.1516L626.935 91.1441L626.942 91.137L626.949 91.1305L626.956 91.1229L626.962 91.1159L626.969 91.1084L626.976 91.1008L626.983 91.0933L626.989 91.0862L626.996 91.0797L627.003 91.0722L627.009 91.0651L627.016 91.0576L627.023 91.0501L627.029 91.043L627.036 91.0365L627.043 91.029L627.049 91.0219L627.056 91.0144L627.063 91.0069L627.07 90.9998L627.077 90.9932L627.083 90.9862L627.09 90.9787L627.097 90.9711L627.103 90.9641L627.11 90.9575L627.116 90.9505L627.123 90.9429L627.129 90.9359L627.136 90.9293L627.143 90.9218L627.149 90.9147L627.156 90.9072L627.162 90.9011L627.169 90.8936L627.176 90.8865L627.183 90.879L627.189 90.8729L627.196 90.8654L627.202 90.8584L627.208 90.8513L627.215 90.8447L627.221 90.8377L627.228 90.8302L627.234 90.8241L627.24 90.817L627.247 90.8095L627.254 90.8024L627.261 90.7959L627.267 90.7888L627.273 90.7817L627.28 90.7752L627.286 90.7681L627.292 90.7611L627.298 90.755L627.305 90.7474L627.311 90.7414L627.317 90.7343L627.324 90.7268L627.331 90.7207L627.337 90.7136L627.343 90.7065L627.349 90.7005L627.356 90.6929L627.362 90.6868L627.368 90.6798L627.374 90.6737L627.381 90.6666L627.387 90.6595L627.393 90.6535L627.399 90.6464L627.406 90.6399L627.412 90.6328L627.418 90.6267L627.424 90.6196L627.431 90.6135L627.437 90.6065L627.443 90.6004L627.449 90.5933L627.455 90.5872L627.46 90.5806L627.466 90.5745L627.473 90.5674L627.479 90.5614L627.485 90.5553L627.491 90.5482L627.497 90.5421L627.503 90.535L627.509 90.5294L627.515 90.5223L627.521 90.5162L627.527 90.5102L627.533 90.5031L627.538 90.4974L627.544 90.4914L627.551 90.4843L627.556 90.4786L627.562 90.4726L627.568 90.4655L627.573 90.4598L627.579 90.4538L627.585 90.4471L627.591 90.4411L627.597 90.435L627.602 90.4293L627.608 90.4223L627.614 90.4166L627.62 90.4105L627.625 90.4049L627.63 90.3983L627.636 90.3922L627.642 90.3865L627.648 90.3805L627.653 90.3748L627.658 90.3682L627.664 90.3621L627.67 90.3565L627.675 90.3508L627.681 90.3447L627.686 90.3391L627.692 90.3335L627.697 90.3268L627.702 90.3212L627.708 90.3151L627.714 90.3095L627.719 90.3038L627.724 90.2982L627.729 90.2926L627.735 90.2869L627.74 90.2813L627.745 90.2756L627.75 90.27L627.756 90.2644L627.761 90.2587L627.766 90.2531L627.771 90.2474L627.777 90.2418C628.406 89.567 629.14 89.2133 629.757 89.1283C629.852 89.1159 629.948 89.1094 630.042 89.1087V88.7604C630.042 88.5646 630.111 88.3415 630.234 88.1401C630.357 87.9387 630.525 87.7755 630.699 87.6864ZM629.2 105.03C630.316 105.205 631.591 104.946 632.889 104.28C634.188 103.619 635.462 102.575 636.578 101.26L635.111 98.7156L630.668 100.987L629.2 105.03ZM630.115 91.0303L630.107 91.0171C629.982 90.8061 629.706 90.6914 629.341 90.7413C628.973 90.7917 628.611 90.9973 628.364 91.2623L628.359 91.2675L628.354 91.2732L628.349 91.2788L628.344 91.2844L628.338 91.2901L628.333 91.2957L628.328 91.3014L628.323 91.307L628.317 91.3126L628.312 91.3183L628.307 91.3239L628.301 91.33L628.295 91.3356L628.29 91.3413L628.285 91.3469L628.28 91.3526L628.274 91.3582L628.268 91.3643L628.263 91.3709L628.258 91.3765L628.252 91.3822L628.246 91.3883L628.241 91.3939L628.236 91.3995L628.23 91.4066L628.224 91.4123L628.218 91.4183L628.213 91.424L628.207 91.4301L628.202 91.4367L628.195 91.4428L628.19 91.4484L628.184 91.4545L628.179 91.4611L628.173 91.4672L628.167 91.4729L628.161 91.4799L628.155 91.486L628.15 91.4917L628.144 91.4987L628.138 91.5048L628.132 91.5104L628.126 91.5175L628.12 91.5236L628.115 91.5292L628.109 91.5363L628.103 91.5424L628.096 91.5495L628.09 91.5556L628.085 91.5612L628.079 91.5683L628.073 91.5744L628.067 91.5814L628.061 91.5875L628.054 91.5946L628.048 91.6007L628.042 91.6068L628.036 91.6138L628.03 91.6199L628.024 91.627L628.018 91.6331L628.011 91.6402L628.005 91.6462L627.999 91.6533L627.993 91.6594L627.987 91.6665L627.981 91.6735L627.975 91.6796L627.969 91.6867L627.962 91.6928L627.956 91.6999L627.95 91.7059L627.943 91.7135L627.937 91.7205L627.931 91.7266L627.925 91.7337L627.919 91.7398L627.912 91.7473L627.905 91.7544L627.899 91.7605L627.893 91.7675L627.886 91.7741L627.88 91.7811L627.874 91.7882L627.867 91.7947L627.861 91.8018L627.855 91.8089L627.848 91.8154L627.841 91.8225L627.835 91.8296L627.828 91.8371L627.822 91.8432L627.815 91.8507L627.809 91.8578L627.803 91.8638L627.796 91.8714L627.79 91.8784L627.783 91.885L627.777 91.892L627.77 91.8996L627.763 91.9066L627.756 91.9132L627.75 91.9202L627.743 91.9278L627.737 91.9348L627.73 91.9414L627.724 91.9484L627.717 91.9559L627.711 91.963L627.704 91.9705L627.698 91.9766L627.691 91.9841L627.684 91.9917L627.678 91.9987L627.671 92.0063L627.664 92.0123L627.657 92.0199L627.65 92.0274L627.644 92.0344L627.637 92.042L627.63 92.0485L627.624 92.0556L627.617 92.0631L627.611 92.0702L627.604 92.0777L627.597 92.0852L627.59 92.0917L627.584 92.0988L627.577 92.1063L627.57 92.1138L627.564 92.1209L627.557 92.1284L627.55 92.136L627.544 92.142L627.537 92.1496L627.53 92.1571L627.523 92.1646L627.516 92.1717L627.509 92.1792L627.502 92.1867L627.495 92.1932L627.489 92.2003L627.482 92.2078L627.475 92.2153L627.468 92.2229L627.462 92.2299L627.455 92.2375L627.448 92.245L627.441 92.2525L627.434 92.259L627.428 92.2661L627.421 92.2736L627.414 92.2811L627.407 92.2887L627.4 92.2962L627.394 92.3032L627.387 92.3108L627.38 92.3183L627.373 92.3258L627.366 92.3323L627.36 92.3394L627.353 92.3469L627.346 92.3545L627.339 92.362L627.332 92.3695L627.325 92.3766L627.318 92.3841L627.311 92.3916L627.304 92.3991L627.297 92.4057L627.291 92.4127L627.284 92.4202L627.277 92.4278L627.27 92.4353L627.263 92.4428L627.257 92.4499L627.25 92.4574L627.243 92.4649L627.236 92.4724L627.229 92.479L627.222 92.4865L627.216 92.4936L627.209 92.5011L627.202 92.5086L627.195 92.5161L627.188 92.5236L627.182 92.5307L627.175 92.5382L627.168 92.5457L627.161 92.5523L627.155 92.5593L627.148 92.5669L627.14 92.5744L627.133 92.5819L627.126 92.5894L627.12 92.5965L627.113 92.604L627.106 92.6115L627.099 92.6181L627.093 92.6251L627.086 92.6327L627.079 92.6402L627.072 92.6477L627.066 92.6548L627.059 92.6623L627.052 92.6698L627.045 92.6763L627.039 92.6834L627.032 92.6909L627.025 92.6984L627.019 92.7055L627.012 92.713L627.005 92.7206L626.998 92.7271L626.992 92.7342L626.985 92.7417L626.978 92.7492L626.971 92.7563L626.964 92.7638L626.957 92.7703L626.951 92.7774L626.944 92.7849L626.938 92.792L626.931 92.7995L626.924 92.806L626.918 92.8131L626.911 92.8206L626.904 92.8281L626.898 92.8352L626.891 92.8418L626.885 92.8488L626.878 92.8563L626.871 92.8634L626.864 92.8709L626.858 92.877L626.851 92.8845L626.844 92.8921L626.838 92.8991L626.831 92.9057L626.825 92.9127L626.818 92.9203L626.812 92.9273L626.806 92.9334L626.799 92.9409L626.793 92.948L626.786 92.9555L626.779 92.9616L626.772 92.9691L626.766 92.9762L626.76 92.9823L626.753 92.9898L626.747 92.9969L626.74 93.0034L626.734 93.0105L626.728 93.0175L626.721 93.0241L626.715 93.0312L626.709 93.0382L626.702 93.0448L626.695 93.0518L626.689 93.0589L626.683 93.065L626.676 93.0725L626.67 93.0796L626.664 93.0857L626.658 93.0927L626.652 93.0988L626.645 93.1063L626.638 93.1134L626.632 93.1195L626.626 93.1266L626.62 93.1327L626.614 93.1397L626.608 93.1458L626.601 93.1533L626.595 93.1594L626.588 93.1665L626.582 93.1736L626.576 93.1797L626.57 93.1867L626.564 93.1928L626.558 93.1999L626.552 93.206L626.546 93.2121L626.539 93.2191L626.533 93.2252L626.528 93.2318L626.522 93.2379L626.516 93.245L626.51 93.2511L626.503 93.2582L626.497 93.2642L626.491 93.2703L626.486 93.277L626.48 93.283L626.474 93.2901L626.468 93.2962L626.462 93.3018L626.456 93.3089L626.45 93.315L626.444 93.3211L626.439 93.3277L626.433 93.3338L626.427 93.3394L626.421 93.3465L626.415 93.3526L626.41 93.3582L626.404 93.3653L626.398 93.3709L626.392 93.377L626.387 93.3827L626.381 93.3897L626.376 93.3954L626.369 93.4015L626.364 93.4071L626.358 93.4132L626.353 93.4198L626.348 93.4255L626.341 93.4315L626.336 93.4372L626.331 93.4428L626.325 93.4489L626.319 93.4555L626.314 93.4612L626.309 93.4668L626.303 93.4729L626.298 93.4785L626.292 93.4842L626.287 93.4898L626.282 93.4955L626.277 93.5011L626.271 93.5067L626.266 93.5124L626.261 93.518L626.256 93.5236L626.25 93.5293L626.245 93.5349L626.24 93.5406L626.234 93.5462L626.229 93.5518L626.224 93.5575L626.219 93.5631L626.213 93.5688L626.208 93.5744L626.204 93.5796L626.199 93.5852L626.193 93.5909L626.188 93.5955L626.184 93.6007L626.178 93.6064L626.173 93.612L626.169 93.6172L626.164 93.6228L626.159 93.627L626.154 93.6327L626.149 93.6379L626.144 93.6435L626.14 93.6477L626.135 93.6533L626.13 93.6585L626.125 93.6632L626.121 93.6684L626.116 93.6736L626.111 93.6792L626.107 93.6834L626.102 93.6886L626.097 93.6933L626.093 93.6985L626.088 93.7037L626.084 93.7079L626.079 93.7131L626.075 93.7173L626.071 93.7225L626.066 93.7267L626.062 93.7318L626.057 93.7361L626.053 93.7412L626.049 93.7455L626.044 93.7506L626.04 93.7549L626.036 93.76L626.031 93.7643L626.027 93.7685L626.023 93.7732L626.019 93.7774L626.015 93.7826L626.01 93.7868L626.007 93.7906L626.002 93.7958L625.998 93.8L625.994 93.8037L625.99 93.8079L625.987 93.8127L625.982 93.8169L625.979 93.8206L625.974 93.8249L625.971 93.8296L625.967 93.8334L625.963 93.8376L625.959 93.8413L625.956 93.8451L625.952 93.8488L625.948 93.853L625.944 93.8578L625.941 93.8616L625.937 93.8653L625.934 93.8691L625.93 93.8728L625.927 93.8766L625.923 93.8803L625.92 93.8841L625.916 93.8879L625.913 93.8916L625.909 93.8954L625.906 93.8982L625.903 93.9015L625.9 93.9052L625.896 93.909L625.893 93.9128L625.89 93.9161L625.887 93.9198L625.884 93.9222L625.88 93.9259L625.877 93.9297L625.874 93.933L625.871 93.9358L625.868 93.9391L625.866 93.9424L625.862 93.9452L625.859 93.9485L625.857 93.9518L625.853 93.9546L625.851 93.9579L625.848 93.9612L625.845 93.9635L625.843 93.9668L625.84 93.9691L625.838 93.9725L625.835 93.9748L625.832 93.9781L625.83 93.9804L625.827 93.9837L625.824 93.9861L625.822 93.9894L625.819 93.9907L625.817 93.9936L625.815 93.9969L625.812 93.9992L625.81 94.0011L625.808 94.0044L625.805 94.0058L625.803 94.0086L625.801 94.0109L625.799 94.0138L625.797 94.0147L625.795 94.018L625.793 94.0199L625.791 94.0218L625.788 94.0241L625.787 94.027L625.785 94.0279L625.783 94.0307L625.781 94.0316L625.78 94.0345L625.778 94.0354L625.776 94.0382L625.774 94.0391L625.773 94.042L625.771 94.0429L625.769 94.0458L625.767 94.0467L625.767 94.0481L625.765 94.05L625.763 94.0519L625.76 94.0552L625.759 94.0561L625.758 94.0575L625.755 94.0608L625.753 94.0621V94.0641L625.75 94.0655L625.748 94.0673L625.746 94.0692L625.745 94.0711C625.659 94.1804 625.582 94.2993 625.517 94.4237C625.384 94.6787 625.222 95.0928 625.222 95.6517C625.222 96.2106 625.384 96.4599 625.517 96.5778C625.548 96.6064 625.578 96.6281 625.607 96.6438L627.962 94.9992C628.057 94.9335 628.153 94.8898 628.245 94.8713C628.337 94.8528 628.422 94.8598 628.495 94.8919C628.568 94.924 628.626 94.9804 628.666 95.0572C628.707 95.1339 628.727 95.2292 628.727 95.3364V99.2725C628.727 99.5245 628.846 99.7775 629.082 99.9227C629.319 100.067 629.598 100.057 629.823 99.9428L635.956 96.8078C636.563 96.4975 636.914 96.0015 637.145 95.4522C637.397 94.8524 637.49 94.2086 637.49 93.81C637.49 93.4125 637.397 92.8636 637.145 92.5208C636.914 92.207 636.563 92.0703 635.956 92.3807L632.013 94.396V93.657V94.395C631.875 94.4653 631.741 94.4851 631.629 94.4514C631.517 94.4178 631.434 94.3325 631.39 94.2076L631.389 94.2061L631.388 94.2011L631.381 94.181L631.352 94.1014C631.206 93.6883 631.055 93.2789 630.901 92.8732C630.626 92.1488 630.314 91.3774 630.115 91.0303Z" fill="#5C5C5C"/>
</g>
<g clip-path="url(#clip11_2478_3464)">
<path fill-rule="evenodd" clip-rule="evenodd" d="M527.946 167.932C527.507 167.786 526.97 167.871 526.422 168.171C525.874 168.472 525.348 168.97 524.932 169.583L524.779 169.809C524.506 170.212 524.288 170.651 524.143 171.096C523.997 171.54 523.927 171.978 523.938 172.376C523.949 172.775 524.041 173.124 524.206 173.399C524.371 173.674 524.606 173.867 524.893 173.964V174.316C524.893 175.523 525.223 176.506 525.806 177.168L525.635 177.149C525.413 177.12 525.168 177.154 524.914 177.249C524.66 177.343 524.403 177.496 524.157 177.7C523.91 177.903 523.68 178.152 523.479 178.433C523.278 178.713 523.111 179.02 522.987 179.334C522.862 179.649 522.784 179.965 522.755 180.265C522.727 180.566 522.749 180.843 522.821 181.082C522.892 181.321 523.012 181.517 523.173 181.659C523.333 181.8 523.532 181.884 523.757 181.906L524.35 181.973C523.938 182.33 523.567 182.783 523.273 183.288C522.978 183.793 522.77 184.334 522.668 184.857C522.565 185.381 522.573 185.87 522.69 186.277C522.806 186.684 523.028 186.996 523.334 187.183L524.21 187.719C524.463 187.874 524.766 187.939 525.101 187.91C525.435 187.881 525.793 187.758 526.15 187.55C526.507 187.342 526.855 187.054 527.171 186.704C527.486 186.354 527.763 185.951 527.981 185.521C528.592 185.531 529.258 185.356 529.932 185.011C530.63 184.654 531.291 184.142 531.884 183.526C532.102 183.732 532.379 183.853 532.694 183.88C533.01 183.907 533.358 183.84 533.715 183.683C534.071 183.527 534.429 183.284 534.763 182.971C535.098 182.658 535.401 182.283 535.654 181.87L536.53 180.438C536.836 179.939 537.058 179.4 537.174 178.874C537.291 178.347 537.299 177.85 537.197 177.431C537.094 177.012 536.886 176.685 536.591 176.481C536.297 176.277 535.926 176.203 535.514 176.267L536.107 175.593C536.545 175.084 536.866 174.453 537.001 173.835C537.136 173.218 537.073 172.664 536.827 172.292C536.581 171.921 536.171 171.761 535.686 171.848C535.2 171.935 534.677 172.261 534.229 172.757L534.059 172.95C534.653 171.668 534.97 170.349 534.97 169.165V168.775C535.221 168.403 535.425 168.001 535.569 167.592C535.712 167.183 535.793 166.776 535.805 166.398C535.818 166.02 535.761 165.678 535.64 165.393C535.519 165.108 535.336 164.887 535.101 164.744L534.977 164.667C534.567 164.416 534.022 164.415 533.444 164.665C532.865 164.914 532.291 165.398 531.827 166.026L531.611 166.318C531.082 166.326 530.511 166.483 529.932 166.779C529.354 167.074 528.783 167.502 528.254 168.034L527.947 167.931L527.946 167.932ZM533.903 178.829L533.026 180.261C532.808 180.627 532.686 181.03 532.689 181.383C532.692 181.735 532.818 182.009 533.041 182.146C533.264 182.282 533.566 182.27 533.881 182.112C534.196 181.954 534.5 181.663 534.726 181.301L535.602 179.87C535.827 179.501 535.954 179.093 535.954 178.735C535.954 178.377 535.827 178.099 535.602 177.961C535.376 177.823 535.07 177.837 534.752 178C534.433 178.163 534.128 178.461 533.903 178.829ZM533.21 177.903C533.206 177.838 533.2 177.774 533.193 177.711C533.174 177.55 533.208 177.358 533.291 177.171C533.373 176.983 533.499 176.811 533.645 176.684C533.685 176.649 533.723 176.611 533.759 176.57L535.469 174.629C535.54 174.549 535.603 174.457 535.654 174.359C535.704 174.262 535.742 174.161 535.764 174.062C535.786 173.962 535.793 173.867 535.784 173.781C535.774 173.695 535.749 173.62 535.71 173.56C535.67 173.501 535.617 173.457 535.553 173.433C535.49 173.409 535.417 173.404 535.338 173.419C535.26 173.434 535.178 173.468 535.097 173.52C535.017 173.572 534.938 173.64 534.867 173.721L533.158 175.661C533.141 175.68 533.125 175.7 533.109 175.721C532.982 175.883 532.828 176.005 532.675 176.067C532.522 176.128 532.379 176.125 532.271 176.057C532.11 175.956 531.932 175.883 531.74 175.839C531.648 175.817 531.572 175.762 531.521 175.678C531.469 175.594 531.443 175.485 531.446 175.359C531.448 175.234 531.478 175.096 531.533 174.96C531.589 174.824 531.667 174.694 531.762 174.581C532.34 173.892 532.818 173.093 533.15 172.262C533.482 171.431 533.656 170.596 533.656 169.837V169.085C533.656 168.97 533.68 168.845 533.726 168.719C533.771 168.594 533.838 168.471 533.919 168.36L534.055 168.177C534.181 168.007 534.285 167.819 534.36 167.626C534.435 167.433 534.48 167.239 534.491 167.057C534.502 166.876 534.48 166.711 534.425 166.573C534.37 166.436 534.284 166.33 534.173 166.262L534.048 166.185C533.862 166.071 533.614 166.071 533.351 166.184C533.088 166.298 532.827 166.518 532.616 166.803L532.08 167.529C531.982 167.661 531.866 167.77 531.745 167.844C531.623 167.919 531.501 167.955 531.392 167.949L531.206 167.941C530.811 167.921 530.375 168.028 529.933 168.254C529.491 168.48 529.055 168.819 528.659 169.243L528.475 169.441C528.366 169.559 528.243 169.647 528.122 169.697C528 169.747 527.883 169.756 527.786 169.724L527.157 169.516C526.958 169.45 526.714 169.489 526.465 169.625C526.216 169.761 525.977 169.987 525.788 170.266L525.36 169.924L525.788 170.267L525.635 170.493C525.503 170.687 525.4 170.899 525.334 171.113C525.269 171.327 525.242 171.536 525.256 171.723C525.271 171.909 525.326 172.068 525.418 172.187C525.51 172.305 525.635 172.38 525.784 172.404L525.889 172.422C525.986 172.438 526.067 172.489 526.123 172.572C526.179 172.654 526.208 172.764 526.209 172.892V173.643C526.209 175.195 526.933 176.254 528.103 176.451C528.198 176.467 528.276 176.517 528.331 176.597C528.387 176.677 528.417 176.783 528.419 176.906C528.421 177.03 528.395 177.166 528.343 177.302C528.292 177.439 528.216 177.571 528.124 177.687C527.933 177.927 527.755 178.182 527.594 178.448C527.486 178.626 527.343 178.776 527.19 178.871C527.037 178.966 526.883 179 526.756 178.968C526.74 178.963 526.724 178.96 526.707 178.958L524.997 178.766C524.853 178.755 524.686 178.822 524.531 178.953C524.376 179.084 524.246 179.269 524.167 179.468C524.089 179.667 524.069 179.864 524.111 180.018C524.154 180.171 524.256 180.269 524.396 180.289L526.105 180.482C526.141 180.486 526.18 180.485 526.219 180.479C526.366 180.456 526.492 180.5 526.575 180.603C526.658 180.707 526.692 180.863 526.673 181.044C526.665 181.115 526.66 181.185 526.655 181.254C526.738 181.284 526.817 181.322 526.892 181.369L527.768 181.905C528.04 182.072 528.247 182.338 528.371 182.684C528.495 183.029 528.534 183.445 528.484 183.899C528.935 183.917 529.43 183.793 529.932 183.535C530.453 183.269 530.944 182.882 531.38 182.418C531.331 182.015 531.37 181.56 531.494 181.088C531.618 180.616 531.823 180.14 532.095 179.696L532.097 179.693L532.973 178.261L533.001 178.215C533.068 178.108 533.138 178.005 533.21 177.904V177.903ZM526.956 183.515C526.92 183.48 526.881 183.449 526.839 183.423L525.963 182.887C525.738 182.749 525.432 182.763 525.113 182.926C524.794 183.089 524.489 183.387 524.263 183.756C524.038 184.124 523.911 184.532 523.911 184.89C523.911 185.248 524.038 185.527 524.263 185.665L525.14 186.201C525.353 186.336 525.642 186.333 525.947 186.191C526.252 186.05 526.55 185.781 526.781 185.439C527.012 185.097 527.159 184.708 527.192 184.351C527.224 183.993 527.14 183.695 526.956 183.515ZM528.618 171.906C528.444 171.995 528.277 172.158 528.153 172.36C528.03 172.561 527.961 172.784 527.961 172.98C527.961 173.176 528.03 173.328 528.153 173.403C528.277 173.479 528.444 173.471 528.618 173.382L528.627 173.378C528.801 173.289 528.968 173.125 529.092 172.924C529.215 172.723 529.284 172.499 529.284 172.304C529.284 172.108 529.215 171.956 529.092 171.88C528.968 171.805 528.801 171.812 528.627 171.902L528.618 171.906ZM529.03 173.88C529.149 173.686 529.308 173.527 529.476 173.436C529.644 173.344 529.807 173.328 529.932 173.389C530.06 173.195 530.227 173.041 530.399 172.96C530.571 172.88 530.733 172.88 530.851 172.96C530.969 173.04 531.034 173.193 531.031 173.388C531.028 173.583 530.957 173.803 530.835 174.001L530.397 174.717C530.274 174.918 530.107 175.081 529.932 175.17C529.758 175.259 529.591 175.266 529.468 175.191L529.03 174.923C528.969 174.886 528.92 174.829 528.887 174.757C528.854 174.684 528.837 174.597 528.837 174.5C528.837 174.403 528.854 174.298 528.887 174.191C528.92 174.085 528.969 173.979 529.03 173.879V173.88ZM530.59 171.636C530.59 171.441 530.659 171.218 530.782 171.016C530.905 170.815 531.073 170.652 531.247 170.562L531.256 170.558C531.43 170.469 531.597 170.461 531.72 170.537C531.843 170.612 531.913 170.764 531.913 170.96C531.913 171.156 531.843 171.379 531.72 171.58C531.597 171.782 531.43 171.945 531.256 172.034L531.247 172.039C531.073 172.128 530.905 172.135 530.782 172.06C530.659 171.984 530.59 171.832 530.59 171.636Z" fill="#5C5C5C"/>
</g>
<g clip-path="url(#clip12_2478_3464)">
<path fill-rule="evenodd" clip-rule="evenodd" d="M564.105 152.017C565.331 150.168 566.538 148.959 567.72 148.355C569.051 147.674 570.193 147.841 571.141 148.421C573.221 149.693 573.075 153.686 570.265 158.277L566.432 164.541L565.09 166.734L564.706 167.361L564.605 167.527L564.579 167.57L564.572 167.581L564.571 167.583L564.105 167.3L563.641 168.059L563.64 168.059L563.638 168.058L563.631 168.054L563.605 168.038L563.503 167.975L563.12 167.741L561.779 166.919L557.945 164.573C555.135 162.855 554.99 159.011 557.069 155.614C558.016 154.065 559.16 152.73 560.491 152.049C561.673 151.445 562.88 151.421 564.105 152.017ZM564.105 167.3L563.641 168.059C563.764 168.134 563.931 168.126 564.105 168.037C564.279 167.948 564.447 167.785 564.57 167.584L564.105 167.3ZM564.105 166.257L564.161 166.165L565.502 163.973L569.336 157.708C571.784 153.708 571.638 150.813 570.213 149.939C569.407 149.447 568.579 149.391 567.72 149.831C566.86 150.27 565.812 151.285 564.57 153.315C564.447 153.517 564.279 153.68 564.105 153.769C563.931 153.858 563.764 153.865 563.641 153.79C562.397 153.031 561.35 153.087 560.49 153.526C559.63 153.965 558.802 154.868 557.997 156.183C556.572 158.513 556.426 161.557 558.873 163.056L562.707 165.402L564.048 166.222L564.104 166.256L564.105 166.257Z" fill="#5C5C5C"/>
</g>
<g clip-path="url(#clip13_2478_3464)">
<path fill-rule="evenodd" clip-rule="evenodd" d="M590.612 137.515C590.612 137.32 590.682 137.097 590.805 136.895C590.928 136.694 591.095 136.531 591.269 136.441L603.537 130.172C603.711 130.083 603.878 130.075 604.001 130.151L605.753 131.223C605.877 131.298 605.946 131.45 605.946 131.646V145.423C605.946 145.618 605.877 145.842 605.754 146.043C605.63 146.244 605.463 146.408 605.289 146.497L591.269 153.662C591.095 153.751 590.928 153.759 590.805 153.684C590.682 153.608 590.612 153.456 590.612 153.26V137.515ZM594.555 150.507L602.003 146.7V139.32L594.555 143.126V150.507ZM603.318 146.028V137.91C603.318 137.714 603.248 137.562 603.125 137.486C603.002 137.411 602.835 137.419 602.66 137.508L593.898 141.986C593.724 142.075 593.557 142.238 593.433 142.44C593.31 142.641 593.241 142.864 593.241 143.06V151.178L591.927 151.85V137.582L594.117 136.462V138.676C594.117 139.083 594.412 139.264 594.774 139.078L601.784 135.495C601.958 135.406 602.126 135.243 602.249 135.042C602.372 134.84 602.441 134.617 602.441 134.422V132.207L603.265 131.786L604.632 132.623V145.356L603.318 146.028ZM601.127 134.355V132.879L595.432 135.79V137.266L601.127 134.355ZM595.87 144.669C595.87 144.473 595.939 144.25 596.062 144.048C596.185 143.847 596.353 143.684 596.527 143.595L600.032 141.803C600.206 141.714 600.373 141.707 600.496 141.782C600.62 141.857 600.689 142.01 600.689 142.206C600.689 142.401 600.62 142.624 600.496 142.826C600.373 143.027 600.206 143.19 600.032 143.279L596.527 145.071C596.353 145.16 596.185 145.168 596.062 145.092C595.939 145.017 595.87 144.864 595.87 144.669ZM596.527 146.547C596.353 146.636 596.185 146.799 596.062 147.001C595.939 147.202 595.87 147.425 595.87 147.621C595.87 147.817 595.939 147.969 596.062 148.044C596.185 148.12 596.353 148.112 596.527 148.023L599.155 146.679C599.33 146.59 599.497 146.427 599.62 146.226C599.743 146.024 599.813 145.801 599.813 145.605C599.813 145.41 599.743 145.257 599.62 145.182C599.497 145.107 599.33 145.114 599.155 145.203L596.527 146.547Z" fill="#5C5C5C"/>
</g>
<g clip-path="url(#clip14_2478_3464)">
<path fill-rule="evenodd" clip-rule="evenodd" d="M632.741 114.99C632.756 115.078 632.755 115.177 632.736 115.281C632.718 115.385 632.683 115.492 632.633 115.597C632.584 115.702 632.521 115.802 632.448 115.891C632.375 115.981 632.294 116.058 632.209 116.118C630.742 117.163 629.414 118.708 628.457 120.481C627.5 122.254 626.976 124.143 626.976 125.817V125.925L626.948 126.043L625.887 130.556L627.195 129.887C627.369 129.798 627.536 129.791 627.659 129.866C627.783 129.942 627.852 130.094 627.852 130.29V132.258C627.852 132.937 628.343 133.237 628.947 132.928L631.576 131.584C631.75 131.495 631.917 131.488 632.041 131.563C632.164 131.638 632.233 131.791 632.233 131.987V133.463C632.233 133.658 632.164 133.881 632.041 134.083C631.917 134.284 631.75 134.447 631.576 134.536C631.402 134.626 631.234 134.633 631.111 134.558C630.988 134.482 630.919 134.33 630.919 134.134V133.396L628.947 134.404C628.308 134.731 627.695 134.759 627.243 134.482C626.791 134.206 626.538 133.647 626.538 132.929V131.699L625.004 132.483C624.902 132.535 624.801 132.56 624.709 132.555C624.618 132.55 624.538 132.516 624.477 132.455C624.416 132.394 624.375 132.308 624.357 132.203C624.339 132.099 624.346 131.979 624.375 131.854L625.662 126.377C625.685 124.364 626.329 122.105 627.482 119.989C628.635 117.873 630.225 116.032 631.98 114.782C632.151 114.66 632.328 114.614 632.471 114.653C632.613 114.692 632.711 114.813 632.741 114.99ZM640.043 116.752C640.127 116.689 640.214 116.643 640.299 116.617C640.384 116.591 640.465 116.585 640.538 116.601C640.61 116.617 640.673 116.653 640.722 116.707C640.771 116.762 640.805 116.834 640.823 116.92C640.938 117.459 640.995 118.04 640.995 118.652C640.998 120.65 640.378 122.905 639.243 125.026V129.88C639.243 130.076 639.174 130.299 639.05 130.5C638.927 130.701 638.76 130.865 638.586 130.954C638.411 131.043 638.244 131.05 638.121 130.975C637.998 130.9 637.928 130.747 637.928 130.552V125.147L638.093 124.853C639.118 123.028 639.683 121.06 639.681 119.323C639.681 118.816 639.634 118.334 639.539 117.886C639.503 117.714 639.535 117.498 639.63 117.285C639.724 117.073 639.873 116.881 640.043 116.753V116.752ZM635.3 113.444C634.678 113.762 634.077 114.316 633.602 115.009C633.128 115.702 632.811 116.489 632.707 117.23L632.671 117.248C632.206 117.486 631.761 117.921 631.432 118.458C631.103 118.995 630.919 119.59 630.919 120.112C630.919 120.634 631.103 121.04 631.432 121.241C631.761 121.442 632.206 121.422 632.671 121.184L637.49 118.721C638.064 118.428 638.614 117.894 639.024 117.234C639.433 116.574 639.669 115.84 639.68 115.191C639.692 114.541 639.478 114.027 639.085 113.759C638.692 113.491 638.151 113.491 637.578 113.758C637.347 113.426 637.015 113.223 636.615 113.167C636.216 113.112 635.762 113.208 635.3 113.444ZM633.985 117.068C633.985 116.72 634.094 116.326 634.294 115.958C634.494 115.589 634.772 115.268 635.078 115.053C635.383 114.838 635.698 114.741 635.966 114.781C636.233 114.821 636.437 114.995 636.54 115.271C636.633 115.518 636.881 115.588 637.159 115.446L637.49 115.277C637.723 115.158 637.946 115.148 638.11 115.248C638.274 115.349 638.367 115.552 638.367 115.813C638.367 116.074 638.274 116.371 638.11 116.64C637.946 116.909 637.723 117.126 637.49 117.245L632.671 119.708C632.555 119.767 632.443 119.773 632.361 119.722C632.279 119.672 632.233 119.57 632.233 119.44C632.233 119.309 632.279 119.161 632.361 119.026C632.443 118.892 632.555 118.783 632.671 118.724L633.328 118.388C633.503 118.299 633.67 118.136 633.793 117.934C633.916 117.733 633.985 117.51 633.985 117.314V117.068Z" fill="#5C5C5C"/>
</g>
<g clip-path="url(#clip15_2478_3464)">
<path fill-rule="evenodd" clip-rule="evenodd" d="M526.676 196.142C526.576 196.148 526.468 196.186 526.361 196.253C526.253 196.32 526.151 196.414 526.061 196.528C525.972 196.641 525.898 196.77 525.848 196.902C525.797 197.035 525.771 197.168 525.771 197.289V199.41C524.972 200.503 524.315 201.71 523.846 202.947L522.047 203.866C521.873 203.955 521.705 204.119 521.582 204.32C521.459 204.521 521.39 204.745 521.39 204.94V210.352C521.39 210.76 521.684 210.94 522.047 210.755L524.097 209.707C524.712 210.5 525.593 210.981 526.647 211.12V214.062C526.647 214.257 526.716 214.41 526.839 214.485C526.963 214.561 527.13 214.553 527.304 214.464C527.478 214.375 527.646 214.212 527.769 214.01C527.892 213.809 527.961 213.586 527.961 213.39V211.125C528.876 211.019 529.839 210.71 530.809 210.212C531.808 209.702 532.772 209.016 533.657 208.211V210.479C533.657 210.675 533.726 210.827 533.849 210.902C533.973 210.978 534.14 210.97 534.314 210.881C534.488 210.792 534.655 210.629 534.779 210.427C534.902 210.226 534.971 210.003 534.971 209.807V206.863C537.063 204.451 538.476 201.394 538.476 198.667C538.476 194.366 534.958 192.839 530.809 194.96C530.229 195.256 529.662 195.61 529.118 196.011L526.676 196.141V196.142ZM527.085 199.112V197.714L528.809 197.621C528.933 197.614 529.07 197.557 529.201 197.456C529.729 197.054 530.268 196.711 530.809 196.436C534.402 194.599 537.162 196.033 537.162 199.339C537.162 202.645 534.402 206.9 530.809 208.736C528.229 210.055 526.051 209.684 525.051 208.129C524.995 208.041 524.911 207.986 524.81 207.97C524.708 207.954 524.591 207.978 524.473 208.038L522.704 208.943V205.006L524.259 204.212C524.387 204.146 524.512 204.04 524.62 203.907C524.727 203.774 524.811 203.619 524.862 203.461C525.258 202.24 525.931 200.994 526.806 199.86C526.981 199.631 527.085 199.353 527.085 199.112ZM528.474 201.488C530.042 199.805 531.576 199.022 533.144 199.101C533.221 199.105 533.306 199.089 533.392 199.052C533.479 199.015 533.566 198.959 533.648 198.886C533.73 198.814 533.807 198.726 533.872 198.629C533.938 198.532 533.992 198.427 534.03 198.32C534.069 198.213 534.092 198.106 534.098 198.006C534.104 197.906 534.093 197.814 534.065 197.736C534.037 197.658 533.993 197.595 533.936 197.551C533.879 197.507 533.809 197.483 533.731 197.48C531.795 197.382 529.823 198.39 527.887 200.467C527.732 200.634 527.615 200.848 527.561 201.06C527.507 201.273 527.52 201.468 527.597 201.603C527.674 201.737 527.81 201.801 527.974 201.779C528.139 201.758 528.318 201.653 528.474 201.488Z" fill="#5C5C5C"/>
</g>
<g clip-path="url(#clip16_2478_3464)">
<path fill-rule="evenodd" clip-rule="evenodd" d="M571.5 174.302C571.585 174.328 571.653 174.382 571.701 174.462C571.748 174.542 571.773 174.645 571.773 174.761V190.506C571.773 190.702 571.704 190.925 571.58 191.126C571.457 191.328 571.29 191.491 571.116 191.58C570.941 191.669 570.774 191.677 570.651 191.601C570.528 191.526 570.459 191.373 570.459 191.178V185.027L570.239 185.139C569.6 185.466 568.988 185.494 568.536 185.218C568.084 184.941 567.83 184.383 567.83 183.665V180.598C567.83 179.617 568.105 178.52 568.616 177.463C569.126 176.406 569.847 175.443 570.676 174.709L570.908 174.503C571.007 174.416 571.112 174.352 571.215 174.317C571.318 174.282 571.416 174.277 571.5 174.302ZM570.459 183.551V176.559C570.056 177.054 569.724 177.622 569.494 178.21C569.265 178.799 569.144 179.389 569.144 179.926V182.993C569.144 183.672 569.635 183.972 570.239 183.663L570.459 183.551ZM557.753 181.927C557.753 181.731 557.684 181.579 557.561 181.503C557.438 181.428 557.27 181.436 557.096 181.525C556.922 181.614 556.755 181.777 556.631 181.978C556.508 182.18 556.439 182.403 556.439 182.599V187.519C556.439 188.758 557.18 189.423 558.191 189.227V197.448C558.191 197.643 558.261 197.796 558.384 197.871C558.507 197.947 558.674 197.939 558.849 197.85C559.023 197.761 559.19 197.597 559.313 197.396C559.437 197.195 559.506 196.972 559.506 196.776V188.555C560.01 188.136 560.454 187.568 560.771 186.937C561.087 186.305 561.258 185.645 561.258 185.056V180.136C561.258 179.94 561.189 179.787 561.066 179.712C560.942 179.637 560.775 179.644 560.601 179.733C560.427 179.822 560.26 179.986 560.136 180.187C560.013 180.388 559.944 180.612 559.944 180.807V185.727C559.944 186.054 559.828 186.426 559.623 186.761C559.418 187.097 559.139 187.369 558.849 187.517C558.558 187.666 558.28 187.679 558.074 187.553C557.869 187.427 557.753 187.173 557.753 186.847V181.927ZM559.506 181.031C559.506 180.835 559.437 180.683 559.313 180.608C559.19 180.532 559.023 180.54 558.849 180.629C558.674 180.718 558.507 180.881 558.384 181.083C558.261 181.284 558.191 181.507 558.191 181.703V185.147C558.191 185.343 558.261 185.495 558.384 185.571C558.507 185.646 558.674 185.638 558.849 185.549C559.023 185.46 559.19 185.297 559.313 185.096C559.437 184.894 559.506 184.671 559.506 184.475V181.031ZM563.887 186.336C563.613 186.404 563.354 186.407 563.123 186.344C562.761 186.237 562.482 185.976 562.32 185.592C562.01 184.899 562.024 183.881 562.141 183.02C562.255 181.976 562.466 180.916 562.805 180.012C563.138 179.126 563.694 178.152 564.544 177.718C565.383 177.289 565.942 177.66 566.282 178.208C566.623 178.757 566.833 179.606 566.948 180.565C567.064 181.307 567.078 182.309 566.768 183.319C566.606 183.868 566.327 184.414 565.965 184.892C565.739 185.185 565.483 185.443 565.201 185.664V193.865C565.201 194.061 565.132 194.284 565.009 194.485C564.885 194.686 564.718 194.85 564.544 194.939C564.37 195.028 564.203 195.036 564.079 194.96C563.956 194.885 563.887 194.732 563.887 194.537V186.336ZM563.443 182.557C563.549 181.593 563.731 180.735 563.969 180.1C564.216 179.443 564.427 179.254 564.544 179.194C564.673 179.128 564.881 179.104 565.121 179.49C565.357 179.871 565.539 180.539 565.645 181.429L565.646 181.443L565.648 181.457C565.748 182.079 565.732 182.792 565.552 183.382C565.465 183.662 565.35 183.888 565.21 184.069C565.074 184.247 564.868 184.441 564.544 184.606C564.22 184.772 564.014 184.789 563.878 184.75C563.722 184.7 563.603 184.582 563.536 184.412C563.356 184.006 563.34 183.31 563.44 182.586L563.442 182.572L563.443 182.557Z" fill="#5C5C5C"/>
</g>
<g clip-path="url(#clip17_2478_3464)">
<path fill-rule="evenodd" clip-rule="evenodd" d="M605.07 157.762C605.07 157.65 605.048 157.55 605.005 157.471C604.962 157.391 604.899 157.334 604.821 157.303C604.743 157.272 604.652 157.268 604.555 157.292C604.457 157.315 604.356 157.366 604.258 157.44L603.937 157.682C600.208 160.486 596.351 162.457 592.622 163.466L592.3 163.551C592.202 163.578 592.101 163.631 592.004 163.707C591.906 163.783 591.815 163.88 591.738 163.99C591.66 164.101 591.597 164.222 591.554 164.346C591.511 164.469 591.489 164.592 591.489 164.704V173.541C591.489 175.563 592.204 177.138 593.478 177.917C594.751 178.696 596.478 178.617 598.28 177.696C600.081 176.776 601.808 175.089 603.081 173.008C604.355 170.927 605.07 168.622 605.07 166.599V157.762ZM592.803 164.921C596.419 163.874 600.14 161.972 603.756 159.323V167.271C603.756 168.902 603.179 170.761 602.152 172.44C601.125 174.118 599.732 175.478 598.28 176.22C596.827 176.963 595.434 177.027 594.407 176.398C593.38 175.77 592.803 174.5 592.803 172.869V164.921ZM596.308 167.633C596.308 167.046 596.516 166.377 596.885 165.773C597.255 165.169 597.757 164.679 598.28 164.412C598.802 164.144 599.304 164.121 599.674 164.348C600.043 164.574 600.251 165.031 600.251 165.618V166.356L600.47 166.244C601.075 165.935 601.565 166.235 601.565 166.914V170.359C601.565 170.554 601.496 170.777 601.373 170.979C601.25 171.18 601.082 171.343 600.908 171.433L595.651 174.12C595.477 174.209 595.309 174.216 595.186 174.141C595.063 174.066 594.994 173.913 594.994 173.717V170.273C594.994 169.594 595.484 168.792 596.089 168.483L596.308 168.371V167.633ZM598.937 166.29V167.028L597.622 167.7V166.962C597.622 166.766 597.692 166.543 597.815 166.341C597.938 166.14 598.105 165.977 598.28 165.888C598.454 165.799 598.621 165.791 598.744 165.866C598.867 165.942 598.937 166.094 598.937 166.29ZM596.308 169.848V172.308L600.251 170.292V167.832L596.308 169.848Z" fill="#5C5C5C"/>
</g>
<g clip-path="url(#clip18_2478_3464)">
<path fill-rule="evenodd" clip-rule="evenodd" d="M629.194 143.744C629.095 143.75 628.986 143.788 628.879 143.855C628.772 143.922 628.669 144.016 628.58 144.13C628.49 144.243 628.417 144.372 628.366 144.504C628.316 144.637 628.289 144.77 628.289 144.891V147.012C627.491 148.105 626.834 149.312 626.364 150.549L624.565 151.468C624.391 151.557 624.224 151.721 624.101 151.922C623.977 152.123 623.908 152.347 623.908 152.542V157.955C623.908 158.362 624.203 158.542 624.565 158.357L626.616 157.309C627.231 158.102 628.111 158.583 629.166 158.722V161.664C629.166 161.859 629.235 162.012 629.358 162.087C629.481 162.163 629.648 162.155 629.823 162.066C629.997 161.977 630.164 161.814 630.287 161.612C630.411 161.411 630.48 161.188 630.48 160.992V158.727C631.395 158.621 632.358 158.312 633.328 157.814C634.327 157.304 635.29 156.618 636.175 155.813V158.081C636.175 158.277 636.245 158.429 636.368 158.504C636.491 158.58 636.658 158.572 636.833 158.483C637.007 158.394 637.174 158.231 637.297 158.029C637.42 157.828 637.49 157.605 637.49 157.409V154.465C639.581 152.053 640.995 148.996 640.995 146.269C640.995 141.968 637.477 140.441 633.328 142.562C632.748 142.858 632.181 143.212 631.636 143.613L629.194 143.743V143.744ZM629.604 146.714V145.316L631.327 145.223C631.452 145.216 631.589 145.159 631.72 145.058C632.248 144.656 632.787 144.314 633.328 144.038C636.921 142.201 639.68 143.635 639.68 146.941C639.68 150.248 636.921 154.502 633.328 156.338C630.748 157.657 628.57 157.286 627.57 155.731C627.513 155.643 627.43 155.588 627.328 155.572C627.226 155.556 627.11 155.58 626.992 155.641L625.223 156.545V152.609L626.778 151.814C626.906 151.748 627.031 151.642 627.138 151.509C627.245 151.376 627.329 151.221 627.381 151.063C627.777 149.842 628.45 148.596 629.324 147.462C629.499 147.233 629.604 146.955 629.604 146.714ZM630.992 149.09C632.561 147.407 634.094 146.624 635.663 146.703C635.74 146.707 635.824 146.691 635.911 146.654C635.997 146.617 636.084 146.561 636.167 146.488C636.249 146.416 636.325 146.328 636.391 146.231C636.456 146.134 636.51 146.029 636.549 145.922C636.588 145.815 636.611 145.708 636.616 145.608C636.622 145.508 636.611 145.416 636.583 145.338C636.556 145.26 636.512 145.197 636.455 145.153C636.397 145.109 636.328 145.085 636.25 145.082C634.313 144.984 632.342 145.992 630.405 148.069C630.251 148.237 630.134 148.45 630.079 148.662C630.025 148.875 630.038 149.07 630.116 149.205C630.193 149.339 630.329 149.403 630.493 149.381C630.657 149.36 630.837 149.255 630.992 149.09Z" fill="#5C5C5C"/>
</g>
<g clip-path="url(#clip19_2478_3464)">
<path fill-rule="evenodd" clip-rule="evenodd" d="M524.895 225.353C524.895 225.157 524.964 224.934 525.087 224.733C525.21 224.531 525.377 224.368 525.552 224.279L534.314 219.8C534.488 219.711 534.655 219.704 534.779 219.779C534.902 219.855 534.971 220.007 534.971 220.203V224.385L536.943 223.377C537.789 222.945 538.476 223.365 538.476 224.315V233.172C538.476 233.368 538.407 233.591 538.284 233.792C538.16 233.994 537.993 234.157 537.819 234.246L534.971 235.701V237.915C534.971 238.111 534.902 238.334 534.779 238.536C534.655 238.737 534.488 238.9 534.314 238.989L525.552 243.468C525.377 243.557 525.21 243.565 525.087 243.489C524.964 243.414 524.895 243.261 524.895 243.066V240.852L522.047 242.307C521.873 242.396 521.705 242.404 521.582 242.328C521.459 242.253 521.39 242.101 521.39 241.905V233.049C521.39 232.098 522.077 230.975 522.923 230.543L524.895 229.535V225.353ZM524.895 239.375V234.209C524.895 234.014 524.964 233.79 525.087 233.589C525.21 233.388 525.377 233.224 525.552 233.135L534.314 228.657C534.488 228.568 534.655 228.56 534.779 228.636C534.902 228.711 534.971 228.863 534.971 229.059V234.225L537.162 233.106V224.987C537.162 224.922 537.139 224.871 537.098 224.846C537.056 224.821 537.001 224.824 536.943 224.853L522.923 232.019C522.865 232.048 522.809 232.103 522.768 232.17C522.727 232.237 522.704 232.312 522.704 232.377V240.495L524.895 239.375ZM533.657 221.612V225.057L526.209 228.863V225.419L533.657 221.612ZM526.209 241.656V234.276L533.657 230.469V237.849L526.209 241.656ZM527.523 235.818C527.523 235.622 527.592 235.399 527.716 235.198C527.839 234.996 528.006 234.833 528.18 234.744L531.685 232.953C531.86 232.863 532.027 232.856 532.15 232.931C532.273 233.007 532.342 233.159 532.342 233.355C532.342 233.55 532.273 233.774 532.15 233.975C532.027 234.176 531.86 234.34 531.685 234.429L528.18 236.22C528.006 236.309 527.839 236.317 527.716 236.241C527.592 236.166 527.523 236.014 527.523 235.818ZM528.18 237.696C528.006 237.785 527.839 237.948 527.716 238.15C527.592 238.351 527.523 238.574 527.523 238.77C527.523 238.966 527.592 239.118 527.716 239.193C527.839 239.269 528.006 239.261 528.18 239.172L530.371 238.052C530.545 237.963 530.712 237.8 530.836 237.599C530.959 237.397 531.028 237.174 531.028 236.979C531.028 236.783 530.959 236.63 530.836 236.555C530.712 236.48 530.545 236.487 530.371 236.576L528.18 237.696Z" fill="#5C5C5C"/>
</g>
<g clip-path="url(#clip20_2478_3464)">
<path fill-rule="evenodd" clip-rule="evenodd" d="M562.245 205.854C562.305 205.723 562.386 205.598 562.481 205.492C562.577 205.386 562.683 205.301 562.791 205.246L563.865 204.698C564.247 204.502 564.623 204.412 564.963 204.434C565.303 204.455 565.596 204.588 565.82 204.822C566.043 205.056 566.189 205.384 566.247 205.778C566.305 206.173 566.272 206.623 566.151 207.091L565.456 209.789L570.135 207.397C570.506 207.207 570.871 207.116 571.204 207.131C571.536 207.146 571.826 207.265 572.051 207.481C572.276 207.697 572.43 208.003 572.501 208.375C572.572 208.747 572.558 209.176 572.46 209.627L570.787 217.371C570.648 218.014 570.345 218.675 569.925 219.25C569.505 219.825 568.991 220.282 568.462 220.552L563.668 223.003C563.624 223.025 563.581 223.042 563.539 223.054L559.222 224.291L556.22 225.826C556.045 225.915 555.878 225.922 555.755 225.847C555.632 225.772 555.562 225.619 555.562 225.424V215.583C555.562 215.387 555.632 215.164 555.755 214.963C555.878 214.762 556.045 214.598 556.22 214.509L558.935 213.121L562.245 205.854ZM563.143 206.543L559.833 213.81C559.773 213.942 559.692 214.066 559.597 214.172C559.501 214.278 559.395 214.363 559.286 214.418L556.877 215.649V224.014L559.286 222.782C559.33 222.76 559.373 222.743 559.415 222.731L563.732 221.494L568.462 219.076C568.703 218.954 568.936 218.745 569.127 218.484C569.318 218.223 569.456 217.923 569.519 217.63L571.193 209.886C571.237 209.681 571.243 209.486 571.211 209.317C571.178 209.148 571.108 209.009 571.006 208.911C570.903 208.813 570.771 208.758 570.62 208.752C570.469 208.745 570.303 208.787 570.134 208.874L564.544 211.731C564.44 211.784 564.337 211.808 564.245 211.802C564.152 211.797 564.072 211.76 564.011 211.696C563.95 211.633 563.91 211.543 563.895 211.436C563.879 211.328 563.888 211.206 563.921 211.078L564.904 207.261C564.959 207.048 564.974 206.844 564.947 206.665C564.921 206.485 564.855 206.336 564.753 206.23C564.652 206.124 564.518 206.063 564.364 206.054C564.209 206.044 564.038 206.085 563.865 206.174L563.143 206.543Z" fill="#5C5C5C"/>
</g>
<g clip-path="url(#clip21_2478_3464)">
<path fill-rule="evenodd" clip-rule="evenodd" d="M595.642 190.49C593.997 192.057 592.645 194.125 591.839 196.305L595.098 194.639C595.224 193.275 595.406 191.89 595.642 190.49ZM597.07 189.316C596.784 190.886 596.567 192.437 596.42 193.963L600.14 192.062C599.992 190.687 599.775 189.358 599.489 188.08C598.688 188.337 597.871 188.755 597.07 189.316ZM594.985 196.173L591.322 198.045C591.141 198.858 591.05 199.65 591.051 200.398C591.051 201.165 591.145 201.86 591.322 202.473L594.985 200.601C594.899 199.17 594.899 197.691 594.985 196.173ZM596.302 199.928C596.212 198.499 596.212 197.02 596.302 195.5L600.257 193.478C600.347 194.918 600.347 196.381 600.257 197.906L596.303 199.927L596.302 199.928ZM595.097 202.02L591.839 203.685C592.645 205.04 593.997 205.726 595.642 205.611C595.405 204.453 595.223 203.254 595.097 202.02ZM597.07 205.326C596.784 204.048 596.567 202.719 596.419 201.344L600.14 199.442C599.992 200.968 599.775 202.52 599.489 204.09C598.688 204.651 597.871 205.068 597.07 205.326ZM601.575 197.233C601.661 195.711 601.661 194.247 601.575 192.805L605.236 190.933C605.414 191.546 605.508 192.241 605.508 193.008C605.509 193.756 605.418 194.548 605.237 195.361L601.575 197.233ZM600.918 187.794C602.563 187.68 603.915 188.365 604.721 189.721L601.461 191.387C601.335 190.152 601.154 188.953 600.918 187.794ZM601.461 198.767L604.721 197.101C603.915 199.28 602.563 201.347 600.918 202.915C601.16 201.469 601.341 200.093 601.461 198.767ZM589.736 201.069C589.736 195.77 593.561 189.52 598.28 187.109C602.998 184.697 606.823 187.037 606.823 192.336C606.823 197.636 602.998 203.886 598.28 206.297C593.561 208.709 589.736 206.369 589.736 201.069Z" fill="#5C5C5C"/>
</g>
<g clip-path="url(#clip22_2478_3464)">
<path fill-rule="evenodd" clip-rule="evenodd" d="M627.413 172.956C627.413 172.76 627.482 172.537 627.606 172.336C627.729 172.135 627.896 171.971 628.07 171.882L636.833 167.404C637.007 167.315 637.174 167.307 637.297 167.382C637.42 167.458 637.49 167.61 637.49 167.806V171.988L639.461 170.98C640.308 170.548 640.995 170.968 640.995 171.919V180.775C640.995 180.971 640.925 181.194 640.802 181.395C640.679 181.597 640.512 181.76 640.337 181.849L637.49 183.305V185.519C637.49 185.714 637.42 185.937 637.297 186.139C637.174 186.34 637.007 186.503 636.833 186.593L628.07 191.071C627.896 191.16 627.729 191.168 627.606 191.092C627.482 191.017 627.413 190.865 627.413 190.669V188.455L624.565 189.91C624.391 189.999 624.224 190.007 624.101 189.932C623.977 189.856 623.908 189.704 623.908 189.508V180.652C623.908 179.701 624.595 178.579 625.442 178.146L627.413 177.138V172.956ZM627.413 186.979V181.813C627.413 181.617 627.482 181.394 627.606 181.192C627.729 180.991 627.896 180.828 628.07 180.739L636.833 176.26C637.007 176.171 637.174 176.163 637.297 176.239C637.42 176.314 637.49 176.467 637.49 176.662V181.828L639.68 180.709V172.591C639.68 172.525 639.657 172.475 639.616 172.449C639.575 172.424 639.519 172.427 639.461 172.456L625.442 179.622C625.383 179.652 625.328 179.706 625.287 179.773C625.246 179.84 625.223 179.915 625.223 179.98V188.098L627.413 186.979ZM636.175 169.216V172.66L628.727 176.467V173.022L636.175 169.216ZM628.727 189.259V181.879L636.175 178.072V185.452L628.727 189.259ZM630.042 183.421C630.042 183.225 630.111 183.002 630.234 182.801C630.357 182.599 630.525 182.436 630.699 182.347L634.204 180.556C634.378 180.467 634.545 180.459 634.669 180.534C634.792 180.61 634.861 180.762 634.861 180.958C634.861 181.154 634.792 181.377 634.669 181.578C634.545 181.78 634.378 181.943 634.204 182.032L630.699 183.823C630.525 183.912 630.357 183.92 630.234 183.845C630.111 183.769 630.042 183.617 630.042 183.421ZM630.699 185.299C630.525 185.388 630.357 185.552 630.234 185.753C630.111 185.954 630.042 186.177 630.042 186.373C630.042 186.569 630.111 186.721 630.234 186.797C630.357 186.872 630.525 186.864 630.699 186.775L632.889 185.656C633.064 185.567 633.231 185.403 633.354 185.202C633.477 185.001 633.547 184.778 633.547 184.582C633.547 184.386 633.477 184.234 633.354 184.158C633.231 184.083 633.064 184.091 632.889 184.18L630.699 185.299Z" fill="#5C5C5C"/>
</g>
</g>
<path d="M554.152 147.122C554.152 135.709 545.94 130.717 535.809 135.972L459.919 175.339C454.13 178.342 449.437 186.063 449.437 192.585V468.441C449.437 479.854 457.65 484.845 467.781 479.59L543.67 440.224C549.459 437.221 554.152 429.5 554.152 422.978V147.122Z" fill="#DCDCDC"/>
<path d="M554.152 145.479C554.152 142.218 551.799 140.778 548.895 142.262L472.664 181.224C466.856 184.192 462.149 191.885 462.149 198.407V475.906C462.149 479.167 464.503 480.607 467.406 479.123L548.895 437.474C551.799 435.99 554.152 432.143 554.152 428.882V145.479Z" fill="white"/>
<g clip-path="url(#clip23_2478_3464)">
<rect width="88.5636" height="271.595" transform="matrix(0.890435 -0.455111 0 1 470.547 187.428)" fill="white"/>
<rect width="32.4733" height="32.4733" rx="16.2367" transform="matrix(0.890435 -0.455111 0 1 473.176 200.845)" fill="#F45F63"/>
<rect width="32.4733" height="32.4733" rx="16.2367" transform="matrix(0.890435 -0.455111 0 1 473.176 248.079)" fill="#1E98F5"/>
<rect width="32.4733" height="32.4733" rx="16.2367" transform="matrix(0.890435 -0.455111 0 1 473.176 295.314)" fill="#E5AA20"/>
<rect width="32.4733" height="32.4733" rx="16.2367" transform="matrix(0.890435 -0.455111 0 1 473.176 342.548)" fill="#1E2B3C"/>
<rect width="32.4733" height="32.4733" rx="16.2367" transform="matrix(0.890435 -0.455111 0 1 473.176 389.781)" fill="#F45F63"/>
<rect width="32.4733" height="32.4733" rx="16.2367" transform="matrix(0.890435 -0.455111 0 1 515.235 179.348)" fill="#F89FA1"/>
<rect width="32.4733" height="32.4733" rx="16.2367" transform="matrix(0.890435 -0.455111 0 1 515.235 226.582)" fill="#78C1F9"/>
<rect width="32.4733" height="32.4733" rx="16.2367" transform="matrix(0.890435 -0.455111 0 1 515.235 273.817)" fill="#EFCC79"/>
<rect width="32.4733" height="32.4733" rx="16.2367" transform="matrix(0.890435 -0.455111 0 1 515.235 321.051)" fill="#324256"/>
<rect width="32.4733" height="32.4733" rx="16.2367" transform="matrix(0.890435 -0.455111 0 1 515.235 368.285)" fill="#E5AA20"/>
</g>
<path d="M748.047 217.973C748.047 206.56 739.809 201.519 729.646 206.713L484.006 332.262C478.199 335.23 473.491 342.923 473.491 349.445V625.348C473.491 636.761 481.729 641.803 491.892 636.608L737.532 511.059C743.339 508.091 748.047 500.398 748.047 493.876V217.973Z" fill="#677281"/>
<path d="M748.047 216.331C748.047 213.071 745.693 211.63 742.79 213.115L495.694 339.427C489.887 342.396 485.18 350.089 485.18 356.611V634.155C485.18 637.416 487.534 638.856 490.437 637.372L742.79 508.372C745.693 506.888 748.047 503.041 748.047 499.78V216.331Z" fill="#283547"/>
<rect width="291.754" height="8.8564" transform="matrix(0.890435 -0.455111 0 1 467.595 333.041)" fill="#78C1F9"/>
<g filter="url(#filter0_d_2478_3464)">
<rect x="721.479" y="188.452" width="29.5212" height="29.5212" rx="14.7606" fill="white"/>
<rect x="724.431" y="191.404" width="23.617" height="23.617" rx="11.8085" stroke="#78C1F9" stroke-width="5.90425"/>
</g>
<rect width="271.595" height="271.595" transform="matrix(0.890435 -0.455111 0 1 497.116 353.387)" fill="#283547"/>
<rect width="11.8085" height="11.8085" rx="5.90424" transform="matrix(0.890435 -0.455111 0 1 502.374 356.605)" fill="#FF5E57"/>
<rect width="11.8085" height="11.8085" rx="5.90424" transform="matrix(0.890435 -0.455111 0 1 520.775 347.2)" fill="#FFBB2E"/>
<rect width="11.8085" height="11.8085" rx="5.90424" transform="matrix(0.890435 -0.455111 0 1 539.175 337.795)" fill="#38C149"/>
<rect width="35.4255" height="11.8085" rx="5.90424" transform="matrix(0.890435 -0.455111 0 1 702.154 254.496)" fill="#1E98F5"/>
<rect width="35.4255" height="11.8085" rx="5.90424" transform="matrix(0.890435 -0.455111 0 1 660.096 275.992)" fill="#D7DFE6"/>
<rect width="100.372" height="70.8509" rx="2.95213" transform="matrix(0.890435 -0.455111 0 1 644.323 325.383)" fill="#96A0A9"/>
<rect width="76.7552" height="8.85636" rx="4.42818" transform="matrix(0.890435 -0.455111 0 1 502.374 397.934)" fill="#D7DFE6"/>
<rect width="135.798" height="8.85636" rx="4.42818" transform="matrix(0.890435 -0.455111 0 1 502.374 418.599)" fill="#96A0A9"/>
<rect width="135.798" height="8.85636" rx="4.42818" transform="matrix(0.890435 -0.455111 0 1 502.374 439.264)" fill="#96A0A9"/>
<rect width="135.798" height="8.85636" rx="4.42818" transform="matrix(0.890435 -0.455111 0 1 502.374 459.929)" fill="#96A0A9"/>
<rect width="70.8509" height="53.1382" rx="2.95213" transform="matrix(0.890435 -0.455111 0 1 502.374 498.306)" fill="#96A0A9"/>
<rect width="47.2339" height="5.90424" rx="2.95212" transform="matrix(0.890435 -0.455111 0 1 502.374 560.302)" fill="#D7DFE6"/>
<rect width="70.8509" height="5.90424" rx="2.95212" transform="matrix(0.890435 -0.455111 0 1 502.374 575.062)" fill="#96A0A9"/>
<rect width="70.8509" height="5.90424" rx="2.95212" transform="matrix(0.890435 -0.455111 0 1 502.374 589.822)" fill="#96A0A9"/>
<rect width="70.8509" height="53.1382" rx="2.95213" transform="matrix(0.890435 -0.455111 0 1 586.491 455.313)" fill="#96A0A9"/>
<rect width="47.2339" height="5.90424" rx="2.95212" transform="matrix(0.890435 -0.455111 0 1 586.491 517.309)" fill="#D7DFE6"/>
<rect width="70.8509" height="5.90424" rx="2.95212" transform="matrix(0.890435 -0.455111 0 1 586.491 532.069)" fill="#96A0A9"/>
<rect width="70.8509" height="5.90424" rx="2.95212" transform="matrix(0.890435 -0.455111 0 1 586.491 546.83)" fill="#96A0A9"/>
<rect width="70.8509" height="53.1382" rx="2.95213" transform="matrix(0.890435 -0.455111 0 1 670.609 412.321)" fill="#96A0A9"/>
<rect width="47.2339" height="5.90424" rx="2.95212" transform="matrix(0.890435 -0.455111 0 1 670.609 474.315)" fill="#D7DFE6"/>
<rect width="70.8509" height="5.90424" rx="2.95212" transform="matrix(0.890435 -0.455111 0 1 670.609 489.076)" fill="#96A0A9"/>
<rect width="70.8509" height="5.90424" rx="2.95212" transform="matrix(0.890435 -0.455111 0 1 670.609 503.836)" fill="#96A0A9"/>
<g clip-path="url(#clip24_2478_3464)">
<rect width="123.989" height="271.595" transform="matrix(0.890435 0.455111 0 1 290.469 70.3667)" fill="#F89FA1"/>
<rect width="112.181" height="14.7606" rx="7.3803" transform="matrix(0.890435 0.455111 0 1 295.725 93.7183)" fill="white"/>
<rect width="94.4679" height="14.7606" rx="7.3803" transform="matrix(0.890435 0.455111 0 1 295.725 126.192)" fill="#FDDFE0"/>
<rect width="76.7552" height="14.7606" rx="7.3803" transform="matrix(0.890435 0.455111 0 1 295.725 158.665)" fill="#FDDFE0"/>
<rect width="59.0424" height="14.7606" rx="7.3803" transform="matrix(0.890435 0.455111 0 1 295.725 191.138)" fill="#FDDFE0"/>
<rect width="41.3297" height="14.7606" rx="7.3803" transform="matrix(0.890435 0.455111 0 1 295.725 223.612)" fill="#FDDFE0"/>
<rect width="23.617" height="14.7606" rx="7.3803" transform="matrix(0.890435 0.455111 0 1 295.725 256.085)" fill="#FDDFE0"/>
</g>
<path d="M198.952 215.021C198.952 203.608 207.19 198.567 217.352 203.761L462.984 329.306C468.791 332.275 473.499 339.967 473.499 346.489V622.345C473.499 633.758 465.261 638.799 455.098 633.605L209.466 508.06C203.659 505.092 198.952 497.399 198.952 490.877V215.021Z" fill="#ACDBFF"/>
<path d="M198.952 213.378C198.952 210.117 201.305 208.677 204.209 210.161L451.304 336.454C457.111 339.422 461.819 347.115 461.819 353.637V631.136C461.819 634.397 459.465 635.837 456.561 634.353L204.209 505.373C201.305 503.889 198.952 500.043 198.952 496.782V213.378Z" fill="#78C1F9"/>
<rect width="291.754" height="2.95213" transform="matrix(0.890435 0.455111 0 1 222.568 204.672)" fill="#78C1F9"/>
<g clip-path="url(#clip25_2478_3464)">
<rect width="271.595" height="271.595" transform="matrix(0.890435 0.455111 0 1 207.808 223.878)" fill="#78C1F9"/>
<path d="M369.195 404.795C370.688 403.881 373.109 405.119 374.603 407.559L405.171 457.513C406.664 459.953 406.664 462.672 405.171 463.585L374.603 482.291C373.109 483.205 370.688 481.968 369.195 479.528L338.627 429.574C337.134 427.134 337.134 424.415 338.627 423.501L369.195 404.795Z" fill="white"/>
<rect x="328.728" y="429.559" width="68.9242" height="42.1772" rx="4.29399" transform="rotate(58.536 328.728 429.559)" fill="white"/>
<rect x="285.557" y="359.01" width="68.9242" height="42.1772" rx="4.29399" transform="rotate(58.536 285.557 359.01)" fill="white"/>
<rect x="328.728" y="332.593" width="68.9242" height="42.1772" rx="4.29399" transform="rotate(58.536 328.728 332.593)" fill="white"/>
</g>
<g filter="url(#filter1_d_2478_3464)">
<rect x="196" y="191.404" width="29.5212" height="29.5212" rx="14.7606" fill="white"/>
<rect x="198.952" y="194.356" width="23.617" height="23.617" rx="11.8085" stroke="#78C1F9" stroke-width="5.90425"/>
</g>
<g filter="url(#filter2_d_2478_3464)">
<rect x="458.74" y="324.25" width="29.5212" height="29.5212" rx="14.7606" fill="white"/>
<rect x="461.692" y="327.202" width="23.617" height="23.617" rx="11.8085" stroke="#78C1F9" stroke-width="5.90425"/>
</g>
</g>
<defs>
<filter id="filter0_d_2478_3464" x="709.67" y="182.548" width="53.138" height="53.1383" filterUnits="userSpaceOnUse" color-interpolation-filters="sRGB">
<feFlood flood-opacity="0" result="BackgroundImageFix"/>
<feColorMatrix in="SourceAlpha" type="matrix" values="0 0 0 0 0 0 0 0 0 0 0 0 0 0 0 0 0 0 127 0" result="hardAlpha"/>
<feOffset dy="5.90425"/>
<feGaussianBlur stdDeviation="5.90425"/>
<feComposite in2="hardAlpha" operator="out"/>
<feColorMatrix type="matrix" values="0 0 0 0 0 0 0 0 0 0 0 0 0 0 0 0 0 0 0.15 0"/>
<feBlend mode="normal" in2="BackgroundImageFix" result="effect1_dropShadow_2478_3464"/>
<feBlend mode="normal" in="SourceGraphic" in2="effect1_dropShadow_2478_3464" result="shape"/>
</filter>
<filter id="filter1_d_2478_3464" x="184.191" y="185.5" width="53.138" height="53.1383" filterUnits="userSpaceOnUse" color-interpolation-filters="sRGB">
<feFlood flood-opacity="0" result="BackgroundImageFix"/>
<feColorMatrix in="SourceAlpha" type="matrix" values="0 0 0 0 0 0 0 0 0 0 0 0 0 0 0 0 0 0 127 0" result="hardAlpha"/>
<feOffset dy="5.90425"/>
<feGaussianBlur stdDeviation="5.90425"/>
<feComposite in2="hardAlpha" operator="out"/>
<feColorMatrix type="matrix" values="0 0 0 0 0 0 0 0 0 0 0 0 0 0 0 0 0 0 0.15 0"/>
<feBlend mode="normal" in2="BackgroundImageFix" result="effect1_dropShadow_2478_3464"/>
<feBlend mode="normal" in="SourceGraphic" in2="effect1_dropShadow_2478_3464" result="shape"/>
</filter>
<filter id="filter2_d_2478_3464" x="446.932" y="318.345" width="53.138" height="53.1383" filterUnits="userSpaceOnUse" color-interpolation-filters="sRGB">
<feFlood flood-opacity="0" result="BackgroundImageFix"/>
<feColorMatrix in="SourceAlpha" type="matrix" values="0 0 0 0 0 0 0 0 0 0 0 0 0 0 0 0 0 0 127 0" result="hardAlpha"/>
<feOffset dy="5.90425"/>
<feGaussianBlur stdDeviation="5.90425"/>
<feComposite in2="hardAlpha" operator="out"/>
<feColorMatrix type="matrix" values="0 0 0 0 0 0 0 0 0 0 0 0 0 0 0 0 0 0 0.15 0"/>
<feBlend mode="normal" in2="BackgroundImageFix" result="effect1_dropShadow_2478_3464"/>
<feBlend mode="normal" in="SourceGraphic" in2="effect1_dropShadow_2478_3464" result="shape"/>
</filter>
<clipPath id="clip0_2478_3464">
<rect width="946.709" height="640" fill="white"/>
</clipPath>
<clipPath id="clip1_2478_3464">
<rect width="82.6594" height="282.094" fill="white" transform="matrix(0.890435 0.455111 0 1 417.41 20.1804)"/>
</clipPath>
<clipPath id="clip2_2478_3464">
<rect width="147.606" height="271.595" fill="white" transform="matrix(0.890435 -0.455111 0 1 516.79 48.1772)"/>
</clipPath>
<clipPath id="clip3_2478_3464">
<rect width="23.617" height="23.617" fill="white" transform="matrix(0.890435 -0.455111 0 1 519.418 114.733)"/>
</clipPath>
<clipPath id="clip4_2478_3464">
<rect width="23.617" height="23.617" fill="white" transform="matrix(0.890435 -0.455111 0 1 553.591 97.2664)"/>
</clipPath>
<clipPath id="clip5_2478_3464">
<rect width="23.617" height="23.617" fill="white" transform="matrix(0.890435 -0.455111 0 1 587.764 79.8005)"/>
</clipPath>
<clipPath id="clip6_2478_3464">
<rect width="23.617" height="23.617" fill="white" transform="matrix(0.890435 -0.455111 0 1 621.937 62.3345)"/>
</clipPath>
<clipPath id="clip7_2478_3464">
<rect width="23.617" height="23.617" fill="white" transform="matrix(0.890435 -0.455111 0 1 519.418 142.35)"/>
</clipPath>
<clipPath id="clip8_2478_3464">
<rect width="23.617" height="23.617" fill="white" transform="matrix(0.890435 -0.455111 0 1 553.591 124.884)"/>
</clipPath>
<clipPath id="clip9_2478_3464">
<rect width="23.617" height="23.617" fill="white" transform="matrix(0.890435 -0.455111 0 1 587.764 107.417)"/>
</clipPath>
<clipPath id="clip10_2478_3464">
<rect width="23.617" height="23.617" fill="white" transform="matrix(0.890435 -0.455111 0 1 621.937 89.9514)"/>
</clipPath>
<clipPath id="clip11_2478_3464">
<rect width="23.617" height="23.617" fill="white" transform="matrix(0.890435 -0.455111 0 1 519.418 169.967)"/>
</clipPath>
<clipPath id="clip12_2478_3464">
<rect width="23.617" height="23.617" fill="white" transform="matrix(0.890435 -0.455111 0 1 553.591 152.5)"/>
</clipPath>
<clipPath id="clip13_2478_3464">
<rect width="23.617" height="23.617" fill="white" transform="matrix(0.890435 -0.455111 0 1 587.764 135.034)"/>
</clipPath>
<clipPath id="clip14_2478_3464">
<rect width="23.617" height="23.617" fill="white" transform="matrix(0.890435 -0.455111 0 1 621.937 117.568)"/>
</clipPath>
<clipPath id="clip15_2478_3464">
<rect width="23.617" height="23.617" fill="white" transform="matrix(0.890435 -0.455111 0 1 519.418 197.583)"/>
</clipPath>
<clipPath id="clip16_2478_3464">
<rect width="23.617" height="23.617" fill="white" transform="matrix(0.890435 -0.455111 0 1 553.591 180.117)"/>
</clipPath>
<clipPath id="clip17_2478_3464">
<rect width="23.617" height="23.617" fill="white" transform="matrix(0.890435 -0.455111 0 1 587.764 162.651)"/>
</clipPath>
<clipPath id="clip18_2478_3464">
<rect width="23.617" height="23.617" fill="white" transform="matrix(0.890435 -0.455111 0 1 621.937 145.185)"/>
</clipPath>
<clipPath id="clip19_2478_3464">
<rect width="23.617" height="23.617" fill="white" transform="matrix(0.890435 -0.455111 0 1 519.418 225.2)"/>
</clipPath>
<clipPath id="clip20_2478_3464">
<rect width="23.617" height="23.617" fill="white" transform="matrix(0.890435 -0.455111 0 1 553.591 207.734)"/>
</clipPath>
<clipPath id="clip21_2478_3464">
<rect width="23.617" height="23.617" fill="white" transform="matrix(0.890435 -0.455111 0 1 587.764 190.268)"/>
</clipPath>
<clipPath id="clip22_2478_3464">
<rect width="23.617" height="23.617" fill="white" transform="matrix(0.890435 -0.455111 0 1 621.937 172.802)"/>
</clipPath>
<clipPath id="clip23_2478_3464">
<rect width="88.5636" height="271.595" fill="white" transform="matrix(0.890435 -0.455111 0 1 470.547 187.428)"/>
</clipPath>
<clipPath id="clip24_2478_3464">
<rect width="123.989" height="271.595" fill="white" transform="matrix(0.890435 0.455111 0 1 290.469 70.3667)"/>
</clipPath>
<clipPath id="clip25_2478_3464">
<rect width="271.595" height="271.595" fill="white" transform="matrix(0.890435 0.455111 0 1 207.808 223.878)"/>
</clipPath>
</defs>
</svg>
