<svg width="196" height="225" viewBox="0 0 196 225" fill="none" xmlns="http://www.w3.org/2000/svg">
<rect width="107.813" height="4" transform="matrix(0.890435 -0.455111 0 1 6 76.5173)" fill="#78C1F9"/>
<rect width="98.8281" height="4" transform="matrix(0.890435 0.455111 0 1 100 28.2)" fill="#78C1F9"/>
<path d="M76 11C76 7.13401 78.782 5.4431 82.2137 7.22326L107.92 20.5581C109.881 21.5754 111.471 24.1909 111.471 26.4V119.843C111.471 123.709 108.689 125.4 105.257 123.62L79.5507 110.285C77.5897 109.268 76 106.653 76 104.443V11Z" fill="#ACDBFF"/>
<path d="M76 10.4434C76 9.33879 76.7973 8.85088 77.7809 9.35358L103.603 22.5518C105.571 23.5572 107.165 26.1631 107.165 28.3722V122.372C107.165 123.477 106.368 123.965 105.384 123.462L77.7809 109.354C76.7973 108.851 76 107.548 76 106.443V10.4434Z" fill="#78C1F9"/>
<path d="M161 14C161 10.134 158.209 8.42632 154.767 10.1858L106.562 34.824C104.595 35.8294 103 38.4353 103 40.6444V134.088C103 137.954 105.791 139.661 109.233 137.902L157.438 113.264C159.405 112.258 161 109.653 161 107.443V14Z" fill="#FEE6AE"/>
<path d="M161 13.4434C161 12.3388 160.203 11.8509 159.219 12.3536L111.136 36.9296C109.169 37.935 107.574 40.5409 107.574 42.75V136.75C107.574 137.855 108.371 138.343 109.355 137.84L159.219 112.354C160.203 111.851 161 110.548 161 109.443V13.4434Z" fill="#EFCC79"/>
<g clip-path="url(#clip0_1768_921)">
<rect width="28" height="92" transform="matrix(0.890435 0.455111 0 1 77 15)" fill="#78C1F9"/>
<path d="M80.1167 38.0929L88.6389 24.7427C88.8052 24.4821 89.2451 24.7018 89.4177 25.1317L98.3706 47.4227M80.1167 38.0929V109.593M80.1167 38.0929L89.2437 42.7578M98.3706 47.4227L89.2437 42.7578M98.3706 47.4227V119.137M89.2437 42.7578V114.258" stroke="#DAEFFF" stroke-width="2"/>
<path d="M86.7949 30.0062L89.4662 26.3716L92.1375 32.7369L86.7949 30.0062Z" fill="#DAEFFF" stroke="#DAEFFF" stroke-width="2"/>
</g>
<path d="M33 28C33 24.134 35.7906 22.4263 39.233 24.1858L77.967 43.9831C79.934 44.9885 81.5287 47.5944 81.5287 49.8036V143.247C81.5287 147.113 78.7381 148.821 75.2956 147.061L36.5617 127.264C34.5946 126.258 33 123.653 33 121.443V28Z" fill="#FFC7C9"/>
<path d="M33 27.4434C33 26.3388 33.7973 25.8509 34.7809 26.3536L73.96 46.3785C75.9271 47.3839 77.5217 49.9898 77.5217 52.1989V146.199C77.5217 147.303 76.7244 147.791 75.7409 147.289L34.7809 126.354C33.7973 125.851 33 124.548 33 123.443V27.4434Z" fill="#F89FA1"/>
<g clip-path="url(#clip1_1768_921)">
<g clip-path="url(#clip2_1768_921)">
<path fill-rule="evenodd" clip-rule="evenodd" d="M116.019 47.6461C116 47.6969 115.972 47.7466 115.937 47.7888C115.902 47.8311 115.861 47.8646 115.82 47.8857L115.078 48.265C115.058 48.275 115.039 48.2934 115.026 48.3162C115.012 48.3389 115.004 48.3641 115.004 48.3862V49.0329C115.004 49.1929 115.06 49.3174 115.161 49.3791C115.262 49.4407 115.399 49.4345 115.541 49.3616L116.414 48.9156C116.447 48.8985 116.48 48.8902 116.51 48.8911C116.54 48.8921 116.567 48.9023 116.588 48.9211C116.609 48.9399 116.623 48.9668 116.631 48.9997C116.638 49.0326 116.638 49.0707 116.63 49.1112V49.1122L116.629 49.117L116.626 49.1365L116.613 49.2123C116.541 49.6259 116.48 50.0366 116.43 50.4436C116.348 51.1123 116.283 51.8829 116.319 52.4639L116.47 52.3869L118.328 49.3501C118.308 49.2672 118.29 49.183 118.273 49.0975C118.176 48.6042 118.083 48.1084 117.993 47.6102C117.69 47.9138 117.341 48.1521 117.061 48.2016C116.887 48.2327 116.725 48.1917 116.641 48.0221C116.559 47.8566 116.569 47.6055 116.648 47.3003C116.667 47.2284 116.707 47.1567 116.76 47.1009C116.812 47.045 116.873 47.0094 116.928 47.0018C116.984 46.9942 117.03 47.0152 117.057 47.0602C117.083 47.1052 117.088 47.1707 117.07 47.2424C117.012 47.4678 117.027 47.5685 117.048 47.6111C117.067 47.6491 117.106 47.6722 117.188 47.6576C117.361 47.6267 117.649 47.434 117.91 47.1427C117.884 46.9938 117.858 46.8445 117.834 46.6949L117.828 46.6629L117.826 46.6541C117.803 46.5801 117.77 46.5148 117.728 46.4597C117.651 46.3615 117.561 46.329 117.453 46.3847L116.562 46.8398C116.439 46.9027 116.31 47.0651 116.192 47.2771C116.126 47.3959 116.069 47.5182 116.021 47.6418L116.019 47.6461ZM118.927 50.7925C118.989 50.8893 119.049 50.972 119.103 51.041L117.1 52.065L118.467 49.8297C118.588 50.1822 118.741 50.5045 118.927 50.7925ZM119.317 50.3535C119.109 50.0289 118.943 49.6579 118.824 49.2471L119.984 47.3506C120.065 47.221 120.129 47.0827 120.173 46.9438C120.217 46.8049 120.239 46.668 120.24 46.5413C120.241 46.4145 120.219 46.3003 120.176 46.2052C120.133 46.1101 120.07 46.036 119.99 45.9873C119.911 45.9386 119.816 45.9161 119.712 45.9212C119.608 45.9264 119.496 45.959 119.384 46.0172C119.271 46.0754 119.16 46.158 119.056 46.2603C118.952 46.3626 118.858 46.4826 118.779 46.6132L118.415 47.2085C118.366 46.9356 118.318 46.6617 118.272 46.3867L118.267 46.3549L118.266 46.3472V46.3452L118.266 46.3447C118.265 46.3385 118.264 46.3326 118.262 46.3268L118.262 46.3253L118.261 46.3228L118.259 46.3155C118.249 46.2807 118.237 46.2471 118.224 46.2149C118.193 46.1357 118.153 46.0644 118.105 46.0022C117.996 45.8616 117.789 45.7128 117.453 45.8847L116.562 46.3398C116.24 46.5044 115.998 46.865 115.857 47.119C115.787 47.2448 115.731 47.3625 115.692 47.4511L115.078 47.765C114.94 47.8354 114.808 47.9643 114.711 48.1235C114.613 48.2827 114.559 48.4591 114.559 48.6138V49.2604C114.559 49.5531 114.662 49.7808 114.846 49.8935C115.031 50.0063 115.28 49.9948 115.541 49.8616L116.139 49.5561L116.128 49.6226C116.088 49.8697 116.036 50.2129 115.989 50.5962C115.896 51.355 115.818 52.2989 115.896 52.9612C115.903 53.0182 115.929 53.0605 115.97 53.08C116.01 53.0995 116.063 53.095 116.117 53.0673L119.53 51.3227C119.572 51.3011 119.614 51.2664 119.65 51.2226C119.685 51.1789 119.714 51.1279 119.732 51.0758C119.75 51.0236 119.756 50.9723 119.751 50.928C119.745 50.8836 119.728 50.848 119.701 50.8254L119.701 50.8247L119.696 50.8206C119.691 50.8162 119.684 50.81 119.674 50.8007C119.655 50.7827 119.627 50.7548 119.592 50.716C119.522 50.6385 119.425 50.5191 119.317 50.3532V50.3535ZM119.67 47.1581L118.702 48.739C118.631 48.3737 118.568 48.0434 118.514 47.753L119.094 46.8057C119.17 46.681 119.274 46.5798 119.382 46.5247C119.49 46.4695 119.593 46.4647 119.67 46.5114C119.746 46.5582 119.789 46.6525 119.789 46.7738C119.789 46.8951 119.746 47.0333 119.67 47.1581Z" fill="#545454"/>
</g>
<g clip-path="url(#clip3_1768_921)">
<path fill-rule="evenodd" clip-rule="evenodd" d="M128.138 40.7565C128.091 40.7804 128.045 40.8202 128.007 40.8703C127.97 40.9203 127.941 40.9782 127.926 41.0355L127.681 41.9901L126.654 42.515C126.516 42.5854 126.384 42.7144 126.286 42.8736C126.189 43.0328 126.134 43.2091 126.134 43.3639V46.6972C126.134 47.0192 126.367 47.1616 126.654 47.015L131.403 44.5878C131.54 44.5174 131.673 44.3884 131.77 44.2292C131.867 44.07 131.922 43.8937 131.922 43.739V40.4056C131.922 40.2509 131.867 40.1305 131.77 40.0709C131.673 40.0113 131.54 40.0174 131.403 40.0878L130.376 40.6127L130.13 39.9094C130.115 39.8672 130.087 39.8384 130.049 39.8271C130.011 39.8157 129.965 39.8225 129.919 39.8463L128.138 40.7565ZM128.052 42.1292L128.298 41.1746L129.758 40.4285L130.004 41.1316C130.019 41.1739 130.047 41.2027 130.085 41.214C130.123 41.2253 130.169 41.2185 130.215 41.1946L131.403 40.5878C131.422 40.5777 131.441 40.5769 131.455 40.5854C131.469 40.5939 131.477 40.6111 131.477 40.6332V43.9665C131.477 43.9886 131.469 44.0138 131.455 44.0366C131.441 44.0593 131.422 44.0777 131.403 44.0878L126.654 46.515C126.634 46.5251 126.615 46.526 126.601 46.5174C126.587 46.5089 126.579 46.4917 126.579 46.4696V43.1363C126.579 43.1142 126.587 43.089 126.601 43.0663C126.615 43.0435 126.634 43.0251 126.654 43.015L127.841 42.4082C127.888 42.3844 127.933 42.3446 127.971 42.2945C128.009 42.2444 128.037 42.1866 128.052 42.1292ZM128.212 43.8019C128.212 43.5588 128.298 43.2817 128.451 43.0316C128.604 42.7814 128.812 42.5787 129.028 42.4681C129.245 42.3574 129.452 42.3479 129.605 42.4416C129.758 42.5352 129.844 42.7244 129.844 42.9676C129.844 43.2107 129.758 43.4878 129.605 43.7379C129.452 43.9881 129.245 44.1908 129.028 44.3014C128.812 44.4121 128.604 44.4216 128.451 44.3279C128.298 44.2342 128.212 44.045 128.212 43.8019ZM129.028 41.9681C128.863 42.0527 128.699 42.1732 128.545 42.3226C128.392 42.4721 128.253 42.6475 128.136 42.8389C128.019 43.0303 127.926 43.234 127.863 43.4383C127.799 43.6425 127.767 43.8434 127.767 44.0295C127.767 44.2155 127.799 44.3831 127.863 44.5225C127.926 44.662 128.019 44.7707 128.136 44.8424C128.253 44.9141 128.392 44.9473 128.545 44.9403C128.699 44.9333 128.863 44.8861 129.028 44.8014C129.363 44.6304 129.684 44.3172 129.92 43.9306C130.157 43.544 130.29 43.1157 130.29 42.74C130.29 42.3643 130.157 42.0719 129.92 41.9271C129.684 41.7823 129.363 41.7971 129.028 41.9681Z" fill="#545454"/>
</g>
<g clip-path="url(#clip4_1768_921)">
<path fill-rule="evenodd" clip-rule="evenodd" d="M138.155 38.5533C138.155 37.824 138.413 36.9926 138.872 36.2422C139.332 35.4918 139.954 34.8837 140.604 34.5518C141.253 34.2198 141.876 34.1912 142.335 34.4722C142.795 34.7533 143.053 35.3209 143.053 36.0502C143.053 36.7796 142.795 37.6109 142.335 38.3613C141.876 39.1118 141.253 39.7198 140.604 40.0518C139.954 40.3837 139.332 40.4123 138.872 40.1313C138.413 39.8503 138.155 39.2827 138.155 38.5533ZM140.604 34.0518C139.006 34.8687 137.71 36.9859 137.71 38.7809C137.71 40.5759 139.006 41.3687 140.604 40.5518C142.202 39.7348 143.498 37.6177 143.498 35.8227C143.498 34.0277 142.202 33.2348 140.604 34.0518ZM140.826 35.188C140.826 35.1217 140.803 35.0701 140.761 35.0445C140.72 35.019 140.663 35.0216 140.604 35.0518C140.545 35.0819 140.488 35.1372 140.446 35.2054C140.405 35.2737 140.381 35.3492 140.381 35.4156V37.4156C140.381 37.4819 140.405 37.5336 140.447 37.5588L141.189 38.0129C141.209 38.0271 141.234 38.0342 141.261 38.0339C141.288 38.0336 141.318 38.0259 141.348 38.0112C141.377 37.9965 141.407 37.9752 141.435 37.9484C141.463 37.9217 141.488 37.8901 141.509 37.8556C141.53 37.821 141.547 37.7842 141.558 37.7474C141.569 37.7105 141.575 37.6744 141.574 37.6411C141.574 37.6078 141.567 37.578 141.555 37.5536C141.543 37.5291 141.525 37.5105 141.503 37.4988L140.826 37.0847V35.188Z" fill="#545454"/>
</g>
<g clip-path="url(#clip5_1768_921)">
<path fill-rule="evenodd" clip-rule="evenodd" d="M152.022 28.289C152.064 28.2208 152.12 28.1656 152.179 28.1355C152.238 28.1053 152.295 28.1027 152.337 28.1282L154.414 29.3996C154.456 29.4248 154.479 29.4765 154.479 29.5429V33.2095C154.479 33.2758 154.456 33.3514 154.414 33.4196C154.373 33.4879 154.316 33.5431 154.257 33.5733L152.773 34.3318C152.714 34.362 152.657 34.3646 152.615 34.3391C152.574 34.3135 152.55 34.2619 152.55 34.1956V32.7789L151.808 33.1582V34.5749C151.808 34.6412 151.785 34.7167 151.743 34.785C151.701 34.8532 151.645 34.9085 151.586 34.9386L150.102 35.6972C150.042 35.7273 149.986 35.7299 149.944 35.7044C149.902 35.6788 149.879 35.6272 149.879 35.5609V31.8943C149.879 31.828 149.902 31.7524 149.944 31.6842L152.022 28.289ZM150.324 31.77V35.0834L151.363 34.5524V33.1358C151.363 33.0694 151.386 32.9939 151.428 32.9257C151.47 32.8574 151.527 32.8022 151.586 32.772L152.773 32.1652C152.832 32.135 152.888 32.1324 152.93 32.1579C152.972 32.1835 152.995 32.2351 152.995 32.3014V33.718L154.034 33.1871V29.8738L152.179 28.7386L150.324 31.77Z" fill="#545454"/>
</g>
<g clip-path="url(#clip6_1768_921)">
<path fill-rule="evenodd" clip-rule="evenodd" d="M115.374 59.9465C115.315 59.9767 115.259 60.032 115.217 60.1002C115.175 60.1684 115.152 60.244 115.152 60.3103V63.3103C115.152 63.7302 115.3 64.057 115.565 64.2188C115.829 64.3806 116.188 64.3642 116.562 64.173L117.749 63.5662C118.123 63.3751 118.481 63.025 118.746 62.5929C119.01 62.1609 119.159 61.6822 119.159 61.2623V61.15C119.3 61.1151 119.448 61.0409 119.59 60.9328C119.732 60.8248 119.865 60.6856 119.979 60.5259C120.093 60.3661 120.185 60.1899 120.249 60.0104C120.312 59.8309 120.345 59.6527 120.345 59.4893C120.345 59.3258 120.312 59.1814 120.249 59.0666C120.185 58.9519 120.093 58.8699 119.979 58.8269C119.865 58.7838 119.732 58.7807 119.59 58.8178C119.448 58.8549 119.3 58.9314 119.159 59.0413V58.2623C119.159 58.196 119.135 58.1444 119.094 58.1189C119.052 58.0933 118.995 58.0959 118.936 58.1261L115.374 59.9465ZM118.714 59.6539V61.4899C118.714 61.7772 118.612 62.1047 118.431 62.4003C118.25 62.6959 118.005 62.9355 117.749 63.0662L116.562 63.673C116.306 63.8038 116.061 63.8151 115.88 63.7044C115.699 63.5937 115.597 63.3701 115.597 63.0827V60.3327L118.714 58.7399V59.6539ZM119.159 60.623V59.5683C119.238 59.4858 119.325 59.4223 119.413 59.3836C119.5 59.345 119.585 59.3325 119.659 59.3473C119.733 59.3621 119.794 59.4037 119.836 59.4683C119.878 59.5329 119.9 59.6183 119.9 59.7167C119.9 59.815 119.878 59.9231 119.836 60.0308C119.794 60.1386 119.733 60.2425 119.659 60.3329C119.585 60.4234 119.5 60.4974 119.413 60.5481C119.325 60.5988 119.238 60.6246 119.159 60.623Z" fill="#545454"/>
</g>
<g clip-path="url(#clip7_1768_921)">
<path fill-rule="evenodd" clip-rule="evenodd" d="M129.844 52.1343C129.844 52.068 129.868 51.9924 129.91 51.9242C129.951 51.8559 130.008 51.8007 130.067 51.7705L131.106 51.2395C131.393 51.093 131.625 51.2354 131.625 51.5574V56.224C131.625 56.3788 131.571 56.5551 131.473 56.7143C131.376 56.8735 131.244 57.0025 131.106 57.0729L130.067 57.6038C130.008 57.634 129.951 57.6366 129.91 57.6111C129.868 57.5855 129.844 57.5339 129.844 57.4676C129.844 57.4013 129.868 57.3257 129.91 57.2575C129.951 57.1893 130.008 57.134 130.067 57.1038L131.106 56.5729C131.126 56.5628 131.144 56.5444 131.158 56.5216C131.172 56.4989 131.18 56.4737 131.18 56.4516V51.7849C131.18 51.7628 131.172 51.7456 131.158 51.7371C131.144 51.7286 131.126 51.7295 131.106 51.7395L130.067 52.2705C130.008 52.3007 129.951 52.3033 129.91 52.2777C129.868 52.2522 129.844 52.2006 129.844 52.1343ZM126.283 56.6214C126.283 56.5551 126.306 56.4795 126.348 56.4113C126.39 56.3431 126.446 56.2878 126.505 56.2576L129.381 54.7876L128.426 54.2027C128.386 54.1755 128.365 54.1237 128.366 54.0584C128.367 53.9931 128.39 53.9194 128.431 53.8527C128.472 53.7861 128.527 53.7317 128.585 53.7011C128.642 53.6705 128.698 53.666 128.74 53.6886L130.076 54.5059C130.118 54.5315 130.141 54.5831 130.141 54.6493C130.141 54.7156 130.118 54.7911 130.076 54.8593L128.74 57.0419C128.72 57.0769 128.695 57.1092 128.668 57.1368C128.641 57.1644 128.611 57.1868 128.581 57.2027C128.551 57.2186 128.522 57.2276 128.494 57.2292C128.466 57.2308 128.441 57.2249 128.42 57.212C128.399 57.199 128.382 57.1793 128.371 57.1539C128.36 57.1285 128.354 57.0979 128.355 57.0641C128.355 57.0303 128.362 56.9938 128.374 56.9569C128.386 56.92 128.404 56.8835 128.426 56.8494L129.381 55.2876L126.505 56.7576C126.446 56.7878 126.39 56.7904 126.348 56.7648C126.306 56.7393 126.283 56.6877 126.283 56.6214Z" fill="#545454"/>
</g>
<g clip-path="url(#clip8_1768_921)">
<path fill-rule="evenodd" clip-rule="evenodd" d="M138.823 48.962C138.671 49.0393 138.523 49.1468 138.389 49.2606C138.587 48.6877 138.9 48.1288 139.292 47.6492C139.685 47.1695 140.139 46.7888 140.604 46.5515C141.068 46.3141 141.523 46.2299 141.915 46.3087C142.307 46.3874 142.621 46.6259 142.819 46.9962C142.678 47.0195 142.532 47.0684 142.385 47.1415C142.117 47.2782 141.861 47.5076 141.682 47.6889C141.618 47.7535 141.555 47.8205 141.494 47.8896C141.433 47.8831 141.37 47.8803 141.306 47.881C141.127 47.8829 140.871 47.915 140.604 48.0517C140.336 48.1884 140.08 48.4179 139.901 48.5991C139.827 48.6736 139.763 48.7429 139.713 48.7998C139.652 48.7934 139.589 48.7905 139.525 48.7912C139.346 48.7932 139.09 48.8253 138.823 48.962ZM141.368 48.4506L141.371 48.4511L141.618 48.3248L141.62 48.322C141.698 48.2278 141.779 48.138 141.863 48.0532C142.017 47.8973 142.207 47.7322 142.385 47.6415C142.656 47.5026 142.947 47.5119 143.087 47.5303C143.125 47.5352 143.169 47.5243 143.212 47.4989C143.255 47.4736 143.297 47.435 143.332 47.3878C143.367 47.3406 143.393 47.2869 143.407 47.2334C143.422 47.1799 143.424 47.1289 143.414 47.0867C143.103 45.8264 141.963 45.3569 140.604 46.0517C139.244 46.7465 138.105 48.3814 137.794 49.9591C137.783 50.0118 137.785 50.0605 137.8 50.0991C137.815 50.1377 137.841 50.1645 137.876 50.1762C137.91 50.1878 137.952 50.1839 137.995 50.1648C138.039 50.1458 138.082 50.1124 138.12 50.0689C138.261 49.9069 138.551 49.6009 138.823 49.462C139.001 49.3711 139.19 49.3423 139.345 49.3403C139.428 49.3395 139.509 49.3464 139.587 49.3608L139.59 49.3613C139.626 49.37 139.669 49.3626 139.713 49.3402C139.757 49.3177 139.8 49.2811 139.837 49.2351L139.839 49.2322L139.851 49.2178C139.925 49.1289 140.003 49.044 140.082 48.9636C140.237 48.8074 140.426 48.6426 140.604 48.5517C140.782 48.4609 140.971 48.4321 141.126 48.43C141.209 48.4293 141.29 48.4361 141.368 48.4506ZM140.826 49.188C140.826 49.1217 140.803 49.0701 140.761 49.0445C140.719 49.019 140.663 49.0216 140.604 49.0517C140.545 49.0819 140.488 49.1372 140.446 49.2054C140.405 49.2736 140.381 49.3492 140.381 49.4155V51.7488V51.7645L140.383 51.7943C140.391 51.9285 140.424 52.0473 140.479 52.1439C140.529 52.2315 140.608 52.3115 140.731 52.3405C140.855 52.3702 141.01 52.3442 141.197 52.2483C141.385 52.1526 141.54 52.0198 141.664 51.8635C141.787 51.7092 141.866 51.548 141.916 51.4094C141.975 51.2454 142.008 51.0822 142.013 50.9303V50.9203L142.014 50.9168V50.9148V50.7478C142.014 50.6815 141.99 50.6299 141.948 50.6044C141.907 50.5788 141.85 50.5814 141.791 50.6116C141.732 50.6418 141.675 50.697 141.634 50.7653C141.592 50.8335 141.568 50.9091 141.568 50.9754V51.141C141.568 51.143 141.568 51.147 141.568 51.153C141.563 51.2285 141.546 51.3087 141.518 51.3893C141.494 51.4554 141.461 51.5181 141.417 51.5741C141.374 51.6281 141.307 51.6923 141.197 51.7483C141.088 51.8043 141.021 51.8086 140.978 51.7986C140.933 51.788 140.901 51.7585 140.877 51.7168C140.847 51.6627 140.83 51.5958 140.826 51.5203V49.188Z" fill="#545454"/>
</g>
<g clip-path="url(#clip9_1768_921)">
<path fill-rule="evenodd" clip-rule="evenodd" d="M151.586 40.4386C151.645 40.4085 151.701 40.4059 151.743 40.4314C151.785 40.457 151.808 40.5086 151.808 40.5749V41.1849C151.888 41.336 151.991 41.5947 152.074 41.8136C152.119 41.9337 152.16 42.0459 152.191 42.1295L153.367 41.5284C153.755 41.3301 154.007 41.4272 154.151 41.6241C154.181 41.664 154.206 41.7084 154.227 41.7553L154.554 41.5883C154.841 41.4417 155.073 41.5841 155.073 41.9061V42.9061C155.073 42.9724 155.05 43.048 155.008 43.1162C154.966 43.1845 154.91 43.2397 154.851 43.2699C154.792 43.3001 154.735 43.3027 154.693 43.2771C154.652 43.2516 154.628 43.2 154.628 43.1337V42.1337C154.628 42.1116 154.62 42.0944 154.606 42.0859C154.592 42.0774 154.574 42.0782 154.554 42.0883L154.329 42.2033C154.33 42.2318 154.331 42.2594 154.331 42.2854C154.331 42.4841 154.289 42.8039 154.151 43.1311C154.034 43.4112 153.844 43.699 153.568 43.9033L153.942 44.5518C154.047 44.3944 154.145 44.2313 154.232 44.0642C154.251 44.0293 154.274 43.9965 154.299 43.9677C154.325 43.9389 154.353 43.9147 154.382 43.8964C154.411 43.8781 154.441 43.8661 154.469 43.8611C154.497 43.8561 154.523 43.8581 154.546 43.8672C154.568 43.8762 154.587 43.8921 154.601 43.9138C154.615 43.9355 154.624 43.9627 154.627 43.9938C154.63 44.0249 154.627 44.0593 154.619 44.095C154.611 44.1307 154.597 44.1671 154.578 44.202C154.307 44.7177 153.965 45.1972 153.575 45.605C153.186 46.0129 152.759 46.3389 152.328 46.5591C151.896 46.7801 151.47 46.8898 151.08 46.88C150.691 46.8703 150.348 46.7414 150.077 46.5028C150.059 46.4866 150.045 46.4643 150.037 46.4371C150.028 46.4098 150.026 46.3782 150.029 46.344C150.032 46.3098 150.04 46.2736 150.054 46.2376C150.068 46.2017 150.087 46.1665 150.11 46.1343C150.133 46.102 150.159 46.0732 150.187 46.0495C150.215 46.0259 150.244 46.0078 150.273 45.9964C150.302 45.985 150.331 45.9804 150.356 45.9829C150.382 45.9855 150.405 45.9951 150.423 46.0112C150.511 46.0886 150.608 46.1524 150.713 46.2023L151.092 45.1589C150.952 45.1827 150.826 45.1617 150.724 45.0977C150.581 45.0105 150.473 44.8389 150.473 44.5909V43.5529L149.841 43.9935C149.795 44.0258 149.747 44.0419 149.705 44.0397L149.704 44.0404L149.703 44.0399L149.7 44.0401L149.694 44.0391C149.67 44.0361 149.647 44.0309 149.625 44.0236C149.572 44.0058 149.524 43.978 149.482 43.9408C149.379 43.8482 149.285 43.6752 149.285 43.3648C149.285 43.0538 149.379 42.7849 149.482 42.5868C149.537 42.4821 149.602 42.3826 149.676 42.2922L149.694 42.2718L149.7 42.2648L149.703 42.2619L149.704 42.2608L149.705 42.2605C149.705 42.2603 149.705 42.2598 149.805 42.4324L149.705 42.2598L149.705 42.2594L149.706 42.2589L149.706 42.2586L149.707 42.2579L149.708 42.2573V42.257L149.708 42.2568L149.708 42.2563L149.709 42.2557L149.709 42.2554L149.71 42.2547L149.71 42.2543L149.71 42.2538L149.711 42.2535V42.2531L149.712 42.2525L149.712 42.2522L149.713 42.2517L149.713 42.2511L149.713 42.2506L149.714 42.2503L149.714 42.2495L149.715 42.2492L149.716 42.2485L149.716 42.2479L149.716 42.2474L149.717 42.2468L149.718 42.2465L149.718 42.2455L149.719 42.2452L149.719 42.2442L149.72 42.2439L149.721 42.243L149.721 42.2426L149.722 42.2417L149.722 42.241L149.723 42.2403L149.724 42.2396L149.724 42.239L149.725 42.238L149.726 42.2376L149.727 42.2366L149.727 42.2358L149.728 42.2352L149.729 42.234L149.729 42.2334L149.73 42.2326L149.731 42.2316L149.732 42.2309L149.733 42.2301L149.734 42.2289L149.734 42.2283L149.735 42.2272L149.736 42.2267L149.737 42.2256L149.738 42.2245L149.739 42.2237L149.74 42.2226L149.74 42.2218L149.741 42.2207L149.742 42.2199L149.743 42.2188L149.744 42.2176L149.745 42.2167L149.746 42.2156L149.747 42.2148L149.748 42.2137L149.749 42.2124L149.75 42.2113L149.751 42.2103L149.752 42.2092L149.753 42.2079L149.754 42.2071L149.755 42.2059L149.756 42.2047L149.757 42.2035L149.759 42.2022L149.759 42.2011L149.761 42.2001L149.762 42.1989L149.763 42.1976L149.764 42.1965L149.765 42.1952L149.766 42.1939L149.767 42.1927L149.769 42.1914L149.77 42.1901L149.771 42.1888L149.772 42.1876L149.773 42.1863L149.775 42.185L149.776 42.1837L149.777 42.1823L149.778 42.181L149.78 42.1798L149.781 42.1782L149.782 42.1767L149.784 42.1755L149.785 42.1742L149.786 42.1728L149.787 42.1715L149.789 42.1697L149.79 42.1685L149.792 42.167L149.793 42.1658L149.794 42.164L149.795 42.1627L149.797 42.1613L149.798 42.1595L149.8 42.1583L149.801 42.1568L149.802 42.1551L149.804 42.1538L149.805 42.1521L149.807 42.1506L149.808 42.1492L149.81 42.1474L149.811 42.146L149.813 42.1443L149.814 42.1428L149.816 42.1411L149.817 42.1396L149.819 42.1379L149.82 42.1365L149.821 42.1347L149.823 42.1333L149.824 42.1315L149.826 42.1298L149.828 42.1282L149.829 42.1264L149.831 42.125L149.832 42.1232L149.834 42.1213L149.835 42.1199L149.837 42.118L149.839 42.1162L149.84 42.1145L149.842 42.1129L149.843 42.1111L149.845 42.1092L149.847 42.1075L149.849 42.1059L149.85 42.1041L149.852 42.1022L149.854 42.1003L149.855 42.0986L149.857 42.097L149.859 42.0951L149.86 42.0933L149.862 42.0914L149.864 42.0895L149.865 42.0876L149.867 42.0858L149.869 42.0839L149.87 42.0823L149.872 42.0804L149.874 42.0785L149.876 42.0766L149.878 42.0747L149.879 42.0728L149.881 42.0709L149.883 42.069L149.885 42.0671L149.886 42.0652L149.888 42.0632L149.89 42.0613L149.892 42.0594L149.894 42.0572L149.895 42.0553L149.897 42.0532L149.899 42.0513L149.901 42.0494L149.903 42.0475L149.905 42.0454L149.907 42.0435L149.908 42.0416L149.91 42.0393L149.912 42.0373L149.914 42.0354L149.916 42.0333L149.918 42.0314L149.92 42.0292L149.922 42.0271L149.924 42.0252L149.926 42.0231L149.927 42.0209L149.93 42.0188L149.931 42.0169L149.933 42.0148L149.935 42.0126L149.937 42.0105L149.939 42.0085L149.941 42.0062L149.943 42.0042L149.945 42.0021L149.947 41.9999L149.949 41.9978L149.951 41.9957L149.953 41.9935L149.955 41.9914L149.957 41.9894L149.959 41.987L149.961 41.9849L149.963 41.9827L149.965 41.9806L149.967 41.9786L149.969 41.9762L149.971 41.9741L149.973 41.9717L149.976 41.9696L149.978 41.9672L149.979 41.9653L149.981 41.9629L149.984 41.9609L149.986 41.9585L149.988 41.9564L149.99 41.954L149.992 41.952L149.994 41.9494L149.996 41.9474L149.998 41.945L150 41.9429L150.003 41.9405L150.005 41.9384L150.007 41.936L150.009 41.9336L150.011 41.9316L150.013 41.929L150.015 41.927L150.017 41.9246L150.019 41.9225L150.022 41.9201L150.024 41.9176L150.026 41.9155L150.028 41.9131L150.03 41.9107L150.033 41.9085L150.035 41.9061L150.037 41.9037L150.039 41.9015L150.041 41.8991L150.043 41.8967L150.046 41.8945L150.048 41.8921L150.05 41.8897L150.052 41.8875L150.054 41.8851L150.057 41.8826L150.059 41.8805L150.061 41.8781L150.063 41.8756L150.065 41.8732L150.068 41.8709L150.07 41.8685L150.072 41.866L150.074 41.8639L150.076 41.8614L150.079 41.859L150.081 41.8565L150.083 41.8544L150.085 41.8518L150.087 41.8494L150.09 41.8469L150.092 41.8445L150.094 41.8423L150.096 41.8399L150.099 41.8373L150.102 41.8345L150.104 41.8321L150.106 41.8299L150.108 41.8275L150.111 41.8249L150.113 41.8224L150.115 41.82L150.117 41.8178L150.12 41.8152L150.122 41.8128L150.124 41.8103L150.127 41.8078L150.129 41.8054L150.131 41.8031L150.133 41.8006L150.136 41.7982L150.138 41.7957L150.14 41.7931L150.142 41.7907L150.145 41.7885L150.147 41.786L150.149 41.7834L150.152 41.781L150.154 41.7785L150.156 41.7759L150.159 41.7734L150.161 41.771L150.163 41.7688L150.165 41.7662L150.168 41.7637L150.17 41.7613L150.172 41.7587L150.175 41.7562L150.177 41.7536L150.179 41.7512L150.182 41.749L150.184 41.7465L150.186 41.7439L150.188 41.7415L150.191 41.739L150.193 41.7364L150.195 41.7339L150.198 41.7315L150.2 41.7291L150.202 41.7266L150.204 41.7243L150.207 41.7218L150.209 41.7192L150.211 41.7169L150.214 41.7143L150.216 41.7118L150.218 41.7092L150.221 41.7067L150.223 41.7041L150.225 41.7017L150.228 41.6995L150.23 41.697L150.232 41.6944L150.235 41.6919L150.237 41.6895L150.239 41.6869L150.241 41.6844L150.244 41.6818L150.246 41.6793L150.248 41.6769L150.251 41.6743L150.253 41.6721L150.255 41.6696L150.258 41.667L150.26 41.6646L150.262 41.6621L150.265 41.6595L150.267 41.657L150.269 41.6545L150.271 41.6521L150.274 41.6495L150.276 41.6473L150.279 41.6447L150.281 41.6422L150.283 41.6398L150.285 41.6373L150.288 41.6347L150.29 41.6322L150.293 41.6296L150.295 41.6272L150.297 41.625L150.299 41.6225L150.302 41.6199L150.304 41.6175L150.306 41.615L150.309 41.6124L150.311 41.6099L150.313 41.6075L150.315 41.6053L150.318 41.6027L150.32 41.6003L150.322 41.5978L150.325 41.5952L150.327 41.5927L150.329 41.5903L150.331 41.5881L150.334 41.5855L150.336 41.5831L150.338 41.5806L150.341 41.578L150.343 41.5756L150.345 41.5734L150.347 41.5709L150.35 41.5685L150.352 41.5659L150.354 41.5634L150.356 41.561L150.359 41.5588L150.361 41.5564L150.363 41.5538L150.366 41.5513L150.368 41.5489L150.37 41.5467L150.372 41.5443L150.374 41.5417L150.377 41.5394L150.379 41.5371L150.381 41.5346L150.383 41.5322L150.386 41.5297L150.388 41.5276L150.39 41.525L150.392 41.5226L150.395 41.5201L150.397 41.518L150.399 41.5155L150.401 41.5131L150.403 41.5107L150.406 41.5085L150.408 41.5061L150.41 41.5035L150.412 41.5015L150.414 41.4991L150.417 41.4965L150.419 41.4941L150.421 41.4919L150.423 41.4895L150.425 41.4871L150.428 41.4849L150.43 41.4825L150.432 41.4801L150.434 41.4781L150.436 41.4755L150.438 41.4735L150.44 41.4711L150.443 41.4685L150.445 41.4665L150.447 41.4641L150.449 41.4617L150.451 41.4596L150.453 41.4571L150.455 41.455L150.458 41.4526L150.46 41.4505L150.462 41.4481L150.464 41.4458L150.466 41.4437L150.468 41.4413L150.47 41.4391L150.472 41.4367L150.474 41.4346L150.477 41.4322L150.479 41.4302L150.481 41.4278L150.483 41.4257L150.485 41.4233L150.487 41.4213L150.489 41.419L150.491 41.4169L150.493 41.4146L150.495 41.4125L150.497 41.4104L150.499 41.408L150.501 41.406L150.503 41.4036L150.505 41.4017L150.507 41.3993L150.509 41.3972L150.511 41.3951L150.513 41.3928L150.515 41.3908L150.517 41.3888L150.519 41.3864L150.521 41.3845L150.523 41.3824L150.525 41.38L150.527 41.3781L150.529 41.376L150.531 41.3738L150.533 41.3717L150.535 41.3697L150.537 41.3678L150.539 41.3654L150.541 41.3635L150.543 41.3614L150.545 41.3595L150.546 41.3572L150.548 41.3552L150.55 41.3533L150.552 41.3512L150.554 41.3493L150.556 41.3471L150.558 41.345L150.56 41.3431L150.561 41.3412L150.564 41.3391L150.565 41.3372L150.567 41.3353L150.569 41.3331L150.571 41.3311L150.573 41.3291L150.575 41.3272L150.576 41.3253L150.578 41.3233L150.58 41.3214L150.582 41.3195L150.583 41.3176L150.585 41.3157L150.587 41.3138L150.589 41.3119L150.591 41.31L150.592 41.3081L150.594 41.3062L150.596 41.3042C150.809 41.0757 151.058 40.9559 151.267 40.9271C151.299 40.9229 151.331 40.9207 151.363 40.9204V40.8024C151.363 40.7361 151.387 40.6605 151.428 40.5923C151.47 40.5241 151.527 40.4688 151.586 40.4386ZM151.078 46.3137C151.456 46.3729 151.888 46.285 152.328 46.0594C152.768 45.8355 153.199 45.482 153.577 45.0364L153.08 44.1747L151.575 44.944L151.078 46.3137ZM151.388 41.5713L151.385 41.5669C151.343 41.4954 151.249 41.4565 151.126 41.4735C151.001 41.4905 150.878 41.5602 150.795 41.6499L150.793 41.6517L150.791 41.6536L150.79 41.6555L150.788 41.6574L150.786 41.6593L150.784 41.6612L150.783 41.6632L150.781 41.6651L150.779 41.667L150.777 41.6689L150.775 41.6708L150.773 41.6729L150.772 41.6748L150.77 41.6767L150.768 41.6786L150.766 41.6805L150.764 41.6824L150.762 41.6845L150.761 41.6867L150.759 41.6886L150.757 41.6905L150.755 41.6926L150.753 41.6945L150.751 41.6964L150.749 41.6988L150.748 41.7007L150.745 41.7028L150.744 41.7047L150.742 41.7068L150.74 41.709L150.738 41.7111L150.736 41.713L150.734 41.715L150.732 41.7173L150.73 41.7193L150.728 41.7213L150.726 41.7236L150.724 41.7257L150.722 41.7276L150.72 41.73L150.718 41.7321L150.716 41.734L150.714 41.7364L150.712 41.7384L150.71 41.7404L150.708 41.7427L150.706 41.7448L150.704 41.7472L150.702 41.7493L150.7 41.7512L150.698 41.7536L150.696 41.7556L150.694 41.758L150.692 41.7601L150.69 41.7625L150.688 41.7646L150.686 41.7666L150.684 41.769L150.682 41.7711L150.68 41.7735L150.677 41.7755L150.675 41.7779L150.673 41.78L150.671 41.7824L150.669 41.7844L150.667 41.7868L150.665 41.7892L150.663 41.7913L150.661 41.7937L150.659 41.7958L150.657 41.7981L150.655 41.8002L150.652 41.8028L150.65 41.8051L150.648 41.8072L150.646 41.8096L150.644 41.8117L150.642 41.8142L150.64 41.8166L150.637 41.8187L150.635 41.8211L150.633 41.8233L150.631 41.8257L150.629 41.8281L150.626 41.8303L150.624 41.8327L150.622 41.8351L150.62 41.8373L150.618 41.8397L150.616 41.8421L150.613 41.8446L150.611 41.8467L150.609 41.8492L150.607 41.8516L150.605 41.8537L150.602 41.8562L150.6 41.8586L150.598 41.8608L150.596 41.8632L150.594 41.8658L150.591 41.8682L150.589 41.8704L150.587 41.8728L150.585 41.8753L150.583 41.8777L150.58 41.88L150.578 41.8823L150.576 41.8849L150.574 41.8873L150.571 41.8898L150.569 41.8919L150.567 41.8944L150.564 41.897L150.562 41.8994L150.56 41.9019L150.558 41.904L150.556 41.9065L150.553 41.9091L150.551 41.9115L150.549 41.914L150.546 41.9162L150.544 41.9186L150.542 41.9212L150.54 41.9236L150.537 41.9261L150.535 41.9287L150.533 41.9309L150.531 41.9333L150.528 41.9358L150.526 41.9384L150.524 41.9408L150.521 41.9433L150.519 41.9459L150.517 41.9479L150.515 41.9505L150.512 41.953L150.51 41.9556L150.508 41.958L150.505 41.9605L150.503 41.9631L150.501 41.9653L150.499 41.9677L150.496 41.9702L150.494 41.9728L150.491 41.9753L150.489 41.9777L150.487 41.9803L150.485 41.9828L150.482 41.9853L150.48 41.9876L150.478 41.99L150.475 41.9925L150.473 41.9951L150.471 41.9976L150.468 42.0001L150.466 42.0025L150.464 42.0051L150.461 42.0076L150.459 42.0102L150.457 42.0124L150.455 42.0148L150.452 42.0173L150.45 42.0199L150.447 42.0224L150.445 42.025L150.443 42.0274L150.441 42.0299L150.438 42.0325L150.436 42.035L150.434 42.0372L150.431 42.0396L150.429 42.0422L150.427 42.0447L150.424 42.0473L150.422 42.0498L150.42 42.0522L150.417 42.0548L150.415 42.0573L150.413 42.0598L150.41 42.0621L150.408 42.0646L150.406 42.067L150.404 42.0695L150.401 42.0721L150.399 42.0746L150.396 42.0772L150.394 42.0796L150.392 42.0821L150.39 42.0847L150.387 42.0869L150.385 42.0893L150.383 42.0918L150.38 42.0944L150.378 42.0969L150.376 42.0995L150.374 42.1019L150.371 42.1044L150.369 42.107L150.366 42.1092L150.364 42.1116L150.362 42.1141L150.36 42.1167L150.357 42.1192L150.355 42.1216L150.353 42.1242L150.35 42.1267L150.348 42.1289L150.346 42.1313L150.344 42.1339L150.341 42.1364L150.339 42.1388L150.337 42.1413L150.334 42.1439L150.332 42.1461L150.33 42.1485L150.328 42.1511L150.325 42.1536L150.323 42.156L150.321 42.1585L150.318 42.1608L150.316 42.1632L150.314 42.1657L150.312 42.1681L150.309 42.1706L150.307 42.1729L150.305 42.1752L150.303 42.1778L150.3 42.1803L150.298 42.1827L150.296 42.185L150.294 42.1873L150.291 42.1899L150.289 42.1923L150.287 42.1948L150.285 42.1969L150.282 42.1994L150.28 42.202L150.278 42.2044L150.276 42.2066L150.274 42.209L150.271 42.2115L150.269 42.2139L150.267 42.216L150.265 42.2185L150.263 42.2209L150.26 42.2235L150.258 42.2256L150.256 42.2281L150.254 42.2305L150.252 42.2326L150.249 42.2351L150.247 42.2375L150.245 42.2397L150.243 42.2421L150.241 42.2445L150.238 42.2467L150.236 42.2491L150.234 42.2515L150.232 42.2537L150.23 42.2561L150.228 42.2585L150.225 42.2606L150.223 42.2631L150.221 42.2655L150.219 42.2676L150.217 42.27L150.215 42.272L150.212 42.2746L150.21 42.277L150.208 42.279L150.206 42.2814L150.204 42.2835L150.202 42.2859L150.2 42.288L150.198 42.2905L150.195 42.2926L150.193 42.295L150.191 42.2974L150.189 42.2994L150.187 42.3018L150.185 42.3039L150.183 42.3063L150.181 42.3083L150.179 42.3104L150.177 42.3128L150.175 42.3148L150.173 42.3171L150.171 42.3192L150.169 42.3215L150.167 42.3236L150.165 42.326L150.163 42.3281L150.16 42.3301L150.159 42.3324L150.157 42.3344L150.155 42.3368L150.152 42.3389L150.151 42.3408L150.149 42.3432L150.147 42.3453L150.144 42.3473L150.143 42.3496L150.141 42.3516L150.139 42.3535L150.137 42.3559L150.135 42.358L150.133 42.3599L150.131 42.3623L150.129 42.3642L150.127 42.3663L150.125 42.3682L150.123 42.3706L150.121 42.3725L150.119 42.3745L150.117 42.3765L150.115 42.3785L150.114 42.3808L150.112 42.3827L150.11 42.3847L150.108 42.3866L150.106 42.3886L150.104 42.3906L150.102 42.3929L150.1 42.3948L150.099 42.3967L150.097 42.3987L150.095 42.4007L150.093 42.4026L150.091 42.4045L150.09 42.4064L150.088 42.4083L150.086 42.4102L150.084 42.4121L150.082 42.414L150.081 42.4159L150.079 42.4178L150.077 42.4198L150.075 42.4217L150.073 42.4236L150.072 42.4255L150.07 42.4274L150.068 42.4293L150.066 42.4312L150.065 42.4331L150.063 42.4349L150.061 42.4368L150.06 42.4387L150.058 42.4403L150.056 42.442L150.054 42.444L150.053 42.4459L150.051 42.4476L150.049 42.4495L150.048 42.451L150.046 42.4529L150.045 42.4546L150.043 42.4565L150.041 42.458L150.04 42.4599L150.038 42.4616L150.036 42.4632L150.035 42.465L150.033 42.4667L150.032 42.4686L150.03 42.4701L150.029 42.4718L150.027 42.4734L150.025 42.4752L150.024 42.4769L150.022 42.4783L150.021 42.4801L150.019 42.4815L150.018 42.4833L150.016 42.4847L150.015 42.4865L150.014 42.4879L150.012 42.4896L150.011 42.4911L150.009 42.4928L150.008 42.4943L150.006 42.496L150.005 42.4974L150.003 42.4989L150.002 42.5005L150 42.5019L149.999 42.5037L149.998 42.5051L149.996 42.5064L149.995 42.5081L149.993 42.5095L149.992 42.5108L149.991 42.5122L149.989 42.5138L149.988 42.5153L149.987 42.5165L149.985 42.518L149.984 42.5196L149.983 42.5208L149.981 42.5223L149.98 42.5235L149.979 42.5248L149.978 42.5261L149.976 42.5275L149.975 42.5291L149.974 42.5304L149.973 42.5317L149.972 42.5329L149.97 42.5342L149.969 42.5355L149.968 42.5368L149.967 42.538L149.966 42.5393L149.965 42.5406L149.963 42.5419L149.962 42.5428L149.961 42.5439L149.96 42.5452L149.959 42.5465L149.958 42.5477L149.957 42.5489L149.956 42.5501L149.955 42.5509L149.954 42.5522L149.952 42.5535L149.951 42.5546L149.95 42.5555L149.949 42.5567L149.949 42.5578L149.947 42.5587L149.946 42.5598L149.946 42.561L149.944 42.5619L149.943 42.563L149.943 42.5641L149.942 42.5649L149.941 42.5661L149.94 42.5668L149.939 42.568L149.938 42.5688L149.937 42.5699L149.936 42.5707L149.935 42.5718L149.935 42.5726L149.934 42.5737L149.933 42.5742L149.932 42.5751L149.931 42.5762L149.93 42.577L149.93 42.5777L149.929 42.5788L149.928 42.5792L149.927 42.5802L149.927 42.581L149.926 42.582L149.925 42.5823L149.924 42.5834L149.924 42.584L149.923 42.5847L149.922 42.5855L149.922 42.5864L149.921 42.5867L149.921 42.5877L149.92 42.588L149.919 42.589L149.919 42.5893L149.918 42.5903L149.918 42.5906L149.917 42.5915L149.916 42.5918L149.916 42.5928L149.915 42.5931L149.915 42.5936L149.914 42.5942L149.914 42.5949L149.913 42.596L149.912 42.5963L149.912 42.5968L149.911 42.5979L149.91 42.5983V42.599L149.909 42.5995L149.909 42.6001L149.908 42.6007L149.908 42.6014C149.878 42.6384 149.852 42.6787 149.83 42.7208C149.785 42.8072 149.731 42.9475 149.731 43.1368C149.731 43.3261 149.785 43.4105 149.83 43.4505C149.841 43.4602 149.851 43.4675 149.861 43.4729L150.659 42.9158C150.691 42.8935 150.723 42.8787 150.755 42.8725C150.786 42.8662 150.815 42.8686 150.839 42.8794C150.864 42.8903 150.884 42.9094 150.897 42.9354C150.911 42.9614 150.918 42.9937 150.918 43.03V44.3633C150.918 44.4486 150.958 44.5343 151.038 44.5835C151.118 44.6326 151.213 44.6292 151.289 44.5904L153.367 43.5284C153.572 43.4233 153.691 43.2553 153.769 43.0692C153.855 42.866 153.886 42.6479 153.886 42.5129C153.886 42.3783 153.855 42.1924 153.769 42.0762C153.691 41.9699 153.572 41.9236 153.367 42.0288L152.031 42.7114V42.4611V42.7111C151.984 42.7349 151.939 42.7416 151.901 42.7302C151.863 42.7188 151.835 42.6899 151.82 42.6476L151.82 42.6471L151.819 42.6454L151.817 42.6386L151.807 42.6116C151.757 42.4717 151.707 42.333 151.654 42.1956C151.561 41.9502 151.455 41.6889 151.388 41.5713Z" fill="#545454"/>
</g>
<g clip-path="url(#clip10_1768_921)">
<path fill-rule="evenodd" clip-rule="evenodd" d="M116.779 70.2659C116.631 70.2167 116.449 70.2454 116.263 70.3471C116.077 70.4488 115.899 70.6176 115.758 70.8254L115.707 70.9018C115.614 71.0383 115.54 71.1872 115.491 71.3377C115.442 71.4882 115.418 71.6364 115.422 71.7715C115.426 71.9065 115.457 72.0249 115.513 72.118C115.569 72.2111 115.648 72.2765 115.745 72.3094V72.4284C115.745 72.8374 115.857 73.1704 116.055 73.3947L115.997 73.3883C115.922 73.3785 115.839 73.39 115.753 73.422C115.667 73.454 115.579 73.5059 115.496 73.5748C115.412 73.6436 115.334 73.728 115.266 73.823C115.198 73.9181 115.142 74.0219 115.1 74.1285C115.057 74.235 115.031 74.3422 115.021 74.4439C115.012 74.5455 115.019 74.6396 115.043 74.7206C115.068 74.8016 115.108 74.868 115.163 74.9159C115.217 74.9637 115.284 74.9922 115.36 74.9995L115.561 75.0222C115.422 75.1432 115.296 75.2966 115.196 75.4678C115.097 75.6389 115.026 75.8219 114.991 75.9992C114.957 76.1766 114.959 76.3422 114.999 76.4802C115.038 76.6182 115.114 76.7239 115.217 76.7871L115.514 76.9688C115.6 77.0213 115.702 77.0433 115.816 77.0334C115.929 77.0236 116.05 76.982 116.171 76.9116C116.292 76.8411 116.41 76.7433 116.517 76.6248C116.624 76.5063 116.717 76.3697 116.791 76.2242C116.998 76.2274 117.224 76.1684 117.452 76.0513C117.689 75.9306 117.912 75.7572 118.113 75.5485C118.187 75.6183 118.281 75.6592 118.388 75.6683C118.495 75.6775 118.613 75.6548 118.734 75.6017C118.854 75.5486 118.975 75.4663 119.089 75.3604C119.202 75.2545 119.305 75.1273 119.391 74.9874L119.687 74.5023C119.791 74.3333 119.866 74.1508 119.905 73.9724C119.945 73.794 119.948 73.6258 119.913 73.4838C119.878 73.3418 119.808 73.231 119.708 73.1619C119.608 73.0928 119.482 73.0678 119.343 73.0893L119.544 72.8613C119.692 72.6887 119.801 72.4748 119.847 72.2657C119.892 72.0566 119.871 71.8689 119.788 71.743C119.705 71.6171 119.566 71.5631 119.401 71.5925C119.237 71.6219 119.059 71.7325 118.908 71.9004L118.85 71.9659C119.051 71.5317 119.159 71.0849 119.159 70.6838V70.5515C119.244 70.4257 119.313 70.2893 119.362 70.1508C119.41 70.0122 119.438 69.8746 119.442 69.7464C119.446 69.6183 119.427 69.5024 119.386 69.406C119.345 69.3095 119.283 69.2347 119.203 69.1861L119.161 69.16C119.022 69.0749 118.838 69.0747 118.642 69.1593C118.446 69.2438 118.251 69.4075 118.094 69.6203L118.021 69.7193C117.842 69.7222 117.648 69.7754 117.452 69.8755C117.257 69.9756 117.063 70.1204 116.884 70.3007L116.78 70.2657L116.779 70.2659ZM118.797 73.9573L118.5 74.4423C118.426 74.5665 118.385 74.703 118.386 74.8224C118.387 74.9418 118.43 75.0346 118.505 75.0808C118.581 75.127 118.683 75.1229 118.79 75.0694C118.897 75.0159 118.999 74.9172 119.076 74.7947L119.373 74.3098C119.449 74.185 119.492 74.0468 119.492 73.9255C119.492 73.8042 119.449 73.7099 119.373 73.6631C119.296 73.6164 119.193 73.6212 119.085 73.6764C118.977 73.7315 118.874 73.8325 118.797 73.9573ZM118.563 73.6438C118.561 73.6217 118.559 73.5999 118.557 73.5785C118.55 73.5239 118.562 73.4592 118.59 73.3956C118.618 73.3321 118.66 73.2736 118.71 73.2306C118.723 73.219 118.736 73.2061 118.749 73.1922L119.328 72.5347C119.352 72.5074 119.373 72.4763 119.39 72.4433C119.407 72.4103 119.42 72.376 119.428 72.3424C119.435 72.3087 119.438 72.2764 119.434 72.2473C119.431 72.2182 119.423 72.1928 119.409 72.1726C119.396 72.1524 119.378 72.1377 119.356 72.1295C119.335 72.1213 119.31 72.1197 119.284 72.1247C119.257 72.1298 119.229 72.1414 119.202 72.1589C119.175 72.1765 119.148 72.1996 119.124 72.2269L118.545 72.8842C118.539 72.8908 118.534 72.8975 118.528 72.9044C118.485 72.9593 118.433 73.0008 118.381 73.0217C118.33 73.0425 118.281 73.0414 118.245 73.0184C118.19 72.9841 118.13 72.9593 118.065 72.9444C118.033 72.9371 118.008 72.9184 117.99 72.89C117.973 72.8616 117.964 72.8244 117.965 72.7819C117.966 72.7394 117.976 72.6929 117.995 72.6468C118.013 72.6007 118.04 72.5565 118.072 72.5182C118.268 72.2849 118.43 72.0144 118.542 71.7329C118.655 71.4514 118.714 71.1684 118.714 70.9112V70.6566C118.714 70.6178 118.722 70.5754 118.737 70.5328C118.753 70.4902 118.775 70.4485 118.803 70.4111L118.849 70.3489C118.891 70.2913 118.927 70.2277 118.952 70.1623C118.978 70.0969 118.993 70.0312 118.997 69.9697C119 69.9082 118.993 69.8523 118.974 69.8059C118.956 69.7594 118.927 69.7234 118.889 69.7004L118.846 69.6744C118.783 69.6358 118.7 69.6357 118.61 69.6741C118.521 69.7125 118.433 69.7869 118.362 69.8837L118.18 70.1295C118.147 70.1742 118.107 70.2112 118.066 70.2363C118.025 70.2615 117.984 70.2738 117.947 70.2719L117.884 70.2691C117.75 70.2623 117.602 70.2987 117.453 70.3752C117.303 70.4517 117.155 70.5664 117.021 70.7101L116.959 70.7773C116.922 70.8171 116.88 70.8471 116.839 70.864C116.798 70.8809 116.758 70.884 116.725 70.873L116.512 70.8028C116.445 70.7804 116.362 70.7933 116.278 70.8395C116.193 70.8856 116.113 70.9622 116.048 71.0565L115.904 70.9409L116.048 71.0569L115.997 71.1334C115.952 71.1992 115.917 71.2712 115.895 71.3437C115.873 71.4161 115.863 71.4868 115.868 71.5501C115.873 71.6133 115.892 71.6672 115.923 71.7073C115.954 71.7475 115.997 71.7727 116.047 71.781L116.083 71.7871C116.116 71.7924 116.143 71.8098 116.162 71.8377C116.181 71.8655 116.191 71.9029 116.191 71.9461V72.2007C116.191 72.7264 116.436 73.0849 116.833 73.1517C116.865 73.1572 116.891 73.1742 116.91 73.2012C116.929 73.2282 116.939 73.2642 116.94 73.306C116.94 73.3478 116.932 73.3939 116.914 73.4402C116.897 73.4864 116.871 73.5312 116.84 73.5704C116.775 73.6518 116.715 73.7381 116.66 73.8282C116.624 73.8886 116.575 73.9392 116.523 73.9714C116.471 74.0035 116.419 74.0152 116.376 74.0042C116.371 74.0028 116.366 74.0018 116.36 74.0011L115.78 73.9359C115.732 73.9321 115.675 73.9548 115.623 73.9993C115.57 74.0438 115.526 74.1064 115.499 74.1738C115.473 74.2412 115.466 74.308 115.481 74.36C115.495 74.412 115.53 74.445 115.577 74.4519L116.156 74.5173C116.168 74.5187 116.181 74.5183 116.194 74.5162C116.244 74.5085 116.287 74.5234 116.315 74.5584C116.343 74.5933 116.355 74.6462 116.348 74.7077C116.346 74.7316 116.344 74.7552 116.342 74.7787C116.37 74.7888 116.397 74.8018 116.422 74.8177L116.719 74.9994C116.811 75.0557 116.881 75.1459 116.923 75.263C116.965 75.3801 116.979 75.521 116.962 75.6748C117.114 75.6809 117.282 75.6387 117.452 75.5513C117.629 75.4612 117.795 75.3303 117.943 75.173C117.926 75.0366 117.939 74.8825 117.981 74.7226C118.023 74.5627 118.093 74.4014 118.185 74.2509L118.185 74.2499L118.482 73.7649L118.492 73.7494C118.515 73.713 118.538 73.6781 118.563 73.6441V73.6438ZM116.444 75.5447C116.432 75.5326 116.419 75.5222 116.405 75.5135L116.108 75.3319C116.031 75.2851 115.928 75.2899 115.82 75.3451C115.712 75.4003 115.608 75.5014 115.532 75.6262C115.456 75.751 115.413 75.8892 115.413 76.0105C115.413 76.1317 115.456 76.2261 115.532 76.2728L115.829 76.4545C115.901 76.5003 115.999 76.4992 116.102 76.4513C116.206 76.4033 116.307 76.3122 116.385 76.1964C116.463 76.0806 116.513 75.9488 116.524 75.8278C116.535 75.7067 116.506 75.6055 116.444 75.5447ZM117.007 71.6122C116.948 71.6424 116.891 71.6977 116.85 71.7659C116.808 71.8341 116.785 71.9097 116.785 71.976C116.785 72.0423 116.808 72.0939 116.85 72.1194C116.891 72.145 116.948 72.1424 117.007 72.1122L117.01 72.1107C117.069 72.0805 117.126 72.0252 117.168 71.957C117.209 71.8888 117.233 71.8132 117.233 71.7469C117.233 71.6806 117.209 71.629 117.168 71.6035C117.126 71.5779 117.069 71.5805 117.01 71.6107L117.007 71.6122ZM117.147 72.2809C117.187 72.2152 117.241 72.1613 117.298 72.1304C117.355 72.0995 117.41 72.0938 117.452 72.1147C117.496 72.0487 117.552 71.9965 117.61 71.9693C117.669 71.9421 117.724 71.9421 117.764 71.9692C117.804 71.9962 117.825 72.0483 117.824 72.1142C117.823 72.1801 117.8 72.2546 117.758 72.3217L117.61 72.5642C117.568 72.6324 117.511 72.6876 117.452 72.7178C117.393 72.7479 117.337 72.7505 117.295 72.7251L117.147 72.6342C117.126 72.6216 117.11 72.6024 117.098 72.5778C117.087 72.5532 117.081 72.5236 117.081 72.4908C117.081 72.4579 117.087 72.4224 117.098 72.3864C117.11 72.3503 117.126 72.3144 117.147 72.2806V72.2809ZM117.675 71.5209C117.675 71.4546 117.698 71.379 117.74 71.3108C117.782 71.2426 117.839 71.1873 117.898 71.1571L117.901 71.1556C117.96 71.1254 118.016 71.1228 118.058 71.1484C118.1 71.1739 118.123 71.2255 118.123 71.2918C118.123 71.3581 118.1 71.4337 118.058 71.5019C118.016 71.5701 117.96 71.6254 117.901 71.6556L117.898 71.6571C117.839 71.6873 117.782 71.6899 117.74 71.6643C117.698 71.6388 117.675 71.5872 117.675 71.5209Z" fill="#545454"/>
</g>
<g clip-path="url(#clip11_1768_921)">
<path fill-rule="evenodd" clip-rule="evenodd" d="M129.028 64.8744C129.443 64.2482 129.852 63.8386 130.252 63.634C130.703 63.4036 131.09 63.4601 131.411 63.6566C132.116 64.0873 132.066 65.4398 131.114 66.995L129.816 69.117L129.362 69.8599L129.232 70.072L129.197 70.1283L129.188 70.1429L129.186 70.1466L129.186 70.1476L129.028 70.0514L128.871 70.3085L128.87 70.3087L128.87 70.3083L128.867 70.3068L128.858 70.3014L128.824 70.2803L128.694 70.201L128.24 69.9226L126.941 69.1279C125.989 68.5458 125.94 67.2436 126.645 66.093C126.965 65.5685 127.353 65.116 127.804 64.8856C128.204 64.6809 128.613 64.6727 129.028 64.8744ZM129.028 70.0514L128.871 70.3085C128.912 70.334 128.969 70.3314 129.028 70.3012C129.087 70.2711 129.143 70.2159 129.185 70.1477L129.028 70.0514ZM129.028 69.6981L129.047 69.6672L129.501 68.9246L130.8 66.8024C131.629 65.4474 131.58 64.4666 131.097 64.1707C130.824 64.0042 130.543 63.9852 130.252 64.134C129.961 64.2828 129.606 64.6266 129.185 65.3144C129.143 65.3825 129.087 65.4377 129.028 65.4679C128.969 65.498 128.912 65.5007 128.871 65.4752C128.449 65.2179 128.094 65.2369 127.803 65.3857C127.512 65.5345 127.231 65.8404 126.959 66.2856C126.476 67.0751 126.427 68.1063 127.256 68.6139L128.554 69.4086L129.009 69.6863L129.028 69.6979L129.028 69.6981Z" fill="#545454"/>
</g>
<g clip-path="url(#clip12_1768_921)">
<path fill-rule="evenodd" clip-rule="evenodd" d="M138.007 59.9625C138.007 59.8962 138.03 59.8206 138.072 59.7524C138.114 59.6842 138.17 59.6289 138.229 59.5987L142.385 57.4749C142.444 57.4448 142.5 57.4422 142.542 57.4678L143.136 57.8311C143.178 57.8564 143.201 57.908 143.201 57.9744V62.641C143.201 62.7073 143.178 62.7829 143.136 62.8511C143.094 62.9194 143.037 62.9746 142.978 63.0048L138.229 65.4321C138.17 65.4623 138.114 65.4649 138.072 65.4393C138.03 65.4138 138.007 65.3622 138.007 65.2959V59.9625ZM139.342 64.3632L141.865 63.0737V60.5737L139.342 61.8632V64.3632ZM142.311 62.8462V60.0962C142.311 60.0299 142.287 59.9782 142.245 59.9527C142.204 59.9272 142.147 59.9298 142.088 59.9599L139.12 61.477C139.061 61.5071 139.004 61.5624 138.962 61.6306C138.921 61.6989 138.897 61.7744 138.897 61.8407V64.5907L138.452 64.8183V59.985L139.194 59.6057V60.3557C139.194 60.4937 139.294 60.5547 139.417 60.4919L141.791 59.2783C141.85 59.2481 141.907 59.1928 141.949 59.1246C141.99 59.0564 142.014 58.9808 142.014 58.9145V58.1645L142.293 58.0219L142.756 58.3053V62.6186L142.311 62.8462ZM141.569 58.8921V58.3921L139.639 59.3782V59.8782L141.569 58.8921ZM139.788 62.3856C139.788 62.3193 139.811 62.2438 139.853 62.1755C139.895 62.1073 139.951 62.052 140.01 62.0219L141.198 61.415C141.257 61.3849 141.313 61.3823 141.355 61.4078C141.397 61.4334 141.42 61.485 141.42 61.5513C141.42 61.6176 141.397 61.6931 141.355 61.7614C141.313 61.8296 141.257 61.8849 141.198 61.915L140.01 62.5219C139.951 62.552 139.895 62.5546 139.853 62.5291C139.811 62.5035 139.788 62.4519 139.788 62.3856ZM140.01 63.0219C139.951 63.052 139.895 63.1073 139.853 63.1755C139.811 63.2438 139.788 63.3193 139.788 63.3856C139.788 63.4519 139.811 63.5035 139.853 63.5291C139.895 63.5546 139.951 63.552 140.01 63.5219L140.901 63.0667C140.96 63.0366 141.016 62.9813 141.058 62.9131C141.1 62.8448 141.123 62.7693 141.123 62.703C141.123 62.6367 141.1 62.5851 141.058 62.5595C141.016 62.534 140.96 62.5366 140.901 62.5667L140.01 63.0219Z" fill="#545454"/>
</g>
<g clip-path="url(#clip13_1768_921)">
<path fill-rule="evenodd" clip-rule="evenodd" d="M152.277 52.3325C152.283 52.3622 152.282 52.3956 152.276 52.4309C152.269 52.4662 152.258 52.5026 152.241 52.5381C152.224 52.5736 152.203 52.6074 152.178 52.6377C152.154 52.668 152.126 52.6941 152.097 52.7145C151.6 53.0686 151.15 53.5918 150.826 54.1924C150.502 54.793 150.324 55.4328 150.324 56V56.0367L150.315 56.0765L149.956 57.6051L150.399 57.3787C150.458 57.3486 150.514 57.346 150.556 57.3715C150.598 57.3971 150.621 57.4487 150.621 57.515V58.1816C150.621 58.4116 150.787 58.5133 150.992 58.4087L151.883 57.9536C151.942 57.9234 151.998 57.9208 152.04 57.9463C152.082 57.9719 152.105 58.0235 152.105 58.0898V58.5898C152.105 58.6561 152.082 58.7317 152.04 58.7999C151.998 58.8681 151.942 58.9234 151.883 58.9536C151.824 58.9837 151.767 58.9863 151.725 58.9608C151.684 58.9352 151.66 58.8836 151.66 58.8173V58.5673L150.992 58.9087C150.776 59.0193 150.568 59.0288 150.415 58.9352C150.262 58.8415 150.176 58.6523 150.176 58.4092V57.9925L149.657 58.258C149.622 58.2757 149.588 58.2841 149.557 58.2824C149.526 58.2808 149.499 58.2691 149.478 58.2484C149.457 58.2277 149.443 58.1985 149.437 58.1632C149.431 58.1279 149.434 58.0874 149.444 58.0449L149.88 56.1897C149.887 55.5077 150.105 54.7425 150.496 54.0257C150.886 53.3089 151.425 52.6852 152.02 52.262C152.078 52.2207 152.137 52.205 152.186 52.2182C152.234 52.2314 152.267 52.2725 152.277 52.3325ZM154.751 52.9293C154.779 52.9078 154.809 52.8922 154.838 52.8834C154.866 52.8746 154.894 52.8728 154.918 52.8781C154.943 52.8834 154.964 52.8956 154.981 52.9142C154.997 52.9327 155.009 52.9572 155.015 52.9861C155.054 53.1689 155.074 53.3655 155.073 53.5727C155.074 54.2498 154.864 55.0136 154.48 55.7321V57.3761C154.48 57.4425 154.456 57.518 154.415 57.5863C154.373 57.6545 154.316 57.7098 154.257 57.7399C154.198 57.7701 154.142 57.7727 154.1 57.7472C154.058 57.7216 154.035 57.67 154.035 57.6037V55.773L154.09 55.6735C154.438 55.055 154.629 54.3886 154.628 53.8003C154.628 53.6283 154.612 53.4652 154.58 53.3135C154.568 53.2551 154.579 53.1818 154.611 53.1099C154.643 53.0379 154.693 52.9731 154.751 52.9296V52.9293ZM153.144 51.8088C152.934 51.9163 152.73 52.1041 152.569 52.3388C152.408 52.5735 152.301 52.84 152.266 53.091L152.254 53.0973C152.096 53.1777 151.945 53.3251 151.834 53.5071C151.723 53.689 151.66 53.8905 151.66 54.0673C151.66 54.2441 151.723 54.3817 151.834 54.4499C151.945 54.518 152.096 54.5111 152.254 54.4306L153.886 53.5962C154.08 53.497 154.267 53.3161 154.406 53.0925C154.544 52.8689 154.624 52.6204 154.628 52.4004C154.632 52.1803 154.56 52.0062 154.426 51.9155C154.293 51.8247 154.11 51.8246 153.916 51.9151C153.838 51.8027 153.725 51.7337 153.59 51.715C153.454 51.6964 153.301 51.7287 153.144 51.8088ZM152.699 53.0364C152.699 52.9184 152.736 52.7851 152.804 52.6602C152.871 52.5352 152.965 52.4267 153.069 52.3537C153.173 52.2808 153.279 52.2482 153.37 52.2617C153.46 52.2752 153.529 52.3339 153.564 52.4275C153.596 52.5114 153.68 52.535 153.774 52.4869L153.886 52.4296C153.965 52.3893 154.04 52.3859 154.096 52.4199C154.152 52.454 154.183 52.5228 154.183 52.6112C154.183 52.6996 154.152 52.8004 154.096 52.8913C154.04 52.9823 153.965 53.056 153.886 53.0962L152.254 53.9306C152.214 53.9507 152.177 53.9524 152.149 53.9354C152.121 53.9184 152.105 53.884 152.105 53.8398C152.105 53.7956 152.121 53.7452 152.149 53.6997C152.177 53.6542 152.214 53.6174 152.254 53.5973L152.476 53.4835C152.535 53.4533 152.592 53.398 152.634 53.3298C152.675 53.2616 152.699 53.186 152.699 53.1197V53.0364Z" fill="#545454"/>
</g>
<g clip-path="url(#clip14_1768_921)">
<path fill-rule="evenodd" clip-rule="evenodd" d="M116.349 82.4669C116.315 82.4687 116.279 82.4816 116.242 82.5043C116.206 82.5271 116.171 82.5591 116.141 82.5974C116.111 82.6358 116.086 82.6794 116.069 82.7244C116.052 82.7693 116.043 82.8143 116.043 82.8553V83.5739C115.772 83.9441 115.55 84.3528 115.391 84.7719L114.781 85.0834C114.722 85.1135 114.666 85.1688 114.624 85.237C114.582 85.3052 114.559 85.3808 114.559 85.4471V87.2805C114.559 87.4185 114.658 87.4795 114.781 87.4167L115.476 87.0617C115.684 87.3305 115.982 87.4934 116.339 87.5406V88.5369C116.339 88.6032 116.363 88.6548 116.405 88.6804C116.446 88.7059 116.503 88.7033 116.562 88.6731C116.621 88.643 116.678 88.5877 116.719 88.5195C116.761 88.4512 116.785 88.3757 116.785 88.3094V87.542C117.095 87.5061 117.421 87.4016 117.749 87.233C118.088 87.06 118.414 86.8278 118.714 86.5549V87.3233C118.714 87.3896 118.737 87.4412 118.779 87.4667C118.821 87.4923 118.878 87.4897 118.937 87.4595C118.996 87.4293 119.052 87.374 119.094 87.3058C119.136 87.2376 119.159 87.162 119.159 87.0957V86.0984C119.868 85.2813 120.346 84.2459 120.346 83.3222C120.346 81.8652 119.155 81.348 117.749 82.0663C117.553 82.1667 117.361 82.2866 117.176 82.4224L116.349 82.4666V82.4669ZM116.488 83.4727V82.9994L117.072 82.9677C117.114 82.9654 117.16 82.946 117.205 82.912C117.383 82.7757 117.566 82.6597 117.749 82.5663C118.967 81.9442 119.901 82.4298 119.901 83.5498C119.901 84.6698 118.967 86.1108 117.749 86.733C116.876 87.1796 116.138 87.0541 115.799 86.5272C115.78 86.4974 115.752 86.4788 115.717 86.4734C115.683 86.468 115.643 86.4761 115.603 86.4966L115.004 86.8029V85.4696L115.531 85.2003C115.574 85.1782 115.616 85.1423 115.653 85.0971C115.689 85.052 115.718 84.9994 115.735 84.9459C115.869 84.5324 116.097 84.1105 116.393 83.7261C116.453 83.6488 116.488 83.5544 116.488 83.4727ZM116.958 84.2776C117.49 83.7077 118.009 83.4422 118.54 83.469C118.567 83.4706 118.595 83.465 118.624 83.4525C118.654 83.4401 118.683 83.421 118.711 83.3964C118.739 83.3718 118.765 83.3422 118.787 83.3093C118.809 83.2763 118.827 83.2407 118.84 83.2045C118.854 83.1683 118.861 83.1321 118.863 83.0982C118.865 83.0642 118.862 83.0332 118.852 83.0067C118.843 82.9803 118.828 82.959 118.809 82.9441C118.789 82.9293 118.766 82.9211 118.739 82.92C118.083 82.887 117.415 83.2283 116.759 83.9319C116.707 83.9886 116.667 84.0608 116.649 84.1329C116.631 84.2049 116.635 84.271 116.661 84.3166C116.688 84.3622 116.733 84.3837 116.789 84.3764C116.845 84.3691 116.906 84.3336 116.958 84.2776Z" fill="#545454"/>
</g>
<g clip-path="url(#clip15_1768_921)">
<path fill-rule="evenodd" clip-rule="evenodd" d="M131.533 75.0686C131.562 75.0772 131.585 75.0957 131.601 75.1228C131.617 75.1498 131.625 75.1845 131.625 75.2241V80.5574C131.625 80.6237 131.602 80.6993 131.56 80.7675C131.518 80.8358 131.462 80.891 131.403 80.9212C131.344 80.9514 131.287 80.954 131.245 80.9284C131.204 80.9029 131.18 80.8513 131.18 80.785V78.7017L131.106 78.7396C130.889 78.8502 130.682 78.8598 130.529 78.7661C130.376 78.6724 130.29 78.4832 130.29 78.2401V77.2011C130.29 76.8688 130.383 76.4973 130.556 76.1393C130.729 75.7813 130.973 75.4549 131.254 75.2064L131.332 75.1365C131.366 75.107 131.401 75.0854 131.436 75.0736C131.471 75.0619 131.504 75.06 131.533 75.0686ZM131.18 78.2017V75.833C131.044 76.0007 130.931 76.1931 130.853 76.3925C130.776 76.5918 130.735 76.7916 130.735 76.9735V78.0125C130.735 78.2425 130.901 78.3443 131.106 78.2396L131.18 78.2017ZM126.876 77.6514C126.876 77.5851 126.853 77.5335 126.811 77.5079C126.769 77.4824 126.713 77.485 126.654 77.5151C126.595 77.5453 126.538 77.6006 126.496 77.6688C126.455 77.737 126.431 77.8126 126.431 77.8789V79.5456C126.431 79.9653 126.682 80.1906 127.025 80.1242V82.9088C127.025 82.9751 127.048 83.0268 127.09 83.0523C127.132 83.0778 127.188 83.0752 127.247 83.0451C127.306 83.0149 127.363 82.9596 127.405 82.8914C127.447 82.8232 127.47 82.7476 127.47 82.6813V79.8966C127.641 79.7548 127.791 79.5623 127.898 79.3484C128.006 79.1345 128.064 78.9108 128.064 78.7112V77.0445C128.064 76.9782 128.04 76.9266 127.998 76.9011C127.957 76.8755 127.9 76.8782 127.841 76.9083C127.782 76.9385 127.725 76.9938 127.684 77.062C127.642 77.1302 127.618 77.2058 127.618 77.2721V78.9388C127.618 79.0493 127.579 79.1752 127.51 79.2889C127.44 79.4026 127.346 79.4948 127.247 79.5451C127.149 79.5954 127.055 79.5997 126.985 79.5571C126.915 79.5145 126.876 79.4285 126.876 79.318V77.6514ZM127.47 77.348C127.47 77.2817 127.447 77.2301 127.405 77.2045C127.363 77.179 127.306 77.1816 127.247 77.2117C127.188 77.2419 127.132 77.2972 127.09 77.3654C127.048 77.4336 127.025 77.5092 127.025 77.5755V78.7422C127.025 78.8085 127.048 78.8601 127.09 78.8856C127.132 78.9112 127.188 78.9086 127.247 78.8784C127.306 78.8482 127.363 78.7929 127.405 78.7247C127.447 78.6565 127.47 78.5809 127.47 78.5146V77.348ZM128.954 79.1448C128.861 79.1679 128.773 79.1689 128.695 79.1477C128.573 79.1114 128.478 79.023 128.423 78.893C128.318 78.6581 128.323 78.3133 128.363 78.0216C128.401 77.6679 128.473 77.3088 128.587 77.0028C128.7 76.7025 128.889 76.3728 129.177 76.2257C129.461 76.0805 129.65 76.2059 129.765 76.3915C129.881 76.5777 129.952 76.8651 129.991 77.1902C130.03 77.4414 130.035 77.7809 129.93 78.123C129.875 78.309 129.781 78.494 129.658 78.6556C129.582 78.7551 129.495 78.8424 129.399 78.9172V81.6952C129.399 81.7615 129.376 81.8371 129.334 81.9053C129.292 81.9735 129.236 82.0288 129.177 82.059C129.118 82.0892 129.061 82.0918 129.019 82.0662C128.978 82.0407 128.954 81.9891 128.954 81.9228V79.1448ZM128.804 77.8649C128.839 77.5383 128.901 77.2478 128.982 77.0325C129.066 76.8101 129.137 76.746 129.177 76.7257C129.22 76.7034 129.291 76.6951 129.372 76.8258C129.452 76.9549 129.514 77.1813 129.549 77.4828L129.55 77.4875L129.551 77.4922C129.584 77.7029 129.579 77.9443 129.518 78.1442C129.489 78.2392 129.45 78.3158 129.402 78.377C129.356 78.4372 129.286 78.5029 129.177 78.559C129.067 78.6151 128.997 78.6208 128.951 78.6076C128.898 78.5906 128.858 78.5508 128.835 78.4931C128.774 78.3557 128.769 78.1198 128.803 77.8745L128.803 77.8698L128.804 77.8649Z" fill="#545454"/>
</g>
<g clip-path="url(#clip16_1768_921)">
<path fill-rule="evenodd" clip-rule="evenodd" d="M142.904 69.4661C142.904 69.4279 142.896 69.3941 142.882 69.3672C142.867 69.3402 142.846 69.3208 142.819 69.3103C142.793 69.2998 142.762 69.2985 142.729 69.3066C142.696 69.3146 142.662 69.3317 142.629 69.3567L142.52 69.4389C141.257 70.3886 139.95 71.0563 138.687 71.398L138.578 71.427C138.545 71.436 138.511 71.454 138.478 71.4797C138.445 71.5055 138.414 71.5383 138.387 71.5757C138.361 71.6131 138.34 71.6543 138.325 71.6961C138.311 71.7379 138.303 71.7794 138.303 71.8175V74.8108C138.303 75.4959 138.546 76.0292 138.977 76.2931C139.408 76.5571 139.993 76.5303 140.604 76.2184C141.214 75.9066 141.799 75.3354 142.23 74.6304C142.661 73.9255 142.904 73.1445 142.904 72.4594V69.4661ZM138.748 71.8909C139.973 71.5362 141.234 70.892 142.459 69.9946V72.687C142.459 73.2395 142.263 73.8693 141.915 74.4378C141.567 75.0063 141.096 75.467 140.604 75.7184C140.112 75.9699 139.64 75.9916 139.292 75.7787C138.944 75.5658 138.748 75.1358 138.748 74.5832V71.8909ZM139.936 72.8098C139.936 72.6109 140.006 72.3841 140.131 72.1795C140.257 71.9748 140.426 71.809 140.604 71.7184C140.781 71.6279 140.95 71.6201 141.076 71.6967C141.201 71.7734 141.271 71.9282 141.271 72.1271V72.3771L141.346 72.3392C141.55 72.2345 141.717 72.3362 141.717 72.5662V73.7329C141.717 73.7992 141.693 73.8748 141.651 73.943C141.61 74.0112 141.553 74.0665 141.494 74.0967L139.713 75.0069C139.654 75.0371 139.597 75.0397 139.556 75.0141C139.514 74.9886 139.49 74.937 139.49 74.8707V73.704C139.49 73.474 139.657 73.2024 139.861 73.0977L139.936 73.0598V72.8098ZM140.826 72.3547V72.6047L140.381 72.8322V72.5822C140.381 72.5159 140.404 72.4403 140.446 72.3721C140.488 72.3039 140.544 72.2486 140.604 72.2184C140.663 72.1883 140.719 72.1857 140.761 72.2112C140.803 72.2368 140.826 72.2884 140.826 72.3547ZM139.936 73.5598V74.3931L141.271 73.7104V72.8771L139.936 73.5598Z" fill="#545454"/>
</g>
<g clip-path="url(#clip17_1768_921)">
<path fill-rule="evenodd" clip-rule="evenodd" d="M151.076 64.7175C151.042 64.7193 151.006 64.7322 150.969 64.7549C150.933 64.7777 150.898 64.8097 150.868 64.8481C150.838 64.8864 150.813 64.93 150.796 64.975C150.779 65.0199 150.77 65.0649 150.77 65.1059V65.8246C150.499 66.1947 150.277 66.6034 150.118 67.0225L149.508 67.334C149.449 67.3641 149.393 67.4194 149.351 67.4876C149.309 67.5559 149.286 67.6314 149.286 67.6977V69.5311C149.286 69.6691 149.385 69.7301 149.508 69.6673L150.203 69.3123C150.411 69.5811 150.709 69.744 151.067 69.7912V70.7875C151.067 70.8538 151.09 70.9054 151.132 70.931C151.173 70.9565 151.23 70.9539 151.289 70.9237C151.348 70.8936 151.405 70.8383 151.447 70.7701C151.488 70.7018 151.512 70.6263 151.512 70.56V69.7926C151.822 69.7567 152.148 69.6522 152.476 69.4836C152.815 69.3106 153.141 69.0784 153.441 68.8056V69.5739C153.441 69.6402 153.464 69.6918 153.506 69.7173C153.548 69.7429 153.605 69.7403 153.664 69.7101C153.723 69.6799 153.779 69.6247 153.821 69.5564C153.863 69.4882 153.886 69.4126 153.886 69.3463V68.349C154.595 67.5319 155.073 66.4965 155.073 65.5729C155.073 64.1159 153.882 63.5986 152.476 64.3169C152.28 64.4174 152.088 64.5372 151.904 64.673L151.076 64.7172V64.7175ZM151.215 65.7233V65.25L151.799 65.2183C151.841 65.216 151.887 65.1966 151.932 65.1626C152.11 65.0263 152.293 64.9103 152.476 64.8169C153.694 64.1948 154.628 64.6804 154.628 65.8004C154.628 66.9204 153.694 68.3615 152.476 68.9836C151.603 69.4302 150.865 69.3047 150.526 68.7778C150.507 68.748 150.479 68.7294 150.444 68.724C150.41 68.7187 150.37 68.7267 150.33 68.7472L149.731 69.0535V67.7202L150.258 67.4509C150.301 67.4288 150.343 67.3929 150.38 67.3478C150.416 67.3026 150.445 67.25 150.462 67.1965C150.596 66.783 150.824 66.3611 151.12 65.9767C151.18 65.8994 151.215 65.805 151.215 65.7233ZM151.685 66.5282C152.217 65.9583 152.736 65.6928 153.267 65.7196C153.294 65.7212 153.322 65.7156 153.351 65.7032C153.381 65.6907 153.41 65.6716 153.438 65.647C153.466 65.6224 153.492 65.5928 153.514 65.5599C153.536 65.5269 153.554 65.4913 153.568 65.4551C153.581 65.4189 153.588 65.3827 153.59 65.3488C153.592 65.3149 153.589 65.2838 153.579 65.2573C153.57 65.2309 153.555 65.2096 153.536 65.1947C153.516 65.1799 153.493 65.1717 153.466 65.1707C152.81 65.1376 152.142 65.4789 151.487 66.1825C151.434 66.2392 151.394 66.3114 151.376 66.3835C151.358 66.4555 151.362 66.5216 151.388 66.5672C151.415 66.6128 151.46 66.6343 151.516 66.627C151.572 66.6197 151.633 66.5842 151.685 66.5282Z" fill="#545454"/>
</g>
<g clip-path="url(#clip18_1768_921)">
<path fill-rule="evenodd" clip-rule="evenodd" d="M115.746 95.007C115.746 94.9407 115.769 94.8651 115.811 94.7969C115.853 94.7286 115.909 94.6734 115.968 94.6432L118.937 93.1261C118.996 93.096 119.052 93.0934 119.094 93.1189C119.136 93.1445 119.159 93.1961 119.159 93.2624V94.679L119.827 94.3377C120.114 94.1911 120.346 94.3335 120.346 94.6555V97.6555C120.346 97.7219 120.323 97.7974 120.281 97.8656C120.239 97.9339 120.183 97.9891 120.124 98.0193L119.159 98.5124V99.2624C119.159 99.3287 119.136 99.4042 119.094 99.4725C119.052 99.5407 118.996 99.596 118.937 99.6261L115.968 101.143C115.909 101.173 115.853 101.176 115.811 101.15C115.769 101.125 115.746 101.073 115.746 101.007V100.257L114.781 100.75C114.722 100.78 114.666 100.783 114.624 100.757C114.582 100.732 114.559 100.68 114.559 100.614V97.6138C114.559 97.2918 114.791 96.9115 115.078 96.765L115.746 96.4236V95.007ZM115.746 99.757V98.007C115.746 97.9407 115.769 97.8651 115.811 97.7969C115.853 97.7286 115.909 97.6734 115.968 97.6432L118.937 96.1261C118.996 96.096 119.052 96.0934 119.094 96.1189C119.136 96.1445 119.159 96.1961 119.159 96.2624V98.0124L119.901 97.6331V94.8831C119.901 94.861 119.893 94.8438 119.879 94.8353C119.866 94.8268 119.847 94.8276 119.827 94.8377L115.078 97.265C115.058 97.275 115.039 97.2934 115.026 97.3162C115.012 97.3389 115.004 97.3641 115.004 97.3862V100.136L115.746 99.757ZM118.714 93.7399V94.9066L116.191 96.1961V95.0294L118.714 93.7399ZM116.191 100.529V98.0294L118.714 96.7399V99.2399L116.191 100.529ZM116.636 98.5518C116.636 98.4855 116.66 98.41 116.701 98.3417C116.743 98.2735 116.8 98.2182 116.859 98.1881L118.046 97.5813C118.105 97.5511 118.162 97.5485 118.204 97.574C118.245 97.5996 118.269 97.6512 118.269 97.7175C118.269 97.7838 118.245 97.8594 118.204 97.9276C118.162 97.9958 118.105 98.0511 118.046 98.0813L116.859 98.6881C116.8 98.7182 116.743 98.7208 116.701 98.6953C116.66 98.6697 116.636 98.6181 116.636 98.5518ZM116.859 99.1881C116.8 99.2182 116.743 99.2735 116.701 99.3417C116.66 99.41 116.636 99.4855 116.636 99.5518C116.636 99.6181 116.66 99.6697 116.701 99.6953C116.743 99.7208 116.8 99.7182 116.859 99.6881L117.601 99.3088C117.66 99.2786 117.717 99.2234 117.758 99.1551C117.8 99.0869 117.824 99.0113 117.824 98.945C117.824 98.8787 117.8 98.8271 117.758 98.8016C117.717 98.776 117.66 98.7786 117.601 98.8088L116.859 99.1881Z" fill="#545454"/>
</g>
<g clip-path="url(#clip19_1768_921)">
<path fill-rule="evenodd" clip-rule="evenodd" d="M128.398 88.4017C128.418 88.3571 128.446 88.3149 128.478 88.279C128.51 88.243 128.546 88.2144 128.583 88.1957L128.947 88.0099C129.076 87.9437 129.203 87.9131 129.319 87.9204C129.434 87.9278 129.533 87.9729 129.609 88.0521C129.684 88.1313 129.734 88.2423 129.754 88.3759C129.773 88.5096 129.762 88.662 129.721 88.8207L129.486 89.7344L131.071 88.9243C131.196 88.8601 131.32 88.8292 131.433 88.8342C131.545 88.8391 131.643 88.8797 131.719 88.9528C131.796 89.0259 131.848 89.1295 131.872 89.2555C131.896 89.3816 131.891 89.5267 131.858 89.6797L131.291 92.3027C131.244 92.5208 131.142 92.7444 130.999 92.9392C130.857 93.134 130.683 93.289 130.504 93.3806L128.88 94.2107C128.865 94.2181 128.851 94.2239 128.836 94.228L127.374 94.6471L126.357 95.1668C126.298 95.197 126.241 95.1996 126.199 95.1741C126.158 95.1485 126.134 95.0969 126.134 95.0306V91.6973C126.134 91.631 126.158 91.5554 126.199 91.4872C126.241 91.4189 126.298 91.3637 126.357 91.3335L127.277 90.8634L128.398 88.4017ZM128.702 88.6349L127.581 91.0965C127.561 91.1412 127.533 91.1833 127.501 91.2193C127.468 91.2552 127.432 91.2838 127.396 91.3025L126.579 91.7197V94.553L127.396 94.1359C127.411 94.1283 127.425 94.1225 127.439 94.1186L128.902 93.6994L130.504 92.8806C130.585 92.839 130.664 92.7685 130.729 92.6799C130.794 92.5914 130.84 92.4897 130.862 92.3906L131.429 89.7675C131.444 89.698 131.446 89.6319 131.435 89.5746C131.424 89.5173 131.4 89.4702 131.366 89.437C131.331 89.4038 131.286 89.3854 131.235 89.3832C131.184 89.381 131.127 89.3951 131.07 89.4244L129.177 90.3923C129.141 90.4103 129.107 90.4186 129.075 90.4166C129.044 90.4146 129.017 90.4023 128.996 90.3807C128.976 90.3591 128.962 90.3288 128.957 90.2924C128.951 90.256 128.954 90.2144 128.966 90.1712L129.299 88.8783C129.317 88.8062 129.322 88.7369 129.313 88.6762C129.304 88.6154 129.282 88.565 129.248 88.529C129.213 88.4931 129.168 88.4726 129.116 88.4692C129.063 88.4659 129.005 88.4798 128.947 88.5099L128.702 88.6349Z" fill="#545454"/>
</g>
<g clip-path="url(#clip20_1768_921)">
<path fill-rule="evenodd" clip-rule="evenodd" d="M139.71 83.1971C139.153 83.7282 138.695 84.4286 138.422 85.1668L139.526 84.6026C139.569 84.1407 139.63 83.6715 139.71 83.1971ZM140.194 82.7995C140.097 83.3314 140.024 83.8569 139.974 84.3737L141.234 83.7297C141.184 83.2639 141.11 82.8136 141.013 82.3808C140.742 82.468 140.465 82.6096 140.194 82.7995ZM139.488 85.1222L138.247 85.7563C138.186 86.0317 138.155 86.2999 138.155 86.5533C138.155 86.8133 138.187 87.0486 138.247 87.2563L139.488 86.6222C139.459 86.1376 139.459 85.6365 139.488 85.1222ZM139.934 86.3942C139.904 85.9103 139.904 85.4091 139.934 84.8942L141.274 84.2094C141.304 84.6971 141.304 85.1928 141.274 85.7094L139.934 86.394L139.934 86.3942ZM139.526 87.1028L138.422 87.6668C138.695 88.126 139.153 88.3581 139.71 88.3194C139.63 87.927 139.569 87.521 139.526 87.1028ZM140.194 88.2228C140.097 87.7899 140.024 87.3396 139.974 86.8738L141.234 86.2297C141.184 86.7466 141.11 87.2721 141.013 87.8041C140.742 87.9939 140.465 88.1354 140.194 88.2228ZM141.72 85.4812C141.749 84.9657 141.749 84.4697 141.72 83.9812L142.96 83.3474C143.021 83.5549 143.053 83.7902 143.053 84.0502C143.053 84.3037 143.022 84.5719 142.961 84.8472L141.72 85.4812ZM141.498 82.284C142.055 82.2453 142.513 82.4774 142.786 82.9366L141.682 83.5009C141.639 83.0826 141.578 82.6765 141.498 82.284ZM141.682 86.0009L142.786 85.4366C142.513 86.1747 142.055 86.875 141.498 87.406C141.579 86.9161 141.641 86.4501 141.682 86.0009ZM137.71 86.7809C137.71 84.9859 139.006 82.8687 140.604 82.0518C142.202 81.2348 143.498 82.0277 143.498 83.8227C143.498 85.6177 142.202 87.7348 140.604 88.5518C139.006 89.3687 137.71 88.5759 137.71 86.7809Z" fill="#545454"/>
</g>
<g clip-path="url(#clip21_1768_921)">
<path fill-rule="evenodd" clip-rule="evenodd" d="M150.473 77.2576C150.473 77.1913 150.496 77.1157 150.538 77.0475C150.58 76.9792 150.636 76.924 150.695 76.8938L153.664 75.3768C153.723 75.3466 153.779 75.344 153.821 75.3695C153.863 75.3951 153.886 75.4467 153.886 75.513V76.9296L154.554 76.5883C154.841 76.4418 155.073 76.5842 155.073 76.9062V79.9062C155.073 79.9725 155.05 80.048 155.008 80.1163C154.967 80.1845 154.91 80.2398 154.851 80.2699L153.886 80.763V81.513C153.886 81.5793 153.863 81.6549 153.821 81.7231C153.779 81.7913 153.723 81.8466 153.664 81.8768L150.695 83.3938C150.636 83.424 150.58 83.4266 150.538 83.401C150.496 83.3755 150.473 83.3239 150.473 83.2576V82.5076L149.508 83.0006C149.449 83.0308 149.393 83.0334 149.351 83.0078C149.309 82.9823 149.286 82.9307 149.286 82.8644V79.8644C149.286 79.5424 149.518 79.1621 149.805 79.0156L150.473 78.6742V77.2576ZM150.473 82.0076V80.2576C150.473 80.1913 150.496 80.1157 150.538 80.0475C150.58 79.9792 150.636 79.924 150.695 79.8938L153.664 78.3768C153.723 78.3466 153.779 78.344 153.821 78.3695C153.863 78.3951 153.886 78.4467 153.886 78.513V80.263L154.628 79.8837V77.1337C154.628 77.1116 154.62 77.0944 154.607 77.0859C154.593 77.0774 154.574 77.0782 154.554 77.0883L149.805 79.5156C149.785 79.5256 149.767 79.5441 149.753 79.5668C149.739 79.5895 149.731 79.6147 149.731 79.6368V82.3868L150.473 82.0076ZM153.441 75.9905V77.1572L150.918 78.4467V77.28L153.441 75.9905ZM150.918 82.78V80.28L153.441 78.9905V81.4905L150.918 82.78ZM151.363 80.8025C151.363 80.7361 151.387 80.6606 151.429 80.5924C151.47 80.5241 151.527 80.4689 151.586 80.4387L152.773 79.8319C152.832 79.8017 152.889 79.7991 152.931 79.8246C152.972 79.8502 152.996 79.9018 152.996 79.9681C152.996 80.0344 152.972 80.11 152.931 80.1782C152.889 80.2464 152.832 80.3017 152.773 80.3319L151.586 80.9387C151.527 80.9689 151.47 80.9715 151.429 80.9459C151.387 80.9204 151.363 80.8688 151.363 80.8025ZM151.586 81.4387C151.527 81.4689 151.47 81.5241 151.429 81.5924C151.387 81.6606 151.363 81.7362 151.363 81.8025C151.363 81.8688 151.387 81.9204 151.429 81.9459C151.47 81.9715 151.527 81.9689 151.586 81.9387L152.328 81.5594C152.387 81.5292 152.444 81.474 152.485 81.4057C152.527 81.3375 152.551 81.2619 152.551 81.1956C152.551 81.1293 152.527 81.0777 152.485 81.0522C152.444 81.0266 152.387 81.0292 152.328 81.0594L151.586 81.4387Z" fill="#545454"/>
</g>
</g>
<path d="M125 56C125 52.134 122.218 50.4431 118.786 52.2233L93.0795 65.5581C91.1185 66.5754 89.5288 69.1909 89.5288 71.4V164.843C89.5288 168.709 92.3108 170.4 95.7426 168.62L121.449 155.285C123.41 154.268 125 151.653 125 149.443V56Z" fill="#DCDCDC"/>
<path d="M125 55.4434C125 54.3388 124.203 53.8509 123.219 54.3536L97.3965 67.5518C95.4294 68.5572 93.8348 71.1631 93.8348 73.3722V167.372C93.8348 168.477 94.6321 168.965 95.6157 168.462L123.219 154.354C124.203 153.851 125 152.548 125 151.443V55.4434Z" fill="white"/>
<g clip-path="url(#clip22_1768_921)">
<rect width="30" height="92" transform="matrix(0.890435 -0.455111 0 1 97 69.6533)" fill="white"/>
<rect width="11" height="11" rx="5.5" transform="matrix(0.890435 -0.455111 0 1 97.8906 74.1982)" fill="#F45F63"/>
<rect width="11" height="11" rx="5.5" transform="matrix(0.890435 -0.455111 0 1 97.8906 90.1982)" fill="#1E98F5"/>
<rect width="11" height="11" rx="5.5" transform="matrix(0.890435 -0.455111 0 1 97.8906 106.198)" fill="#E5AA20"/>
<rect width="11" height="11" rx="5.5" transform="matrix(0.890435 -0.455111 0 1 97.8906 122.198)" fill="#1E2B3C"/>
<rect width="11" height="11" rx="5.5" transform="matrix(0.890435 -0.455111 0 1 97.8906 138.198)" fill="#F45F63"/>
<rect width="11" height="11" rx="5.5" transform="matrix(0.890435 -0.455111 0 1 112.137 66.9164)" fill="#F89FA1"/>
<rect width="11" height="11" rx="5.5" transform="matrix(0.890435 -0.455111 0 1 112.137 82.9164)" fill="#78C1F9"/>
<rect width="11" height="11" rx="5.5" transform="matrix(0.890435 -0.455111 0 1 112.137 98.9164)" fill="#EFCC79"/>
<rect width="11" height="11" rx="5.5" transform="matrix(0.890435 -0.455111 0 1 112.137 114.916)" fill="#324256"/>
<rect width="11" height="11" rx="5.5" transform="matrix(0.890435 -0.455111 0 1 112.137 130.916)" fill="#E5AA20"/>
</g>
<path d="M191 80C191 76.134 188.209 74.4263 184.767 76.1858L101.559 118.714C99.5917 119.72 97.997 122.326 97.997 124.535V217.994C97.997 221.86 100.788 223.568 104.23 221.808L187.438 179.28C189.405 178.274 191 175.669 191 173.459V80Z" fill="#677281"/>
<path d="M191 79.4441C191 78.3395 190.203 77.8517 189.219 78.3544L105.518 121.142C103.551 122.147 101.957 124.753 101.957 126.962V220.977C101.957 222.082 102.754 222.57 103.737 222.067L189.219 178.37C190.203 177.867 191 176.564 191 175.459V79.4441Z" fill="#283547"/>
<rect width="98.8281" height="3" transform="matrix(0.890435 -0.455111 0 1 96 118.978)" fill="#78C1F9"/>
<g filter="url(#filter0_d_1768_921)">
<rect x="182" y="70" width="10" height="10" rx="5" fill="white"/>
<rect x="183" y="71" width="8" height="8" rx="4" stroke="#78C1F9" stroke-width="2"/>
</g>
<rect width="92" height="92" transform="matrix(0.890435 -0.455111 0 1 106 125.87)" fill="#283547"/>
<rect width="4" height="4" rx="2" transform="matrix(0.890435 -0.455111 0 1 107.781 126.96)" fill="#FF5E57"/>
<rect width="4" height="4" rx="2" transform="matrix(0.890435 -0.455111 0 1 114.014 123.774)" fill="#FFBB2E"/>
<rect width="4" height="4" rx="2" transform="matrix(0.890435 -0.455111 0 1 120.247 120.588)" fill="#38C149"/>
<rect width="12" height="4" rx="2" transform="matrix(0.890435 -0.455111 0 1 175.454 92.3716)" fill="#1E98F5"/>
<rect width="12" height="4" rx="2" transform="matrix(0.890435 -0.455111 0 1 161.207 99.6533)" fill="#D7DFE6"/>
<rect width="34" height="24" rx="1" transform="matrix(0.890435 -0.455111 0 1 155.864 116.384)" fill="#96A0A9"/>
<rect width="26" height="3" rx="1.5" transform="matrix(0.890435 -0.455111 0 1 107.781 140.96)" fill="#D7DFE6"/>
<rect width="46" height="3" rx="1.5" transform="matrix(0.890435 -0.455111 0 1 107.781 147.96)" fill="#96A0A9"/>
<rect width="46" height="3" rx="1.5" transform="matrix(0.890435 -0.455111 0 1 107.781 154.96)" fill="#96A0A9"/>
<rect width="46" height="3" rx="1.5" transform="matrix(0.890435 -0.455111 0 1 107.781 161.96)" fill="#96A0A9"/>
<rect width="24" height="18" rx="1" transform="matrix(0.890435 -0.455111 0 1 107.781 174.96)" fill="#96A0A9"/>
<rect width="16" height="2" rx="1" transform="matrix(0.890435 -0.455111 0 1 107.781 195.96)" fill="#D7DFE6"/>
<rect width="24" height="2" rx="1" transform="matrix(0.890435 -0.455111 0 1 107.781 200.96)" fill="#96A0A9"/>
<rect width="24" height="2" rx="1" transform="matrix(0.890435 -0.455111 0 1 107.781 205.96)" fill="#96A0A9"/>
<rect width="24" height="18" rx="1" transform="matrix(0.890435 -0.455111 0 1 136.275 160.396)" fill="#96A0A9"/>
<rect width="16" height="2" rx="1" transform="matrix(0.890435 -0.455111 0 1 136.275 181.396)" fill="#D7DFE6"/>
<rect width="24" height="2" rx="1" transform="matrix(0.890435 -0.455111 0 1 136.275 186.396)" fill="#96A0A9"/>
<rect width="24" height="2" rx="1" transform="matrix(0.890435 -0.455111 0 1 136.275 191.396)" fill="#96A0A9"/>
<rect width="24" height="18" rx="1" transform="matrix(0.890435 -0.455111 0 1 164.769 145.833)" fill="#96A0A9"/>
<rect width="16" height="2" rx="1" transform="matrix(0.890435 -0.455111 0 1 164.769 166.833)" fill="#D7DFE6"/>
<rect width="24" height="2" rx="1" transform="matrix(0.890435 -0.455111 0 1 164.769 171.833)" fill="#96A0A9"/>
<rect width="24" height="2" rx="1" transform="matrix(0.890435 -0.455111 0 1 164.769 176.833)" fill="#96A0A9"/>
<g clip-path="url(#clip23_1768_921)">
<rect width="42" height="92" transform="matrix(0.890435 0.455111 0 1 36 30)" fill="#F89FA1"/>
<rect width="38" height="5" rx="2.5" transform="matrix(0.890435 0.455111 0 1 37.7808 37.9103)" fill="white"/>
<rect width="32" height="5" rx="2.5" transform="matrix(0.890435 0.455111 0 1 37.7808 48.9103)" fill="#FDDFE0"/>
<rect width="26" height="5" rx="2.5" transform="matrix(0.890435 0.455111 0 1 37.7808 59.9103)" fill="#FDDFE0"/>
<rect width="20" height="5" rx="2.5" transform="matrix(0.890435 0.455111 0 1 37.7808 70.9103)" fill="#FDDFE0"/>
<rect width="14" height="5" rx="2.5" transform="matrix(0.890435 0.455111 0 1 37.7808 81.9103)" fill="#FDDFE0"/>
<rect width="8" height="5" rx="2.5" transform="matrix(0.890435 0.455111 0 1 37.7808 92.9103)" fill="#FDDFE0"/>
</g>
<path d="M5 79C5 75.134 7.79063 73.4263 11.233 75.1858L94.4383 117.713C96.4054 118.718 98 121.324 98 123.533V216.977C98 220.843 95.2094 222.55 91.767 220.791L8.56174 178.264C6.59464 177.258 5 174.653 5 172.443V79Z" fill="#ACDBFF"/>
<path d="M5 78.4434C5 77.3388 5.79732 76.8509 6.78087 77.3536L90.4817 120.134C92.4488 121.139 94.0435 123.745 94.0435 125.954V219.954C94.0435 221.059 93.2461 221.547 92.2626 221.044L6.78087 177.354C5.79732 176.851 5 175.548 5 174.443V78.4434Z" fill="#78C1F9"/>
<rect width="98.8281" height="1" transform="matrix(0.890435 0.455111 0 1 13 75.4941)" fill="#78C1F9"/>
<g clip-path="url(#clip24_1768_921)">
<rect width="92" height="92" transform="matrix(0.890435 0.455111 0 1 8 82)" fill="#78C1F9"/>
<path d="M62.6682 143.284C63.174 142.974 63.994 143.394 64.4998 144.22L74.8546 161.141C75.3604 161.968 75.3604 162.889 74.8546 163.198L64.4998 169.535C63.994 169.844 63.174 169.425 62.6682 168.599L52.3134 151.677C51.8076 150.851 51.8076 149.93 52.3134 149.62L62.6682 143.284Z" fill="white"/>
<rect x="48.96" y="151.672" width="23.3473" height="14.2871" rx="1.45455" transform="rotate(58.536 48.96 151.672)" fill="white"/>
<rect x="34.3364" y="127.775" width="23.3473" height="14.2871" rx="1.45455" transform="rotate(58.536 34.3364 127.775)" fill="white"/>
<rect x="48.96" y="118.826" width="23.3474" height="14.2871" rx="1.45455" transform="rotate(58.536 48.96 118.826)" fill="white"/>
</g>
<g filter="url(#filter1_d_1768_921)">
<rect x="4" y="71" width="10" height="10" rx="5" fill="white"/>
<rect x="5" y="72" width="8" height="8" rx="4" stroke="#78C1F9" stroke-width="2"/>
</g>
<g filter="url(#filter2_d_1768_921)">
<rect x="93" y="116" width="10" height="10" rx="5" fill="white"/>
<rect x="94" y="117" width="8" height="8" rx="4" stroke="#78C1F9" stroke-width="2"/>
</g>
<defs>
<filter id="filter0_d_1768_921" x="178" y="68" width="18" height="18" filterUnits="userSpaceOnUse" color-interpolation-filters="sRGB">
<feFlood flood-opacity="0" result="BackgroundImageFix"/>
<feColorMatrix in="SourceAlpha" type="matrix" values="0 0 0 0 0 0 0 0 0 0 0 0 0 0 0 0 0 0 127 0" result="hardAlpha"/>
<feOffset dy="2"/>
<feGaussianBlur stdDeviation="2"/>
<feComposite in2="hardAlpha" operator="out"/>
<feColorMatrix type="matrix" values="0 0 0 0 0 0 0 0 0 0 0 0 0 0 0 0 0 0 0.15 0"/>
<feBlend mode="normal" in2="BackgroundImageFix" result="effect1_dropShadow_1768_921"/>
<feBlend mode="normal" in="SourceGraphic" in2="effect1_dropShadow_1768_921" result="shape"/>
</filter>
<filter id="filter1_d_1768_921" x="0" y="69" width="18" height="18" filterUnits="userSpaceOnUse" color-interpolation-filters="sRGB">
<feFlood flood-opacity="0" result="BackgroundImageFix"/>
<feColorMatrix in="SourceAlpha" type="matrix" values="0 0 0 0 0 0 0 0 0 0 0 0 0 0 0 0 0 0 127 0" result="hardAlpha"/>
<feOffset dy="2"/>
<feGaussianBlur stdDeviation="2"/>
<feComposite in2="hardAlpha" operator="out"/>
<feColorMatrix type="matrix" values="0 0 0 0 0 0 0 0 0 0 0 0 0 0 0 0 0 0 0.15 0"/>
<feBlend mode="normal" in2="BackgroundImageFix" result="effect1_dropShadow_1768_921"/>
<feBlend mode="normal" in="SourceGraphic" in2="effect1_dropShadow_1768_921" result="shape"/>
</filter>
<filter id="filter2_d_1768_921" x="89" y="114" width="18" height="18" filterUnits="userSpaceOnUse" color-interpolation-filters="sRGB">
<feFlood flood-opacity="0" result="BackgroundImageFix"/>
<feColorMatrix in="SourceAlpha" type="matrix" values="0 0 0 0 0 0 0 0 0 0 0 0 0 0 0 0 0 0 127 0" result="hardAlpha"/>
<feOffset dy="2"/>
<feGaussianBlur stdDeviation="2"/>
<feComposite in2="hardAlpha" operator="out"/>
<feColorMatrix type="matrix" values="0 0 0 0 0 0 0 0 0 0 0 0 0 0 0 0 0 0 0.15 0"/>
<feBlend mode="normal" in2="BackgroundImageFix" result="effect1_dropShadow_1768_921"/>
<feBlend mode="normal" in="SourceGraphic" in2="effect1_dropShadow_1768_921" result="shape"/>
</filter>
<clipPath id="clip0_1768_921">
<rect width="28" height="92" fill="white" transform="matrix(0.890435 0.455111 0 1 77 15)"/>
</clipPath>
<clipPath id="clip1_1768_921">
<rect width="50" height="114.345" fill="white" transform="matrix(0.890435 -0.455111 0 1 113 23.4102)"/>
</clipPath>
<clipPath id="clip2_1768_921">
<rect width="8" height="8" fill="white" transform="matrix(0.890435 -0.455111 0 1 113.891 46.9551)"/>
</clipPath>
<clipPath id="clip3_1768_921">
<rect width="8" height="8" fill="white" transform="matrix(0.890435 -0.455111 0 1 125.466 41.0386)"/>
</clipPath>
<clipPath id="clip4_1768_921">
<rect width="8" height="8" fill="white" transform="matrix(0.890435 -0.455111 0 1 137.042 35.1222)"/>
</clipPath>
<clipPath id="clip5_1768_921">
<rect width="8" height="8" fill="white" transform="matrix(0.890435 -0.455111 0 1 148.618 29.2057)"/>
</clipPath>
<clipPath id="clip6_1768_921">
<rect width="8" height="8" fill="white" transform="matrix(0.890435 -0.455111 0 1 113.891 58.9551)"/>
</clipPath>
<clipPath id="clip7_1768_921">
<rect width="8" height="8" fill="white" transform="matrix(0.890435 -0.455111 0 1 125.466 53.0386)"/>
</clipPath>
<clipPath id="clip8_1768_921">
<rect width="8" height="8" fill="white" transform="matrix(0.890435 -0.455111 0 1 137.042 47.1222)"/>
</clipPath>
<clipPath id="clip9_1768_921">
<rect width="8" height="8" fill="white" transform="matrix(0.890435 -0.455111 0 1 148.618 41.2057)"/>
</clipPath>
<clipPath id="clip10_1768_921">
<rect width="8" height="8" fill="white" transform="matrix(0.890435 -0.455111 0 1 113.891 70.9551)"/>
</clipPath>
<clipPath id="clip11_1768_921">
<rect width="8" height="8" fill="white" transform="matrix(0.890435 -0.455111 0 1 125.466 65.0386)"/>
</clipPath>
<clipPath id="clip12_1768_921">
<rect width="8" height="8" fill="white" transform="matrix(0.890435 -0.455111 0 1 137.042 59.1222)"/>
</clipPath>
<clipPath id="clip13_1768_921">
<rect width="8" height="8" fill="white" transform="matrix(0.890435 -0.455111 0 1 148.618 53.2057)"/>
</clipPath>
<clipPath id="clip14_1768_921">
<rect width="8" height="8" fill="white" transform="matrix(0.890435 -0.455111 0 1 113.891 82.9551)"/>
</clipPath>
<clipPath id="clip15_1768_921">
<rect width="8" height="8" fill="white" transform="matrix(0.890435 -0.455111 0 1 125.466 77.0386)"/>
</clipPath>
<clipPath id="clip16_1768_921">
<rect width="8" height="8" fill="white" transform="matrix(0.890435 -0.455111 0 1 137.042 71.1222)"/>
</clipPath>
<clipPath id="clip17_1768_921">
<rect width="8" height="8" fill="white" transform="matrix(0.890435 -0.455111 0 1 148.618 65.2057)"/>
</clipPath>
<clipPath id="clip18_1768_921">
<rect width="8" height="8" fill="white" transform="matrix(0.890435 -0.455111 0 1 113.891 94.9551)"/>
</clipPath>
<clipPath id="clip19_1768_921">
<rect width="8" height="8" fill="white" transform="matrix(0.890435 -0.455111 0 1 125.466 89.0386)"/>
</clipPath>
<clipPath id="clip20_1768_921">
<rect width="8" height="8" fill="white" transform="matrix(0.890435 -0.455111 0 1 137.042 83.1222)"/>
</clipPath>
<clipPath id="clip21_1768_921">
<rect width="8" height="8" fill="white" transform="matrix(0.890435 -0.455111 0 1 148.618 77.2057)"/>
</clipPath>
<clipPath id="clip22_1768_921">
<rect width="30" height="92" fill="white" transform="matrix(0.890435 -0.455111 0 1 97 69.6533)"/>
</clipPath>
<clipPath id="clip23_1768_921">
<rect width="42" height="92" fill="white" transform="matrix(0.890435 0.455111 0 1 36 30)"/>
</clipPath>
<clipPath id="clip24_1768_921">
<rect width="92" height="92" fill="white" transform="matrix(0.890435 0.455111 0 1 8 82)"/>
</clipPath>
</defs>
</svg>
