<svg width="297" height="334" viewBox="0 0 297 334" fill="none" xmlns="http://www.w3.org/2000/svg">
<rect width="162.292" height="6.02128" transform="matrix(0.890435 -0.455111 0 1 10.0107 109.88)" fill="#78C1F9"/>
<rect width="148.768" height="6.02128" transform="matrix(0.890435 0.455111 0 1 151.511 37.1466)" fill="#78C1F9"/>
<path d="M115.383 11.2553C115.383 5.43571 119.571 2.89035 124.737 5.57005L163.434 25.6433C166.386 27.1746 168.779 31.1117 168.779 34.4372V175.099C168.779 180.919 164.591 183.464 159.425 180.785L120.728 160.711C117.776 159.18 115.383 155.243 115.383 151.917V11.2553Z" fill="#ACDBFF"/>
<path d="M115.383 10.4174C115.383 8.75464 116.583 8.02019 118.064 8.77691L156.935 28.6445C159.896 30.1579 162.297 34.0806 162.297 37.4061V178.906C162.297 180.569 161.096 181.303 159.616 180.547L118.064 159.309C116.583 158.552 115.383 156.591 115.383 154.928V10.4174Z" fill="#78C1F9"/>
<g clip-path="url(#clip0_1938_13284)">
<rect width="42.149" height="143.843" transform="matrix(0.890435 0.455111 0 1 119.899 14.2659)" fill="#78C1F9"/>
<path d="M125.931 49.7131L137.414 30.5059C137.66 30.094 138.342 30.4339 138.599 31.0967L150.728 62.3872M125.931 49.7131V160.488M125.931 49.7131L138.329 56.0502M150.728 62.3872L138.329 56.0502M150.728 62.3872V173.479M138.329 56.0502V166.825" stroke="#DEF0FF" stroke-width="3.01064"/>
<path d="M134.643 38.3603L138.664 32.889L142.685 42.4709L134.643 38.3603Z" fill="#DEF0FF" stroke="#DEF0FF" stroke-width="3.01064"/>
</g>
<path d="M243.894 15.7713C243.894 9.9517 239.693 7.38108 234.511 10.0296L161.947 47.118C158.986 48.6315 156.585 52.5542 156.585 55.8797V196.542C156.585 202.361 160.786 204.932 165.968 202.283L238.532 165.195C241.493 163.682 243.894 159.759 243.894 156.433V15.7713Z" fill="#FEE6AE"/>
<path d="M243.894 14.9334C243.894 13.2706 242.694 12.5362 241.213 13.2929L168.832 50.2876C165.871 51.8011 163.47 55.7238 163.47 59.0493V200.549C163.47 202.212 164.671 202.947 166.151 202.19L241.213 163.825C242.694 163.068 243.894 161.107 243.894 159.444V14.9334Z" fill="#EFCC79"/>
<path d="M50.6543 36.8458C50.6543 31.0263 54.8551 28.4557 60.037 31.1042L118.344 60.9055C121.305 62.419 123.705 66.3417 123.705 69.6672V210.329C123.705 216.149 119.505 218.719 114.323 216.071L56.0158 186.27C53.0547 184.756 50.6543 180.833 50.6543 177.508V36.8458Z" fill="#FFC7C9"/>
<path d="M50.6543 36.0079C50.6543 34.3452 51.8545 33.6108 53.3351 34.3675L112.312 64.5114C115.273 66.0248 117.674 69.9475 117.674 73.273V214.773C117.674 216.436 116.474 217.17 114.993 216.414L53.3351 184.899C51.8545 184.143 50.6543 182.181 50.6543 180.519V36.0079Z" fill="#F89FA1"/>
<g clip-path="url(#clip1_1938_13284)">
<rect width="75.266" height="138.489" transform="matrix(0.890435 -0.455111 0 1 169.574 54.5416)" fill="#EFCC79"/>
<g clip-path="url(#clip2_1938_13284)">
<path fill-rule="evenodd" clip-rule="evenodd" d="M174.118 89.519C174.09 89.5956 174.047 89.6703 173.995 89.7339C173.942 89.7976 173.881 89.848 173.819 89.8798L172.702 90.4507C172.672 90.4658 172.644 90.4936 172.623 90.5278C172.602 90.562 172.59 90.6 172.59 90.6332V91.6067C172.59 91.8475 172.675 92.035 172.827 92.1278C172.979 92.2206 173.184 92.2112 173.399 92.1015L174.712 91.4301C174.763 91.4044 174.813 91.3918 174.858 91.3933C174.903 91.3947 174.943 91.4102 174.974 91.4385C175.006 91.4668 175.028 91.5072 175.039 91.5567C175.05 91.6063 175.05 91.6636 175.039 91.7246V91.7261L175.037 91.7333L175.032 91.7626L175.012 91.8768C174.904 92.4994 174.813 93.1175 174.737 93.7303C174.613 94.7369 174.516 95.8968 174.57 96.7714L174.797 96.6556L177.594 92.0842C177.564 91.9594 177.537 91.8326 177.512 91.704C177.366 90.9614 177.225 90.2151 177.089 89.4651C176.634 89.9221 176.109 90.2807 175.687 90.3553C175.425 90.4021 175.182 90.3404 175.055 90.0851C174.931 89.836 174.947 89.4579 175.065 88.9985C175.094 88.8903 175.154 88.7824 175.233 88.6983C175.313 88.6143 175.404 88.5607 175.487 88.5492C175.571 88.5378 175.64 88.5694 175.68 88.6371C175.72 88.7049 175.727 88.8035 175.701 88.9114C175.613 89.2507 175.635 89.4024 175.667 89.4664C175.696 89.5236 175.755 89.5584 175.878 89.5365C176.139 89.4899 176.572 89.1999 176.964 88.7613C176.925 88.5372 176.887 88.3125 176.85 88.0872L176.842 88.0391L176.838 88.0259C176.803 87.9145 176.753 87.8161 176.69 87.7332C176.575 87.5854 176.44 87.5364 176.276 87.6202L174.936 88.3053C174.75 88.4001 174.556 88.6444 174.378 88.9636C174.279 89.1425 174.193 89.3266 174.121 89.5127L174.118 89.519ZM178.495 94.2554C178.589 94.4012 178.68 94.5256 178.761 94.6296L175.745 96.171L177.804 92.8061C177.985 93.3368 178.216 93.822 178.495 94.2554ZM179.083 93.5946C178.77 93.106 178.52 92.5474 178.34 91.9292L180.087 89.0743C180.208 88.8792 180.305 88.671 180.371 88.4619C180.437 88.2528 180.471 88.0468 180.472 87.856C180.473 87.6651 180.44 87.4932 180.376 87.3501C180.311 87.2069 180.216 87.0954 180.097 87.0221C179.977 86.9487 179.834 86.9149 179.677 86.9226C179.521 86.9304 179.353 86.9795 179.183 87.0671C179.014 87.1547 178.846 87.2791 178.69 87.4331C178.534 87.5871 178.392 87.7676 178.273 87.9643L177.725 88.8604C177.651 88.4496 177.579 88.0372 177.51 87.6232L177.503 87.5754L177.501 87.5638V87.5608L177.5 87.56C177.499 87.5508 177.497 87.5419 177.495 87.5332L177.495 87.5309L177.493 87.5271L177.49 87.5161C177.475 87.4637 177.457 87.4132 177.438 87.3647C177.39 87.2455 177.33 87.1382 177.258 87.0445C177.094 86.8328 176.782 86.6088 176.276 86.8676L174.936 87.5527C174.451 87.8004 174.087 88.3433 173.874 88.7257C173.768 88.9151 173.685 89.0923 173.626 89.2255L172.702 89.698C172.494 89.804 172.296 89.9982 172.149 90.2378C172.002 90.4774 171.92 90.7429 171.92 90.9758V91.9492C171.92 92.3897 172.076 92.7325 172.353 92.9022C172.63 93.0719 173.007 93.0547 173.399 92.8542L174.299 92.3943L174.283 92.4943C174.222 92.8664 174.144 93.383 174.073 93.96C173.934 95.1023 173.815 96.5231 173.933 97.52C173.943 97.6059 173.983 97.6695 174.044 97.6989C174.105 97.7283 174.184 97.7215 174.266 97.6798L179.404 95.0536C179.467 95.0211 179.53 94.9688 179.584 94.9029C179.637 94.8371 179.68 94.7604 179.707 94.6818C179.734 94.6033 179.744 94.5261 179.736 94.4594C179.728 94.3926 179.702 94.339 179.661 94.3049L179.66 94.3039L179.653 94.2977C179.646 94.2911 179.635 94.2817 179.621 94.2678C179.592 94.2407 179.55 94.1987 179.497 94.1403C179.392 94.0236 179.245 93.8439 179.083 93.5941V93.5946ZM179.614 88.7845L178.157 91.1643C178.05 90.6144 177.956 90.1172 177.874 89.6801L178.747 88.2541C178.862 88.0663 179.018 87.9141 179.18 87.831C179.343 87.7479 179.499 87.7407 179.614 87.8111C179.729 87.8814 179.793 88.0235 179.793 88.206C179.793 88.3886 179.729 88.5967 179.614 88.7845Z" fill="#5C5C5C"/>
</g>
<g clip-path="url(#clip3_1938_13284)">
<path fill-rule="evenodd" clip-rule="evenodd" d="M192.361 79.148C192.291 79.1839 192.222 79.2438 192.165 79.3192C192.108 79.3946 192.065 79.4817 192.043 79.568L191.673 81.005L190.127 81.7951C189.92 81.9011 189.721 82.0953 189.574 82.3349C189.428 82.5745 189.345 82.84 189.345 83.0729V88.0906C189.345 88.5753 189.696 88.7897 190.127 88.5691L197.276 84.9153C197.483 84.8093 197.682 84.6151 197.829 84.3755C197.975 84.1359 198.058 83.8704 198.058 83.6375V78.6198C198.058 78.3869 197.975 78.2057 197.829 78.1159C197.682 78.0262 197.483 78.0353 197.276 78.1413L195.73 78.9315L195.36 77.8729C195.337 77.8093 195.295 77.7659 195.238 77.7489C195.181 77.7318 195.112 77.742 195.042 77.7778L192.361 79.148ZM192.232 81.2143L192.602 79.7773L194.8 78.6543L195.171 79.7126C195.193 79.7763 195.235 79.8196 195.293 79.8367C195.35 79.8537 195.418 79.8435 195.489 79.8074L197.276 78.894C197.305 78.8789 197.334 78.8776 197.355 78.8904C197.376 78.9032 197.388 78.9291 197.388 78.9623V83.9801C197.388 84.0134 197.376 84.0513 197.355 84.0855C197.334 84.1197 197.305 84.1475 197.276 84.1626L190.127 87.8164C190.097 87.8316 190.069 87.8329 190.048 87.82C190.027 87.8072 190.015 87.7813 190.015 87.7481V82.7303C190.015 82.6971 190.027 82.6591 190.048 82.6249C190.069 82.5907 190.097 82.5629 190.127 82.5478L191.914 81.6343C191.985 81.5984 192.053 81.5385 192.11 81.4631C192.167 81.3877 192.21 81.3007 192.232 81.2143ZM192.473 83.7323C192.473 83.3664 192.602 82.9492 192.833 82.5727C193.063 82.1961 193.376 81.891 193.701 81.7244C194.027 81.5579 194.34 81.5435 194.57 81.6845C194.801 81.8255 194.93 82.1104 194.93 82.4763C194.93 82.8423 194.801 83.2594 194.57 83.636C194.34 84.0125 194.027 84.3176 193.701 84.4842C193.376 84.6508 193.063 84.6651 192.833 84.5241C192.602 84.3831 192.473 84.0983 192.473 83.7323ZM193.701 80.9718C193.452 81.0992 193.205 81.2806 192.975 81.5055C192.744 81.7304 192.535 81.9945 192.359 82.2827C192.182 82.5708 192.043 82.8774 191.947 83.1849C191.852 83.4924 191.803 83.7948 191.803 84.0749C191.803 84.3549 191.852 84.6071 191.947 84.8171C192.043 85.027 192.182 85.1906 192.359 85.2985C192.535 85.4064 192.744 85.4565 192.975 85.4459C193.205 85.4354 193.452 85.3643 193.701 85.2369C194.205 84.9795 194.688 84.5079 195.044 83.926C195.4 83.344 195.6 82.6994 195.6 82.1338C195.6 81.5682 195.4 81.128 195.044 80.9101C194.688 80.6922 194.205 80.7144 193.701 80.9718Z" fill="#5C5C5C"/>
</g>
<g clip-path="url(#clip4_1938_13284)">
<path fill-rule="evenodd" clip-rule="evenodd" d="M207.44 75.8315C207.44 74.7336 207.829 73.4822 208.52 72.3525C209.211 71.2229 210.149 70.3075 211.126 69.8079C212.104 69.3082 213.041 69.2651 213.733 69.6881C214.424 70.1112 214.812 70.9656 214.812 72.0635C214.812 73.1614 214.424 74.4128 213.733 75.5425C213.041 76.6721 212.104 77.5875 211.126 78.0871C210.149 78.5868 209.211 78.6299 208.52 78.2068C207.829 77.7838 207.44 76.9294 207.44 75.8315ZM211.126 69.0552C208.72 70.2849 206.77 73.472 206.77 76.174C206.77 78.8761 208.72 80.0695 211.126 78.8398C213.532 77.61 215.483 74.423 215.483 71.721C215.483 69.0189 213.532 67.8255 211.126 69.0552ZM211.461 70.7656C211.461 70.6658 211.426 70.5881 211.363 70.5496C211.3 70.5112 211.215 70.5151 211.126 70.5605C211.037 70.6059 210.952 70.6892 210.889 70.7919C210.826 70.8946 210.791 71.0083 210.791 71.1081V74.1188C210.791 74.2186 210.826 74.2964 210.889 74.3345L212.006 75.018C212.037 75.0393 212.074 75.05 212.115 75.0496C212.156 75.0492 212.201 75.0375 212.246 75.0154C212.291 74.9933 212.335 74.9612 212.377 74.9209C212.419 74.8807 212.457 74.8331 212.489 74.7811C212.52 74.7291 212.545 74.6737 212.562 74.6183C212.579 74.5628 212.587 74.5084 212.587 74.4583C212.586 74.4081 212.576 74.3633 212.558 74.3265C212.539 74.2897 212.513 74.2617 212.48 74.244L211.461 73.6207V70.7656Z" fill="#5C5C5C"/>
</g>
<g clip-path="url(#clip5_1938_13284)">
<path fill-rule="evenodd" clip-rule="evenodd" d="M228.315 60.3805C228.378 60.2779 228.463 60.1948 228.552 60.1494C228.641 60.104 228.726 60.1 228.789 60.1384L231.916 62.0523C231.979 62.0903 232.014 62.1681 232.014 62.268V67.7875C232.014 67.8873 231.979 68.0011 231.916 68.1038C231.853 68.2065 231.768 68.2897 231.679 68.3351L229.445 69.4769C229.357 69.5223 229.271 69.5262 229.208 69.4878C229.146 69.4493 229.11 69.3717 229.11 69.2718V67.1393L227.993 67.7102V69.8427C227.993 69.9426 227.958 70.0563 227.895 70.159C227.832 70.2617 227.747 70.3449 227.658 70.3904L225.424 71.5322C225.335 71.5776 225.25 71.5815 225.187 71.543C225.124 71.5046 225.089 71.4269 225.089 71.3271V65.8076C225.089 65.7078 225.125 65.5941 225.187 65.4914L228.315 60.3805ZM225.759 65.6206V70.6082L227.323 69.809V67.6764C227.323 67.5766 227.358 67.4629 227.421 67.3602C227.484 67.2575 227.569 67.1742 227.658 67.1288L229.445 66.2154C229.534 66.17 229.619 66.166 229.682 66.2045C229.745 66.2429 229.78 66.3206 229.78 66.4204V68.553L231.344 67.7537V62.7661L228.552 61.0573L225.759 65.6206Z" fill="#5C5C5C"/>
</g>
<g clip-path="url(#clip6_1938_13284)">
<path fill-rule="evenodd" clip-rule="evenodd" d="M173.149 106.014C173.06 106.059 172.975 106.142 172.912 106.245C172.849 106.348 172.814 106.462 172.814 106.561V111.077C172.814 111.709 173.037 112.201 173.435 112.445C173.833 112.689 174.373 112.664 174.936 112.376L176.723 111.463C177.286 111.175 177.826 110.648 178.224 109.997C178.622 109.347 178.845 108.627 178.845 107.994V107.825C179.059 107.773 179.281 107.661 179.494 107.498C179.708 107.336 179.909 107.126 180.08 106.886C180.252 106.645 180.391 106.38 180.486 106.11C180.582 105.84 180.631 105.572 180.631 105.325C180.631 105.079 180.582 104.862 180.486 104.689C180.391 104.517 180.252 104.393 180.08 104.328C179.909 104.263 179.708 104.259 179.494 104.315C179.281 104.371 179.059 104.486 178.845 104.651V103.478C178.845 103.379 178.81 103.301 178.747 103.263C178.684 103.224 178.599 103.228 178.51 103.273L173.149 106.014ZM178.175 105.573V108.337C178.175 108.77 178.022 109.262 177.75 109.708C177.478 110.153 177.108 110.513 176.723 110.71L174.936 111.623C174.551 111.82 174.182 111.837 173.909 111.671C173.637 111.504 173.484 111.167 173.484 110.735V106.595L178.175 104.197V105.573ZM178.845 107.032V105.444C178.965 105.32 179.096 105.225 179.228 105.166C179.359 105.108 179.487 105.089 179.598 105.112C179.709 105.134 179.801 105.197 179.865 105.294C179.928 105.391 179.962 105.52 179.962 105.668C179.962 105.816 179.928 105.978 179.865 106.141C179.801 106.303 179.709 106.459 179.598 106.595C179.487 106.732 179.359 106.843 179.228 106.919C179.096 106.996 178.965 107.034 178.845 107.032Z" fill="#5C5C5C"/>
</g>
<g clip-path="url(#clip7_1938_13284)">
<path fill-rule="evenodd" clip-rule="evenodd" d="M194.93 94.254C194.93 94.1542 194.965 94.0404 195.028 93.9378C195.091 93.8351 195.176 93.7518 195.265 93.7064L196.829 92.9071C197.26 92.6866 197.611 92.9009 197.611 93.3856V100.41C197.611 100.643 197.528 100.909 197.382 101.148C197.235 101.388 197.036 101.582 196.829 101.688L195.265 102.487C195.176 102.533 195.091 102.537 195.028 102.498C194.965 102.46 194.93 102.382 194.93 102.282C194.93 102.183 194.965 102.069 195.028 101.966C195.091 101.863 195.176 101.78 195.265 101.735L196.829 100.936C196.858 100.92 196.887 100.893 196.908 100.858C196.929 100.824 196.94 100.786 196.94 100.753V93.7282C196.94 93.6949 196.929 93.669 196.908 93.6562C196.887 93.6434 196.858 93.6447 196.829 93.6598L195.265 94.4591C195.176 94.5045 195.091 94.5084 195.028 94.47C194.965 94.4315 194.93 94.3538 194.93 94.254ZM189.568 101.009C189.568 100.909 189.604 100.795 189.667 100.692C189.729 100.59 189.815 100.506 189.903 100.461L194.233 98.2481L192.794 97.3677C192.735 97.3267 192.703 97.2488 192.704 97.1505C192.706 97.0522 192.741 96.9412 192.802 96.8409C192.864 96.7406 192.947 96.6587 193.033 96.6126C193.12 96.5665 193.204 96.5598 193.268 96.5938L195.278 97.8241C195.341 97.8626 195.376 97.9403 195.376 98.04C195.376 98.1397 195.341 98.2534 195.278 98.356L193.268 101.642C193.237 101.694 193.2 101.743 193.159 101.784C193.118 101.826 193.074 101.86 193.029 101.884C192.984 101.908 192.939 101.921 192.897 101.923C192.855 101.926 192.818 101.917 192.786 101.898C192.754 101.878 192.729 101.848 192.712 101.81C192.695 101.772 192.687 101.726 192.688 101.675C192.688 101.624 192.698 101.569 192.717 101.514C192.735 101.458 192.761 101.403 192.794 101.352L194.233 99.0008L189.903 101.214C189.815 101.259 189.729 101.263 189.667 101.224C189.604 101.186 189.568 101.108 189.568 101.009Z" fill="#5C5C5C"/>
</g>
<g clip-path="url(#clip8_1938_13284)">
<path fill-rule="evenodd" clip-rule="evenodd" d="M208.446 89.4784C208.218 89.5949 207.995 89.7567 207.792 89.9279C208.09 89.0655 208.562 88.2243 209.153 87.5022C209.743 86.7802 210.428 86.2071 211.127 85.8499C211.826 85.4926 212.51 85.3659 213.101 85.4844C213.691 85.6029 214.163 85.9619 214.461 86.5194C214.249 86.5544 214.029 86.628 213.807 86.7381C213.405 86.9438 213.02 87.2892 212.75 87.5621C212.654 87.6593 212.559 87.7601 212.467 87.8642C212.375 87.8544 212.28 87.8501 212.184 87.8512C211.914 87.8542 211.529 87.9025 211.127 88.1082C210.724 88.314 210.339 88.6594 210.069 88.9323C209.958 89.0443 209.862 89.1486 209.786 89.2344C209.694 89.2246 209.6 89.2203 209.503 89.2214C209.234 89.2243 208.848 89.2727 208.446 89.4784ZM212.278 88.7087L212.281 88.7094L212.653 88.5194L212.656 88.515C212.774 88.3733 212.896 88.2381 213.022 88.1104C213.254 87.8758 213.54 87.6273 213.807 87.4907C214.217 87.2815 214.654 87.2955 214.865 87.3233C214.922 87.3306 214.987 87.3142 215.053 87.2761C215.118 87.238 215.181 87.1798 215.233 87.1088C215.286 87.0377 215.325 86.9569 215.347 86.8764C215.369 86.7959 215.372 86.7191 215.357 86.6556C214.889 84.7584 213.173 84.0517 211.127 85.0976C209.08 86.1435 207.365 88.6045 206.896 90.9794C206.881 91.0588 206.884 91.1321 206.906 91.1902C206.928 91.2482 206.968 91.2886 207.02 91.3062C207.072 91.3237 207.135 91.3178 207.2 91.2891C207.266 91.2604 207.331 91.2102 207.388 91.1446C207.6 90.9009 208.037 90.4402 208.446 90.2311C208.713 90.0943 208.999 90.0509 209.231 90.0479C209.357 90.0467 209.479 90.0571 209.597 90.0788L209.6 90.0795C209.655 90.0926 209.72 90.0815 209.786 90.0477C209.852 90.0139 209.917 89.9589 209.972 89.8895L209.976 89.8852L209.994 89.8635C210.106 89.7298 210.222 89.602 210.342 89.4809C210.574 89.2457 210.859 88.9977 211.127 88.8609C211.394 88.7241 211.679 88.6808 211.912 88.6777C212.038 88.6765 212.16 88.6869 212.278 88.7087ZM211.462 89.8186C211.462 89.7188 211.426 89.6411 211.364 89.6027C211.301 89.5642 211.215 89.5681 211.127 89.6135C211.038 89.659 210.953 89.7422 210.89 89.8449C210.827 89.9476 210.792 90.0613 210.792 90.1612V93.6736V93.6971L210.794 93.7419C210.807 93.944 210.856 94.1228 210.939 94.2683C211.014 94.4001 211.133 94.5205 211.318 94.5642C211.504 94.6089 211.738 94.5698 212.02 94.4254C212.302 94.2813 212.536 94.0814 212.723 93.8462C212.907 93.6139 213.026 93.3713 213.102 93.1626C213.19 92.9158 213.24 92.6701 213.248 92.4414V92.4263L213.249 92.4211V92.4181V92.1667C213.249 92.0669 213.214 91.9892 213.151 91.9507C213.088 91.9123 213.003 91.9162 212.914 91.9616C212.825 92.0071 212.74 92.0903 212.677 92.193C212.614 92.2957 212.579 92.4094 212.579 92.5092V92.7586C212.579 92.7616 212.579 92.7676 212.578 92.7766C212.571 92.8903 212.545 93.011 212.502 93.1323C212.467 93.2319 212.417 93.3263 212.351 93.4105C212.286 93.4917 212.185 93.5885 212.02 93.6728C211.855 93.7571 211.754 93.7635 211.69 93.7484C211.623 93.7325 211.574 93.6882 211.538 93.6254C211.492 93.5439 211.467 93.4432 211.462 93.3295V89.8186Z" fill="#5C5C5C"/>
</g>
<g clip-path="url(#clip9_1938_13284)">
<path fill-rule="evenodd" clip-rule="evenodd" d="M227.658 76.6482C227.747 76.6028 227.832 76.5988 227.895 76.6373C227.958 76.6757 227.993 76.7534 227.993 76.8532V77.7715C228.112 77.999 228.267 78.3884 228.392 78.7179C228.461 78.8987 228.523 79.0677 228.569 79.1934L230.339 78.2886C230.923 77.9902 231.302 78.1363 231.52 78.4327C231.564 78.4927 231.602 78.5596 231.634 78.6302L232.126 78.3787C232.558 78.1581 232.908 78.3725 232.908 78.8572V80.3625C232.908 80.4623 232.872 80.5761 232.81 80.6788C232.747 80.7815 232.662 80.8647 232.573 80.9101C232.484 80.9556 232.399 80.9595 232.336 80.921C232.273 80.8826 232.238 80.8049 232.238 80.7051V79.1997C232.238 79.1665 232.226 79.1406 232.205 79.1278C232.184 79.1149 232.156 79.1163 232.126 79.1314L231.787 79.3045C231.789 79.3475 231.791 79.389 231.791 79.4281C231.791 79.7272 231.726 80.2086 231.52 80.7012C231.343 81.1228 231.058 81.556 230.643 81.8635L231.206 82.8398C231.364 82.6029 231.51 82.3574 231.642 82.1058C231.67 82.0533 231.704 82.0039 231.743 81.9605C231.781 81.9172 231.824 81.8807 231.867 81.8532C231.911 81.8256 231.955 81.8076 231.998 81.8C232.04 81.7925 232.079 81.7956 232.113 81.8092C232.148 81.8228 232.176 81.8467 232.197 81.8794C232.218 81.9121 232.231 81.953 232.236 81.9998C232.24 82.0466 232.236 82.0984 232.224 82.1522C232.211 82.2059 232.191 82.2607 232.163 82.3133C231.755 83.0896 231.239 83.8113 230.652 84.4253C230.066 85.0393 229.425 85.53 228.775 85.8613C228.125 86.1941 227.484 86.3592 226.897 86.3445C226.311 86.3299 225.795 86.1358 225.387 85.7766C225.359 85.7523 225.338 85.7187 225.326 85.6777C225.314 85.6367 225.309 85.5891 225.314 85.5376C225.319 85.4861 225.332 85.4317 225.353 85.3775C225.374 85.3234 225.402 85.2705 225.436 85.2219C225.471 85.1733 225.51 85.13 225.552 85.0944C225.594 85.0588 225.639 85.0316 225.682 85.0144C225.726 84.9972 225.769 84.9903 225.807 84.9941C225.846 84.9979 225.88 85.0124 225.908 85.0367C226.04 85.1532 226.186 85.2491 226.344 85.3243L226.914 83.7537C226.704 83.7895 226.514 83.7578 226.36 83.6615C226.146 83.5303 225.982 83.2719 225.982 82.8986V81.3361L225.032 81.9994C224.962 82.0479 224.891 82.0723 224.827 82.0689L224.825 82.07L224.824 82.0692L224.819 82.0695L224.811 82.068C224.774 82.0635 224.739 82.0557 224.706 82.0447C224.626 82.0179 224.554 81.976 224.491 81.92C224.336 81.7807 224.195 81.5202 224.195 81.053C224.195 80.5849 224.336 80.18 224.491 79.8818C224.574 79.7243 224.673 79.5745 224.784 79.4384L224.811 79.4076L224.819 79.397L224.824 79.3928L224.825 79.3911L224.826 79.3906C224.827 79.3904 224.827 79.3897 224.977 79.6493L224.827 79.3897L224.827 79.3889L224.828 79.3882L224.829 79.3877L224.83 79.3868L224.831 79.3858V79.3853L224.831 79.3851L224.832 79.3844L224.832 79.3834L224.833 79.3829L224.834 79.382L224.835 79.3813L224.835 79.3805L224.836 79.3801V79.3796L224.837 79.3786L224.838 79.3782L224.838 79.3774L224.839 79.3765L224.84 79.3757L224.84 79.3753L224.841 79.374L224.842 79.3736L224.843 79.3726L224.844 79.3717L224.844 79.3709L224.845 79.37L224.846 79.3695L224.847 79.3681L224.848 79.3676L224.848 79.3661L224.849 79.3657L224.85 79.3642L224.851 79.3638L224.852 79.3623L224.853 79.3614L224.854 79.3602L224.855 79.3592L224.856 79.3583L224.857 79.3568L224.858 79.3561L224.859 79.3546L224.861 79.3535L224.861 79.3525L224.863 79.3508L224.864 79.3499L224.865 79.3487L224.866 79.3472L224.867 79.346L224.869 79.3448L224.87 79.3431L224.871 79.3422L224.872 79.3405L224.874 79.3398L224.875 79.3381L224.876 79.3364L224.878 79.3352L224.879 79.3336L224.88 79.3324L224.882 79.3307L224.883 79.3295L224.884 79.3278L224.886 79.3261L224.887 79.3247L224.889 79.323L224.89 79.3218L224.891 79.3201L224.893 79.3182L224.895 79.3165L224.896 79.3151L224.898 79.3134L224.899 79.3115L224.901 79.3103L224.903 79.3084L224.904 79.3067L224.906 79.3048L224.907 79.3029L224.909 79.3012L224.911 79.2998L224.912 79.2979L224.914 79.296L224.916 79.2943L224.917 79.2923L224.919 79.2904L224.921 79.2885L224.923 79.2866L224.924 79.2847L224.926 79.2828L224.928 79.2808L224.93 79.2789L224.932 79.277L224.933 79.2751L224.936 79.2729L224.937 79.271L224.939 79.2691L224.941 79.2667L224.943 79.2645L224.945 79.2626L224.947 79.2607L224.949 79.2586L224.951 79.2567L224.953 79.254L224.955 79.2521L224.957 79.2499L224.959 79.248L224.961 79.2454L224.963 79.2435L224.965 79.2413L224.967 79.2387L224.969 79.2368L224.971 79.2346L224.974 79.232L224.975 79.23L224.978 79.2274L224.98 79.2252L224.982 79.2231L224.984 79.2205L224.987 79.2183L224.989 79.2157L224.991 79.2135L224.993 79.2109L224.995 79.2087L224.998 79.2061L225 79.2039L225.002 79.2013L225.004 79.1991L225.007 79.1965L225.009 79.1938L225.012 79.1915L225.014 79.1888L225.016 79.1867L225.018 79.184L225.021 79.1812L225.023 79.179L225.026 79.1761L225.028 79.1735L225.03 79.1708L225.033 79.1685L225.035 79.1658L225.038 79.1629L225.04 79.1603L225.043 79.1579L225.045 79.1553L225.048 79.1524L225.05 79.1495L225.053 79.1469L225.055 79.1445L225.058 79.1416L225.06 79.139L225.063 79.1361L225.066 79.1332L225.068 79.1304L225.071 79.1277L225.073 79.1248L225.076 79.1225L225.079 79.1196L225.081 79.1167L225.084 79.1138L225.087 79.111L225.089 79.1081L225.092 79.1052L225.095 79.1023L225.097 79.0995L225.1 79.0966L225.103 79.0937L225.105 79.0908L225.108 79.088L225.111 79.0846L225.113 79.0817L225.117 79.0786L225.119 79.0757L225.122 79.0728L225.125 79.07L225.128 79.0669L225.13 79.064L225.133 79.0611L225.136 79.0577L225.139 79.0546L225.142 79.0518L225.145 79.0487L225.147 79.0458L225.15 79.0424L225.153 79.0393L225.156 79.0364L225.159 79.0333L225.162 79.0299L225.165 79.0268L225.167 79.024L225.171 79.0209L225.173 79.0175L225.176 79.0144L225.18 79.0113L225.182 79.0079L225.185 79.0048L225.188 79.0017L225.191 78.9983L225.194 78.9952L225.197 78.9921L225.2 78.9887L225.203 78.9856L225.206 78.9825L225.209 78.9789L225.213 78.9758L225.215 78.9724L225.218 78.9693L225.222 78.9662L225.225 78.9626L225.228 78.9595L225.231 78.9559L225.234 78.9528L225.237 78.9492L225.24 78.9463L225.243 78.9427L225.246 78.9396L225.249 78.936L225.252 78.9329L225.256 78.9293L225.259 78.9262L225.262 78.9224L225.265 78.9193L225.268 78.9157L225.272 78.9126L225.275 78.9089L225.278 78.9058L225.281 78.9022L225.284 78.8986L225.287 78.8955L225.291 78.8917L225.294 78.8886L225.297 78.885L225.3 78.8819L225.303 78.8783L225.307 78.8744L225.31 78.8713L225.313 78.8677L225.316 78.8641L225.32 78.8608L225.323 78.8572L225.326 78.8536L225.33 78.8502L225.333 78.8466L225.336 78.843L225.34 78.8397L225.343 78.8361L225.346 78.8325L225.349 78.8292L225.352 78.8256L225.356 78.8217L225.359 78.8186L225.362 78.815L225.366 78.8112L225.369 78.8076L225.373 78.8042L225.376 78.8006L225.379 78.7968L225.382 78.7937L225.386 78.7899L225.389 78.7863L225.393 78.7824L225.396 78.7793L225.399 78.7755L225.403 78.7719L225.406 78.768L225.409 78.7644L225.413 78.7611L225.416 78.7575L225.419 78.7537L225.424 78.7494L225.427 78.7458L225.431 78.7424L225.434 78.7388L225.437 78.735L225.441 78.7312L225.444 78.7276L225.448 78.7242L225.451 78.7204L225.454 78.7168L225.458 78.713L225.461 78.7091L225.465 78.7055L225.468 78.7022L225.472 78.6983L225.475 78.6947L225.478 78.6909L225.482 78.6871L225.485 78.6835L225.489 78.6801L225.492 78.6763L225.496 78.6725L225.499 78.6689L225.503 78.665L225.506 78.6612L225.51 78.6574L225.513 78.6538L225.516 78.6504L225.52 78.6466L225.524 78.6428L225.527 78.6392L225.53 78.6353L225.534 78.6315L225.537 78.6276L225.541 78.624L225.544 78.6207L225.548 78.6169L225.551 78.613L225.554 78.6094L225.558 78.6056L225.562 78.6018L225.565 78.5979L225.568 78.5943L225.571 78.5907L225.575 78.5869L225.579 78.5836L225.582 78.5797L225.586 78.5759L225.589 78.5723L225.592 78.5685L225.596 78.5646L225.6 78.5608L225.603 78.5569L225.607 78.5531L225.61 78.5495L225.613 78.5462L225.617 78.5423L225.621 78.5385L225.624 78.5347L225.627 78.5311L225.631 78.5272L225.634 78.5234L225.638 78.5196L225.642 78.5157L225.645 78.5121L225.648 78.5083L225.652 78.505L225.655 78.5011L225.659 78.4973L225.662 78.4937L225.666 78.4899L225.669 78.486L225.673 78.4822L225.676 78.4784L225.68 78.4747L225.683 78.4709L225.687 78.4676L225.69 78.4637L225.694 78.4599L225.697 78.4563L225.701 78.4525L225.704 78.4486L225.708 78.4448L225.711 78.441L225.714 78.4374L225.718 78.434L225.722 78.4302L225.725 78.4264L225.728 78.4228L225.732 78.4189L225.735 78.4151L225.739 78.4113L225.742 78.4077L225.746 78.4043L225.749 78.4005L225.752 78.3969L225.756 78.393L225.76 78.3892L225.763 78.3854L225.766 78.3818L225.77 78.3784L225.773 78.3746L225.776 78.371L225.78 78.3672L225.784 78.3633L225.787 78.3597L225.79 78.3564L225.794 78.3526L225.797 78.349L225.801 78.3451L225.804 78.3413L225.807 78.3377L225.811 78.3343L225.814 78.3307L225.818 78.3269L225.821 78.3231L225.824 78.3195L225.828 78.3161L225.831 78.3125L225.835 78.3087L225.838 78.3051L225.841 78.3018L225.845 78.2979L225.848 78.2943L225.852 78.2905L225.855 78.2874L225.858 78.2835L225.861 78.2799L225.865 78.2761L225.868 78.273L225.872 78.2692L225.875 78.2656L225.878 78.262L225.881 78.2586L225.885 78.255L225.888 78.2512L225.891 78.2481L225.894 78.2445L225.898 78.2406L225.901 78.237L225.905 78.2337L225.908 78.2301L225.911 78.2265L225.915 78.2232L225.918 78.2196L225.921 78.216L225.924 78.2128L225.928 78.209L225.931 78.2059L225.934 78.2023L225.937 78.1985L225.94 78.1954L225.944 78.1918L225.947 78.1882L225.95 78.1851L225.953 78.1812L225.957 78.1781L225.96 78.1745L225.963 78.1714L225.966 78.1678L225.969 78.1642L225.972 78.1611L225.975 78.1575L225.979 78.1542L225.982 78.1505L225.985 78.1474L225.988 78.1438L225.991 78.1407L225.995 78.1371L225.998 78.134L226.001 78.1304L226.004 78.1273L226.007 78.1239L226.01 78.1208L226.013 78.1172L226.016 78.1141L226.019 78.111L226.022 78.1074L226.025 78.1043L226.028 78.1007L226.031 78.0978L226.034 78.0942L226.037 78.0911L226.041 78.088L226.044 78.0844L226.046 78.0815L226.049 78.0784L226.053 78.0748L226.055 78.0719L226.058 78.0688L226.062 78.0652L226.064 78.0624L226.067 78.0593L226.07 78.0559L226.073 78.0528L226.076 78.0497L226.079 78.0468L226.082 78.0432L226.085 78.0403L226.088 78.0372L226.091 78.0343L226.093 78.031L226.096 78.0279L226.099 78.025L226.102 78.0219L226.105 78.019L226.108 78.0156L226.111 78.0125L226.113 78.0096L226.116 78.0068L226.119 78.0037L226.122 78.0008L226.125 77.9979L226.127 77.9945L226.13 77.9917L226.133 77.9886L226.136 77.9857L226.138 77.9828L226.141 77.9799L226.144 77.9771L226.146 77.9742L226.149 77.9713L226.152 77.9684L226.154 77.9656L226.157 77.9627L226.16 77.9598L226.163 77.9569L226.165 77.9541L226.168 77.9512C226.489 77.6071 226.863 77.4267 227.178 77.3834C227.226 77.3771 227.275 77.3738 227.323 77.3734V77.1958C227.323 77.096 227.358 76.9822 227.421 76.8795C227.484 76.7768 227.569 76.6936 227.658 76.6482ZM226.894 85.492C227.463 85.5811 228.113 85.4488 228.775 85.1092C229.437 84.7721 230.087 84.24 230.656 83.5692L229.908 82.2721L227.642 83.4301L226.894 85.492ZM227.36 78.3533L227.356 78.3465C227.292 78.2389 227.152 78.1804 226.965 78.2059C226.778 78.2316 226.593 78.3364 226.467 78.4716L226.465 78.4742L226.462 78.4771L226.46 78.48L226.457 78.4828L226.454 78.4857L226.452 78.4886L226.449 78.4915L226.446 78.4943L226.444 78.4972L226.441 78.5001L226.438 78.503L226.435 78.5061L226.432 78.5089L226.43 78.5118L226.427 78.5147L226.424 78.5176L226.422 78.5204L226.419 78.5235L226.416 78.5269L226.413 78.5298L226.41 78.5327L226.407 78.5358L226.405 78.5386L226.402 78.5415L226.399 78.5451L226.396 78.548L226.393 78.5511L226.39 78.554L226.387 78.5571L226.385 78.5605L226.381 78.5636L226.379 78.5664L226.376 78.5695L226.373 78.5729L226.37 78.576L226.367 78.5789L226.364 78.5825L226.361 78.5856L226.358 78.5885L226.355 78.5921L226.352 78.5952L226.349 78.5981L226.346 78.6017L226.343 78.6048L226.34 78.6077L226.337 78.6113L226.334 78.6144L226.331 78.618L226.328 78.6211L226.325 78.624L226.322 78.6276L226.319 78.6307L226.316 78.6343L226.313 78.6374L226.31 78.641L226.306 78.6441L226.303 78.6472L226.3 78.6508L226.297 78.6539L226.294 78.6575L226.291 78.6606L226.288 78.6642L226.284 78.6673L226.281 78.6709L226.278 78.674L226.275 78.6776L226.272 78.6812L226.269 78.6843L226.266 78.6879L226.263 78.6911L226.259 78.6947L226.256 78.6978L226.253 78.7016L226.25 78.7052L226.247 78.7083L226.243 78.7119L226.24 78.715L226.237 78.7188L226.234 78.7225L226.23 78.7256L226.227 78.7292L226.224 78.7325L226.221 78.7361L226.217 78.7397L226.214 78.743L226.211 78.7466L226.208 78.7502L226.204 78.7536L226.201 78.7572L226.198 78.7608L226.194 78.7646L226.191 78.7677L226.188 78.7716L226.184 78.7752L226.181 78.7783L226.178 78.7821L226.175 78.7857L226.171 78.789L226.168 78.7927L226.164 78.7965L226.161 78.8001L226.158 78.8034L226.154 78.807L226.151 78.8109L226.148 78.8145L226.144 78.8178L226.141 78.8214L226.137 78.8252L226.134 78.8288L226.131 78.8327L226.128 78.8358L226.124 78.8396L226.121 78.8435L226.117 78.8471L226.114 78.8509L226.111 78.854L226.107 78.8578L226.104 78.8617L226.1 78.8653L226.097 78.8691L226.093 78.8724L226.09 78.876L226.087 78.8799L226.083 78.8835L226.08 78.8873L226.076 78.8911L226.073 78.8945L226.07 78.8981L226.066 78.9019L226.062 78.9058L226.059 78.9094L226.056 78.9132L226.052 78.917L226.049 78.9201L226.045 78.924L226.042 78.9278L226.038 78.9316L226.035 78.9352L226.032 78.9391L226.028 78.9429L226.024 78.9462L226.021 78.9498L226.018 78.9537L226.014 78.9575L226.011 78.9613L226.007 78.965L226.004 78.9688L226 78.9726L225.997 78.9765L225.993 78.9798L225.99 78.9834L225.986 78.9872L225.983 78.9911L225.979 78.9949L225.976 78.9987L225.973 79.0023L225.969 79.0062L225.965 79.01L225.962 79.0138L225.958 79.0172L225.955 79.0208L225.952 79.0246L225.948 79.0284L225.944 79.0323L225.941 79.0361L225.938 79.0397L225.934 79.0435L225.931 79.0474L225.927 79.0512L225.923 79.0545L225.92 79.0582L225.917 79.062L225.913 79.0658L225.91 79.0697L225.906 79.0735L225.903 79.0771L225.899 79.0809L225.896 79.0848L225.892 79.0886L225.889 79.0919L225.885 79.0958L225.882 79.0994L225.878 79.1032L225.875 79.107L225.871 79.1109L225.868 79.1147L225.865 79.1183L225.861 79.1221L225.857 79.126L225.854 79.1293L225.851 79.1329L225.847 79.1368L225.844 79.1406L225.84 79.1444L225.836 79.1483L225.833 79.1519L225.83 79.1557L225.826 79.1595L225.823 79.1629L225.819 79.1665L225.816 79.1703L225.812 79.1741L225.809 79.178L225.806 79.1816L225.802 79.1854L225.798 79.1892L225.795 79.1926L225.792 79.1962L225.788 79.2L225.785 79.2038L225.781 79.2075L225.778 79.2113L225.774 79.2151L225.771 79.2185L225.768 79.2221L225.764 79.2259L225.76 79.2297L225.757 79.2333L225.754 79.2372L225.75 79.2405L225.747 79.2441L225.743 79.2479L225.74 79.2515L225.737 79.2554L225.733 79.2587L225.73 79.2623L225.726 79.2661L225.723 79.27L225.72 79.2736L225.716 79.2769L225.713 79.2805L225.709 79.2844L225.706 79.288L225.703 79.2918L225.7 79.2949L225.696 79.2987L225.692 79.3026L225.689 79.3062L225.686 79.3095L225.683 79.3131L225.679 79.3169L225.676 79.3206L225.673 79.3237L225.669 79.3275L225.666 79.3311L225.663 79.3349L225.659 79.338L225.656 79.3419L225.653 79.3455L225.65 79.3486L225.646 79.3524L225.643 79.356L225.639 79.3594L225.636 79.363L225.633 79.3666L225.629 79.3699L225.626 79.3735L225.623 79.3771L225.62 79.3804L225.617 79.384L225.613 79.3877L225.61 79.3908L225.607 79.3946L225.604 79.3982L225.6 79.4013L225.597 79.4049L225.594 79.408L225.591 79.4118L225.587 79.4154L225.584 79.4186L225.581 79.4222L225.578 79.4253L225.575 79.4289L225.572 79.432L225.568 79.4358L225.565 79.4389L225.562 79.4425L225.559 79.4461L225.556 79.4492L225.553 79.4528L225.55 79.4559L225.546 79.4595L225.543 79.4626L225.54 79.4657L225.537 79.4694L225.534 79.4725L225.531 79.4758L225.528 79.4789L225.525 79.4825L225.522 79.4856L225.519 79.4893L225.516 79.4924L225.512 79.4955L225.51 79.4988L225.507 79.5019L225.503 79.5055L225.5 79.5086L225.498 79.5115L225.495 79.5151L225.491 79.5182L225.488 79.5213L225.486 79.5247L225.482 79.5278L225.48 79.5307L225.477 79.5343L225.474 79.5374L225.471 79.5403L225.468 79.5439L225.465 79.5468L225.462 79.5499L225.459 79.5527L225.456 79.5563L225.453 79.5592L225.45 79.5623L225.448 79.5652L225.445 79.5683L225.442 79.5717L225.439 79.5746L225.436 79.5777L225.433 79.5805L225.431 79.5834L225.428 79.5865L225.425 79.5899L225.422 79.5928L225.419 79.5956L225.416 79.5987L225.414 79.6016L225.411 79.6045L225.408 79.6074L225.406 79.6103L225.403 79.6131L225.4 79.616L225.398 79.6189L225.395 79.6218L225.392 79.6246L225.39 79.6275L225.387 79.6304L225.384 79.6333L225.382 79.6361L225.379 79.639L225.376 79.6419L225.373 79.6448L225.371 79.6476L225.368 79.6505L225.366 79.6532L225.363 79.656L225.361 79.6589L225.358 79.6613L225.356 79.6639L225.353 79.6668L225.35 79.6697L225.348 79.6723L225.345 79.6752L225.343 79.6773L225.34 79.6802L225.338 79.6829L225.335 79.6857L225.333 79.6879L225.331 79.6908L225.328 79.6934L225.326 79.6958L225.323 79.6984L225.321 79.7011L225.319 79.704L225.316 79.7061L225.314 79.7087L225.311 79.7111L225.309 79.7138L225.307 79.7164L225.305 79.7186L225.302 79.7212L225.3 79.7234L225.298 79.726L225.296 79.7281L225.293 79.7308L225.291 79.7329L225.289 79.7356L225.287 79.7377L225.285 79.7404L225.282 79.7425L225.28 79.7452L225.278 79.7473L225.276 79.7495L225.274 79.7519L225.272 79.754L225.269 79.7567L225.267 79.7588L225.265 79.7607L225.263 79.7634L225.261 79.7655L225.259 79.7674L225.257 79.7696L225.255 79.772L225.253 79.7742L225.251 79.7761L225.249 79.7782L225.247 79.7806L225.245 79.7826L225.243 79.7847L225.241 79.7866L225.239 79.7885L225.238 79.7904L225.235 79.7926L225.234 79.795L225.232 79.7969L225.23 79.7988L225.228 79.8008L225.226 79.8027L225.225 79.8046L225.223 79.8065L225.221 79.8084L225.219 79.8103L225.218 79.8123L225.216 79.8142L225.214 79.8156L225.213 79.8173L225.211 79.8192L225.209 79.8211L225.207 79.823L225.206 79.8247L225.204 79.8266L225.203 79.8278L225.201 79.8297L225.199 79.8317L225.198 79.8334L225.196 79.8348L225.195 79.8365L225.193 79.8381L225.192 79.8396L225.19 79.8412L225.189 79.8429L225.187 79.8444L225.186 79.846L225.184 79.8477L225.183 79.8489L225.182 79.8506L225.18 79.8518L225.179 79.8535L225.178 79.8547L225.176 79.8564L225.175 79.8575L225.174 79.8592L225.172 79.8604L225.171 79.8621L225.17 79.8628L225.169 79.8643L225.167 79.8659L225.166 79.8671L225.165 79.8681L225.164 79.8698L225.163 79.8705L225.162 79.8719L225.16 79.8731L225.159 79.8746L225.159 79.875L225.157 79.8767L225.156 79.8777L225.155 79.8786L225.154 79.8798L225.153 79.8813L225.152 79.8817L225.151 79.8832L225.151 79.8837L225.15 79.8851L225.149 79.8856L225.148 79.887L225.147 79.8875L225.146 79.8889L225.145 79.8894L225.144 79.8909L225.143 79.8913L225.143 79.892L225.142 79.893L225.141 79.894L225.14 79.8957L225.139 79.8961L225.138 79.8968L225.137 79.8985L225.136 79.8992V79.9002L225.134 79.9009L225.134 79.9019L225.133 79.9028L225.132 79.9038C225.088 79.9595 225.049 80.0202 225.016 80.0836C224.948 80.2136 224.865 80.4247 224.865 80.7098C224.865 80.9948 224.948 81.1218 225.016 81.182C225.031 81.1965 225.047 81.2076 225.062 81.2156L226.263 80.377C226.311 80.3435 226.36 80.3213 226.407 80.3118C226.454 80.3024 226.497 80.306 226.534 80.3223C226.571 80.3387 226.601 80.3674 226.622 80.4066C226.642 80.4457 226.653 80.4943 226.653 80.549V82.5561C226.653 82.6845 226.713 82.8135 226.834 82.8876C226.954 82.9614 227.097 82.9563 227.211 82.8978L230.339 81.2993C230.648 81.141 230.827 80.8881 230.945 80.608C231.073 80.3022 231.121 79.9739 231.121 79.7707C231.121 79.5679 231.073 79.2881 230.945 79.1133C230.827 78.9533 230.648 78.8835 230.339 79.0418L228.328 80.0694V79.6926V80.0689C228.258 80.1048 228.189 80.1149 228.132 80.0977C228.075 80.0806 228.033 80.0371 228.01 79.9734L228.01 79.9726L228.009 79.9701L228.006 79.9598L227.991 79.9192C227.916 79.7086 227.84 79.4998 227.761 79.293C227.621 78.9236 227.462 78.5302 227.36 78.3533Z" fill="#5C5C5C"/>
</g>
<g clip-path="url(#clip10_1938_13284)">
<path fill-rule="evenodd" clip-rule="evenodd" d="M175.264 119.526C175.04 119.452 174.766 119.496 174.486 119.649C174.207 119.802 173.939 120.056 173.727 120.369L173.649 120.484C173.509 120.689 173.399 120.913 173.324 121.14C173.25 121.366 173.214 121.59 173.22 121.793C173.226 121.996 173.272 122.174 173.356 122.314C173.441 122.455 173.561 122.553 173.707 122.603V122.782C173.707 123.397 173.875 123.899 174.173 124.236L174.085 124.227C173.972 124.212 173.847 124.229 173.718 124.277C173.588 124.326 173.457 124.404 173.331 124.507C173.206 124.611 173.088 124.738 172.986 124.881C172.883 125.024 172.798 125.18 172.735 125.341C172.671 125.501 172.631 125.663 172.617 125.816C172.602 125.969 172.614 126.11 172.65 126.232C172.687 126.354 172.748 126.454 172.83 126.526C172.911 126.598 173.013 126.641 173.127 126.652L173.43 126.686C173.22 126.868 173.031 127.099 172.881 127.357C172.73 127.615 172.624 127.89 172.572 128.157C172.52 128.424 172.524 128.673 172.583 128.881C172.643 129.089 172.756 129.248 172.912 129.343L173.358 129.616C173.487 129.695 173.642 129.729 173.813 129.714C173.983 129.699 174.166 129.636 174.348 129.53C174.53 129.424 174.707 129.277 174.868 129.099C175.029 128.92 175.17 128.715 175.281 128.496C175.593 128.5 175.933 128.412 176.276 128.235C176.632 128.054 176.969 127.793 177.272 127.478C177.383 127.583 177.524 127.645 177.685 127.659C177.846 127.673 178.023 127.638 178.205 127.559C178.387 127.479 178.569 127.355 178.74 127.195C178.91 127.036 179.065 126.844 179.194 126.634L179.641 125.904C179.797 125.649 179.91 125.374 179.969 125.106C180.029 124.837 180.033 124.584 179.981 124.37C179.928 124.157 179.822 123.99 179.672 123.886C179.522 123.782 179.332 123.744 179.123 123.777L179.425 123.433C179.649 123.173 179.812 122.852 179.881 122.537C179.95 122.222 179.918 121.939 179.792 121.75C179.667 121.56 179.458 121.479 179.21 121.523C178.962 121.568 178.696 121.734 178.468 121.987L178.38 122.086C178.683 121.432 178.845 120.759 178.845 120.156V119.956C178.973 119.767 179.077 119.562 179.15 119.353C179.224 119.145 179.265 118.937 179.271 118.744C179.277 118.552 179.249 118.377 179.187 118.232C179.125 118.087 179.032 117.974 178.912 117.901L178.849 117.862C178.64 117.734 178.362 117.733 178.067 117.861C177.772 117.988 177.479 118.234 177.242 118.555L177.133 118.704C176.863 118.708 176.571 118.788 176.276 118.939C175.982 119.089 175.69 119.307 175.42 119.579L175.264 119.526L175.264 119.526ZM178.301 125.083L177.854 125.813C177.743 126 177.681 126.206 177.682 126.385C177.684 126.565 177.748 126.705 177.862 126.774C177.975 126.844 178.129 126.838 178.29 126.757C178.45 126.677 178.605 126.528 178.721 126.344L179.167 125.614C179.282 125.426 179.347 125.218 179.347 125.035C179.347 124.853 179.282 124.711 179.167 124.64C179.052 124.57 178.896 124.577 178.734 124.66C178.571 124.743 178.416 124.895 178.301 125.083ZM177.948 124.611C177.946 124.578 177.943 124.545 177.939 124.513C177.929 124.431 177.947 124.333 177.989 124.238C178.031 124.142 178.095 124.054 178.17 123.989C178.19 123.972 178.209 123.952 178.228 123.931L179.1 122.942C179.136 122.901 179.168 122.854 179.194 122.804C179.22 122.754 179.239 122.703 179.25 122.652C179.261 122.602 179.265 122.553 179.26 122.509C179.255 122.465 179.243 122.427 179.222 122.397C179.202 122.366 179.175 122.344 179.143 122.332C179.11 122.319 179.073 122.317 179.033 122.325C178.993 122.332 178.951 122.35 178.91 122.376C178.869 122.402 178.829 122.437 178.793 122.478L177.921 123.468C177.913 123.478 177.904 123.488 177.896 123.498C177.831 123.581 177.753 123.643 177.675 123.675C177.597 123.706 177.524 123.704 177.469 123.67C177.387 123.618 177.296 123.581 177.198 123.558C177.151 123.547 177.113 123.519 177.086 123.477C177.06 123.434 177.047 123.378 177.048 123.314C177.049 123.25 177.065 123.18 177.093 123.11C177.121 123.041 177.161 122.974 177.209 122.917C177.504 122.566 177.748 122.158 177.917 121.735C178.086 121.311 178.175 120.885 178.175 120.498V120.115C178.175 120.056 178.187 119.992 178.211 119.928C178.234 119.864 178.268 119.801 178.309 119.745L178.379 119.651C178.443 119.565 178.496 119.469 178.534 119.37C178.572 119.272 178.595 119.173 178.601 119.081C178.607 118.988 178.595 118.904 178.567 118.834C178.539 118.764 178.496 118.71 178.439 118.675L178.375 118.636C178.28 118.578 178.154 118.578 178.02 118.636C177.886 118.693 177.753 118.805 177.645 118.951L177.372 119.321C177.322 119.388 177.263 119.444 177.201 119.482C177.139 119.52 177.076 119.538 177.021 119.535L176.926 119.531C176.724 119.521 176.502 119.576 176.277 119.691C176.051 119.806 175.829 119.979 175.627 120.195L175.533 120.296C175.478 120.356 175.415 120.401 175.353 120.427C175.291 120.452 175.232 120.457 175.182 120.44L174.861 120.335C174.76 120.301 174.635 120.32 174.508 120.39C174.381 120.459 174.26 120.575 174.163 120.717L173.945 120.543L174.163 120.717L174.085 120.832C174.018 120.931 173.965 121.04 173.932 121.149C173.898 121.258 173.885 121.364 173.892 121.46C173.9 121.555 173.928 121.636 173.974 121.696C174.021 121.757 174.085 121.795 174.161 121.807L174.215 121.816C174.264 121.824 174.305 121.851 174.334 121.892C174.363 121.934 174.378 121.991 174.378 122.056V122.439C174.378 123.23 174.747 123.77 175.344 123.871C175.392 123.879 175.432 123.904 175.46 123.945C175.488 123.986 175.504 124.04 175.505 124.103C175.506 124.166 175.493 124.235 175.466 124.305C175.44 124.374 175.401 124.442 175.354 124.501C175.257 124.623 175.166 124.753 175.084 124.889C175.029 124.98 174.956 125.056 174.878 125.104C174.8 125.153 174.722 125.17 174.657 125.154C174.649 125.152 174.64 125.15 174.632 125.149L173.76 125.051C173.687 125.045 173.601 125.079 173.522 125.146C173.443 125.213 173.377 125.308 173.337 125.409C173.297 125.511 173.286 125.611 173.308 125.689C173.33 125.768 173.382 125.817 173.453 125.828L174.325 125.926C174.343 125.928 174.363 125.928 174.383 125.925C174.458 125.913 174.522 125.935 174.564 125.988C174.607 126.041 174.624 126.12 174.614 126.213C174.611 126.249 174.608 126.284 174.605 126.32C174.647 126.335 174.688 126.354 174.726 126.378L175.173 126.652C175.312 126.737 175.417 126.872 175.48 127.049C175.543 127.225 175.563 127.437 175.538 127.668C175.768 127.678 176.02 127.614 176.276 127.483C176.542 127.347 176.792 127.15 177.015 126.913C176.989 126.708 177.009 126.476 177.073 126.235C177.136 125.995 177.241 125.752 177.379 125.525L177.38 125.524L177.827 124.794L177.841 124.77C177.876 124.715 177.911 124.663 177.948 124.612V124.611ZM174.759 127.473C174.741 127.455 174.721 127.439 174.699 127.426L174.253 127.152C174.138 127.082 173.982 127.089 173.819 127.172C173.657 127.255 173.501 127.408 173.386 127.595C173.271 127.783 173.206 127.991 173.206 128.174C173.206 128.356 173.271 128.498 173.386 128.569L173.833 128.842C173.941 128.911 174.089 128.91 174.244 128.837C174.4 128.765 174.552 128.628 174.67 128.454C174.787 128.279 174.862 128.081 174.879 127.899C174.895 127.717 174.852 127.564 174.759 127.473ZM175.606 121.553C175.517 121.598 175.432 121.682 175.369 121.784C175.307 121.887 175.271 122.001 175.271 122.101C175.271 122.2 175.307 122.278 175.369 122.317C175.432 122.355 175.517 122.351 175.606 122.306L175.611 122.303C175.7 122.258 175.785 122.175 175.848 122.072C175.911 121.969 175.946 121.856 175.946 121.756C175.946 121.656 175.911 121.578 175.848 121.54C175.785 121.501 175.7 121.505 175.611 121.551L175.606 121.553ZM175.816 122.56C175.877 122.461 175.958 122.38 176.044 122.333C176.129 122.287 176.213 122.278 176.276 122.309C176.341 122.21 176.427 122.132 176.514 122.091C176.602 122.05 176.685 122.05 176.745 122.09C176.805 122.131 176.838 122.21 176.836 122.309C176.835 122.408 176.799 122.52 176.737 122.621L176.513 122.986C176.45 123.089 176.365 123.172 176.276 123.217C176.188 123.263 176.103 123.267 176.04 123.228L175.816 123.092C175.785 123.073 175.76 123.044 175.744 123.007C175.727 122.97 175.718 122.925 175.718 122.876C175.718 122.826 175.727 122.773 175.744 122.718C175.76 122.664 175.785 122.61 175.816 122.559V122.56ZM176.612 121.416C176.612 121.316 176.647 121.202 176.71 121.099C176.773 120.997 176.858 120.913 176.947 120.868L176.951 120.866C177.04 120.82 177.125 120.816 177.188 120.855C177.251 120.893 177.286 120.971 177.286 121.071C177.286 121.171 177.251 121.284 177.188 121.387C177.125 121.49 177.04 121.573 176.951 121.618L176.947 121.621C176.858 121.666 176.773 121.67 176.71 121.632C176.647 121.593 176.612 121.515 176.612 121.416Z" fill="#5C5C5C"/>
</g>
<g clip-path="url(#clip11_1938_13284)">
<path fill-rule="evenodd" clip-rule="evenodd" d="M193.702 111.411C194.327 110.468 194.942 109.852 195.545 109.544C196.224 109.197 196.806 109.282 197.29 109.578C198.35 110.226 198.276 112.262 196.843 114.603L194.888 117.797L194.204 118.916L194.008 119.235L193.957 119.32L193.943 119.342L193.94 119.347L193.939 119.349L193.702 119.204L193.465 119.591L193.465 119.591L193.464 119.591L193.46 119.588L193.447 119.58L193.395 119.549L193.2 119.429L192.516 119.01L190.561 117.814C189.128 116.937 189.054 114.977 190.114 113.245C190.597 112.456 191.18 111.775 191.859 111.428C192.462 111.12 193.077 111.107 193.702 111.411ZM193.702 119.204L193.465 119.591C193.528 119.629 193.613 119.625 193.702 119.58C193.791 119.535 193.876 119.452 193.939 119.349L193.702 119.204ZM193.702 118.672L193.73 118.626L194.414 117.508L196.369 114.313C197.617 112.273 197.543 110.797 196.816 110.352C196.405 110.101 195.983 110.072 195.545 110.296C195.107 110.52 194.572 111.038 193.939 112.073C193.876 112.176 193.791 112.259 193.702 112.304C193.613 112.35 193.528 112.354 193.465 112.315C192.831 111.928 192.297 111.957 191.858 112.181C191.42 112.405 190.997 112.865 190.587 113.535C189.86 114.724 189.786 116.276 191.034 117.04L192.989 118.236L193.673 118.654L193.701 118.672L193.702 118.672Z" fill="#5C5C5C"/>
</g>
<g clip-path="url(#clip12_1938_13284)">
<path fill-rule="evenodd" clip-rule="evenodd" d="M207.217 104.017C207.217 103.917 207.253 103.803 207.315 103.7C207.378 103.598 207.464 103.514 207.552 103.469L213.808 100.272C213.896 100.227 213.982 100.223 214.044 100.261L214.938 100.808C215.001 100.846 215.036 100.924 215.036 101.024V108.049C215.036 108.148 215.001 108.262 214.938 108.365C214.875 108.468 214.79 108.551 214.701 108.596L207.552 112.25C207.464 112.295 207.378 112.299 207.315 112.261C207.253 112.222 207.217 112.145 207.217 112.045V104.017ZM209.228 110.641L213.026 108.7V104.937L209.228 106.878V110.641ZM213.696 108.357V104.218C213.696 104.118 213.661 104.04 213.598 104.002C213.535 103.963 213.45 103.967 213.361 104.013L208.893 106.296C208.804 106.342 208.719 106.425 208.656 106.528C208.593 106.63 208.558 106.744 208.558 106.844V110.984L207.887 111.326V104.05L209.004 103.479V104.608C209.004 104.816 209.155 104.908 209.34 104.814L212.914 102.987C213.003 102.941 213.088 102.858 213.151 102.755C213.214 102.653 213.249 102.539 213.249 102.439V101.31L213.669 101.095L214.366 101.522V108.015L213.696 108.357ZM212.579 102.405V101.653L209.675 103.137V103.89L212.579 102.405ZM209.898 107.664C209.898 107.564 209.933 107.451 209.996 107.348C210.059 107.245 210.144 107.162 210.233 107.117L212.02 106.203C212.109 106.158 212.194 106.154 212.257 106.192C212.32 106.231 212.355 106.308 212.355 106.408C212.355 106.508 212.32 106.622 212.257 106.724C212.194 106.827 212.109 106.91 212.02 106.956L210.233 107.869C210.144 107.915 210.059 107.919 209.996 107.88C209.933 107.842 209.898 107.764 209.898 107.664ZM210.233 108.622C210.144 108.667 210.059 108.751 209.996 108.853C209.933 108.956 209.898 109.07 209.898 109.169C209.898 109.269 209.933 109.347 209.996 109.385C210.059 109.424 210.144 109.42 210.233 109.375L211.574 108.689C211.662 108.644 211.748 108.561 211.81 108.458C211.873 108.355 211.909 108.242 211.909 108.142C211.909 108.042 211.873 107.964 211.81 107.926C211.748 107.887 211.662 107.891 211.574 107.937L210.233 108.622Z" fill="#5C5C5C"/>
</g>
<g clip-path="url(#clip13_1938_13284)">
<path fill-rule="evenodd" clip-rule="evenodd" d="M228.699 92.5311C228.707 92.5758 228.706 92.6262 228.697 92.6793C228.687 92.7324 228.669 92.7872 228.644 92.8406C228.619 92.894 228.587 92.945 228.55 92.9906C228.513 93.0362 228.471 93.0755 228.428 93.1063C227.68 93.6393 227.002 94.4268 226.514 95.3309C226.027 96.235 225.759 97.1982 225.759 98.0519V98.1071L225.745 98.1671L225.204 100.468L225.871 100.127C225.96 100.082 226.045 100.078 226.108 100.117C226.171 100.155 226.206 100.233 226.206 100.332V101.336C226.206 101.682 226.456 101.835 226.765 101.678L228.105 100.993C228.194 100.947 228.279 100.943 228.342 100.982C228.405 101.02 228.44 101.098 228.44 101.198V101.95C228.44 102.05 228.405 102.164 228.342 102.267C228.279 102.369 228.194 102.453 228.105 102.498C228.016 102.543 227.931 102.547 227.868 102.509C227.805 102.47 227.77 102.393 227.77 102.293V101.917L226.765 102.43C226.439 102.597 226.126 102.611 225.896 102.47C225.665 102.329 225.536 102.045 225.536 101.679V101.051L224.754 101.451C224.702 101.478 224.65 101.49 224.603 101.488C224.557 101.485 224.516 101.468 224.485 101.437C224.454 101.405 224.433 101.361 224.424 101.308C224.415 101.255 224.418 101.194 224.433 101.13L225.089 98.3376C225.101 97.3108 225.429 96.1589 226.017 95.0799C226.605 94.0009 227.416 93.0622 228.311 92.425C228.398 92.3629 228.488 92.3392 228.561 92.3591C228.634 92.379 228.684 92.4409 228.699 92.5311ZM232.422 93.4296C232.465 93.3972 232.51 93.3737 232.553 93.3605C232.596 93.3472 232.638 93.3445 232.675 93.3525C232.712 93.3604 232.744 93.3789 232.769 93.4068C232.794 93.4347 232.811 93.4715 232.82 93.5151C232.879 93.7902 232.908 94.0862 232.908 94.3981C232.909 95.4173 232.593 96.5671 232.014 97.6487V100.123C232.014 100.223 231.979 100.337 231.916 100.44C231.853 100.542 231.768 100.626 231.679 100.671C231.59 100.717 231.505 100.72 231.442 100.682C231.379 100.644 231.344 100.566 231.344 100.466V97.7103L231.428 97.5605C231.951 96.6295 232.239 95.6263 232.238 94.7407C232.238 94.4818 232.214 94.2362 232.165 94.008C232.147 93.92 232.163 93.8097 232.212 93.7014C232.26 93.593 232.336 93.4955 232.422 93.4301V93.4296ZM230.004 91.7429C229.687 91.9047 229.38 92.1873 229.138 92.5407C228.896 92.894 228.735 93.2952 228.682 93.673L228.663 93.6824C228.426 93.8035 228.199 94.0254 228.032 94.2993C227.864 94.5731 227.77 94.8765 227.77 95.1427C227.77 95.4088 227.864 95.616 228.032 95.7185C228.199 95.8211 228.426 95.8106 228.663 95.6895L231.121 94.4335C231.413 94.2841 231.694 94.0118 231.903 93.6753C232.111 93.3387 232.232 92.9646 232.238 92.6334C232.243 92.3021 232.134 92.04 231.934 91.9034C231.734 91.7668 231.458 91.7666 231.165 91.9028C231.048 91.7336 230.879 91.6298 230.675 91.6017C230.471 91.5736 230.239 91.6223 230.004 91.7429ZM229.334 93.5907C229.333 93.4131 229.389 93.2125 229.491 93.0244C229.593 92.8363 229.735 92.6729 229.89 92.5631C230.046 92.4534 230.207 92.4043 230.343 92.4246C230.48 92.4449 230.583 92.5333 230.636 92.6742C230.683 92.8005 230.81 92.836 230.952 92.7636L231.121 92.6773C231.239 92.6167 231.353 92.6115 231.437 92.6628C231.521 92.714 231.568 92.8176 231.568 92.9507C231.568 93.0838 231.521 93.2355 231.437 93.3724C231.353 93.5093 231.239 93.6203 231.121 93.6808L228.663 94.9368C228.604 94.9671 228.547 94.9697 228.505 94.9441C228.464 94.9184 228.44 94.8667 228.44 94.8001C228.44 94.7336 228.464 94.6577 228.505 94.5893C228.547 94.5208 228.604 94.4653 228.663 94.435L228.999 94.2638C229.087 94.2184 229.173 94.1351 229.235 94.0324C229.298 93.9297 229.334 93.816 229.334 93.7162V93.5907Z" fill="#5C5C5C"/>
</g>
<g clip-path="url(#clip14_1938_13284)">
<path fill-rule="evenodd" clip-rule="evenodd" d="M174.615 135.872C174.565 135.874 174.509 135.894 174.455 135.928C174.4 135.962 174.348 136.01 174.302 136.068C174.256 136.126 174.219 136.192 174.193 136.259C174.167 136.327 174.154 136.395 174.154 136.456V137.538C173.747 138.095 173.412 138.711 173.172 139.341L172.255 139.81C172.166 139.856 172.081 139.939 172.018 140.042C171.955 140.144 171.92 140.258 171.92 140.358V143.118C171.92 143.325 172.07 143.417 172.255 143.323L173.301 142.788C173.614 143.193 174.063 143.438 174.601 143.509V145.009C174.601 145.109 174.636 145.186 174.699 145.225C174.762 145.263 174.847 145.259 174.936 145.214C175.025 145.169 175.11 145.085 175.173 144.983C175.236 144.88 175.271 144.766 175.271 144.666V143.511C175.737 143.457 176.228 143.3 176.723 143.046C177.232 142.786 177.724 142.436 178.175 142.025V143.182C178.175 143.282 178.21 143.36 178.273 143.398C178.336 143.436 178.421 143.433 178.51 143.387C178.599 143.342 178.684 143.258 178.747 143.156C178.81 143.053 178.845 142.939 178.845 142.84V141.338C179.912 140.108 180.632 138.55 180.632 137.159C180.632 134.966 178.839 134.187 176.723 135.269C176.427 135.42 176.138 135.6 175.861 135.805L174.615 135.871V135.872ZM174.824 137.386V136.673L175.703 136.625C175.766 136.622 175.836 136.593 175.903 136.542C176.172 136.336 176.447 136.162 176.723 136.021C178.555 135.085 179.962 135.816 179.962 137.502C179.962 139.188 178.555 141.357 176.723 142.293C175.408 142.966 174.297 142.777 173.787 141.984C173.758 141.939 173.716 141.911 173.664 141.903C173.612 141.895 173.553 141.907 173.492 141.938L172.59 142.399V140.392L173.383 139.986C173.448 139.953 173.512 139.899 173.567 139.831C173.621 139.763 173.664 139.684 173.691 139.603C173.893 138.981 174.236 138.346 174.682 137.767C174.771 137.651 174.824 137.509 174.824 137.386ZM175.532 138.597C176.332 137.739 177.114 137.34 177.914 137.38C177.953 137.383 177.996 137.374 178.04 137.355C178.084 137.337 178.129 137.308 178.171 137.271C178.213 137.234 178.251 137.189 178.285 137.14C178.318 137.09 178.346 137.037 178.366 136.982C178.385 136.927 178.397 136.873 178.4 136.822C178.403 136.771 178.397 136.724 178.383 136.684C178.369 136.644 178.347 136.612 178.317 136.59C178.288 136.568 178.253 136.555 178.213 136.554C177.226 136.504 176.22 137.018 175.233 138.077C175.154 138.162 175.094 138.271 175.067 138.379C175.039 138.488 175.046 138.587 175.085 138.656C175.125 138.725 175.194 138.757 175.278 138.746C175.361 138.735 175.453 138.682 175.532 138.597Z" fill="#5C5C5C"/>
</g>
<g clip-path="url(#clip15_1938_13284)">
<path fill-rule="evenodd" clip-rule="evenodd" d="M197.472 124.735C197.515 124.748 197.55 124.776 197.574 124.816C197.599 124.857 197.611 124.909 197.611 124.969V132.997C197.611 133.097 197.576 133.211 197.513 133.314C197.45 133.416 197.365 133.5 197.276 133.545C197.187 133.59 197.102 133.594 197.039 133.556C196.976 133.517 196.941 133.44 196.941 133.34V130.204L196.829 130.261C196.503 130.427 196.191 130.442 195.96 130.301C195.73 130.16 195.601 129.875 195.601 129.509V127.945C195.601 127.445 195.741 126.886 196.001 126.347C196.262 125.808 196.629 125.316 197.052 124.942L197.17 124.837C197.221 124.793 197.274 124.76 197.327 124.742C197.379 124.725 197.429 124.722 197.472 124.735ZM196.941 129.451V125.886C196.735 126.138 196.566 126.428 196.449 126.728C196.332 127.028 196.271 127.329 196.271 127.602V129.166C196.271 129.513 196.521 129.666 196.829 129.508L196.941 129.451ZM190.462 128.623C190.462 128.523 190.427 128.445 190.364 128.407C190.301 128.368 190.216 128.372 190.127 128.418C190.038 128.463 189.953 128.546 189.89 128.649C189.828 128.752 189.792 128.866 189.792 128.965V131.474C189.792 132.106 190.17 132.445 190.686 132.345V136.537C190.686 136.637 190.721 136.714 190.784 136.753C190.847 136.791 190.932 136.787 191.021 136.742C191.11 136.697 191.195 136.613 191.258 136.511C191.321 136.408 191.356 136.294 191.356 136.194V132.003C191.613 131.789 191.84 131.499 192.001 131.177C192.162 130.855 192.25 130.519 192.25 130.218V127.709C192.25 127.61 192.214 127.532 192.151 127.493C192.089 127.455 192.003 127.459 191.915 127.504C191.826 127.55 191.74 127.633 191.678 127.736C191.615 127.838 191.579 127.952 191.579 128.052V130.561C191.579 130.727 191.521 130.917 191.416 131.088C191.311 131.259 191.169 131.398 191.021 131.473C190.873 131.549 190.731 131.556 190.626 131.492C190.521 131.427 190.462 131.298 190.462 131.132V128.623ZM191.356 128.166C191.356 128.066 191.321 127.989 191.258 127.95C191.195 127.912 191.11 127.916 191.021 127.961C190.932 128.006 190.847 128.09 190.784 128.192C190.721 128.295 190.686 128.409 190.686 128.509V130.265C190.686 130.365 190.721 130.442 190.784 130.481C190.847 130.519 190.932 130.515 191.021 130.47C191.11 130.424 191.195 130.341 191.258 130.239C191.321 130.136 191.356 130.022 191.356 129.922V128.166ZM193.59 130.871C193.45 130.906 193.318 130.907 193.2 130.875C193.016 130.821 192.874 130.687 192.791 130.492C192.633 130.138 192.64 129.619 192.7 129.18C192.758 128.648 192.865 128.107 193.038 127.646C193.208 127.194 193.492 126.698 193.925 126.477C194.353 126.258 194.638 126.447 194.811 126.726C194.985 127.007 195.092 127.439 195.151 127.929C195.21 128.307 195.217 128.818 195.059 129.333C194.977 129.613 194.834 129.891 194.65 130.134C194.535 130.284 194.404 130.416 194.26 130.528V134.71C194.26 134.81 194.225 134.924 194.162 135.026C194.099 135.129 194.014 135.212 193.925 135.258C193.836 135.303 193.751 135.307 193.688 135.269C193.625 135.23 193.59 135.152 193.59 135.053V130.871ZM193.364 128.944C193.418 128.453 193.51 128.015 193.632 127.691C193.758 127.356 193.865 127.26 193.925 127.229C193.991 127.196 194.097 127.183 194.219 127.38C194.34 127.574 194.433 127.915 194.486 128.369L194.487 128.376L194.488 128.383C194.539 128.7 194.531 129.064 194.439 129.365C194.395 129.508 194.336 129.623 194.265 129.715C194.195 129.806 194.09 129.905 193.925 129.989C193.76 130.074 193.655 130.082 193.586 130.062C193.506 130.037 193.445 129.977 193.411 129.89C193.319 129.683 193.311 129.328 193.362 128.959L193.363 128.952L193.364 128.944Z" fill="#5C5C5C"/>
</g>
<g clip-path="url(#clip16_1938_13284)">
<path fill-rule="evenodd" clip-rule="evenodd" d="M214.589 116.301C214.589 116.244 214.578 116.193 214.556 116.152C214.534 116.112 214.502 116.082 214.462 116.067C214.422 116.051 214.376 116.049 214.326 116.061C214.277 116.073 214.225 116.099 214.175 116.136L214.011 116.26C212.11 117.69 210.143 118.695 208.242 119.209L208.078 119.253C208.028 119.266 207.976 119.294 207.926 119.332C207.877 119.371 207.83 119.42 207.791 119.477C207.751 119.533 207.719 119.595 207.697 119.658C207.675 119.721 207.664 119.783 207.664 119.841V124.347C207.664 125.378 208.029 126.181 208.678 126.578C209.327 126.975 210.208 126.935 211.126 126.466C212.045 125.996 212.926 125.136 213.575 124.075C214.224 123.014 214.589 121.838 214.589 120.807V116.301ZM208.334 119.951C210.178 119.417 212.075 118.448 213.919 117.097V121.15C213.919 121.981 213.625 122.929 213.101 123.785C212.577 124.641 211.867 125.334 211.126 125.713C210.386 126.091 209.676 126.124 209.152 125.804C208.628 125.483 208.334 124.836 208.334 124.004V119.951ZM210.121 121.334C210.121 121.035 210.227 120.694 210.416 120.386C210.604 120.078 210.86 119.828 211.126 119.692C211.393 119.555 211.649 119.544 211.837 119.659C212.026 119.774 212.132 120.007 212.132 120.307V120.683L212.243 120.626C212.552 120.468 212.802 120.622 212.802 120.968V122.724C212.802 122.824 212.767 122.938 212.704 123.04C212.641 123.143 212.556 123.226 212.467 123.272L209.786 124.642C209.697 124.687 209.612 124.691 209.549 124.653C209.486 124.614 209.451 124.537 209.451 124.437V122.681C209.451 122.334 209.701 121.925 210.009 121.768L210.121 121.711V121.334ZM211.462 120.649V121.026L210.791 121.368V120.992C210.791 120.892 210.827 120.778 210.89 120.676C210.952 120.573 211.038 120.49 211.126 120.444C211.215 120.399 211.301 120.395 211.363 120.433C211.426 120.472 211.462 120.55 211.462 120.649ZM210.121 122.463V123.718L212.132 122.69V121.436L210.121 122.463Z" fill="#5C5C5C"/>
</g>
<g clip-path="url(#clip17_1938_13284)">
<path fill-rule="evenodd" clip-rule="evenodd" d="M226.891 109.153C226.84 109.156 226.785 109.175 226.73 109.21C226.675 109.244 226.623 109.292 226.577 109.35C226.532 109.408 226.494 109.473 226.469 109.541C226.443 109.609 226.429 109.676 226.429 109.738V110.82C226.022 111.377 225.687 111.992 225.448 112.623L224.53 113.092C224.442 113.137 224.356 113.221 224.293 113.323C224.231 113.426 224.195 113.54 224.195 113.639V116.399C224.195 116.607 224.345 116.699 224.53 116.604L225.576 116.07C225.89 116.475 226.339 116.72 226.876 116.791V118.291C226.876 118.39 226.911 118.468 226.974 118.507C227.037 118.545 227.122 118.541 227.211 118.496C227.3 118.45 227.385 118.367 227.448 118.264C227.511 118.162 227.546 118.048 227.546 117.948V116.793C228.013 116.739 228.504 116.582 228.998 116.328C229.508 116.067 229.999 115.718 230.45 115.307V116.464C230.45 116.563 230.486 116.641 230.549 116.68C230.611 116.718 230.697 116.714 230.786 116.669C230.874 116.623 230.96 116.54 231.023 116.437C231.085 116.335 231.121 116.221 231.121 116.121V114.62C232.187 113.39 232.908 111.831 232.908 110.441C232.908 108.248 231.114 107.469 228.998 108.55C228.703 108.701 228.414 108.882 228.136 109.086L226.891 109.153V109.153ZM227.099 110.667V109.955L227.978 109.907C228.042 109.904 228.112 109.874 228.179 109.823C228.448 109.618 228.723 109.444 228.998 109.303C230.831 108.366 232.238 109.097 232.238 110.783C232.238 112.469 230.831 114.639 228.998 115.575C227.683 116.247 226.572 116.058 226.062 115.265C226.034 115.22 225.991 115.192 225.939 115.184C225.887 115.176 225.828 115.188 225.768 115.219L224.866 115.68V113.673L225.659 113.268C225.724 113.235 225.788 113.181 225.842 113.113C225.897 113.045 225.94 112.966 225.966 112.885C226.168 112.262 226.511 111.627 226.957 111.049C227.046 110.932 227.099 110.79 227.099 110.667ZM227.808 111.879C228.607 111.021 229.389 110.621 230.189 110.662C230.228 110.664 230.271 110.656 230.316 110.637C230.36 110.618 230.404 110.59 230.446 110.553C230.488 110.515 230.527 110.471 230.56 110.421C230.594 110.372 230.621 110.318 230.641 110.264C230.661 110.209 230.672 110.155 230.675 110.104C230.678 110.052 230.673 110.006 230.659 109.966C230.644 109.926 230.622 109.894 230.593 109.872C230.564 109.849 230.528 109.837 230.488 109.835C229.501 109.786 228.496 110.299 227.508 111.359C227.43 111.444 227.37 111.553 227.342 111.661C227.314 111.77 227.321 111.869 227.361 111.938C227.4 112.006 227.469 112.039 227.553 112.028C227.637 112.017 227.728 111.963 227.808 111.879Z" fill="#5C5C5C"/>
</g>
<g clip-path="url(#clip18_1938_13284)">
<path fill-rule="evenodd" clip-rule="evenodd" d="M173.707 152.727C173.707 152.627 173.742 152.514 173.805 152.411C173.868 152.308 173.953 152.225 174.042 152.18L178.51 149.896C178.599 149.851 178.684 149.847 178.747 149.885C178.81 149.924 178.845 150.001 178.845 150.101V152.234L179.851 151.72C180.282 151.499 180.632 151.713 180.632 152.198V156.714C180.632 156.814 180.597 156.928 180.534 157.03C180.471 157.133 180.386 157.216 180.297 157.262L178.845 158.004V159.133C178.845 159.233 178.81 159.346 178.747 159.449C178.684 159.552 178.599 159.635 178.51 159.681L174.042 161.964C173.953 162.01 173.868 162.013 173.805 161.975C173.742 161.937 173.707 161.859 173.707 161.759V160.63L172.255 161.372C172.166 161.418 172.081 161.422 172.018 161.383C171.955 161.345 171.92 161.267 171.92 161.167V156.651C171.92 156.167 172.27 155.594 172.702 155.374L173.707 154.86V152.727ZM173.707 159.877V157.243C173.707 157.143 173.742 157.03 173.805 156.927C173.868 156.824 173.953 156.741 174.042 156.696L178.51 154.412C178.599 154.366 178.684 154.363 178.747 154.401C178.81 154.439 178.845 154.517 178.845 154.617V157.251L179.962 156.68V152.541C179.962 152.507 179.95 152.482 179.93 152.469C179.909 152.456 179.88 152.457 179.851 152.472L172.702 156.126C172.672 156.141 172.644 156.169 172.623 156.203C172.602 156.238 172.59 156.275 172.59 156.309V160.448L173.707 159.877ZM178.175 150.82V152.576L174.377 154.517V152.761L178.175 150.82ZM174.377 161.04V157.277L178.175 155.336V159.099L174.377 161.04ZM175.047 158.063C175.047 157.964 175.083 157.85 175.146 157.747C175.208 157.644 175.294 157.561 175.383 157.516L177.17 156.602C177.259 156.557 177.344 156.553 177.407 156.591C177.47 156.63 177.505 156.708 177.505 156.807C177.505 156.907 177.47 157.021 177.407 157.124C177.344 157.226 177.259 157.31 177.17 157.355L175.383 158.268C175.294 158.314 175.208 158.318 175.146 158.279C175.083 158.241 175.047 158.163 175.047 158.063ZM175.383 159.021C175.294 159.066 175.208 159.15 175.146 159.252C175.083 159.355 175.047 159.469 175.047 159.569C175.047 159.668 175.083 159.746 175.146 159.785C175.208 159.823 175.294 159.819 175.383 159.774L176.5 159.203C176.588 159.157 176.674 159.074 176.737 158.971C176.799 158.869 176.835 158.755 176.835 158.655C176.835 158.555 176.799 158.478 176.737 158.439C176.674 158.401 176.588 158.405 176.5 158.45L175.383 159.021Z" fill="#5C5C5C"/>
</g>
<g clip-path="url(#clip19_1938_13284)">
<path fill-rule="evenodd" clip-rule="evenodd" d="M192.752 142.784C192.783 142.717 192.825 142.654 192.873 142.6C192.922 142.546 192.976 142.502 193.031 142.474L193.579 142.195C193.773 142.095 193.965 142.049 194.139 142.06C194.312 142.071 194.462 142.139 194.576 142.258C194.689 142.377 194.764 142.544 194.793 142.746C194.823 142.947 194.806 143.176 194.744 143.415L194.39 144.79L196.776 143.571C196.965 143.474 197.151 143.428 197.321 143.435C197.49 143.443 197.638 143.504 197.753 143.614C197.867 143.724 197.946 143.88 197.982 144.07C198.018 144.259 198.011 144.478 197.962 144.708L197.108 148.657C197.037 148.985 196.883 149.322 196.669 149.615C196.454 149.908 196.192 150.141 195.923 150.279L193.478 151.529C193.456 151.54 193.434 151.549 193.412 151.555L191.211 152.186L189.68 152.968C189.591 153.013 189.506 153.017 189.443 152.979C189.381 152.94 189.345 152.863 189.345 152.763V147.745C189.345 147.645 189.381 147.532 189.443 147.429C189.506 147.326 189.591 147.243 189.68 147.198L191.065 146.49L192.752 142.784ZM193.21 143.135L191.523 146.841C191.492 146.908 191.451 146.972 191.402 147.026C191.354 147.08 191.299 147.123 191.244 147.151L190.015 147.779V152.044L191.244 151.416C191.266 151.405 191.288 151.396 191.31 151.39L193.511 150.759L195.923 149.526C196.045 149.464 196.165 149.358 196.262 149.224C196.359 149.091 196.43 148.938 196.462 148.789L197.315 144.84C197.338 144.736 197.341 144.636 197.324 144.55C197.308 144.464 197.272 144.393 197.22 144.343C197.168 144.293 197.1 144.265 197.023 144.262C196.946 144.259 196.861 144.28 196.775 144.324L193.925 145.781C193.872 145.808 193.82 145.82 193.772 145.817C193.725 145.814 193.684 145.796 193.653 145.763C193.622 145.731 193.602 145.685 193.594 145.63C193.586 145.576 193.59 145.513 193.607 145.448L194.109 143.502C194.136 143.393 194.144 143.289 194.131 143.198C194.117 143.106 194.083 143.03 194.032 142.976C193.98 142.922 193.912 142.891 193.833 142.886C193.754 142.881 193.667 142.902 193.579 142.947L193.21 143.135Z" fill="#5C5C5C"/>
</g>
<g clip-path="url(#clip20_1938_13284)">
<path fill-rule="evenodd" clip-rule="evenodd" d="M209.781 134.949C208.942 135.749 208.253 136.803 207.842 137.914L209.504 137.065C209.568 136.37 209.661 135.664 209.781 134.949ZM210.51 134.351C210.364 135.152 210.253 135.943 210.178 136.721L212.075 135.751C212 135.05 211.889 134.372 211.743 133.721C211.335 133.852 210.918 134.065 210.51 134.351ZM209.446 137.847L207.579 138.802C207.486 139.216 207.44 139.62 207.44 140.002C207.44 140.393 207.488 140.747 207.579 141.06L209.446 140.105C209.403 139.376 209.403 138.622 209.446 137.847ZM210.118 139.762C210.072 139.034 210.072 138.279 210.118 137.504L212.135 136.473C212.181 137.207 212.181 137.954 212.135 138.731L210.118 139.762L210.118 139.762ZM209.504 140.829L207.842 141.678C208.253 142.369 208.943 142.718 209.781 142.66C209.661 142.069 209.568 141.458 209.504 140.829ZM210.51 142.515C210.364 141.863 210.253 141.185 210.178 140.484L212.075 139.514C212 140.293 211.889 141.084 211.743 141.884C211.335 142.17 210.918 142.383 210.51 142.515ZM212.807 138.388C212.85 137.612 212.85 136.865 212.807 136.13L214.673 135.176C214.764 135.488 214.812 135.842 214.812 136.234C214.813 136.615 214.766 137.019 214.674 137.433L212.807 138.388ZM212.472 133.575C213.31 133.517 214 133.866 214.411 134.557L212.749 135.407C212.685 134.777 212.592 134.166 212.472 133.575ZM212.749 139.17L214.411 138.321C214 139.432 213.31 140.486 212.472 141.285C212.595 140.548 212.687 139.846 212.749 139.17ZM206.77 140.344C206.77 137.642 208.72 134.455 211.126 133.225C213.532 131.996 215.483 133.189 215.483 135.891C215.483 138.593 213.532 141.78 211.126 143.01C208.72 144.24 206.77 143.046 206.77 140.344Z" fill="#5C5C5C"/>
</g>
<g clip-path="url(#clip21_1938_13284)">
<path fill-rule="evenodd" clip-rule="evenodd" d="M225.982 126.009C225.982 125.909 226.018 125.795 226.081 125.693C226.143 125.59 226.229 125.507 226.318 125.461L230.786 123.178C230.874 123.132 230.96 123.128 231.023 123.167C231.085 123.205 231.121 123.283 231.121 123.383V125.515L232.126 125.001C232.558 124.781 232.908 124.995 232.908 125.48V129.996C232.908 130.096 232.873 130.209 232.81 130.312C232.747 130.415 232.662 130.498 232.573 130.543L231.121 131.286V132.415C231.121 132.514 231.085 132.628 231.023 132.731C230.96 132.834 230.874 132.917 230.786 132.962L226.318 135.246C226.229 135.291 226.143 135.295 226.081 135.257C226.018 135.218 225.982 135.141 225.982 135.041V133.912L224.53 134.654C224.442 134.699 224.356 134.703 224.293 134.665C224.231 134.626 224.195 134.549 224.195 134.449V129.933C224.195 129.448 224.546 128.876 224.977 128.655L225.982 128.141V126.009ZM225.982 133.159V130.525C225.982 130.425 226.018 130.311 226.081 130.209C226.143 130.106 226.229 130.023 226.318 129.977L230.786 127.694C230.874 127.648 230.96 127.644 231.023 127.683C231.085 127.721 231.121 127.799 231.121 127.899V130.533L232.238 129.962V125.822C232.238 125.789 232.226 125.763 232.205 125.75C232.184 125.738 232.156 125.739 232.126 125.754L224.977 129.408C224.948 129.423 224.919 129.451 224.898 129.485C224.877 129.519 224.866 129.557 224.866 129.59V133.73L225.982 133.159ZM230.45 124.102V125.858L226.653 127.799V126.043L230.45 124.102ZM226.653 134.322V130.559L230.45 128.618V132.381L226.653 134.322ZM227.323 131.345C227.323 131.245 227.358 131.132 227.421 131.029C227.484 130.926 227.569 130.843 227.658 130.797L229.445 129.884C229.534 129.839 229.619 129.835 229.682 129.873C229.745 129.912 229.78 129.989 229.78 130.089C229.78 130.189 229.745 130.303 229.682 130.405C229.619 130.508 229.534 130.591 229.445 130.637L227.658 131.55C227.569 131.596 227.484 131.599 227.421 131.561C227.358 131.523 227.323 131.445 227.323 131.345ZM227.658 132.303C227.569 132.348 227.484 132.431 227.421 132.534C227.358 132.637 227.323 132.751 227.323 132.85C227.323 132.95 227.358 133.028 227.421 133.066C227.484 133.105 227.569 133.101 227.658 133.055L228.775 132.485C228.864 132.439 228.949 132.356 229.012 132.253C229.075 132.151 229.11 132.037 229.11 131.937C229.11 131.837 229.075 131.759 229.012 131.721C228.949 131.683 228.864 131.686 228.775 131.732L227.658 132.303Z" fill="#5C5C5C"/>
</g>
<path d="M203.287 58.1056L199.726 50.1719C199.61 49.9385 199.35 49.8604 199.046 50.0157C198.756 50.1637 198.481 50.5156 198.38 50.86L194.819 62.4337C194.79 62.5297 194.776 62.6022 194.776 62.6509C194.776 62.911 194.964 63.0424 195.21 62.9167C195.384 62.8279 195.557 62.6091 195.615 62.4007L196.469 59.5582L201.637 56.917L202.491 58.8864C202.549 59.0357 202.708 59.0843 202.896 58.9881C203.142 58.8624 203.33 58.5386 203.33 58.2785C203.33 58.1972 203.301 58.147 203.287 58.1056ZM196.773 58.5576L199.046 50.9748L201.333 56.2271L196.773 58.5576Z" fill="#5C5C5C"/>
<path d="M210.227 54.5096L207.405 52.3435L210.155 48.0279C210.227 47.9097 210.271 47.7737 210.271 47.6761C210.271 47.4648 210.126 47.3437 209.923 47.4473C209.836 47.4917 209.749 47.5686 209.677 47.6706L205.523 54.2156V47.1279C205.523 46.9003 205.349 46.794 205.146 46.8976C204.944 47.0012 204.77 47.285 204.77 47.5126V57.6077C204.77 57.8353 204.944 57.9416 205.146 57.838C205.349 57.7344 205.523 57.4506 205.523 57.223V55.2397L206.826 53.1921L209.634 55.3982C209.706 55.4587 209.807 55.4557 209.938 55.3891C210.155 55.2782 210.314 55.0017 210.314 54.7579C210.314 54.6441 210.285 54.5613 210.227 54.5096Z" fill="#5C5C5C"/>
<path d="M211.5 53.7289C212.195 54.089 212.977 53.9821 213.976 53.4717C215.727 52.5765 216.595 51.0922 216.595 49.8242C216.595 48.1498 215.249 48.464 214.048 48.7366C213.078 48.956 212.181 49.1708 212.181 48.2767C212.181 47.4639 212.846 46.5221 213.932 45.9673C214.714 45.5677 215.365 45.5437 215.814 45.802C215.857 45.8286 215.944 45.833 216.017 45.796C216.205 45.6998 216.349 45.447 216.349 45.2519C216.349 45.1219 216.306 45.0628 216.234 45.0185C215.713 44.7321 214.974 44.7193 213.932 45.252C212.354 46.0584 211.442 47.4999 211.442 48.7028C211.442 50.2309 212.731 49.9138 213.903 49.6397C214.902 49.4218 215.857 49.2261 215.857 50.234C215.857 51.1444 215.162 52.1497 213.99 52.749C213.136 53.1855 212.441 53.1667 211.949 52.8981C211.891 52.8626 211.819 52.8671 211.732 52.9115C211.529 53.0151 211.37 53.2753 211.37 53.5029C211.37 53.6167 211.428 53.7009 211.5 53.7289Z" fill="#5C5C5C"/>
<path d="M217.985 47.2934C217.985 49.7155 219.447 50.6752 221.488 49.632C222.53 49.0993 223.326 48.3185 224.021 47.2807C224.093 47.1624 224.137 47.0589 224.137 46.9451C224.137 46.7338 224.006 46.6541 223.833 46.7429C223.76 46.7798 223.688 46.8331 223.645 46.9041C223.051 47.8089 222.342 48.464 221.546 48.8709C219.896 49.7143 218.882 48.8179 218.81 47.148L224.209 44.3884C224.499 44.2405 224.658 43.9803 224.658 43.6877C224.658 41.6719 223.485 40.3692 221.358 41.4568C219.418 42.4481 217.985 45.0175 217.985 47.2934ZM221.343 42.1957C223.095 41.3005 223.876 42.5591 223.891 43.8847L218.81 46.4815C218.868 45.0864 219.693 43.0391 221.343 42.1957Z" fill="#5C5C5C"/>
<path d="M226.835 46.7529C227.037 46.6493 227.211 46.3655 227.211 46.1379V36.0428C227.211 35.8152 227.037 35.7089 226.835 35.8125C226.632 35.9161 226.458 36.1999 226.458 36.4275V46.5226C226.458 46.7502 226.632 46.8565 226.835 46.7529Z" fill="#5C5C5C"/>
<path fill-rule="evenodd" clip-rule="evenodd" d="M182.533 58.9726C182.797 58.5413 183.155 58.1919 183.529 58.0011L188.54 55.4395C189.318 55.0423 189.948 55.4278 189.948 56.3007V61.9291C189.948 62.3483 189.799 62.8261 189.535 63.2574L187.417 66.7187C187.26 66.9753 187.006 67.1054 186.849 67.0093C186.692 66.9132 186.692 66.6273 186.849 66.3707L188.967 62.9094C189.08 62.7246 189.143 62.5198 189.143 62.3402V56.7117C189.143 56.3376 188.873 56.1724 188.54 56.3426L183.529 58.9042C183.369 58.986 183.215 59.1357 183.102 59.3206L180.984 62.7819C180.827 63.0385 180.572 63.1686 180.415 63.0725C180.258 62.9764 180.258 62.6905 180.415 62.4339L182.533 58.9726Z" fill="#5C5C5C"/>
<path fill-rule="evenodd" clip-rule="evenodd" d="M183.941 58.9079C183.705 58.7638 183.323 58.959 183.088 59.3439L180.984 62.7818C180.827 63.0384 180.572 63.1685 180.415 63.0724C180.258 62.9763 180.258 62.6904 180.415 62.4338L182.519 58.9959C183.069 58.0978 183.96 57.6424 184.509 57.9787L189.521 61.0456C190.071 61.3819 190.071 62.3826 189.521 63.2807L187.417 66.7186C187.26 66.9752 187.006 67.1053 186.849 67.0092C186.692 66.9131 186.692 66.6272 186.849 66.3706L188.953 62.9327C189.188 62.5478 189.188 62.1189 188.953 61.9748L183.941 58.9079Z" fill="#5C5C5C"/>
<path fill-rule="evenodd" clip-rule="evenodd" d="M184.603 63.4544C184.76 63.5505 184.76 63.8364 184.603 64.093L180.984 70.0067C180.827 70.2633 180.572 70.3934 180.415 70.2973C180.258 70.2012 180.258 69.9153 180.415 69.6587L184.034 63.7451C184.191 63.4885 184.446 63.3583 184.603 63.4544Z" fill="#5C5C5C"/>
</g>
<path d="M189.475 78.9945C189.475 73.175 185.287 70.6296 180.121 73.3093L141.425 93.3826C138.473 94.9138 136.08 98.851 136.08 102.176V242.839C136.08 248.658 140.267 251.204 145.433 248.524L184.13 228.451C187.082 226.919 189.475 222.982 189.475 219.657V78.9945Z" fill="#DCDCDC"/>
<path d="M189.475 78.1566C189.475 76.4939 188.275 75.7594 186.794 76.5162L147.923 96.3837C144.962 97.8972 142.561 101.82 142.561 105.145V246.645C142.561 248.308 143.762 249.043 145.242 248.286L186.794 227.048C188.275 226.291 189.475 224.33 189.475 222.667V78.1566Z" fill="white"/>
<g clip-path="url(#clip22_1938_13284)">
<rect width="45.1596" height="138.489" transform="matrix(0.890435 -0.455111 0 1 146.995 99.5472)" fill="white"/>
<rect width="16.5585" height="16.5585" rx="8.27926" transform="matrix(0.890435 -0.455111 0 1 148.335 106.389)" fill="#F45F63"/>
<rect width="16.5585" height="16.5585" rx="8.27926" transform="matrix(0.890435 -0.455111 0 1 148.335 130.474)" fill="#1E98F5"/>
<rect width="16.5585" height="16.5585" rx="8.27926" transform="matrix(0.890435 -0.455111 0 1 148.335 154.559)" fill="#E5AA20"/>
<rect width="16.5585" height="16.5585" rx="8.27926" transform="matrix(0.890435 -0.455111 0 1 148.335 178.644)" fill="#1E2B3C"/>
<rect width="16.5585" height="16.5585" rx="8.27926" transform="matrix(0.890435 -0.455111 0 1 148.335 202.729)" fill="#F45F63"/>
<rect width="16.5585" height="16.5585" rx="8.27926" transform="matrix(0.890435 -0.455111 0 1 169.781 95.4271)" fill="#F89FA1"/>
<rect width="16.5585" height="16.5585" rx="8.27926" transform="matrix(0.890435 -0.455111 0 1 169.781 119.512)" fill="#78C1F9"/>
<rect width="16.5585" height="16.5585" rx="8.27926" transform="matrix(0.890435 -0.455111 0 1 169.781 143.598)" fill="#EFCC79"/>
<rect width="16.5585" height="16.5585" rx="8.27926" transform="matrix(0.890435 -0.455111 0 1 169.781 167.683)" fill="#324256"/>
<rect width="16.5585" height="16.5585" rx="8.27926" transform="matrix(0.890435 -0.455111 0 1 169.781 191.768)" fill="#E5AA20"/>
</g>
<path d="M288.495 115.122C288.495 109.303 284.294 106.732 279.112 109.381L153.857 173.4C150.896 174.913 148.495 178.836 148.495 182.162V322.848C148.495 328.667 152.696 331.238 157.878 328.589L283.133 264.57C286.094 263.057 288.495 259.134 288.495 255.809V115.122Z" fill="#677281"/>
<path d="M288.495 114.286C288.495 112.623 287.294 111.888 285.814 112.645L159.817 177.053C156.856 178.567 154.456 182.49 154.456 185.815V327.339C154.456 329.001 155.656 329.736 157.136 328.979L285.814 263.2C287.294 262.443 288.495 260.482 288.495 258.819V114.286Z" fill="#283547"/>
<rect width="148.768" height="4.51596" transform="matrix(0.890435 -0.455111 0 1 145.489 173.796)" fill="#78C1F9"/>
<g filter="url(#filter0_d_1938_13284)">
<rect x="274.947" y="100.069" width="15.0532" height="15.0532" rx="7.5266" fill="white"/>
<rect x="276.452" y="101.574" width="12.0426" height="12.0426" rx="6.02128" stroke="#78C1F9" stroke-width="3.01064"/>
</g>
<rect width="138.489" height="138.489" transform="matrix(0.890435 -0.455111 0 1 160.542 184.172)" fill="#283547"/>
<rect width="6.02128" height="6.02128" rx="3.01064" transform="matrix(0.890435 -0.455111 0 1 163.223 185.812)" fill="#FF5E57"/>
<rect width="6.02128" height="6.02128" rx="3.01064" transform="matrix(0.890435 -0.455111 0 1 172.606 181.016)" fill="#FFBB2E"/>
<rect width="6.02128" height="6.02128" rx="3.01064" transform="matrix(0.890435 -0.455111 0 1 181.989 176.221)" fill="#38C149"/>
<rect width="18.0638" height="6.02128" rx="3.01064" transform="matrix(0.890435 -0.455111 0 1 265.093 133.746)" fill="#1E98F5"/>
<rect width="18.0638" height="6.02128" rx="3.01064" transform="matrix(0.890435 -0.455111 0 1 243.647 144.707)" fill="#D7DFE6"/>
<rect width="51.1809" height="36.1277" rx="1.50532" transform="matrix(0.890435 -0.455111 0 1 235.604 169.892)" fill="#96A0A9"/>
<rect width="39.1383" height="4.51596" rx="2.25798" transform="matrix(0.890435 -0.455111 0 1 163.223 206.887)" fill="#D7DFE6"/>
<rect width="69.2447" height="4.51596" rx="2.25798" transform="matrix(0.890435 -0.455111 0 1 163.223 217.424)" fill="#96A0A9"/>
<rect width="69.2447" height="4.51596" rx="2.25798" transform="matrix(0.890435 -0.455111 0 1 163.223 227.961)" fill="#96A0A9"/>
<rect width="69.2447" height="4.51596" rx="2.25798" transform="matrix(0.890435 -0.455111 0 1 163.223 238.498)" fill="#96A0A9"/>
<rect width="36.1277" height="27.0958" rx="1.50532" transform="matrix(0.890435 -0.455111 0 1 163.223 258.067)" fill="#96A0A9"/>
<rect width="24.0851" height="3.01064" rx="1.50532" transform="matrix(0.890435 -0.455111 0 1 163.223 289.679)" fill="#D7DFE6"/>
<rect width="36.1277" height="3.01064" rx="1.50532" transform="matrix(0.890435 -0.455111 0 1 163.223 297.206)" fill="#96A0A9"/>
<rect width="36.1277" height="3.01064" rx="1.50532" transform="matrix(0.890435 -0.455111 0 1 163.223 304.732)" fill="#96A0A9"/>
<rect width="36.1277" height="27.0958" rx="1.50532" transform="matrix(0.890435 -0.455111 0 1 206.115 236.145)" fill="#96A0A9"/>
<rect width="24.0851" height="3.01064" rx="1.50532" transform="matrix(0.890435 -0.455111 0 1 206.115 267.756)" fill="#D7DFE6"/>
<rect width="36.1277" height="3.01064" rx="1.50532" transform="matrix(0.890435 -0.455111 0 1 206.115 275.283)" fill="#96A0A9"/>
<rect width="36.1277" height="3.01064" rx="1.50532" transform="matrix(0.890435 -0.455111 0 1 206.115 282.81)" fill="#96A0A9"/>
<rect width="36.1277" height="27.0958" rx="1.50532" transform="matrix(0.890435 -0.455111 0 1 249.008 214.222)" fill="#96A0A9"/>
<rect width="24.0851" height="3.01064" rx="1.50532" transform="matrix(0.890435 -0.455111 0 1 249.008 245.834)" fill="#D7DFE6"/>
<rect width="36.1277" height="3.01064" rx="1.50532" transform="matrix(0.890435 -0.455111 0 1 249.008 253.36)" fill="#96A0A9"/>
<rect width="36.1277" height="3.01064" rx="1.50532" transform="matrix(0.890435 -0.455111 0 1 249.008 260.887)" fill="#96A0A9"/>
<g clip-path="url(#clip23_1938_13284)">
<rect width="63.2234" height="138.489" transform="matrix(0.890435 0.455111 0 1 55.1704 39.8562)" fill="#F89FA1"/>
<rect width="57.2022" height="7.5266" rx="3.7633" transform="matrix(0.890435 0.455111 0 1 57.8508 51.7637)" fill="white"/>
<rect width="48.1702" height="7.5266" rx="3.7633" transform="matrix(0.890435 0.455111 0 1 57.8508 68.3221)" fill="#FDDFE0"/>
<rect width="39.1383" height="7.5266" rx="3.7633" transform="matrix(0.890435 0.455111 0 1 57.8508 84.8809)" fill="#FDDFE0"/>
<rect width="30.1064" height="7.5266" rx="3.7633" transform="matrix(0.890435 0.455111 0 1 57.8508 101.439)" fill="#FDDFE0"/>
<rect width="21.0745" height="7.5266" rx="3.7633" transform="matrix(0.890435 0.455111 0 1 57.8508 117.998)" fill="#FDDFE0"/>
<rect width="12.0426" height="7.5266" rx="3.7633" transform="matrix(0.890435 0.455111 0 1 57.8508 134.556)" fill="#FDDFE0"/>
</g>
<path d="M8.50537 113.617C8.50537 107.798 12.7062 105.227 17.8881 107.875L143.139 171.892C146.1 173.406 148.5 177.329 148.5 180.654V321.316C148.5 327.136 144.299 329.706 139.117 327.058L13.8669 263.041C10.9058 261.527 8.50537 257.605 8.50537 254.279V113.617Z" fill="#ACDBFF"/>
<path d="M8.50537 112.779C8.50537 111.116 9.7056 110.382 11.1861 111.139L137.183 175.537C140.144 177.05 142.544 180.973 142.544 184.299V325.799C142.544 327.461 141.344 328.196 139.863 327.439L11.1861 261.671C9.70559 260.914 8.50537 258.953 8.50537 257.29V112.779Z" fill="#78C1F9"/>
<rect width="148.768" height="1.50532" transform="matrix(0.890435 0.455111 0 1 20.5479 108.339)" fill="#78C1F9"/>
<g clip-path="url(#clip24_1938_13284)">
<rect width="138.489" height="138.489" transform="matrix(0.890435 0.455111 0 1 13.021 118.133)" fill="#78C1F9"/>
<path d="M95.3145 210.385C96.0759 209.919 97.3103 210.55 98.0717 211.794L113.659 237.266C114.42 238.51 114.42 239.897 113.659 240.363L98.0717 249.901C97.3103 250.367 96.0759 249.736 95.3145 248.492L79.7272 223.02C78.9659 221.776 78.9659 220.389 79.7272 219.923L95.3145 210.385Z" fill="white"/>
<rect x="74.6797" y="223.012" width="35.1452" height="21.5066" rx="2.18956" transform="rotate(58.536 74.6797 223.012)" fill="white"/>
<rect x="52.6663" y="187.039" width="35.1452" height="21.5066" rx="2.18956" transform="rotate(58.536 52.6663 187.039)" fill="white"/>
<rect x="74.6797" y="173.568" width="35.1452" height="21.5066" rx="2.18956" transform="rotate(58.536 74.6797 173.568)" fill="white"/>
</g>
<g filter="url(#filter1_d_1938_13284)">
<rect x="7" y="101.574" width="15.0532" height="15.0532" rx="7.5266" fill="white"/>
<rect x="8.50532" y="103.08" width="12.0426" height="12.0426" rx="6.02128" stroke="#78C1F9" stroke-width="3.01064"/>
</g>
<g filter="url(#filter2_d_1938_13284)">
<rect x="140.973" y="169.314" width="15.0532" height="15.0532" rx="7.5266" fill="white"/>
<rect x="142.479" y="170.819" width="12.0426" height="12.0426" rx="6.02128" stroke="#78C1F9" stroke-width="3.01064"/>
</g>
<defs>
<filter id="filter0_d_1938_13284" x="268.926" y="97.0585" width="27.0958" height="27.0958" filterUnits="userSpaceOnUse" color-interpolation-filters="sRGB">
<feFlood flood-opacity="0" result="BackgroundImageFix"/>
<feColorMatrix in="SourceAlpha" type="matrix" values="0 0 0 0 0 0 0 0 0 0 0 0 0 0 0 0 0 0 127 0" result="hardAlpha"/>
<feOffset dy="3.01064"/>
<feGaussianBlur stdDeviation="3.01064"/>
<feComposite in2="hardAlpha" operator="out"/>
<feColorMatrix type="matrix" values="0 0 0 0 0 0 0 0 0 0 0 0 0 0 0 0 0 0 0.15 0"/>
<feBlend mode="normal" in2="BackgroundImageFix" result="effect1_dropShadow_1938_13284"/>
<feBlend mode="normal" in="SourceGraphic" in2="effect1_dropShadow_1938_13284" result="shape"/>
</filter>
<filter id="filter1_d_1938_13284" x="0.978721" y="98.5637" width="27.0958" height="27.0958" filterUnits="userSpaceOnUse" color-interpolation-filters="sRGB">
<feFlood flood-opacity="0" result="BackgroundImageFix"/>
<feColorMatrix in="SourceAlpha" type="matrix" values="0 0 0 0 0 0 0 0 0 0 0 0 0 0 0 0 0 0 127 0" result="hardAlpha"/>
<feOffset dy="3.01064"/>
<feGaussianBlur stdDeviation="3.01064"/>
<feComposite in2="hardAlpha" operator="out"/>
<feColorMatrix type="matrix" values="0 0 0 0 0 0 0 0 0 0 0 0 0 0 0 0 0 0 0.15 0"/>
<feBlend mode="normal" in2="BackgroundImageFix" result="effect1_dropShadow_1938_13284"/>
<feBlend mode="normal" in="SourceGraphic" in2="effect1_dropShadow_1938_13284" result="shape"/>
</filter>
<filter id="filter2_d_1938_13284" x="134.952" y="166.303" width="27.0958" height="27.0958" filterUnits="userSpaceOnUse" color-interpolation-filters="sRGB">
<feFlood flood-opacity="0" result="BackgroundImageFix"/>
<feColorMatrix in="SourceAlpha" type="matrix" values="0 0 0 0 0 0 0 0 0 0 0 0 0 0 0 0 0 0 127 0" result="hardAlpha"/>
<feOffset dy="3.01064"/>
<feGaussianBlur stdDeviation="3.01064"/>
<feComposite in2="hardAlpha" operator="out"/>
<feColorMatrix type="matrix" values="0 0 0 0 0 0 0 0 0 0 0 0 0 0 0 0 0 0 0.15 0"/>
<feBlend mode="normal" in2="BackgroundImageFix" result="effect1_dropShadow_1938_13284"/>
<feBlend mode="normal" in="SourceGraphic" in2="effect1_dropShadow_1938_13284" result="shape"/>
</filter>
<clipPath id="clip0_1938_13284">
<rect width="42.149" height="143.843" fill="white" transform="matrix(0.890435 0.455111 0 1 119.899 14.2659)"/>
</clipPath>
<clipPath id="clip1_1938_13284">
<rect width="75.266" height="138.489" fill="white" transform="matrix(0.890435 -0.455111 0 1 169.574 54.5416)"/>
</clipPath>
<clipPath id="clip2_1938_13284">
<rect width="12.0426" height="12.0426" fill="white" transform="matrix(0.890435 -0.455111 0 1 170.915 88.4789)"/>
</clipPath>
<clipPath id="clip3_1938_13284">
<rect width="12.0426" height="12.0426" fill="white" transform="matrix(0.890435 -0.455111 0 1 188.34 79.5726)"/>
</clipPath>
<clipPath id="clip4_1938_13284">
<rect width="12.0426" height="12.0426" fill="white" transform="matrix(0.890435 -0.455111 0 1 205.765 70.6666)"/>
</clipPath>
<clipPath id="clip5_1938_13284">
<rect width="12.0426" height="12.0426" fill="white" transform="matrix(0.890435 -0.455111 0 1 223.19 61.7605)"/>
</clipPath>
<clipPath id="clip6_1938_13284">
<rect width="12.0426" height="12.0426" fill="white" transform="matrix(0.890435 -0.455111 0 1 170.915 104.521)"/>
</clipPath>
<clipPath id="clip7_1938_13284">
<rect width="12.0426" height="12.0426" fill="white" transform="matrix(0.890435 -0.455111 0 1 188.34 95.6154)"/>
</clipPath>
<clipPath id="clip8_1938_13284">
<rect width="12.0426" height="12.0426" fill="white" transform="matrix(0.890435 -0.455111 0 1 205.765 86.7091)"/>
</clipPath>
<clipPath id="clip9_1938_13284">
<rect width="12.0426" height="12.0426" fill="white" transform="matrix(0.890435 -0.455111 0 1 223.19 77.803)"/>
</clipPath>
<clipPath id="clip10_1938_13284">
<rect width="12.0426" height="12.0426" fill="white" transform="matrix(0.890435 -0.455111 0 1 170.915 120.564)"/>
</clipPath>
<clipPath id="clip11_1938_13284">
<rect width="12.0426" height="12.0426" fill="white" transform="matrix(0.890435 -0.455111 0 1 188.34 111.658)"/>
</clipPath>
<clipPath id="clip12_1938_13284">
<rect width="12.0426" height="12.0426" fill="white" transform="matrix(0.890435 -0.455111 0 1 205.765 102.752)"/>
</clipPath>
<clipPath id="clip13_1938_13284">
<rect width="12.0426" height="12.0426" fill="white" transform="matrix(0.890435 -0.455111 0 1 223.19 93.8456)"/>
</clipPath>
<clipPath id="clip14_1938_13284">
<rect width="12.0426" height="12.0426" fill="white" transform="matrix(0.890435 -0.455111 0 1 170.915 136.607)"/>
</clipPath>
<clipPath id="clip15_1938_13284">
<rect width="12.0426" height="12.0426" fill="white" transform="matrix(0.890435 -0.455111 0 1 188.34 127.7)"/>
</clipPath>
<clipPath id="clip16_1938_13284">
<rect width="12.0426" height="12.0426" fill="white" transform="matrix(0.890435 -0.455111 0 1 205.765 118.794)"/>
</clipPath>
<clipPath id="clip17_1938_13284">
<rect width="12.0426" height="12.0426" fill="white" transform="matrix(0.890435 -0.455111 0 1 223.19 109.888)"/>
</clipPath>
<clipPath id="clip18_1938_13284">
<rect width="12.0426" height="12.0426" fill="white" transform="matrix(0.890435 -0.455111 0 1 170.915 152.649)"/>
</clipPath>
<clipPath id="clip19_1938_13284">
<rect width="12.0426" height="12.0426" fill="white" transform="matrix(0.890435 -0.455111 0 1 188.34 143.743)"/>
</clipPath>
<clipPath id="clip20_1938_13284">
<rect width="12.0426" height="12.0426" fill="white" transform="matrix(0.890435 -0.455111 0 1 205.765 134.837)"/>
</clipPath>
<clipPath id="clip21_1938_13284">
<rect width="12.0426" height="12.0426" fill="white" transform="matrix(0.890435 -0.455111 0 1 223.19 125.931)"/>
</clipPath>
<clipPath id="clip22_1938_13284">
<rect width="45.1596" height="138.489" fill="white" transform="matrix(0.890435 -0.455111 0 1 146.995 99.5472)"/>
</clipPath>
<clipPath id="clip23_1938_13284">
<rect width="63.2234" height="138.489" fill="white" transform="matrix(0.890435 0.455111 0 1 55.1704 39.8562)"/>
</clipPath>
<clipPath id="clip24_1938_13284">
<rect width="138.489" height="138.489" fill="white" transform="matrix(0.890435 0.455111 0 1 13.021 118.133)"/>
</clipPath>
</defs>
</svg>
