<svg version="1.2" xmlns="http://www.w3.org/2000/svg" viewBox="0 0 561 206" width="561" height="206">
	<title>udir-logo-cmyk-neg-ai</title>
	<g id="Layer 1">
		<g id="&lt;Group&gt;">
			<g id="&lt;Group&gt;">
				<path fill="#ffffff" id="&lt;Compound Path&gt;" class="s0" d="m237.7 62v54.1q0 14.6 8.1 22.5 8.2 7.8 22.2 7.6 6.8 0 12.3-2.4 5.5-2.4 9.5-6.7 4-4.3 6.3-10.1 2.2-5.7 2.2-12.4v-48.1l12.4-4.5v94.7h-12v-15.5q-5.8 9-14.4 13.1-8.6 4.1-18.3 4.3-9 0-16.5-3-7.5-3-12.9-8.4-5.5-5.5-8.5-13.2-2.9-7.8-2.9-17.7v-49.7z"/>
				<path fill="#ffffff" id="&lt;Compound Path&gt;" fill-rule="evenodd" class="s0" d="m425.6 31.1v125.6h-12.6v-18.3q-5.6 10.1-15.4 15.1-9.8 5.1-20.9 5.1-9.9 0-18.3-3.2-8.4-3.2-14.8-9.3-6.4-6.1-9.9-14.9-3.6-8.9-3.6-20.5 0-11.6 3.6-20.5 3.5-8.9 9.9-15 6.4-6.1 14.8-9.3 8.4-3.1 18.3-3 10.9-0.1 21 4.7 10.1 4.9 15.3 15.2v-47.2zm-48.1 43.7q-7.3 0-13.5 2.3-6.3 2.4-11.1 6.9-4.7 4.4-7.5 11.2-2.7 6.7-2.7 15.5 0 8.8 2.7 15.5 2.8 6.6 7.5 11.2 4.8 4.6 11.1 6.9 6.2 2.3 13.5 2.3 7.5 0.1 13.9-2.6 6.4-2.6 11-7.4 4.7-4.7 7.4-11.4 2.7-6.6 2.7-14.7 0-7.8-2.7-14.5-2.7-6.6-7.4-11.3-4.6-4.7-11.1-7.3-6.5-2.6-13.8-2.6z"/>
				<path fill="#ffffff" id="&lt;Path&gt;" class="s0" d="m451.4 39.9q0-4.3 2.8-6.6 2.8-2.2 6-2.2 3.4 0 6.2 2.2 2.8 2.3 2.8 6.6 0 4.5-2.8 6.6-2.8 2.2-6.2 2.2-3.2 0-6-2.2-2.8-2.1-2.8-6.6z"/>
				<path fill="#ffffff" id="&lt;Path&gt;" class="s0" d="m466.4 62v94.7h-12.6v-90.1z"/>
				<path fill="#ffffff" id="&lt;Compound Path&gt;" class="s0" d="m507.2 62v17.4q2.2-4.7 5.5-7.9 3.3-3.1 7.2-5.1 3.9-2 8.2-2.8 4.4-0.8 8.5-0.8 6.3 0 11.1 1.4 4.8 1.5 9.8 5.1l-5.8 10.5q-7.1-4.9-15.9-4.9-6 0-11.2 2.3-5.2 2.2-9.1 6-3.8 3.9-6.1 9.2-2.2 5.4-2.2 11.7v52.6h-12.6v-90.1z"/>
			</g>
			<g id="&lt;Group&gt;">
				<path fill="#ffffff" id="&lt;Path&gt;" class="s1" d="m175.2 3.1v124.1c0 29.8-24.2 53.9-54 53.9-5.3 0-10.4-0.7-15.3-2.2 5.7-8.5 9-18.8 9-29.8v-124.1z"/>
				<path fill="#ffffff" id="&lt;Path&gt;" class="s0" d="m105.9 178.9c-9.7 14.6-26.2 24.2-44.9 24.2-29.8 0-54-24.2-54-54v-115.7l60.3-21.9v115.7c0 24.5 16.3 45.1 38.6 51.7z"/>
			</g>
		</g>
	</g>
</svg>
