<svg xmlns="http://www.w3.org/2000/svg" width="217" height="106" fill="none" viewBox="0 0 217 106">
  <path fill="#d2eafd" d="M81.5 24.5C97.24 24.5 110 37.26 110 53S97.24 81.5 81.5 81.5 53 68.74 53 53s12.76-28.5 28.5-28.5"/>
  <path stroke="#4badf7" stroke-width="3" d="M81.5 24.5C97.24 24.5 110 37.26 110 53S97.24 81.5 81.5 81.5 53 68.74 53 53s12.76-28.5 28.5-28.5Z"/>
  <path fill="#4badf7" d="M81.5 57.125A12.374 12.374 0 0 1 93.875 69.5a1.375 1.375 0 1 1-2.75 0 9.625 9.625 0 0 0-19.25 0 1.375 1.375 0 1 1-2.75 0A12.374 12.374 0 0 1 81.5 57.125m0-22a9.625 9.625 0 1 1 0 19.25 9.625 9.625 0 0 1 0-19.25m0 2.75a6.875 6.875 0 1 0 0 13.75 6.875 6.875 0 0 0 0-13.75"/>
  <path fill="#d2eafd" d="M108.5 24.5c15.74 0 28.5 12.76 28.5 28.5s-12.76 28.5-28.5 28.5S80 68.74 80 53s12.76-28.5 28.5-28.5"/>
  <path stroke="#1b88dd" stroke-width="3" d="M108.5 24.5c15.74 0 28.5 12.76 28.5 28.5s-12.76 28.5-28.5 28.5S80 68.74 80 53s12.76-28.5 28.5-28.5Z"/>
  <path fill="#1b88dd" d="M108.5 57.125A12.375 12.375 0 0 1 120.875 69.5a1.375 1.375 0 0 1-2.75 0 9.625 9.625 0 1 0-19.25 0 1.375 1.375 0 1 1-2.75 0A12.374 12.374 0 0 1 108.5 57.125m0-22a9.625 9.625 0 0 1 9.625 9.625 9.625 9.625 0 0 1-9.625 9.625 9.625 9.625 0 0 1-9.625-9.625 9.625 9.625 0 0 1 9.625-9.625m0 2.75a6.875 6.875 0 1 0 0 13.75 6.875 6.875 0 0 0 0-13.75"/>
  <path fill="#1b88dd" d="M135.5 24.5c15.74 0 28.5 12.76 28.5 28.5s-12.76 28.5-28.5 28.5S107 68.74 107 53s12.76-28.5 28.5-28.5"/>
  <path stroke="#1b88dd" stroke-width="3" d="M135.5 24.5c15.74 0 28.5 12.76 28.5 28.5s-12.76 28.5-28.5 28.5S107 68.74 107 53s12.76-28.5 28.5-28.5Z"/>
  <path fill="#fff" d="M135.5 57.125A12.375 12.375 0 0 1 147.875 69.5a1.375 1.375 0 0 1-2.75 0 9.625 9.625 0 1 0-19.25 0 1.375 1.375 0 0 1-2.75 0A12.373 12.373 0 0 1 135.5 57.125m0-22a9.625 9.625 0 0 1 9.625 9.625 9.625 9.625 0 0 1-9.625 9.625 9.625 9.625 0 0 1-9.625-9.625 9.625 9.625 0 0 1 9.625-9.625m0 2.75a6.875 6.875 0 1 0 0 13.75 6.875 6.875 0 0 0 0-13.75"/>
</svg>
