<svg width="216" height="106" viewBox="0 0 216 106" fill="none" xmlns="http://www.w3.org/2000/svg">
<rect x="8.59473" y="46.5" width="43.3333" height="13" rx="6.5" fill="#1B88DD"/>
<path fill-rule="evenodd" clip-rule="evenodd" d="M60.3043 58.6234C59.8022 58.1213 59.8022 57.3073 60.3043 56.8051L64.1095 53L60.3043 49.1949C59.8022 48.6928 59.8022 47.8787 60.3043 47.3766C60.8064 46.8745 61.6205 46.8745 62.1226 47.3766L66.8369 52.0909C67.339 52.593 67.339 53.407 66.8369 53.9091L62.1226 58.6234C61.6205 59.1255 60.8064 59.1255 60.3043 58.6234Z" fill="#1B88DD"/>
<rect x="75.2139" y="46.5" width="43.3333" height="13" rx="6.5" fill="#1B88DD"/>
<path fill-rule="evenodd" clip-rule="evenodd" d="M126.923 58.6236C126.421 58.1215 126.421 57.3074 126.923 56.8053L130.729 52.9999L126.923 49.1945C126.421 48.6924 126.421 47.8783 126.923 47.3762C127.426 46.874 128.24 46.874 128.742 47.3762L133.456 52.0907C133.959 52.5928 133.959 53.407 133.456 53.9091L128.742 58.6236C128.24 59.1258 127.426 59.1258 126.923 58.6236Z" fill="#1B88DD"/>
<rect x="141.833" y="46.5" width="65" height="13" rx="6.5" fill="#4BADF7"/>
</svg>
