<svg width="216" height="106" viewBox="0 0 216 106" fill="none" xmlns="http://www.w3.org/2000/svg">
<rect x="45" y="1" width="126" height="104" rx="3" fill="white"/>
<rect x="45" y="1" width="126" height="104" rx="3" stroke="#1B88DD" stroke-width="2"/>
<path d="M46 4C46 2.89543 46.8954 2 48 2H168C169.105 2 170 2.89543 170 4V62H46V4Z" fill="#D2EAFD"/>
<path fill-rule="evenodd" clip-rule="evenodd" d="M97.7184 24.6521C97.6286 24.6521 97.5559 24.7248 97.5559 24.8146V39.9718C97.5559 40.0616 97.6286 40.1343 97.7184 40.1343H104.838L109.662 33.018C109.876 32.7024 110.233 32.5134 110.614 32.5134C110.995 32.5134 111.352 32.7024 111.566 33.018L116.39 40.1343H118.343C118.433 40.1343 118.506 40.0616 118.506 39.9718V24.8145C118.506 24.7248 118.433 24.6521 118.343 24.6521H97.7184ZM113.612 40.1343L110.614 35.7127L107.616 40.1343H113.612ZM95.2559 24.8146C95.2559 23.4545 96.3584 22.3521 97.7184 22.3521H118.343C119.703 22.3521 120.806 23.4545 120.806 24.8145V39.9718C120.806 41.3318 119.703 42.4343 118.343 42.4343H97.7184C96.3584 42.4343 95.2559 41.3318 95.2559 39.9718V24.8146ZM102.863 28.4625C102.054 28.4625 101.43 29.1031 101.43 29.8529C101.43 30.6026 102.054 31.2432 102.863 31.2432C103.673 31.2432 104.297 30.6026 104.297 29.8529C104.297 29.1031 103.673 28.4625 102.863 28.4625ZM99.1301 29.8529C99.1301 27.7966 100.82 26.1625 102.863 26.1625C104.907 26.1625 106.597 27.7966 106.597 29.8529C106.597 31.9091 104.907 33.5432 102.863 33.5432C100.82 33.5432 99.1301 31.9091 99.1301 29.8529Z" fill="#1B88DD"/>
<rect x="44" y="62" width="128" height="2" fill="#1B88DD"/>
<rect x="56" y="74" width="104" height="5" rx="2.5" fill="#1B88DD"/>
<rect x="56" y="89" width="65" height="5" rx="2.5" fill="#4BADF7"/>
</svg>
