<svg
  width="217"
  height="106"
  viewBox="0 0 217 106"
  fill="none"
  xmlns="http://www.w3.org/2000/svg"
>
  <g clip-path="url(#clip0_6372_16735)">
    <rect x="41.75" y="1.5" width="134" height="104" rx="7" fill="#D2EAFD" />
    <rect
      x="41.75"
      y="1.5"
      width="134"
      height="104"
      rx="7"
      stroke="#1B88DD"
      stroke-width="2"
    />
    <rect x="121.75" y="51.5" width="24" height="24" rx="4" fill="#1B88DD" />
    <path
      d="M56.663 21.6263C56.7555 21.5647 56.8332 21.4835 56.8905 21.3883C56.9479 21.2931 56.9834 21.1865 56.9946 21.0759C57.0058 20.9654 56.9924 20.8538 56.9552 20.749C56.9181 20.6443 56.8583 20.5491 56.78 20.4703L53.56 17.2503L65.75 17.2503C65.9489 17.2503 66.1397 17.1713 66.2803 17.0306C66.421 16.89 66.5 16.6992 66.5 16.5003C66.5 16.3014 66.421 16.1106 66.2803 15.97C66.1397 15.8293 65.9489 15.7503 65.75 15.7503L53.56 15.7503L56.78 12.5303C56.9125 12.3881 56.9846 12.2001 56.9812 12.0058C56.9777 11.8115 56.899 11.6261 56.7616 11.4887C56.6242 11.3513 56.4388 11.2725 56.2445 11.2691C56.0502 11.2657 55.8622 11.3378 55.72 11.4703L51.22 15.9703C51.0795 16.1109 51.0007 16.3015 51.0007 16.5003C51.0007 16.699 51.0795 16.8897 51.22 17.0303L55.72 21.5303C55.8421 21.6524 56.0026 21.7287 56.1744 21.7461C56.3462 21.7636 56.5188 21.7213 56.663 21.6263Z"
      fill="#1B88DD"
    />
    <path
      d="M160.837 11.3737C160.745 11.4353 160.667 11.5165 160.609 11.6117C160.552 11.7069 160.517 11.8135 160.505 11.9241C160.494 12.0346 160.508 12.1462 160.545 12.251C160.582 12.3557 160.642 12.4509 160.72 12.5297L163.94 15.7497L151.75 15.7497C151.551 15.7497 151.36 15.8287 151.22 15.9694C151.079 16.11 151 16.3008 151 16.4997C151 16.6986 151.079 16.8894 151.22 17.03C151.36 17.1707 151.551 17.2497 151.75 17.2497H163.94L160.72 20.4697C160.588 20.6119 160.515 20.7999 160.519 20.9942C160.522 21.1885 160.601 21.3739 160.738 21.5113C160.876 21.6487 161.061 21.7275 161.255 21.7309C161.45 21.7343 161.638 21.6622 161.78 21.5297L166.28 17.0297C166.42 16.8891 166.499 16.6985 166.499 16.4997C166.499 16.301 166.42 16.1103 166.28 15.9697L161.78 11.4697C161.658 11.3476 161.497 11.2713 161.326 11.2539C161.154 11.2364 160.981 11.2787 160.837 11.3737Z"
      fill="#1B88DD"
    />
    <rect x="52.75" y="32.5" width="12" height="12" rx="6" fill="#4BADF7" />
    <rect x="77.75" y="32.5" width="12" height="12" rx="6" fill="#4BADF7" />
    <rect x="102.75" y="32.5" width="12" height="12" rx="6" fill="#4BADF7" />
    <rect x="127.75" y="32.5" width="12" height="12" rx="6" fill="#4BADF7" />
    <rect x="152.75" y="32.5" width="12" height="12" rx="6" fill="#4BADF7" />
    <rect x="52.75" y="57.5" width="12" height="12" rx="6" fill="#4BADF7" />
    <rect x="77.75" y="57.5" width="12" height="12" rx="6" fill="#4BADF7" />
    <rect x="102.75" y="57.5" width="12" height="12" rx="6" fill="#4BADF7" />
    <rect x="127.75" y="57.5" width="12" height="12" rx="6" fill="#D2EAFD" />
    <rect x="152.75" y="57.5" width="12" height="12" rx="6" fill="#4BADF7" />
    <rect x="52.75" y="82.5" width="12" height="12" rx="6" fill="#4BADF7" />
    <rect x="77.75" y="82.5" width="12" height="12" rx="6" fill="#4BADF7" />
    <rect x="102.75" y="82.5" width="12" height="12" rx="6" fill="#4BADF7" />
    <rect x="127.75" y="82.5" width="12" height="12" rx="6" fill="#4BADF7" />
    <rect x="152.75" y="82.5" width="12" height="12" rx="6" fill="#4BADF7" />
    <rect x="77.75" y="11.5" width="62" height="10" rx="5" fill="#4BADF7" />
  </g>
  <defs>
    <clipPath id="clip0_6372_16735">
      <rect width="217" height="106" fill="white" />
    </clipPath>
  </defs>
</svg>
