<svg width="216" height="106" viewBox="0 0 216 106" fill="none" xmlns="http://www.w3.org/2000/svg">
<rect x="19" y="6" width="178" height="94" rx="3" fill="#D2EAFD"/>
<rect x="19" y="6" width="178" height="94" rx="3" stroke="#1B88DD" stroke-width="2"/>
<rect x="32" y="19" width="89" height="5" rx="2.5" fill="#1B88DD"/>
<rect x="32" y="42" width="120" height="5" rx="2.5" fill="#4BADF7"/>
<rect x="32" y="61" width="140" height="5" rx="2.5" fill="#4BADF7"/>
<rect x="32" y="80" width="98" height="5" rx="2.5" fill="#4BADF7"/>
<path fill-rule="evenodd" clip-rule="evenodd" d="M177.53 15.762C177.042 15.2738 176.251 15.2738 175.763 15.762C175.274 16.2501 175.274 17.0416 175.763 17.5298L179.233 21L175.763 24.4703C175.274 24.9585 175.274 25.7499 175.763 26.2381C176.251 26.7262 177.042 26.7262 177.53 26.2381L181.001 22.7678L184.471 26.2381C184.959 26.7262 185.751 26.7262 186.239 26.2381C186.727 25.7499 186.727 24.9585 186.239 24.4703L182.768 21L186.239 17.5298C186.727 17.0416 186.727 16.2501 186.239 15.762C185.751 15.2738 184.959 15.2738 184.471 15.762L181.001 19.2323L177.53 15.762Z" fill="#1B88DD"/>
</svg>
