<svg
  width="217"
  height="106"
  viewBox="0 0 217 106"
  fill="none"
  xmlns="http://www.w3.org/2000/svg"
>
  <g clip-path="url(#clip0_6369_21313)">
    <rect x="33.25" width="55" height="6" rx="3" fill="#1B88DD" />
    <rect x="34.75" y="15.5" width="147" height="89" rx="2.5" fill="#D2EAFD" />
    <rect
      x="34.75"
      y="15.5"
      width="147"
      height="89"
      rx="2.5"
      stroke="#1B88DD"
      stroke-width="3"
      stroke-dasharray="8 8"
    />
    <path
      fill-rule="evenodd"
      clip-rule="evenodd"
      d="M106.583 43.75C104.042 43.75 101.604 44.7597 99.807 46.5569C98.0098 48.3541 97.0001 50.7917 97.0001 53.3333C97.0001 53.42 96.9718 53.5 96.8768 53.595C96.7242 53.7315 96.5367 53.8227 96.3351 53.8583C95.0188 54.1256 93.8488 54.8724 93.0521 55.9537C92.2554 57.0351 91.8889 58.3739 92.0237 59.7102C92.1585 61.0466 92.7849 62.2852 93.7815 63.1857C94.7781 64.0862 96.0737 64.5843 97.4168 64.5833C97.7483 64.5833 98.0663 64.4516 98.3007 64.2172C98.5351 63.9828 98.6668 63.6649 98.6668 63.3333C98.6668 63.0018 98.5351 62.6839 98.3007 62.4495C98.0663 62.215 97.7483 62.0833 97.4168 62.0833C96.6935 62.0841 95.9957 61.816 95.4589 61.3312C94.9221 60.8464 94.5846 60.1794 94.512 59.4598C94.4393 58.7401 94.6366 58.0192 95.0656 57.4368C95.4945 56.8545 96.1246 56.4523 96.8335 56.3083C98.0751 56.0567 99.5001 55.0633 99.5001 53.3333C99.4988 51.7292 100.042 50.1721 101.041 48.9168C102.04 47.6616 103.435 46.7826 104.999 46.4237C106.562 46.0648 108.201 46.2472 109.647 46.9411C111.094 47.6349 112.262 48.7992 112.96 50.2433C113.44 51.2317 114.453 52.0833 115.76 52.0833H117C118.181 52.0816 119.324 52.4978 120.228 53.2582C121.131 54.0186 121.736 55.0742 121.936 56.238C122.135 57.4018 121.917 58.5987 121.318 59.6167C120.72 60.6347 119.781 61.4082 118.667 61.8C118.51 61.8527 118.364 61.9362 118.24 62.0457C118.115 62.1551 118.013 62.2882 117.941 62.4373C117.868 62.5864 117.826 62.7485 117.816 62.9141C117.807 63.0797 117.83 63.2455 117.886 63.4019C117.941 63.5583 118.027 63.7021 118.138 63.825C118.25 63.9478 118.384 64.0473 118.535 64.1175C118.685 64.1878 118.848 64.2274 119.014 64.2341C119.179 64.2409 119.345 64.2145 119.5 64.1567C121.168 63.5663 122.573 62.4056 123.468 60.8795C124.363 59.3535 124.69 57.5603 124.39 55.8166C124.091 54.073 123.186 52.4912 121.833 51.3507C120.481 50.2101 118.769 49.5841 117 49.5833H115.758C115.608 49.5833 115.365 49.4733 115.208 49.15C114.424 47.5304 113.198 46.1647 111.673 45.2096C110.147 44.2545 108.383 43.7487 106.583 43.75ZM107.367 57.45C107.601 57.2159 107.919 57.0844 108.25 57.0844C108.581 57.0844 108.899 57.2159 109.133 57.45L114.967 63.2833C115.09 63.3978 115.188 63.5358 115.256 63.6891C115.325 63.8424 115.361 64.008 115.364 64.1758C115.367 64.3436 115.337 64.5104 115.274 64.666C115.211 64.8216 115.117 64.963 114.999 65.0817C114.88 65.2004 114.738 65.294 114.583 65.3569C114.427 65.4197 114.26 65.4506 114.093 65.4477C113.925 65.4447 113.759 65.408 113.606 65.3396C113.453 65.2713 113.315 65.1728 113.2 65.05L109.5 61.35V74.1667C109.5 74.4982 109.368 74.8161 109.134 75.0506C108.9 75.285 108.582 75.4167 108.25 75.4167C107.919 75.4167 107.601 75.285 107.366 75.0506C107.132 74.8161 107 74.4982 107 74.1667V61.35L103.3 65.05C103.063 65.2708 102.75 65.391 102.426 65.3853C102.102 65.3796 101.793 65.2484 101.564 65.0194C101.335 64.7904 101.204 64.4814 101.198 64.1575C101.192 63.8337 101.313 63.5203 101.533 63.2833L107.367 57.45Z"
      fill="#1B88DD"
    />
  </g>
  <defs>
    <clipPath id="clip0_6369_21313">
      <rect width="217" height="106" fill="white" />
    </clipPath>
  </defs>
</svg>
