<svg width="217" height="106" viewBox="0 0 217 106" fill="none" xmlns="http://www.w3.org/2000/svg">
<path d="M79.8274 74.5547H71.6712L86.5213 32.3729H95.9545L110.825 74.5547H102.669L99.1676 64.1534H83.3082L79.8274 74.5547ZM85.3679 58.0156H97.108L91.4027 41.0234H91.0732L85.3679 58.0156ZM125.735 75.1932C119.701 75.1932 115.149 71.8977 115.149 65.6776C115.149 58.5511 121.019 56.718 127.157 56.0589C132.738 55.4616 134.983 55.3587 134.983 53.2166V53.093C134.983 49.983 133.088 48.2116 129.628 48.2116C125.983 48.2116 123.882 50.0653 123.14 52.228L116.179 51.2393C117.826 45.4723 122.934 42.5064 129.587 42.5064C135.622 42.5064 142.439 45.0192 142.439 53.3814V74.5547H135.272V70.2088H135.024C133.665 72.8658 130.699 75.1932 125.735 75.1932ZM127.671 69.7145C132.162 69.7145 135.004 66.728 135.004 63.206V59.478C134.036 60.2607 130.122 60.755 128.166 61.0227C124.829 61.4964 122.337 62.6911 122.337 65.554C122.337 68.2933 124.561 69.7145 127.671 69.7145Z" fill="#1B88DD"/>
</svg>
