<svg width="217" height="106" viewBox="0 0 217 106" fill="none" xmlns="http://www.w3.org/2000/svg">
<path d="M80.3665 72.75H75.3807L89.8011 33.4773H94.7102L109.131 72.75H104.145L100.195 61.6278H84.3168L80.3665 72.75ZM85.8125 57.4091H98.6989L92.4091 39.6903H92.1023L85.8125 57.4091ZM123.842 73.4403C118.242 73.4403 113.794 70.142 113.794 64.3892C113.794 57.6392 119.757 56.4311 125.223 55.7216C130.592 55.0312 132.816 55.223 132.816 53.0369V52.8835C132.816 49.1058 130.764 46.9006 126.603 46.9006C122.289 46.9006 119.93 49.2017 118.933 51.3494L114.637 49.8153C116.938 44.446 122.001 42.9119 126.45 42.9119C130.208 42.9119 137.342 43.9858 137.342 53.3438V72.75H132.816V68.7614H132.586C131.666 70.679 128.981 73.4403 123.842 73.4403ZM124.532 69.375C129.902 69.375 132.816 65.7699 132.816 62.0881V57.946C132.049 58.8665 126.91 59.4034 124.992 59.6335C121.464 60.0938 118.319 61.1676 118.319 64.6193C118.319 67.7642 120.927 69.375 124.532 69.375Z" fill="#1B88DD"/>
</svg>
