<svg width="216" height="106" viewBox="0 0 216 106" fill="none" xmlns="http://www.w3.org/2000/svg">
<g clip-path="url(#clip0_2342_3551)">
<rect x="34" y="40" width="148" height="26" rx="3" fill="#D2EAFD"/>
<rect x="34" y="40" width="148" height="26" rx="3" stroke="#1B88DD" stroke-width="2"/>
<path fill-rule="evenodd" clip-rule="evenodd" d="M43.375 51.875C43.375 49.942 44.942 48.375 46.875 48.375C48.808 48.375 50.375 49.942 50.375 51.875C50.375 53.808 48.808 55.375 46.875 55.375C44.942 55.375 43.375 53.808 43.375 51.875ZM46.875 45.625C43.4232 45.625 40.625 48.4232 40.625 51.875C40.625 55.3268 43.4232 58.125 46.875 58.125C48.1031 58.125 49.2484 57.7708 50.2145 57.159L53.7855 60.7301C54.3225 61.267 55.1931 61.267 55.7301 60.7301C56.267 60.1931 56.267 59.3225 55.7301 58.7855L52.159 55.2145C52.7708 54.2484 53.125 53.1031 53.125 51.875C53.125 48.4232 50.3268 45.625 46.875 45.625Z" fill="#1B88DD"/>
<rect x="66" y="50.5" width="102" height="5" rx="2.5" fill="#1B88DD"/>
</g>
<defs>
<clipPath id="clip0_2342_3551">
<rect width="150" height="28" fill="white" transform="translate(33 39)"/>
</clipPath>
</defs>
</svg>
