<svg width="216" height="106" viewBox="0 0 216 106" fill="none" xmlns="http://www.w3.org/2000/svg">
<path d="M91 53.5C91 48.9913 92.7911 44.6673 95.9792 41.4792C99.1673 38.2911 103.491 36.5 108 36.5C112.509 36.5 116.833 38.2911 120.021 41.4792C123.209 44.6673 125 48.9913 125 53.5C125 58.0087 123.209 62.3327 120.021 65.5208C116.833 68.7089 112.509 70.5 108 70.5C103.491 70.5 99.1673 68.7089 95.9792 65.5208C92.7911 62.3327 91 58.0087 91 53.5L91 53.5Z" stroke="#D2EAFD" stroke-width="9"/>
<path d="M92 48.1104C93.068 44.9262 95.0637 42.1277 97.7348 40.0688C100.406 38.0098 103.632 36.783 107.006 36.5433C110.38 36.3037 113.75 37.062 116.689 38.7224C119.629 40.3827 122.006 42.8706 123.52 45.8714C125.035 48.8722 125.618 52.251 125.197 55.5808C124.776 58.9105 123.368 62.0415 121.154 64.5778C118.939 67.1142 116.015 68.9419 112.753 69.83" stroke="#1B88DD" stroke-width="9"/>
</svg>
