<svg
  width="217"
  height="106"
  viewBox="0 0 217 106"
  fill="none"
  xmlns="http://www.w3.org/2000/svg"
>
  <rect x="2" y="28" width="213" height="50" rx="7" fill="#D2EAFD" />
  <rect
    x="2"
    y="28"
    width="213"
    height="50"
    rx="7"
    stroke="#1B88DD"
    stroke-width="2"
  />
  <rect x="50" y="44" width="93" height="5" rx="2.5" fill="#1B88DD" />
  <rect x="50" y="57" width="53" height="5" rx="2.5" fill="#4BADF7" />
  <path
    d="M182.707 44.2938C182.517 44.1171 182.266 44.021 182.007 44.0255C181.748 44.0301 181.501 44.1351 181.318 44.3183C181.135 44.5015 181.03 44.7487 181.025 45.0077C181.021 45.2668 181.117 45.5175 181.293 45.7071L188.587 53.0004L181.293 60.2938C181.195 60.3853 181.116 60.4957 181.062 60.6184C181.007 60.7411 180.978 60.8735 180.975 61.0077C180.973 61.142 180.998 61.2754 181.048 61.3999C181.098 61.5244 181.173 61.6375 181.268 61.7325C181.363 61.8275 181.476 61.9023 181.601 61.9526C181.725 62.0029 181.858 62.0276 181.993 62.0252C182.127 62.0229 182.259 61.9935 182.382 61.9388C182.505 61.8842 182.615 61.8054 182.707 61.7071L190 54.4138L197.293 61.7071C197.385 61.8054 197.495 61.8842 197.618 61.9388C197.741 61.9935 197.873 62.0229 198.007 62.0252C198.142 62.0276 198.275 62.0029 198.4 61.9526C198.524 61.9023 198.637 61.8275 198.732 61.7325C198.827 61.6375 198.902 61.5244 198.952 61.3999C199.002 61.2754 199.027 61.142 199.025 61.0077C199.022 60.8735 198.993 60.7411 198.938 60.6184C198.884 60.4957 198.805 60.3853 198.707 60.2938L191.413 53.0004L198.707 45.7071C198.883 45.5175 198.98 45.2668 198.975 45.0077C198.97 44.7487 198.865 44.5015 198.682 44.3183C198.499 44.1351 198.252 44.0301 197.993 44.0255C197.734 44.021 197.483 44.1171 197.293 44.2938L190 51.5871L182.707 44.2938Z"
    fill="#1B88DD"
  />
  <rect x="16" y="41" width="24" height="24" rx="12" fill="#4BADF7" />
</svg>
