<svg width="100" height="27" viewBox="0 0 100 27" fill="none" xmlns="http://www.w3.org/2000/svg">
<path d="M34.7454 3.66355C34.7454 3.58476 34.7455 3.54537 34.8735 3.54537H41.1765C42.2471 3.48595 43.3169 3.67456 44.3025 4.09651C45.2882 4.51845 46.1631 5.16233 46.8591 5.97795C48.2478 7.82143 48.9449 10.0941 48.8288 12.3992C48.963 14.6519 48.2617 16.8751 46.8591 18.6431C46.1373 19.4175 45.2516 20.021 44.2668 20.4095C43.282 20.798 42.2228 20.9616 41.1667 20.8886H34.8636C34.8464 20.8901 34.8291 20.8878 34.8129 20.8819C34.7967 20.876 34.782 20.8666 34.7698 20.8544C34.7576 20.8422 34.7482 20.8275 34.7423 20.8112C34.7364 20.795 34.7341 20.7777 34.7356 20.7605L34.7454 3.66355ZM41.2258 5.63325H37.2174C37.1288 5.63325 37.0894 5.63325 37.0894 5.76128V18.6529C37.0894 18.7317 37.0894 18.7711 37.2174 18.7711H41.2258C41.9539 18.8127 42.6818 18.686 43.3531 18.4008C44.0243 18.1155 44.6208 17.6795 45.0962 17.1264C46.0986 15.7549 46.5867 14.0746 46.475 12.3795C46.5624 10.629 46.071 8.89844 45.0765 7.45522C44.6297 6.86288 44.046 6.38769 43.3753 6.07037C42.7047 5.75305 41.9671 5.60306 41.2258 5.63325" fill="#1E2B3C"/>
<path d="M54.5015 3.6636V6.25375C54.503 6.27094 54.5007 6.28825 54.4948 6.30447C54.4889 6.32069 54.4795 6.33541 54.4673 6.34762C54.4551 6.35982 54.4404 6.3692 54.4242 6.3751C54.408 6.38101 54.3907 6.38328 54.3735 6.38178H51.7833C51.7045 6.38178 51.6652 6.38178 51.6652 6.25375V3.6636C51.6636 3.6477 51.6656 3.63166 51.671 3.61663C51.6764 3.6016 51.6851 3.58795 51.6964 3.57665C51.7077 3.56536 51.7213 3.5567 51.7364 3.5513C51.7514 3.5459 51.7674 3.54389 51.7833 3.54542H54.3735C54.4523 3.54542 54.5015 3.54542 54.5015 3.6636V3.6636ZM54.2454 8.58784V20.8C54.247 20.8159 54.245 20.8319 54.2396 20.8469C54.2342 20.862 54.2255 20.8756 54.2142 20.8869C54.2029 20.8982 54.1893 20.9069 54.1742 20.9123C54.1592 20.9177 54.1432 20.9197 54.1273 20.9181H52.0295C51.9409 20.9181 51.9015 20.9181 51.9015 20.8V8.54845C51.9015 8.46966 51.9015 8.43027 52.0295 8.43027H54.1076C54.1235 8.42874 54.1395 8.43075 54.1545 8.43615C54.1696 8.44155 54.1832 8.45021 54.1945 8.4615C54.2058 8.47279 54.2145 8.48645 54.2199 8.50148C54.2253 8.51651 54.2273 8.53255 54.2258 8.54845" fill="#1E2B3C"/>
<path d="M63.0795 23.9121C63.5668 23.958 64.0581 23.8933 64.5168 23.7228C64.9756 23.5522 65.3898 23.2803 65.7288 22.9273C66.3028 22.2301 66.6038 21.3481 66.5758 20.4455V19.7856C66.5758 19.7364 66.5758 19.7068 66.4871 19.6773C66.458 19.6683 66.4268 19.6693 66.3983 19.68C66.3698 19.6907 66.3456 19.7105 66.3295 19.7364C65.9561 20.1367 65.4987 20.4495 64.9902 20.6523C64.3142 20.9896 63.5691 21.165 62.8136 21.1644C62.0255 21.1855 61.2423 21.0353 60.5179 20.7242C59.7935 20.413 59.1454 19.9483 58.6182 19.3621C57.477 18.0702 56.8805 16.3866 56.9538 14.6644C56.875 12.9671 57.4415 11.3028 58.5394 10.0061C59.0759 9.41369 59.7358 8.94618 60.4726 8.63649C61.2094 8.3268 62.0052 8.18246 62.8038 8.21363C63.4819 8.22298 64.1514 8.36693 64.7735 8.63712C65.365 8.85099 65.9052 9.18649 66.3591 9.62197C66.4773 9.7303 66.5561 9.72045 66.6053 9.62197L66.8515 8.63712C66.8515 8.55833 66.9303 8.51894 66.9697 8.51894H68.8212C68.9098 8.51894 68.9492 8.51894 68.9492 8.63712V20.4553C68.9767 21.2038 68.8471 21.9497 68.5689 22.6451C68.2908 23.3406 67.8701 23.9701 67.3341 24.4932C66.8009 25.0053 66.1709 25.4059 65.4809 25.6714C64.7909 25.9369 64.0549 26.062 63.3159 26.0394C61.9046 26.0997 60.5088 25.7249 59.3174 24.9659C58.8544 24.6919 58.4597 24.3165 58.1628 23.8678C57.866 23.4192 57.6748 22.909 57.6038 22.3758C57.6023 22.3599 57.6043 22.3438 57.6097 22.3288C57.6151 22.3138 57.6237 22.3001 57.635 22.2888C57.6463 22.2775 57.66 22.2689 57.675 22.2635C57.69 22.2581 57.7061 22.256 57.722 22.2576H59.8689C59.9215 22.2576 59.9609 22.297 59.9871 22.3758C60.1844 22.8348 60.5316 23.2133 60.972 23.4492C61.6224 23.8158 62.3635 23.99 63.1091 23.9515L63.0795 23.9121ZM59.3273 14.6939C59.269 15.8313 59.6182 16.9522 60.3121 17.8553C60.6393 18.2373 61.0481 18.5409 61.5083 18.7438C61.9686 18.9466 62.4685 19.0435 62.9712 19.0273C63.4737 19.0522 63.9748 18.956 64.4324 18.747C64.89 18.5379 65.2907 18.2219 65.6008 17.8258C66.2777 16.9102 66.6248 15.7925 66.5856 14.6545C66.6262 13.5134 66.2791 12.3921 65.6008 11.4735C65.2907 11.0773 64.89 10.7614 64.4324 10.5523C63.9748 10.3432 63.4737 10.2471 62.9712 10.272C62.4579 10.251 61.9466 10.3485 61.4769 10.5569C61.0073 10.7652 60.5919 11.0788 60.2629 11.4735C59.5706 12.385 59.2219 13.5114 59.278 14.6545" fill="#1E2B3C"/>
<path d="M82.8061 20.8787H80.9545C80.9053 20.8787 80.8659 20.8787 80.8265 20.7605L80.5803 19.7756C80.5803 19.6378 80.4523 19.6181 80.3341 19.7264C79.3498 20.5698 78.1129 21.0618 76.8182 21.1249C76.0184 21.1608 75.2206 21.0196 74.4818 20.7115C73.7429 20.4034 73.0812 19.9358 72.5439 19.3423C71.4441 18.035 70.8779 16.3609 70.9583 14.6544C70.8769 12.9478 71.4432 11.2734 72.5439 9.96656C73.082 9.37342 73.7436 8.90551 74.4821 8.59582C75.2206 8.28612 76.018 8.14218 76.8182 8.17413C77.5631 8.17291 78.2981 8.34486 78.9651 8.6764C79.4719 8.88997 79.9357 9.19361 80.3341 9.57262C80.403 9.64156 80.4523 9.66125 80.5015 9.63171C80.5241 9.62374 80.5437 9.60912 80.5577 9.58978C80.5718 9.57044 80.5797 9.54728 80.5803 9.52337V3.61428C80.5803 3.53549 80.5803 3.4961 80.7083 3.4961H82.8061C82.822 3.49458 82.838 3.49659 82.853 3.50199C82.8681 3.50739 82.8817 3.51604 82.893 3.52734C82.9043 3.53863 82.913 3.55228 82.9184 3.56731C82.9238 3.58234 82.9258 3.59838 82.9242 3.61428V20.7605C82.9258 20.7764 82.9238 20.7924 82.9184 20.8075C82.913 20.8225 82.9043 20.8362 82.893 20.8474C82.8817 20.8587 82.8681 20.8674 82.853 20.8728C82.838 20.8782 82.822 20.8802 82.8061 20.8787V20.8787ZM73.3023 14.6544C73.244 15.7918 73.5932 16.9127 74.2871 17.8158C74.6156 18.2117 75.0307 18.5267 75.5003 18.7368C75.9698 18.9468 76.4814 19.0462 76.9954 19.0272C77.4993 19.052 78.0019 18.9559 78.461 18.7469C78.9202 18.5379 79.3227 18.222 79.6348 17.8256C80.2915 16.9029 80.6176 15.7856 80.5606 14.6544C80.6138 13.5207 80.288 12.4015 79.6348 11.4734C79.3264 11.0753 78.9261 10.758 78.4681 10.5487C78.01 10.3395 77.5081 10.2445 77.0053 10.2719C76.4905 10.2509 75.9778 10.3483 75.5065 10.5566C75.0353 10.7649 74.6181 11.0785 74.2871 11.4734C73.5949 12.3849 73.2461 13.5112 73.3023 14.6544" fill="#1E2B3C"/>
<path d="M89.2174 3.66359V6.25374C89.2189 6.27094 89.2167 6.28825 89.2108 6.30446C89.2049 6.32068 89.1955 6.33541 89.1833 6.34761C89.1711 6.35981 89.1563 6.36919 89.1401 6.3751C89.1239 6.381 89.1066 6.38328 89.0894 6.38177H86.5091C86.4205 6.38177 86.3811 6.38177 86.3811 6.25374V3.66359C86.3811 3.5848 86.3811 3.54541 86.5091 3.54541H89.0894C89.178 3.54541 89.2174 3.54541 89.2174 3.66359ZM88.9712 8.58783V20.8C88.9712 20.8787 88.9712 20.9181 88.8432 20.9181H86.7455C86.7296 20.9197 86.7135 20.9177 86.6985 20.9123C86.6835 20.9069 86.6698 20.8982 86.6585 20.8869C86.6472 20.8756 86.6386 20.862 86.6332 20.8469C86.6278 20.8319 86.6257 20.8159 86.6273 20.8V8.54844C86.6257 8.53254 86.6278 8.5165 86.6332 8.50147C86.6386 8.48644 86.6472 8.47279 86.6585 8.46149C86.6698 8.4502 86.6835 8.44154 86.6985 8.43614C86.7135 8.43074 86.7296 8.42873 86.7455 8.43026H88.8432C88.9318 8.43026 88.9712 8.43026 88.9712 8.54844" fill="#1E2B3C"/>
<path d="M99.2727 10.2722H98.022C97.569 10.2602 97.1194 10.3526 96.7078 10.5421C96.2962 10.7317 95.9338 11.0134 95.6485 11.3654C95.0474 12.1068 94.736 13.0412 94.772 13.9949V20.7609C94.7735 20.778 94.7712 20.7954 94.7653 20.8116C94.7594 20.8278 94.75 20.8425 94.7378 20.8547C94.7256 20.8669 94.7109 20.8763 94.6947 20.8822C94.6784 20.8881 94.6611 20.8904 94.6439 20.8889H92.5167C92.4379 20.8889 92.3985 20.8396 92.3985 20.7609V8.54873C92.397 8.53283 92.399 8.51679 92.4044 8.50176C92.4098 8.48673 92.4184 8.47308 92.4297 8.46178C92.441 8.45049 92.4547 8.44183 92.4697 8.43643C92.4847 8.43103 92.5008 8.42902 92.5167 8.43055H94.3682C94.3682 8.43055 94.4568 8.43055 94.4962 8.54873L94.7424 9.65176C94.795 9.80277 94.8836 9.80277 95.0083 9.65176C95.3774 9.21849 95.8284 8.86235 96.3354 8.60378C96.8424 8.3452 97.3955 8.18927 97.9629 8.14494H99.2136C99.23 8.14358 99.2464 8.14562 99.2619 8.15095C99.2774 8.15627 99.2916 8.16476 99.3036 8.17587C99.3157 8.18699 99.3253 8.20048 99.3318 8.2155C99.3384 8.23052 99.3417 8.24674 99.3417 8.26312V10.1146C99.3417 10.2033 99.3417 10.2427 99.2136 10.2427" fill="#1E2B3C"/>
<path d="M12.478 0H0.492424C0.362615 0.00252128 0.238824 0.0552112 0.147018 0.147018C0.0552112 0.238824 0.00252128 0.362615 0 0.492424V23.8727C0.00252128 24.0025 0.0552112 24.1263 0.147018 24.2181C0.238824 24.3099 0.362615 24.3626 0.492424 24.3652H12.478C15.709 24.3652 18.8077 23.0816 21.0924 20.797C23.3771 18.5123 24.6606 15.4136 24.6606 12.1826C24.6606 8.95156 23.3771 5.85287 21.0924 3.56819C18.8077 1.28352 15.709 4.81459e-08 12.478 0ZM13.65 20.6818C11.8366 20.9939 9.97084 20.7207 8.32302 19.9018C6.67519 19.0828 5.33079 17.7607 4.48448 16.1267C3.63817 14.4928 3.33387 12.6319 3.61566 10.8135C3.89745 8.99512 4.7507 7.3136 6.05185 6.01245C7.353 4.7113 9.03451 3.85806 10.8529 3.57627C12.6713 3.29448 14.5322 3.59877 16.1661 4.44508C17.8001 5.2914 19.1222 6.6358 19.9412 8.28363C20.7601 9.93145 21.0333 11.7972 20.7212 13.6106C20.4175 15.3754 19.5746 17.0027 18.3084 18.269C17.0421 19.5352 15.4148 20.3781 13.65 20.6818" fill="#C2132C"/>
</svg>
