<svg width="125" height="125" viewBox="0 0 125 125" fill="none" xmlns="http://www.w3.org/2000/svg">
<mask id="path-1-inside-1_1028_10995" fill="white">
<rect x="96.4141" y="34.1385" width="40.4272" height="40.4272" rx="4" transform="rotate(45 96.4141 34.1385)"/>
</mask>
<rect x="96.4141" y="34.1385" width="40.4272" height="40.4272" rx="4" transform="rotate(45 96.4141 34.1385)" fill="#1E98F5" stroke="#1E98F5" stroke-width="10" mask="url(#path-1-inside-1_1028_10995)"/>
<mask id="path-2-inside-2_1028_10995" fill="white">
<rect x="63.1738" y="66.9294" width="40.4272" height="40.4272" rx="4" transform="rotate(45 63.1738 66.9294)"/>
</mask>
<rect x="63.1738" y="66.9294" width="40.4272" height="40.4272" rx="4" transform="rotate(45 63.1738 66.9294)" fill="#68707C" stroke="#68707C" stroke-width="10" mask="url(#path-2-inside-2_1028_10995)"/>
<mask id="path-3-inside-3_1028_10995" fill="white">
<rect x="28.5869" y="34.1385" width="40.4272" height="40.4272" rx="4" transform="rotate(45 28.5869 34.1385)"/>
</mask>
<rect x="28.5869" y="34.1385" width="40.4272" height="40.4272" rx="4" transform="rotate(45 28.5869 34.1385)" fill="#E5AA20" stroke="#E5AA20" stroke-width="10" mask="url(#path-3-inside-3_1028_10995)"/>
<mask id="path-4-inside-4_1028_10995" fill="white">
<rect x="62.25" width="40.4272" height="40.4272" rx="4" transform="rotate(45 62.25 0)"/>
</mask>
<rect x="62.25" width="40.4272" height="40.4272" rx="4" transform="rotate(45 62.25 0)" fill="#F45F63" stroke="#F45F63" stroke-width="10" mask="url(#path-4-inside-4_1028_10995)"/>
</svg>
