<svg width="108" height="28" viewBox="0 0 108 28" fill="none" xmlns="http://www.w3.org/2000/svg">
<path d="M36.8508 3.88474C36.8508 3.80118 36.8508 3.7594 36.9866 3.7594H43.6716C44.807 3.69637 45.9417 3.89642 46.9871 4.34394C48.0325 4.79145 48.9604 5.47435 49.6986 6.3394C51.1714 8.29461 51.9108 10.705 51.7876 13.1498C51.93 15.5391 51.1862 17.897 49.6986 19.7721C48.933 20.5935 47.9937 21.2336 46.9492 21.6456C45.9046 22.0576 44.7813 22.2312 43.6611 22.1537H36.9761C36.9579 22.1553 36.9395 22.1529 36.9223 22.1466C36.9051 22.1403 36.8895 22.1304 36.8766 22.1174C36.8636 22.1045 36.8537 22.0889 36.8474 22.0717C36.8411 22.0545 36.8387 22.0361 36.8403 22.0179L36.8508 3.88474ZM43.7238 5.97381H39.4726C39.3785 5.97381 39.3368 5.97381 39.3368 6.1096V19.7826C39.3368 19.8661 39.3368 19.9079 39.4726 19.9079H43.7238C44.4961 19.9521 45.2681 19.8176 45.98 19.5151C46.692 19.2126 47.3246 18.7501 47.8288 18.1636C48.892 16.7089 49.4096 14.9267 49.2912 13.1289C49.3839 11.2723 48.8627 9.43689 47.808 7.90621C47.3341 7.27797 46.715 6.77398 46.0037 6.43743C45.2924 6.10087 44.5101 5.94179 43.7238 5.97381" fill="white"/>
<path d="M57.8037 3.88563V6.63277C57.8053 6.651 57.8029 6.66936 57.7966 6.68656C57.7904 6.70376 57.7804 6.71938 57.7675 6.73232C57.7545 6.74526 57.7389 6.75521 57.7217 6.76147C57.7045 6.76773 57.6861 6.77015 57.6679 6.76856H54.9208C54.8372 6.76856 54.7954 6.76855 54.7954 6.63277V3.88563C54.7938 3.86877 54.796 3.85176 54.8017 3.83582C54.8074 3.81988 54.8166 3.8054 54.8286 3.79342C54.8406 3.78144 54.855 3.77226 54.871 3.76653C54.8869 3.7608 54.9039 3.75867 54.9208 3.76029H57.6679C57.7515 3.76029 57.8037 3.76029 57.8037 3.88563V3.88563ZM57.5321 9.10832V22.0606C57.5337 22.0774 57.5316 22.0944 57.5259 22.1104C57.5202 22.1263 57.511 22.1408 57.499 22.1528C57.487 22.1648 57.4725 22.1739 57.4566 22.1797C57.4407 22.1854 57.4236 22.1875 57.4068 22.1859H55.1819C55.0879 22.1859 55.0461 22.1859 55.0461 22.0606V9.06653C55.0461 8.98297 55.0461 8.94119 55.1819 8.94119H57.3859C57.4028 8.93957 57.4198 8.9417 57.4357 8.94743C57.4516 8.95316 57.4661 8.96234 57.4781 8.97432C57.4901 8.9863 57.4993 9.00078 57.505 9.01672C57.5107 9.03266 57.5129 9.04967 57.5112 9.06653" fill="white"/>
<path d="M66.9031 25.3614C67.4199 25.41 67.941 25.3414 68.4275 25.1605C68.9141 24.9797 69.3535 24.6912 69.7129 24.3168C70.3217 23.5774 70.641 22.6419 70.6112 21.6846V20.9847C70.6112 20.9325 70.6112 20.9012 70.5172 20.8698C70.4864 20.8604 70.4532 20.8614 70.423 20.8727C70.3928 20.8841 70.3671 20.9051 70.3501 20.9325C69.954 21.3571 69.4689 21.6888 68.9295 21.9039C68.2127 22.2618 67.4223 22.4477 66.6211 22.4471C65.7853 22.4695 64.9545 22.3102 64.1862 21.9802C63.418 21.6502 62.7305 21.1573 62.1714 20.5356C60.961 19.1654 60.3284 17.3797 60.4061 15.5532C60.3226 13.753 60.9234 11.9879 62.0878 10.6125C62.6569 9.98423 63.3568 9.48839 64.1382 9.15993C64.9197 8.83147 65.7636 8.67838 66.6107 8.71144C67.3299 8.72136 68.04 8.87403 68.6997 9.16059C69.3271 9.38743 69.9 9.74326 70.3814 10.2051C70.5068 10.32 70.5903 10.3096 70.6426 10.2051L70.9037 9.16059C70.9037 9.07703 70.9873 9.03525 71.029 9.03525H72.9928C73.0868 9.03525 73.1286 9.03525 73.1286 9.16059V21.695C73.1576 22.4889 73.0202 23.28 72.7252 24.0176C72.4302 24.7552 71.9841 25.4228 71.4155 25.9776C70.8501 26.5208 70.1818 26.9457 69.45 27.2273C68.7182 27.5089 67.9376 27.6416 67.1538 27.6176C65.657 27.6815 64.1766 27.284 62.913 26.479C62.422 26.1884 62.0033 25.7902 61.6884 25.3144C61.3736 24.8385 61.1709 24.2974 61.0955 23.7319C61.0939 23.715 61.096 23.698 61.1018 23.6821C61.1075 23.6661 61.1167 23.6516 61.1286 23.6397C61.1406 23.6277 61.1551 23.6185 61.171 23.6128C61.187 23.607 61.204 23.6049 61.2209 23.6065H63.4979C63.5537 23.6065 63.5954 23.6483 63.6233 23.7319C63.8325 24.2187 64.2008 24.6201 64.6678 24.8704C65.3576 25.2592 66.1437 25.4439 66.9345 25.4031L66.9031 25.3614ZM62.9235 15.5845C62.8616 16.7908 63.232 17.9797 63.968 18.9375C64.315 19.3426 64.7486 19.6646 65.2367 19.8798C65.7248 20.0949 66.2551 20.1977 66.7882 20.1805C67.3212 20.2069 67.8527 20.1049 68.338 19.8831C68.8233 19.6614 69.2483 19.3263 69.5771 18.9061C70.2951 17.9351 70.6632 16.7496 70.6217 15.5427C70.6648 14.3324 70.2966 13.1431 69.5771 12.1689C69.2483 11.7487 68.8233 11.4136 68.338 11.1918C67.8527 10.9701 67.3212 10.8681 66.7882 10.8945C66.2438 10.8723 65.7015 10.9757 65.2034 11.1967C64.7053 11.4177 64.2647 11.7503 63.9158 12.1689C63.1816 13.1356 62.8117 14.3302 62.8712 15.5427" fill="white"/>
<path d="M87.8239 22.1436H85.8602C85.808 22.1436 85.7662 22.1436 85.7244 22.0183L85.4633 20.9737C85.4633 20.8275 85.3275 20.8066 85.2022 20.9215C84.1582 21.8161 82.8463 22.3379 81.4732 22.4048C80.6249 22.4428 79.7788 22.2931 78.9951 21.9663C78.2115 21.6395 77.5097 21.1436 76.9399 20.5141C75.7734 19.1276 75.1729 17.3521 75.2582 15.5422C75.1718 13.7321 75.7725 11.9562 76.9399 10.5702C77.5105 9.94108 78.2122 9.44481 78.9955 9.11634C79.7787 8.78788 80.6245 8.63521 81.4732 8.6691C82.2632 8.66781 83.0428 8.85018 83.7502 9.20182C84.2877 9.42832 84.7796 9.75037 85.2022 10.1523C85.2753 10.2255 85.3275 10.2464 85.3797 10.215C85.4036 10.2066 85.4244 10.1911 85.4394 10.1706C85.4543 10.15 85.4626 10.1255 85.4633 10.1001V3.8329C85.4633 3.74934 85.4633 3.70756 85.5991 3.70756H87.8239C87.8408 3.70594 87.8578 3.70807 87.8738 3.7138C87.8897 3.71953 87.9042 3.72871 87.9162 3.74068C87.9281 3.75266 87.9373 3.76714 87.943 3.78308C87.9488 3.79903 87.9509 3.81604 87.9493 3.8329V22.0183C87.9509 22.0351 87.9488 22.0522 87.943 22.0681C87.9373 22.084 87.9281 22.0985 87.9162 22.1105C87.9042 22.1225 87.8897 22.1317 87.8738 22.1374C87.8578 22.1431 87.8408 22.1452 87.8239 22.1436V22.1436ZM77.7442 15.5422C77.6823 16.7485 78.0527 17.9373 78.7887 18.8951C79.1371 19.315 79.5773 19.6492 80.0754 19.8719C80.5734 20.0947 81.116 20.2 81.6612 20.1799C82.1956 20.2063 82.7286 20.1043 83.2156 19.8827C83.7026 19.661 84.1295 19.3259 84.4605 18.9056C85.157 17.9268 85.5029 16.7418 85.4424 15.5422C85.4988 14.3397 85.1533 13.1527 84.4605 12.1683C84.1334 11.7461 83.7088 11.4096 83.223 11.1876C82.7373 10.9657 82.2049 10.8649 81.6716 10.894C81.1256 10.8717 80.5818 10.9751 80.082 11.196C79.5822 11.4169 79.1398 11.7495 78.7887 12.1683C78.0545 13.135 77.6846 14.3297 77.7442 15.5422" fill="white"/>
<path d="M94.6255 3.88511V6.63224C94.6271 6.65047 94.6246 6.66884 94.6184 6.68603C94.6121 6.70323 94.6022 6.71885 94.5892 6.73179C94.5763 6.74474 94.5607 6.75469 94.5435 6.76095C94.5263 6.76721 94.5079 6.76962 94.4897 6.76803H91.753C91.659 6.76803 91.6172 6.76803 91.6172 6.63224V3.88511C91.6172 3.80155 91.6172 3.75977 91.753 3.75977H94.4897C94.5837 3.75977 94.6255 3.75977 94.6255 3.88511ZM94.3643 9.10779V22.06C94.3643 22.1436 94.3643 22.1854 94.2285 22.1854H92.0037C91.9868 22.187 91.9698 22.1849 91.9539 22.1791C91.9379 22.1734 91.9234 22.1642 91.9114 22.1523C91.8995 22.1403 91.8903 22.1258 91.8846 22.1099C91.8788 22.0939 91.8767 22.0769 91.8783 22.06V9.06601C91.8767 9.04915 91.8788 9.03214 91.8846 9.01619C91.8903 9.00025 91.8995 8.98577 91.9114 8.97379C91.9234 8.96181 91.9379 8.95263 91.9539 8.94691C91.9698 8.94118 91.9868 8.93905 92.0037 8.94067H94.2285C94.3225 8.94067 94.3643 8.94067 94.3643 9.06601" fill="white"/>
<path d="M105.289 10.8953H103.963C103.482 10.8826 103.006 10.9805 102.569 11.1816C102.133 11.3826 101.748 11.6814 101.446 12.0547C100.808 12.8411 100.478 13.8321 100.516 14.8437V22.0196C100.517 22.0379 100.515 22.0562 100.509 22.0734C100.503 22.0906 100.493 22.1062 100.48 22.1192C100.467 22.1321 100.451 22.1421 100.434 22.1483C100.417 22.1546 100.398 22.157 100.38 22.1554H98.1239C98.0404 22.1554 97.9986 22.1032 97.9986 22.0196V9.06737C97.997 9.05051 97.9991 9.03349 98.0048 9.01755C98.0105 9.00161 98.0197 8.98713 98.0317 8.97515C98.0437 8.96317 98.0582 8.95399 98.0741 8.94826C98.09 8.94254 98.1071 8.94041 98.1239 8.94202H100.088C100.088 8.94202 100.182 8.94202 100.223 9.06737L100.485 10.2372C100.54 10.3974 100.634 10.3974 100.767 10.2372C101.158 9.77772 101.636 9.4 102.174 9.12575C102.712 8.8515 103.298 8.68613 103.9 8.63911H105.227C105.244 8.63766 105.261 8.63983 105.278 8.64548C105.294 8.65112 105.309 8.66013 105.322 8.67191C105.335 8.6837 105.345 8.69801 105.352 8.71394C105.359 8.72987 105.363 8.74707 105.363 8.76445V10.7282C105.363 10.8222 105.363 10.864 105.227 10.864" fill="white"/>
<path d="M13.2343 0H0.522268C0.384591 0.00267409 0.253299 0.0585573 0.155928 0.155928C0.0585573 0.253299 0.00267409 0.384591 0 0.522268V25.3196C0.00267409 25.4572 0.0585573 25.5885 0.155928 25.6859C0.253299 25.7833 0.384591 25.8392 0.522268 25.8418H13.2343C16.6611 25.8418 19.9476 24.4805 22.3707 22.0574C24.7939 19.6342 26.1552 16.3478 26.1552 12.9209C26.1552 9.49407 24.7939 6.20759 22.3707 3.78445C19.9476 1.36131 16.6611 5.10639e-08 13.2343 0ZM14.4773 21.9353C12.5539 22.2663 10.5751 21.9765 8.82744 21.1079C7.07975 20.2394 5.65387 18.8371 4.75626 17.1041C3.85866 15.3712 3.53593 13.3975 3.83479 11.4689C4.13366 9.54028 5.03862 7.75685 6.41862 6.37684C7.79863 4.99684 9.58206 4.09188 11.5107 3.79301C13.4393 3.49414 15.4129 3.81688 17.1459 4.71448C18.8789 5.61209 20.2811 7.03797 21.1497 8.78566C22.0183 10.5334 22.308 12.5121 21.977 14.4355C21.6549 16.3072 20.7609 18.0332 19.418 19.3762C18.075 20.7191 16.349 21.6131 14.4773 21.9353" fill="white"/>
</svg>
