<svg width="135" height="134" viewBox="0 0 135 134" fill="none" xmlns="http://www.w3.org/2000/svg">
<path d="M102.209 38.8556C103.762 37.3061 106.279 37.3061 107.832 38.8556L133.836 64.8075C135.388 66.357 135.388 68.8692 133.836 70.4187L107.832 96.3706C106.279 97.9201 103.762 97.9201 102.209 96.3706L76.2054 70.4187C74.6528 68.8692 74.6528 66.357 76.2054 64.8075L102.209 38.8556Z" fill="#1E98F5"/>
<path d="M65.4342 75.0612C66.9868 73.5117 69.5041 73.5117 71.0567 75.0612L97.0605 101.013C98.6131 102.563 98.6131 105.075 97.0605 106.624L71.0567 132.576C69.5041 134.126 66.9868 134.126 65.4342 132.576L39.4303 106.624C37.8777 105.075 37.8777 102.563 39.4303 101.013L65.4342 75.0612Z" fill="#68707C"/>
<path d="M27.1683 38.8556C28.7209 37.3061 31.2382 37.3061 32.7908 38.8556L58.7946 64.8075C60.3472 66.357 60.3472 68.8692 58.7946 70.4187L32.7908 96.3706C31.2382 97.9201 28.7209 97.9201 27.1683 96.3706L1.16445 70.4187C-0.38815 68.8692 -0.38815 66.357 1.16445 64.8075L27.1683 38.8556Z" fill="#E5AA20"/>
<path d="M64.4117 1.16212C65.9643 -0.387374 68.4816 -0.387374 70.0342 1.16212L96.038 27.114C97.5906 28.6635 97.5906 31.1758 96.038 32.7253L70.0342 58.6772C68.4816 60.2266 65.9643 60.2266 64.4117 58.6772L38.4079 32.7253C36.8553 31.1758 36.8553 28.6635 38.4079 27.114L64.4117 1.16212Z" fill="#F45F63"/>
</svg>
