<?xml version="1.0" encoding="UTF-8"?><svg id="Layer_1" xmlns="http://www.w3.org/2000/svg" viewBox="0 0 752 79"><defs><style>.cls-1{fill:#1e2b3c;}</style></defs><path class="cls-1" d="m35,70H1.4C.63,70,0,69.37,0,68.6V1.4C0,.63.63,0,1.4,0h33.6c19.33,0,35,15.67,35,35h0c0,19.33-15.67,35-35,35Zm0-60c-13.81,0-25,11.19-25,25s11.19,25,25,25,25-11.19,25-25-11.19-25-25-25Z"/><g><path class="cls-1" d="m100.1,12.23c0-.21.14-.36.36-.36h31.59c.21,0,.35.14.35.36v5.32c0,.21-.14.36-.35.36h-24.85c-.21,0-.35.14-.35.35v14.48c0,.21.14.35.35.35h21.94c.21,0,.35.14.35.36v5.32c0,.21-.14.36-.35.36h-21.94c-.21,0-.35.14-.35.36v22.01c0,.21-.14.36-.35.36h-6.03c-.21,0-.36-.14-.36-.36V12.23Z"/><path class="cls-1" d="m141.21,46.31c-.21,0-.35.14-.35.36,0,5.18,3.76,9.87,10.08,9.87,5.04,0,7.53-2.13,9.02-4.97.14-.28.28-.35.5-.35h6.32c.21,0,.43.07.35.35-1.85,6.96-8.17,11-16.19,11-10.65,0-17.25-7.6-17.25-18.67s6.25-18.67,17.25-18.67,17.32,7.6,17.32,18.67c0,.71-.21,1.49-.35,2.06-.07.21-.14.35-.35.35h-26.34Zm9.73-15.05c-6.89,0-10.08,6.04-10.08,9.37,0,.21.21.35.35.35h19.31c.21,0,.35-.14.35-.35,0-4.05-2.91-9.37-9.94-9.37Z"/><path class="cls-1" d="m182.75,61.51c0,.21-.14.36-.35.36h-6.04c-.21,0-.35-.14-.35-.36V12.23c0-.21.14-.36.35-.36h6.04c.21,0,.35.14.35.36v49.27Z"/><path class="cls-1" d="m200,61.51c0,.21-.14.36-.35.36h-6.04c-.21,0-.35-.14-.35-.36V12.23c0-.21.14-.36.35-.36h6.04c.21,0,.35.14.35.36v49.27Z"/><path class="cls-1" d="m215.33,46.31c-.21,0-.35.14-.35.36,0,5.18,3.76,9.87,10.08,9.87,5.04,0,7.53-2.13,9.02-4.97.14-.28.28-.35.5-.35h6.32c.21,0,.43.07.35.35-1.85,6.96-8.17,11-16.19,11-10.65,0-17.25-7.6-17.25-18.67s6.25-18.67,17.25-18.67,17.32,7.6,17.32,18.67c0,.71-.21,1.49-.35,2.06-.07.21-.14.35-.35.35h-26.34Zm9.73-15.05c-6.89,0-10.08,6.04-10.08,9.37,0,.21.21.35.35.35h19.31c.21,0,.35-.14.35-.35,0-4.05-2.91-9.37-9.94-9.37Z"/><path class="cls-1" d="m271.42,38.08c-.21,0-.35-.14-.35-.35,0-3.91-3.12-6.46-8.88-6.46-5.32,0-7.67,2.34-7.67,4.54,0,4.05,5.11,4.12,8.66,4.62,7.1.99,15.62,1.63,15.62,10.72,0,8.09-6.74,11.43-15.62,11.43-10.79,0-16.05-5.68-16.05-12.5,0-.21.14-.35.35-.35h5.96c.21,0,.43.14.43.35,0,3.55,3.62,6.46,9.3,6.46,3.62,0,8.88-.78,8.88-5.4,0-4.05-5.89-4.33-8.88-4.69-6.82-.78-15.41-1.85-15.41-10.65,0-5.82,5.61-10.58,14.41-10.58s15.62,4.12,15.62,12.5c0,.21-.07.35-.28.35h-6.11Z"/><path class="cls-1" d="m301.31,61.86c-.21,0-.36-.14-.36-.36V12.23c0-.21.14-.36.36-.36h18.32c14.91.07,22.22,10.58,22.22,25.49s-7.31,24.5-22.22,24.5h-18.32Zm18.32-6.04c9.51,0,15.12-6.39,15.12-18.46s-5.61-19.45-15.12-19.45h-11.57c-.21,0-.35.14-.35.35v37.2c0,.21.14.35.35.35h11.57Z"/><path class="cls-1" d="m354.99,46.31c-.21,0-.35.14-.35.36,0,5.18,3.76,9.87,10.08,9.87,5.04,0,7.53-2.13,9.02-4.97.14-.28.28-.35.5-.35h6.32c.21,0,.43.07.35.35-1.85,6.96-8.17,11-16.19,11-10.65,0-17.25-7.6-17.25-18.67s6.25-18.67,17.25-18.67,17.32,7.6,17.32,18.67c0,.71-.21,1.49-.35,2.06-.07.21-.14.35-.35.35h-26.34Zm9.73-15.05c-6.89,0-10.08,6.04-10.08,9.37,0,.21.21.35.35.35h19.31c.21,0,.35-.14.35-.35,0-4.05-2.91-9.37-9.94-9.37Z"/><path class="cls-1" d="m411.08,38.08c-.21,0-.35-.14-.35-.35,0-3.91-3.12-6.46-8.88-6.46-5.32,0-7.67,2.34-7.67,4.54,0,4.05,5.11,4.12,8.66,4.62,7.1.99,15.62,1.63,15.62,10.72,0,8.09-6.74,11.43-15.62,11.43-10.79,0-16.05-5.68-16.05-12.5,0-.21.14-.35.35-.35h5.96c.21,0,.43.14.43.35,0,3.55,3.62,6.46,9.3,6.46,3.62,0,8.88-.78,8.88-5.4,0-4.05-5.89-4.33-8.88-4.69-6.82-.78-15.41-1.85-15.41-10.65,0-5.82,5.61-10.58,14.41-10.58s15.62,4.12,15.62,12.5c0,.21-.07.35-.28.35h-6.11Z"/><path class="cls-1" d="m426.13,20.44c-.21,0-.35-.14-.35-.36v-7.17c0-.21.14-.35.35-.35h7.1c.21,0,.36.14.36.35v7.17c0,.21-.14.36-.36.36h-7.1Zm6.96,41.07c0,.21-.14.36-.35.36h-6.04c-.21,0-.35-.14-.35-.36V26.29c0-.21.14-.36.35-.36h6.04c.21,0,.35.14.35.36v35.21Z"/><path class="cls-1" d="m458.58,70.59c7.45,0,10.08-5.11,10.08-10.08v-1.92c0-.28-.43-.57-.71-.14-.78.99-5.18,4.12-10.15,4.12-9.66,0-16.9-7.6-16.9-18.67s6.53-18.67,16.9-18.67c3.55,0,8.17,1.99,10.15,3.98.21.21.57.35.71-.07l.71-2.84c.07-.21.14-.36.35-.36h5.32c.21,0,.35.14.35.36v34.22c0,9.58-6.82,16.12-16.83,16.12-8.73,0-15.34-4.9-15.9-10.58,0-.21.14-.35.35-.35h6.18c.21,0,.28.14.35.35.57,1.63,3.12,4.54,9.02,4.54Zm-.07-14.06c6.46,0,10.15-5.25,10.15-12.64s-3.69-12.64-10.15-12.64c-6.82,0-10.86,5.25-10.86,12.64s4.05,12.64,10.86,12.64Z"/><path class="cls-1" d="m490.88,25.94c.21,0,.28.14.35.36l.71,3.19c.07.43.64.28.78.07,1.42-2.13,4.54-4.33,9.3-4.33,10.29,0,15.48,7.53,15.48,16.76v19.52c0,.21-.14.36-.35.36h-6.04c-.21,0-.35-.14-.35-.36v-19.52c0-5.4-2.41-10.72-9.44-10.72-5.96,0-9.37,5.18-9.37,10.72v19.52c0,.21-.14.36-.35.36h-6.04c-.21,0-.35-.14-.35-.36V26.29c0-.21.14-.36.35-.36h5.33Z"/><path class="cls-1" d="m548.6,38.08c-.21,0-.35-.14-.35-.35,0-3.91-3.12-6.46-8.88-6.46-5.32,0-7.67,2.34-7.67,4.54,0,4.05,5.11,4.12,8.66,4.62,7.1.99,15.62,1.63,15.62,10.72,0,8.09-6.74,11.43-15.62,11.43-10.79,0-16.05-5.68-16.05-12.5,0-.21.14-.35.35-.35h5.96c.21,0,.43.14.43.35,0,3.55,3.62,6.46,9.3,6.46,3.62,0,8.88-.78,8.88-5.4,0-4.05-5.89-4.33-8.88-4.69-6.82-.78-15.41-1.85-15.41-10.65,0-5.82,5.61-10.58,14.41-10.58s15.62,4.12,15.62,12.5c0,.21-.07.35-.28.35h-6.11Z"/><path class="cls-1" d="m557.83,70.24c0-.21.14-.36.35-.36h8.02c4.19,0,5.47-2.7,4.19-6.46l-12.64-37.13c-.07-.28.21-.36.43-.36h6.46c.21,0,.28.14.35.36l9.3,28.54c.14.36.57.36.71,0l9.37-28.54c.07-.21.14-.36.35-.36h6.46c.21,0,.43.14.35.36l-14.2,41.75c-1.99,5.75-4.19,7.88-9.94,7.88h-9.23c-.21,0-.35-.14-.35-.35v-5.33Z"/><path class="cls-1" d="m617.12,38.08c-.21,0-.35-.14-.35-.35,0-3.91-3.12-6.46-8.88-6.46-5.32,0-7.67,2.34-7.67,4.54,0,4.05,5.11,4.12,8.66,4.62,7.1.99,15.62,1.63,15.62,10.72,0,8.09-6.74,11.43-15.62,11.43-10.79,0-16.05-5.68-16.05-12.5,0-.21.14-.35.35-.35h5.96c.21,0,.43.14.43.35,0,3.55,3.62,6.46,9.3,6.46,3.62,0,8.88-.78,8.88-5.4,0-4.05-5.89-4.33-8.88-4.69-6.82-.78-15.41-1.85-15.41-10.65,0-5.82,5.61-10.58,14.41-10.58s15.62,4.12,15.62,12.5c0,.21-.07.35-.28.35h-6.11Z"/><path class="cls-1" d="m649.07,61.51c0,.21-.14.36-.35.36h-5.47c-5.89,0-9.3-2.56-9.3-8.38v-21.87c0-.21-.14-.35-.35-.35h-6.32c-.21,0-.35-.14-.35-.36v-4.61c0-.21.14-.36.35-.36h6.32c.21,0,.35-.14.35-.35v-9.58c0-.21.14-.36.35-.36h6.03c.21,0,.35.14.35.36v9.58c0,.21.14.35.35.35h7.67c.21,0,.35.14.35.36v4.61c0,.21-.14.36-.35.36h-7.67c-.21,0-.35.14-.35.35v20.66c0,2.2.99,3.55,3.83,3.55h4.19c.21,0,.35.14.35.36v5.32Z"/><path class="cls-1" d="m660.64,46.31c-.21,0-.35.14-.35.36,0,5.18,3.76,9.87,10.08,9.87,5.04,0,7.53-2.13,9.02-4.97.14-.28.28-.35.5-.35h6.32c.21,0,.43.07.35.35-1.85,6.96-8.17,11-16.19,11-10.65,0-17.25-7.6-17.25-18.67s6.25-18.67,17.25-18.67,17.32,7.6,17.32,18.67c0,.71-.21,1.49-.35,2.06-.07.21-.14.35-.35.35h-26.34Zm9.73-15.05c-6.89,0-10.08,6.04-10.08,9.37,0,.21.21.35.35.35h19.31c.21,0,.35-.14.35-.35,0-4.05-2.91-9.37-9.94-9.37Z"/><path class="cls-1" d="m701.11,25.94c.21,0,.28.14.35.36l.71,3.19c.14.43.71.28.85,0,1.28-2.56,4.97-4.26,8.45-4.26,4.97,0,6.96,1.07,10.29,4.26.35.28.5.36.85,0,2.7-3.12,7.31-4.26,10.72-4.26,9.23,0,13.99,6.11,13.99,16.76v19.52c0,.21-.14.36-.35.36h-6.04c-.21,0-.35-.14-.35-.36v-19.52c0-5.4-.92-10.72-7.95-10.72s-7.88,5.18-7.88,10.72v19.52c0,.14-.07.21-.14.28-.07.07-.14.07-.21.07h-6.11c-.14,0-.21-.07-.21-.14-.07-.07-.07-.14-.07-.21v-19.52c0-5.54-1.21-10.72-7.95-10.72-5.96,0-7.88,5.18-7.88,10.72v19.52c0,.21-.14.36-.35.36h-6.04c-.21,0-.35-.14-.35-.36V26.29c0-.21.14-.36.35-.36h5.33Z"/></g></svg>