<svg width="720" height="102" viewBox="0 0 720 102" fill="none" xmlns="http://www.w3.org/2000/svg">
<path d="M153.634 78.2319H135.697V22.8264H154.202C170.515 22.8264 180.282 33.2149 180.282 50.448C180.282 67.7622 170.515 78.2319 153.634 78.2319ZM144.057 70.9275H153.174C165.808 70.9275 172.057 63.5689 172.057 50.448C172.057 37.3812 165.808 30.1308 153.688 30.1308H144.057V70.9275ZM207.937 79.0706C195.682 79.0706 188.161 70.6299 188.161 57.7254C188.161 44.9561 195.79 36.1367 207.369 36.1367C216.783 36.1367 225.765 42.0073 225.765 57.022V59.8897H196.223C196.439 67.8975 201.092 72.3884 208.018 72.3884C212.617 72.3884 216.134 70.3864 217.595 66.4637L225.251 67.8434C223.412 74.6068 217 79.0706 207.937 79.0706ZM196.25 53.8297H217.839C217.811 47.4721 213.699 42.8189 207.423 42.8189C200.849 42.8189 196.575 47.932 196.25 53.8297ZM265.879 46.8228L258.547 48.1214C257.6 45.3349 255.274 42.5484 250.242 42.5484C245.643 42.5484 242.18 44.8209 242.207 48.0132C242.18 50.8267 244.155 52.3688 248.727 53.4509L255.328 54.9659C262.957 56.7244 266.69 60.3496 266.69 66.2202C266.69 73.7411 259.738 79.0706 249.701 79.0706C240.367 79.0706 234.253 74.9314 232.901 67.5729L240.719 66.3825C241.693 70.4676 244.804 72.5507 249.647 72.5507C254.949 72.5507 258.385 70.0347 258.385 66.8154C258.385 64.2182 256.518 62.4327 252.514 61.5399L245.48 59.9979C237.689 58.2665 234.118 54.3437 234.118 48.446C234.118 41.0875 240.773 36.1367 250.161 36.1367C259.142 36.1367 264.201 40.357 265.879 46.8228ZM275.584 78.2319V36.6778H283.673V78.2319H275.584ZM279.669 30.2661C276.856 30.2661 274.556 28.1018 274.556 25.4506C274.556 22.7993 276.856 20.608 279.669 20.608C282.456 20.608 284.782 22.7993 284.782 25.4506C284.782 28.1018 282.456 30.2661 279.669 30.2661ZM311.978 94.6805C302.049 94.6805 296.503 90.3519 294.312 85.2658L301.265 82.3982C302.699 84.7789 305.323 88.1606 312.059 88.1606C318.2 88.1606 322.664 85.347 322.664 78.8271V70.657H322.15C320.689 73.3082 317.74 77.6097 310.111 77.6097C300.291 77.6097 292.743 70.5487 292.743 57.2925C292.743 44.0634 300.128 36.1367 310.165 36.1367C317.903 36.1367 320.77 40.844 322.204 43.4141H322.799V36.6778H330.726V79.1518C330.726 89.8379 322.556 94.6805 311.978 94.6805ZM311.897 70.9004C318.877 70.9004 322.745 65.7603 322.745 57.1843C322.745 48.7707 318.958 43.0083 311.897 43.0083C304.592 43.0083 300.913 49.2035 300.913 57.1843C300.913 65.3545 304.673 70.9004 311.897 70.9004ZM349.663 53.5592V78.2319H341.574V36.6778H349.339V43.4411H349.853C351.774 39.0314 355.859 36.1367 362.108 36.1367C370.603 36.1367 376.257 41.5203 376.257 51.8007V78.2319H368.168V52.7746C368.168 46.7417 364.84 43.1436 359.349 43.1436C353.721 43.1436 349.663 46.931 349.663 53.5592ZM418.244 46.8228L410.913 48.1214C409.966 45.3349 407.639 42.5484 402.607 42.5484C398.008 42.5484 394.545 44.8209 394.572 48.0132C394.545 50.8267 396.52 52.3688 401.092 53.4509L407.693 54.9659C415.322 56.7244 419.056 60.3496 419.056 66.2202C419.056 73.7411 412.103 79.0706 402.066 79.0706C392.733 79.0706 386.618 74.9314 385.266 67.5729L393.084 66.3825C394.058 70.4676 397.169 72.5507 402.012 72.5507C407.314 72.5507 410.75 70.0347 410.75 66.8154C410.75 64.2182 408.884 62.4327 404.88 61.5399L397.846 59.9979C390.054 58.2665 386.483 54.3437 386.483 48.446C386.483 41.0875 393.138 36.1367 402.526 36.1367C411.508 36.1367 416.567 40.357 418.244 46.8228ZM433.063 93.8147C430.628 93.8147 428.518 93.3548 427.544 92.922L429.492 86.2939C433.928 87.5113 436.823 87.0514 438.879 81.5325L439.88 78.773L424.676 36.6778H433.333L443.857 68.9255H444.29L454.814 36.6778H463.498L446.373 83.7779C443.965 90.3248 439.745 93.8147 433.063 93.8147ZM502.238 46.8228L494.907 48.1214C493.96 45.3349 491.633 42.5484 486.601 42.5484C482.002 42.5484 478.539 44.8209 478.567 48.0132C478.539 50.8267 480.514 52.3688 485.086 53.4509L491.687 54.9659C499.317 56.7244 503.05 60.3496 503.05 66.2202C503.05 73.7411 496.097 79.0706 486.06 79.0706C476.727 79.0706 470.613 74.9314 469.26 67.5729L477.079 66.3825C478.053 70.4676 481.164 72.5507 486.006 72.5507C491.309 72.5507 494.745 70.0347 494.745 66.8154C494.745 64.2182 492.878 62.4327 488.874 61.5399L481.84 59.9979C474.049 58.2665 470.478 54.3437 470.478 48.446C470.478 41.0875 477.133 36.1367 486.52 36.1367C495.502 36.1367 500.561 40.357 502.238 46.8228ZM531.341 36.6778V43.1706H522.819V66.0308C522.819 70.7111 525.173 71.5768 527.797 71.5768C529.096 71.5768 530.097 71.3333 530.638 71.2251L532.099 77.9073C531.152 78.259 529.42 78.7459 526.85 78.773C520.466 78.9083 514.703 75.256 514.73 67.7081V43.1706H508.643V36.6778H514.73V26.7221H522.819V36.6778H531.341ZM557.752 79.0706C545.497 79.0706 537.976 70.6299 537.976 57.7254C537.976 44.9561 545.605 36.1367 557.184 36.1367C566.599 36.1367 575.58 42.0073 575.58 57.022V59.8897H546.038C546.254 67.8975 550.908 72.3884 557.833 72.3884C562.432 72.3884 565.949 70.3864 567.41 66.4637L575.066 67.8434C573.227 74.6068 566.815 79.0706 557.752 79.0706ZM546.065 53.8297H567.654C567.627 47.4721 563.514 42.8189 557.238 42.8189C550.664 42.8189 546.39 47.932 546.065 53.8297ZM584.555 78.2319V36.6778H592.32V43.4411H592.834C594.565 38.8691 598.65 36.1367 604.142 36.1367C609.688 36.1367 613.503 38.8962 615.315 43.4411H615.748C617.75 39.0044 622.241 36.1367 628.22 36.1367C635.741 36.1367 641.043 40.8711 641.043 50.3668V78.2319H632.954V51.1243C632.954 45.4972 629.437 43.1165 625.163 43.1165C619.887 43.1165 616.83 46.7417 616.83 51.7466V78.2319H608.768V50.6103C608.768 46.0924 605.657 43.1165 601.166 43.1165C596.567 43.1165 592.644 47.0122 592.644 52.6123V78.2319H584.555ZM669.794 79.0706C657.539 79.0706 650.018 70.6299 650.018 57.7254C650.018 44.9561 657.647 36.1367 669.226 36.1367C678.641 36.1367 687.622 42.0073 687.622 57.022V59.8897H658.08C658.296 67.8975 662.95 72.3884 669.875 72.3884C674.474 72.3884 677.991 70.3864 679.452 66.4637L687.108 67.8434C685.269 74.6068 678.857 79.0706 669.794 79.0706ZM658.107 53.8297H679.696C679.669 47.4721 675.557 42.8189 669.28 42.8189C662.706 42.8189 658.432 47.932 658.107 53.8297ZM715.995 36.6778V43.1706H707.473V66.0308C707.473 70.7111 709.827 71.5768 712.451 71.5768C713.749 71.5768 714.75 71.3333 715.291 71.2251L716.752 77.9073C715.805 78.259 714.074 78.7459 711.504 78.773C705.119 78.9083 699.357 75.256 699.384 67.7081V43.1706H693.297V36.6778H699.384V26.7221H707.473V36.6778H715.995Z" fill="#1E2B3C"/>
<path d="M78.0959 30.5555C79.0493 29.602 80.5952 29.602 81.5487 30.5555L100.268 49.2748C101.221 50.2282 101.221 51.7741 100.268 52.7276L81.5487 71.4468C80.5952 72.4003 79.0493 72.4003 78.0959 71.4468L59.3766 52.7276C58.4231 51.7741 58.4231 50.2282 59.3766 49.2748L78.0959 30.5555Z" fill="#1E98F5"/>
<rect x="51" y="57.6558" width="31.356" height="31.356" rx="2.44149" transform="rotate(45 51 57.6558)" fill="#68707C"/>
<rect x="22.1787" y="28.8291" width="31.356" height="31.356" rx="2.44149" transform="rotate(45 22.1787 28.8291)" fill="#E5AA20"/>
<rect x="51" width="31.356" height="31.356" rx="2.44149" transform="rotate(45 51 0)" fill="#F45F63"/>
</svg>
