<svg width="101" height="26" viewBox="0 0 101 26" fill="none" xmlns="http://www.w3.org/2000/svg">
<g clip-path="url(#clip0_1_405)">
<path d="M13.3507 0.459961H1.18066C1.04886 0.462521 0.923163 0.516022 0.829944 0.609241C0.736725 0.70246 0.683224 0.828154 0.680664 0.959961V24.7C0.683224 24.8318 0.736725 24.9575 0.829944 25.0507C0.923163 25.1439 1.04886 25.1974 1.18066 25.2H13.3507C16.6314 25.2 19.7778 23.8967 22.0976 21.5769C24.4174 19.257 25.7207 16.1107 25.7207 12.83C25.7207 9.54923 24.4174 6.40287 22.0976 4.08305C19.7778 1.76323 16.6314 0.459961 13.3507 0.459961ZM14.5407 21.46C12.6993 21.7768 10.8049 21.4994 9.13173 20.6679C7.45855 19.8364 6.09347 18.4939 5.23413 16.8348C4.3748 15.1757 4.06583 13.2862 4.35195 11.4398C4.63808 9.59347 5.50445 7.88608 6.82562 6.56491C8.14678 5.24375 9.85417 4.37737 11.7005 4.09125C13.5469 3.80512 15.4364 4.1141 17.0955 4.97343C18.7546 5.83276 20.0971 7.19785 20.9286 8.87103C21.7601 10.5442 22.0376 12.4386 21.7207 14.28C21.4123 16.0719 20.5564 17.7243 19.2707 19.01C17.985 20.2957 16.3326 21.1516 14.5407 21.46Z" fill="white"/>
<path d="M42.0807 4.05996H45.3907C45.4467 4.04746 45.5047 4.04746 45.5607 4.05996L51.3807 21.42C51.3807 21.56 51.3807 21.63 51.2407 21.63H48.6207C48.5707 21.63 48.5207 21.63 48.4907 21.51L47.3507 17.93H39.6507C39.6186 17.9303 39.587 17.9209 39.5603 17.9031C39.5335 17.8853 39.5128 17.8598 39.5007 17.83L38.3307 21.42C38.3307 21.56 38.2707 21.63 38.2207 21.63H36.1607C36.0607 21.63 36.0107 21.58 36.0307 21.5L41.9307 4.14996C41.9307 4.05996 42.0107 4.01996 42.0807 4.01996V4.05996ZM40.3607 15.84H46.5507C46.6507 15.84 46.6907 15.84 46.6507 15.71L43.7307 6.56996C43.7131 6.51288 43.677 6.46326 43.6281 6.42888C43.5793 6.3945 43.5204 6.37729 43.4607 6.37996C43.3307 6.37996 43.2507 6.37996 43.2207 6.47996L40.2207 15.63C40.2207 15.77 40.2207 15.84 40.3307 15.84" fill="white"/>
<path d="M56.1707 4.17995V21.5399C56.1722 21.5561 56.1702 21.5724 56.1647 21.5876C56.1592 21.6029 56.1504 21.6168 56.1389 21.6282C56.1275 21.6397 56.1136 21.6485 56.0983 21.654C56.0831 21.6595 56.0668 21.6615 56.0507 21.66H53.9207C53.9041 21.6613 53.8874 21.6593 53.8717 21.6539C53.8559 21.6484 53.8415 21.6398 53.8293 21.6285C53.817 21.6173 53.8073 21.6036 53.8006 21.5883C53.794 21.5731 53.7906 21.5566 53.7907 21.5399V4.17995C53.7907 4.09995 53.7907 4.05995 53.9207 4.05995H56.0507C56.0668 4.0584 56.0831 4.06044 56.0983 4.06593C56.1136 4.07141 56.1275 4.0802 56.1389 4.09167C56.1504 4.10313 56.1592 4.117 56.1647 4.13226C56.1702 4.14752 56.1722 4.16381 56.1707 4.17995Z" fill="white"/>
<path d="M66.2407 19.66V21.54C66.2422 21.5574 66.2399 21.575 66.2339 21.5915C66.2279 21.6079 66.2184 21.6229 66.206 21.6353C66.1936 21.6477 66.1787 21.6572 66.1622 21.6632C66.1457 21.6692 66.1281 21.6715 66.1107 21.67H64.1907C62.0107 21.67 60.9107 20.73 60.9107 18.67V11.02C60.9122 11.0025 60.9099 10.9849 60.9039 10.9685C60.8979 10.952 60.8884 10.937 60.876 10.9246C60.8636 10.9123 60.8487 10.9027 60.8322 10.8967C60.8157 10.8907 60.7981 10.8884 60.7807 10.89H58.5607C58.4807 10.89 58.4407 10.89 58.4407 10.76V9.13995C58.4391 9.12381 58.4412 9.10752 58.4467 9.09226C58.4521 9.077 58.4609 9.06314 58.4724 9.05167C58.4839 9.0402 58.4977 9.03141 58.513 9.02593C58.5283 9.02045 58.5445 9.01841 58.5607 9.01995H60.7807C60.8707 9.01995 60.9107 9.01995 60.9107 8.87995V5.51995C60.9107 5.42995 60.9107 5.38995 61.0407 5.38995H63.1607C63.2507 5.38995 63.2907 5.38995 63.2907 5.51995V8.87995C63.2878 8.8973 63.2887 8.91508 63.2934 8.93204C63.2981 8.94899 63.3065 8.9647 63.3179 8.97806C63.3294 8.99142 63.3436 9.0021 63.3596 9.00934C63.3757 9.01658 63.3931 9.0202 63.4107 9.01995H66.1107C66.1273 9.01857 66.144 9.02064 66.1597 9.02605C66.1754 9.03146 66.1899 9.04008 66.2021 9.05136C66.2143 9.06264 66.2241 9.07635 66.2307 9.0916C66.2373 9.10685 66.2407 9.12332 66.2407 9.13995V10.76C66.2407 10.85 66.2407 10.89 66.1107 10.89H63.4107C63.3307 10.89 63.2907 10.89 63.2907 11.02V18.3C63.2907 19.13 63.7407 19.54 64.6407 19.54H66.1107C66.2007 19.54 66.2407 19.54 66.2407 19.66Z" fill="white"/>
<path d="M71.4206 4.17995V6.80995C71.4224 6.82836 71.42 6.84694 71.4134 6.86423C71.4069 6.88153 71.3964 6.89708 71.3829 6.90966C71.3693 6.92225 71.353 6.93153 71.3353 6.93679C71.3176 6.94204 71.2989 6.94312 71.2806 6.93995H68.6206C68.5406 6.93995 68.5006 6.93995 68.5006 6.80995V4.17995C68.4991 4.16381 68.5011 4.14752 68.5066 4.13226C68.5121 4.117 68.5209 4.10313 68.5323 4.09167C68.5438 4.0802 68.5577 4.07141 68.5729 4.06593C68.5882 4.06044 68.6045 4.0584 68.6206 4.05995H71.2406C71.3306 4.05995 71.3806 4.05995 71.3806 4.17995H71.4206ZM71.1206 9.17995V21.58C71.1222 21.5961 71.1201 21.6124 71.1147 21.6276C71.1092 21.6429 71.1004 21.6568 71.0889 21.6682C71.0774 21.6797 71.0636 21.6885 71.0483 21.694C71.0331 21.6995 71.0168 21.7015 71.0006 21.6999H68.9006C68.8845 21.7015 68.8682 21.6995 68.8529 21.694C68.8377 21.6885 68.8238 21.6797 68.8123 21.6682C68.8009 21.6568 68.7921 21.6429 68.7866 21.6276C68.7811 21.6124 68.7791 21.5961 68.7806 21.58V9.13995C68.7791 9.12381 68.7811 9.10752 68.7866 9.09226C68.7921 9.077 68.8009 9.06313 68.8123 9.05167C68.8238 9.0402 68.8377 9.03141 68.8529 9.02593C68.8682 9.02044 68.8845 9.0184 68.9006 9.01995H71.0406C71.0568 9.0184 71.0731 9.02044 71.0883 9.02593C71.1036 9.03141 71.1174 9.0402 71.1289 9.05167C71.1404 9.06313 71.1492 9.077 71.1547 9.09226C71.1601 9.10752 71.1622 9.12381 71.1606 9.13995" fill="white"/>
<path d="M74.7207 9.01993H76.6207C76.6207 9.01993 76.7107 9.01993 76.7507 9.13993L77.0007 10.2599C77.0096 10.2898 77.0282 10.3159 77.0535 10.334C77.0789 10.3521 77.1096 10.3612 77.1407 10.3599C77.1682 10.3623 77.1959 10.357 77.2206 10.3446C77.2453 10.3323 77.2661 10.3134 77.2807 10.2899C77.6536 9.78104 78.1486 9.37417 78.7201 9.10679C79.2915 8.83942 79.9211 8.72013 80.5507 8.75993C81.2992 8.71907 82.0474 8.84704 82.7398 9.13438C83.4322 9.42172 84.0511 9.86108 84.5507 10.4199C85.5317 11.6137 86.0405 13.126 85.9807 14.6699V21.5399C85.9807 21.6199 85.9807 21.6599 85.8507 21.6599H83.7207C83.7046 21.6615 83.6883 21.6594 83.673 21.654C83.6578 21.6485 83.6439 21.6397 83.6324 21.6282C83.621 21.6167 83.6122 21.6029 83.6067 21.5876C83.6012 21.5724 83.5992 21.5561 83.6007 21.5399V14.6699C83.6285 13.7092 83.352 12.7642 82.8107 11.9699C82.5267 11.6054 82.1575 11.3163 81.7355 11.128C81.3135 10.9396 80.8517 10.8579 80.3907 10.8899C79.9149 10.8675 79.4404 10.9562 79.0048 11.1488C78.5691 11.3415 78.1843 11.6329 77.8807 11.9999C77.2755 12.7561 76.9567 13.7017 76.9807 14.6699V21.5399C76.9823 21.5561 76.9802 21.5724 76.9747 21.5876C76.9693 21.6029 76.9605 21.6167 76.949 21.6282C76.9375 21.6397 76.9237 21.6485 76.9084 21.654C76.8931 21.6594 76.8769 21.6615 76.8607 21.6599H74.7207C74.7046 21.6615 74.6883 21.6594 74.673 21.654C74.6578 21.6485 74.6439 21.6397 74.6324 21.6282C74.621 21.6167 74.6122 21.6029 74.6067 21.5876C74.6012 21.5724 74.5992 21.5561 74.6007 21.5399V9.13993C74.5992 9.12379 74.6012 9.1075 74.6067 9.09224C74.6122 9.07697 74.621 9.06311 74.6324 9.05165C74.6439 9.04018 74.6578 9.03139 74.673 9.0259C74.6883 9.02042 74.7046 9.01838 74.7207 9.01993Z" fill="white"/>
<path d="M89.0407 9.01993H90.9207C90.9207 9.01993 91.0107 9.01993 91.0507 9.13993L91.3007 10.2599C91.3095 10.2898 91.3281 10.3159 91.3535 10.334C91.3789 10.3521 91.4095 10.3612 91.4407 10.3599C91.4682 10.3623 91.4958 10.357 91.5205 10.3446C91.5452 10.3323 91.566 10.3134 91.5807 10.2899C91.9536 9.78104 92.4486 9.37417 93.02 9.10679C93.5915 8.83942 94.221 8.72013 94.8507 8.75993C95.5992 8.71907 96.3473 8.84704 97.0397 9.13438C97.7321 9.42172 98.351 9.86108 98.8507 10.4199C99.8316 11.6137 100.34 13.126 100.281 14.6699V21.5399C100.281 21.6199 100.231 21.6599 100.141 21.6599H98.0207C98.0045 21.6615 97.9882 21.6594 97.973 21.654C97.9577 21.6485 97.9438 21.6397 97.9324 21.6282C97.9209 21.6167 97.9121 21.6029 97.9066 21.5876C97.9012 21.5724 97.8991 21.5561 97.9007 21.5399V14.6699C97.9285 13.7092 97.652 12.7642 97.1107 11.9699C96.8267 11.6054 96.4574 11.3163 96.0354 11.128C95.6134 10.9396 95.1517 10.8579 94.6907 10.8899C94.2148 10.8668 93.74 10.955 93.3042 11.1478C92.8685 11.3405 92.4837 11.6323 92.1807 11.9999C91.5754 12.7561 91.2567 13.7017 91.2807 14.6699V21.5399C91.2822 21.5561 91.2802 21.5724 91.2747 21.5876C91.2692 21.6029 91.2604 21.6167 91.2489 21.6282C91.2375 21.6397 91.2236 21.6485 91.2084 21.654C91.1931 21.6594 91.1768 21.6615 91.1607 21.6599H89.0407C89.0245 21.6615 89.0082 21.6594 88.993 21.654C88.9777 21.6485 88.9639 21.6397 88.9524 21.6282C88.9409 21.6167 88.9321 21.6029 88.9266 21.5876C88.9212 21.5724 88.9191 21.5561 88.9207 21.5399V9.13993C88.9191 9.12379 88.9212 9.1075 88.9266 9.09224C88.9321 9.07697 88.9409 9.06311 88.9524 9.05165C88.9639 9.04018 88.9777 9.03139 88.993 9.0259C89.0082 9.02042 89.0245 9.01838 89.0407 9.01993Z" fill="white"/>
</g>
<defs>
<clipPath id="clip0_1_405">
<rect width="99.61" height="24.73" fill="white" transform="translate(0.680664 0.459961)"/>
</clipPath>
</defs>
</svg>
