<svg width="101" height="26" viewBox="0 0 101 26" fill="none" xmlns="http://www.w3.org/2000/svg">
<g clip-path="url(#clip0_1_421)">
<path d="M13.3507 0.72998H1.18066C1.04886 0.732541 0.923163 0.786041 0.829944 0.87926C0.736725 0.972479 0.683224 1.09817 0.680664 1.22998V24.97C0.683224 25.1018 0.736725 25.2275 0.829944 25.3207C0.923163 25.4139 1.04886 25.4674 1.18066 25.47H13.3507C16.6314 25.47 19.7778 24.1667 22.0976 21.8469C24.4174 19.5271 25.7207 16.3807 25.7207 13.1C25.7207 9.81925 24.4174 6.67289 22.0976 4.35307C19.7778 2.03324 16.6314 0.729981 13.3507 0.72998ZM14.5407 21.73C12.6993 22.0469 10.8049 21.7695 9.13173 20.9379C7.45855 20.1064 6.09347 18.7639 5.23413 17.1048C4.3748 15.4458 4.06583 13.5562 4.35195 11.7099C4.63808 9.86349 5.50445 8.1561 6.82562 6.83493C8.14678 5.51376 9.85417 4.64739 11.7005 4.36127C13.5469 4.07514 15.4364 4.38412 17.0955 5.24345C18.7546 6.10278 20.0971 7.46787 20.9286 9.14105C21.7601 10.8142 22.0376 12.7086 21.7207 14.55C21.4123 16.3419 20.5564 17.9943 19.2707 19.28C17.985 20.5657 16.3326 21.4216 14.5407 21.73Z" fill="black"/>
<path d="M42.0807 4.32998H45.3907C45.4467 4.31748 45.5047 4.31748 45.5607 4.32998L51.3807 21.69C51.3807 21.83 51.3807 21.9 51.2407 21.9H48.6207C48.5707 21.9 48.5207 21.9 48.4907 21.78L47.3507 18.2H39.6507C39.6186 18.2003 39.587 18.191 39.5603 18.1731C39.5335 18.1553 39.5128 18.1298 39.5007 18.1L38.3307 21.69C38.3307 21.83 38.2707 21.9 38.2207 21.9H36.1607C36.0607 21.9 36.0107 21.85 36.0307 21.77L41.9307 4.41998C41.9307 4.32998 42.0107 4.28998 42.0807 4.28998V4.32998ZM40.3607 16.11H46.5507C46.6507 16.11 46.6907 16.11 46.6507 15.98L43.7307 6.83998C43.7131 6.7829 43.677 6.73328 43.6281 6.6989C43.5793 6.66452 43.5204 6.64731 43.4607 6.64998C43.3307 6.64998 43.2507 6.64998 43.2207 6.74998L40.2207 15.9C40.2207 16.04 40.2207 16.11 40.3307 16.11" fill="black"/>
<path d="M56.1707 4.44997V21.81C56.1722 21.8261 56.1702 21.8424 56.1647 21.8577C56.1592 21.8729 56.1504 21.8868 56.1389 21.8983C56.1275 21.9097 56.1136 21.9185 56.0983 21.924C56.0831 21.9295 56.0668 21.9315 56.0507 21.93H53.9207C53.9041 21.9314 53.8874 21.9293 53.8717 21.9239C53.8559 21.9185 53.8415 21.9098 53.8293 21.8986C53.817 21.8873 53.8073 21.8736 53.8006 21.8583C53.794 21.8431 53.7906 21.8266 53.7907 21.81V4.44997C53.7907 4.36997 53.7907 4.32997 53.9207 4.32997H56.0507C56.0668 4.32842 56.0831 4.33046 56.0983 4.33595C56.1136 4.34143 56.1275 4.35022 56.1389 4.36169C56.1504 4.37315 56.1592 4.38702 56.1647 4.40228C56.1702 4.41754 56.1722 4.43383 56.1707 4.44997Z" fill="black"/>
<path d="M66.2407 19.93V21.81C66.2422 21.8274 66.2399 21.845 66.2339 21.8615C66.2279 21.8779 66.2184 21.8929 66.206 21.9053C66.1936 21.9177 66.1787 21.9272 66.1622 21.9332C66.1457 21.9392 66.1281 21.9415 66.1107 21.94H64.1907C62.0107 21.94 60.9107 21 60.9107 18.94V11.29C60.9122 11.2725 60.9099 11.2549 60.9039 11.2385C60.8979 11.222 60.8884 11.2071 60.876 11.1947C60.8636 11.1823 60.8487 11.1727 60.8322 11.1668C60.8157 11.1608 60.7981 11.1584 60.7807 11.16H58.5607C58.4807 11.16 58.4407 11.16 58.4407 11.03V9.40997C58.4391 9.39383 58.4412 9.37754 58.4467 9.36228C58.4521 9.34702 58.4609 9.33316 58.4724 9.32169C58.4839 9.31022 58.4977 9.30143 58.513 9.29595C58.5283 9.29046 58.5445 9.28842 58.5607 9.28997H60.7807C60.8707 9.28997 60.9107 9.28997 60.9107 9.14997V5.78997C60.9107 5.69997 60.9107 5.65997 61.0407 5.65997H63.1607C63.2507 5.65997 63.2907 5.65997 63.2907 5.78997V9.14997C63.2878 9.16732 63.2887 9.1851 63.2934 9.20205C63.2981 9.21901 63.3065 9.23472 63.3179 9.24808C63.3294 9.26144 63.3436 9.27212 63.3596 9.27936C63.3757 9.28659 63.3931 9.29022 63.4107 9.28997H66.1107C66.1273 9.28859 66.144 9.29066 66.1597 9.29607C66.1754 9.30148 66.1899 9.3101 66.2021 9.32138C66.2143 9.33266 66.2241 9.34637 66.2307 9.36162C66.2373 9.37687 66.2407 9.39334 66.2407 9.40997V11.03C66.2407 11.12 66.2407 11.16 66.1107 11.16H63.4107C63.3307 11.16 63.2907 11.16 63.2907 11.29V18.57C63.2907 19.4 63.7407 19.81 64.6407 19.81H66.1107C66.2007 19.81 66.2407 19.81 66.2407 19.93Z" fill="black"/>
<path d="M71.4206 4.44997V7.07997C71.4224 7.09838 71.42 7.11695 71.4134 7.13425C71.4069 7.15155 71.3964 7.1671 71.3829 7.17968C71.3693 7.19227 71.353 7.20155 71.3353 7.20681C71.3176 7.21206 71.2989 7.21314 71.2806 7.20997H68.6206C68.5406 7.20997 68.5006 7.20997 68.5006 7.07997V4.44997C68.4991 4.43383 68.5011 4.41754 68.5066 4.40228C68.5121 4.38702 68.5209 4.37315 68.5323 4.36169C68.5438 4.35022 68.5577 4.34143 68.5729 4.33595C68.5882 4.33046 68.6045 4.32842 68.6206 4.32997H71.2406C71.3306 4.32997 71.3806 4.32997 71.3806 4.44997H71.4206ZM71.1206 9.44997V21.85C71.1222 21.8661 71.1201 21.8824 71.1147 21.8977C71.1092 21.9129 71.1004 21.9268 71.0889 21.9383C71.0774 21.9497 71.0636 21.9585 71.0483 21.964C71.0331 21.9695 71.0168 21.9715 71.0006 21.97H68.9006C68.8845 21.9715 68.8682 21.9695 68.8529 21.964C68.8377 21.9585 68.8238 21.9497 68.8123 21.9383C68.8009 21.9268 68.7921 21.9129 68.7866 21.8977C68.7811 21.8824 68.7791 21.8661 68.7806 21.85V9.40997C68.7791 9.39383 68.7811 9.37754 68.7866 9.36228C68.7921 9.34702 68.8009 9.33315 68.8123 9.32169C68.8238 9.31022 68.8377 9.30143 68.8529 9.29595C68.8682 9.29046 68.8845 9.28842 68.9006 9.28997H71.0406C71.0568 9.28842 71.0731 9.29046 71.0883 9.29595C71.1036 9.30143 71.1174 9.31022 71.1289 9.32169C71.1404 9.33315 71.1492 9.34702 71.1547 9.36228C71.1601 9.37754 71.1622 9.39383 71.1606 9.40997" fill="black"/>
<path d="M74.7207 9.28995H76.6207C76.6207 9.28995 76.7107 9.28995 76.7507 9.40995L77.0007 10.53C77.0096 10.5598 77.0282 10.5859 77.0535 10.604C77.0789 10.6221 77.1096 10.6312 77.1407 10.6299C77.1682 10.6323 77.1959 10.627 77.2206 10.6147C77.2453 10.6023 77.2661 10.5834 77.2807 10.5599C77.6536 10.0511 78.1486 9.64419 78.7201 9.37681C79.2915 9.10944 79.9211 8.99015 80.5507 9.02995C81.2992 8.98909 82.0474 9.11706 82.7398 9.4044C83.4322 9.69174 84.0511 10.1311 84.5507 10.69C85.5317 11.8838 86.0405 13.396 85.9807 14.9399V21.8099C85.9807 21.8899 85.9807 21.9299 85.8507 21.9299H83.7207C83.7046 21.9315 83.6883 21.9295 83.673 21.924C83.6578 21.9185 83.6439 21.9097 83.6324 21.8982C83.621 21.8868 83.6122 21.8729 83.6067 21.8576C83.6012 21.8424 83.5992 21.8261 83.6007 21.8099V14.9399C83.6285 13.9792 83.352 13.0342 82.8107 12.2399C82.5267 11.8754 82.1575 11.5863 81.7355 11.398C81.3135 11.2097 80.8517 11.1279 80.3907 11.1599C79.9149 11.1376 79.4404 11.2262 79.0048 11.4189C78.5691 11.6115 78.1843 11.9029 77.8807 12.27C77.2755 13.0261 76.9567 13.9717 76.9807 14.9399V21.8099C76.9823 21.8261 76.9802 21.8424 76.9747 21.8576C76.9693 21.8729 76.9605 21.8868 76.949 21.8982C76.9375 21.9097 76.9237 21.9185 76.9084 21.924C76.8931 21.9295 76.8769 21.9315 76.8607 21.9299H74.7207C74.7046 21.9315 74.6883 21.9295 74.673 21.924C74.6578 21.9185 74.6439 21.9097 74.6324 21.8982C74.621 21.8868 74.6122 21.8729 74.6067 21.8576C74.6012 21.8424 74.5992 21.8261 74.6007 21.8099V9.40995C74.5992 9.39381 74.6012 9.37752 74.6067 9.36226C74.6122 9.34699 74.621 9.33313 74.6324 9.32166C74.6439 9.3102 74.6578 9.30141 74.673 9.29592C74.6883 9.29044 74.7046 9.2884 74.7207 9.28995Z" fill="black"/>
<path d="M89.0407 9.28995H90.9207C90.9207 9.28995 91.0107 9.28995 91.0507 9.40995L91.3007 10.53C91.3095 10.5598 91.3281 10.5859 91.3535 10.604C91.3789 10.6221 91.4095 10.6312 91.4407 10.6299C91.4682 10.6323 91.4958 10.627 91.5205 10.6147C91.5452 10.6023 91.566 10.5834 91.5807 10.5599C91.9536 10.0511 92.4486 9.64419 93.02 9.37681C93.5915 9.10944 94.221 8.99015 94.8507 9.02995C95.5992 8.98909 96.3473 9.11706 97.0397 9.4044C97.7321 9.69174 98.351 10.1311 98.8507 10.69C99.8316 11.8838 100.34 13.396 100.281 14.9399V21.8099C100.281 21.8899 100.231 21.9299 100.141 21.9299H98.0207C98.0045 21.9315 97.9882 21.9295 97.973 21.924C97.9577 21.9185 97.9438 21.9097 97.9324 21.8982C97.9209 21.8868 97.9121 21.8729 97.9066 21.8576C97.9012 21.8424 97.8991 21.8261 97.9007 21.8099V14.9399C97.9285 13.9792 97.652 13.0342 97.1107 12.2399C96.8267 11.8754 96.4574 11.5863 96.0354 11.398C95.6134 11.2097 95.1517 11.1279 94.6907 11.1599C94.2148 11.1368 93.74 11.2251 93.3042 11.4178C92.8685 11.6105 92.4837 11.9023 92.1807 12.27C91.5754 13.0261 91.2567 13.9717 91.2807 14.9399V21.8099C91.2822 21.8261 91.2802 21.8424 91.2747 21.8576C91.2692 21.8729 91.2604 21.8868 91.2489 21.8982C91.2375 21.9097 91.2236 21.9185 91.2084 21.924C91.1931 21.9295 91.1768 21.9315 91.1607 21.9299H89.0407C89.0245 21.9315 89.0082 21.9295 88.993 21.924C88.9777 21.9185 88.9639 21.9097 88.9524 21.8982C88.9409 21.8868 88.9321 21.8729 88.9266 21.8576C88.9212 21.8424 88.9191 21.8261 88.9207 21.8099V9.40995C88.9191 9.39381 88.9212 9.37752 88.9266 9.36226C88.9321 9.34699 88.9409 9.33313 88.9524 9.32166C88.9639 9.3102 88.9777 9.30141 88.993 9.29592C89.0082 9.29044 89.0245 9.2884 89.0407 9.28995Z" fill="black"/>
</g>
<defs>
<clipPath id="clip0_1_421">
<rect width="99.61" height="24.73" fill="white" transform="translate(0.680664 0.72998)"/>
</clipPath>
</defs>
</svg>
