<svg width="101" height="25" viewBox="0 0 101 25" fill="none" xmlns="http://www.w3.org/2000/svg">
<g clip-path="url(#clip0_1_413)">
<path d="M13.3507 0H1.18066C1.04886 0.00256007 0.923163 0.0560606 0.829944 0.14928C0.736725 0.242499 0.683224 0.368193 0.680664 0.5V24.24C0.683224 24.3718 0.736725 24.4975 0.829944 24.5907C0.923163 24.6839 1.04886 24.7374 1.18066 24.74H13.3507C16.6314 24.74 19.7778 23.4367 22.0976 21.1169C24.4174 18.7971 25.7207 15.6507 25.7207 12.37C25.7207 9.08927 24.4174 5.94291 22.0976 3.62309C19.7778 1.30326 16.6314 4.88867e-08 13.3507 0ZM14.5407 21C12.6993 21.3169 10.8049 21.0395 9.13173 20.2079C7.45855 19.3764 6.09347 18.0339 5.23413 16.3748C4.3748 14.7158 4.06583 12.8263 4.35195 10.9799C4.63808 9.1335 5.50445 7.42612 6.82562 6.10495C8.14678 4.78378 9.85417 3.91741 11.7005 3.63129C13.5469 3.34516 15.4364 3.65414 17.0955 4.51347C18.7546 5.3728 20.0971 6.73789 20.9286 8.41107C21.7601 10.0842 22.0376 11.9787 21.7207 13.82C21.4123 15.6119 20.5564 17.2643 19.2707 18.55C17.985 19.8357 16.3326 20.6916 14.5407 21Z" fill="#0062B8"/>
<path d="M42.0807 3.6H45.3907C45.4467 3.5875 45.5047 3.5875 45.5607 3.6L51.3807 20.96C51.3807 21.1 51.3807 21.17 51.2407 21.17H48.6207C48.5707 21.17 48.5207 21.17 48.4907 21.05L47.3507 17.47H39.6507C39.6186 17.4703 39.587 17.461 39.5603 17.4431C39.5335 17.4253 39.5128 17.3998 39.5007 17.37L38.3307 20.96C38.3307 21.1 38.2707 21.17 38.2207 21.17H36.1607C36.0607 21.17 36.0107 21.12 36.0307 21.04L41.9307 3.69C41.9307 3.6 42.0107 3.56 42.0807 3.56V3.6ZM40.3607 15.38H46.5507C46.6507 15.38 46.6907 15.38 46.6507 15.25L43.7307 6.11C43.7131 6.05292 43.677 6.0033 43.6281 5.96892C43.5793 5.93454 43.5204 5.91733 43.4607 5.92C43.3307 5.92 43.2507 5.92 43.2207 6.02L40.2207 15.17C40.2207 15.31 40.2207 15.38 40.3307 15.38" fill="#1E2B3C"/>
<path d="M56.1707 3.71999V21.08C56.1722 21.0961 56.1702 21.1124 56.1647 21.1277C56.1592 21.1429 56.1504 21.1568 56.1389 21.1683C56.1275 21.1797 56.1136 21.1885 56.0983 21.194C56.0831 21.1995 56.0668 21.2015 56.0507 21.2H53.9207C53.9041 21.2014 53.8874 21.1993 53.8717 21.1939C53.8559 21.1885 53.8415 21.1799 53.8293 21.1686C53.817 21.1573 53.8073 21.1436 53.8006 21.1283C53.794 21.1131 53.7906 21.0966 53.7907 21.08V3.71999C53.7907 3.63999 53.7907 3.59999 53.9207 3.59999H56.0507C56.0668 3.59844 56.0831 3.60048 56.0983 3.60596C56.1136 3.61145 56.1275 3.62024 56.1389 3.63171C56.1504 3.64317 56.1592 3.65703 56.1647 3.6723C56.1702 3.68756 56.1722 3.70385 56.1707 3.71999Z" fill="#1E2B3C"/>
<path d="M66.2407 19.2V21.08C66.2422 21.0974 66.2399 21.115 66.2339 21.1315C66.2279 21.148 66.2184 21.1629 66.206 21.1753C66.1936 21.1877 66.1787 21.1972 66.1622 21.2032C66.1457 21.2092 66.1281 21.2115 66.1107 21.21H64.1907C62.0107 21.21 60.9107 20.27 60.9107 18.21V10.56C60.9122 10.5425 60.9099 10.525 60.9039 10.5085C60.8979 10.492 60.8884 10.4771 60.876 10.4647C60.8636 10.4523 60.8487 10.4428 60.8322 10.4368C60.8157 10.4308 60.7981 10.4285 60.7807 10.43H58.5607C58.4807 10.43 58.4407 10.43 58.4407 10.3V8.67999C58.4391 8.66385 58.4412 8.64756 58.4467 8.6323C58.4521 8.61704 58.4609 8.60318 58.4724 8.59171C58.4839 8.58024 58.4977 8.57145 58.513 8.56597C58.5283 8.56048 58.5445 8.55844 58.5607 8.55999H60.7807C60.8707 8.55999 60.9107 8.55999 60.9107 8.41999V5.05999C60.9107 4.96999 60.9107 4.92999 61.0407 4.92999H63.1607C63.2507 4.92999 63.2907 4.92999 63.2907 5.05999V8.41999C63.2878 8.43734 63.2887 8.45512 63.2934 8.47207C63.2981 8.48903 63.3065 8.50474 63.3179 8.5181C63.3294 8.53146 63.3436 8.54214 63.3596 8.54937C63.3757 8.55661 63.3931 8.56024 63.4107 8.55999H66.1107C66.1273 8.55861 66.144 8.56068 66.1597 8.56609C66.1754 8.5715 66.1899 8.58011 66.2021 8.5914C66.2143 8.60268 66.2241 8.61639 66.2307 8.63164C66.2373 8.64689 66.2407 8.66336 66.2407 8.67999V10.3C66.2407 10.39 66.2407 10.43 66.1107 10.43H63.4107C63.3307 10.43 63.2907 10.43 63.2907 10.56V17.84C63.2907 18.67 63.7407 19.08 64.6407 19.08H66.1107C66.2007 19.08 66.2407 19.08 66.2407 19.2Z" fill="#1E2B3C"/>
<path d="M71.4206 3.71999V6.34999C71.4224 6.3684 71.42 6.38697 71.4134 6.40427C71.4069 6.42157 71.3964 6.43712 71.3829 6.4497C71.3693 6.46229 71.353 6.47157 71.3353 6.47682C71.3176 6.48208 71.2989 6.48316 71.2806 6.47999H68.6206C68.5406 6.47999 68.5006 6.47999 68.5006 6.34999V3.71999C68.4991 3.70385 68.5011 3.68756 68.5066 3.6723C68.5121 3.65703 68.5209 3.64317 68.5323 3.63171C68.5438 3.62024 68.5577 3.61145 68.5729 3.60596C68.5882 3.60048 68.6045 3.59844 68.6206 3.59999H71.2406C71.3306 3.59999 71.3806 3.59999 71.3806 3.71999H71.4206ZM71.1206 8.71999V21.12C71.1222 21.1361 71.1201 21.1524 71.1147 21.1677C71.1092 21.1829 71.1004 21.1968 71.0889 21.2083C71.0774 21.2197 71.0636 21.2285 71.0483 21.234C71.0331 21.2395 71.0168 21.2415 71.0006 21.24H68.9006C68.8845 21.2415 68.8682 21.2395 68.8529 21.234C68.8377 21.2285 68.8238 21.2197 68.8123 21.2083C68.8009 21.1968 68.7921 21.1829 68.7866 21.1677C68.7811 21.1524 68.7791 21.1361 68.7806 21.12V8.67999C68.7791 8.66385 68.7811 8.64756 68.7866 8.6323C68.7921 8.61703 68.8009 8.60317 68.8123 8.59171C68.8238 8.58024 68.8377 8.57145 68.8529 8.56596C68.8682 8.56048 68.8845 8.55844 68.9006 8.55999H71.0406C71.0568 8.55844 71.0731 8.56048 71.0883 8.56596C71.1036 8.57145 71.1174 8.58024 71.1289 8.59171C71.1404 8.60317 71.1492 8.61703 71.1547 8.6323C71.1601 8.64756 71.1622 8.66385 71.1606 8.67999" fill="#1E2B3C"/>
<path d="M74.7207 8.55997H76.6207C76.6207 8.55997 76.7107 8.55997 76.7507 8.67997L77.0007 9.79997C77.0096 9.82984 77.0282 9.8559 77.0535 9.87401C77.0789 9.89212 77.1096 9.90126 77.1407 9.89997C77.1682 9.90232 77.1959 9.89703 77.2206 9.88468C77.2453 9.87233 77.2661 9.85339 77.2807 9.82997C77.6536 9.32108 78.1486 8.91421 78.7201 8.64683C79.2915 8.37946 79.9211 8.26017 80.5507 8.29997C81.2992 8.25911 82.0474 8.38708 82.7398 8.67442C83.4322 8.96176 84.0511 9.40112 84.5507 9.95997C85.5317 11.1538 86.0405 12.666 85.9807 14.21V21.08C85.9807 21.16 85.9807 21.2 85.8507 21.2H83.7207C83.7046 21.2015 83.6883 21.1995 83.673 21.194C83.6578 21.1885 83.6439 21.1797 83.6324 21.1683C83.621 21.1568 83.6122 21.1429 83.6067 21.1277C83.6012 21.1124 83.5992 21.0961 83.6007 21.08V14.21C83.6285 13.2492 83.352 12.3042 82.8107 11.51C82.5267 11.1455 82.1575 10.8563 81.7355 10.668C81.3135 10.4797 80.8517 10.3979 80.3907 10.43C79.9149 10.4076 79.4404 10.4962 79.0048 10.6889C78.5691 10.8815 78.1843 11.1729 77.8807 11.54C77.2755 12.2961 76.9567 13.2417 76.9807 14.21V21.08C76.9823 21.0961 76.9802 21.1124 76.9747 21.1277C76.9693 21.1429 76.9605 21.1568 76.949 21.1683C76.9375 21.1797 76.9237 21.1885 76.9084 21.194C76.8931 21.1995 76.8769 21.2015 76.8607 21.2H74.7207C74.7046 21.2015 74.6883 21.1995 74.673 21.194C74.6578 21.1885 74.6439 21.1797 74.6324 21.1683C74.621 21.1568 74.6122 21.1429 74.6067 21.1277C74.6012 21.1124 74.5992 21.0961 74.6007 21.08V8.67997C74.5992 8.66383 74.6012 8.64754 74.6067 8.63228C74.6122 8.61701 74.621 8.60315 74.6324 8.59168C74.6439 8.58022 74.6578 8.57143 74.673 8.56594C74.6883 8.56046 74.7046 8.55842 74.7207 8.55997Z" fill="#1E2B3C"/>
<path d="M89.0407 8.55997H90.9207C90.9207 8.55997 91.0107 8.55997 91.0507 8.67997L91.3007 9.79997C91.3095 9.82984 91.3281 9.8559 91.3535 9.87401C91.3789 9.89212 91.4095 9.90126 91.4407 9.89997C91.4682 9.90232 91.4958 9.89703 91.5205 9.88468C91.5452 9.87233 91.566 9.85339 91.5807 9.82997C91.9536 9.32108 92.4486 8.91421 93.02 8.64683C93.5915 8.37946 94.221 8.26017 94.8507 8.29997C95.5992 8.25911 96.3473 8.38708 97.0397 8.67442C97.7321 8.96176 98.351 9.40112 98.8507 9.95997C99.8316 11.1538 100.34 12.666 100.281 14.21V21.08C100.281 21.16 100.231 21.2 100.141 21.2H98.0207C98.0045 21.2015 97.9882 21.1995 97.973 21.194C97.9577 21.1885 97.9438 21.1797 97.9324 21.1683C97.9209 21.1568 97.9121 21.1429 97.9066 21.1277C97.9012 21.1124 97.8991 21.0961 97.9007 21.08V14.21C97.9285 13.2492 97.652 12.3042 97.1107 11.51C96.8267 11.1455 96.4574 10.8563 96.0354 10.668C95.6134 10.4797 95.1517 10.3979 94.6907 10.43C94.2148 10.4068 93.74 10.4951 93.3042 10.6878C92.8685 10.8805 92.4837 11.1723 92.1807 11.54C91.5754 12.2961 91.2567 13.2417 91.2807 14.21V21.08C91.2822 21.0961 91.2802 21.1124 91.2747 21.1277C91.2692 21.1429 91.2604 21.1568 91.2489 21.1683C91.2375 21.1797 91.2236 21.1885 91.2084 21.194C91.1931 21.1995 91.1768 21.2015 91.1607 21.2H89.0407C89.0245 21.2015 89.0082 21.1995 88.993 21.194C88.9777 21.1885 88.9639 21.1797 88.9524 21.1683C88.9409 21.1568 88.9321 21.1429 88.9266 21.1277C88.9212 21.1124 88.9191 21.0961 88.9207 21.08V8.67997C88.9191 8.66383 88.9212 8.64754 88.9266 8.63228C88.9321 8.61701 88.9409 8.60315 88.9524 8.59168C88.9639 8.58022 88.9777 8.57143 88.993 8.56594C89.0082 8.56046 89.0245 8.55842 89.0407 8.55997Z" fill="#1E2B3C"/>
</g>
<defs>
<clipPath id="clip0_1_413">
<rect width="99.61" height="24.73" fill="white" transform="translate(0.680664)"/>
</clipPath>
</defs>
</svg>
