<svg width="189" height="27" viewBox="0 0 189 27" fill="none" xmlns="http://www.w3.org/2000/svg">
<g clip-path="url(#clip0_1_1322)">
<path d="M12.67 0H0.5C0.368193 0.00256007 0.242499 0.0560606 0.14928 0.14928C0.0560606 0.242499 0.00256007 0.368193 0 0.5V24.24C0.00256007 24.3718 0.0560606 24.4975 0.14928 24.5907C0.242499 24.6839 0.368193 24.7374 0.5 24.74H12.67C15.9507 24.74 19.0971 23.4367 21.4169 21.1169C23.7367 18.7971 25.04 15.6507 25.04 12.37C25.04 9.08927 23.7367 5.94291 21.4169 3.62309C19.0971 1.30326 15.9507 4.88867e-08 12.67 0ZM13.86 21C12.0187 21.3169 10.1242 21.0395 8.45107 20.2079C6.77789 19.3764 5.4128 18.0339 4.55347 16.3748C3.69414 14.7158 3.38516 12.8263 3.67129 10.9799C3.95741 9.1335 4.82378 7.42612 6.14495 6.10495C7.46612 4.78378 9.1735 3.91741 11.0199 3.63129C12.8663 3.34516 14.7558 3.65414 16.4148 4.51347C18.0739 5.3728 19.4164 6.73789 20.2479 8.41107C21.0795 10.0842 21.3569 11.9787 21.04 13.82C20.7316 15.6119 19.8757 17.2643 18.59 18.55C17.3043 19.8357 15.6519 20.6916 13.86 21Z" fill="#0062B8"/>
<path d="M41.448 2.69598C41.37 2.69598 41.318 2.74798 41.292 2.82598L35.156 20.87C35.13 20.974 35.234 21 35.312 21H37.73C37.808 21 37.834 20.948 37.86 20.87L39.082 17.152C39.108 17.074 39.16 17.022 39.238 17.022H46.778C46.856 17.022 46.934 17.048 46.96 17.152L48.156 20.87C48.182 20.948 48.208 21 48.286 21H50.73C50.808 21 50.886 20.948 50.86 20.87L44.802 2.82598C44.776 2.74798 44.724 2.69598 44.646 2.69598H41.448ZM39.94 14.942C39.862 14.942 39.81 14.89 39.836 14.812L42.904 5.29598C42.956 5.13998 43.112 5.13998 43.164 5.29598L46.206 14.812C46.232 14.89 46.18 14.942 46.102 14.942H39.94Z" fill="#1E2B3C"/>
<path d="M53.0755 7.84398C52.9975 7.84398 52.9455 7.89599 52.9455 7.97398V20.87C52.9455 20.948 52.9975 21 53.0755 21H55.2855C55.3635 21 55.4155 20.948 55.4155 20.87V13.72C55.4155 11.692 56.6635 9.79398 58.8475 9.79398C61.4215 9.79398 62.3055 11.744 62.3055 13.72V20.87C62.3055 20.948 62.3575 21 62.4355 21H64.6455C64.7235 21 64.7755 20.948 64.7755 20.87V13.72C64.7755 10.34 62.8775 7.58398 59.1075 7.58398C57.3655 7.58398 56.2215 8.38999 55.7015 9.16999C55.6495 9.24798 55.4415 9.29998 55.4155 9.14398L55.1555 7.97398C55.1295 7.89599 55.1035 7.84398 55.0255 7.84398H53.0755Z" fill="#1E2B3C"/>
<path d="M78.3924 12.29C78.4704 12.29 78.4964 12.238 78.4964 12.16C78.4964 9.09198 75.9744 7.58398 72.7764 7.58398C69.5524 7.58398 67.4984 9.32598 67.4984 11.458C67.4984 14.682 70.6444 15.072 73.1404 15.358C74.2324 15.488 76.3904 15.592 76.3904 17.074C76.3904 18.764 74.4664 19.05 73.1404 19.05C71.0604 19.05 69.7344 17.984 69.7344 16.684C69.7344 16.606 69.6564 16.554 69.5784 16.554H67.3944C67.3164 16.554 67.2644 16.606 67.2644 16.684C67.2644 19.18 69.1884 21.26 73.1404 21.26C76.3904 21.26 78.8604 20.038 78.8604 17.074C78.8604 13.746 75.7404 13.512 73.1404 13.148C71.8404 12.966 69.9684 12.94 69.9684 11.458C69.9684 10.652 70.8264 9.79398 72.7764 9.79398C74.8824 9.79398 76.0264 10.73 76.0264 12.16C76.0264 12.238 76.0784 12.29 76.1564 12.29H78.3924Z" fill="#1E2B3C"/>
<path d="M94.4754 18.92C94.4754 18.842 94.4234 18.79 94.3454 18.79H93.5914C93.0454 18.79 92.7334 18.322 92.7334 17.932V12.29C92.7334 9.11799 90.4974 7.58398 86.9094 7.58398C83.9714 7.58398 81.1894 9.09198 81.1894 12.16C81.1894 12.238 81.2414 12.29 81.3194 12.29H83.5294C83.6074 12.29 83.6594 12.238 83.6594 12.16C83.6594 10.834 84.6734 9.79398 86.9094 9.79398C90.0034 9.79398 90.2634 11.224 90.2634 12.29C90.2634 12.654 89.9774 13.148 89.4054 13.148H86.4934C82.6714 13.148 80.7734 14.838 80.7734 17.1C80.7734 19.57 82.4894 21.26 85.9734 21.26C88.3654 21.26 89.9774 20.402 90.6014 19.752C90.6534 19.7 90.7834 19.674 90.8354 19.804C91.2254 20.636 92.1094 21 93.5914 21H94.3454C94.4234 21 94.4754 20.948 94.4754 20.87V18.92ZM90.2634 15.592C90.2114 17.178 89.1194 19.05 85.9734 19.05C83.8934 19.05 83.2434 18.036 83.2434 17.1C83.2434 16.19 83.7374 15.098 86.4934 15.098H90.1334C90.2114 15.098 90.2634 15.15 90.2634 15.228V15.592Z" fill="#1E2B3C"/>
<path d="M102.774 18.92C102.774 18.842 102.722 18.79 102.644 18.79H101.11C100.07 18.79 99.7065 18.296 99.7065 17.49V9.92398C99.7065 9.84598 99.7585 9.79398 99.8365 9.79398H102.644C102.722 9.79398 102.774 9.74198 102.774 9.66398V7.97398C102.774 7.89599 102.722 7.84398 102.644 7.84398H99.8365C99.7585 7.84398 99.7065 7.79198 99.7065 7.71398V4.20398C99.7065 4.12598 99.6545 4.07398 99.5765 4.07398H97.3665C97.2885 4.07398 97.2365 4.12598 97.2365 4.20398V7.71398C97.2365 7.79198 97.1845 7.84398 97.1065 7.84398H94.7925C94.7145 7.84398 94.6625 7.89599 94.6625 7.97398V9.66398C94.6625 9.74198 94.7145 9.79398 94.7925 9.79398H97.1065C97.1845 9.79398 97.2365 9.84598 97.2365 9.92398V17.932C97.2365 20.064 98.4845 21 100.642 21H102.644C102.722 21 102.774 20.948 102.774 20.87V18.92Z" fill="#1E2B3C"/>
<path d="M111.433 18.92C111.433 18.842 111.381 18.79 111.303 18.79H109.769C108.729 18.79 108.365 18.296 108.365 17.49V9.92398C108.365 9.84598 108.417 9.79398 108.495 9.79398H111.303C111.381 9.79398 111.433 9.74198 111.433 9.66398V7.97398C111.433 7.89599 111.381 7.84398 111.303 7.84398H108.495C108.417 7.84398 108.365 7.79198 108.365 7.71398V4.20398C108.365 4.12598 108.313 4.07398 108.235 4.07398H106.025C105.947 4.07398 105.895 4.12598 105.895 4.20398V7.71398C105.895 7.79198 105.843 7.84398 105.765 7.84398H103.451C103.373 7.84398 103.321 7.89599 103.321 7.97398V9.66398C103.321 9.74198 103.373 9.79398 103.451 9.79398H105.765C105.843 9.79398 105.895 9.84598 105.895 9.92398V17.932C105.895 20.064 107.143 21 109.301 21H111.303C111.381 21 111.433 20.948 111.433 20.87V18.92Z" fill="#1E2B3C"/>
<path d="M114.267 7.84398C114.189 7.84398 114.137 7.89599 114.137 7.97398V26.018C114.137 26.096 114.189 26.148 114.267 26.148H116.477C116.555 26.148 116.607 26.096 116.607 26.018V19.83C116.607 19.726 116.737 19.622 116.867 19.778C117.179 20.142 118.765 21.26 120.585 21.26C124.381 21.26 126.773 18.478 126.773 14.422C126.773 10.366 124.381 7.58398 120.585 7.58398C119.285 7.58398 117.543 8.31198 116.867 9.06598C116.815 9.14398 116.659 9.19598 116.607 9.03999L116.347 7.97398C116.321 7.89599 116.295 7.84398 116.217 7.84398H114.267ZM124.303 14.422C124.303 17.126 122.821 19.05 120.325 19.05C117.959 19.05 116.607 17.126 116.607 14.422C116.607 11.718 117.959 9.79398 120.325 9.79398C122.821 9.79398 124.303 11.718 124.303 14.422Z" fill="#1E2B3C"/>
<path d="M141.533 14.422C141.533 10.366 139.141 7.58398 135.085 7.58398C131.003 7.58398 128.637 10.34 128.637 14.422C128.637 18.478 131.003 21.26 135.085 21.26C139.141 21.26 141.533 18.478 141.533 14.422ZM139.063 14.422C139.063 17.126 137.581 19.05 135.085 19.05C132.615 19.05 131.107 17.126 131.107 14.422C131.107 11.718 132.615 9.79398 135.085 9.79398C137.581 9.79398 139.063 11.718 139.063 14.422Z" fill="#1E2B3C"/>
<path d="M151.631 9.79398C151.709 9.79398 151.76 9.74198 151.76 9.66398V7.71398C151.76 7.63598 151.709 7.58398 151.631 7.58398H150.305C149.005 7.58398 148.043 8.28598 147.159 9.16999C147.08 9.24798 146.924 9.29998 146.872 9.14398L146.613 7.97398C146.587 7.89599 146.561 7.84398 146.482 7.84398H144.533C144.454 7.84398 144.403 7.89599 144.403 7.97398V20.87C144.403 20.948 144.454 21 144.533 21H146.743C146.821 21 146.872 20.948 146.872 20.87V13.72C146.872 11.692 148.121 9.79398 150.305 9.79398H151.631Z" fill="#1E2B3C"/>
<path d="M160.665 18.92C160.665 18.842 160.613 18.79 160.535 18.79H159.001C157.961 18.79 157.597 18.296 157.597 17.49V9.92398C157.597 9.84598 157.649 9.79398 157.727 9.79398H160.535C160.613 9.79398 160.665 9.74198 160.665 9.66398V7.97398C160.665 7.89599 160.613 7.84398 160.535 7.84398H157.727C157.649 7.84398 157.597 7.79198 157.597 7.71398V4.20398C157.597 4.12598 157.545 4.07398 157.467 4.07398H155.257C155.179 4.07398 155.127 4.12598 155.127 4.20398V7.71398C155.127 7.79198 155.075 7.84398 154.997 7.84398H152.683C152.605 7.84398 152.553 7.89599 152.553 7.97398V9.66398C152.553 9.74198 152.605 9.79398 152.683 9.79398H154.997C155.075 9.79398 155.127 9.84598 155.127 9.92398V17.932C155.127 20.064 156.375 21 158.533 21H160.535C160.613 21 160.665 20.948 160.665 20.87V18.92Z" fill="#1E2B3C"/>
<path d="M174.555 15.306C174.633 15.306 174.659 15.254 174.685 15.176C174.737 14.968 174.815 14.682 174.815 14.422C174.815 10.366 172.527 7.58398 168.471 7.58398C164.441 7.58398 162.153 10.34 162.153 14.422C162.153 18.478 164.571 21.26 168.471 21.26C171.409 21.26 173.723 19.778 174.399 17.23C174.425 17.126 174.347 17.1 174.269 17.1H171.955C171.877 17.1 171.825 17.126 171.773 17.23C171.227 18.27 170.317 19.05 168.471 19.05C166.157 19.05 164.779 17.334 164.779 15.436C164.779 15.358 164.831 15.306 164.909 15.306H174.555ZM172.111 13.226C172.111 13.304 172.059 13.356 171.981 13.356H164.909C164.857 13.356 164.779 13.304 164.779 13.226C164.779 12.004 165.949 9.79398 168.471 9.79398C171.045 9.79398 172.111 11.744 172.111 13.226Z" fill="#1E2B3C"/>
<path d="M177.769 7.84398C177.691 7.84398 177.639 7.89599 177.639 7.97398V20.87C177.639 20.948 177.691 21 177.769 21H179.979C180.057 21 180.109 20.948 180.109 20.87V13.72C180.109 11.692 181.357 9.79398 183.541 9.79398C186.115 9.79398 186.999 11.744 186.999 13.72V20.87C186.999 20.948 187.051 21 187.129 21H189.339C189.417 21 189.469 20.948 189.469 20.87V13.72C189.469 10.34 187.571 7.58398 183.801 7.58398C182.059 7.58398 180.915 8.38999 180.395 9.16999C180.343 9.24798 180.135 9.29998 180.109 9.14398L179.849 7.97398C179.823 7.89599 179.797 7.84398 179.719 7.84398H177.769Z" fill="#1E2B3C"/>
</g>
<defs>
<clipPath id="clip0_1_1322">
<rect width="189" height="27" fill="white"/>
</clipPath>
</defs>
</svg>
