<svg width="240" height="27" viewBox="0 0 240 27" fill="none" xmlns="http://www.w3.org/2000/svg">
<g clip-path="url(#clip0_1_1332)">
<path d="M12.67 0H0.5C0.368193 0.00256007 0.242499 0.0560606 0.14928 0.14928C0.0560606 0.242499 0.00256007 0.368193 0 0.5V24.24C0.00256007 24.3718 0.0560606 24.4975 0.14928 24.5907C0.242499 24.6839 0.368193 24.7374 0.5 24.74H12.67C15.9507 24.74 19.0971 23.4367 21.4169 21.1169C23.7367 18.7971 25.04 15.6507 25.04 12.37C25.04 9.08927 23.7367 5.94291 21.4169 3.62309C19.0971 1.30326 15.9507 4.88867e-08 12.67 0ZM13.86 21C12.0187 21.3169 10.1242 21.0395 8.45107 20.2079C6.77789 19.3764 5.4128 18.0339 4.55347 16.3748C3.69414 14.7158 3.38516 12.8263 3.67129 10.9799C3.95741 9.1335 4.82378 7.42612 6.14495 6.10495C7.46612 4.78378 9.1735 3.91741 11.0199 3.63129C12.8663 3.34516 14.7558 3.65414 16.4148 4.51347C18.0739 5.3728 19.4164 6.73789 20.2479 8.41107C21.0795 10.0842 21.3569 11.9787 21.04 13.82C20.7316 15.6119 19.8757 17.2643 18.59 18.55C17.3043 19.8357 15.6519 20.6916 13.86 21Z" fill="white"/>
<path d="M49.04 15.41C48.624 16.788 47.272 19.05 44.152 19.05C40.512 19.05 38.536 16.346 38.536 11.848C38.536 7.35001 40.512 4.64601 44.152 4.64601C47.584 4.64601 48.65 7.16801 49.04 8.28601C49.066 8.364 49.144 8.41601 49.222 8.41601H51.51C51.588 8.41601 51.64 8.39001 51.64 8.28601C51.64 6.856 49.82 2.436 44.152 2.436C38.952 2.436 35.936 6.33601 35.936 11.848C35.936 17.36 38.432 21.26 44.152 21.26C49.586 21.26 51.64 17.126 51.64 15.41C51.64 15.306 51.588 15.28 51.51 15.28H49.222C49.144 15.28 49.066 15.306 49.04 15.41Z" fill="white"/>
<path d="M66.4277 14.422C66.4277 10.366 64.0357 7.584 59.9797 7.584C55.8977 7.584 53.5317 10.34 53.5317 14.422C53.5317 18.478 55.8977 21.26 59.9797 21.26C64.0357 21.26 66.4277 18.478 66.4277 14.422ZM63.9577 14.422C63.9577 17.126 62.4757 19.05 59.9797 19.05C57.5097 19.05 56.0017 17.126 56.0017 14.422C56.0017 11.718 57.5097 9.79401 59.9797 9.79401C62.4757 9.79401 63.9577 11.718 63.9577 14.422Z" fill="white"/>
<path d="M69.427 7.844C69.349 7.844 69.297 7.89601 69.297 7.974V20.87C69.297 20.948 69.349 21 69.427 21H71.637C71.715 21 71.767 20.948 71.767 20.87V13.72C71.767 11.692 73.015 9.79401 75.199 9.79401C77.773 9.79401 78.657 11.744 78.657 13.72V20.87C78.657 20.948 78.709 21 78.787 21H80.997C81.075 21 81.127 20.948 81.127 20.87V13.72C81.127 10.34 79.229 7.584 75.459 7.584C73.717 7.584 72.573 8.39001 72.053 9.17001C72.001 9.24801 71.793 9.3 71.767 9.144L71.507 7.974C71.481 7.89601 71.455 7.844 71.377 7.844H69.427Z" fill="white"/>
<path d="M84.8899 7.844C84.8119 7.844 84.7599 7.89601 84.7599 7.974V20.87C84.7599 20.948 84.8119 21 84.8899 21H87.0999C87.1779 21 87.2299 20.948 87.2299 20.87V13.72C87.2299 11.692 88.4779 9.79401 90.6619 9.79401C93.2359 9.79401 94.1199 11.744 94.1199 13.72V20.87C94.1199 20.948 94.1719 21 94.2499 21H96.4599C96.5379 21 96.5899 20.948 96.5899 20.87V13.72C96.5899 10.34 94.6919 7.584 90.9219 7.584C89.1799 7.584 88.0359 8.39001 87.5159 9.17001C87.4639 9.24801 87.2559 9.3 87.2299 9.144L86.9699 7.974C86.9439 7.89601 86.9179 7.844 86.8399 7.844H84.8899Z" fill="white"/>
<path d="M111.637 15.306C111.715 15.306 111.741 15.254 111.767 15.176C111.819 14.968 111.897 14.682 111.897 14.422C111.897 10.366 109.609 7.584 105.553 7.584C101.523 7.584 99.2348 10.34 99.2348 14.422C99.2348 18.478 101.653 21.26 105.553 21.26C108.491 21.26 110.805 19.778 111.481 17.23C111.507 17.126 111.429 17.1 111.351 17.1H109.037C108.959 17.1 108.907 17.126 108.855 17.23C108.309 18.27 107.399 19.05 105.553 19.05C103.239 19.05 101.861 17.334 101.861 15.436C101.861 15.358 101.913 15.306 101.991 15.306H111.637ZM109.193 13.226C109.193 13.304 109.141 13.356 109.063 13.356H101.991C101.939 13.356 101.861 13.304 101.861 13.226C101.861 12.004 103.031 9.79401 105.553 9.79401C108.127 9.79401 109.193 11.744 109.193 13.226Z" fill="white"/>
<path d="M126.213 12.29C126.291 12.29 126.369 12.264 126.343 12.16C125.641 9.3 123.457 7.584 120.155 7.584C116.073 7.584 113.733 10.34 113.733 14.422C113.733 18.478 116.073 21.26 120.155 21.26C123.457 21.26 125.615 19.57 126.343 16.684C126.369 16.58 126.291 16.554 126.213 16.554H123.899C123.821 16.554 123.769 16.606 123.743 16.684C123.171 18.218 121.923 19.05 120.155 19.05C117.685 19.05 116.203 17.126 116.203 14.422C116.203 11.718 117.685 9.79401 120.155 9.79401C121.923 9.79401 123.171 10.626 123.743 12.16C123.769 12.238 123.821 12.29 123.899 12.29H126.213Z" fill="white"/>
<path d="M135.249 18.92C135.249 18.842 135.197 18.79 135.119 18.79H133.585C132.545 18.79 132.181 18.296 132.181 17.49V9.924C132.181 9.846 132.233 9.79401 132.311 9.79401H135.119C135.197 9.79401 135.249 9.742 135.249 9.66401V7.974C135.249 7.89601 135.197 7.844 135.119 7.844H132.311C132.233 7.844 132.181 7.79201 132.181 7.714V4.20401C132.181 4.126 132.129 4.07401 132.051 4.07401H129.841C129.763 4.07401 129.711 4.126 129.711 4.20401V7.714C129.711 7.79201 129.659 7.844 129.581 7.844H127.267C127.189 7.844 127.137 7.89601 127.137 7.974V9.66401C127.137 9.742 127.189 9.79401 127.267 9.79401H129.581C129.659 9.79401 129.711 9.846 129.711 9.924V17.932C129.711 20.064 130.959 21 133.117 21H135.119C135.197 21 135.249 20.948 135.249 20.87V18.92Z" fill="white"/>
<path d="M137.187 20.87C137.187 20.948 137.239 21 137.317 21H149.069C149.147 21 149.199 20.948 149.199 20.87V18.92C149.199 18.842 149.147 18.79 149.069 18.79H140.697C140.541 18.79 140.541 18.634 140.593 18.582L146.313 13.564C147.275 12.706 149.199 10.86 149.199 8.20801C149.199 5.192 147.015 2.696 143.271 2.696C139.943 2.696 137.499 4.854 137.499 7.974C137.499 8.05201 137.551 8.10401 137.629 8.10401H139.839C139.917 8.10401 139.969 8.05201 139.969 7.974C139.969 6.38801 141.295 4.90601 143.271 4.90601C145.715 4.90601 146.703 6.856 146.729 8.20801C146.755 9.82001 145.091 11.38 144.519 11.926L137.291 18.712C137.213 18.79 137.187 18.972 137.187 19.05V20.87Z" fill="white"/>
<path d="M164.677 2.696C164.599 2.696 164.547 2.74801 164.547 2.826V18.4C164.547 18.556 164.365 18.582 164.287 18.426L156.409 2.826C156.357 2.72201 156.305 2.696 156.227 2.696H152.379C152.301 2.696 152.249 2.74801 152.249 2.826V20.87C152.249 20.948 152.301 21 152.379 21H154.589C154.667 21 154.719 20.948 154.719 20.87V5.296C154.719 5.14001 154.927 5.14001 154.979 5.24401L162.857 20.87C162.909 20.948 162.987 21 163.065 21H166.887C166.965 21 167.017 20.948 167.017 20.87V2.826C167.017 2.74801 166.965 2.696 166.887 2.696H164.677Z" fill="white"/>
<path d="M182.793 14.422C182.793 10.366 180.401 7.584 176.345 7.584C172.263 7.584 169.897 10.34 169.897 14.422C169.897 18.478 172.263 21.26 176.345 21.26C180.401 21.26 182.793 18.478 182.793 14.422ZM180.323 14.422C180.323 17.126 178.841 19.05 176.345 19.05C173.875 19.05 172.367 17.126 172.367 14.422C172.367 11.718 173.875 9.79401 176.345 9.79401C178.841 9.79401 180.323 11.718 180.323 14.422Z" fill="white"/>
<path d="M192.89 9.79401C192.968 9.79401 193.02 9.742 193.02 9.66401V7.714C193.02 7.63601 192.968 7.584 192.89 7.584H191.564C190.264 7.584 189.302 8.28601 188.418 9.17001C188.34 9.24801 188.184 9.3 188.132 9.144L187.872 7.974C187.846 7.89601 187.82 7.844 187.742 7.844H185.792C185.714 7.844 185.662 7.89601 185.662 7.974V20.87C185.662 20.948 185.714 21 185.792 21H188.002C188.08 21 188.132 20.948 188.132 20.87V13.72C188.132 11.692 189.38 9.79401 191.564 9.79401H192.89Z" fill="white"/>
<path d="M209.037 21C209.115 21 209.167 20.948 209.193 20.87L212.287 7.974C212.313 7.87001 212.209 7.844 212.131 7.844H209.921C209.843 7.844 209.817 7.89601 209.791 7.974L207.529 18.426C207.503 18.556 207.295 18.556 207.269 18.426L204.695 7.974C204.669 7.89601 204.643 7.844 204.565 7.844H201.367C201.289 7.844 201.263 7.89601 201.237 7.974L198.663 18.426C198.637 18.556 198.429 18.556 198.403 18.426L196.141 7.974C196.115 7.89601 196.089 7.844 196.011 7.844H193.801C193.723 7.844 193.619 7.87001 193.645 7.974L196.739 20.87C196.765 20.948 196.817 21 196.895 21H200.197C200.275 21 200.301 20.948 200.327 20.87L202.823 10.496C202.849 10.366 203.057 10.366 203.083 10.496L205.605 20.87C205.631 20.948 205.657 21 205.735 21H209.037Z" fill="white"/>
<path d="M227.014 18.92C227.014 18.842 226.962 18.79 226.884 18.79H226.13C225.584 18.79 225.272 18.322 225.272 17.932V12.29C225.272 9.11801 223.036 7.584 219.448 7.584C216.51 7.584 213.728 9.092 213.728 12.16C213.728 12.238 213.78 12.29 213.858 12.29H216.068C216.146 12.29 216.198 12.238 216.198 12.16C216.198 10.834 217.212 9.79401 219.448 9.79401C222.542 9.79401 222.802 11.224 222.802 12.29C222.802 12.654 222.516 13.148 221.944 13.148H219.032C215.21 13.148 213.312 14.838 213.312 17.1C213.312 19.57 215.028 21.26 218.512 21.26C220.904 21.26 222.516 20.402 223.14 19.752C223.192 19.7 223.322 19.674 223.374 19.804C223.764 20.636 224.648 21 226.13 21H226.884C226.962 21 227.014 20.948 227.014 20.87V18.92ZM222.802 15.592C222.75 17.178 221.658 19.05 218.512 19.05C216.432 19.05 215.782 18.036 215.782 17.1C215.782 16.19 216.276 15.098 219.032 15.098H222.672C222.75 15.098 222.802 15.15 222.802 15.228V15.592Z" fill="white"/>
<path d="M227.154 26.018C227.154 26.096 227.206 26.148 227.284 26.148H230.664C232.77 26.148 233.576 25.368 234.304 23.262L239.504 7.974C239.53 7.89601 239.452 7.844 239.374 7.844H237.008C236.93 7.844 236.904 7.89601 236.878 7.974L233.446 18.426C233.394 18.556 233.238 18.556 233.186 18.426L229.78 7.974C229.754 7.89601 229.728 7.844 229.65 7.844H227.284C227.206 7.844 227.102 7.87001 227.128 7.974L231.756 21.572C232.224 22.95 231.756 23.938 230.222 23.938H227.284C227.206 23.938 227.154 23.99 227.154 24.068V26.018Z" fill="white"/>
</g>
<defs>
<clipPath id="clip0_1_1332">
<rect width="240" height="27" fill="white"/>
</clipPath>
</defs>
</svg>
