<svg width="101" height="28" viewBox="0 0 101 28" fill="none" xmlns="http://www.w3.org/2000/svg">
<g clip-path="url(#clip0_1_108)">
<path d="M34.7455 4.46348C34.7455 4.38469 34.7455 4.3453 34.8735 4.3453H41.1765C42.2471 4.28588 43.3169 4.47449 44.3026 4.89643C45.2882 5.31838 46.1631 5.96225 46.8591 6.77787C48.2478 8.62135 48.9449 10.894 48.8288 13.1991C48.963 15.4519 48.2617 17.675 46.8591 19.443C46.1373 20.2175 45.2516 20.8209 44.2668 21.2094C43.282 21.5979 42.2228 21.7616 41.1667 21.6885H34.8636C34.8465 21.69 34.8291 21.6877 34.8129 21.6818C34.7967 21.6759 34.782 21.6665 34.7698 21.6543C34.7576 21.6421 34.7482 21.6274 34.7423 21.6112C34.7364 21.5949 34.7341 21.5776 34.7356 21.5604L34.7455 4.46348ZM41.2258 6.43318H37.2174C37.1288 6.43318 37.0894 6.43318 37.0894 6.56121V19.4529C37.0894 19.5317 37.0894 19.5711 37.2174 19.5711H41.2258C41.9539 19.6127 42.6818 19.4859 43.3531 19.2007C44.0243 18.9155 44.6208 18.4794 45.0962 17.9264C46.0986 16.5548 46.5867 14.8745 46.475 13.1794C46.5625 11.4289 46.071 9.69836 45.0765 8.25515C44.6298 7.66281 44.046 7.18762 43.3754 6.8703C42.7047 6.55297 41.9671 6.40298 41.2258 6.43318Z" fill="black"/>
<path d="M54.5015 4.4634V7.05356C54.503 7.07075 54.5007 7.08806 54.4948 7.10427C54.4889 7.12049 54.4796 7.13522 54.4674 7.14742C54.4552 7.15962 54.4404 7.16901 54.4242 7.17491C54.408 7.18081 54.3907 7.18309 54.3735 7.18159H51.7833C51.7046 7.18159 51.6652 7.18159 51.6652 7.05356V4.4634C51.6636 4.4475 51.6657 4.43146 51.6711 4.41643C51.6765 4.4014 51.6851 4.38775 51.6964 4.37646C51.7077 4.36516 51.7213 4.35651 51.7364 4.35111C51.7514 4.34571 51.7674 4.3437 51.7833 4.34522H54.3735C54.4523 4.34522 54.5015 4.34522 54.5015 4.4634ZM54.2455 9.38765V21.5998C54.247 21.6157 54.245 21.6317 54.2396 21.6467C54.2342 21.6618 54.2255 21.6754 54.2142 21.6867C54.2029 21.698 54.1893 21.7067 54.1742 21.7121C54.1592 21.7175 54.1432 21.7195 54.1273 21.7179H52.0296C51.9409 21.7179 51.9015 21.7179 51.9015 21.5998V9.34825C51.9015 9.26946 51.9015 9.23007 52.0296 9.23007H54.1076C54.1235 9.22855 54.1395 9.23055 54.1546 9.23595C54.1696 9.24135 54.1832 9.25001 54.1945 9.2613C54.2058 9.2726 54.2145 9.28625 54.2199 9.30128C54.2253 9.31631 54.2273 9.33235 54.2258 9.34825" fill="black"/>
<path d="M63.0795 24.7119C63.5668 24.7578 64.0581 24.6931 64.5168 24.5226C64.9755 24.352 65.3898 24.0801 65.7288 23.7271C66.3028 23.0299 66.6038 22.1479 66.5757 21.2453V20.5854C66.5757 20.5362 66.5757 20.5066 66.4871 20.4771C66.458 20.4681 66.4268 20.4691 66.3983 20.4798C66.3698 20.4905 66.3456 20.5103 66.3295 20.5362C65.9561 20.9365 65.4987 21.2493 64.9901 21.4521C64.3142 21.7894 63.569 21.9648 62.8136 21.9642C62.0255 21.9853 61.2423 21.8351 60.5179 21.524C59.7935 21.2128 59.1454 20.7481 58.6182 20.1619C57.477 18.87 56.8805 17.1864 56.9538 15.4642C56.875 13.7669 57.4415 12.1026 58.5394 10.8059C59.0759 10.2135 59.7358 9.74599 60.4726 9.4363C61.2094 9.12661 62.0052 8.98226 62.8038 9.01344C63.4819 9.02278 64.1514 9.16673 64.7735 9.43692C65.365 9.6508 65.9052 9.98629 66.3591 10.4218C66.4773 10.5301 66.556 10.5203 66.6053 10.4218L66.8515 9.43692C66.8515 9.35813 66.9303 9.31874 66.9697 9.31874H68.8212C68.9098 9.31874 68.9492 9.31874 68.9492 9.43692V21.2551C68.9766 22.0036 68.8471 22.7495 68.5689 23.445C68.2908 24.1404 67.8701 24.7699 67.3341 25.293C66.8009 25.8052 66.1709 26.2057 65.4809 26.4712C64.7909 26.7367 64.0549 26.8618 63.3159 26.8392C61.9046 26.8995 60.5088 26.5247 59.3174 25.7657C58.8544 25.4918 58.4596 25.1163 58.1628 24.6676C57.866 24.219 57.6748 23.7088 57.6038 23.1756C57.6023 23.1597 57.6043 23.1436 57.6097 23.1286C57.6151 23.1136 57.6237 23.0999 57.635 23.0886C57.6463 23.0773 57.66 23.0687 57.675 23.0633C57.69 23.0579 57.7061 23.0559 57.722 23.0574H59.8689C59.9214 23.0574 59.9608 23.0968 59.9871 23.1756C60.1844 23.6346 60.5316 24.0131 60.972 24.249C61.6223 24.6156 62.3635 24.7898 63.1091 24.7513L63.0795 24.7119ZM59.3273 15.4937C59.269 16.6311 59.6182 17.752 60.3121 18.6551C60.6393 19.0371 61.0481 19.3407 61.5083 19.5436C61.9686 19.7464 62.4685 19.8433 62.9712 19.8271C63.4737 19.852 63.9748 19.7558 64.4324 19.5468C64.89 19.3377 65.2907 19.0217 65.6007 18.6256C66.2777 17.71 66.6248 16.5923 66.5856 15.4543C66.6262 14.3132 66.2791 13.1919 65.6007 12.2733C65.2907 11.8771 64.89 11.5612 64.4324 11.3521C63.9748 11.143 63.4737 11.0469 62.9712 11.0718C62.4578 11.0508 61.9466 11.1483 61.4769 11.3567C61.0073 11.565 60.5919 11.8787 60.2629 12.2733C59.5706 13.1848 59.2219 14.3112 59.278 15.4543" fill="black"/>
<path d="M82.8061 21.6786H80.9545C80.9053 21.6786 80.8659 21.6786 80.8265 21.5604L80.5803 20.5756C80.5803 20.4377 80.4523 20.418 80.3341 20.5263C79.3498 21.3698 78.1129 21.8618 76.8182 21.9248C76.0184 21.9607 75.2206 21.8196 74.4818 21.5114C73.7429 21.2033 73.0812 20.7358 72.5439 20.1422C71.4441 18.8349 70.8779 17.1609 70.9583 15.4544C70.8769 13.7477 71.4432 12.0733 72.5439 10.7665C73.082 10.1733 73.7436 9.70544 74.4821 9.39574C75.2206 9.08605 76.018 8.9421 76.8182 8.97406C77.5631 8.97284 78.2981 9.14479 78.9651 9.47633C79.4719 9.68989 79.9357 9.99354 80.3341 10.3725C80.403 10.4415 80.4523 10.4612 80.5015 10.4316C80.5241 10.4237 80.5437 10.4091 80.5577 10.3897C80.5718 10.3704 80.5797 10.3472 80.5803 10.3233V4.41421C80.5803 4.33542 80.5803 4.29603 80.7083 4.29603H82.8061C82.822 4.2945 82.838 4.29651 82.853 4.30191C82.8681 4.30731 82.8817 4.31597 82.893 4.32726C82.9043 4.33856 82.913 4.35221 82.9184 4.36724C82.9238 4.38227 82.9258 4.39831 82.9242 4.41421V21.5604C82.9258 21.5763 82.9238 21.5924 82.9184 21.6074C82.913 21.6224 82.9043 21.6361 82.893 21.6474C82.8817 21.6587 82.8681 21.6673 82.853 21.6727C82.838 21.6781 82.822 21.6801 82.8061 21.6786ZM73.3023 15.4544C73.244 16.5918 73.5932 17.7127 74.2871 18.6157C74.6156 19.0116 75.0307 19.3267 75.5003 19.5367C75.9698 19.7467 76.4814 19.8461 76.9954 19.8271C77.4993 19.852 78.0019 19.7559 78.461 19.5468C78.9202 19.3378 79.3227 19.0219 79.6348 18.6256C80.2915 17.7028 80.6176 16.5855 80.5606 15.4544C80.6138 14.3206 80.288 13.2015 79.6348 12.2733C79.3264 11.8752 78.9261 11.5579 78.4681 11.3487C78.01 11.1394 77.5081 11.0444 77.0053 11.0718C76.4905 11.0508 75.9778 11.1482 75.5065 11.3565C75.0353 11.5648 74.6181 11.8785 74.2871 12.2733C73.5949 13.1848 73.2461 14.3112 73.3023 15.4544Z" fill="black"/>
<path d="M89.2174 4.4634V7.05355C89.2189 7.07074 89.2166 7.08805 89.2107 7.10427C89.2048 7.12048 89.1955 7.13521 89.1833 7.14741C89.1711 7.15962 89.1563 7.169 89.1401 7.1749C89.1239 7.1808 89.1066 7.18308 89.0894 7.18158H86.5091C86.4204 7.18158 86.381 7.18158 86.381 7.05355V4.4634C86.381 4.38461 86.381 4.34521 86.5091 4.34521H89.0894C89.178 4.34521 89.2174 4.34521 89.2174 4.4634ZM88.9712 9.38764V21.5998C88.9712 21.6786 88.9712 21.7179 88.8432 21.7179H86.7454C86.7295 21.7195 86.7135 21.7175 86.6985 21.7121C86.6834 21.7067 86.6698 21.698 86.6585 21.6867C86.6472 21.6754 86.6385 21.6618 86.6331 21.6467C86.6277 21.6317 86.6257 21.6157 86.6273 21.5998V9.34825C86.6257 9.33235 86.6277 9.31631 86.6331 9.30128C86.6385 9.28624 86.6472 9.27259 86.6585 9.2613C86.6698 9.25 86.6834 9.24135 86.6985 9.23595C86.7135 9.23055 86.7295 9.22854 86.7454 9.23006H88.8432C88.9318 9.23006 88.9712 9.23006 88.9712 9.34825" fill="black"/>
<path d="M99.2727 11.0718H98.022C97.569 11.0598 97.1194 11.1521 96.7078 11.3417C96.2963 11.5313 95.9338 11.8129 95.6485 12.165C95.0474 12.9064 94.736 13.8407 94.772 14.7945V21.5604C94.7735 21.5776 94.7712 21.5949 94.7653 21.6111C94.7594 21.6273 94.75 21.6421 94.7378 21.6543C94.7256 21.6665 94.7109 21.6759 94.6947 21.6818C94.6785 21.6877 94.6612 21.6899 94.644 21.6884H92.5167C92.4379 21.6884 92.3985 21.6392 92.3985 21.5604V9.34829C92.397 9.33239 92.399 9.31635 92.4044 9.30132C92.4098 9.28629 92.4184 9.27264 92.4297 9.26134C92.441 9.25005 92.4547 9.24139 92.4697 9.23599C92.4848 9.23059 92.5008 9.22858 92.5167 9.23011H94.3682C94.3682 9.23011 94.4568 9.23011 94.4962 9.34829L94.7424 10.4513C94.795 10.6023 94.8836 10.6023 95.0084 10.4513C95.3774 10.0181 95.8284 9.66192 96.3354 9.40334C96.8424 9.14476 97.3955 8.98883 97.9629 8.9445H99.2137C99.23 8.94314 99.2464 8.94518 99.2619 8.95051C99.2774 8.95583 99.2916 8.96432 99.3037 8.97543C99.3157 8.98655 99.3253 9.00004 99.3318 9.01506C99.3384 9.03008 99.3417 9.0463 99.3417 9.06268V10.9142C99.3417 11.0028 99.3417 11.0422 99.2137 11.0422" fill="black"/>
<path d="M12.478 0.799805H0.492424C0.362615 0.802326 0.238824 0.855016 0.147018 0.946822C0.0552112 1.03863 0.00252128 1.16242 0 1.29223V24.6725C0.00252128 24.8023 0.0552112 24.9261 0.147018 25.0179C0.238824 25.1097 0.362615 25.1624 0.492424 25.165H12.478C15.709 25.165 18.8077 23.8814 21.0924 21.5968C23.3771 19.3121 24.6606 16.2134 24.6606 12.9824C24.6606 9.75136 23.3771 6.65267 21.0924 4.368C18.8077 2.08332 15.709 0.799805 12.478 0.799805ZM13.65 21.4816C11.8366 21.7937 9.97084 21.5205 8.32302 20.7016C6.67519 19.8826 5.33079 18.5605 4.48448 16.9265C3.63817 15.2926 3.33387 13.4317 3.61566 11.6133C3.89745 9.79492 4.7507 8.11341 6.05185 6.81226C7.35299 5.51111 9.03451 4.65786 10.8529 4.37607C12.6713 4.09428 14.5322 4.39858 16.1661 5.24489C17.8001 6.0912 19.1222 7.43561 19.9412 9.08343C20.7601 10.7313 21.0333 12.597 20.7212 14.4104C20.4175 16.1752 19.5746 17.8025 18.3084 19.0688C17.0421 20.335 15.4148 21.1779 13.65 21.4816Z" fill="black"/>
</g>
<defs>
<clipPath id="clip0_1_108">
<rect width="99.4008" height="26" fill="white" transform="translate(0 0.799805)"/>
</clipPath>
</defs>
</svg>
