<svg width="101" height="27" viewBox="0 0 101 27" fill="none" xmlns="http://www.w3.org/2000/svg">
<path d="M34.7697 3.66621C34.7697 3.58737 34.7697 3.54795 34.8978 3.54795H41.2052C42.2765 3.48848 43.347 3.67723 44.3334 4.09946C45.3197 4.5217 46.1953 5.16602 46.8917 5.9822C48.2814 7.82696 48.979 10.1012 48.8628 12.4079C48.9971 14.6622 48.2953 16.8869 46.8917 18.6561C46.1694 19.4311 45.2831 20.035 44.2976 20.4237C43.3121 20.8125 42.2522 20.9763 41.1953 20.9031H34.8879C34.8707 20.9046 34.8534 20.9023 34.8372 20.8964C34.821 20.8905 34.8062 20.8811 34.794 20.8689C34.7818 20.8567 34.7724 20.842 34.7665 20.8258C34.7606 20.8095 34.7583 20.7922 34.7598 20.775L34.7697 3.66621ZM41.2545 5.63727H37.2434C37.1547 5.63727 37.1152 5.63727 37.1152 5.76539V18.666C37.1152 18.7448 37.1152 18.7842 37.2434 18.7842H41.2545C41.9831 18.8259 42.7115 18.6991 43.3832 18.4136C44.0549 18.1282 44.6518 17.6918 45.1276 17.1384C46.1307 15.7659 46.6191 14.0844 46.5074 12.3881C46.5949 10.6365 46.103 8.90471 45.1079 7.4605C44.6608 6.86775 44.0767 6.39223 43.4056 6.07469C42.7344 5.75715 41.9963 5.60706 41.2545 5.63727Z" fill="white"/>
<path d="M54.5391 3.66613V6.25808C54.5406 6.27528 54.5383 6.2926 54.5324 6.30883C54.5265 6.32506 54.5171 6.3398 54.5049 6.35201C54.4927 6.36422 54.478 6.37361 54.4617 6.37951C54.4455 6.38542 54.4282 6.3877 54.411 6.3862H51.8191C51.7402 6.3862 51.7008 6.3862 51.7008 6.25808V3.66613C51.6993 3.65022 51.7013 3.63417 51.7067 3.61913C51.7121 3.60409 51.7207 3.59043 51.732 3.57913C51.7433 3.56783 51.757 3.55916 51.772 3.55376C51.7871 3.54835 51.8031 3.54634 51.8191 3.54787H54.411C54.4898 3.54787 54.5391 3.54787 54.5391 3.66613ZM54.2829 8.59378V20.8144C54.2844 20.8303 54.2824 20.8463 54.277 20.8614C54.2716 20.8764 54.2629 20.8901 54.2516 20.9014C54.2403 20.9127 54.2266 20.9213 54.2116 20.9267C54.1966 20.9321 54.1805 20.9341 54.1646 20.9326H52.0654C51.9767 20.9326 51.9373 20.9326 51.9373 20.8144V8.55436C51.9373 8.47552 51.9373 8.4361 52.0654 8.4361H54.1449C54.1608 8.43457 54.1769 8.43658 54.1919 8.44199C54.2069 8.44739 54.2206 8.45605 54.2319 8.46735C54.2432 8.47866 54.2519 8.49232 54.2573 8.50736C54.2627 8.5224 54.2647 8.53845 54.2632 8.55436" fill="white"/>
<path d="M63.1234 23.9287C63.611 23.9746 64.1026 23.9098 64.5617 23.7392C65.0207 23.5685 65.4353 23.2964 65.7745 22.9431C66.3489 22.2455 66.6501 21.3628 66.622 20.4596V19.7993C66.622 19.75 66.622 19.7204 66.5333 19.6909C66.5042 19.6819 66.473 19.6829 66.4444 19.6936C66.4159 19.7043 66.3917 19.7241 66.3757 19.75C66.0019 20.1506 65.5442 20.4636 65.0353 20.6666C64.359 21.0042 63.6133 21.1796 62.8573 21.179C62.0687 21.2002 61.2849 21.0499 60.56 20.7385C59.8351 20.4271 59.1865 19.9621 58.659 19.3755C57.517 18.0827 56.9201 16.3979 56.9934 14.6745C56.9146 12.9761 57.4814 11.3107 58.5801 10.013C59.117 9.4202 59.7774 8.95237 60.5147 8.64247C61.252 8.33256 62.0483 8.18812 62.8475 8.21931C63.5261 8.22867 64.196 8.37271 64.8185 8.64309C65.4105 8.85711 65.951 9.19284 66.4052 9.62862C66.5235 9.73703 66.6023 9.72718 66.6516 9.62862L66.898 8.64309C66.898 8.56425 66.9768 8.52483 67.0163 8.52483H68.8691C68.9578 8.52483 68.9972 8.52483 68.9972 8.64309V20.4695C69.0246 21.2185 68.895 21.9649 68.6166 22.6608C68.3382 23.3567 67.9173 23.9867 67.3809 24.5101C66.8474 25.0226 66.2169 25.4235 65.5264 25.6892C64.836 25.9549 64.0994 26.0801 63.3599 26.0574C61.9476 26.1177 60.5509 25.7427 59.3587 24.9832C58.8954 24.709 58.5003 24.3333 58.2033 23.8844C57.9063 23.4354 57.715 22.9249 57.6439 22.3912C57.6423 22.3753 57.6444 22.3593 57.6498 22.3442C57.6552 22.3292 57.6638 22.3155 57.6751 22.3042C57.6864 22.2929 57.7001 22.2843 57.7151 22.2789C57.7302 22.2735 57.7462 22.2714 57.7621 22.273H59.9106C59.9631 22.273 60.0026 22.3124 60.0289 22.3912C60.2262 22.8506 60.5737 23.2293 61.0144 23.4655C61.6652 23.8323 62.4069 24.0066 63.153 23.9681L63.1234 23.9287ZM59.3685 14.7041C59.3102 15.8423 59.6597 16.964 60.3541 17.8677C60.6815 18.2499 61.0906 18.5538 61.5511 18.7567C62.0117 18.9597 62.512 19.0567 63.015 19.0404C63.5178 19.0654 64.0193 18.9692 64.4772 18.7599C64.9351 18.5507 65.3361 18.2345 65.6464 17.8381C66.3237 16.9219 66.6711 15.8034 66.6319 14.6647C66.6726 13.5227 66.3252 12.4006 65.6464 11.4814C65.3361 11.085 64.9351 10.7688 64.4772 10.5596C64.0193 10.3504 63.5178 10.2542 63.015 10.2791C62.5013 10.2581 61.9896 10.3557 61.5197 10.5642C61.0497 10.7727 60.634 11.0865 60.3048 11.4814C59.6121 12.3935 59.2631 13.5207 59.3193 14.6647" fill="white"/>
<path d="M82.8634 20.8932H81.0106C80.9613 20.8932 80.9219 20.8932 80.8825 20.775L80.6361 19.7895C80.6361 19.6515 80.508 19.6318 80.3897 19.7402C79.4047 20.5842 78.167 21.0765 76.8714 21.1396C76.0711 21.1756 75.2727 21.0343 74.5333 20.7259C73.794 20.4176 73.1318 19.9497 72.5942 19.3558C71.4936 18.0476 70.927 16.3724 71.0075 14.6647C70.926 12.9569 71.4927 11.2813 72.5942 9.97357C73.1326 9.38002 73.7946 8.91179 74.5336 8.60188C75.2727 8.29197 76.0707 8.14793 76.8714 8.17991C77.6168 8.17869 78.3523 8.35075 79.0198 8.68253C79.5269 8.89624 79.991 9.2001 80.3897 9.57936C80.4587 9.64835 80.508 9.66806 80.5573 9.63849C80.5798 9.63052 80.5994 9.61589 80.6135 9.59654C80.6276 9.57718 80.6355 9.55401 80.6361 9.53008V3.6169C80.6361 3.53806 80.6361 3.49864 80.7642 3.49864H82.8634C82.8793 3.49712 82.8954 3.49913 82.9104 3.50453C82.9254 3.50993 82.9391 3.5186 82.9504 3.5299C82.9617 3.5412 82.9704 3.55486 82.9758 3.5699C82.9812 3.58494 82.9832 3.60099 82.9817 3.6169V20.775C82.9832 20.7909 82.9812 20.8069 82.9758 20.822C82.9704 20.837 82.9617 20.8507 82.9504 20.862C82.9391 20.8733 82.9254 20.882 82.9104 20.8874C82.8954 20.8928 82.8793 20.8948 82.8634 20.8932ZM73.353 14.6647C73.2947 15.8029 73.6441 16.9246 74.3386 17.8282C74.6673 18.2244 75.0826 18.5397 75.5526 18.7499C76.0225 18.96 76.5344 19.0595 77.0488 19.0404C77.553 19.0653 78.0559 18.9692 78.5154 18.76C78.9749 18.5508 79.3776 18.2347 79.69 17.8381C80.3471 16.9147 80.6735 15.7966 80.6164 14.6647C80.6696 13.5302 80.3436 12.4102 79.69 11.4814C79.3814 11.0831 78.9807 10.7656 78.5224 10.5562C78.0641 10.3467 77.5618 10.2517 77.0586 10.2791C76.5435 10.2581 76.0304 10.3556 75.5588 10.564C75.0873 10.7725 74.6698 11.0863 74.3386 11.4814C73.6458 12.3936 73.2969 13.5207 73.353 14.6647Z" fill="white"/>
<path d="M89.279 3.66613V6.25807C89.2805 6.27527 89.2782 6.2926 89.2723 6.30883C89.2664 6.32505 89.257 6.33979 89.2448 6.352C89.2326 6.36421 89.2178 6.3736 89.2016 6.37951C89.1854 6.38541 89.168 6.38769 89.1508 6.38619H86.5687C86.48 6.38619 86.4406 6.38619 86.4406 6.25807V3.66613C86.4406 3.58728 86.4406 3.54786 86.5687 3.54786H89.1508C89.2395 3.54786 89.279 3.54786 89.279 3.66613ZM89.0326 8.59378V20.8143C89.0326 20.8932 89.0326 20.9326 88.9045 20.9326H86.8053C86.7894 20.9341 86.7733 20.9321 86.7583 20.9267C86.7432 20.9213 86.7296 20.9127 86.7183 20.9014C86.707 20.8901 86.6983 20.8764 86.6929 20.8613C86.6875 20.8463 86.6855 20.8303 86.687 20.8143V8.55435C86.6855 8.53844 86.6875 8.52239 86.6929 8.50735C86.6983 8.49231 86.707 8.47865 86.7183 8.46735C86.7296 8.45605 86.7432 8.44738 86.7583 8.44198C86.7733 8.43658 86.7894 8.43457 86.8053 8.43609H88.9045C88.9932 8.43609 89.0326 8.43609 89.0326 8.55435" fill="white"/>
<path d="M99.3414 10.2791H98.0897C97.6365 10.2671 97.1865 10.3595 96.7747 10.5492C96.3628 10.7389 96.0001 11.0208 95.7146 11.373C95.1131 12.1149 94.8015 13.05 94.8375 14.0044V20.775C94.839 20.7922 94.8367 20.8095 94.8308 20.8257C94.8249 20.842 94.8155 20.8567 94.8033 20.8689C94.7911 20.8811 94.7764 20.8905 94.7601 20.8964C94.7439 20.9023 94.7266 20.9046 94.7094 20.9031H92.5806C92.5018 20.9031 92.4624 20.8538 92.4624 20.775V8.5544C92.4608 8.53849 92.4629 8.52244 92.4683 8.5074C92.4737 8.49236 92.4823 8.47869 92.4936 8.46739C92.5049 8.45609 92.5186 8.44743 92.5336 8.44202C92.5487 8.43662 92.5647 8.43461 92.5806 8.43614H94.4334C94.4334 8.43614 94.5221 8.43614 94.5615 8.5544L94.8079 9.65819C94.8605 9.80931 94.9492 9.80931 95.074 9.65819C95.4433 9.22463 95.8946 8.86824 96.402 8.60949C96.9093 8.35073 97.4628 8.1947 98.0306 8.15033H99.2822C99.2986 8.14897 99.315 8.15101 99.3305 8.15634C99.346 8.16167 99.3603 8.17016 99.3723 8.18128C99.3843 8.19241 99.394 8.20591 99.4005 8.22094C99.4071 8.23597 99.4104 8.2522 99.4103 8.2686V10.1214C99.4103 10.2101 99.4103 10.2495 99.2822 10.2495" fill="white"/>
<path d="M12.4867 0H0.492765C0.362865 0.00252303 0.23899 0.0552494 0.147119 0.147119C0.0552494 0.23899 0.00252303 0.362865 0 0.492765V23.8892C0.00252303 24.0191 0.0552494 24.143 0.147119 24.2349C0.23899 24.3268 0.362865 24.3795 0.492765 24.382H12.4867C15.7199 24.382 18.8207 23.0976 21.107 20.8113C23.3933 18.5251 24.6777 15.4243 24.6777 12.191C24.6777 8.95775 23.3933 5.85692 21.107 3.57066C18.8207 1.28441 15.7199 4.81793e-08 12.4867 0ZM13.6594 20.6961C11.8447 21.0084 9.97774 20.735 8.32878 19.9155C6.67981 19.096 5.33448 17.773 4.48758 16.1379C3.64068 14.5028 3.33618 12.6407 3.61816 10.821C3.90015 9.00134 4.75398 7.31866 6.05603 6.01661C7.35808 4.71456 9.04076 3.86073 10.8604 3.57874C12.6801 3.29676 14.5423 3.60126 16.1773 4.44816C17.8124 5.29506 19.1355 6.64039 19.955 8.28936C20.7745 9.93832 21.0479 11.8053 20.7355 13.62C20.4316 15.386 19.5881 17.0145 18.321 18.2816C17.0539 19.5487 15.4254 20.3922 13.6594 20.6961Z" fill="white"/>
</svg>
