<svg width="101" height="27" viewBox="0 0 101 27" fill="none" xmlns="http://www.w3.org/2000/svg">
<path d="M34.7455 4.06358C34.7455 3.98479 34.7455 3.94539 34.8735 3.94539H41.1765C42.2471 3.88597 43.3169 4.07459 44.3026 4.49653C45.2882 4.91847 46.1631 5.56235 46.8591 6.37797C48.2478 8.22145 48.9449 10.4941 48.8288 12.7992C48.963 15.052 48.2617 17.2751 46.8591 19.0431C46.1373 19.8176 45.2516 20.421 44.2668 20.8095C43.282 21.198 42.2228 21.3617 41.1667 21.2886H34.8636C34.8465 21.2901 34.8291 21.2878 34.8129 21.2819C34.7967 21.276 34.782 21.2666 34.7698 21.2544C34.7576 21.2422 34.7482 21.2275 34.7423 21.2113C34.7364 21.195 34.7341 21.1777 34.7356 21.1605L34.7455 4.06358ZM41.2258 6.03327H37.2174C37.1288 6.03327 37.0894 6.03327 37.0894 6.1613V19.053C37.0894 19.1318 37.0894 19.1712 37.2174 19.1712H41.2258C41.9539 19.2128 42.6818 19.086 43.3531 18.8008C44.0243 18.5156 44.6208 18.0795 45.0962 17.5265C46.0986 16.1549 46.5867 14.4746 46.475 12.7795C46.5625 11.029 46.071 9.29846 45.0765 7.85524C44.6298 7.2629 44.046 6.78771 43.3754 6.47039C42.7047 6.15307 41.9671 6.00308 41.2258 6.03327Z" fill="white"/>
<path d="M54.5015 4.0635V6.65365C54.503 6.67084 54.5007 6.68816 54.4948 6.70437C54.4889 6.72059 54.4796 6.73532 54.4674 6.74752C54.4552 6.75972 54.4404 6.7691 54.4242 6.77501C54.408 6.78091 54.3907 6.78319 54.3735 6.78168H51.7833C51.7046 6.78168 51.6652 6.78168 51.6652 6.65365V4.0635C51.6636 4.0476 51.6657 4.03156 51.6711 4.01653C51.6765 4.0015 51.6851 3.98785 51.6964 3.97655C51.7077 3.96526 51.7213 3.9566 51.7364 3.9512C51.7514 3.9458 51.7674 3.94379 51.7833 3.94532H54.3735C54.4523 3.94532 54.5015 3.94532 54.5015 4.0635ZM54.2455 8.98774V21.1999C54.247 21.2158 54.245 21.2318 54.2396 21.2468C54.2342 21.2619 54.2255 21.2755 54.2142 21.2868C54.2029 21.2981 54.1893 21.3068 54.1742 21.3122C54.1592 21.3176 54.1432 21.3196 54.1273 21.318H52.0296C51.9409 21.318 51.9015 21.318 51.9015 21.1999V8.94835C51.9015 8.86956 51.9015 8.83017 52.0296 8.83017H54.1076C54.1235 8.82864 54.1395 8.83065 54.1546 8.83605C54.1696 8.84145 54.1832 8.85011 54.1945 8.8614C54.2058 8.8727 54.2145 8.88635 54.2199 8.90138C54.2253 8.91641 54.2273 8.93245 54.2258 8.94835" fill="white"/>
<path d="M63.0795 24.312C63.5668 24.3579 64.0581 24.2932 64.5168 24.1227C64.9755 23.9521 65.3898 23.6802 65.7288 23.3272C66.3028 22.63 66.6038 21.748 66.5757 20.8454V20.1855C66.5757 20.1363 66.5757 20.1067 66.4871 20.0772C66.458 20.0682 66.4268 20.0692 66.3983 20.0799C66.3698 20.0906 66.3456 20.1104 66.3295 20.1363C65.9561 20.5366 65.4987 20.8494 64.9901 21.0522C64.3142 21.3895 63.569 21.5649 62.8136 21.5643C62.0255 21.5854 61.2423 21.4352 60.5179 21.1241C59.7935 20.8129 59.1454 20.3482 58.6182 19.762C57.477 18.4701 56.8805 16.7865 56.9538 15.0643C56.875 13.367 57.4415 11.7027 58.5394 10.406C59.0759 9.81359 59.7358 9.34609 60.4726 9.0364C61.2094 8.72671 62.0052 8.58236 62.8038 8.61353C63.4819 8.62288 64.1514 8.76683 64.7735 9.03702C65.365 9.25089 65.9052 9.58639 66.3591 10.0219C66.4773 10.1302 66.556 10.1204 66.6053 10.0219L66.8515 9.03702C66.8515 8.95823 66.9303 8.91884 66.9697 8.91884H68.8212C68.9098 8.91884 68.9492 8.91884 68.9492 9.03702V20.8552C68.9766 21.6037 68.8471 22.3496 68.5689 23.0451C68.2908 23.7405 67.8701 24.37 67.3341 24.8931C66.8009 25.4052 66.1709 25.8058 65.4809 26.0713C64.7909 26.3368 64.0549 26.4619 63.3159 26.4393C61.9046 26.4996 60.5088 26.1248 59.3174 25.3658C58.8544 25.0919 58.4596 24.7164 58.1628 24.2677C57.866 23.8191 57.6748 23.3089 57.6038 22.7757C57.6023 22.7598 57.6043 22.7437 57.6097 22.7287C57.6151 22.7137 57.6237 22.7 57.635 22.6887C57.6463 22.6774 57.66 22.6688 57.675 22.6634C57.69 22.658 57.7061 22.6559 57.722 22.6575H59.8689C59.9214 22.6575 59.9608 22.6969 59.9871 22.7757C60.1844 23.2347 60.5316 23.6132 60.972 23.8491C61.6223 24.2157 62.3635 24.3899 63.1091 24.3514L63.0795 24.312ZM59.3273 15.0938C59.269 16.2312 59.6182 17.3521 60.3121 18.2552C60.6393 18.6372 61.0481 18.9408 61.5083 19.1437C61.9686 19.3465 62.4685 19.4434 62.9712 19.4272C63.4737 19.4521 63.9748 19.3559 64.4324 19.1469C64.89 18.9378 65.2907 18.6218 65.6007 18.2257C66.2777 17.3101 66.6248 16.1924 66.5856 15.0544C66.6262 13.9133 66.2791 12.792 65.6007 11.8734C65.2907 11.4772 64.89 11.1613 64.4324 10.9522C63.9748 10.7431 63.4737 10.647 62.9712 10.6719C62.4578 10.6509 61.9466 10.7484 61.4769 10.9568C61.0073 11.1651 60.5919 11.4788 60.2629 11.8734C59.5706 12.7849 59.2219 13.9113 59.278 15.0544" fill="white"/>
<path d="M82.8061 21.2787H80.9545C80.9053 21.2787 80.8659 21.2787 80.8265 21.1605L80.5803 20.1757C80.5803 20.0378 80.4523 20.0181 80.3341 20.1264C79.3498 20.9699 78.1129 21.4619 76.8182 21.5249C76.0184 21.5608 75.2206 21.4197 74.4818 21.1115C73.7429 20.8034 73.0812 20.3358 72.5439 19.7423C71.4441 18.435 70.8779 16.761 70.9583 15.0545C70.8769 13.3478 71.4432 11.6734 72.5439 10.3666C73.082 9.77344 73.7436 9.30553 74.4821 8.99584C75.2206 8.68614 76.018 8.5422 76.8182 8.57416C77.5631 8.57293 78.2981 8.74488 78.9651 9.07643C79.4719 9.28999 79.9357 9.59364 80.3341 9.97264C80.403 10.0416 80.4523 10.0613 80.5015 10.0317C80.5241 10.0238 80.5437 10.0091 80.5577 9.98981C80.5718 9.97046 80.5797 9.94731 80.5803 9.9234V4.01431C80.5803 3.93552 80.5803 3.89612 80.7083 3.89612H82.8061C82.822 3.8946 82.838 3.89661 82.853 3.90201C82.8681 3.90741 82.8817 3.91607 82.893 3.92736C82.9043 3.93865 82.913 3.95231 82.9184 3.96734C82.9238 3.98237 82.9258 3.99841 82.9242 4.01431V21.1605C82.9258 21.1764 82.9238 21.1925 82.9184 21.2075C82.913 21.2225 82.9043 21.2362 82.893 21.2475C82.8817 21.2588 82.8681 21.2674 82.853 21.2728C82.838 21.2782 82.822 21.2802 82.8061 21.2787ZM73.3023 15.0545C73.244 16.1919 73.5932 17.3128 74.2871 18.2158C74.6156 18.6117 75.0307 18.9268 75.5003 19.1368C75.9698 19.3468 76.4814 19.4462 76.9954 19.4272C77.4993 19.4521 78.0019 19.356 78.461 19.1469C78.9202 18.9379 79.3227 18.622 79.6348 18.2257C80.2915 17.3029 80.6176 16.1856 80.5606 15.0545C80.6138 13.9207 80.288 12.8016 79.6348 11.8734C79.3264 11.4753 78.9261 11.158 78.4681 10.9488C78.01 10.7395 77.5081 10.6445 77.0053 10.6719C76.4905 10.6509 75.9778 10.7483 75.5065 10.9566C75.0353 11.1649 74.6181 11.4786 74.2871 11.8734C73.5949 12.7849 73.2461 13.9113 73.3023 15.0545Z" fill="white"/>
<path d="M89.2174 4.06349V6.65365C89.2189 6.67084 89.2166 6.68815 89.2107 6.70437C89.2048 6.72058 89.1955 6.73531 89.1833 6.74751C89.1711 6.75971 89.1563 6.7691 89.1401 6.775C89.1239 6.7809 89.1066 6.78318 89.0894 6.78168H86.5091C86.4204 6.78168 86.381 6.78168 86.381 6.65365V4.06349C86.381 3.98471 86.381 3.94531 86.5091 3.94531H89.0894C89.178 3.94531 89.2174 3.94531 89.2174 4.06349ZM88.9712 8.98774V21.1999C88.9712 21.2786 88.9712 21.318 88.8432 21.318H86.7454C86.7295 21.3196 86.7135 21.3176 86.6985 21.3122C86.6834 21.3068 86.6698 21.2981 86.6585 21.2868C86.6472 21.2755 86.6385 21.2619 86.6331 21.2468C86.6277 21.2318 86.6257 21.2158 86.6273 21.1999V8.94834C86.6257 8.93244 86.6277 8.9164 86.6331 8.90137C86.6385 8.88634 86.6472 8.87269 86.6585 8.8614C86.6698 8.8501 86.6834 8.84145 86.6985 8.83605C86.7135 8.83065 86.7295 8.82864 86.7454 8.83016H88.8432C88.9318 8.83016 88.9712 8.83016 88.9712 8.94834" fill="white"/>
<path d="M99.2727 10.6719H98.022C97.569 10.6599 97.1194 10.7522 96.7078 10.9418C96.2963 11.1314 95.9338 11.413 95.6485 11.7651C95.0474 12.5064 94.736 13.4408 94.772 14.3946V21.1605C94.7735 21.1777 94.7712 21.195 94.7653 21.2112C94.7594 21.2274 94.75 21.2422 94.7378 21.2544C94.7256 21.2666 94.7109 21.276 94.6947 21.2819C94.6785 21.2878 94.6612 21.29 94.644 21.2885H92.5167C92.4379 21.2885 92.3985 21.2393 92.3985 21.1605V8.94839C92.397 8.93249 92.399 8.91645 92.4044 8.90142C92.4098 8.88639 92.4184 8.87274 92.4297 8.86144C92.441 8.85015 92.4547 8.84149 92.4697 8.83609C92.4848 8.83069 92.5008 8.82868 92.5167 8.83021H94.3682C94.3682 8.83021 94.4568 8.83021 94.4962 8.94839L94.7424 10.0514C94.795 10.2024 94.8836 10.2024 95.0084 10.0514C95.3774 9.61815 95.8284 9.26201 96.3354 9.00344C96.8424 8.74486 97.3955 8.58893 97.9629 8.5446H99.2137C99.23 8.54324 99.2464 8.54528 99.2619 8.5506C99.2774 8.55593 99.2916 8.56442 99.3037 8.57553C99.3157 8.58664 99.3253 8.60014 99.3318 8.61516C99.3384 8.63018 99.3417 8.6464 99.3417 8.66278V10.5143C99.3417 10.6029 99.3417 10.6423 99.2137 10.6423" fill="white"/>
<path d="M12.478 0.399902H0.492424C0.362615 0.402424 0.238824 0.455114 0.147018 0.54692C0.0552112 0.638727 0.00252128 0.762517 0 0.892327V24.2726C0.00252128 24.4024 0.0552112 24.5262 0.147018 24.618C0.238824 24.7098 0.362615 24.7625 0.492424 24.7651H12.478C15.709 24.7651 18.8077 23.4815 21.0924 21.1969C23.3771 18.9122 24.6606 15.8135 24.6606 12.5825C24.6606 9.35146 23.3771 6.25277 21.0924 3.9681C18.8077 1.68342 15.709 0.399902 12.478 0.399902ZM13.65 21.0817C11.8366 21.3938 9.97084 21.1206 8.32302 20.3017C6.67519 19.4827 5.33079 18.1606 4.48448 16.5266C3.63817 14.8927 3.33387 13.0318 3.61566 11.2134C3.89745 9.39502 4.7507 7.7135 6.05185 6.41235C7.35299 5.11121 9.03451 4.25796 10.8529 3.97617C12.6713 3.69438 14.5322 3.99867 16.1661 4.84499C17.8001 5.6913 19.1222 7.0357 19.9412 8.68353C20.7601 10.3314 21.0333 12.1971 20.7212 14.0105C20.4175 15.7753 19.5746 17.4026 18.3084 18.6689C17.0421 19.9351 15.4148 20.778 13.65 21.0817Z" fill="white"/>
</svg>
