<svg width="101" height="27" viewBox="0 0 101 27" fill="none" xmlns="http://www.w3.org/2000/svg">
<path d="M34.7455 3.66367C34.7455 3.58489 34.7455 3.54549 34.8735 3.54549H41.1765C42.2471 3.48607 43.3169 3.67468 44.3026 4.09663C45.2882 4.51857 46.1631 5.16245 46.8591 5.97807C48.2478 7.82155 48.9449 10.0942 48.8288 12.3993C48.963 14.6521 48.2617 16.8752 46.8591 18.6432C46.1373 19.4177 45.2516 20.0211 44.2668 20.4096C43.282 20.7981 42.2228 20.9618 41.1667 20.8887H34.8636C34.8465 20.8902 34.8291 20.8879 34.8129 20.882C34.7967 20.8761 34.782 20.8667 34.7698 20.8545C34.7576 20.8423 34.7482 20.8276 34.7423 20.8114C34.7364 20.7951 34.7341 20.7778 34.7356 20.7606L34.7455 3.66367ZM41.2258 5.63337H37.2174C37.1288 5.63337 37.0894 5.63337 37.0894 5.7614V18.6531C37.0894 18.7319 37.0894 18.7712 37.2174 18.7712H41.2258C41.9539 18.8129 42.6818 18.6861 43.3531 18.4009C44.0243 18.1157 44.6208 17.6796 45.0962 17.1266C46.0986 15.755 46.5867 14.0747 46.475 12.3796C46.5625 10.6291 46.071 8.89856 45.0765 7.45534C44.6298 6.863 44.046 6.38781 43.3754 6.07049C42.7047 5.75317 41.9671 5.60318 41.2258 5.63337Z" fill="#1E2B3C"/>
<path d="M54.5015 3.6636V6.25375C54.503 6.27094 54.5007 6.28825 54.4948 6.30447C54.4889 6.32069 54.4796 6.33541 54.4674 6.34762C54.4552 6.35982 54.4404 6.3692 54.4242 6.3751C54.408 6.38101 54.3907 6.38328 54.3735 6.38178H51.7833C51.7046 6.38178 51.6652 6.38178 51.6652 6.25375V3.6636C51.6636 3.6477 51.6657 3.63166 51.6711 3.61663C51.6765 3.6016 51.6851 3.58795 51.6964 3.57665C51.7077 3.56536 51.7213 3.5567 51.7364 3.5513C51.7514 3.5459 51.7674 3.54389 51.7833 3.54542H54.3735C54.4523 3.54542 54.5015 3.54542 54.5015 3.6636ZM54.2455 8.58784V20.8C54.247 20.8159 54.245 20.8319 54.2396 20.8469C54.2342 20.862 54.2255 20.8756 54.2142 20.8869C54.2029 20.8982 54.1893 20.9069 54.1742 20.9123C54.1592 20.9177 54.1432 20.9197 54.1273 20.9181H52.0296C51.9409 20.9181 51.9015 20.9181 51.9015 20.8V8.54845C51.9015 8.46966 51.9015 8.43027 52.0296 8.43027H54.1076C54.1235 8.42874 54.1395 8.43075 54.1546 8.43615C54.1696 8.44155 54.1832 8.45021 54.1945 8.4615C54.2058 8.47279 54.2145 8.48645 54.2199 8.50148C54.2253 8.51651 54.2273 8.53255 54.2258 8.54845" fill="#1E2B3C"/>
<path d="M63.0795 23.9121C63.5668 23.958 64.0581 23.8933 64.5168 23.7228C64.9755 23.5522 65.3898 23.2803 65.7288 22.9273C66.3028 22.2301 66.6038 21.3481 66.5757 20.4455V19.7856C66.5757 19.7364 66.5757 19.7068 66.4871 19.6773C66.458 19.6683 66.4268 19.6693 66.3983 19.68C66.3698 19.6907 66.3456 19.7105 66.3295 19.7364C65.9561 20.1367 65.4987 20.4495 64.9901 20.6523C64.3142 20.9896 63.569 21.165 62.8136 21.1644C62.0255 21.1855 61.2423 21.0353 60.5179 20.7242C59.7935 20.413 59.1454 19.9483 58.6182 19.3621C57.477 18.0702 56.8805 16.3866 56.9538 14.6644C56.875 12.9671 57.4415 11.3028 58.5394 10.0061C59.0759 9.41369 59.7358 8.94618 60.4726 8.63649C61.2094 8.3268 62.0052 8.18246 62.8038 8.21363C63.4819 8.22298 64.1514 8.36693 64.7735 8.63712C65.365 8.85099 65.9052 9.18649 66.3591 9.62197C66.4773 9.7303 66.556 9.72045 66.6053 9.62197L66.8515 8.63712C66.8515 8.55833 66.9303 8.51894 66.9697 8.51894H68.8212C68.9098 8.51894 68.9492 8.51894 68.9492 8.63712V20.4553C68.9766 21.2038 68.8471 21.9497 68.5689 22.6451C68.2908 23.3406 67.8701 23.9701 67.3341 24.4932C66.8009 25.0053 66.1709 25.4059 65.4809 25.6714C64.7909 25.9369 64.0549 26.062 63.3159 26.0394C61.9046 26.0997 60.5088 25.7249 59.3174 24.9659C58.8544 24.6919 58.4596 24.3165 58.1628 23.8678C57.866 23.4192 57.6748 22.909 57.6038 22.3758C57.6023 22.3599 57.6043 22.3438 57.6097 22.3288C57.6151 22.3138 57.6237 22.3001 57.635 22.2888C57.6463 22.2775 57.66 22.2689 57.675 22.2635C57.69 22.2581 57.7061 22.256 57.722 22.2576H59.8689C59.9214 22.2576 59.9608 22.297 59.9871 22.3758C60.1844 22.8348 60.5316 23.2133 60.972 23.4492C61.6223 23.8158 62.3635 23.99 63.1091 23.9515L63.0795 23.9121ZM59.3273 14.6939C59.269 15.8313 59.6182 16.9522 60.3121 17.8553C60.6393 18.2373 61.0481 18.5409 61.5083 18.7438C61.9686 18.9466 62.4685 19.0435 62.9712 19.0273C63.4737 19.0522 63.9748 18.956 64.4324 18.747C64.89 18.5379 65.2907 18.2219 65.6007 17.8258C66.2777 16.9102 66.6248 15.7925 66.5856 14.6545C66.6262 13.5134 66.2791 12.3921 65.6007 11.4735C65.2907 11.0773 64.89 10.7614 64.4324 10.5523C63.9748 10.3432 63.4737 10.2471 62.9712 10.272C62.4578 10.251 61.9466 10.3485 61.4769 10.5569C61.0073 10.7652 60.5919 11.0788 60.2629 11.4735C59.5706 12.385 59.2219 13.5114 59.278 14.6545" fill="#1E2B3C"/>
<path d="M82.8061 20.8788H80.9545C80.9053 20.8788 80.8659 20.8788 80.8265 20.7606L80.5803 19.7758C80.5803 19.6379 80.4523 19.6182 80.3341 19.7265C79.3498 20.57 78.1129 21.0619 76.8182 21.125C76.0184 21.1609 75.2206 21.0198 74.4818 20.7116C73.7429 20.4035 73.0812 19.9359 72.5439 19.3424C71.4441 18.0351 70.8779 16.3611 70.9583 14.6546C70.8769 12.9479 71.4432 11.2735 72.5439 9.96668C73.082 9.37354 73.7436 8.90563 74.4821 8.59594C75.2206 8.28624 76.018 8.1423 76.8182 8.17425C77.5631 8.17303 78.2981 8.34498 78.9651 8.67653C79.4719 8.89009 79.9357 9.19374 80.3341 9.57274C80.403 9.64168 80.4523 9.66138 80.5015 9.63183C80.5241 9.62387 80.5437 9.60925 80.5577 9.5899C80.5718 9.57056 80.5797 9.5474 80.5803 9.5235V3.6144C80.5803 3.53562 80.5803 3.49622 80.7083 3.49622H82.8061C82.822 3.4947 82.838 3.49671 82.853 3.50211C82.8681 3.50751 82.8817 3.51616 82.893 3.52746C82.9043 3.53875 82.913 3.5524 82.9184 3.56743C82.9238 3.58247 82.9258 3.59851 82.9242 3.6144V20.7606C82.9258 20.7765 82.9238 20.7926 82.9184 20.8076C82.913 20.8226 82.9043 20.8363 82.893 20.8476C82.8817 20.8589 82.8681 20.8675 82.853 20.8729C82.838 20.8783 82.822 20.8803 82.8061 20.8788ZM73.3023 14.6546C73.244 15.792 73.5932 16.9129 74.2871 17.8159C74.6156 18.2118 75.0307 18.5269 75.5003 18.7369C75.9698 18.9469 76.4814 19.0463 76.9954 19.0273C77.4993 19.0521 78.0019 18.9561 78.461 18.747C78.9202 18.538 79.3227 18.2221 79.6348 17.8258C80.2915 16.903 80.6176 15.7857 80.5606 14.6546C80.6138 13.5208 80.288 12.4017 79.6348 11.4735C79.3264 11.0754 78.9261 10.7581 78.4681 10.5489C78.01 10.3396 77.5081 10.2446 77.0053 10.272C76.4905 10.251 75.9778 10.3484 75.5065 10.5567C75.0353 10.765 74.6181 11.0787 74.2871 11.4735C73.5949 12.385 73.2461 13.5114 73.3023 14.6546Z" fill="#1E2B3C"/>
<path d="M89.2174 3.66359V6.25374C89.2189 6.27094 89.2166 6.28825 89.2107 6.30446C89.2048 6.32068 89.1955 6.33541 89.1833 6.34761C89.1711 6.35981 89.1563 6.36919 89.1401 6.3751C89.1239 6.381 89.1066 6.38328 89.0894 6.38177H86.5091C86.4204 6.38177 86.381 6.38177 86.381 6.25374V3.66359C86.381 3.5848 86.381 3.54541 86.5091 3.54541H89.0894C89.178 3.54541 89.2174 3.54541 89.2174 3.66359ZM88.9712 8.58783V20.8C88.9712 20.8787 88.9712 20.9181 88.8432 20.9181H86.7454C86.7295 20.9197 86.7135 20.9177 86.6985 20.9123C86.6834 20.9069 86.6698 20.8982 86.6585 20.8869C86.6472 20.8756 86.6385 20.862 86.6331 20.8469C86.6277 20.8319 86.6257 20.8159 86.6273 20.8V8.54844C86.6257 8.53254 86.6277 8.5165 86.6331 8.50147C86.6385 8.48644 86.6472 8.47279 86.6585 8.46149C86.6698 8.4502 86.6834 8.44154 86.6985 8.43614C86.7135 8.43074 86.7295 8.42873 86.7454 8.43026H88.8432C88.9318 8.43026 88.9712 8.43026 88.9712 8.54844" fill="#1E2B3C"/>
<path d="M99.2727 10.272H98.022C97.569 10.26 97.1194 10.3523 96.7078 10.5419C96.2963 10.7315 95.9338 11.0131 95.6485 11.3652C95.0474 12.1065 94.736 13.0409 94.772 13.9947V20.7606C94.7735 20.7778 94.7712 20.7951 94.7653 20.8113C94.7594 20.8275 94.75 20.8423 94.7378 20.8545C94.7256 20.8667 94.7109 20.8761 94.6947 20.882C94.6785 20.8879 94.6612 20.8901 94.644 20.8886H92.5167C92.4379 20.8886 92.3985 20.8394 92.3985 20.7606V8.54849C92.397 8.53259 92.399 8.51655 92.4044 8.50152C92.4098 8.48648 92.4184 8.47283 92.4297 8.46154C92.441 8.45025 92.4547 8.44159 92.4697 8.43619C92.4848 8.43079 92.5008 8.42878 92.5167 8.4303H94.3682C94.3682 8.4303 94.4568 8.4303 94.4962 8.54849L94.7424 9.65152C94.795 9.80253 94.8836 9.80253 95.0084 9.65152C95.3774 9.21825 95.8284 8.86211 96.3354 8.60353C96.8424 8.34496 97.3955 8.18903 97.9629 8.1447H99.2137C99.23 8.14333 99.2464 8.14538 99.2619 8.1507C99.2774 8.15603 99.2916 8.16452 99.3037 8.17563C99.3157 8.18674 99.3253 8.20024 99.3318 8.21526C99.3384 8.23028 99.3417 8.2465 99.3417 8.26288V10.1144C99.3417 10.203 99.3417 10.2424 99.2137 10.2424" fill="#1E2B3C"/>
<path d="M12.478 0H0.492424C0.362615 0.00252128 0.238824 0.0552112 0.147018 0.147018C0.0552112 0.238824 0.00252128 0.362615 0 0.492424V23.8727C0.00252128 24.0025 0.0552112 24.1263 0.147018 24.2181C0.238824 24.3099 0.362615 24.3626 0.492424 24.3652H12.478C15.709 24.3652 18.8077 23.0816 21.0924 20.797C23.3771 18.5123 24.6606 15.4136 24.6606 12.1826C24.6606 8.95156 23.3771 5.85287 21.0924 3.56819C18.8077 1.28352 15.709 4.81459e-08 12.478 0ZM13.65 20.6818C11.8366 20.9939 9.97084 20.7207 8.32302 19.9018C6.67519 19.0828 5.33079 17.7607 4.48448 16.1267C3.63817 14.4928 3.33387 12.6319 3.61566 10.8135C3.89745 8.99512 4.7507 7.3136 6.05185 6.01245C7.35299 4.7113 9.03451 3.85806 10.8529 3.57627C12.6713 3.29448 14.5322 3.59877 16.1661 4.44508C17.8001 5.2914 19.1222 6.6358 19.9412 8.28363C20.7601 9.93145 21.0333 11.7972 20.7212 13.6106C20.4175 15.3754 19.5746 17.0027 18.3084 18.269C17.0421 19.5352 15.4148 20.3781 13.65 20.6818Z" fill="#C2132C"/>
</svg>
