<svg width="155" height="52" viewBox="0 0 155 52" fill="none" xmlns="http://www.w3.org/2000/svg">
<g clip-path="url(#clip0_1_350)">
<path d="M12.67 0H0.5C0.368193 0.00256007 0.242499 0.0560606 0.14928 0.14928C0.0560606 0.242499 0.00256007 0.368193 0 0.5V24.24C0.00256007 24.3718 0.0560606 24.4975 0.14928 24.5907C0.242499 24.6839 0.368193 24.7374 0.5 24.74H12.67C15.9507 24.74 19.0971 23.4367 21.4169 21.1169C23.7367 18.7971 25.04 15.6507 25.04 12.37C25.04 9.08927 23.7367 5.94291 21.4169 3.62309C19.0971 1.30326 15.9507 4.88867e-08 12.67 0ZM13.86 21C12.0187 21.3169 10.1242 21.0395 8.45107 20.2079C6.77789 19.3764 5.4128 18.0339 4.55347 16.3748C3.69414 14.7158 3.38516 12.8263 3.67129 10.9799C3.95741 9.1335 4.82378 7.42612 6.14495 6.10495C7.46612 4.78378 9.1735 3.91741 11.0199 3.63129C12.8663 3.34516 14.7558 3.65414 16.4148 4.51347C18.0739 5.3728 19.4164 6.73789 20.2479 8.41107C21.0795 10.0842 21.3569 11.9787 21.04 13.82C20.7316 15.6119 19.8757 17.2643 18.59 18.55C17.3043 19.8357 15.6519 20.6916 13.86 21Z" fill="#0062B8"/>
<path d="M35.39 3.71999C35.3885 3.70385 35.3905 3.68757 35.396 3.6723C35.4015 3.65704 35.4103 3.64318 35.4217 3.63171C35.4332 3.62024 35.4471 3.61145 35.4623 3.60597C35.4776 3.60049 35.4939 3.59845 35.51 3.6H41.94C43.0271 3.53889 44.1136 3.73005 45.1146 4.15854C46.1156 4.58703 47.0039 5.24123 47.71 6.07C49.1201 7.94184 49.8279 10.2495 49.71 12.59C49.8463 14.8774 49.1342 17.1348 47.71 18.93C46.9782 19.715 46.0805 20.3269 45.0824 20.7214C44.0843 21.1158 43.0108 21.2827 41.94 21.21H35.54C35.46 21.21 35.42 21.16 35.42 21.08L35.39 3.71999ZM41.97 5.72H37.94C37.86 5.72 37.82 5.72 37.82 5.85V18.94C37.8185 18.9561 37.8205 18.9724 37.826 18.9877C37.8315 19.003 37.8403 19.0168 37.8517 19.0283C37.8632 19.0397 37.8771 19.0485 37.8923 19.054C37.9076 19.0595 37.9239 19.0615 37.94 19.06H41.94C42.689 19.1134 43.4401 18.9921 44.1342 18.7058C44.8284 18.4195 45.4465 17.9759 45.94 17.41C46.9504 16.0142 47.442 14.3095 47.33 12.59C47.4264 10.8117 46.9267 9.05215 45.91 7.58999C45.4529 6.97676 44.8512 6.48606 44.1586 6.16155C43.4659 5.83704 42.7038 5.68879 41.94 5.73" fill="#1E2B3C"/>
<path d="M55.44 3.71999V6.34999C55.4415 6.36745 55.4392 6.38502 55.4332 6.40149C55.4272 6.41796 55.4177 6.43291 55.4053 6.4453C55.3929 6.45769 55.378 6.46722 55.3615 6.47321C55.345 6.4792 55.3275 6.48152 55.31 6.47999H52.68C52.6 6.47999 52.56 6.47999 52.56 6.34999V3.71999C52.5585 3.70385 52.5605 3.68756 52.566 3.6723C52.5715 3.65703 52.5803 3.64317 52.5917 3.63171C52.6032 3.62024 52.6171 3.61145 52.6323 3.60596C52.6476 3.60048 52.6639 3.59844 52.68 3.59999H55.31C55.4 3.59999 55.44 3.59999 55.44 3.71999ZM55.19 8.71999V21.12C55.19 21.2 55.19 21.24 55.06 21.24H52.94C52.9239 21.2415 52.9076 21.2395 52.8923 21.234C52.8771 21.2285 52.8632 21.2197 52.8517 21.2083C52.8403 21.1968 52.8315 21.1829 52.826 21.1677C52.8205 21.1524 52.8185 21.1361 52.82 21.12V8.67999C52.8185 8.66385 52.8205 8.64756 52.826 8.6323C52.8315 8.61703 52.8403 8.60317 52.8517 8.59171C52.8632 8.58024 52.8771 8.57145 52.8923 8.56596C52.9076 8.56048 52.9239 8.55844 52.94 8.55999H55.07C55.15 8.55999 55.2 8.55999 55.2 8.67999" fill="#1E2B3C"/>
<path d="M64.15 24.28C64.6449 24.3289 65.1444 24.2642 65.6105 24.0909C66.0767 23.9176 66.4972 23.6403 66.84 23.28C67.4254 22.5775 67.7316 21.684 67.7 20.77V20.09C67.7 20.04 67.7 20.01 67.61 19.98C67.5804 19.971 67.5487 19.9719 67.5198 19.9828C67.4908 19.9936 67.4663 20.0138 67.45 20.04C67.0711 20.4494 66.6068 20.7703 66.09 20.98C65.4021 21.3171 64.646 21.4916 63.88 21.49C63.0798 21.5115 62.2844 21.359 61.5489 21.043C60.8134 20.7271 60.1553 20.2552 59.62 19.66C58.4532 18.3377 57.8501 16.6113 57.94 14.85C57.86 13.1266 58.4352 11.4368 59.55 10.12C60.0963 9.51776 60.7681 9.04265 61.5179 8.72819C62.2678 8.41373 63.0775 8.26758 63.89 8.30002C64.5785 8.30951 65.2584 8.45567 65.89 8.73002C66.4906 8.94719 67.0391 9.28785 67.5 9.73002C67.62 9.84002 67.7 9.83002 67.75 9.73002L68 8.73002C68 8.65002 68.08 8.61002 68.13 8.61002H69.94C69.9561 8.60847 69.9724 8.61051 69.9877 8.616C70.0029 8.62148 70.0168 8.63027 70.0283 8.64174C70.0397 8.65321 70.0485 8.66707 70.054 8.68233C70.0595 8.69759 70.0615 8.71388 70.06 8.73002V20.73C70.0878 21.49 69.9563 22.2474 69.6738 22.9536C69.3914 23.6597 68.9643 24.2989 68.42 24.83C67.8786 25.3501 67.2389 25.7568 66.5383 26.0264C65.8377 26.296 65.0903 26.423 64.34 26.4C62.9272 26.4489 61.5327 26.0689 60.34 25.31C59.8685 25.0324 59.4661 24.6515 59.163 24.196C58.8599 23.7405 58.664 23.2222 58.59 22.68C58.5884 22.6639 58.5905 22.6476 58.596 22.6323C58.6014 22.6171 58.6102 22.6032 58.6217 22.5917C58.6332 22.5803 58.647 22.5715 58.6623 22.566C58.6776 22.5605 58.6938 22.5585 58.71 22.56H60.89C60.89 22.56 60.98 22.56 61.01 22.68C61.2136 23.144 61.5653 23.5273 62.01 23.77C62.6704 24.1422 63.4229 24.3191 64.18 24.28H64.15ZM60.34 14.88C60.2763 16.0355 60.6314 17.1752 61.34 18.09C61.6705 18.4929 62.09 18.8137 62.5654 19.0271C63.0408 19.2406 63.5593 19.3408 64.08 19.32C64.5902 19.3453 65.099 19.2477 65.5637 19.0354C66.0283 18.8231 66.4351 18.5023 66.75 18.1C67.4373 17.1704 67.7898 16.0355 67.75 14.88C67.7912 13.7213 67.4388 12.5827 66.75 11.65C66.4351 11.2477 66.0283 10.927 65.5637 10.7147C65.099 10.5023 64.5902 10.4047 64.08 10.43C63.56 10.4073 63.0418 10.5056 62.5663 10.7173C62.0908 10.929 61.671 11.2483 61.34 11.65C60.6332 12.5735 60.2786 13.7187 60.34 14.88Z" fill="#1E2B3C"/>
<path d="M75.78 3.71999V6.34999C75.7818 6.3684 75.7793 6.38697 75.7728 6.40427C75.7662 6.42157 75.7558 6.43712 75.7422 6.4497C75.7287 6.46229 75.7124 6.47157 75.6946 6.47682C75.6769 6.48208 75.6582 6.48316 75.64 6.47999H73.02C72.94 6.47999 72.9 6.47999 72.9 6.34999V3.71999C72.8984 3.70385 72.9005 3.68756 72.906 3.6723C72.9114 3.65703 72.9202 3.64317 72.9317 3.63171C72.9432 3.62024 72.957 3.61145 72.9723 3.60596C72.9876 3.60048 73.0038 3.59844 73.02 3.59999H75.64C75.73 3.59999 75.78 3.59999 75.78 3.71999ZM75.52 8.71999V21.12C75.5215 21.1361 75.5195 21.1524 75.514 21.1677C75.5085 21.1829 75.4997 21.1968 75.4883 21.2083C75.4768 21.2197 75.4629 21.2285 75.4477 21.234C75.4324 21.2395 75.4161 21.2415 75.4 21.24H73.26C73.2438 21.2415 73.2275 21.2395 73.2123 21.234C73.197 21.2285 73.1832 21.2197 73.1717 21.2083C73.1602 21.1968 73.1514 21.1829 73.146 21.1677C73.1405 21.1524 73.1384 21.1361 73.14 21.12V8.67999C73.1384 8.66385 73.1405 8.64756 73.146 8.6323C73.1514 8.61703 73.1602 8.60317 73.1717 8.59171C73.1832 8.58024 73.197 8.57145 73.2123 8.56596C73.2275 8.56048 73.2438 8.55844 73.26 8.55999H75.4C75.4161 8.55844 75.4324 8.56048 75.4477 8.56596C75.4629 8.57145 75.4768 8.58024 75.4883 8.59171C75.4997 8.60317 75.5085 8.61703 75.514 8.6323C75.5195 8.64756 75.5215 8.66385 75.52 8.67999" fill="#1E2B3C"/>
<path d="M85.62 19.2V21.08C85.62 21.16 85.57 21.2 85.48 21.2H83.57C81.39 21.2467 80.2934 20.2467 80.28 18.2V10.56C80.28 10.48 80.28 10.43 80.16 10.43H77.94C77.86 10.43 77.82 10.43 77.82 10.3V8.67999C77.8185 8.66385 77.8205 8.64756 77.826 8.6323C77.8315 8.61704 77.8403 8.60318 77.8517 8.59171C77.8632 8.58024 77.8771 8.57145 77.8923 8.56597C77.9076 8.56048 77.9239 8.55844 77.94 8.55999H80.16C80.24 8.55999 80.28 8.55999 80.28 8.41999V5.05999C80.28 4.96999 80.28 4.92999 80.42 4.92999H82.54C82.62 4.92999 82.66 4.92999 82.66 5.05999V8.41999C82.66 8.50999 82.66 8.54999 82.79 8.55999H85.48C85.4971 8.55863 85.5143 8.56065 85.5306 8.56595C85.5469 8.57125 85.562 8.57972 85.575 8.59088C85.588 8.60203 85.5987 8.61564 85.6064 8.63094C85.6141 8.64623 85.6188 8.6629 85.62 8.67999V10.3C85.62 10.39 85.57 10.43 85.48 10.43H82.79C82.7 10.43 82.66 10.43 82.66 10.56V17.84C82.66 18.67 83.12 19.08 84.02 19.08H85.48C85.57 19.08 85.62 19.08 85.62 19.2Z" fill="#1E2B3C"/>
<path d="M100.61 19.2V21.08C100.612 21.0961 100.61 21.1124 100.604 21.1277C100.599 21.143 100.59 21.1568 100.578 21.1683C100.567 21.1798 100.553 21.1885 100.538 21.194C100.522 21.1995 100.506 21.2016 100.49 21.2H99.58C98.3 21.2 97.48 20.82 97.12 20.06C97.07 19.93 96.99 19.91 96.89 20.01C96.4003 20.4596 95.8209 20.8004 95.19 21.01C94.3176 21.3198 93.3954 21.4655 92.47 21.44C91.1333 21.5342 89.8069 21.1476 88.73 20.35C88.3118 20.0071 87.978 19.5726 87.7543 19.0802C87.5306 18.5878 87.4231 18.0506 87.44 17.51C87.4255 16.9617 87.5465 16.4183 87.7925 15.9281C88.0385 15.4379 88.4018 15.016 88.85 14.7C90.0672 13.9251 91.5006 13.5606 92.94 13.66H95.74C96.2067 13.66 96.4767 13.54 96.55 13.3C96.5687 13.0604 96.5687 12.8196 96.55 12.58C96.5129 12.0792 96.3246 11.6015 96.01 11.21C95.65 10.7 94.75 10.43 93.3 10.41C92.4863 10.3432 91.6751 10.5664 91.01 11.04C90.7629 11.2407 90.5657 11.496 90.4338 11.7857C90.302 12.0755 90.239 12.3918 90.25 12.71C90.25 12.79 90.25 12.83 90.12 12.83H88.01C87.9939 12.8316 87.9776 12.8295 87.9623 12.824C87.9471 12.8185 87.9332 12.8098 87.9217 12.7983C87.9103 12.7868 87.9015 12.773 87.896 12.7577C87.8905 12.7424 87.8885 12.7261 87.89 12.71C87.8613 12.0784 87.9918 11.4497 88.2697 10.8818C88.5475 10.3139 88.9637 9.82495 89.48 9.46C90.6606 8.66755 92.0586 8.26214 93.48 8.3C94.8921 8.22403 96.2861 8.64507 97.42 9.49C97.9278 9.90422 98.3302 10.4328 98.5944 11.0324C98.8586 11.6321 98.977 12.2858 98.94 12.94V17.84C98.9058 18.1847 98.9718 18.5319 99.13 18.84C99.26 19.03 99.55 19.13 100 19.13H100.48C100.496 19.1285 100.512 19.1305 100.528 19.136C100.543 19.1415 100.557 19.1503 100.568 19.1617C100.58 19.1732 100.589 19.187 100.594 19.2023C100.6 19.2176 100.602 19.2339 100.6 19.25L100.61 19.2ZM96.6 15.7C96.6 15.62 96.6 15.58 96.46 15.58H92.94C92.0756 15.5333 91.2166 15.7419 90.47 16.18C90.2684 16.3332 90.1055 16.5314 89.9943 16.7589C89.8832 16.9864 89.8269 17.2368 89.83 17.49C89.826 17.7456 89.8796 17.9988 89.9869 18.2308C90.0943 18.4628 90.2526 18.6676 90.45 18.83C91.0314 19.2418 91.7404 19.4332 92.45 19.37C93.568 19.4529 94.6739 19.0939 95.53 18.37C95.8527 18.0674 96.1125 17.704 96.2944 17.3007C96.4763 16.8974 96.5767 16.4622 96.59 16.02L96.6 15.7Z" fill="#1E2B3C"/>
<path d="M105.43 3.71999V21.08C105.432 21.0961 105.43 21.1124 105.424 21.1277C105.419 21.1429 105.41 21.1568 105.398 21.1683C105.387 21.1797 105.373 21.1885 105.358 21.194C105.342 21.1995 105.326 21.2015 105.31 21.2H103.18C103.163 21.2014 103.147 21.1993 103.131 21.1939C103.115 21.1885 103.101 21.1799 103.089 21.1686C103.076 21.1573 103.067 21.1436 103.06 21.1283C103.053 21.1131 103.05 21.0966 103.05 21.08V3.71999C103.05 3.63999 103.05 3.59999 103.18 3.59999H105.31C105.326 3.59844 105.342 3.60048 105.358 3.60596C105.373 3.61145 105.387 3.62024 105.398 3.63171C105.41 3.64317 105.419 3.65703 105.424 3.6723C105.43 3.68756 105.432 3.70385 105.43 3.71999Z" fill="#1E2B3C"/>
<path d="M35.48 33.56H37.36C37.36 33.56 37.45 33.56 37.49 33.68L37.74 34.68C37.7498 34.7056 37.766 34.7282 37.787 34.7457C37.808 34.7632 37.8331 34.775 37.86 34.78C37.8864 34.7777 37.9119 34.7693 37.9345 34.7554C37.9571 34.7415 37.9761 34.7226 37.99 34.7C38.4354 34.2578 38.9709 33.9167 39.56 33.7C40.1927 33.4276 40.8714 33.2783 41.56 33.26C42.3821 33.2273 43.2013 33.3771 43.9586 33.6987C44.716 34.0203 45.3926 34.5057 45.94 35.12C47.0576 36.4469 47.6327 38.1471 47.55 39.88C47.6317 41.6128 47.0567 43.3126 45.94 44.64C45.3925 45.2429 44.7189 45.7177 43.967 46.0305C43.2151 46.3433 42.4035 46.4866 41.59 46.45C40.8235 46.4559 40.0664 46.2812 39.38 45.94C38.8692 45.7163 38.3993 45.4087 37.99 45.03C37.94 44.94 37.86 44.94 37.82 44.94C37.78 44.94 37.74 45 37.74 45.05V51.05C37.74 51.13 37.74 51.17 37.61 51.18H35.48C35.4 51.18 35.36 51.18 35.36 51.05V33.68C35.3585 33.6639 35.3605 33.6476 35.366 33.6323C35.3715 33.6171 35.3803 33.6032 35.3917 33.5917C35.4032 33.5803 35.417 33.5715 35.4323 33.566C35.4476 33.5605 35.4639 33.5585 35.48 33.56ZM45.14 39.88C45.2034 38.7215 44.8485 37.5788 44.14 36.66C43.8074 36.2569 43.3862 35.9361 42.9091 35.7228C42.4321 35.5094 41.9122 35.4092 41.39 35.43C40.8779 35.4014 40.3665 35.4975 39.8997 35.71C39.433 35.9225 39.0247 36.245 38.71 36.65C38.0467 37.5925 37.716 38.7288 37.77 39.88C37.7302 41.0355 38.0827 42.1704 38.77 43.1C39.0848 43.5023 39.4917 43.8231 39.9563 44.0354C40.421 44.2477 40.9298 44.3453 41.44 44.32C41.9619 44.3386 42.481 44.2373 42.9577 44.0241C43.4344 43.8109 43.8559 43.4914 44.19 43.09C44.8986 42.1752 45.2537 41.0355 45.19 39.88" fill="#1E2B3C"/>
<path d="M62.2 39.88C62.289 41.6255 61.6934 43.3369 60.54 44.65C59.3089 45.8059 57.6837 46.4493 55.995 46.4493C54.3063 46.4493 52.6811 45.8059 51.45 44.65C50.3039 43.3332 49.7125 41.6236 49.8 39.88C49.7156 38.1369 50.3066 36.4284 51.45 35.11C52.6822 33.9564 54.307 33.3145 55.995 33.3145C57.683 33.3145 59.3078 33.9564 60.54 35.11C61.6904 36.4289 62.2853 38.142 62.2 39.89V39.88ZM58.8 43.1C59.4638 42.1612 59.8202 41.0398 59.8202 39.89C59.8202 38.7403 59.4638 37.6188 58.8 36.68C58.4618 36.2757 58.0353 35.9545 57.5532 35.7413C57.0712 35.528 56.5466 35.4284 56.02 35.45C55.4913 35.4278 54.9645 35.5261 54.4795 35.7375C53.9944 35.9488 53.5637 36.2677 53.22 36.67C52.544 37.6057 52.1802 38.7307 52.1802 39.885C52.1802 41.0394 52.544 42.1643 53.22 43.1C53.5742 43.4875 54.0052 43.7969 54.4855 44.0086C54.9659 44.2203 55.4851 44.3297 56.01 44.3297C56.5349 44.3297 57.0541 44.2203 57.5345 44.0086C58.0148 43.7969 58.4458 43.4875 58.8 43.1Z" fill="#1E2B3C"/>
<path d="M75.12 37.83H72.94C72.9238 37.8315 72.9075 37.8295 72.8923 37.824C72.877 37.8185 72.8632 37.8097 72.8517 37.7983C72.8402 37.7868 72.8314 37.7729 72.826 37.7577C72.8205 37.7424 72.8184 37.7261 72.82 37.71C72.83 37.3869 72.7615 37.0662 72.6204 36.7753C72.4794 36.4845 72.2699 36.2322 72.01 36.04C71.3533 35.5984 70.57 35.3841 69.78 35.43C69.0489 35.3757 68.3182 35.5393 67.68 35.9C67.4823 36.0127 67.3162 36.1735 67.1974 36.3676C67.0785 36.5617 67.0106 36.7826 67 37.01C66.9783 37.1668 66.9942 37.3266 67.0464 37.4761C67.0985 37.6256 67.1855 37.7606 67.3 37.87C67.5 38.02 67.68 38.15 67.86 38.26C68.6629 38.4846 69.4876 38.622 70.32 38.67C71.4596 38.7694 72.5801 39.0251 73.65 39.43C74.2362 39.66 74.7352 40.0688 75.0763 40.5982C75.4173 41.1277 75.583 41.7511 75.55 42.38C75.5936 42.9825 75.4769 43.5858 75.2116 44.1286C74.9464 44.6714 74.5421 45.1342 74.04 45.47C72.7989 46.1931 71.3746 46.5405 69.94 46.47C68.4986 46.5313 67.0819 46.0815 65.94 45.2C65.4722 44.8213 65.0974 44.3405 64.8443 43.7945C64.5912 43.2484 64.4666 42.6517 64.48 42.05C64.4784 42.0338 64.4805 42.0175 64.486 42.0023C64.4914 41.987 64.5002 41.9732 64.5117 41.9617C64.5232 41.9502 64.537 41.9414 64.5523 41.936C64.5675 41.9305 64.5838 41.9284 64.6 41.93H66.71C66.81 41.93 66.86 41.97 66.86 42.05C66.8603 42.3755 66.9431 42.6957 67.1004 42.9807C67.2578 43.2657 67.4847 43.5062 67.76 43.68C68.4634 44.1365 69.2924 44.3603 70.13 44.32C72.21 44.32 73.25 43.69 73.25 42.43C73.2564 42.2833 73.2332 42.1368 73.1816 41.9994C73.1301 41.8619 73.0513 41.7362 72.95 41.63C72.776 41.4469 72.5645 41.3036 72.33 41.21L71.87 41.05C71.716 41.0075 71.5588 40.9774 71.4 40.96L70.76 40.85C70.5528 40.8059 70.3418 40.7824 70.13 40.78C68.8607 40.7153 67.6122 40.431 66.44 39.94C65.7421 39.6166 65.1845 39.0519 64.87 38.35C64.7192 37.9195 64.6448 37.466 64.65 37.01C64.6509 36.4892 64.7789 35.9766 65.0229 35.5165C65.2669 35.0565 65.6194 34.6629 66.05 34.37C67.1447 33.6022 68.4646 33.2221 69.8 33.29C71.1861 33.237 72.5517 33.6372 73.69 34.43C74.1987 34.8037 74.606 35.2985 74.8749 35.8696C75.1438 36.4406 75.2659 37.0698 75.23 37.7C75.23 37.78 75.18 37.82 75.12 37.82" fill="#1E2B3C"/>
<path d="M84.94 44.2V46.08C84.94 46.16 84.94 46.2 84.81 46.2H82.94C80.76 46.25 79.66 45.27 79.66 43.25V35.56C79.6615 35.5425 79.6592 35.525 79.6532 35.5085C79.6472 35.492 79.6377 35.4771 79.6253 35.4647C79.6129 35.4523 79.598 35.4428 79.5815 35.4368C79.565 35.4308 79.5474 35.4285 79.53 35.43H77.29C77.21 35.43 77.17 35.43 77.17 35.3V33.68C77.1684 33.6638 77.1705 33.6476 77.176 33.6323C77.1815 33.617 77.1902 33.6032 77.2017 33.5917C77.2132 33.5802 77.227 33.5715 77.2423 33.566C77.2576 33.5605 77.2738 33.5584 77.29 33.56H79.51C79.6 33.56 79.64 33.56 79.64 33.42V30.06C79.64 29.97 79.64 29.93 79.77 29.93H81.94C82.03 29.93 82.07 29.93 82.07 30.06V33.42C82.0671 33.4373 82.068 33.4551 82.0727 33.4721C82.0774 33.489 82.0858 33.5047 82.0972 33.5181C82.1087 33.5315 82.1229 33.5421 82.1389 33.5494C82.155 33.5566 82.1724 33.5602 82.19 33.56H84.89C84.9066 33.5586 84.9233 33.5607 84.939 33.5661C84.9547 33.5715 84.9692 33.5801 84.9814 33.5914C84.9936 33.6027 85.0034 33.6164 85.01 33.6316C85.0166 33.6469 85.0201 33.6634 85.02 33.68V35.3C85.02 35.39 85.02 35.43 84.89 35.43H82.14C82.06 35.43 82.02 35.43 82.02 35.56V42.84C82.02 43.67 82.47 44.08 83.37 44.08H84.84C84.93 44.08 84.97 44.08 84.97 44.2" fill="#1E2B3C"/>
<path d="M99.22 46.2H96.94C96.8947 46.2009 96.8498 46.1904 96.8096 46.1695C96.7694 46.1485 96.7352 46.1177 96.71 46.08L92.71 39.26C92.6567 39.1934 92.5967 39.1934 92.53 39.26L89.74 41.7C89.7217 41.7518 89.7217 41.8083 89.74 41.86V46.08C89.74 46.16 89.69 46.2 89.6 46.2H87.44C87.36 46.2 87.31 46.2 87.31 46.08V28.72C87.31 28.64 87.31 28.6 87.44 28.6H89.56C89.5771 28.5987 89.5943 28.6007 89.6106 28.606C89.6269 28.6113 89.6419 28.6198 89.655 28.6309C89.668 28.6421 89.6786 28.6557 89.6864 28.671C89.6941 28.6863 89.6987 28.7029 89.7 28.72V38.53C89.7 38.53 89.7 38.53 89.76 38.6C89.7757 38.6122 89.7951 38.6188 89.815 38.6188C89.8349 38.6188 89.8542 38.6122 89.87 38.6L95.62 33.7C95.7246 33.6163 95.8562 33.5736 95.99 33.58H99.07C99.0779 33.5786 99.086 33.5788 99.0938 33.5805C99.1016 33.5823 99.109 33.5856 99.1156 33.5902C99.1221 33.5949 99.1276 33.6008 99.1318 33.6077C99.136 33.6145 99.1388 33.6221 99.14 33.63C99.14 33.63 99.14 33.63 99.14 33.7L94.49 37.7C94.49 37.7 94.49 37.81 94.49 37.89L99.31 46.14C99.3567 46.22 99.3267 46.26 99.22 46.26" fill="#1E2B3C"/>
<path d="M114.16 44.2V46.08C114.162 46.0961 114.16 46.1124 114.154 46.1277C114.149 46.1429 114.14 46.1568 114.128 46.1683C114.117 46.1797 114.103 46.1885 114.088 46.194C114.072 46.1995 114.056 46.2015 114.04 46.2H113.13C111.85 46.2 111.03 45.82 110.67 45.06C110.67 44.93 110.54 44.91 110.44 45.06C109.95 45.5096 109.371 45.8504 108.74 46.06C107.868 46.3697 106.945 46.5155 106.02 46.49C104.683 46.5842 103.357 46.1976 102.28 45.4C101.862 45.0571 101.528 44.6226 101.304 44.1302C101.081 43.6378 100.973 43.1005 100.99 42.56C100.975 42.0117 101.097 41.4683 101.343 40.9781C101.588 40.4879 101.952 40.066 102.4 39.75C103.613 38.9737 105.043 38.6057 106.48 38.7H109.28C109.747 38.7 110.017 38.58 110.09 38.34C110.109 38.1003 110.109 37.8596 110.09 37.62C110.053 37.1192 109.865 36.6414 109.55 36.25C109.19 35.74 108.29 35.47 106.84 35.45C106.026 35.3832 105.215 35.6064 104.55 36.08C104.303 36.2807 104.106 36.5359 103.974 36.8257C103.842 37.1154 103.779 37.4318 103.79 37.75C103.79 37.83 103.79 37.87 103.66 37.87H101.53C101.514 37.8715 101.498 37.8695 101.482 37.864C101.467 37.8585 101.453 37.8497 101.442 37.8383C101.43 37.8268 101.421 37.8129 101.416 37.7977C101.41 37.7824 101.408 37.7661 101.41 37.75C101.381 37.1184 101.512 36.4897 101.79 35.9218C102.067 35.3539 102.484 34.8649 103 34.5C104.181 33.7075 105.579 33.3021 107 33.34C108.412 33.264 109.806 33.685 110.94 34.53C111.449 34.936 111.856 35.4563 112.127 36.0487C112.398 36.6411 112.526 37.289 112.5 37.94V42.84C112.466 43.1847 112.532 43.5319 112.69 43.84C112.82 44.03 113.11 44.13 113.56 44.13H114.04C114.056 44.1284 114.072 44.1305 114.088 44.136C114.103 44.1414 114.117 44.1502 114.128 44.1617C114.14 44.1732 114.149 44.187 114.154 44.2023C114.16 44.2175 114.162 44.2338 114.16 44.25V44.2ZM110.16 40.7C110.16 40.62 110.11 40.58 110.02 40.58H106.52C105.656 40.5332 104.797 40.7419 104.05 41.18C103.848 41.3331 103.685 41.5314 103.574 41.7589C103.463 41.9864 103.407 42.2368 103.41 42.49C103.405 42.7442 103.459 42.9962 103.566 43.2267C103.674 43.4572 103.832 43.6601 104.03 43.82C104.607 44.2419 105.318 44.4376 106.03 44.37C107.148 44.4529 108.254 44.0938 109.11 43.37C109.433 43.0673 109.692 42.704 109.874 42.3007C110.056 41.8974 110.157 41.4622 110.17 41.02L110.16 40.7Z" fill="#1E2B3C"/>
<path d="M126.6 37.83H124.45C124.434 37.8315 124.418 37.8295 124.402 37.824C124.387 37.8185 124.373 37.8097 124.362 37.7983C124.35 37.7868 124.342 37.773 124.336 37.7577C124.331 37.7424 124.329 37.7261 124.33 37.71C124.34 37.3869 124.272 37.0662 124.131 36.7753C123.989 36.4845 123.78 36.2322 123.52 36.04C122.864 35.6653 122.127 35.4567 121.372 35.4323C120.618 35.4079 119.869 35.5685 119.19 35.9C118.991 36.0122 118.824 36.1727 118.703 36.3667C118.582 36.5607 118.513 36.7819 118.5 37.01C118.48 37.1677 118.497 37.3279 118.551 37.4775C118.605 37.6271 118.694 37.7616 118.81 37.87C118.989 38.011 119.176 38.1413 119.37 38.26C120.169 38.4851 120.991 38.6226 121.82 38.67C122.963 38.7684 124.087 39.0241 125.16 39.43C125.746 39.6601 126.245 40.0688 126.586 40.5982C126.927 41.1277 127.093 41.7511 127.06 42.38C127.104 42.9825 126.987 43.5859 126.722 44.1286C126.457 44.6714 126.052 45.1342 125.55 45.47C124.309 46.1921 122.885 46.5394 121.45 46.47C119.984 46.559 118.535 46.1151 117.37 45.22C116.908 44.8333 116.54 44.3474 116.293 43.7985C116.045 43.2496 115.924 42.6519 115.94 42.05C115.94 41.97 115.94 41.93 116.07 41.93H118.18C118.27 41.93 118.32 41.93 118.32 42.05C118.32 42.3755 118.403 42.6957 118.561 42.9807C118.718 43.2657 118.945 43.5063 119.22 43.68C119.923 44.1365 120.753 44.3604 121.59 44.32C123.68 44.32 124.72 43.69 124.72 42.43C124.728 42.2823 124.704 42.1348 124.651 41.9969C124.597 41.859 124.515 41.734 124.41 41.63C124.238 41.4449 124.026 41.3013 123.79 41.21L123.34 41.05C123.182 41.0088 123.022 40.9787 122.86 40.96L122.23 40.85C122.02 40.8059 121.805 40.7824 121.59 40.78C120.334 40.7107 119.1 40.4266 117.94 39.94C117.24 39.6163 116.679 39.0521 116.36 38.35C116.214 37.9183 116.14 37.4657 116.14 37.01C116.143 36.4885 116.273 35.9756 116.519 35.5156C116.764 35.0556 117.118 34.6624 117.55 34.37C118.642 33.6043 119.958 33.2243 121.29 33.29C122.679 33.237 124.048 33.6371 125.19 34.43C125.697 34.8049 126.104 35.3 126.373 35.8708C126.641 36.4415 126.764 37.07 126.73 37.7C126.73 37.78 126.68 37.82 126.62 37.82" fill="#1E2B3C"/>
<path d="M139.99 37.83H137.84C137.824 37.8315 137.808 37.8295 137.792 37.824C137.777 37.8185 137.763 37.8097 137.752 37.7983C137.74 37.7868 137.731 37.7729 137.726 37.7577C137.72 37.7424 137.718 37.7261 137.72 37.71C137.733 37.3895 137.67 37.0704 137.534 36.7798C137.398 36.4891 137.194 36.2354 136.94 36.04C136.283 35.5984 135.5 35.3841 134.71 35.43C133.979 35.3733 133.247 35.537 132.61 35.9C132.411 36.0122 132.244 36.1727 132.123 36.3667C132.002 36.5607 131.933 36.7819 131.92 37.01C131.9 37.1677 131.917 37.3279 131.971 37.4775C132.025 37.627 132.114 37.7616 132.23 37.87C132.409 38.011 132.596 38.1412 132.79 38.26C133.589 38.4851 134.411 38.6226 135.24 38.67C136.383 38.7683 137.507 39.0241 138.58 39.43C139.166 39.66 139.665 40.0688 140.006 40.5982C140.347 41.1277 140.513 41.7511 140.48 42.38C140.52 42.9853 140.399 43.5906 140.129 44.1336C139.858 44.6766 139.448 45.1378 138.94 45.47C137.698 46.1921 136.275 46.5394 134.84 46.47C133.374 46.5581 131.925 46.1143 130.76 45.22C130.294 44.8394 129.919 44.3584 129.665 43.813C129.41 43.2676 129.282 42.6718 129.29 42.07C129.29 41.99 129.34 41.95 129.42 41.95H131.53C131.63 41.95 131.67 41.95 131.67 42.07C131.67 42.3955 131.753 42.7157 131.91 43.0007C132.068 43.2857 132.295 43.5262 132.57 43.7C133.276 44.1585 134.109 44.3825 134.95 44.34C137.03 44.34 138.07 43.71 138.07 42.45C138.076 42.3033 138.053 42.1568 138.002 42.0194C137.95 41.8819 137.871 41.7563 137.77 41.65C137.593 41.4664 137.378 41.3232 137.14 41.23L136.69 41.07C136.536 41.0285 136.379 40.9985 136.22 40.98L135.58 40.87C135.373 40.8259 135.162 40.8024 134.95 40.8C133.698 40.7327 132.467 40.452 131.31 39.97C130.61 39.6463 130.049 39.0821 129.73 38.38C129.584 37.9483 129.51 37.4957 129.51 37.04C129.512 36.5133 129.643 35.9952 129.893 35.5313C130.142 35.0674 130.502 34.672 130.94 34.38C132.035 33.6122 133.355 33.2321 134.69 33.3C136.076 33.247 137.442 33.6472 138.58 34.44C139.087 34.8149 139.494 35.31 139.762 35.8807C140.031 36.4515 140.154 37.08 140.12 37.71C140.12 37.79 140.12 37.83 140.01 37.83" fill="#1E2B3C"/>
<path d="M154.6 39.88C154.6 40.44 154.54 40.72 154.42 40.72H145.29C145.2 40.72 145.16 40.72 145.16 40.86C145.154 41.3245 145.243 41.7853 145.421 42.2143C145.599 42.6434 145.863 43.0316 146.196 43.3554C146.529 43.6791 146.925 43.9316 147.359 44.0975C147.793 44.2633 148.256 44.339 148.72 44.32C149.368 44.3787 150.02 44.245 150.592 43.9355C151.165 43.626 151.634 43.1545 151.94 42.58C151.949 42.5448 151.97 42.5137 151.999 42.4919C152.028 42.4701 152.064 42.4588 152.1 42.46H154.16C154.247 42.46 154.287 42.5 154.28 42.58C154.001 43.7501 153.286 44.7696 152.28 45.43C151.221 46.1301 149.969 46.4799 148.7 46.43C147.892 46.4655 147.087 46.3215 146.342 46.0086C145.597 45.6956 144.93 45.2214 144.39 44.62C143.272 43.2854 142.697 41.579 142.78 39.84C142.696 38.1186 143.244 36.4259 144.32 35.08C144.875 34.4715 145.559 33.995 146.322 33.6853C147.085 33.3755 147.908 33.2405 148.73 33.29C149.548 33.2363 150.368 33.3696 151.127 33.6797C151.885 33.9898 152.564 34.4687 153.11 35.08C154.164 36.4429 154.693 38.1395 154.6 39.86V39.88ZM152.22 38.71C152.211 37.8698 151.895 37.0621 151.33 36.44C150.623 35.7697 149.681 35.4036 148.707 35.4204C147.732 35.4372 146.804 35.8356 146.12 36.53C145.528 37.1078 145.172 37.8846 145.12 38.71C145.12 38.8 145.12 38.84 145.25 38.84H152.06C152.14 38.84 152.18 38.84 152.18 38.71" fill="#1E2B3C"/>
</g>
<defs>
<clipPath id="clip0_1_350">
<rect width="154.59" height="51.16" fill="white"/>
</clipPath>
</defs>
</svg>
