<svg width="155" height="52" viewBox="0 0 155 52" fill="none" xmlns="http://www.w3.org/2000/svg">
<g clip-path="url(#clip0_1_386)">
<path d="M12.67 0.160156H0.5C0.368193 0.162716 0.242499 0.216217 0.14928 0.309436C0.0560606 0.402655 0.00256007 0.52835 0 0.660156V24.4002C0.00256007 24.532 0.0560606 24.6577 0.14928 24.7509C0.242499 24.8441 0.368193 24.8976 0.5 24.9002H12.67C15.9507 24.9002 19.0971 23.5969 21.4169 21.2771C23.7367 18.9572 25.04 15.8109 25.04 12.5302C25.04 9.24943 23.7367 6.10307 21.4169 3.78325C19.0971 1.46342 15.9507 0.160156 12.67 0.160156ZM13.86 21.1602C12.0187 21.477 10.1242 21.1996 8.45107 20.3681C6.77789 19.5366 5.4128 18.1941 4.55347 16.535C3.69414 14.8759 3.38516 12.9864 3.67129 11.14C3.95741 9.29366 4.82378 7.58627 6.14495 6.26511C7.46612 4.94394 9.1735 4.07757 11.0199 3.79144C12.8663 3.50532 14.7558 3.81429 16.4148 4.67363C18.0739 5.53296 19.4164 6.89805 20.2479 8.57122C21.0795 10.2444 21.3569 12.1388 21.04 13.9802C20.7316 15.7721 19.8757 17.4245 18.59 18.7102C17.3043 19.9959 15.6519 20.8518 13.86 21.1602Z" fill="white"/>
<path d="M35.39 3.88015C35.3885 3.86401 35.3905 3.84772 35.396 3.83246C35.4015 3.8172 35.4103 3.80334 35.4217 3.79187C35.4332 3.7804 35.4471 3.77161 35.4623 3.76613C35.4776 3.76064 35.4939 3.7586 35.51 3.76015H41.94C43.0271 3.69904 44.1136 3.89021 45.1146 4.3187C46.1156 4.74719 47.0039 5.40139 47.71 6.23015C49.1201 8.10199 49.8279 10.4096 49.71 12.7502C49.8463 15.0376 49.1342 17.295 47.71 19.0902C46.9782 19.8751 46.0805 20.4871 45.0824 20.8815C44.0843 21.2759 43.0108 21.4428 41.94 21.3702H35.54C35.46 21.3702 35.42 21.3202 35.42 21.2402L35.39 3.88015ZM41.97 5.88015H37.94C37.86 5.88015 37.82 5.88015 37.82 6.01015V19.1002C37.8185 19.1163 37.8205 19.1326 37.826 19.1478C37.8315 19.1631 37.8403 19.177 37.8517 19.1884C37.8632 19.1999 37.8771 19.2087 37.8923 19.2142C37.9076 19.2197 37.9239 19.2217 37.94 19.2202H41.94C42.689 19.2735 43.4401 19.1523 44.1342 18.8659C44.8284 18.5796 45.4465 18.136 45.94 17.5702C46.9504 16.1743 47.442 14.4696 47.33 12.7502C47.4264 10.9719 46.9267 9.21231 45.91 7.75015C45.4529 7.13692 44.8512 6.64621 44.1586 6.3217C43.4659 5.99719 42.7038 5.84894 41.94 5.89015" fill="white"/>
<path d="M55.44 3.88015V6.51015C55.4415 6.5276 55.4392 6.54518 55.4332 6.56165C55.4272 6.57811 55.4177 6.59307 55.4053 6.60546C55.3929 6.61785 55.378 6.62737 55.3615 6.63337C55.345 6.63936 55.3275 6.64167 55.31 6.64015H52.68C52.6 6.64015 52.56 6.64015 52.56 6.51015V3.88015C52.5585 3.864 52.5605 3.84772 52.566 3.83245C52.5715 3.81719 52.5803 3.80333 52.5917 3.79186C52.6032 3.78039 52.6171 3.7716 52.6323 3.76612C52.6476 3.76064 52.6639 3.7586 52.68 3.76015H55.31C55.4 3.76015 55.44 3.76015 55.44 3.88015ZM55.19 8.88015V21.2801C55.19 21.3601 55.19 21.4001 55.06 21.4001H52.94C52.9239 21.4017 52.9076 21.3997 52.8923 21.3942C52.8771 21.3887 52.8632 21.3799 52.8517 21.3684C52.8403 21.357 52.8315 21.3431 52.826 21.3278C52.8205 21.3126 52.8185 21.2963 52.82 21.2801V8.84015C52.8185 8.824 52.8205 8.80772 52.826 8.79245C52.8315 8.77719 52.8403 8.76333 52.8517 8.75186C52.8632 8.74039 52.8771 8.7316 52.8923 8.72612C52.9076 8.72064 52.9239 8.7186 52.94 8.72015H55.07C55.15 8.72015 55.2 8.72015 55.2 8.84015" fill="white"/>
<path d="M64.15 24.4402C64.6449 24.489 65.1444 24.4243 65.6105 24.251C66.0767 24.0778 66.4972 23.8004 66.84 23.4402C67.4254 22.7377 67.7316 21.8441 67.7 20.9302V20.2502C67.7 20.2002 67.7 20.1702 67.61 20.1402C67.5804 20.1311 67.5487 20.1321 67.5198 20.1429C67.4908 20.1538 67.4663 20.1739 67.45 20.2002C67.0711 20.6095 66.6068 20.9305 66.09 21.1402C65.4021 21.4772 64.646 21.6517 63.88 21.6502C63.0798 21.6717 62.2844 21.5191 61.5489 21.2032C60.8134 20.8872 60.1553 20.4154 59.62 19.8202C58.4532 18.4979 57.8501 16.7714 57.94 15.0102C57.86 13.2868 58.4352 11.5969 59.55 10.2802C60.0963 9.67791 60.7681 9.20281 61.5179 8.88835C62.2678 8.57389 63.0775 8.42773 63.89 8.46018C64.5785 8.46967 65.2584 8.61583 65.89 8.89018C66.4906 9.10734 67.0391 9.448 67.5 9.89018C67.62 10.0002 67.7 9.99018 67.75 9.89018L68 8.89018C68 8.81018 68.08 8.77018 68.13 8.77018H69.94C69.9561 8.76863 69.9724 8.77067 69.9877 8.77615C70.0029 8.78164 70.0168 8.79043 70.0283 8.80189C70.0397 8.81336 70.0485 8.82722 70.054 8.84249C70.0595 8.85775 70.0615 8.87403 70.06 8.89018V20.8902C70.0878 21.6502 69.9563 22.4076 69.6738 23.1137C69.3914 23.8198 68.9643 24.459 68.42 24.9902C67.8786 25.5102 67.2389 25.917 66.5383 26.1866C65.8377 26.4562 65.0903 26.5832 64.34 26.5602C62.9272 26.6091 61.5327 26.2291 60.34 25.4702C59.8685 25.1926 59.4661 24.8117 59.163 24.3561C58.8599 23.9006 58.664 23.3823 58.59 22.8402C58.5884 22.824 58.5905 22.8077 58.596 22.7925C58.6014 22.7772 58.6102 22.7634 58.6217 22.7519C58.6332 22.7404 58.647 22.7316 58.6623 22.7262C58.6776 22.7207 58.6938 22.7186 58.71 22.7202H60.89C60.89 22.7202 60.98 22.7202 61.01 22.8402C61.2136 23.3041 61.5653 23.6875 62.01 23.9302C62.6704 24.3024 63.4229 24.4792 64.18 24.4402H64.15ZM60.34 15.0402C60.2763 16.1956 60.6314 17.3353 61.34 18.2502C61.6705 18.6531 62.09 18.9739 62.5654 19.1873C63.0408 19.4007 63.5593 19.501 64.08 19.4802C64.5902 19.5055 65.099 19.4079 65.5637 19.1955C66.0283 18.9832 66.4351 18.6625 66.75 18.2602C67.4373 17.3305 67.7898 16.1956 67.75 15.0402C67.7912 13.8814 67.4388 12.7429 66.75 11.8102C66.4351 11.4079 66.0283 11.0871 65.5637 10.8748C65.099 10.6625 64.5902 10.5649 64.08 10.5902C63.56 10.5674 63.0418 10.6658 62.5663 10.8775C62.0908 11.0892 61.671 11.4085 61.34 11.8102C60.6332 12.7337 60.2786 13.8789 60.34 15.0402Z" fill="white"/>
<path d="M75.78 3.88015V6.51015C75.7818 6.52855 75.7793 6.54713 75.7728 6.56443C75.7662 6.58172 75.7558 6.59727 75.7422 6.60986C75.7287 6.62245 75.7124 6.63173 75.6946 6.63698C75.6769 6.64223 75.6582 6.64332 75.64 6.64015H73.02C72.94 6.64015 72.9 6.64015 72.9 6.51015V3.88015C72.8984 3.864 72.9005 3.84772 72.906 3.83245C72.9114 3.81719 72.9202 3.80333 72.9317 3.79186C72.9432 3.78039 72.957 3.7716 72.9723 3.76612C72.9876 3.76064 73.0038 3.7586 73.02 3.76015H75.64C75.73 3.76015 75.78 3.76015 75.78 3.88015ZM75.52 8.88015V21.2801C75.5215 21.2963 75.5195 21.3126 75.514 21.3278C75.5085 21.3431 75.4997 21.357 75.4883 21.3684C75.4768 21.3799 75.4629 21.3887 75.4477 21.3942C75.4324 21.3997 75.4161 21.4017 75.4 21.4001H73.26C73.2438 21.4017 73.2275 21.3997 73.2123 21.3942C73.197 21.3887 73.1832 21.3799 73.1717 21.3684C73.1602 21.357 73.1514 21.3431 73.146 21.3278C73.1405 21.3126 73.1384 21.2963 73.14 21.2801V8.84015C73.1384 8.824 73.1405 8.80772 73.146 8.79245C73.1514 8.77719 73.1602 8.76333 73.1717 8.75186C73.1832 8.74039 73.197 8.7316 73.2123 8.72612C73.2275 8.72064 73.2438 8.7186 73.26 8.72015H75.4C75.4161 8.7186 75.4324 8.72064 75.4477 8.72612C75.4629 8.7316 75.4768 8.74039 75.4883 8.75186C75.4997 8.76333 75.5085 8.77719 75.514 8.79245C75.5195 8.80772 75.5215 8.824 75.52 8.84015" fill="white"/>
<path d="M85.62 19.3601V21.2401C85.62 21.3201 85.57 21.3601 85.48 21.3601H83.57C81.39 21.4068 80.2934 20.4068 80.28 18.3601V10.7201C80.28 10.6402 80.28 10.5901 80.16 10.5901H77.94C77.86 10.5901 77.82 10.5901 77.82 10.4601V8.84015C77.8185 8.82401 77.8205 8.80772 77.826 8.79246C77.8315 8.77719 77.8403 8.76333 77.8517 8.75186C77.8632 8.7404 77.8771 8.73161 77.8923 8.72612C77.9076 8.72064 77.9239 8.7186 77.94 8.72015H80.16C80.24 8.72015 80.28 8.72015 80.28 8.58015V5.22015C80.28 5.13015 80.28 5.09015 80.42 5.09015H82.54C82.62 5.09015 82.66 5.09015 82.66 5.22015V8.58015C82.66 8.67015 82.66 8.71015 82.79 8.72015H85.48C85.4971 8.71878 85.5143 8.72081 85.5306 8.72611C85.5469 8.73141 85.562 8.73988 85.575 8.75103C85.588 8.76219 85.5987 8.7758 85.6064 8.79109C85.6141 8.80639 85.6188 8.82306 85.62 8.84015V10.4601C85.62 10.5501 85.57 10.5901 85.48 10.5901H82.79C82.7 10.5901 82.66 10.5901 82.66 10.7201V18.0001C82.66 18.8301 83.12 19.2401 84.02 19.2401H85.48C85.57 19.2401 85.62 19.2401 85.62 19.3601Z" fill="white"/>
<path d="M100.61 19.3602V21.2402C100.612 21.2563 100.61 21.2726 100.604 21.2879C100.599 21.3031 100.59 21.317 100.578 21.3284C100.567 21.3399 100.553 21.3487 100.538 21.3542C100.522 21.3597 100.506 21.3617 100.49 21.3602H99.58C98.3 21.3602 97.48 20.9802 97.12 20.2202C97.07 20.0902 96.99 20.0702 96.89 20.1702C96.4003 20.6197 95.8209 20.9605 95.19 21.1702C94.3176 21.4799 93.3954 21.6257 92.47 21.6002C91.1333 21.6943 89.8069 21.3078 88.73 20.5102C88.3118 20.1672 87.978 19.7328 87.7543 19.2404C87.5306 18.748 87.4231 18.2107 87.44 17.6702C87.4255 17.1219 87.5465 16.5785 87.7925 16.0883C88.0385 15.5981 88.4018 15.1762 88.85 14.8602C90.0672 14.0853 91.5006 13.7208 92.94 13.8202H95.74C96.2067 13.8202 96.4767 13.7002 96.55 13.4602C96.5687 13.2205 96.5687 12.9798 96.55 12.7402C96.5129 12.2394 96.3246 11.7616 96.01 11.3702C95.65 10.8602 94.75 10.5902 93.3 10.5702C92.4863 10.5034 91.6751 10.7265 91.01 11.2002C90.7629 11.4009 90.5657 11.6561 90.4338 11.9459C90.302 12.2356 90.239 12.552 90.25 12.8702C90.25 12.9502 90.25 12.9902 90.12 12.9902H88.01C87.9939 12.9917 87.9776 12.9897 87.9623 12.9842C87.9471 12.9787 87.9332 12.9699 87.9217 12.9584C87.9103 12.947 87.9015 12.9331 87.896 12.9179C87.8905 12.9026 87.8885 12.8863 87.89 12.8702C87.8613 12.2386 87.9918 11.6099 88.2697 11.042C88.5475 10.474 88.9637 9.9851 89.48 9.62016C90.6606 8.82771 92.0586 8.4223 93.48 8.46016C94.8921 8.38418 96.2861 8.80523 97.42 9.65016C97.9278 10.0644 98.3302 10.5929 98.5944 11.1926C98.8586 11.7922 98.977 12.4459 98.94 13.1002V18.0002C98.9058 18.3448 98.9718 18.692 99.13 19.0002C99.26 19.1902 99.55 19.2902 100 19.2902H100.48C100.496 19.2886 100.512 19.2907 100.528 19.2961C100.543 19.3016 100.557 19.3104 100.568 19.3219C100.58 19.3333 100.589 19.3472 100.594 19.3625C100.6 19.3777 100.602 19.394 100.6 19.4102L100.61 19.3602ZM96.6 15.8602C96.6 15.7802 96.6 15.7402 96.46 15.7402H92.94C92.0756 15.6934 91.2166 15.9021 90.47 16.3402C90.2684 16.4933 90.1055 16.6916 89.9943 16.9191C89.8832 17.1466 89.8269 17.397 89.83 17.6502C89.826 17.9058 89.8796 18.159 89.9869 18.391C90.0943 18.623 90.2526 18.8278 90.45 18.9902C91.0314 19.4019 91.7404 19.5934 92.45 19.5302C93.568 19.6131 94.6739 19.254 95.53 18.5302C95.8527 18.2275 96.1125 17.8641 96.2944 17.4609C96.4763 17.0576 96.5767 16.6224 96.59 16.1802L96.6 15.8602Z" fill="white"/>
<path d="M105.43 3.88015V21.2401C105.432 21.2563 105.43 21.2726 105.424 21.2878C105.419 21.3031 105.41 21.317 105.398 21.3284C105.387 21.3399 105.373 21.3487 105.358 21.3542C105.342 21.3597 105.326 21.3617 105.31 21.3601H103.18C103.163 21.3615 103.147 21.3595 103.131 21.354C103.115 21.3486 103.101 21.34 103.089 21.3287C103.076 21.3175 103.067 21.3038 103.06 21.2885C103.053 21.2732 103.05 21.2568 103.05 21.2401V3.88015C103.05 3.80015 103.05 3.76015 103.18 3.76015H105.31C105.326 3.7586 105.342 3.76064 105.358 3.76612C105.373 3.7716 105.387 3.78039 105.398 3.79186C105.41 3.80333 105.419 3.81719 105.424 3.83245C105.43 3.84772 105.432 3.864 105.43 3.88015Z" fill="white"/>
<path d="M35.48 33.7202H37.36C37.36 33.7202 37.45 33.7202 37.49 33.8402L37.74 34.8402C37.7498 34.8657 37.766 34.8883 37.787 34.9058C37.808 34.9233 37.8331 34.9352 37.86 34.9402C37.8864 34.9379 37.9119 34.9295 37.9345 34.9156C37.9571 34.9017 37.9761 34.8827 37.99 34.8602C38.4354 34.418 38.9709 34.0769 39.56 33.8602C40.1927 33.5878 40.8714 33.4384 41.56 33.4202C42.3821 33.3875 43.2013 33.5373 43.9586 33.8589C44.716 34.1805 45.3926 34.6659 45.94 35.2802C47.0576 36.6071 47.6327 38.3073 47.55 40.0402C47.6317 41.7729 47.0567 43.4728 45.94 44.8002C45.3925 45.403 44.7189 45.8778 43.967 46.1907C43.2151 46.5035 42.4035 46.6467 41.59 46.6102C40.8235 46.6161 40.0664 46.4414 39.38 46.1002C38.8692 45.8765 38.3993 45.5689 37.99 45.1902C37.94 45.1002 37.86 45.1002 37.82 45.1002C37.78 45.1002 37.74 45.1602 37.74 45.2102V51.2102C37.74 51.2902 37.74 51.3302 37.61 51.3402H35.48C35.4 51.3402 35.36 51.3402 35.36 51.2102V33.8402C35.3585 33.824 35.3605 33.8077 35.366 33.7925C35.3715 33.7772 35.3803 33.7634 35.3917 33.7519C35.4032 33.7404 35.417 33.7316 35.4323 33.7262C35.4476 33.7207 35.4639 33.7186 35.48 33.7202ZM45.14 40.0402C45.2034 38.8817 44.8485 37.739 44.14 36.8202C43.8074 36.4171 43.3862 36.0963 42.9091 35.8829C42.4321 35.6696 41.9122 35.5694 41.39 35.5902C40.8779 35.5616 40.3665 35.6576 39.8997 35.8701C39.433 36.0826 39.0247 36.4052 38.71 36.8102C38.0467 37.7526 37.716 38.889 37.77 40.0402C37.7302 41.1956 38.0827 42.3305 38.77 43.2602C39.0848 43.6625 39.4917 43.9832 39.9563 44.1955C40.421 44.4078 40.9298 44.5055 41.44 44.4802C41.9619 44.4987 42.481 44.3975 42.9577 44.1843C43.4344 43.9711 43.8559 43.6515 44.19 43.2502C44.8986 42.3353 45.2537 41.1956 45.19 40.0402" fill="white"/>
<path d="M62.2 40.0402C62.289 41.7857 61.6934 43.4971 60.54 44.8102C59.3089 45.9661 57.6837 46.6095 55.995 46.6095C54.3063 46.6095 52.6811 45.9661 51.45 44.8102C50.3039 43.4934 49.7125 41.7837 49.8 40.0402C49.7156 38.2971 50.3066 36.5886 51.45 35.2702C52.6822 34.1165 54.307 33.4746 55.995 33.4746C57.683 33.4746 59.3078 34.1165 60.54 35.2702C61.6904 36.5891 62.2853 38.3022 62.2 40.0502V40.0402ZM58.8 43.2602C59.4638 42.3214 59.8202 41.1999 59.8202 40.0502C59.8202 38.9004 59.4638 37.779 58.8 36.8402C58.4618 36.4359 58.0353 36.1147 57.5532 35.9014C57.0712 35.6882 56.5466 35.5885 56.02 35.6102C55.4913 35.588 54.9645 35.6863 54.4795 35.8976C53.9944 36.109 53.5637 36.4279 53.22 36.8302C52.544 37.7659 52.1802 38.8908 52.1802 40.0452C52.1802 41.1995 52.544 42.3245 53.22 43.2602C53.5742 43.6476 54.0052 43.9571 54.4855 44.1688C54.9659 44.3805 55.4851 44.4898 56.01 44.4898C56.5349 44.4898 57.0541 44.3805 57.5345 44.1688C58.0148 43.9571 58.4458 43.6476 58.8 43.2602Z" fill="white"/>
<path d="M75.12 37.9901H72.94C72.9238 37.9917 72.9075 37.9896 72.8923 37.9842C72.877 37.9787 72.8632 37.9699 72.8517 37.9584C72.8402 37.9469 72.8314 37.9331 72.826 37.9178C72.8205 37.9026 72.8184 37.8863 72.82 37.8701C72.83 37.547 72.7615 37.2263 72.6204 36.9355C72.4794 36.6446 72.2699 36.3923 72.01 36.2001C71.3533 35.7585 70.57 35.5443 69.78 35.5901C69.0489 35.5359 68.3182 35.6994 67.68 36.0601C67.4823 36.1728 67.3162 36.3337 67.1974 36.5278C67.0785 36.7218 67.0106 36.9428 67 37.1701C66.9783 37.327 66.9942 37.4868 67.0464 37.6363C67.0985 37.7858 67.1855 37.9208 67.3 38.0301C67.5 38.1801 67.68 38.3101 67.86 38.4201C68.6629 38.6447 69.4876 38.7822 70.32 38.8301C71.4596 38.9295 72.5801 39.1853 73.65 39.5901C74.2362 39.8202 74.7352 40.2289 75.0763 40.7584C75.4173 41.2879 75.583 41.9112 75.55 42.5401C75.5936 43.1427 75.4769 43.746 75.2116 44.2887C74.9464 44.8315 74.5421 45.2943 74.04 45.6301C72.7989 46.3533 71.3746 46.7007 69.94 46.6301C68.4986 46.6915 67.0819 46.2417 65.94 45.3601C65.4722 44.9815 65.0974 44.5007 64.8443 43.9546C64.5912 43.4086 64.4666 42.8118 64.48 42.2101C64.4784 42.194 64.4805 42.1777 64.486 42.1624C64.4914 42.1472 64.5002 42.1333 64.5117 42.1218C64.5232 42.1104 64.537 42.1016 64.5523 42.0961C64.5675 42.0906 64.5838 42.0886 64.6 42.0901H66.71C66.81 42.0901 66.86 42.1301 66.86 42.2101C66.8603 42.5357 66.9431 42.8558 67.1004 43.1408C67.2578 43.4258 67.4847 43.6664 67.76 43.8401C68.4634 44.2966 69.2924 44.5205 70.13 44.4801C72.21 44.4801 73.25 43.8501 73.25 42.5901C73.2564 42.4435 73.2332 42.297 73.1816 42.1595C73.1301 42.022 73.0513 41.8964 72.95 41.7901C72.776 41.607 72.5645 41.4638 72.33 41.3701L71.87 41.2101C71.716 41.1677 71.5588 41.1376 71.4 41.1201L70.76 41.0101C70.5528 40.966 70.3418 40.9426 70.13 40.9401C68.8607 40.8754 67.6122 40.5912 66.44 40.1001C65.7421 39.7768 65.1845 39.2121 64.87 38.5101C64.7192 38.0797 64.6448 37.6262 64.65 37.1701C64.6509 36.6494 64.7789 36.1367 65.0229 35.6767C65.2669 35.2166 65.6194 34.8231 66.05 34.5301C67.1447 33.7623 68.4646 33.3822 69.8 33.4501C71.1861 33.3971 72.5517 33.7974 73.69 34.5901C74.1987 34.9638 74.606 35.4587 74.8749 36.0297C75.1438 36.6008 75.2659 37.2299 75.23 37.8601C75.23 37.9401 75.18 37.9801 75.12 37.9801" fill="white"/>
<path d="M84.94 44.3601V46.2401C84.94 46.3201 84.94 46.3601 84.81 46.3601H82.94C80.76 46.4101 79.66 45.4301 79.66 43.4101V35.7201C79.6615 35.7027 79.6592 35.6851 79.6532 35.6686C79.6472 35.6522 79.6377 35.6372 79.6253 35.6248C79.6129 35.6124 79.598 35.6029 79.5815 35.5969C79.565 35.5909 79.5474 35.5886 79.53 35.5901H77.29C77.21 35.5901 77.17 35.5901 77.17 35.4601V33.8401C77.1684 33.824 77.1705 33.8077 77.176 33.7925C77.1815 33.7772 77.1902 33.7633 77.2017 33.7519C77.2132 33.7404 77.227 33.7316 77.2423 33.7261C77.2576 33.7206 77.2738 33.7186 77.29 33.7201H79.51C79.6 33.7201 79.64 33.7201 79.64 33.5801V30.2201C79.64 30.1301 79.64 30.0901 79.77 30.0901H81.94C82.03 30.0901 82.07 30.0901 82.07 30.2201V33.5801C82.0671 33.5975 82.068 33.6153 82.0727 33.6322C82.0774 33.6492 82.0858 33.6649 82.0972 33.6783C82.1087 33.6916 82.1229 33.7023 82.1389 33.7095C82.155 33.7168 82.1724 33.7204 82.19 33.7201H84.89C84.9066 33.7188 84.9233 33.7208 84.939 33.7262C84.9547 33.7316 84.9692 33.7403 84.9814 33.7516C84.9936 33.7628 85.0034 33.7765 85.01 33.7918C85.0166 33.807 85.0201 33.8235 85.02 33.8401V35.4601C85.02 35.5501 85.02 35.5901 84.89 35.5901H82.14C82.06 35.5901 82.02 35.5901 82.02 35.7201V43.0001C82.02 43.8301 82.47 44.2401 83.37 44.2401H84.84C84.93 44.2401 84.97 44.2401 84.97 44.3601" fill="white"/>
<path d="M99.22 46.3602H96.94C96.8947 46.3611 96.8498 46.3506 96.8096 46.3296C96.7694 46.3086 96.7352 46.2779 96.71 46.2402L92.71 39.4202C92.6567 39.3535 92.5967 39.3535 92.53 39.4202L89.74 41.8602C89.7217 41.9119 89.7217 41.9684 89.74 42.0202V46.2402C89.74 46.3202 89.69 46.3602 89.6 46.3602H87.44C87.36 46.3602 87.31 46.3602 87.31 46.2402V28.8802C87.31 28.8002 87.31 28.7602 87.44 28.7602H89.56C89.5771 28.7588 89.5943 28.7608 89.6106 28.7661C89.6269 28.7714 89.6419 28.7799 89.655 28.7911C89.668 28.8022 89.6786 28.8158 89.6864 28.8311C89.6941 28.8464 89.6987 28.8631 89.7 28.8802V38.6902C89.7 38.6902 89.7 38.6902 89.76 38.7602C89.7757 38.7723 89.7951 38.7789 89.815 38.7789C89.8349 38.7789 89.8542 38.7723 89.87 38.7602L95.62 33.8602C95.7246 33.7764 95.8562 33.7338 95.99 33.7402H99.07C99.0779 33.7387 99.086 33.7389 99.0938 33.7407C99.1016 33.7424 99.109 33.7457 99.1156 33.7504C99.1221 33.7551 99.1276 33.761 99.1318 33.7678C99.136 33.7746 99.1388 33.7822 99.14 33.7902C99.14 33.7902 99.14 33.7902 99.14 33.8602L94.49 37.8602C94.49 37.8602 94.49 37.9702 94.49 38.0502L99.31 46.3002C99.3567 46.3802 99.3267 46.4202 99.22 46.4202" fill="white"/>
<path d="M114.16 44.3601V46.2401C114.162 46.2563 114.16 46.2726 114.154 46.2878C114.149 46.3031 114.14 46.317 114.128 46.3284C114.117 46.3399 114.103 46.3487 114.088 46.3542C114.072 46.3596 114.056 46.3617 114.04 46.3601H113.13C111.85 46.3601 111.03 45.9801 110.67 45.2201C110.67 45.0901 110.54 45.0701 110.44 45.2201C109.95 45.6697 109.371 46.0105 108.74 46.2201C107.868 46.5299 106.945 46.6757 106.02 46.6501C104.683 46.7443 103.357 46.3577 102.28 45.5601C101.862 45.2172 101.528 44.7828 101.304 44.2904C101.081 43.7979 100.973 43.2607 100.99 42.7201C100.975 42.1719 101.097 41.6285 101.343 41.1383C101.588 40.648 101.952 40.2262 102.4 39.9101C103.613 39.1338 105.043 38.7659 106.48 38.8601H109.28C109.747 38.8601 110.017 38.7401 110.09 38.5001C110.109 38.2605 110.109 38.0198 110.09 37.7801C110.053 37.2793 109.865 36.8016 109.55 36.4101C109.19 35.9001 108.29 35.6301 106.84 35.6101C106.026 35.5434 105.215 35.7665 104.55 36.2401C104.303 36.4408 104.106 36.6961 103.974 36.9859C103.842 37.2756 103.779 37.592 103.79 37.9101C103.79 37.9901 103.79 38.0301 103.66 38.0301H101.53C101.514 38.0317 101.498 38.0296 101.482 38.0242C101.467 38.0187 101.453 38.0099 101.442 37.9984C101.43 37.987 101.421 37.9731 101.416 37.9578C101.41 37.9426 101.408 37.9263 101.41 37.9101C101.381 37.2785 101.512 36.6499 101.79 36.0819C102.067 35.514 102.484 35.0251 103 34.6601C104.181 33.8677 105.579 33.4623 107 33.5001C108.412 33.4242 109.806 33.8452 110.94 34.6901C111.449 35.0962 111.856 35.6165 112.127 36.2089C112.398 36.8013 112.526 37.4492 112.5 38.1001V43.0001C112.466 43.3448 112.532 43.692 112.69 44.0001C112.82 44.1901 113.11 44.2901 113.56 44.2901H114.04C114.056 44.2886 114.072 44.2906 114.088 44.2961C114.103 44.3016 114.117 44.3104 114.128 44.3219C114.14 44.3333 114.149 44.3472 114.154 44.3624C114.16 44.3777 114.162 44.394 114.16 44.4101V44.3601ZM110.16 40.8601C110.16 40.7801 110.11 40.7401 110.02 40.7401H106.52C105.656 40.6934 104.797 40.9021 104.05 41.3401C103.848 41.4933 103.685 41.6916 103.574 41.9191C103.463 42.1466 103.407 42.397 103.41 42.6501C103.405 42.9044 103.459 43.1564 103.566 43.3869C103.674 43.6174 103.832 43.8203 104.03 43.9801C104.607 44.4021 105.318 44.5977 106.03 44.5301C107.148 44.613 108.254 44.254 109.11 43.5301C109.433 43.2275 109.692 42.8641 109.874 42.4608C110.056 42.0576 110.157 41.6223 110.17 41.1801L110.16 40.8601Z" fill="white"/>
<path d="M126.6 37.9902H124.45C124.434 37.9917 124.418 37.9897 124.402 37.9842C124.387 37.9787 124.373 37.9699 124.362 37.9584C124.35 37.947 124.342 37.9331 124.336 37.9178C124.331 37.9026 124.329 37.8863 124.33 37.8702C124.34 37.5471 124.272 37.2263 124.131 36.9355C123.989 36.6447 123.78 36.3923 123.52 36.2002C122.864 35.8255 122.127 35.6169 121.372 35.5925C120.618 35.5681 119.869 35.7286 119.19 36.0602C118.991 36.1723 118.824 36.3328 118.703 36.5268C118.582 36.7208 118.513 36.9421 118.5 37.1702C118.48 37.3278 118.497 37.4881 118.551 37.6377C118.605 37.7872 118.694 37.9218 118.81 38.0302C118.989 38.1712 119.176 38.3014 119.37 38.4202C120.169 38.6453 120.991 38.7827 121.82 38.8302C122.963 38.9285 124.087 39.1843 125.16 39.5902C125.746 39.8202 126.245 40.2289 126.586 40.7584C126.927 41.2879 127.093 41.9112 127.06 42.5402C127.104 43.1427 126.987 43.746 126.722 44.2888C126.457 44.8315 126.052 45.2944 125.55 45.6302C124.309 46.3522 122.885 46.6995 121.45 46.6302C119.984 46.7192 118.535 46.2752 117.37 45.3802C116.908 44.9935 116.54 44.5076 116.293 43.9587C116.045 43.4098 115.924 42.8121 115.94 42.2102C115.94 42.1302 115.94 42.0902 116.07 42.0902H118.18C118.27 42.0902 118.32 42.0902 118.32 42.2102C118.32 42.5357 118.403 42.8559 118.561 43.1409C118.718 43.4259 118.945 43.6664 119.22 43.8402C119.923 44.2966 120.753 44.5205 121.59 44.4802C123.68 44.4802 124.72 43.8502 124.72 42.5902C124.728 42.4425 124.704 42.2949 124.651 42.157C124.597 42.0192 124.515 41.8942 124.41 41.7902C124.238 41.605 124.026 41.4614 123.79 41.3702L123.34 41.2102C123.182 41.169 123.022 41.1389 122.86 41.1202L122.23 41.0102C122.02 40.966 121.805 40.9426 121.59 40.9402C120.334 40.8709 119.1 40.5867 117.94 40.1002C117.24 39.7765 116.679 39.2123 116.36 38.5102C116.214 38.0785 116.14 37.6258 116.14 37.1702C116.143 36.6487 116.273 36.1358 116.519 35.6758C116.764 35.2158 117.118 34.8226 117.55 34.5302C118.642 33.7645 119.958 33.3845 121.29 33.4502C122.679 33.3972 124.048 33.7973 125.19 34.5902C125.697 34.9651 126.104 35.4602 126.373 36.0309C126.641 36.6017 126.764 37.2302 126.73 37.8602C126.73 37.9402 126.68 37.9802 126.62 37.9802" fill="white"/>
<path d="M139.99 37.9901H137.84C137.824 37.9917 137.808 37.9896 137.792 37.9842C137.777 37.9787 137.763 37.9699 137.752 37.9584C137.74 37.947 137.731 37.9331 137.726 37.9178C137.72 37.9026 137.718 37.8863 137.72 37.8701C137.733 37.5496 137.67 37.2306 137.534 36.9399C137.398 36.6493 137.194 36.3955 136.94 36.2001C136.283 35.7585 135.5 35.5443 134.71 35.5901C133.979 35.5335 133.247 35.6972 132.61 36.0601C132.411 36.1723 132.244 36.3328 132.123 36.5268C132.002 36.7208 131.933 36.9421 131.92 37.1701C131.9 37.3278 131.917 37.4881 131.971 37.6376C132.025 37.7872 132.114 37.9218 132.23 38.0301C132.409 38.1712 132.596 38.3014 132.79 38.4201C133.589 38.6453 134.411 38.7827 135.24 38.8301C136.383 38.9285 137.507 39.1843 138.58 39.5901C139.166 39.8202 139.665 40.2289 140.006 40.7584C140.347 41.2879 140.513 41.9112 140.48 42.5401C140.52 43.1455 140.399 43.7507 140.129 44.2937C139.858 44.8367 139.448 45.298 138.94 45.6301C137.698 46.3522 136.275 46.6995 134.84 46.6301C133.374 46.7183 131.925 46.2744 130.76 45.3801C130.294 44.9995 129.919 44.5186 129.665 43.9732C129.41 43.4278 129.282 42.832 129.29 42.2301C129.29 42.1501 129.34 42.1101 129.42 42.1101H131.53C131.63 42.1101 131.67 42.1101 131.67 42.2301C131.67 42.5557 131.753 42.8759 131.91 43.1609C132.068 43.4458 132.295 43.6864 132.57 43.8601C133.276 44.3186 134.109 44.5426 134.95 44.5001C137.03 44.5001 138.07 43.8701 138.07 42.6101C138.076 42.4635 138.053 42.317 138.002 42.1795C137.95 42.042 137.871 41.9164 137.77 41.8101C137.593 41.6266 137.378 41.4833 137.14 41.3901L136.69 41.2301C136.536 41.1887 136.379 41.1586 136.22 41.1401L135.58 41.0301C135.373 40.986 135.162 40.9626 134.95 40.9601C133.698 40.8929 132.467 40.6122 131.31 40.1301C130.61 39.8065 130.049 39.2423 129.73 38.5401C129.584 38.1084 129.51 37.6558 129.51 37.2001C129.512 36.6735 129.643 36.1554 129.893 35.6915C130.142 35.2276 130.502 34.8322 130.94 34.5401C132.035 33.7723 133.355 33.3922 134.69 33.4601C136.076 33.4072 137.442 33.8074 138.58 34.6001C139.087 34.9751 139.494 35.4702 139.762 36.0409C140.031 36.6116 140.154 37.2402 140.12 37.8701C140.12 37.9501 140.12 37.9901 140.01 37.9901" fill="white"/>
<path d="M154.6 40.0401C154.6 40.6001 154.54 40.8801 154.42 40.8801H145.29C145.2 40.8801 145.16 40.8801 145.16 41.0201C145.154 41.4846 145.243 41.9455 145.421 42.3745C145.599 42.8035 145.863 43.1917 146.196 43.5155C146.529 43.8393 146.925 44.0918 147.359 44.2576C147.793 44.4235 148.256 44.4992 148.72 44.4801C149.368 44.5389 150.02 44.4052 150.592 44.0957C151.165 43.7862 151.634 43.3147 151.94 42.7401C151.949 42.7049 151.97 42.6739 151.999 42.6521C152.028 42.6302 152.064 42.619 152.1 42.6201H154.16C154.247 42.6201 154.287 42.6601 154.28 42.7401C154.001 43.9103 153.286 44.9297 152.28 45.5901C151.221 46.2903 149.969 46.64 148.7 46.5901C147.892 46.6256 147.087 46.4817 146.342 46.1687C145.597 45.8558 144.93 45.3815 144.39 44.7801C143.272 43.4456 142.697 41.7391 142.78 40.0001C142.696 38.2788 143.244 36.5861 144.32 35.2401C144.875 34.6317 145.559 34.1552 146.322 33.8454C147.085 33.5357 147.908 33.4006 148.73 33.4501C149.548 33.3964 150.368 33.5297 151.127 33.8399C151.885 34.15 152.564 34.6289 153.11 35.2401C154.164 36.6031 154.693 38.2996 154.6 40.0201V40.0401ZM152.22 38.8701C152.211 38.03 151.895 37.2223 151.33 36.6001C150.623 35.9298 149.681 35.5637 148.707 35.5805C147.732 35.5974 146.804 35.9958 146.12 36.6901C145.528 37.2679 145.172 38.0447 145.12 38.8701C145.12 38.9601 145.12 39.0001 145.25 39.0001H152.06C152.14 39.0001 152.18 39.0001 152.18 38.8701" fill="white"/>
</g>
<defs>
<clipPath id="clip0_1_386">
<rect width="154.59" height="51.16" fill="white" transform="translate(0 0.160156)"/>
</clipPath>
</defs>
</svg>
