<svg width="169" height="27" viewBox="0 0 169 27" fill="none" xmlns="http://www.w3.org/2000/svg">
<g clip-path="url(#clip0_1_443)">
<path d="M12.67 0.399902H0.5C0.368193 0.402462 0.242499 0.455963 0.14928 0.549182C0.0560606 0.642401 0.00256007 0.768096 0 0.899902V24.6299C0 24.7625 0.0526785 24.8897 0.146447 24.9835C0.240215 25.0772 0.367392 25.1299 0.5 25.1299H12.67C15.8885 25.0384 18.9445 23.6955 21.1887 21.3866C23.4329 19.0777 24.6883 15.9847 24.6883 12.7649C24.6883 9.54507 23.4329 6.45212 21.1887 4.14322C18.9445 1.83432 15.8885 0.491441 12.67 0.399902ZM13.86 21.3999C12.0187 21.7168 10.1242 21.4394 8.45107 20.6079C6.77789 19.7763 5.4128 18.4338 4.55347 16.7747C3.69414 15.1157 3.38516 13.2262 3.67129 11.3798C3.95741 9.53341 4.82378 7.82602 6.14495 6.50485C7.46612 5.18369 9.1735 4.31732 11.0199 4.03119C12.8663 3.74507 14.7558 4.05404 16.4148 4.91337C18.0739 5.77271 19.4164 7.13779 20.2479 8.81097C21.0795 10.4841 21.3569 12.3786 21.04 14.2199C20.7316 16.0118 19.8757 17.6642 18.59 18.9499C17.3043 20.2356 15.6519 21.0915 13.86 21.3999Z" fill="black"/>
<path d="M47.29 15.2799C47.29 15.8399 47.23 16.1199 47.11 16.1199H37.94C37.86 16.1199 37.82 16.1199 37.82 16.2599C37.8157 16.7245 37.9055 17.1851 38.084 17.614C38.2625 18.0429 38.5261 18.4312 38.8587 18.7554C39.1914 19.0797 39.5863 19.3332 40.0196 19.5007C40.453 19.6682 40.9157 19.7462 41.38 19.7299C42.0229 19.7797 42.6663 19.6406 43.2313 19.3297C43.7962 19.0188 44.258 18.5497 44.56 17.9799C44.5691 17.9447 44.5899 17.9137 44.6189 17.8919C44.648 17.8701 44.6837 17.8588 44.72 17.8599H46.72C46.82 17.8599 46.86 17.8599 46.85 17.9799C46.5685 19.1517 45.854 20.1735 44.85 20.8399C43.7858 21.5372 42.5314 21.8866 41.26 21.8399C40.4527 21.874 39.6478 21.7295 38.9027 21.4166C38.1577 21.1037 37.4909 20.6302 36.95 20.0299C35.8347 18.6944 35.2634 16.9878 35.35 15.2499C35.2594 13.5278 35.8078 11.8327 36.89 10.4899C37.4445 9.88094 38.1286 9.40401 38.8918 9.09424C39.6549 8.78446 40.4779 8.64973 41.3 8.69995C42.1181 8.64626 42.9376 8.77953 43.6965 9.08967C44.4554 9.39982 45.1337 9.87868 45.68 10.4899C46.7301 11.855 47.2585 13.55 47.17 15.2699L47.29 15.2799ZM44.94 14.1299C44.9324 13.2878 44.6116 12.4785 44.04 11.8599C43.7096 11.5142 43.3072 11.2455 42.8614 11.0726C42.4155 10.8998 41.9371 10.8272 41.46 10.8599C40.9665 10.8363 40.474 10.9237 40.0188 11.1159C39.5636 11.308 39.1573 11.5998 38.83 11.9699C38.2406 12.5494 37.8847 13.3252 37.83 14.1499C37.83 14.2399 37.83 14.2799 37.95 14.2799H44.76C44.85 14.2799 44.89 14.2799 44.89 14.1499" fill="black"/>
<path d="M50.58 4.11989C50.58 4.03989 50.58 3.99989 50.72 3.99989H61.84C61.8562 3.99834 61.8724 4.00038 61.8877 4.00587C61.903 4.01135 61.9168 4.02014 61.9283 4.03161C61.9398 4.04308 61.9486 4.05694 61.954 4.0722C61.9595 4.08746 61.9616 4.10375 61.96 4.11989V5.99989C61.96 6.08989 61.96 6.12989 61.84 6.12989H53.08C53 6.12989 52.96 6.12989 52.96 6.25989V11.3399C52.96 11.4199 52.96 11.4699 53.08 11.4699H60.81C60.89 11.4699 60.93 11.5199 60.93 11.5999V13.4699C60.9314 13.4865 60.9293 13.5032 60.9239 13.5189C60.9185 13.5346 60.9099 13.5491 60.8986 13.5613C60.8873 13.5735 60.8736 13.5833 60.8584 13.5899C60.8431 13.5965 60.8267 13.6 60.81 13.5999H53.08C53.0639 13.5983 53.0476 13.6004 53.0323 13.6059C53.0171 13.6113 53.0032 13.6201 52.9917 13.6316C52.9803 13.6431 52.9715 13.6569 52.966 13.6722C52.9605 13.6875 52.9585 13.7037 52.96 13.7199V21.4699C52.9616 21.486 52.9595 21.5023 52.954 21.5176C52.9486 21.5328 52.9398 21.5467 52.9283 21.5582C52.9168 21.5696 52.903 21.5784 52.8877 21.5839C52.8724 21.5894 52.8562 21.5914 52.84 21.5899H50.72C50.7029 21.5913 50.6858 21.5892 50.6695 21.5839C50.6532 21.5786 50.6381 21.5702 50.6251 21.559C50.612 21.5479 50.6014 21.5342 50.5936 21.5189C50.5859 21.5037 50.5813 21.487 50.58 21.4699V4.11989Z" fill="black"/>
<path d="M75.94 15.2799C76.029 17.0254 75.4334 18.7368 74.28 20.0499C73.0489 21.2058 71.4237 21.8492 69.735 21.8492C68.0463 21.8492 66.4211 21.2058 65.19 20.0499C64.0439 18.7331 63.4525 17.0235 63.54 15.2799C63.4546 13.5367 64.0457 11.8278 65.19 10.5099C66.4222 9.35626 68.047 8.71436 69.735 8.71436C71.423 8.71436 73.0478 9.35626 74.28 10.5099C75.4279 11.8263 76.0227 13.5353 75.94 15.2799ZM72.54 18.4899C73.2446 17.573 73.5992 16.4348 73.54 15.2799C73.5992 14.125 73.2446 12.9869 72.54 12.0699C72.2008 11.6643 71.7726 11.3422 71.2887 11.1289C70.8048 10.9156 70.2783 10.8167 69.75 10.8399C69.2196 10.8154 68.6906 10.9126 68.2035 11.1241C67.7165 11.3356 67.2843 11.6557 66.94 12.0599C66.2339 12.9799 65.8793 14.1218 65.94 15.2799C65.8772 16.4353 66.2322 17.5746 66.94 18.4899C67.2942 18.8774 67.7252 19.1868 68.2055 19.3985C68.6859 19.6102 69.2051 19.7196 69.73 19.7196C70.2549 19.7196 70.7741 19.6102 71.2545 19.3985C71.7348 19.1868 72.1658 18.8774 72.52 18.4899" fill="black"/>
<path d="M85.65 10.8298H84.38C83.9143 10.8074 83.45 10.8964 83.0256 11.0894C82.6012 11.2825 82.229 11.574 81.94 11.9398C81.3297 12.6926 81.0134 13.6414 81.05 14.6098V21.4798C81.05 21.5598 81 21.5998 80.91 21.5998H78.83C78.8138 21.6014 78.7975 21.5994 78.7823 21.5939C78.767 21.5884 78.7532 21.5796 78.7417 21.5681C78.7302 21.5567 78.7214 21.5428 78.716 21.5275C78.7105 21.5123 78.7084 21.496 78.71 21.4798V9.07985C78.7084 9.0637 78.7105 9.04742 78.716 9.03215C78.7214 9.01689 78.7302 9.00303 78.7417 8.99156C78.7532 8.98009 78.767 8.9713 78.7823 8.96582C78.7975 8.96034 78.8138 8.9583 78.83 8.95985H80.71C80.71 8.95985 80.8 8.95985 80.83 9.07985L81.09 10.1998C81.1366 10.3532 81.2266 10.3532 81.36 10.1998C81.7332 9.75823 82.1908 9.39546 82.7059 9.13276C83.221 8.87005 83.7833 8.71268 84.36 8.66985H85.63C85.6471 8.66848 85.6642 8.67051 85.6805 8.67581C85.6968 8.68111 85.7119 8.68958 85.7249 8.70073C85.7379 8.71188 85.7486 8.7255 85.7564 8.74079C85.7641 8.75609 85.7687 8.77276 85.77 8.78985V10.6698C85.77 10.6878 85.7664 10.7056 85.7592 10.722C85.7521 10.7385 85.7416 10.7533 85.7284 10.7655C85.7153 10.7777 85.6998 10.7871 85.6828 10.793C85.6659 10.7989 85.6479 10.8012 85.63 10.7998" fill="black"/>
<path d="M98.37 21.4799C98.3716 21.4961 98.3695 21.5124 98.364 21.5276C98.3585 21.5429 98.3498 21.5567 98.3383 21.5682C98.3268 21.5797 98.313 21.5885 98.2977 21.5939C98.2824 21.5994 98.2661 21.6015 98.25 21.5999H96.09C96.02 21.5999 95.99 21.5999 95.99 21.4799V14.6099C96.0354 13.6587 95.8356 12.7118 95.41 11.8599C95.1802 11.5121 94.8587 11.2346 94.481 11.0581C94.1034 10.8816 93.6842 10.813 93.27 10.8599C92.8416 10.8203 92.4105 10.898 92.023 11.0848C91.6354 11.2715 91.306 11.5602 91.07 11.9199C90.611 12.7507 90.3896 13.6917 90.43 14.6399V21.5099C90.43 21.5899 90.43 21.6299 90.29 21.6299H88.17C88.1539 21.6315 88.1376 21.6294 88.1223 21.624C88.107 21.6185 88.0932 21.6097 88.0817 21.5982C88.0702 21.5867 88.0615 21.5729 88.056 21.5576C88.0505 21.5424 88.0485 21.5261 88.05 21.5099V9.07992C88.0485 9.06378 88.0505 9.04749 88.056 9.03223C88.0615 9.01697 88.0702 9.00311 88.0817 8.99164C88.0932 8.98017 88.107 8.97138 88.1223 8.9659C88.1376 8.96042 88.1539 8.95838 88.17 8.95992H90.05C90.05 8.95992 90.14 8.95992 90.17 9.07992L90.43 10.1999C90.4391 10.2289 90.4581 10.2538 90.4837 10.2703C90.5093 10.2867 90.5398 10.2937 90.57 10.2899C90.6002 10.2873 90.6294 10.2778 90.6554 10.2622C90.6813 10.2466 90.7034 10.2253 90.72 10.1999C90.9914 9.71348 91.4223 9.33555 91.94 9.12992C92.5622 8.82741 93.2484 8.67988 93.94 8.69992C94.559 8.67947 95.1755 8.78846 95.75 9.01992C96.3589 9.32362 96.9158 9.7219 97.4 10.1999C97.4407 10.2379 97.4943 10.259 97.55 10.259C97.6057 10.259 97.6593 10.2379 97.7 10.1999C98.1705 9.68482 98.7512 9.28244 99.3987 9.02274C100.046 8.76304 100.744 8.6527 101.44 8.69992C102.136 8.6497 102.835 8.76174 103.48 9.02724C104.126 9.29273 104.701 9.70443 105.16 10.2299C106.069 11.5021 106.511 13.0495 106.41 14.6099V21.4799C106.412 21.4961 106.41 21.5124 106.404 21.5276C106.399 21.5429 106.39 21.5567 106.378 21.5682C106.367 21.5797 106.353 21.5885 106.338 21.5939C106.322 21.5994 106.306 21.6015 106.29 21.5999H104.15C104.134 21.6015 104.118 21.5994 104.102 21.5939C104.087 21.5885 104.073 21.5797 104.062 21.5682C104.05 21.5567 104.041 21.5429 104.036 21.5276C104.03 21.5124 104.028 21.4961 104.03 21.4799V14.6099C104.03 12.7499 103.58 11.6099 102.69 11.1299C102.231 10.9152 101.727 10.8124 101.22 10.8299C100.8 10.7799 100.374 10.8468 99.9893 11.0233C99.6047 11.1997 99.2762 11.4788 99.04 11.8299C98.6088 12.6837 98.4056 13.6345 98.45 14.5899L98.37 21.4799Z" fill="black"/>
<path d="M112.72 4.11988V6.74988C112.722 6.76828 112.719 6.78686 112.713 6.80416C112.706 6.82146 112.696 6.83701 112.682 6.84959C112.669 6.86218 112.652 6.87146 112.635 6.87671C112.617 6.88197 112.598 6.88305 112.58 6.87988H109.94C109.923 6.8814 109.905 6.87909 109.889 6.8731C109.872 6.8671 109.857 6.85758 109.845 6.84519C109.832 6.8328 109.823 6.81784 109.817 6.80138C109.811 6.78491 109.809 6.76733 109.81 6.74988V4.11988C109.81 4.03988 109.81 3.99988 109.94 3.99988H112.56C112.65 3.99988 112.7 3.99988 112.7 4.11988H112.72ZM112.44 9.11988V21.5199C112.442 21.536 112.44 21.5523 112.434 21.5676C112.429 21.5828 112.42 21.5967 112.408 21.6082C112.397 21.6196 112.383 21.6284 112.368 21.6339C112.352 21.6394 112.336 21.6414 112.32 21.6399H110.18C110.164 21.6414 110.148 21.6394 110.132 21.6339C110.117 21.6284 110.103 21.6196 110.092 21.6082C110.08 21.5967 110.071 21.5828 110.066 21.5676C110.061 21.5523 110.058 21.536 110.06 21.5199V9.07988C110.058 9.06373 110.061 9.04745 110.066 9.03219C110.071 9.01692 110.08 9.00306 110.092 8.99159C110.103 8.98013 110.117 8.97134 110.132 8.96585C110.148 8.96037 110.164 8.95833 110.18 8.95988H112.32C112.336 8.95833 112.352 8.96037 112.368 8.96585C112.383 8.97134 112.397 8.98013 112.408 8.99159C112.42 9.00306 112.429 9.01692 112.434 9.03219C112.44 9.04745 112.442 9.06373 112.44 9.07988" fill="black"/>
<path d="M127.26 21.5998H125.38C125.33 21.5998 125.29 21.5998 125.25 21.4798L125 20.4798C124.95 20.3398 124.87 20.3198 124.75 20.4298C123.751 21.2862 122.495 21.7858 121.18 21.8498C120.368 21.8863 119.558 21.743 118.808 21.4301C118.057 21.1172 117.386 20.6425 116.84 20.0398C115.723 18.7124 115.148 17.0126 115.23 15.2798C115.147 13.5469 115.722 11.8468 116.84 10.5198C117.386 9.91758 118.058 9.44247 118.808 9.12801C119.558 8.81356 120.368 8.6674 121.18 8.69984C121.936 8.6986 122.683 8.8732 123.36 9.20984C123.875 9.42669 124.345 9.73501 124.75 10.1198C124.82 10.1898 124.87 10.2098 124.92 10.1798C124.943 10.1718 124.963 10.1569 124.977 10.1373C124.991 10.1176 124.999 10.0941 125 10.0698V4.06984C125 3.98984 125 3.94984 125.13 3.94984H127.26C127.276 3.94829 127.292 3.95034 127.308 3.95582C127.323 3.9613 127.337 3.97009 127.348 3.98156C127.36 3.99303 127.369 4.00689 127.374 4.02215C127.379 4.03741 127.382 4.0537 127.38 4.06984V21.4798C127.382 21.496 127.379 21.5123 127.374 21.5275C127.369 21.5428 127.36 21.5567 127.348 21.5681C127.337 21.5796 127.323 21.5884 127.308 21.5939C127.292 21.5994 127.276 21.6014 127.26 21.5998ZM117.61 15.2798C117.553 16.4345 117.907 17.5721 118.61 18.4898C118.944 18.8918 119.365 19.2117 119.842 19.425C120.319 19.6383 120.838 19.7391 121.36 19.7198C121.872 19.7451 122.382 19.6475 122.848 19.4353C123.314 19.223 123.723 18.9023 124.04 18.4998C124.707 17.5629 125.038 16.4284 124.98 15.2798C125.034 14.1287 124.703 12.9923 124.04 12.0498C123.727 11.6457 123.32 11.3235 122.855 11.111C122.39 10.8985 121.881 10.802 121.37 10.8298C120.847 10.8086 120.327 10.9075 119.848 11.119C119.37 11.3305 118.946 11.6489 118.61 12.0498C117.907 12.9754 117.553 14.1191 117.61 15.2798Z" fill="black"/>
<path d="M133.39 4.11989V21.4799C133.392 21.496 133.39 21.5123 133.384 21.5276C133.379 21.5428 133.37 21.5567 133.358 21.5682C133.347 21.5796 133.333 21.5884 133.318 21.5939C133.302 21.5994 133.286 21.6014 133.27 21.5999H131.15C131.133 21.6013 131.116 21.5992 131.099 21.5939C131.083 21.5886 131.068 21.5802 131.055 21.569C131.042 21.5579 131.031 21.5442 131.024 21.5289C131.016 21.5137 131.011 21.497 131.01 21.4799V4.11989C131.01 4.03989 131.06 3.99989 131.15 3.99989H133.27C133.286 3.99834 133.302 4.00038 133.318 4.00587C133.333 4.01135 133.347 4.02014 133.358 4.03161C133.37 4.04308 133.379 4.05694 133.384 4.0722C133.39 4.08746 133.392 4.10375 133.39 4.11989Z" fill="black"/>
<path d="M139.77 4.11989V6.74989C139.772 6.7683 139.769 6.78688 139.763 6.80417C139.756 6.82147 139.746 6.83702 139.732 6.84961C139.719 6.86219 139.702 6.87147 139.685 6.87673C139.667 6.88198 139.648 6.88306 139.63 6.87989H137.01C136.93 6.87989 136.89 6.87989 136.89 6.74989V4.11989C136.888 4.10375 136.891 4.08746 136.896 4.0722C136.901 4.05694 136.91 4.04308 136.922 4.03161C136.933 4.02014 136.947 4.01135 136.962 4.00587C136.978 4.00038 136.994 3.99834 137.01 3.99989H139.63C139.72 3.99989 139.77 3.99989 139.77 4.11989ZM139.51 9.11989V21.5199C139.512 21.536 139.51 21.5523 139.504 21.5676C139.499 21.5828 139.49 21.5967 139.478 21.6082C139.467 21.6196 139.453 21.6284 139.438 21.6339C139.422 21.6394 139.406 21.6414 139.39 21.6399H137.25C137.234 21.6414 137.218 21.6394 137.202 21.6339C137.187 21.6284 137.173 21.6196 137.162 21.6082C137.15 21.5967 137.141 21.5828 137.136 21.5676C137.131 21.5523 137.128 21.536 137.13 21.5199V9.07989C137.128 9.06375 137.131 9.04746 137.136 9.0322C137.141 9.01694 137.15 9.00308 137.162 8.99161C137.173 8.98014 137.187 8.97135 137.202 8.96587C137.218 8.96038 137.234 8.95834 137.25 8.95989H139.39C139.406 8.95834 139.422 8.96038 139.438 8.96587C139.453 8.97135 139.467 8.98014 139.478 8.99161C139.49 9.00308 139.499 9.01694 139.504 9.0322C139.51 9.04746 139.512 9.06375 139.51 9.07989" fill="black"/>
<path d="M143.08 8.95988H144.94C144.94 8.95988 145.02 8.95988 145.06 9.07988L145.31 10.1999C145.319 10.2298 145.337 10.2558 145.363 10.2739C145.388 10.292 145.419 10.3012 145.45 10.2999C145.477 10.3022 145.505 10.2969 145.53 10.2846C145.555 10.2722 145.575 10.2533 145.59 10.2299C145.964 9.72167 146.459 9.3153 147.03 9.048C147.601 8.7807 148.23 8.66101 148.86 8.69988C149.62 8.64422 150.383 8.76305 151.09 9.04728C151.797 9.33152 152.43 9.77365 152.94 10.3399C153.921 11.5337 154.43 13.0459 154.37 14.5899V21.4599C154.37 21.5399 154.37 21.5799 154.24 21.5799H152.11C152.094 21.5814 152.078 21.5794 152.062 21.5739C152.047 21.5684 152.033 21.5596 152.022 21.5482C152.01 21.5367 152.001 21.5228 151.996 21.5076C151.99 21.4923 151.988 21.476 151.99 21.4599V14.6099C152.023 13.6485 151.746 12.702 151.2 11.9099C150.917 11.5468 150.549 11.2586 150.129 11.0703C149.709 10.8821 149.249 10.7995 148.79 10.8299C148.313 10.8019 147.837 10.888 147.401 11.081C146.964 11.2741 146.58 11.5685 146.28 11.9399C145.667 12.6925 145.344 13.6397 145.37 14.6099V21.4799C145.372 21.496 145.369 21.5123 145.364 21.5276C145.359 21.5428 145.35 21.5567 145.338 21.5682C145.327 21.5796 145.313 21.5884 145.298 21.5939C145.282 21.5994 145.266 21.6014 145.25 21.5999H143.12C143.03 21.5999 142.99 21.5999 142.99 21.4799V9.07988C142.99 8.99988 142.99 8.95988 143.12 8.95988" fill="black"/>
<path d="M162.8 24.6799C163.295 24.7243 163.793 24.6575 164.258 24.4845C164.724 24.3115 165.145 24.0366 165.49 23.6799C166.074 22.9733 166.377 22.0759 166.34 21.1599V20.4899C166.34 20.4399 166.34 20.4099 166.26 20.3799C166.23 20.3708 166.199 20.3718 166.17 20.3826C166.141 20.3935 166.116 20.4136 166.1 20.4399C165.716 20.8458 165.249 21.1632 164.73 21.3699C164.048 21.7134 163.294 21.8915 162.53 21.8899C161.728 21.9101 160.932 21.7571 160.195 21.4413C159.458 21.1255 158.798 20.6542 158.26 20.0599C157.109 18.7444 156.507 17.0366 156.58 15.2899C156.497 13.563 157.073 11.8692 158.19 10.5499C158.736 9.95074 159.407 9.47829 160.155 9.16562C160.903 8.85296 161.71 8.70765 162.52 8.73987C163.208 8.75041 163.888 8.89653 164.52 9.16987C165.118 9.39215 165.666 9.7322 166.13 10.1699C166.243 10.2765 166.323 10.2765 166.37 10.1699L166.63 9.16987C166.63 9.08987 166.67 9.04987 166.75 9.04987H168.63C168.646 9.04832 168.662 9.05036 168.678 9.05584C168.693 9.06133 168.707 9.07012 168.718 9.08158C168.73 9.09305 168.739 9.10691 168.744 9.12218C168.75 9.13744 168.752 9.15372 168.75 9.16987V21.1699C168.78 21.9292 168.65 22.6864 168.369 23.3925C168.089 24.0987 167.663 24.7382 167.12 25.2699C166.577 25.7907 165.936 26.1978 165.233 26.4674C164.531 26.737 163.782 26.8636 163.03 26.8399C161.583 26.8954 160.154 26.5006 158.94 25.7099C158.469 25.4322 158.066 25.0514 157.763 24.5958C157.46 24.1403 157.264 23.622 157.19 23.0799C157.188 23.0637 157.191 23.0474 157.196 23.0322C157.201 23.0169 157.21 23.0031 157.222 22.9916C157.233 22.9801 157.247 22.9713 157.262 22.9658C157.278 22.9604 157.294 22.9583 157.31 22.9599H159.49C159.54 22.9599 159.58 22.9599 159.62 23.0799C159.82 23.546 160.173 23.9303 160.62 24.1699C161.28 24.5421 162.033 24.7189 162.79 24.6799H162.8ZM158.94 15.2799C158.883 16.4345 159.237 17.5721 159.94 18.4899C160.272 18.8916 160.691 19.2116 161.166 19.4249C161.642 19.6382 162.159 19.7391 162.68 19.7199C163.191 19.7477 163.7 19.6512 164.165 19.4387C164.63 19.2262 165.037 18.9041 165.35 18.4999C166.037 17.5702 166.39 16.4353 166.35 15.2799C166.391 14.1211 166.039 12.9826 165.35 12.0499C165.037 11.6457 164.63 11.3235 164.165 11.111C163.7 10.8985 163.191 10.802 162.68 10.8299C162.16 10.8086 161.643 10.9077 161.167 11.1193C160.692 11.3309 160.272 11.6494 159.94 12.0499C159.237 12.9754 158.883 14.1191 158.94 15.2799Z" fill="black"/>
</g>
<defs>
<clipPath id="clip0_1_443">
<rect width="168.72" height="26.4" fill="white" transform="translate(0 0.399902)"/>
</clipPath>
</defs>
</svg>
