<svg width="169" height="27" viewBox="0 0 169 27" fill="none" xmlns="http://www.w3.org/2000/svg">
<g clip-path="url(#clip0_1_430)">
<path d="M12.67 0H0.5C0.368193 0.00256007 0.242499 0.0560606 0.14928 0.14928C0.0560606 0.242499 0.00256007 0.368193 0 0.5V24.23C0 24.3626 0.0526785 24.4898 0.146447 24.5836C0.240215 24.6773 0.367392 24.73 0.5 24.73H12.67C15.8885 24.6385 18.9445 23.2956 21.1887 20.9867C23.4329 18.6778 24.6883 15.5848 24.6883 12.365C24.6883 9.14517 23.4329 6.05222 21.1887 3.74332C18.9445 1.43442 15.8885 0.0915386 12.67 0ZM13.86 21C12.0187 21.3169 10.1242 21.0395 8.45107 20.2079C6.77789 19.3764 5.4128 18.0339 4.55347 16.3748C3.69414 14.7158 3.38516 12.8263 3.67129 10.9799C3.95741 9.1335 4.82378 7.42612 6.14495 6.10495C7.46612 4.78378 9.1735 3.91741 11.0199 3.63129C12.8663 3.34516 14.7558 3.65414 16.4148 4.51347C18.0739 5.3728 19.4164 6.73789 20.2479 8.41107C21.0795 10.0842 21.3569 11.9787 21.04 13.82C20.7316 15.6119 19.8757 17.2643 18.59 18.55C17.3043 19.8357 15.6519 20.6916 13.86 21Z" fill="#0062B8"/>
<path d="M47.29 14.88C47.29 15.44 47.23 15.72 47.11 15.72H37.94C37.86 15.72 37.82 15.72 37.82 15.86C37.8157 16.3246 37.9055 16.7852 38.084 17.2141C38.2625 17.643 38.5261 18.0313 38.8587 18.3555C39.1914 18.6798 39.5863 18.9333 40.0196 19.1008C40.453 19.2683 40.9157 19.3463 41.38 19.33C42.0229 19.3798 42.6663 19.2407 43.2313 18.9298C43.7962 18.6189 44.258 18.1498 44.56 17.58C44.5691 17.5448 44.5899 17.5138 44.6189 17.492C44.648 17.4702 44.6837 17.4589 44.72 17.46H46.72C46.82 17.46 46.86 17.46 46.85 17.58C46.5685 18.7518 45.854 19.7736 44.85 20.44C43.7858 21.1373 42.5314 21.4867 41.26 21.44C40.4527 21.4741 39.6478 21.3296 38.9027 21.0167C38.1577 20.7038 37.4909 20.2303 36.95 19.63C35.8347 18.2945 35.2634 16.5879 35.35 14.85C35.2594 13.1278 35.8078 11.4328 36.89 10.09C37.4445 9.48104 38.1286 9.00411 38.8918 8.69433C39.6549 8.38456 40.4779 8.24983 41.3 8.30005C42.1181 8.24635 42.9376 8.37963 43.6965 8.68977C44.4554 8.99991 45.1337 9.47877 45.68 10.09C46.7301 11.4551 47.2585 13.1501 47.17 14.87L47.29 14.88ZM44.94 13.73C44.9324 12.8879 44.6116 12.0786 44.04 11.46C43.7096 11.1143 43.3072 10.8456 42.8614 10.6727C42.4155 10.4999 41.9371 10.4273 41.46 10.46C40.9665 10.4364 40.474 10.5238 40.0188 10.716C39.5636 10.9081 39.1573 11.1999 38.83 11.57C38.2406 12.1495 37.8847 12.9253 37.83 13.75C37.83 13.84 37.83 13.88 37.95 13.88H44.76C44.85 13.88 44.89 13.88 44.89 13.75" fill="#1E2B3C"/>
<path d="M50.58 3.71999C50.58 3.63999 50.58 3.59999 50.72 3.59999H61.84C61.8562 3.59844 61.8724 3.60048 61.8877 3.60596C61.903 3.61145 61.9168 3.62024 61.9283 3.63171C61.9398 3.64317 61.9486 3.65703 61.954 3.6723C61.9595 3.68756 61.9616 3.70385 61.96 3.71999V5.59999C61.96 5.68999 61.96 5.72999 61.84 5.72999H53.08C53 5.72999 52.96 5.72999 52.96 5.85999V10.94C52.96 11.02 52.96 11.07 53.08 11.07H60.81C60.89 11.07 60.93 11.12 60.93 11.2V13.07C60.9314 13.0866 60.9293 13.1033 60.9239 13.119C60.9185 13.1347 60.9099 13.1492 60.8986 13.1614C60.8873 13.1736 60.8736 13.1834 60.8584 13.19C60.8431 13.1966 60.8267 13.2 60.81 13.2H53.08C53.0639 13.1984 53.0476 13.2005 53.0323 13.206C53.0171 13.2114 53.0032 13.2202 52.9917 13.2317C52.9803 13.2432 52.9715 13.257 52.966 13.2723C52.9605 13.2876 52.9585 13.3038 52.96 13.32V21.07C52.9616 21.0861 52.9595 21.1024 52.954 21.1177C52.9486 21.1329 52.9398 21.1468 52.9283 21.1583C52.9168 21.1697 52.903 21.1785 52.8877 21.184C52.8724 21.1895 52.8562 21.1915 52.84 21.19H50.72C50.7029 21.1914 50.6858 21.1893 50.6695 21.184C50.6532 21.1787 50.6381 21.1703 50.6251 21.1591C50.612 21.148 50.6014 21.1343 50.5936 21.119C50.5859 21.1038 50.5813 21.0871 50.58 21.07V3.71999Z" fill="#1E2B3C"/>
<path d="M75.94 14.88C76.029 16.6255 75.4334 18.3369 74.28 19.65C73.0489 20.8059 71.4237 21.4493 69.735 21.4493C68.0463 21.4493 66.4211 20.8059 65.19 19.65C64.0439 18.3332 63.4525 16.6236 63.54 14.88C63.4546 13.1368 64.0457 11.4279 65.19 10.11C66.4222 8.95636 68.047 8.31445 69.735 8.31445C71.423 8.31445 73.0478 8.95636 74.28 10.11C75.4279 11.4264 76.0227 13.1354 75.94 14.88ZM72.54 18.09C73.2446 17.1731 73.5992 16.0349 73.54 14.88C73.5992 13.7251 73.2446 12.587 72.54 11.67C72.2008 11.2643 71.7726 10.9423 71.2887 10.729C70.8048 10.5157 70.2783 10.4168 69.75 10.44C69.2196 10.4155 68.6906 10.5127 68.2035 10.7242C67.7165 10.9357 67.2843 11.2558 66.94 11.66C66.2339 12.58 65.8793 13.7219 65.94 14.88C65.8772 16.0354 66.2322 17.1747 66.94 18.09C67.2942 18.4775 67.7252 18.7869 68.2055 18.9986C68.6859 19.2103 69.2051 19.3197 69.73 19.3197C70.2549 19.3197 70.7741 19.2103 71.2545 18.9986C71.7348 18.7869 72.1658 18.4775 72.52 18.09" fill="#1E2B3C"/>
<path d="M85.65 10.4299H84.38C83.9143 10.4075 83.45 10.4965 83.0256 10.6895C82.6012 10.8826 82.229 11.1741 81.94 11.5399C81.3297 12.2927 81.0134 13.2415 81.05 14.2099V21.0799C81.05 21.1599 81 21.1999 80.91 21.1999H78.83C78.8138 21.2015 78.7975 21.1995 78.7823 21.194C78.767 21.1885 78.7532 21.1797 78.7417 21.1682C78.7302 21.1568 78.7214 21.1429 78.716 21.1276C78.7105 21.1124 78.7084 21.0961 78.71 21.0799V8.67994C78.7084 8.6638 78.7105 8.64751 78.716 8.63225C78.7214 8.61699 78.7302 8.60313 78.7417 8.59166C78.7532 8.58019 78.767 8.5714 78.7823 8.56592C78.7975 8.56044 78.8138 8.5584 78.83 8.55994H80.71C80.71 8.55994 80.8 8.55994 80.83 8.67994L81.09 9.79994C81.1366 9.95328 81.2266 9.95328 81.36 9.79994C81.7332 9.35833 82.1908 8.99556 82.7059 8.73286C83.221 8.47015 83.7833 8.31278 84.36 8.26994H85.63C85.6471 8.26858 85.6642 8.27061 85.6805 8.27591C85.6968 8.28121 85.7119 8.28968 85.7249 8.30083C85.7379 8.31198 85.7486 8.3256 85.7564 8.34089C85.7641 8.35618 85.7687 8.37285 85.77 8.38994V10.2699C85.77 10.2879 85.7664 10.3057 85.7592 10.3221C85.7521 10.3386 85.7416 10.3534 85.7284 10.3656C85.7153 10.3778 85.6998 10.3872 85.6828 10.3931C85.6659 10.399 85.6479 10.4013 85.63 10.3999" fill="#1E2B3C"/>
<path d="M98.37 21.08C98.3716 21.0962 98.3695 21.1125 98.364 21.1277C98.3585 21.143 98.3498 21.1568 98.3383 21.1683C98.3268 21.1798 98.313 21.1886 98.2977 21.194C98.2824 21.1995 98.2661 21.2016 98.25 21.2H96.09C96.02 21.2 95.99 21.2 95.99 21.08V14.21C96.0354 13.2588 95.8356 12.3119 95.41 11.46C95.1802 11.1122 94.8587 10.8347 94.481 10.6582C94.1034 10.4817 93.6842 10.4131 93.27 10.46C92.8416 10.4204 92.4105 10.4981 92.023 10.6849C91.6354 10.8716 91.306 11.1603 91.07 11.52C90.611 12.3508 90.3896 13.2918 90.43 14.24V21.11C90.43 21.19 90.43 21.23 90.29 21.23H88.17C88.1539 21.2316 88.1376 21.2295 88.1223 21.224C88.107 21.2186 88.0932 21.2098 88.0817 21.1983C88.0702 21.1868 88.0615 21.173 88.056 21.1577C88.0505 21.1425 88.0485 21.1262 88.05 21.11V8.68002C88.0485 8.66388 88.0505 8.64759 88.056 8.63233C88.0615 8.61707 88.0702 8.60321 88.0817 8.59174C88.0932 8.58027 88.107 8.57148 88.1223 8.566C88.1376 8.56051 88.1539 8.55847 88.17 8.56002H90.05C90.05 8.56002 90.14 8.56002 90.17 8.68002L90.43 9.80002C90.4391 9.82903 90.4581 9.85392 90.4837 9.87036C90.5093 9.88681 90.5398 9.89376 90.57 9.89002C90.6002 9.88737 90.6294 9.87788 90.6554 9.86229C90.6813 9.8467 90.7034 9.82541 90.72 9.80002C90.9914 9.31358 91.4223 8.93565 91.94 8.73002C92.5622 8.42751 93.2484 8.27998 93.94 8.30002C94.559 8.27957 95.1755 8.38856 95.75 8.62002C96.3589 8.92372 96.9158 9.32199 97.4 9.80002C97.4407 9.83798 97.4943 9.85909 97.55 9.85909C97.6057 9.85909 97.6593 9.83798 97.7 9.80002C98.1705 9.28491 98.7512 8.88254 99.3987 8.62284C100.046 8.36313 100.744 8.25279 101.44 8.30002C102.136 8.2498 102.835 8.36184 103.48 8.62734C104.126 8.89283 104.701 9.30453 105.16 9.83002C106.069 11.1022 106.511 12.6496 106.41 14.21V21.08C106.412 21.0962 106.41 21.1125 106.404 21.1277C106.399 21.143 106.39 21.1568 106.378 21.1683C106.367 21.1798 106.353 21.1886 106.338 21.194C106.322 21.1995 106.306 21.2016 106.29 21.2H104.15C104.134 21.2016 104.118 21.1995 104.102 21.194C104.087 21.1886 104.073 21.1798 104.062 21.1683C104.05 21.1568 104.041 21.143 104.036 21.1277C104.03 21.1125 104.028 21.0962 104.03 21.08V14.21C104.03 12.35 103.58 11.21 102.69 10.73C102.231 10.5153 101.727 10.4125 101.22 10.43C100.8 10.38 100.374 10.4469 99.9893 10.6234C99.6047 10.7998 99.2762 11.0789 99.04 11.43C98.6088 12.2838 98.4056 13.2346 98.45 14.19L98.37 21.08Z" fill="#1E2B3C"/>
<path d="M112.72 3.71998V6.34998C112.722 6.36838 112.719 6.38696 112.713 6.40426C112.706 6.42155 112.696 6.4371 112.682 6.44969C112.669 6.46227 112.652 6.47156 112.635 6.47681C112.617 6.48206 112.598 6.48315 112.58 6.47998H109.94C109.923 6.4815 109.905 6.47919 109.889 6.4732C109.872 6.4672 109.857 6.45768 109.845 6.44528C109.832 6.43289 109.823 6.41794 109.817 6.40148C109.811 6.38501 109.809 6.36743 109.81 6.34998V3.71998C109.81 3.63998 109.81 3.59998 109.94 3.59998H112.56C112.65 3.59998 112.7 3.59998 112.7 3.71998H112.72ZM112.44 8.71998V21.12C112.442 21.1361 112.44 21.1524 112.434 21.1677C112.429 21.1829 112.42 21.1968 112.408 21.2083C112.397 21.2197 112.383 21.2285 112.368 21.234C112.352 21.2395 112.336 21.2415 112.32 21.24H110.18C110.164 21.2415 110.148 21.2395 110.132 21.234C110.117 21.2285 110.103 21.2197 110.092 21.2083C110.08 21.1968 110.071 21.1829 110.066 21.1677C110.061 21.1524 110.058 21.1361 110.06 21.12V8.67998C110.058 8.66383 110.061 8.64755 110.066 8.63228C110.071 8.61702 110.08 8.60316 110.092 8.59169C110.103 8.58022 110.117 8.57143 110.132 8.56595C110.148 8.56047 110.164 8.55843 110.18 8.55998H112.32C112.336 8.55843 112.352 8.56047 112.368 8.56595C112.383 8.57143 112.397 8.58022 112.408 8.59169C112.42 8.60316 112.429 8.61702 112.434 8.63228C112.44 8.64755 112.442 8.66383 112.44 8.67998" fill="#1E2B3C"/>
<path d="M127.26 21.1999H125.38C125.33 21.1999 125.29 21.1999 125.25 21.0799L125 20.0799C124.95 19.9399 124.87 19.9199 124.75 20.0299C123.751 20.8863 122.495 21.3859 121.18 21.4499C120.368 21.4864 119.558 21.3431 118.808 21.0302C118.057 20.7173 117.386 20.2426 116.84 19.6399C115.723 18.3125 115.148 16.6127 115.23 14.8799C115.147 13.147 115.722 11.4469 116.84 10.1199C117.386 9.51768 118.058 9.04257 118.808 8.72811C119.558 8.41365 120.368 8.2675 121.18 8.29994C121.936 8.2987 122.683 8.47329 123.36 8.80994C123.875 9.02679 124.345 9.33511 124.75 9.71994C124.82 9.78994 124.87 9.80994 124.92 9.77994C124.943 9.77185 124.963 9.75701 124.977 9.73737C124.991 9.71773 124.999 9.69422 125 9.66994V3.66994C125 3.58994 125 3.54994 125.13 3.54994H127.26C127.276 3.54839 127.292 3.55043 127.308 3.55592C127.323 3.5614 127.337 3.57019 127.348 3.58166C127.36 3.59312 127.369 3.60699 127.374 3.62225C127.379 3.63751 127.382 3.6538 127.38 3.66994V21.0799C127.382 21.0961 127.379 21.1124 127.374 21.1276C127.369 21.1429 127.36 21.1568 127.348 21.1682C127.337 21.1797 127.323 21.1885 127.308 21.194C127.292 21.1994 127.276 21.2015 127.26 21.1999ZM117.61 14.8799C117.553 16.0346 117.907 17.1722 118.61 18.0899C118.944 18.4919 119.365 18.8118 119.842 19.0251C120.319 19.2383 120.838 19.3392 121.36 19.3199C121.872 19.3452 122.382 19.2476 122.848 19.0354C123.314 18.8231 123.723 18.5024 124.04 18.0999C124.707 17.163 125.038 16.0285 124.98 14.8799C125.034 13.7288 124.703 12.5924 124.04 11.6499C123.727 11.2457 123.32 10.9236 122.855 10.7111C122.39 10.4986 121.881 10.4021 121.37 10.4299C120.847 10.4087 120.327 10.5076 119.848 10.7191C119.37 10.9306 118.946 11.249 118.61 11.6499C117.907 12.5755 117.553 13.7192 117.61 14.8799Z" fill="#1E2B3C"/>
<path d="M133.39 3.71999V21.08C133.392 21.0961 133.39 21.1124 133.384 21.1277C133.379 21.1429 133.37 21.1568 133.358 21.1683C133.347 21.1797 133.333 21.1885 133.318 21.194C133.302 21.1995 133.286 21.2015 133.27 21.2H131.15C131.133 21.2014 131.116 21.1993 131.099 21.194C131.083 21.1887 131.068 21.1803 131.055 21.1691C131.042 21.158 131.031 21.1443 131.024 21.129C131.016 21.1138 131.011 21.0971 131.01 21.08V3.71999C131.01 3.63999 131.06 3.59999 131.15 3.59999H133.27C133.286 3.59844 133.302 3.60048 133.318 3.60596C133.333 3.61145 133.347 3.62024 133.358 3.63171C133.37 3.64317 133.379 3.65703 133.384 3.6723C133.39 3.68756 133.392 3.70385 133.39 3.71999Z" fill="#1E2B3C"/>
<path d="M139.77 3.71999V6.34999C139.772 6.3684 139.769 6.38697 139.763 6.40427C139.756 6.42157 139.746 6.43712 139.732 6.4497C139.719 6.46229 139.702 6.47157 139.685 6.47682C139.667 6.48208 139.648 6.48316 139.63 6.47999H137.01C136.93 6.47999 136.89 6.47999 136.89 6.34999V3.71999C136.888 3.70385 136.891 3.68756 136.896 3.6723C136.901 3.65703 136.91 3.64317 136.922 3.63171C136.933 3.62024 136.947 3.61145 136.962 3.60596C136.978 3.60048 136.994 3.59844 137.01 3.59999H139.63C139.72 3.59999 139.77 3.59999 139.77 3.71999ZM139.51 8.71999V21.12C139.512 21.1361 139.51 21.1524 139.504 21.1677C139.499 21.1829 139.49 21.1968 139.478 21.2083C139.467 21.2197 139.453 21.2285 139.438 21.234C139.422 21.2395 139.406 21.2415 139.39 21.24H137.25C137.234 21.2415 137.218 21.2395 137.202 21.234C137.187 21.2285 137.173 21.2197 137.162 21.2083C137.15 21.1968 137.141 21.1829 137.136 21.1677C137.131 21.1524 137.128 21.1361 137.13 21.12V8.67999C137.128 8.66385 137.131 8.64756 137.136 8.6323C137.141 8.61703 137.15 8.60317 137.162 8.59171C137.173 8.58024 137.187 8.57145 137.202 8.56596C137.218 8.56048 137.234 8.55844 137.25 8.55999H139.39C139.406 8.55844 139.422 8.56048 139.438 8.56596C139.453 8.57145 139.467 8.58024 139.478 8.59171C139.49 8.60317 139.499 8.61703 139.504 8.6323C139.51 8.64756 139.512 8.66385 139.51 8.67999" fill="#1E2B3C"/>
<path d="M143.08 8.55997H144.94C144.94 8.55997 145.02 8.55997 145.06 8.67997L145.31 9.79998C145.319 9.82985 145.337 9.8559 145.363 9.87402C145.388 9.89213 145.419 9.90127 145.45 9.89997C145.477 9.90233 145.505 9.89704 145.53 9.88468C145.555 9.87233 145.575 9.8534 145.59 9.82997C145.964 9.32176 146.459 8.9154 147.03 8.6481C147.601 8.3808 148.23 8.2611 148.86 8.29997C149.62 8.24431 150.383 8.36314 151.09 8.64738C151.797 8.93162 152.43 9.37375 152.94 9.93998C153.921 11.1338 154.43 12.646 154.37 14.19V21.06C154.37 21.14 154.37 21.18 154.24 21.18H152.11C152.094 21.1815 152.078 21.1795 152.062 21.174C152.047 21.1685 152.033 21.1597 152.022 21.1483C152.01 21.1368 152.001 21.1229 151.996 21.1077C151.99 21.0924 151.988 21.0761 151.99 21.06V14.21C152.023 13.2486 151.746 12.3021 151.2 11.51C150.917 11.1469 150.549 10.8587 150.129 10.6704C149.709 10.4822 149.249 10.3996 148.79 10.43C148.313 10.402 147.837 10.4881 147.401 10.6811C146.964 10.8742 146.58 11.1686 146.28 11.54C145.667 12.2926 145.344 13.2398 145.37 14.21V21.08C145.372 21.0961 145.369 21.1124 145.364 21.1277C145.359 21.1429 145.35 21.1568 145.338 21.1683C145.327 21.1797 145.313 21.1885 145.298 21.194C145.282 21.1995 145.266 21.2015 145.25 21.2H143.12C143.03 21.2 142.99 21.2 142.99 21.08V8.67997C142.99 8.59997 142.99 8.55997 143.12 8.55997" fill="#1E2B3C"/>
<path d="M162.8 24.28C163.295 24.3244 163.793 24.2576 164.258 24.0846C164.724 23.9116 165.145 23.6367 165.49 23.28C166.074 22.5734 166.377 21.676 166.34 20.76V20.09C166.34 20.04 166.34 20.01 166.26 19.98C166.23 19.9709 166.199 19.9719 166.17 19.9827C166.141 19.9936 166.116 20.0137 166.1 20.04C165.716 20.4459 165.249 20.7633 164.73 20.97C164.048 21.3135 163.294 21.4916 162.53 21.49C161.728 21.5102 160.932 21.3572 160.195 21.0414C159.458 20.7256 158.798 20.2543 158.26 19.66C157.109 18.3445 156.507 16.6367 156.58 14.89C156.497 13.1631 157.073 11.4693 158.19 10.15C158.736 9.55084 159.407 9.07839 160.155 8.76572C160.903 8.45306 161.71 8.30774 162.52 8.33996C163.208 8.35051 163.888 8.49663 164.52 8.76997C165.118 8.99225 165.666 9.3323 166.13 9.76997C166.243 9.87663 166.323 9.87663 166.37 9.76997L166.63 8.76997C166.63 8.68997 166.67 8.64997 166.75 8.64997H168.63C168.646 8.64842 168.662 8.65046 168.678 8.65594C168.693 8.66142 168.707 8.67021 168.718 8.68168C168.73 8.69315 168.739 8.70701 168.744 8.72227C168.75 8.73754 168.752 8.75382 168.75 8.76997V20.77C168.78 21.5293 168.65 22.2865 168.369 22.9926C168.089 23.6988 167.663 24.3383 167.12 24.87C166.577 25.3908 165.936 25.7979 165.233 26.0675C164.531 26.3371 163.782 26.4637 163.03 26.44C161.583 26.4955 160.154 26.1007 158.94 25.31C158.469 25.0323 158.066 24.6515 157.763 24.1959C157.46 23.7404 157.264 23.2221 157.19 22.68C157.188 22.6638 157.191 22.6475 157.196 22.6323C157.201 22.617 157.21 22.6031 157.222 22.5917C157.233 22.5802 157.247 22.5714 157.262 22.5659C157.278 22.5605 157.294 22.5584 157.31 22.56H159.49C159.54 22.56 159.58 22.56 159.62 22.68C159.82 23.1461 160.173 23.5304 160.62 23.77C161.28 24.1422 162.033 24.319 162.79 24.28H162.8ZM158.94 14.88C158.883 16.0346 159.237 17.1722 159.94 18.09C160.272 18.4917 160.691 18.8116 161.166 19.025C161.642 19.2383 162.159 19.3392 162.68 19.32C163.191 19.3478 163.7 19.2513 164.165 19.0388C164.63 18.8263 165.037 18.5042 165.35 18.1C166.037 17.1703 166.39 16.0354 166.35 14.88C166.391 13.7212 166.039 12.5827 165.35 11.65C165.037 11.2458 164.63 10.9236 164.165 10.7111C163.7 10.4986 163.191 10.4021 162.68 10.43C162.16 10.4087 161.643 10.5078 161.167 10.7194C160.692 10.931 160.272 11.2495 159.94 11.65C159.237 12.5755 158.883 13.7192 158.94 14.88Z" fill="#1E2B3C"/>
</g>
<defs>
<clipPath id="clip0_1_430">
<rect width="168.72" height="26.4" fill="white"/>
</clipPath>
</defs>
</svg>
