<svg width="124" height="27" viewBox="0 0 124 27" fill="none" xmlns="http://www.w3.org/2000/svg">
<g clip-path="url(#clip0_1_272)">
<path d="M12.67 0H0.5C0.368193 0.00256007 0.242499 0.0560606 0.14928 0.14928C0.0560606 0.242499 0.00256007 0.368193 0 0.5V24.24C0.00256007 24.3718 0.0560606 24.4975 0.14928 24.5907C0.242499 24.6839 0.368193 24.7374 0.5 24.74H12.67C15.9507 24.74 19.0971 23.4367 21.4169 21.1169C23.7367 18.7971 25.04 15.6507 25.04 12.37C25.04 9.08927 23.7367 5.94291 21.4169 3.62309C19.0971 1.30326 15.9507 4.88867e-08 12.67 0ZM13.86 21C12.0187 21.3169 10.1242 21.0395 8.45107 20.2079C6.77789 19.3764 5.4128 18.0339 4.55347 16.3748C3.69414 14.7158 3.38516 12.8263 3.67129 10.9799C3.95741 9.1335 4.82378 7.42612 6.14495 6.10495C7.46612 4.78378 9.1735 3.91741 11.0199 3.63129C12.8663 3.34516 14.7558 3.65414 16.4148 4.51347C18.0739 5.3728 19.4164 6.73789 20.2479 8.41107C21.0795 10.0842 21.3569 11.9787 21.04 13.82C20.7316 15.6119 19.8757 17.2643 18.59 18.55C17.3043 19.8357 15.6519 20.6916 13.86 21Z" fill="#0062B8"/>
<path d="M47.29 14.88C47.29 15.44 47.23 15.72 47.11 15.72H37.94C37.86 15.72 37.82 15.72 37.82 15.86C37.8142 16.3245 37.903 16.7854 38.0812 17.2144C38.2593 17.6434 38.523 18.0317 38.8561 18.3554C39.1892 18.6792 39.5848 18.9317 40.0188 19.0975C40.4527 19.2634 40.9158 19.3391 41.38 19.32C42.0218 19.3707 42.6645 19.2331 43.2294 18.9241C43.7942 18.615 44.2566 18.1479 44.56 17.58C44.5691 17.5448 44.5899 17.5138 44.6189 17.492C44.648 17.4702 44.6837 17.4589 44.72 17.46H46.72C46.82 17.46 46.86 17.46 46.85 17.58C46.5685 18.7518 45.854 19.7736 44.85 20.44C43.7858 21.1373 42.5314 21.4867 41.26 21.44C40.4527 21.4741 39.6478 21.3296 38.9027 21.0167C38.1577 20.7038 37.4909 20.2303 36.95 19.63C35.8347 18.2945 35.2634 16.5879 35.35 14.85C35.2594 13.1278 35.8078 11.4328 36.89 10.09C37.4445 9.48104 38.1286 9.00411 38.8918 8.69433C39.6549 8.38456 40.4779 8.24983 41.3 8.30005C42.1181 8.24635 42.9376 8.37963 43.6965 8.68977C44.4554 8.99991 45.1337 9.47877 45.68 10.09C46.7301 11.4551 47.2585 13.1501 47.17 14.87L47.29 14.88ZM44.94 13.73C44.9324 12.8879 44.6116 12.0786 44.04 11.46C43.7096 11.1143 43.3072 10.8456 42.8614 10.6727C42.4155 10.4999 41.9371 10.4273 41.46 10.46C40.9665 10.4364 40.474 10.5238 40.0188 10.716C39.5636 10.9081 39.1573 11.1999 38.83 11.57C38.2406 12.1495 37.8847 12.9253 37.83 13.75C37.83 13.84 37.83 13.88 37.95 13.88H44.76C44.85 13.88 44.89 13.88 44.89 13.75" fill="#1E2B3C"/>
<path d="M50.56 3.59999H52.68C52.6971 3.59863 52.7143 3.60065 52.7306 3.60595C52.7469 3.61125 52.762 3.61972 52.775 3.63087C52.788 3.64203 52.7987 3.65564 52.8064 3.67093C52.8141 3.68623 52.8188 3.7029 52.82 3.71999V21.08C52.8218 21.0984 52.8194 21.117 52.8128 21.1343C52.8063 21.1516 52.7958 21.1671 52.7822 21.1797C52.7687 21.1923 52.7524 21.2016 52.7347 21.2068C52.7169 21.2121 52.6982 21.2132 52.68 21.21H50.56C50.48 21.21 50.44 21.16 50.44 21.08V3.71999C50.4385 3.70385 50.4405 3.68756 50.446 3.6723C50.4515 3.65703 50.4603 3.64317 50.4717 3.63171C50.4832 3.62024 50.4971 3.61145 50.5123 3.60596C50.5276 3.60048 50.5439 3.59844 50.56 3.59999Z" fill="#1E2B3C"/>
<path d="M56.38 8.56004H58.26C58.3134 8.56004 58.3534 8.60004 58.38 8.68004L58.64 9.80004C58.6469 9.8291 58.6636 9.85491 58.6873 9.87312C58.7109 9.89134 58.7402 9.90084 58.77 9.90004C58.799 9.90315 58.8283 9.89828 58.8548 9.88594C58.8812 9.8736 58.9038 9.85427 58.92 9.83004C59.2914 9.32194 59.7846 8.91548 60.3543 8.64811C60.9241 8.38073 61.5519 8.26103 62.18 8.30004C62.9286 8.25918 63.6767 8.38715 64.3691 8.67449C65.0615 8.96183 65.6804 9.40118 66.18 9.96004C67.161 11.1538 67.6698 12.6661 67.61 14.21V21.08C67.61 21.16 67.61 21.2 67.47 21.2H65.38C65.3639 21.2016 65.3476 21.1995 65.3323 21.1941C65.3171 21.1886 65.3032 21.1798 65.2917 21.1683C65.2803 21.1569 65.2715 21.143 65.266 21.1277C65.2605 21.1125 65.2585 21.0962 65.26 21.08V14.21C65.2891 13.2476 65.0087 12.3013 64.46 11.51C64.1776 11.1463 63.8101 10.8576 63.3898 10.6693C62.9696 10.481 62.5095 10.3988 62.05 10.43C61.5741 10.4069 61.0994 10.4951 60.6636 10.6879C60.2278 10.8806 59.8431 11.1724 59.54 11.54C58.9348 12.2962 58.6161 13.2418 58.64 14.21V21.08C58.6416 21.0962 58.6395 21.1125 58.634 21.1277C58.6286 21.143 58.6198 21.1569 58.6083 21.1683C58.5968 21.1798 58.583 21.1886 58.5677 21.1941C58.5525 21.1995 58.5362 21.2016 58.52 21.2H56.38C56.3639 21.2016 56.3476 21.1995 56.3323 21.1941C56.3171 21.1886 56.3032 21.1798 56.2917 21.1683C56.2803 21.1569 56.2715 21.143 56.266 21.1277C56.2605 21.1125 56.2585 21.0962 56.26 21.08V8.68004C56.2585 8.66389 56.2605 8.64761 56.266 8.63234C56.2715 8.61708 56.2803 8.60322 56.2917 8.59175C56.3032 8.58028 56.3171 8.57149 56.3323 8.56601C56.3476 8.56053 56.3639 8.55849 56.38 8.56004Z" fill="#1E2B3C"/>
<path d="M70.7 8.56004H72.58C72.58 8.56004 72.67 8.56004 72.7 8.68004L72.94 9.80004C72.9469 9.8291 72.9635 9.85491 72.9872 9.87312C73.0109 9.89134 73.0401 9.90084 73.07 9.90004C73.099 9.90315 73.1283 9.89828 73.1547 9.88594C73.1812 9.8736 73.2037 9.85427 73.22 9.83004C73.5913 9.32194 74.0846 8.91548 74.6543 8.64811C75.224 8.38073 75.8518 8.26103 76.48 8.30004C77.2285 8.25918 77.9766 8.38715 78.669 8.67449C79.3614 8.96183 79.9803 9.40118 80.48 9.96004C81.4717 11.1495 81.9913 12.6622 81.94 14.21V21.08C81.94 21.16 81.94 21.2 81.81 21.2H79.7C79.61 21.2 79.57 21.2 79.57 21.08V14.21C79.6027 13.2486 79.3257 12.3022 78.78 11.51C78.4975 11.1463 78.13 10.8576 77.7098 10.6693C77.2895 10.481 76.8294 10.3988 76.37 10.43C75.8941 10.4069 75.4193 10.4951 74.9836 10.6879C74.5478 10.8806 74.163 11.1724 73.86 11.54C73.2547 12.2962 72.936 13.2418 72.96 14.21V21.08C72.9615 21.0962 72.9595 21.1125 72.954 21.1277C72.9485 21.143 72.9397 21.1569 72.9283 21.1683C72.9168 21.1798 72.9029 21.1886 72.8877 21.1941C72.8724 21.1995 72.8561 21.2016 72.84 21.2H70.7C70.6838 21.2016 70.6675 21.1995 70.6523 21.1941C70.637 21.1886 70.6232 21.1798 70.6117 21.1683C70.6002 21.1569 70.5914 21.143 70.5859 21.1277C70.5805 21.1125 70.5784 21.0962 70.58 21.08V8.68004C70.5784 8.66389 70.5805 8.64761 70.5859 8.63234C70.5914 8.61708 70.6002 8.60322 70.6117 8.59175C70.6232 8.58028 70.637 8.57149 70.6523 8.56601C70.6675 8.56053 70.6838 8.55849 70.7 8.56004Z" fill="#1E2B3C"/>
<path d="M95.09 12.83H92.94C92.9239 12.8315 92.9076 12.8295 92.8923 12.824C92.8771 12.8185 92.8632 12.8097 92.8517 12.7983C92.8403 12.7868 92.8315 12.7729 92.826 12.7577C92.8205 12.7424 92.8185 12.7261 92.82 12.71C92.83 12.3869 92.7616 12.0662 92.6205 11.7753C92.4794 11.4845 92.2699 11.2322 92.01 11.04C91.3533 10.5984 90.57 10.3841 89.78 10.43C89.049 10.3757 88.3182 10.5393 87.68 10.9C87.4823 11.0127 87.3163 11.1735 87.1974 11.3676C87.0785 11.5617 87.0106 11.7826 87 12.01C86.9784 12.1668 86.9943 12.3266 87.0464 12.4761C87.0986 12.6256 87.1855 12.7606 87.3 12.87C87.5 13.02 87.68 13.15 87.86 13.26C88.6629 13.4846 89.4877 13.622 90.32 13.67C91.4596 13.7694 92.5801 14.0251 93.65 14.43C94.2448 14.6627 94.7498 15.0791 95.0916 15.6187C95.4333 16.1582 95.5939 16.7928 95.55 17.43C95.5937 18.0325 95.4769 18.6358 95.2117 19.1786C94.9465 19.7214 94.5422 20.1842 94.04 20.52C92.799 21.2431 91.3747 21.5905 89.94 21.52C88.4741 21.6063 87.026 21.1626 85.86 20.27C85.3922 19.8913 85.0174 19.4105 84.7643 18.8645C84.5113 18.3184 84.3866 17.7217 84.4 17.12C84.3985 17.1038 84.4005 17.0875 84.406 17.0723C84.4115 17.057 84.4203 17.0432 84.4317 17.0317C84.4432 17.0202 84.4571 17.0114 84.4723 17.0059C84.4876 17.0005 84.5039 16.9984 84.52 17H86.63C86.73 17 86.78 17.04 86.78 17.12C86.7804 17.4455 86.8631 17.7657 87.0205 18.0507C87.1778 18.3357 87.4047 18.5762 87.68 18.75C88.3834 19.2064 89.2125 19.4303 90.05 19.39C92.13 19.39 93.17 18.76 93.17 17.5C93.1765 17.3533 93.1532 17.2068 93.1017 17.0694C93.0501 16.9319 92.9713 16.8062 92.87 16.7C92.6961 16.5169 92.4846 16.3736 92.25 16.28L91.79 16.12C91.636 16.0775 91.4788 16.0474 91.32 16.03L90.68 15.92C90.4729 15.8758 90.2618 15.8524 90.05 15.85C88.7935 15.7573 87.5623 15.4495 86.41 14.94C85.7121 14.6166 85.1545 14.0519 84.84 13.35C84.6893 12.9195 84.6148 12.466 84.62 12.01C84.621 11.4892 84.749 10.9766 84.9929 10.5165C85.2369 10.0565 85.5895 9.66289 86.02 9.36997C87.1148 8.60217 88.4346 8.22206 89.77 8.28997C91.1561 8.23699 92.5218 8.6372 93.66 9.42997C94.1687 9.80368 94.576 10.2985 94.845 10.8696C95.1139 11.4406 95.2359 12.0698 95.2 12.7C95.2 12.78 95.15 12.82 95.09 12.82" fill="#1E2B3C"/>
<path d="M97.71 24.1701C97.7086 24.1535 97.7107 24.1368 97.7161 24.1211C97.7215 24.1053 97.7302 24.0909 97.7414 24.0787C97.7527 24.0664 97.7664 24.0567 97.7817 24.05C97.7969 24.0434 97.8134 24.04 97.83 24.0401H100.65C100.926 24.0759 101.207 24.0363 101.462 23.9253C101.717 23.8144 101.938 23.6363 102.1 23.4101C102.221 23.1519 102.284 22.8703 102.284 22.5851C102.284 22.2999 102.221 22.0182 102.1 21.7601L97.66 8.68006C97.66 8.60006 97.66 8.56006 97.8 8.56006H100.07C100.07 8.56006 100.16 8.56006 100.2 8.68006L103.47 18.6801C103.475 18.7083 103.49 18.7339 103.512 18.7523C103.534 18.7706 103.561 18.7805 103.59 18.7801C103.62 18.783 103.651 18.7743 103.675 18.7557C103.699 18.7372 103.715 18.7101 103.72 18.6801L107.03 8.68006C107.03 8.60006 107.07 8.56006 107.15 8.56006H109.42C109.53 8.56006 109.58 8.56006 109.55 8.68006L104.55 23.3801C104.316 24.2008 103.875 24.9478 103.27 25.5501C102.619 25.9965 101.837 26.2113 101.05 26.1601H97.8C97.72 26.1601 97.68 26.1601 97.68 26.0301L97.71 24.1701Z" fill="#1E2B3C"/>
<path d="M111.94 8.55997H113.82C113.82 8.55997 113.91 8.55997 113.94 8.67997L114.2 9.79997C114.209 9.82984 114.227 9.8559 114.253 9.87401C114.278 9.89212 114.309 9.90126 114.34 9.89997C114.368 9.90232 114.395 9.89703 114.42 9.88468C114.445 9.87233 114.465 9.85339 114.48 9.82997C114.853 9.32108 115.348 8.91421 115.919 8.64683C116.491 8.37946 117.12 8.26017 117.75 8.29997C118.499 8.25911 119.247 8.38708 119.939 8.67442C120.631 8.96176 121.25 9.40112 121.75 9.95997C122.731 11.1538 123.24 12.666 123.18 14.21V21.08C123.18 21.16 123.13 21.2 123.04 21.2H120.94C120.924 21.2015 120.908 21.1995 120.892 21.194C120.877 21.1885 120.863 21.1797 120.852 21.1683C120.84 21.1568 120.831 21.1429 120.826 21.1277C120.821 21.1124 120.818 21.0961 120.82 21.08V14.21C120.848 13.2492 120.571 12.3042 120.03 11.51C119.745 11.1468 119.375 10.8586 118.954 10.6704C118.532 10.4822 118.071 10.3997 117.61 10.43C117.134 10.4068 116.659 10.4951 116.224 10.6878C115.788 10.8805 115.403 11.1723 115.1 11.54C114.495 12.2961 114.176 13.2417 114.2 14.21V21.08C114.202 21.0961 114.2 21.1124 114.194 21.1277C114.189 21.1429 114.18 21.1568 114.168 21.1683C114.157 21.1797 114.143 21.1885 114.128 21.194C114.112 21.1995 114.096 21.2015 114.08 21.2H111.94C111.924 21.2015 111.908 21.1995 111.892 21.194C111.877 21.1885 111.863 21.1797 111.852 21.1683C111.84 21.1568 111.831 21.1429 111.826 21.1277C111.821 21.1124 111.818 21.0961 111.82 21.08V8.67997C111.818 8.66383 111.821 8.64754 111.826 8.63228C111.831 8.61701 111.84 8.60315 111.852 8.59168C111.863 8.58022 111.877 8.57143 111.892 8.56594C111.908 8.56046 111.924 8.55842 111.94 8.55997Z" fill="#1E2B3C"/>
</g>
<defs>
<clipPath id="clip0_1_272">
<rect width="123.17" height="26.16" fill="white"/>
</clipPath>
</defs>
</svg>
