<svg width="124" height="27" viewBox="0 0 124 27" fill="none" xmlns="http://www.w3.org/2000/svg">
<g clip-path="url(#clip0_1_281)">
<path d="M12.67 0.160156H0.5C0.368193 0.162716 0.242499 0.216217 0.14928 0.309436C0.0560606 0.402655 0.00256007 0.52835 0 0.660156V24.4002C0.00256007 24.532 0.0560606 24.6577 0.14928 24.7509C0.242499 24.8441 0.368193 24.8976 0.5 24.9002H12.67C15.9507 24.9002 19.0971 23.5969 21.4169 21.2771C23.7367 18.9572 25.04 15.8109 25.04 12.5302C25.04 9.24943 23.7367 6.10307 21.4169 3.78325C19.0971 1.46342 15.9507 0.160156 12.67 0.160156ZM13.86 21.1602C12.0187 21.477 10.1242 21.1996 8.45107 20.3681C6.77789 19.5366 5.4128 18.1941 4.55347 16.535C3.69414 14.8759 3.38516 12.9864 3.67129 11.14C3.95741 9.29366 4.82378 7.58627 6.14495 6.26511C7.46612 4.94394 9.1735 4.07757 11.0199 3.79144C12.8663 3.50532 14.7558 3.81429 16.4148 4.67363C18.0739 5.53296 19.4164 6.89805 20.2479 8.57122C21.0795 10.2444 21.3569 12.1388 21.04 13.9802C20.7316 15.7721 19.8757 17.4245 18.59 18.7102C17.3043 19.9959 15.6519 20.8518 13.86 21.1602Z" fill="black"/>
<path d="M47.29 15.0402C47.29 15.6002 47.23 15.8802 47.11 15.8802H37.94C37.86 15.8802 37.82 15.8802 37.82 16.0202C37.8142 16.4847 37.903 16.9455 38.0812 17.3746C38.2593 17.8036 38.523 18.1918 38.8561 18.5156C39.1892 18.8394 39.5848 19.0919 40.0188 19.2577C40.4527 19.4236 40.9158 19.4993 41.38 19.4802C42.0218 19.5309 42.6645 19.3933 43.2294 19.0842C43.7942 18.7752 44.2566 18.3081 44.56 17.7402C44.5691 17.705 44.5899 17.6739 44.6189 17.6521C44.648 17.6303 44.6837 17.6191 44.72 17.6202H46.72C46.82 17.6202 46.86 17.6202 46.85 17.7402C46.5685 18.9119 45.854 19.9337 44.85 20.6002C43.7858 21.2974 42.5314 21.6468 41.26 21.6002C40.4527 21.6343 39.6478 21.4897 38.9027 21.1769C38.1577 20.864 37.4909 20.3905 36.95 19.7902C35.8347 18.4547 35.2634 16.748 35.35 15.0102C35.2594 13.288 35.8078 11.593 36.89 10.2502C37.4445 9.6412 38.1286 9.16426 38.8918 8.85449C39.6549 8.54472 40.4779 8.40998 41.3 8.4602C42.1181 8.40651 42.9376 8.53979 43.6965 8.84993C44.4554 9.16007 45.1337 9.63893 45.68 10.2502C46.7301 11.6152 47.2585 13.3103 47.17 15.0302L47.29 15.0402ZM44.94 13.8902C44.9324 13.048 44.6116 12.2388 44.04 11.6202C43.7096 11.2745 43.3072 11.0057 42.8614 10.8329C42.4155 10.6601 41.9371 10.5875 41.46 10.6202C40.9665 10.5965 40.474 10.684 40.0188 10.8761C39.5636 11.0682 39.1573 11.3601 38.83 11.7302C38.2406 12.3097 37.8847 13.0855 37.83 13.9102C37.83 14.0002 37.83 14.0402 37.95 14.0402H44.76C44.85 14.0402 44.89 14.0402 44.89 13.9102" fill="black"/>
<path d="M50.56 3.76015H52.68C52.6971 3.75878 52.7143 3.76081 52.7306 3.76611C52.7469 3.77141 52.762 3.77988 52.775 3.79103C52.788 3.80218 52.7987 3.8158 52.8064 3.83109C52.8141 3.84638 52.8188 3.86306 52.82 3.88015V21.2401C52.8218 21.2586 52.8194 21.2771 52.8128 21.2944C52.8063 21.3117 52.7958 21.3273 52.7822 21.3399C52.7687 21.3524 52.7524 21.3617 52.7347 21.367C52.7169 21.3722 52.6982 21.3733 52.68 21.3701H50.56C50.48 21.3701 50.44 21.3201 50.44 21.2401V3.88015C50.4385 3.864 50.4405 3.84772 50.446 3.83245C50.4515 3.81719 50.4603 3.80333 50.4717 3.79186C50.4832 3.78039 50.4971 3.7716 50.5123 3.76612C50.5276 3.76064 50.5439 3.7586 50.56 3.76015Z" fill="black"/>
<path d="M56.38 8.72019H58.26C58.3134 8.72019 58.3534 8.76019 58.38 8.84019L58.64 9.96019C58.6469 9.98926 58.6636 10.0151 58.6873 10.0333C58.7109 10.0515 58.7402 10.061 58.77 10.0602C58.799 10.0633 58.8283 10.0584 58.8548 10.0461C58.8812 10.0338 58.9038 10.0144 58.92 9.99019C59.2914 9.4821 59.7846 9.07564 60.3543 8.80826C60.9241 8.54088 61.5519 8.42118 62.18 8.46019C62.9286 8.41933 63.6767 8.54731 64.3691 8.83465C65.0615 9.12199 65.6804 9.56134 66.18 10.1202C67.161 11.314 67.6698 12.8262 67.61 14.3702V21.2402C67.61 21.3202 67.61 21.3602 67.47 21.3602H65.38C65.3639 21.3617 65.3476 21.3597 65.3323 21.3542C65.3171 21.3487 65.3032 21.3399 65.2917 21.3285C65.2803 21.317 65.2715 21.3031 65.266 21.2879C65.2605 21.2726 65.2585 21.2563 65.26 21.2402V14.3702C65.2891 13.4078 65.0087 12.4614 64.46 11.6702C64.1776 11.3065 63.8101 11.0178 63.3898 10.8294C62.9696 10.6411 62.5095 10.5589 62.05 10.5902C61.5741 10.567 61.0994 10.6553 60.6636 10.848C60.2278 11.0407 59.8431 11.3325 59.54 11.7002C58.9348 12.4563 58.6161 13.4019 58.64 14.3702V21.2402C58.6416 21.2563 58.6395 21.2726 58.634 21.2879C58.6286 21.3031 58.6198 21.317 58.6083 21.3285C58.5968 21.3399 58.583 21.3487 58.5677 21.3542C58.5525 21.3597 58.5362 21.3617 58.52 21.3602H56.38C56.3639 21.3617 56.3476 21.3597 56.3323 21.3542C56.3171 21.3487 56.3032 21.3399 56.2917 21.3285C56.2803 21.317 56.2715 21.3031 56.266 21.2879C56.2605 21.2726 56.2585 21.2563 56.26 21.2402V8.84019C56.2585 8.82405 56.2605 8.80776 56.266 8.7925C56.2715 8.77724 56.2803 8.76338 56.2917 8.75191C56.3032 8.74044 56.3171 8.73165 56.3323 8.72617C56.3476 8.72068 56.3639 8.71864 56.38 8.72019Z" fill="black"/>
<path d="M70.7 8.72019H72.58C72.58 8.72019 72.67 8.72019 72.7 8.84019L72.94 9.96019C72.9469 9.98926 72.9635 10.0151 72.9872 10.0333C73.0109 10.0515 73.0401 10.061 73.07 10.0602C73.099 10.0633 73.1283 10.0584 73.1547 10.0461C73.1812 10.0338 73.2037 10.0144 73.22 9.99019C73.5913 9.4821 74.0846 9.07564 74.6543 8.80826C75.224 8.54088 75.8518 8.42118 76.48 8.46019C77.2285 8.41933 77.9766 8.54731 78.669 8.83465C79.3614 9.12199 79.9803 9.56134 80.48 10.1202C81.4717 11.3097 81.9913 12.8224 81.94 14.3702V21.2402C81.94 21.3202 81.94 21.3602 81.81 21.3602H79.7C79.61 21.3602 79.57 21.3602 79.57 21.2402V14.3702C79.6027 13.4088 79.3257 12.4623 78.78 11.6702C78.4975 11.3065 78.13 11.0178 77.7098 10.8294C77.2895 10.6411 76.8294 10.5589 76.37 10.5902C75.8941 10.567 75.4193 10.6553 74.9836 10.848C74.5478 11.0407 74.163 11.3325 73.86 11.7002C73.2547 12.4563 72.936 13.4019 72.96 14.3702V21.2402C72.9615 21.2563 72.9595 21.2726 72.954 21.2879C72.9485 21.3031 72.9397 21.317 72.9283 21.3285C72.9168 21.3399 72.9029 21.3487 72.8877 21.3542C72.8724 21.3597 72.8561 21.3617 72.84 21.3602H70.7C70.6838 21.3617 70.6675 21.3597 70.6523 21.3542C70.637 21.3487 70.6232 21.3399 70.6117 21.3285C70.6002 21.317 70.5914 21.3031 70.5859 21.2879C70.5805 21.2726 70.5784 21.2563 70.58 21.2402V8.84019C70.5784 8.82405 70.5805 8.80776 70.5859 8.7925C70.5914 8.77724 70.6002 8.76338 70.6117 8.75191C70.6232 8.74044 70.637 8.73165 70.6523 8.72617C70.6675 8.72068 70.6838 8.71864 70.7 8.72019Z" fill="black"/>
<path d="M95.09 12.9901H92.94C92.9239 12.9917 92.9076 12.9896 92.8923 12.9842C92.8771 12.9787 92.8632 12.9699 92.8517 12.9584C92.8403 12.9469 92.8315 12.9331 92.826 12.9178C92.8205 12.9026 92.8185 12.8863 92.82 12.8701C92.83 12.547 92.7616 12.2263 92.6205 11.9355C92.4794 11.6446 92.2699 11.3923 92.01 11.2001C91.3533 10.7585 90.57 10.5443 89.78 10.5901C89.049 10.5359 88.3182 10.6994 87.68 11.0601C87.4823 11.1728 87.3163 11.3337 87.1974 11.5278C87.0785 11.7218 87.0106 11.9428 87 12.1701C86.9784 12.327 86.9943 12.4868 87.0464 12.6363C87.0986 12.7858 87.1855 12.9208 87.3 13.0301C87.5 13.1801 87.68 13.3101 87.86 13.4201C88.6629 13.6447 89.4877 13.7822 90.32 13.8301C91.4596 13.9295 92.5801 14.1853 93.65 14.5901C94.2448 14.8228 94.7498 15.2392 95.0916 15.7788C95.4333 16.3184 95.5939 16.953 95.55 17.5901C95.5937 18.1927 95.4769 18.796 95.2117 19.3387C94.9465 19.8815 94.5422 20.3443 94.04 20.6801C92.799 21.4033 91.3747 21.7507 89.94 21.6801C88.4741 21.7664 87.026 21.3228 85.86 20.4301C85.3922 20.0515 85.0174 19.5707 84.7643 19.0246C84.5113 18.4786 84.3866 17.8818 84.4 17.2801C84.3985 17.264 84.4005 17.2477 84.406 17.2324C84.4115 17.2172 84.4203 17.2033 84.4317 17.1918C84.4432 17.1804 84.4571 17.1716 84.4723 17.1661C84.4876 17.1606 84.5039 17.1586 84.52 17.1601H86.63C86.73 17.1601 86.78 17.2001 86.78 17.2801C86.7804 17.6057 86.8631 17.9258 87.0205 18.2108C87.1778 18.4958 87.4047 18.7364 87.68 18.9101C88.3834 19.3666 89.2125 19.5905 90.05 19.5501C92.13 19.5501 93.17 18.9201 93.17 17.6601C93.1765 17.5135 93.1532 17.367 93.1017 17.2295C93.0501 17.092 92.9713 16.9664 92.87 16.8601C92.6961 16.677 92.4846 16.5338 92.25 16.4401L91.79 16.2801C91.636 16.2377 91.4788 16.2076 91.32 16.1901L90.68 16.0801C90.4729 16.036 90.2618 16.0126 90.05 16.0101C88.7935 15.9175 87.5623 15.6097 86.41 15.1001C85.7121 14.7767 85.1545 14.2121 84.84 13.5101C84.6893 13.0797 84.6148 12.6262 84.62 12.1701C84.621 11.6494 84.749 11.1367 84.9929 10.6767C85.2369 10.2166 85.5895 9.82305 86.02 9.53013C87.1148 8.76233 88.4346 8.38221 89.77 8.45013C91.1561 8.39715 92.5218 8.79736 93.66 9.59013C94.1687 9.96383 94.576 10.4587 94.845 11.0297C95.1139 11.6008 95.2359 12.2299 95.2 12.8601C95.2 12.9401 95.15 12.9801 95.09 12.9801" fill="black"/>
<path d="M97.71 24.3302C97.7086 24.3136 97.7107 24.297 97.7161 24.2812C97.7215 24.2655 97.7302 24.251 97.7414 24.2388C97.7527 24.2266 97.7664 24.2169 97.7817 24.2102C97.7969 24.2036 97.8134 24.2002 97.83 24.2002H100.65C100.926 24.2361 101.207 24.1964 101.462 24.0855C101.717 23.9745 101.938 23.7965 102.1 23.5702C102.221 23.3121 102.284 23.0304 102.284 22.7452C102.284 22.46 102.221 22.1783 102.1 21.9202L97.66 8.84021C97.66 8.76021 97.66 8.72021 97.8 8.72021H100.07C100.07 8.72021 100.16 8.72021 100.2 8.84021L103.47 18.8402C103.475 18.8685 103.49 18.8941 103.512 18.9124C103.534 18.9308 103.561 18.9406 103.59 18.9402C103.62 18.9432 103.651 18.9345 103.675 18.9159C103.699 18.8973 103.715 18.8703 103.72 18.8402L107.03 8.84021C107.03 8.76021 107.07 8.72021 107.15 8.72021H109.42C109.53 8.72021 109.58 8.72021 109.55 8.84021L104.55 23.5402C104.316 24.3609 103.875 25.108 103.27 25.7102C102.619 26.1566 101.837 26.3715 101.05 26.3202H97.8C97.72 26.3202 97.68 26.3202 97.68 26.1902L97.71 24.3302Z" fill="black"/>
<path d="M111.94 8.72013H113.82C113.82 8.72013 113.91 8.72013 113.94 8.84013L114.2 9.96013C114.209 9.99 114.227 10.0161 114.253 10.0342C114.278 10.0523 114.309 10.0614 114.34 10.0601C114.368 10.0625 114.395 10.0572 114.42 10.0448C114.445 10.0325 114.465 10.0136 114.48 9.99012C114.853 9.48123 115.348 9.07436 115.919 8.80699C116.491 8.53961 117.12 8.42033 117.75 8.46013C118.499 8.41926 119.247 8.54724 119.939 8.83458C120.631 9.12192 121.25 9.56127 121.75 10.1201C122.731 11.3139 123.24 12.8262 123.18 14.3701V21.2401C123.18 21.3201 123.13 21.3601 123.04 21.3601H120.94C120.924 21.3617 120.908 21.3596 120.892 21.3541C120.877 21.3487 120.863 21.3399 120.852 21.3284C120.84 21.3169 120.831 21.3031 120.826 21.2878C120.821 21.2726 120.818 21.2563 120.82 21.2401V14.3701C120.848 13.4094 120.571 12.4644 120.03 11.6701C119.745 11.3069 119.375 11.0187 118.954 10.8306C118.532 10.6424 118.071 10.5598 117.61 10.5901C117.134 10.567 116.659 10.6552 116.224 10.8479C115.788 11.0407 115.403 11.3325 115.1 11.7001C114.495 12.4563 114.176 13.4019 114.2 14.3701V21.2401C114.202 21.2563 114.2 21.2726 114.194 21.2878C114.189 21.3031 114.18 21.3169 114.168 21.3284C114.157 21.3399 114.143 21.3487 114.128 21.3541C114.112 21.3596 114.096 21.3617 114.08 21.3601H111.94C111.924 21.3617 111.908 21.3596 111.892 21.3541C111.877 21.3487 111.863 21.3399 111.852 21.3284C111.84 21.3169 111.831 21.3031 111.826 21.2878C111.821 21.2726 111.818 21.2563 111.82 21.2401V8.84013C111.818 8.82398 111.821 8.8077 111.826 8.79243C111.831 8.77717 111.84 8.76331 111.852 8.75184C111.863 8.74037 111.877 8.73158 111.892 8.7261C111.908 8.72062 111.924 8.71858 111.94 8.72013Z" fill="black"/>
</g>
<defs>
<clipPath id="clip0_1_281">
<rect width="123.17" height="26.16" fill="white" transform="translate(0 0.160156)"/>
</clipPath>
</defs>
</svg>
