<svg width="156" height="27" viewBox="0 0 156 27" fill="none" xmlns="http://www.w3.org/2000/svg">
<g clip-path="url(#clip0_1_325)">
<path d="M12.67 0H0.5C0.367392 0 0.240215 0.052678 0.146447 0.146446C0.0526785 0.240214 0 0.367392 0 0.5V24.23C0.00256007 24.3618 0.0560606 24.4875 0.14928 24.5807C0.242499 24.6739 0.368193 24.7274 0.5 24.73H12.67C15.8885 24.6385 18.9445 23.2956 21.1887 20.9867C23.4329 18.6778 24.6883 15.5848 24.6883 12.365C24.6883 9.14517 23.4329 6.05222 21.1887 3.74332C18.9445 1.43442 15.8885 0.0915386 12.67 0ZM13.86 21C12.0187 21.3169 10.1242 21.0395 8.45107 20.2079C6.77789 19.3764 5.4128 18.0339 4.55347 16.3748C3.69414 14.7158 3.38516 12.8263 3.67129 10.9799C3.95741 9.1335 4.82378 7.42612 6.14495 6.10495C7.46612 4.78378 9.1735 3.91741 11.0199 3.63129C12.8663 3.34516 14.7558 3.65414 16.4148 4.51347C18.0739 5.3728 19.4164 6.73789 20.2479 8.41106C21.0795 10.0842 21.3569 11.9787 21.04 13.82C20.7316 15.6119 19.8757 17.2643 18.59 18.55C17.3043 19.8357 15.6519 20.6916 13.86 21Z" fill="#0062B8"/>
<path d="M47.29 14.87C47.29 15.43 47.23 15.71 47.11 15.71H37.94C37.86 15.71 37.82 15.71 37.82 15.85C37.8157 16.3145 37.9055 16.7751 38.084 17.204C38.2625 17.6329 38.5261 18.0212 38.8587 18.3455C39.1914 18.6697 39.5863 18.9232 40.0196 19.0907C40.453 19.2582 40.9157 19.3362 41.38 19.32C42.0229 19.3697 42.6663 19.2306 43.2313 18.9197C43.7962 18.6088 44.258 18.1397 44.56 17.57C44.5691 17.5348 44.5899 17.5037 44.6189 17.4819C44.648 17.4601 44.6837 17.4488 44.72 17.45H46.72C46.82 17.45 46.86 17.45 46.85 17.57C46.5685 18.7417 45.854 19.7635 44.85 20.43C43.7858 21.1272 42.5314 21.4766 41.26 21.43C40.4527 21.4641 39.6478 21.3195 38.9027 21.0066C38.1577 20.6937 37.4909 20.2203 36.95 19.62C35.8347 18.2845 35.2634 16.5778 35.35 14.84C35.2594 13.1178 35.8078 11.4228 36.89 10.08C37.4445 9.47097 38.1286 8.99404 38.8918 8.68426C39.6549 8.37449 40.4779 8.23976 41.3 8.28998C42.1181 8.23628 42.9376 8.36956 43.6965 8.6797C44.4554 8.98984 45.1337 9.4687 45.68 10.08C46.7301 11.445 47.2585 13.14 47.17 14.86L47.29 14.87ZM44.94 13.72C44.9324 12.8778 44.6116 12.0686 44.04 11.45C43.7096 11.1043 43.3072 10.8355 42.8614 10.6627C42.4155 10.4898 41.9371 10.4172 41.46 10.45C40.9665 10.4263 40.474 10.5138 40.0188 10.7059C39.5636 10.898 39.1573 11.1899 38.83 11.56C38.2406 12.1394 37.8847 12.9153 37.83 13.74C37.83 13.83 37.83 13.87 37.95 13.87H44.76C44.85 13.87 44.89 13.87 44.89 13.74" fill="#1E2B3C"/>
<path d="M59.77 8.41003C59.7732 7.99949 59.6788 7.59407 59.4945 7.2272C59.3102 6.86034 59.0413 6.54255 58.71 6.30003C57.9498 5.73163 57.0187 5.43892 56.07 5.47003C55.1243 5.43799 54.1961 5.73092 53.44 6.30003C53.1137 6.55918 52.853 6.89164 52.6793 7.27042C52.5055 7.6492 52.4235 8.06362 52.44 8.48003C52.4255 8.90259 52.5524 9.3179 52.8005 9.66023C53.0487 10.0026 53.4039 10.2523 53.81 10.37C54.6336 10.6769 55.4946 10.872 56.37 10.95L58.89 11.42C59.5955 11.5563 60.2721 11.8134 60.89 12.18C62.2233 12.9334 62.89 14.2867 62.89 16.24C62.8933 16.9371 62.7478 17.6268 62.4632 18.2631C62.1787 18.8994 61.7617 19.4677 61.24 19.93C59.896 21.06 58.1601 21.6135 56.41 21.47C54.6224 21.5963 52.8487 21.0784 51.41 20.01C50.8679 19.5785 50.4312 19.0291 50.1332 18.4036C49.8352 17.7781 49.6836 17.0929 49.69 16.4C49.69 16.32 49.69 16.28 49.8 16.27H51.94C52.03 16.27 52.08 16.32 52.08 16.43C52.1032 16.8253 52.215 17.2103 52.4072 17.5565C52.5993 17.9027 52.8669 18.2012 53.19 18.43C54.0717 19.0839 55.154 19.4093 56.25 19.35C57.3196 19.3944 58.3739 19.0851 59.25 18.47C59.611 18.198 59.9018 17.8438 60.0983 17.4369C60.2949 17.0299 60.3914 16.5818 60.38 16.13C60.4081 15.6973 60.3023 15.2665 60.0768 14.8961C59.8514 14.5257 59.5173 14.2338 59.12 14.06C58.3648 13.7031 57.5522 13.483 56.72 13.41L54.57 13.07C54.0089 12.9584 53.4621 12.784 52.94 12.55C52.397 12.3439 51.8879 12.0574 51.43 11.7C51.0037 11.323 50.6628 10.8593 50.43 10.34C50.1439 9.71292 50.0038 9.02912 50.02 8.34003C49.9997 7.63413 50.15 6.93375 50.4581 6.29833C50.7663 5.66291 51.2232 5.1112 51.79 4.69003C53.0167 3.76225 54.5225 3.27914 56.06 3.32003C57.5839 3.27629 59.0791 3.74066 60.31 4.64003C60.8884 5.07623 61.3569 5.64154 61.6781 6.29088C61.9993 6.94021 62.1643 7.65561 62.16 8.38003C62.16 8.47003 62.16 8.51003 62.05 8.52003H59.94C59.9224 8.52028 59.905 8.51665 59.889 8.50941C59.8729 8.50217 59.8587 8.4915 59.8472 8.47814C59.8358 8.46478 59.8274 8.44907 59.8227 8.43211C59.818 8.41516 59.8171 8.39738 59.82 8.38003" fill="#1E2B3C"/>
<path d="M68.56 3.70998V6.33998C68.5615 6.35744 68.5592 6.37501 68.5532 6.39148C68.5472 6.40795 68.5377 6.4229 68.5253 6.43529C68.5129 6.44768 68.498 6.45721 68.4815 6.4632C68.465 6.46919 68.4475 6.47151 68.43 6.46998H65.8C65.72 6.46998 65.68 6.46998 65.68 6.33998V3.70998C65.6785 3.69384 65.6805 3.67755 65.686 3.66229C65.6915 3.64703 65.7003 3.63316 65.7117 3.6217C65.7232 3.61023 65.7371 3.60144 65.7523 3.59595C65.7676 3.59047 65.7839 3.58843 65.8 3.58998H68.43C68.52 3.58998 68.56 3.58998 68.56 3.70998ZM68.31 8.70998V21.11C68.31 21.19 68.31 21.23 68.18 21.23H66.05C66.0339 21.2315 66.0176 21.2295 66.0023 21.224C65.9871 21.2185 65.9732 21.2097 65.9617 21.1983C65.9503 21.1868 65.9415 21.1729 65.936 21.1577C65.9305 21.1424 65.9285 21.1261 65.93 21.11V8.66998C65.9285 8.65384 65.9305 8.63755 65.936 8.62229C65.9415 8.60703 65.9503 8.59316 65.9617 8.5817C65.9732 8.57023 65.9871 8.56144 66.0023 8.55595C66.0176 8.55047 66.0339 8.54843 66.05 8.54998H68.18C68.27 8.54998 68.31 8.54998 68.31 8.66998" fill="#1E2B3C"/>
<path d="M77.27 24.27C77.7663 24.3182 78.2672 24.2532 78.7348 24.08C79.2024 23.9068 79.6247 23.6299 79.97 23.27C80.5485 22.5642 80.8506 21.6721 80.82 20.76V20.08C80.82 20.03 80.82 20 80.73 19.97C80.7019 19.9616 80.6718 19.963 80.6445 19.9739C80.6173 19.9848 80.5946 20.0046 80.58 20.03C80.1941 20.4358 79.7274 20.756 79.21 20.97C78.5251 21.3056 77.7726 21.48 77.01 21.48C76.2083 21.5016 75.4114 21.3492 74.6743 21.0333C73.9372 20.7174 73.2772 20.2455 72.74 19.65C71.584 18.3367 70.9787 16.6282 71.05 14.88C70.972 13.1569 71.5469 11.4677 72.66 10.15C73.2076 9.54938 73.8796 9.07537 74.6291 8.76105C75.3787 8.44672 76.1878 8.29962 77 8.33002C77.6887 8.33844 78.3687 8.48465 79 8.76002C79.6023 8.97986 80.1535 9.32012 80.62 9.76002C80.7333 9.86669 80.8133 9.86669 80.86 9.76002L81.12 8.76002C81.12 8.68002 81.16 8.64002 81.24 8.64002H83.12C83.1361 8.63847 83.1524 8.64051 83.1677 8.646C83.1829 8.65148 83.1968 8.66027 83.2083 8.67174C83.2197 8.68321 83.2285 8.69707 83.234 8.71233C83.2395 8.72759 83.2415 8.74388 83.24 8.76002V20.76C83.2678 21.52 83.1363 22.2774 82.8538 22.9836C82.5714 23.6897 82.1443 24.3289 81.6 24.86C81.0591 25.3814 80.4197 25.7897 79.7191 26.061C79.0186 26.3323 78.2709 26.4611 77.52 26.44C76.0893 26.4962 74.6757 26.1123 73.47 25.34C72.9985 25.0624 72.5961 24.6815 72.293 24.226C71.9899 23.7705 71.794 23.2522 71.72 22.71C71.7184 22.6939 71.7205 22.6776 71.726 22.6623C71.7314 22.6471 71.7402 22.6332 71.7517 22.6217C71.7632 22.6103 71.777 22.6015 71.7923 22.596C71.8076 22.5905 71.8238 22.5885 71.84 22.59H73.94C73.94 22.59 74.03 22.59 74.06 22.71C74.2636 23.174 74.6153 23.5573 75.06 23.8C75.7204 24.1722 76.4729 24.3491 77.23 24.31L77.27 24.27ZM73.39 14.91C73.3263 16.0655 73.6814 17.2052 74.39 18.12C74.72 18.5242 75.1391 18.8464 75.6145 19.0616C76.0898 19.2767 76.6085 19.3788 77.13 19.36C77.6409 19.3833 78.15 19.2838 78.6146 19.0698C79.0791 18.8558 79.4856 18.5335 79.8 18.13C80.4695 17.194 80.8042 16.0596 80.75 14.91C80.8057 13.7571 80.471 12.6192 79.8 11.68C79.4851 11.2777 79.0783 10.957 78.6137 10.7447C78.149 10.5323 77.6402 10.4347 77.13 10.46C76.61 10.4373 76.0918 10.5356 75.6163 10.7473C75.1408 10.959 74.721 11.2783 74.39 11.68C73.6832 12.6035 73.3286 13.7487 73.39 14.91Z" fill="#1E2B3C"/>
<path d="M86.07 8.55002H87.94C87.94 8.55002 88.03 8.55002 88.06 8.67002L88.32 9.79002C88.3269 9.81909 88.3436 9.8449 88.3673 9.86311C88.3909 9.88132 88.4202 9.89082 88.45 9.89002C88.4789 9.8921 88.5079 9.88676 88.5341 9.87451C88.5604 9.86226 88.5831 9.8435 88.6 9.82002C88.9714 9.31193 89.4646 8.90547 90.0343 8.63809C90.6041 8.37071 91.2319 8.25101 91.86 8.29002C92.6197 8.23808 93.3814 8.35863 94.0879 8.64263C94.7944 8.92663 95.4276 9.36674 95.94 9.93002C96.9174 11.1253 97.4226 12.6373 97.36 14.18V21.05C97.36 21.13 97.36 21.17 97.23 21.17H95.11C95.02 21.17 94.98 21.17 94.98 21.05V14.2C95.0127 13.2386 94.7358 12.2922 94.19 11.5C93.907 11.137 93.5394 10.8487 93.1193 10.6605C92.6992 10.4722 92.2394 10.3897 91.78 10.42C91.3041 10.3968 90.8294 10.4851 90.3936 10.6778C89.9578 10.8706 89.5731 11.1624 89.27 11.53C88.6648 12.2862 88.3461 13.2318 88.37 14.2V21.07C88.37 21.15 88.37 21.19 88.24 21.19H86.07C86.0539 21.1916 86.0376 21.1895 86.0223 21.184C86.0071 21.1786 85.9932 21.1698 85.9817 21.1583C85.9703 21.1468 85.9615 21.133 85.956 21.1177C85.9505 21.1025 85.9485 21.0862 85.95 21.07V8.67002C85.9485 8.65388 85.9505 8.63759 85.956 8.62233C85.9615 8.60706 85.9703 8.5932 85.9817 8.58174C85.9932 8.57027 86.0071 8.56148 86.0223 8.55599C86.0376 8.55051 86.0539 8.54847 86.07 8.55002Z" fill="#1E2B3C"/>
<path d="M111.68 14.87C111.68 15.43 111.62 15.71 111.5 15.71H102.36C102.28 15.71 102.24 15.71 102.24 15.85C102.236 16.3145 102.325 16.7751 102.504 17.204C102.683 17.6329 102.946 18.0212 103.279 18.3455C103.611 18.6697 104.006 18.9232 104.44 19.0907C104.873 19.2582 105.336 19.3362 105.8 19.32C106.436 19.3618 107.071 19.2188 107.628 18.9084C108.185 18.5979 108.641 18.1332 108.94 17.57C108.949 17.5348 108.97 17.5037 108.999 17.4819C109.028 17.4601 109.064 17.4488 109.1 17.45H111.16C111.247 17.45 111.287 17.49 111.28 17.57C110.999 18.7417 110.284 19.7635 109.28 20.43C108.219 21.1258 106.968 21.4752 105.7 21.43C104.893 21.4655 104.087 21.3215 103.342 21.0086C102.597 20.6956 101.93 20.2214 101.39 19.62C100.272 18.2854 99.6972 16.579 99.78 14.84C99.696 13.1186 100.244 11.4259 101.32 10.08C101.875 9.47154 102.559 8.995 103.322 8.68527C104.085 8.37554 104.908 8.24048 105.73 8.28998C106.548 8.23628 107.368 8.36956 108.127 8.6797C108.885 8.98984 109.564 9.4687 110.11 10.08C111.164 11.4429 111.693 13.1395 111.6 14.86L111.68 14.87ZM109.22 13.71C109.211 12.8698 108.895 12.0621 108.33 11.44C107.623 10.7697 106.681 10.4036 105.707 10.4204C104.732 10.4372 103.804 10.8356 103.12 11.53C102.528 12.1078 102.172 12.8846 102.12 13.71C102.12 13.8 102.12 13.84 102.24 13.84H109.06C109.14 13.84 109.18 13.84 109.18 13.71" fill="#1E2B3C"/>
<path d="M121.77 10.42H120.5C120.041 10.4039 119.585 10.496 119.168 10.6889C118.751 10.8817 118.385 11.1698 118.1 11.53C117.49 12.2828 117.173 13.2316 117.21 14.2V21.07C117.212 21.0884 117.209 21.107 117.203 21.1243C117.196 21.1416 117.186 21.1571 117.172 21.1697C117.159 21.1823 117.142 21.1916 117.125 21.1968C117.107 21.2021 117.088 21.2032 117.07 21.2H114.94C114.86 21.2 114.82 21.15 114.82 21.07V8.67C114.818 8.65385 114.821 8.63757 114.826 8.6223C114.831 8.60704 114.84 8.59318 114.852 8.58171C114.863 8.57024 114.877 8.56145 114.892 8.55597C114.908 8.55049 114.924 8.54845 114.94 8.55H116.82C116.82 8.55 116.91 8.55 116.94 8.67L117.2 9.79C117.253 9.94333 117.343 9.94333 117.47 9.79C117.843 9.34838 118.301 8.98561 118.816 8.72291C119.331 8.4602 119.893 8.30283 120.47 8.26H121.74C121.757 8.25863 121.774 8.26066 121.791 8.26596C121.807 8.27126 121.822 8.27973 121.835 8.29088C121.848 8.30203 121.859 8.31565 121.866 8.33094C121.874 8.34623 121.879 8.36291 121.88 8.38V10.26C121.88 10.2779 121.876 10.2957 121.869 10.3122C121.862 10.3286 121.852 10.3434 121.838 10.3556C121.825 10.3679 121.81 10.3772 121.793 10.3831C121.776 10.389 121.758 10.3914 121.74 10.39" fill="#1E2B3C"/>
<path d="M127.05 3.70998V6.33998C127.052 6.35839 127.049 6.37696 127.043 6.39426C127.036 6.41156 127.026 6.42711 127.012 6.43969C126.999 6.45228 126.982 6.46156 126.965 6.46681C126.947 6.47207 126.928 6.47315 126.91 6.46998H124.29C124.21 6.46998 124.17 6.46998 124.17 6.33998V3.70998C124.168 3.69384 124.17 3.67755 124.176 3.66229C124.181 3.64703 124.19 3.63316 124.202 3.6217C124.213 3.61023 124.227 3.60144 124.242 3.59595C124.258 3.59047 124.274 3.58843 124.29 3.58998H126.94C127.03 3.58998 127.08 3.58998 127.08 3.70998H127.05ZM126.82 8.70998V21.11C126.822 21.1261 126.82 21.1424 126.814 21.1577C126.809 21.1729 126.8 21.1868 126.788 21.1983C126.777 21.2097 126.763 21.2185 126.748 21.224C126.732 21.2295 126.716 21.2315 126.7 21.23H124.56C124.544 21.2315 124.528 21.2295 124.512 21.224C124.497 21.2185 124.483 21.2097 124.472 21.1983C124.46 21.1868 124.451 21.1729 124.446 21.1577C124.44 21.1424 124.438 21.1261 124.44 21.11V8.66998C124.438 8.65384 124.44 8.63755 124.446 8.62229C124.451 8.60703 124.46 8.59316 124.472 8.5817C124.483 8.57023 124.497 8.56144 124.512 8.55595C124.528 8.55047 124.544 8.54843 124.56 8.54998H126.7C126.716 8.54843 126.732 8.55047 126.748 8.55595C126.763 8.56144 126.777 8.57023 126.788 8.5817C126.8 8.59316 126.809 8.60703 126.814 8.62229C126.82 8.63755 126.822 8.65384 126.82 8.66998" fill="#1E2B3C"/>
<path d="M130.36 8.55003H132.24C132.24 8.55003 132.32 8.55003 132.36 8.67003L132.61 9.79003C132.619 9.8199 132.637 9.84596 132.663 9.86407C132.688 9.88218 132.719 9.89132 132.75 9.89003C132.778 9.89238 132.805 9.88709 132.83 9.87474C132.855 9.86239 132.875 9.84345 132.89 9.82003C133.264 9.31182 133.759 8.90545 134.33 8.63815C134.901 8.37085 135.53 8.25115 136.16 8.29003C136.909 8.24917 137.657 8.37714 138.349 8.66448C139.041 8.95182 139.66 9.39117 140.16 9.95003C141.141 11.1438 141.65 12.6561 141.59 14.2V21.07C141.59 21.15 141.59 21.19 141.46 21.19H139.33C139.314 21.1916 139.298 21.1895 139.282 21.1841C139.267 21.1786 139.253 21.1698 139.242 21.1583C139.23 21.1468 139.221 21.133 139.216 21.1177C139.211 21.1025 139.208 21.0862 139.21 21.07V14.2C139.243 13.2386 138.966 12.2922 138.42 11.5C138.137 11.137 137.769 10.8487 137.349 10.6605C136.929 10.4722 136.469 10.3897 136.01 10.42C135.534 10.392 135.057 10.4781 134.621 10.6712C134.184 10.8642 133.8 11.1587 133.5 11.53C132.887 12.2827 132.564 13.2299 132.59 14.2V21.07C132.592 21.0862 132.59 21.1025 132.584 21.1177C132.579 21.133 132.57 21.1468 132.558 21.1583C132.547 21.1698 132.533 21.1786 132.518 21.1841C132.502 21.1895 132.486 21.1916 132.47 21.19H130.34C130.25 21.19 130.21 21.19 130.21 21.07V8.67003C130.21 8.59003 130.21 8.55003 130.34 8.55003" fill="#1E2B3C"/>
<path d="M150.08 24.27C150.575 24.3173 151.074 24.252 151.54 24.0788C152.006 23.9056 152.426 23.6291 152.77 23.27C153.353 22.5665 153.655 21.6728 153.62 20.76V20.08C153.62 20.03 153.62 20 153.54 19.97C153.51 19.9609 153.479 19.9619 153.45 19.9728C153.421 19.9836 153.396 20.0037 153.38 20.03C152.994 20.4358 152.527 20.756 152.01 20.97C151.325 21.3055 150.573 21.48 149.81 21.48C149.008 21.5003 148.212 21.3472 147.475 21.0314C146.738 20.7156 146.078 20.2444 145.54 19.65C144.387 18.3356 143.785 16.627 143.86 14.88C143.777 13.1561 144.353 11.4652 145.47 10.15C146.016 9.54959 146.686 9.07563 147.434 8.76126C148.182 8.4469 148.989 8.29971 149.8 8.32999C150.488 8.34054 151.168 8.48665 151.8 8.75999C152.398 8.98228 152.946 9.32232 153.41 9.75999C153.523 9.86666 153.603 9.86666 153.65 9.75999L153.91 8.75999C153.91 8.67999 153.95 8.63999 154.03 8.63999H155.91C155.926 8.63845 155.942 8.64049 155.958 8.64597C155.973 8.65145 155.987 8.66024 155.998 8.67171C156.01 8.68318 156.019 8.69704 156.024 8.7123C156.03 8.72756 156.032 8.74385 156.03 8.75999V20.76C156.06 21.5193 155.93 22.2765 155.649 22.9827C155.369 23.6888 154.943 24.3283 154.4 24.86C153.858 25.3821 153.216 25.7908 152.514 26.0621C151.812 26.3334 151.063 26.4619 150.31 26.44C148.879 26.4962 147.466 26.1122 146.26 25.34C145.789 25.0624 145.386 24.6815 145.083 24.226C144.78 23.7704 144.584 23.2521 144.51 22.71C144.508 22.6939 144.51 22.6776 144.516 22.6623C144.521 22.647 144.53 22.6332 144.542 22.6217C144.553 22.6102 144.567 22.6015 144.582 22.596C144.598 22.5905 144.614 22.5884 144.63 22.59H146.81C146.81 22.59 146.9 22.59 146.94 22.71C147.14 23.1761 147.493 23.5604 147.94 23.8C148.6 24.1722 149.353 24.349 150.11 24.31L150.08 24.27ZM146.27 14.91C146.211 16.0649 146.565 17.203 147.27 18.12C147.601 18.5236 148.02 18.8454 148.495 19.0605C148.97 19.2756 149.489 19.378 150.01 19.36C150.521 19.3858 151.031 19.2874 151.496 19.0732C151.961 18.859 152.367 18.5354 152.68 18.13C153.367 17.2003 153.72 16.0654 153.68 14.91C153.721 13.7513 153.369 12.6127 152.68 11.68C152.367 11.2758 151.96 10.9536 151.495 10.7411C151.03 10.5286 150.521 10.4322 150.01 10.46C149.49 10.4388 148.973 10.5378 148.497 10.7494C148.022 10.961 147.602 11.2795 147.27 11.68C146.567 12.6055 146.213 13.7492 146.27 14.91Z" fill="#1E2B3C"/>
</g>
<defs>
<clipPath id="clip0_1_325">
<rect width="156" height="26.4" fill="white"/>
</clipPath>
</defs>
</svg>
