<svg width="156" height="27" viewBox="0 0 156 27" fill="none" xmlns="http://www.w3.org/2000/svg">
<g clip-path="url(#clip0_1_337)">
<path d="M12.67 0.399902H0.5C0.367392 0.399902 0.240215 0.45258 0.146447 0.546349C0.0526785 0.640117 0 0.767294 0 0.899902V24.6299C0.00256007 24.7617 0.0560606 24.8874 0.14928 24.9806C0.242499 25.0738 0.368193 25.1273 0.5 25.1299H12.67C15.8885 25.0384 18.9445 23.6955 21.1887 21.3866C23.4329 19.0777 24.6883 15.9847 24.6883 12.7649C24.6883 9.54507 23.4329 6.45212 21.1887 4.14322C18.9445 1.83432 15.8885 0.491441 12.67 0.399902ZM13.86 21.3999C12.0187 21.7168 10.1242 21.4394 8.45107 20.6079C6.77789 19.7763 5.4128 18.4338 4.55347 16.7747C3.69414 15.1157 3.38516 13.2262 3.67129 11.3798C3.95741 9.53341 4.82378 7.82602 6.14495 6.50485C7.46612 5.18369 9.1735 4.31732 11.0199 4.03119C12.8663 3.74507 14.7558 4.05404 16.4148 4.91337C18.0739 5.77271 19.4164 7.13779 20.2479 8.81097C21.0795 10.4841 21.3569 12.3786 21.04 14.2199C20.7316 16.0118 19.8757 17.6642 18.59 18.9499C17.3043 20.2356 15.6519 21.0915 13.86 21.3999Z" fill="black"/>
<path d="M47.29 15.2699C47.29 15.8299 47.23 16.1099 47.11 16.1099H37.94C37.86 16.1099 37.82 16.1099 37.82 16.2499C37.8157 16.7144 37.9055 17.175 38.084 17.6039C38.2625 18.0328 38.5261 18.4211 38.8587 18.7454C39.1914 19.0696 39.5863 19.3231 40.0196 19.4906C40.453 19.6581 40.9157 19.7361 41.38 19.7199C42.0229 19.7696 42.6663 19.6305 43.2313 19.3196C43.7962 19.0087 44.258 18.5396 44.56 17.9699C44.5691 17.9347 44.5899 17.9036 44.6189 17.8818C44.648 17.86 44.6837 17.8487 44.72 17.8499H46.72C46.82 17.8499 46.86 17.8499 46.85 17.9699C46.5685 19.1416 45.854 20.1634 44.85 20.8299C43.7858 21.5271 42.5314 21.8765 41.26 21.8299C40.4527 21.864 39.6478 21.7194 38.9027 21.4065C38.1577 21.0937 37.4909 20.6202 36.95 20.0199C35.8347 18.6844 35.2634 16.9777 35.35 15.2399C35.2594 13.5177 35.8078 11.8227 36.89 10.4799C37.4445 9.87087 38.1286 9.39394 38.8918 9.08417C39.6549 8.77439 40.4779 8.63966 41.3 8.68988C42.1181 8.63619 42.9376 8.76946 43.6965 9.0796C44.4554 9.38974 45.1337 9.8686 45.68 10.4799C46.7301 11.8449 47.2585 13.5399 47.17 15.2599L47.29 15.2699ZM44.94 14.1199C44.9324 13.2777 44.6116 12.4685 44.04 11.8499C43.7096 11.5042 43.3072 11.2354 42.8614 11.0626C42.4155 10.8898 41.9371 10.8171 41.46 10.8499C40.9665 10.8262 40.474 10.9137 40.0188 11.1058C39.5636 11.2979 39.1573 11.5898 38.83 11.9599C38.2406 12.5393 37.8847 13.3152 37.83 14.1399C37.83 14.2299 37.83 14.2699 37.95 14.2699H44.76C44.85 14.2699 44.89 14.2699 44.89 14.1399" fill="black"/>
<path d="M59.77 8.80993C59.7732 8.39939 59.6788 7.99397 59.4945 7.62711C59.3102 7.26024 59.0413 6.94245 58.71 6.69993C57.9498 6.13154 57.0187 5.83882 56.07 5.86993C55.1243 5.83789 54.1961 6.13082 53.44 6.69993C53.1137 6.95908 52.853 7.29154 52.6793 7.67033C52.5055 8.04911 52.4235 8.46353 52.44 8.87993C52.4255 9.30249 52.5524 9.7178 52.8005 10.0601C53.0487 10.4025 53.4039 10.6522 53.81 10.7699C54.6336 11.0768 55.4946 11.2719 56.37 11.3499L58.89 11.8199C59.5955 11.9562 60.2721 12.2133 60.89 12.5799C62.2233 13.3333 62.89 14.6866 62.89 16.6399C62.8933 17.337 62.7478 18.0267 62.4632 18.663C62.1787 19.2993 61.7617 19.8676 61.24 20.3299C59.896 21.4599 58.1601 22.0134 56.41 21.8699C54.6224 21.9962 52.8487 21.4783 51.41 20.4099C50.8679 19.9784 50.4312 19.429 50.1332 18.8035C49.8352 18.178 49.6836 17.4928 49.69 16.7999C49.69 16.7199 49.69 16.6799 49.8 16.6699H51.94C52.03 16.6699 52.08 16.7199 52.08 16.8299C52.1032 17.2252 52.215 17.6102 52.4072 17.9564C52.5993 18.3026 52.8669 18.6011 53.19 18.8299C54.0717 19.4838 55.154 19.8092 56.25 19.7499C57.3196 19.7943 58.3739 19.485 59.25 18.8699C59.611 18.5979 59.9018 18.2437 60.0983 17.8368C60.2949 17.4298 60.3914 16.9817 60.38 16.5299C60.4081 16.0972 60.3023 15.6664 60.0768 15.296C59.8514 14.9256 59.5173 14.6337 59.12 14.4599C58.3648 14.103 57.5522 13.8829 56.72 13.8099L54.57 13.4699C54.0089 13.3583 53.4621 13.1839 52.94 12.9499C52.397 12.7438 51.8879 12.4573 51.43 12.0999C51.0037 11.7229 50.6628 11.2592 50.43 10.7399C50.1439 10.1128 50.0038 9.42902 50.02 8.73993C49.9997 8.03403 50.15 7.33365 50.4581 6.69823C50.7663 6.06281 51.2232 5.5111 51.79 5.08993C53.0167 4.16215 54.5225 3.67905 56.06 3.71993C57.5839 3.67619 59.0791 4.14056 60.31 5.03993C60.8884 5.47614 61.3569 6.04144 61.6781 6.69078C61.9993 7.34011 62.1643 8.05551 62.16 8.77993C62.16 8.86993 62.16 8.90993 62.05 8.91993H59.94C59.9224 8.92018 59.905 8.91655 59.889 8.90931C59.8729 8.90207 59.8587 8.8914 59.8472 8.87804C59.8358 8.86468 59.8274 8.84897 59.8227 8.83201C59.818 8.81506 59.8171 8.79728 59.82 8.77993" fill="black"/>
<path d="M68.56 4.10988V6.73988C68.5615 6.75734 68.5592 6.77492 68.5532 6.79138C68.5472 6.80785 68.5377 6.8228 68.5253 6.83519C68.5129 6.84758 68.498 6.85711 68.4815 6.8631C68.465 6.8691 68.4475 6.87141 68.43 6.86988H65.8C65.72 6.86988 65.68 6.86988 65.68 6.73988V4.10988C65.6785 4.09374 65.6805 4.07745 65.686 4.06219C65.6915 4.04693 65.7003 4.03307 65.7117 4.0216C65.7232 4.01013 65.7371 4.00134 65.7523 3.99586C65.7676 3.99037 65.7839 3.98833 65.8 3.98988H68.43C68.52 3.98988 68.56 3.98988 68.56 4.10988ZM68.31 9.10988V21.5099C68.31 21.5899 68.31 21.6299 68.18 21.6299H66.05C66.0339 21.6314 66.0176 21.6294 66.0023 21.6239C65.9871 21.6184 65.9732 21.6096 65.9617 21.5982C65.9503 21.5867 65.9415 21.5728 65.936 21.5576C65.9305 21.5423 65.9285 21.526 65.93 21.5099V9.06988C65.9285 9.05374 65.9305 9.03745 65.936 9.02219C65.9415 9.00693 65.9503 8.99307 65.9617 8.9816C65.9732 8.97013 65.9871 8.96134 66.0023 8.95586C66.0176 8.95037 66.0339 8.94833 66.05 8.94988H68.18C68.27 8.94988 68.31 8.94988 68.31 9.06988" fill="black"/>
<path d="M77.27 24.6699C77.7663 24.7181 78.2672 24.6531 78.7348 24.4799C79.2024 24.3067 79.6247 24.0298 79.97 23.6699C80.5485 22.9641 80.8506 22.072 80.82 21.1599V20.4799C80.82 20.4299 80.82 20.3999 80.73 20.3699C80.7019 20.3615 80.6718 20.3629 80.6445 20.3738C80.6173 20.3847 80.5946 20.4045 80.58 20.4299C80.1941 20.8357 79.7274 21.1559 79.21 21.3699C78.5251 21.7055 77.7726 21.8799 77.01 21.8799C76.2083 21.9015 75.4114 21.7491 74.6743 21.4332C73.9372 21.1173 73.2772 20.6454 72.74 20.0499C71.584 18.7366 70.9787 17.0281 71.05 15.2799C70.972 13.5568 71.5469 11.8676 72.66 10.5499C73.2076 9.94928 73.8796 9.47528 74.6291 9.16095C75.3787 8.84662 76.1878 8.69953 77 8.72992C77.6887 8.73835 78.3687 8.88455 79 9.15992C79.6023 9.37976 80.1535 9.72002 80.62 10.1599C80.7333 10.2666 80.8133 10.2666 80.86 10.1599L81.12 9.15992C81.12 9.07992 81.16 9.03992 81.24 9.03992H83.12C83.1361 9.03838 83.1524 9.04042 83.1677 9.0459C83.1829 9.05138 83.1968 9.06017 83.2083 9.07164C83.2197 9.08311 83.2285 9.09697 83.234 9.11223C83.2395 9.12749 83.2415 9.14378 83.24 9.15992V21.1599C83.2678 21.9199 83.1363 22.6773 82.8538 23.3835C82.5714 24.0896 82.1443 24.7288 81.6 25.2599C81.0591 25.7813 80.4197 26.1896 79.7191 26.4609C79.0186 26.7322 78.2709 26.861 77.52 26.8399C76.0893 26.8961 74.6757 26.5122 73.47 25.7399C72.9985 25.4623 72.5961 25.0814 72.293 24.6259C71.9899 24.1704 71.794 23.6521 71.72 23.1099C71.7184 23.0938 71.7205 23.0775 71.726 23.0622C71.7314 23.047 71.7402 23.0331 71.7517 23.0216C71.7632 23.0102 71.777 23.0014 71.7923 22.9959C71.8076 22.9904 71.8238 22.9884 71.84 22.9899H73.94C73.94 22.9899 74.03 22.9899 74.06 23.1099C74.2636 23.5739 74.6153 23.9572 75.06 24.1999C75.7204 24.5721 76.4729 24.749 77.23 24.7099L77.27 24.6699ZM73.39 15.3099C73.3263 16.4654 73.6814 17.6051 74.39 18.5199C74.72 18.9241 75.1391 19.2463 75.6145 19.4615C76.0898 19.6766 76.6085 19.7787 77.13 19.7599C77.6409 19.7832 78.15 19.6837 78.6146 19.4697C79.0791 19.2557 79.4856 18.9334 79.8 18.5299C80.4695 17.5939 80.8042 16.4595 80.75 15.3099C80.8057 14.157 80.471 13.0191 79.8 12.0799C79.4851 11.6776 79.0783 11.3569 78.6137 11.1446C78.149 10.9323 77.6402 10.8346 77.13 10.8599C76.61 10.8372 76.0918 10.9355 75.6163 11.1472C75.1408 11.3589 74.721 11.6782 74.39 12.0799C73.6832 13.0034 73.3286 14.1486 73.39 15.3099Z" fill="black"/>
<path d="M86.07 8.94992H87.94C87.94 8.94992 88.03 8.94992 88.06 9.06992L88.32 10.1899C88.3269 10.219 88.3436 10.2448 88.3673 10.263C88.3909 10.2812 88.4202 10.2907 88.45 10.2899C88.4789 10.292 88.5079 10.2867 88.5341 10.2744C88.5604 10.2622 88.5831 10.2434 88.6 10.2199C88.9714 9.71183 89.4646 9.30537 90.0343 9.03799C90.6041 8.77061 91.2319 8.65091 91.86 8.68992C92.6197 8.63799 93.3814 8.75853 94.0879 9.04253C94.7944 9.32653 95.4276 9.76664 95.94 10.3299C96.9174 11.5252 97.4226 13.0372 97.36 14.5799V21.4499C97.36 21.5299 97.36 21.5699 97.23 21.5699H95.11C95.02 21.5699 94.98 21.5699 94.98 21.4499V14.5999C95.0127 13.6385 94.7358 12.6921 94.19 11.8999C93.907 11.5369 93.5394 11.2486 93.1193 11.0604C92.6992 10.8721 92.2394 10.7896 91.78 10.8199C91.3041 10.7968 90.8294 10.885 90.3936 11.0777C89.9578 11.2705 89.5731 11.5623 89.27 11.9299C88.6648 12.6861 88.3461 13.6317 88.37 14.5999V21.4699C88.37 21.5499 88.37 21.5899 88.24 21.5899H86.07C86.0539 21.5915 86.0376 21.5894 86.0223 21.5839C86.0071 21.5785 85.9932 21.5697 85.9817 21.5582C85.9703 21.5467 85.9615 21.5329 85.956 21.5176C85.9505 21.5024 85.9485 21.4861 85.95 21.4699V9.06992C85.9485 9.05378 85.9505 9.03749 85.956 9.02223C85.9615 9.00697 85.9703 8.99311 85.9817 8.98164C85.9932 8.97017 86.0071 8.96138 86.0223 8.9559C86.0376 8.95041 86.0539 8.94837 86.07 8.94992Z" fill="black"/>
<path d="M111.68 15.2699C111.68 15.8299 111.62 16.1099 111.5 16.1099H102.36C102.28 16.1099 102.24 16.1099 102.24 16.2499C102.236 16.7144 102.325 17.175 102.504 17.6039C102.683 18.0328 102.946 18.4211 103.279 18.7454C103.611 19.0696 104.006 19.3231 104.44 19.4906C104.873 19.6581 105.336 19.7361 105.8 19.7199C106.436 19.7617 107.071 19.6187 107.628 19.3083C108.185 18.9978 108.641 18.5331 108.94 17.9699C108.949 17.9347 108.97 17.9036 108.999 17.8818C109.028 17.86 109.064 17.8487 109.1 17.8499H111.16C111.247 17.8499 111.287 17.8899 111.28 17.9699C110.999 19.1416 110.284 20.1634 109.28 20.8299C108.219 21.5257 106.968 21.8751 105.7 21.8299C104.893 21.8654 104.087 21.7214 103.342 21.4085C102.597 21.0955 101.93 20.6213 101.39 20.0199C100.272 18.6853 99.6972 16.9789 99.78 15.2399C99.696 13.5185 100.244 11.8258 101.32 10.4799C101.875 9.87144 102.559 9.3949 103.322 9.08517C104.085 8.77544 104.908 8.64038 105.73 8.68988C106.548 8.63619 107.368 8.76946 108.127 9.0796C108.885 9.38974 109.564 9.8686 110.11 10.4799C111.164 11.8428 111.693 13.5394 111.6 15.2599L111.68 15.2699ZM109.22 14.1099C109.211 13.2697 108.895 12.462 108.33 11.8399C107.623 11.1696 106.681 10.8035 105.707 10.8203C104.732 10.8371 103.804 11.2355 103.12 11.9299C102.528 12.5077 102.172 13.2845 102.12 14.1099C102.12 14.1999 102.12 14.2399 102.24 14.2399H109.06C109.14 14.2399 109.18 14.2399 109.18 14.1099" fill="black"/>
<path d="M121.77 10.8199H120.5C120.041 10.8038 119.585 10.8959 119.168 11.0888C118.751 11.2816 118.385 11.5697 118.1 11.9299C117.49 12.6827 117.173 13.6315 117.21 14.5999V21.4699C117.212 21.4883 117.209 21.5069 117.203 21.5242C117.196 21.5415 117.186 21.557 117.172 21.5696C117.159 21.5822 117.142 21.5915 117.125 21.5967C117.107 21.602 117.088 21.6031 117.07 21.5999H114.94C114.86 21.5999 114.82 21.5499 114.82 21.4699V9.0699C114.818 9.05375 114.821 9.03747 114.826 9.02221C114.831 9.00694 114.84 8.99308 114.852 8.98161C114.863 8.97015 114.877 8.96136 114.892 8.95587C114.908 8.95039 114.924 8.94835 114.94 8.9499H116.82C116.82 8.9499 116.91 8.9499 116.94 9.0699L117.2 10.1899C117.253 10.3432 117.343 10.3432 117.47 10.1899C117.843 9.74828 118.301 9.38552 118.816 9.12281C119.331 8.86011 119.893 8.70273 120.47 8.6599H121.74C121.757 8.65853 121.774 8.66056 121.791 8.66586C121.807 8.67116 121.822 8.67963 121.835 8.69078C121.848 8.70193 121.859 8.71555 121.866 8.73084C121.874 8.74614 121.879 8.76281 121.88 8.7799V10.6599C121.88 10.6778 121.876 10.6956 121.869 10.7121C121.862 10.7285 121.852 10.7433 121.838 10.7555C121.825 10.7678 121.81 10.7771 121.793 10.783C121.776 10.7889 121.758 10.7913 121.74 10.7899" fill="black"/>
<path d="M127.05 4.10988V6.73988C127.052 6.75829 127.049 6.77687 127.043 6.79416C127.036 6.81146 127.026 6.82701 127.012 6.8396C126.999 6.85218 126.982 6.86146 126.965 6.86672C126.947 6.87197 126.928 6.87305 126.91 6.86988H124.29C124.21 6.86988 124.17 6.86988 124.17 6.73988V4.10988C124.168 4.09374 124.17 4.07745 124.176 4.06219C124.181 4.04693 124.19 4.03307 124.202 4.0216C124.213 4.01013 124.227 4.00134 124.242 3.99586C124.258 3.99037 124.274 3.98833 124.29 3.98988H126.94C127.03 3.98988 127.08 3.98988 127.08 4.10988H127.05ZM126.82 9.10988V21.5099C126.822 21.526 126.82 21.5423 126.814 21.5576C126.809 21.5728 126.8 21.5867 126.788 21.5982C126.777 21.6096 126.763 21.6184 126.748 21.6239C126.732 21.6294 126.716 21.6314 126.7 21.6299H124.56C124.544 21.6314 124.528 21.6294 124.512 21.6239C124.497 21.6184 124.483 21.6096 124.472 21.5982C124.46 21.5867 124.451 21.5728 124.446 21.5576C124.44 21.5423 124.438 21.526 124.44 21.5099V9.06988C124.438 9.05374 124.44 9.03745 124.446 9.02219C124.451 9.00693 124.46 8.99307 124.472 8.9816C124.483 8.97013 124.497 8.96134 124.512 8.95586C124.528 8.95037 124.544 8.94833 124.56 8.94988H126.7C126.716 8.94833 126.732 8.95037 126.748 8.95586C126.763 8.96134 126.777 8.97013 126.788 8.9816C126.8 8.99307 126.809 9.00693 126.814 9.02219C126.82 9.03745 126.822 9.05374 126.82 9.06988" fill="black"/>
<path d="M130.36 8.94993H132.24C132.24 8.94993 132.32 8.94993 132.36 9.06993L132.61 10.1899C132.619 10.2198 132.637 10.2459 132.663 10.264C132.688 10.2821 132.719 10.2912 132.75 10.2899C132.778 10.2923 132.805 10.287 132.83 10.2746C132.855 10.2623 132.875 10.2434 132.89 10.2199C133.264 9.71172 133.759 9.30536 134.33 9.03805C134.901 8.77075 135.53 8.65106 136.16 8.68993C136.909 8.64907 137.657 8.77704 138.349 9.06438C139.041 9.35172 139.66 9.79108 140.16 10.3499C141.141 11.5437 141.65 13.056 141.59 14.5999V21.4699C141.59 21.5499 141.59 21.5899 141.46 21.5899H139.33C139.314 21.5915 139.298 21.5894 139.282 21.584C139.267 21.5785 139.253 21.5697 139.242 21.5582C139.23 21.5467 139.221 21.5329 139.216 21.5176C139.211 21.5024 139.208 21.4861 139.21 21.4699V14.5999C139.243 13.6385 138.966 12.6921 138.42 11.8999C138.137 11.5369 137.769 11.2486 137.349 11.0604C136.929 10.8721 136.469 10.7896 136.01 10.8199C135.534 10.7919 135.057 10.878 134.621 11.0711C134.184 11.2641 133.8 11.5586 133.5 11.9299C132.887 12.6826 132.564 13.6298 132.59 14.5999V21.4699C132.592 21.4861 132.59 21.5024 132.584 21.5176C132.579 21.5329 132.57 21.5467 132.558 21.5582C132.547 21.5697 132.533 21.5785 132.518 21.584C132.502 21.5894 132.486 21.5915 132.47 21.5899H130.34C130.25 21.5899 130.21 21.5899 130.21 21.4699V9.06993C130.21 8.98993 130.21 8.94993 130.34 8.94993" fill="black"/>
<path d="M150.08 24.6699C150.575 24.7172 151.074 24.6519 151.54 24.4787C152.006 24.3055 152.426 24.029 152.77 23.6699C153.353 22.9664 153.655 22.0727 153.62 21.1599V20.4799C153.62 20.4299 153.62 20.3999 153.54 20.3699C153.51 20.3608 153.479 20.3618 153.45 20.3727C153.421 20.3835 153.396 20.4036 153.38 20.4299C152.994 20.8357 152.527 21.1559 152.01 21.3699C151.325 21.7055 150.573 21.8799 149.81 21.8799C149.008 21.9002 148.212 21.7471 147.475 21.4313C146.738 21.1155 146.078 20.6443 145.54 20.0499C144.387 18.7355 143.785 17.0269 143.86 15.2799C143.777 13.556 144.353 11.8651 145.47 10.5499C146.016 9.94949 146.686 9.47553 147.434 9.16117C148.182 8.8468 148.989 8.69961 149.8 8.7299C150.488 8.74044 151.168 8.88656 151.8 9.1599C152.398 9.38218 152.946 9.72223 153.41 10.1599C153.523 10.2666 153.603 10.2666 153.65 10.1599L153.91 9.1599C153.91 9.0799 153.95 9.0399 154.03 9.0399H155.91C155.926 9.03835 155.942 9.04039 155.958 9.04587C155.973 9.05135 155.987 9.06014 155.998 9.07161C156.01 9.08308 156.019 9.09694 156.024 9.1122C156.03 9.12747 156.032 9.14375 156.03 9.1599V21.1599C156.06 21.9192 155.93 22.6764 155.649 23.3826C155.369 24.0887 154.943 24.7283 154.4 25.2599C153.858 25.782 153.216 26.1907 152.514 26.462C151.812 26.7333 151.063 26.8618 150.31 26.8399C148.879 26.8961 147.466 26.5121 146.26 25.7399C145.789 25.4623 145.386 25.0814 145.083 24.6259C144.78 24.1703 144.584 23.652 144.51 23.1099C144.508 23.0938 144.51 23.0775 144.516 23.0622C144.521 23.0469 144.53 23.0331 144.542 23.0216C144.553 23.0101 144.567 23.0014 144.582 22.9959C144.598 22.9904 144.614 22.9883 144.63 22.9899H146.81C146.81 22.9899 146.9 22.9899 146.94 23.1099C147.14 23.576 147.493 23.9603 147.94 24.1999C148.6 24.5721 149.353 24.749 150.11 24.7099L150.08 24.6699ZM146.27 15.3099C146.211 16.4648 146.565 17.6029 147.27 18.5199C147.601 18.9235 148.02 19.2453 148.495 19.4604C148.97 19.6755 149.489 19.778 150.01 19.7599C150.521 19.7857 151.031 19.6873 151.496 19.4731C151.961 19.2589 152.367 18.9353 152.68 18.5299C153.367 17.6003 153.72 16.4653 153.68 15.3099C153.721 14.1512 153.369 13.0126 152.68 12.0799C152.367 11.6757 151.96 11.3535 151.495 11.141C151.03 10.9285 150.521 10.8321 150.01 10.8599C149.49 10.8387 148.973 10.9377 148.497 11.1493C148.022 11.3609 147.602 11.6794 147.27 12.0799C146.567 13.0054 146.213 14.1491 146.27 15.3099Z" fill="black"/>
</g>
<defs>
<clipPath id="clip0_1_337">
<rect width="156" height="26.4" fill="white" transform="translate(0 0.399902)"/>
</clipPath>
</defs>
</svg>
