<svg width="249" height="28" viewBox="0 0 249 28" fill="none" xmlns="http://www.w3.org/2000/svg">
<g clip-path="url(#clip0_1_611)">
<path d="M12.67 0.799805H0.5C0.367392 0.799805 0.240215 0.852483 0.146447 0.946251C0.0526785 1.04002 0 1.1672 0 1.2998V25.0298C0.00256007 25.1616 0.0560606 25.2873 0.14928 25.3805C0.242499 25.4737 0.368193 25.5272 0.5 25.5298H12.67C15.8885 25.4383 18.9445 24.0954 21.1887 21.7865C23.4329 19.4776 24.6883 16.3846 24.6883 13.1648C24.6883 9.94497 23.4329 6.85203 21.1887 4.54313C18.9445 2.23422 15.8885 0.891343 12.67 0.799805ZM13.86 21.7998C12.0187 22.1167 10.1242 21.8393 8.45107 21.0078C6.77789 20.1762 5.4128 18.8337 4.55347 17.1747C3.69414 15.5156 3.38516 13.6261 3.67129 11.7797C3.95741 9.93331 4.82378 8.22592 6.14495 6.90476C7.46612 5.58359 9.1735 4.71722 11.0199 4.43109C12.8663 4.14497 14.7558 4.45394 16.4148 5.31327C18.0739 6.17261 19.4164 7.53769 20.2479 9.21087C21.0795 10.884 21.3569 12.7785 21.04 14.6198C20.7316 16.4117 19.8757 18.0641 18.59 19.3498C17.3043 20.6355 15.6519 21.4914 13.86 21.7998Z" fill="white"/>
<path d="M35.36 4.5098C35.36 4.4298 35.36 4.3898 35.49 4.3898H46.61C46.69 4.3898 46.74 4.3898 46.74 4.5098V6.3898C46.7415 6.40726 46.7392 6.42484 46.7332 6.4413C46.7272 6.45777 46.7177 6.47272 46.7053 6.48511C46.6929 6.4975 46.678 6.50703 46.6615 6.51302C46.645 6.51901 46.6274 6.52133 46.61 6.5198H37.86C37.78 6.5198 37.74 6.5198 37.74 6.6498V11.7298C37.74 11.8098 37.74 11.8598 37.86 11.8598H45.59C45.67 11.8598 45.71 11.9098 45.71 11.9898V13.8598C45.7114 13.8764 45.7093 13.8931 45.7039 13.9088C45.6985 13.9245 45.6899 13.939 45.6786 13.9512C45.6673 13.9634 45.6536 13.9732 45.6383 13.9798C45.6231 13.9865 45.6066 13.9899 45.59 13.9898H37.86C37.8438 13.9883 37.8276 13.9903 37.8123 13.9958C37.797 14.0013 37.7832 14.01 37.7717 14.0215C37.7602 14.033 37.7514 14.0468 37.746 14.0621C37.7405 14.0774 37.7384 14.0937 37.74 14.1098V21.8598C37.7415 21.8759 37.7395 21.8922 37.734 21.9075C37.7285 21.9228 37.7197 21.9366 37.7083 21.9481C37.6968 21.9596 37.6829 21.9683 37.6677 21.9738C37.6524 21.9793 37.6361 21.9813 37.62 21.9798H35.49C35.4734 21.9812 35.4567 21.9791 35.441 21.9737C35.4253 21.9683 35.4108 21.9597 35.3986 21.9484C35.3864 21.9371 35.3766 21.9234 35.37 21.9082C35.3633 21.8929 35.3599 21.8764 35.36 21.8598V4.5098Z" fill="white"/>
<path d="M60.1 15.6698C60.1 16.2298 60.04 16.5098 59.92 16.5098H50.79C50.71 16.5098 50.67 16.5098 50.67 16.6498C50.6629 17.1143 50.7504 17.5753 50.9274 18.0048C51.1043 18.4343 51.3668 18.8233 51.699 19.148C52.0312 19.4727 52.4261 19.7263 52.8595 19.8934C53.2929 20.0605 53.7558 20.1375 54.22 20.1198C54.8629 20.1696 55.5063 20.0305 56.0713 19.7196C56.6362 19.4087 57.098 18.9395 57.4 18.3698C57.4106 18.3355 57.4317 18.3053 57.4605 18.2838C57.4892 18.2622 57.5241 18.2503 57.56 18.2498H59.62C59.7067 18.2498 59.7467 18.2898 59.74 18.3698C59.4586 19.5415 58.744 20.5633 57.74 21.2298C56.6798 21.9275 55.4283 22.277 54.16 22.2298C53.3683 22.2526 52.5811 22.1034 51.8526 21.7927C51.1241 21.4819 50.4716 21.017 49.94 20.4298C48.8247 19.0943 48.2534 17.3876 48.34 15.6498C48.2532 13.9297 48.7973 12.2372 49.87 10.8898C50.4265 10.2806 51.1123 9.80362 51.8772 9.49389C52.642 9.18416 53.4664 9.04951 54.29 9.0998C55.1065 9.04692 55.9243 9.18061 56.6815 9.49074C57.4386 9.80088 58.1152 10.2793 58.66 10.8898C59.7141 12.2527 60.243 13.9493 60.15 15.6698H60.1ZM57.77 14.5198C57.7614 13.6797 57.4447 12.8719 56.88 12.2498C56.1728 11.5795 55.2309 11.2134 54.2566 11.2302C53.2824 11.247 52.3536 11.6455 51.67 12.3398C51.0767 12.9165 50.7201 13.6939 50.67 14.5198C50.67 14.6098 50.67 14.6498 50.79 14.6498H57.6C57.68 14.6498 57.72 14.6498 57.72 14.5198" fill="white"/>
<path d="M65.75 4.5098V21.8698C65.7515 21.8859 65.7495 21.9022 65.744 21.9175C65.7385 21.9328 65.7297 21.9466 65.7183 21.9581C65.7068 21.9696 65.693 21.9783 65.6777 21.9838C65.6624 21.9893 65.6461 21.9913 65.63 21.9898H63.51C63.4929 21.9912 63.4757 21.9891 63.4594 21.9838C63.4431 21.9785 63.4281 21.9701 63.415 21.9589C63.402 21.9478 63.3914 21.9341 63.3836 21.9189C63.3759 21.9036 63.3713 21.8869 63.37 21.8698V4.5098C63.37 4.4298 63.37 4.3898 63.51 4.3898H65.63C65.6461 4.38825 65.6624 4.39029 65.6777 4.39577C65.693 4.40126 65.7068 4.41005 65.7183 4.42152C65.7297 4.43298 65.7385 4.44684 65.744 4.46211C65.7495 4.47737 65.7515 4.49366 65.75 4.5098Z" fill="white"/>
<path d="M71.75 4.5098V21.8698C71.7515 21.8859 71.7495 21.9022 71.744 21.9175C71.7385 21.9328 71.7297 21.9466 71.7183 21.9581C71.7068 21.9696 71.693 21.9783 71.6777 21.9838C71.6624 21.9893 71.6461 21.9913 71.63 21.9898H69.5C69.42 21.9898 69.37 21.9898 69.37 21.8698V4.5098C69.37 4.4298 69.37 4.3898 69.5 4.3898H71.63C71.6461 4.38825 71.6624 4.39029 71.6777 4.39577C71.693 4.40126 71.7068 4.41005 71.7183 4.42152C71.7297 4.43298 71.7385 4.44684 71.744 4.46211C71.7495 4.47737 71.7515 4.49366 71.75 4.5098Z" fill="white"/>
<path d="M86.58 15.6698C86.58 16.2298 86.52 16.5098 86.4 16.5098H77.26C77.18 16.5098 77.14 16.5098 77.14 16.6498C77.1357 17.1144 77.2255 17.575 77.404 18.0039C77.5825 18.4327 77.8461 18.821 78.1788 19.1453C78.5114 19.4696 78.9063 19.7231 79.3397 19.8906C79.773 20.0581 80.2357 20.136 80.7 20.1198C81.3429 20.1696 81.9864 20.0305 82.5513 19.7196C83.1162 19.4087 83.578 18.9396 83.88 18.3698C83.8891 18.3346 83.9099 18.3035 83.939 18.2817C83.968 18.2599 84.0037 18.2487 84.04 18.2498H86.1C86.1933 18.2498 86.2333 18.2898 86.22 18.3698C85.9385 19.5416 85.224 20.5633 84.22 21.2298C83.1589 21.9256 81.9081 22.275 80.64 22.2298C79.8325 22.2653 79.0272 22.1214 78.2819 21.8084C77.5367 21.4954 76.8701 21.0212 76.33 20.4198C75.212 19.0853 74.6372 17.3788 74.72 15.6398C74.636 13.9185 75.1837 12.2258 76.26 10.8798C76.815 10.2714 77.4991 9.79483 78.2622 9.4851C79.0253 9.17538 79.848 9.04031 80.67 9.08981C81.4881 9.03612 82.3076 9.1694 83.0665 9.47954C83.8254 9.78968 84.5037 10.2685 85.05 10.8798C86.1041 12.2428 86.633 13.9393 86.54 15.6598L86.58 15.6698ZM84.16 14.5098C84.1514 13.6697 83.8347 12.8619 83.27 12.2398C82.5628 11.5695 81.6209 11.2034 80.6466 11.2202C79.6724 11.237 78.7436 11.6355 78.06 12.3298C77.4683 12.9076 77.1119 13.6844 77.06 14.5098C77.06 14.5998 77.06 14.6398 77.18 14.6398H84C84.08 14.6398 84.12 14.6398 84.12 14.5098" fill="white"/>
<path d="M99.85 13.6198H97.7C97.6839 13.6214 97.6676 13.6193 97.6523 13.6138C97.637 13.6083 97.6232 13.5996 97.6117 13.5881C97.6002 13.5766 97.5914 13.5628 97.586 13.5475C97.5805 13.5322 97.5784 13.5159 97.58 13.4998C97.59 13.1767 97.5215 12.856 97.3804 12.5652C97.2394 12.2743 97.0299 12.022 96.77 11.8298C96.1133 11.3882 95.33 11.1739 94.54 11.2198C93.8091 11.1679 93.079 11.3313 92.44 11.6898C92.241 11.802 92.0735 11.9625 91.9529 12.1565C91.8323 12.3505 91.7625 12.5717 91.75 12.7998C91.7296 12.9575 91.7471 13.1177 91.801 13.2673C91.8549 13.4169 91.9437 13.5514 92.06 13.6598C92.2387 13.8008 92.4257 13.9311 92.62 14.0498C93.4194 14.2749 94.2409 14.4124 95.07 14.4598C96.213 14.5582 97.337 14.8139 98.41 15.2198C99.0048 15.4525 99.5098 15.8689 99.8515 16.4085C100.193 16.9481 100.354 17.5826 100.31 18.2198C100.354 18.8223 100.237 19.4257 99.9717 19.9684C99.7064 20.5112 99.3022 20.974 98.8 21.3098C97.5585 22.0319 96.1345 22.3792 94.7 22.3098C93.2339 22.3979 91.7852 21.9541 90.62 21.0598C90.1551 20.6802 89.7816 20.2009 89.5271 19.6573C89.2726 19.1138 89.1438 18.5199 89.15 17.9198C89.1485 17.9023 89.1508 17.8848 89.1568 17.8683C89.1628 17.8518 89.1723 17.8369 89.1847 17.8245C89.1971 17.8121 89.212 17.8026 89.2285 17.7966C89.245 17.7906 89.2625 17.7883 89.28 17.7898H91.39C91.49 17.7898 91.53 17.7898 91.53 17.9198C91.532 18.2437 91.6156 18.5618 91.7728 18.8449C91.9301 19.128 92.1561 19.367 92.43 19.5398C93.135 20.0018 93.968 20.2293 94.81 20.1898C96.89 20.1898 97.93 19.5498 97.93 18.2898C97.9364 18.1431 97.9132 17.9967 97.8616 17.8592C97.8101 17.7217 97.7313 17.5961 97.63 17.4898C97.4525 17.3062 97.2377 17.163 97 17.0698L96.55 16.9098C96.3957 16.8684 96.2386 16.8383 96.08 16.8198L95.44 16.7098C95.2325 16.6691 95.0215 16.649 94.81 16.6498C93.5546 16.5435 92.3251 16.2328 91.17 15.7298C90.4707 15.4 89.911 14.8331 89.59 14.1298C89.4448 13.7014 89.3705 13.2522 89.37 12.7998C89.3721 12.2768 89.5016 11.7622 89.7473 11.3005C89.993 10.8387 90.3474 10.4438 90.78 10.1498C91.8747 9.382 93.1946 9.00189 94.53 9.06981C95.9161 9.01682 97.2817 9.41703 98.42 10.2098C98.9253 10.5901 99.3285 11.0896 99.5938 11.6636C99.859 12.2377 99.9779 12.8686 99.94 13.4998C99.94 13.5798 99.94 13.6198 99.83 13.6198" fill="white"/>
<path d="M120.3 21.9998H118.42C118.42 21.9998 118.33 21.9498 118.29 21.8698L118.04 20.8698C118.04 20.7298 117.91 20.7098 117.79 20.8198C116.791 21.6762 115.535 22.1758 114.22 22.2398C113.408 22.2763 112.598 22.1329 111.848 21.82C111.097 21.5072 110.426 21.0324 109.88 20.4298C108.763 19.1024 108.188 17.4026 108.27 15.6698C108.187 13.9369 108.762 12.2367 109.88 10.9098C110.428 10.3092 111.1 9.83515 111.849 9.52082C112.599 9.20649 113.408 9.0594 114.22 9.0898C114.976 9.08856 115.723 9.26315 116.4 9.5998C116.913 9.82039 117.383 10.1283 117.79 10.5098C117.86 10.5798 117.91 10.5998 117.96 10.5698C117.983 10.5617 118.003 10.5469 118.017 10.5272C118.031 10.5076 118.039 10.4841 118.04 10.4598V4.5198C118.04 4.4298 118.04 4.3898 118.17 4.3898H120.3C120.38 4.3898 120.42 4.3898 120.42 4.5198V21.8698C120.42 21.9498 120.42 21.9998 120.3 21.9998ZM110.65 15.6698C110.591 16.8247 110.945 17.9628 111.65 18.8798C111.983 19.2836 112.404 19.6054 112.88 19.8204C113.357 20.0355 113.877 20.1379 114.4 20.1198C114.912 20.143 115.423 20.0436 115.889 19.8296C116.355 19.6157 116.764 19.2935 117.08 18.8898C117.747 17.9528 118.078 16.8183 118.02 15.6698C118.074 14.5186 117.743 13.3822 117.08 12.4398C116.767 12.0356 116.36 11.7134 115.895 11.5009C115.43 11.2885 114.921 11.192 114.41 11.2198C113.887 11.1985 113.367 11.2974 112.888 11.5089C112.41 11.7204 111.986 12.0389 111.65 12.4398C110.947 13.3653 110.593 14.509 110.65 15.6698Z" fill="white"/>
<path d="M136.63 19.9898V21.8698C136.63 21.9498 136.63 21.9998 136.51 21.9998H135.6C134.32 21.9998 133.5 21.6298 133.14 20.8498C133.14 20.7198 133.01 20.6998 132.91 20.7998C132.42 21.2494 131.841 21.5902 131.21 21.7998C130.338 22.1096 129.415 22.2553 128.49 22.2298C127.153 22.324 125.827 21.9374 124.75 21.1398C124.332 20.7969 123.998 20.3624 123.774 19.87C123.551 19.3776 123.443 18.8404 123.46 18.2998C123.445 17.7515 123.567 17.2081 123.813 16.7179C124.058 16.2277 124.422 15.8058 124.87 15.4898C126.082 14.7191 127.507 14.3547 128.94 14.4498H131.74C132.21 14.4498 132.48 14.3298 132.55 14.0998C132.568 13.8568 132.568 13.6128 132.55 13.3698C132.513 12.869 132.325 12.3913 132.01 11.9998C131.65 11.4898 130.75 11.2198 129.3 11.1998C128.486 11.133 127.675 11.3562 127.01 11.8298C126.763 12.0305 126.566 12.2858 126.434 12.5755C126.302 12.8653 126.239 13.1816 126.25 13.4998C126.25 13.5798 126.25 13.6198 126.12 13.6198H123.99C123.974 13.6213 123.958 13.6193 123.942 13.6138C123.927 13.6083 123.913 13.5996 123.902 13.5881C123.89 13.5766 123.881 13.5628 123.876 13.5475C123.87 13.5322 123.868 13.5159 123.87 13.4998C123.842 12.8683 123.973 12.24 124.251 11.6722C124.529 11.1044 124.944 10.6154 125.46 10.2498C126.641 9.45735 128.039 9.05194 129.46 9.0898C130.872 9.01382 132.266 9.43487 133.4 10.2798C133.911 10.692 134.318 11.2196 134.585 11.8194C134.853 12.4192 134.975 13.0739 134.94 13.7298V18.6298C134.905 18.9745 134.971 19.3221 135.13 19.6298C135.26 19.8198 135.55 19.9198 136 19.9198H136.48C136.496 19.9183 136.512 19.9203 136.528 19.9258C136.543 19.9313 136.557 19.94 136.568 19.9515C136.58 19.963 136.589 19.9768 136.594 19.9921C136.6 20.0074 136.602 20.0237 136.6 20.0398L136.63 19.9898ZM132.6 16.4898C132.6 16.4098 132.55 16.3698 132.46 16.3698H128.94C128.076 16.323 127.217 16.5317 126.47 16.9698C126.268 17.125 126.105 17.3251 125.994 17.5543C125.883 17.7834 125.827 18.0352 125.83 18.2898C125.827 18.5437 125.882 18.795 125.989 19.0251C126.096 19.2553 126.254 19.4585 126.45 19.6198C127.03 20.0351 127.739 20.2301 128.45 20.1698C129.568 20.2527 130.674 19.8936 131.53 19.1698C131.853 18.8672 132.112 18.5038 132.294 18.1005C132.476 17.6972 132.577 17.262 132.59 16.8198L132.6 16.4898Z" fill="white"/>
<path d="M145.53 19.9898V21.8698C145.532 21.8882 145.529 21.9068 145.523 21.9241C145.516 21.9414 145.506 21.9569 145.492 21.9695C145.479 21.9821 145.462 21.9914 145.445 21.9966C145.427 22.0019 145.408 22.003 145.39 21.9998H143.48C141.29 21.9998 140.2 21.0598 140.19 18.9998V11.3498C140.19 11.2698 140.19 11.2198 140.07 11.2198H137.85C137.77 11.2198 137.73 11.2198 137.73 11.0898V9.4698C137.728 9.45366 137.73 9.43737 137.736 9.42211C137.741 9.40685 137.75 9.39299 137.762 9.38152C137.773 9.37005 137.787 9.36126 137.802 9.35578C137.818 9.35029 137.834 9.34825 137.85 9.3498H140.07C140.15 9.3498 140.19 9.3498 140.19 9.2098V5.8498C140.19 5.7598 140.24 5.7198 140.33 5.7198H142.45C142.53 5.7198 142.57 5.7198 142.57 5.8498V9.2098C142.567 9.22715 142.568 9.24493 142.573 9.26188C142.577 9.27884 142.586 9.29455 142.597 9.30791C142.609 9.32127 142.623 9.33195 142.639 9.33918C142.655 9.34642 142.672 9.35005 142.69 9.3498H145.39C145.407 9.34844 145.424 9.35046 145.441 9.35576C145.457 9.36106 145.472 9.36953 145.485 9.38069C145.498 9.39184 145.509 9.40545 145.516 9.42075C145.524 9.43604 145.529 9.45271 145.53 9.4698V11.0898C145.53 11.1798 145.48 11.2198 145.39 11.2198H142.69C142.61 11.2198 142.57 11.2198 142.57 11.3498V18.6298C142.57 19.4598 143.02 19.8698 143.93 19.8698H145.39C145.48 19.8698 145.53 19.8698 145.53 19.9898Z" fill="white"/>
<path d="M160.52 19.9898V21.8698C160.522 21.8873 160.519 21.9048 160.513 21.9213C160.507 21.9378 160.498 21.9527 160.485 21.9651C160.473 21.9775 160.458 21.987 160.441 21.993C160.425 21.999 160.407 22.0013 160.39 21.9998H159.49C158.21 21.9998 157.39 21.6298 157.03 20.8498C156.98 20.7198 156.9 20.6998 156.8 20.7998C156.31 21.2494 155.731 21.5902 155.1 21.7998C154.224 22.1103 153.299 22.2561 152.37 22.2298C151.036 22.3242 149.713 21.9375 148.64 21.1398C148.222 20.7969 147.888 20.3624 147.664 19.87C147.441 19.3776 147.333 18.8404 147.35 18.2998C147.335 17.7515 147.457 17.2081 147.703 16.7179C147.948 16.2277 148.312 15.8058 148.76 15.4898C149.973 14.7135 151.403 14.3456 152.84 14.4398H155.64C156.11 14.4398 156.38 14.3198 156.45 14.0898C156.468 13.8468 156.468 13.6028 156.45 13.3598C156.413 12.859 156.225 12.3813 155.91 11.9898C155.55 11.4798 154.65 11.2098 153.2 11.1898C152.386 11.123 151.575 11.3462 150.91 11.8198C150.663 12.0205 150.466 12.2758 150.334 12.5655C150.202 12.8553 150.139 13.1716 150.15 13.4898C150.15 13.5698 150.1 13.6098 150.01 13.6098H147.94C147.924 13.6114 147.908 13.6093 147.892 13.6038C147.877 13.5983 147.863 13.5896 147.852 13.5781C147.84 13.5666 147.831 13.5528 147.826 13.5375C147.82 13.5222 147.818 13.5059 147.82 13.4898C147.792 12.8583 147.923 12.23 148.201 11.6622C148.479 11.0944 148.894 10.6054 149.41 10.2398C150.591 9.44735 151.989 9.04194 153.41 9.0798C154.822 9.00383 156.216 9.42487 157.35 10.2698C157.857 10.6861 158.259 11.2167 158.521 11.8182C158.784 12.4196 158.9 13.0748 158.86 13.7298V18.6298C158.825 18.9745 158.891 19.3221 159.05 19.6298C159.18 19.8198 159.47 19.9198 159.92 19.9198H160.4C160.416 19.9183 160.432 19.9203 160.448 19.9258C160.463 19.9313 160.477 19.9401 160.488 19.9515C160.5 19.963 160.509 19.9768 160.514 19.9921C160.519 20.0074 160.522 20.0237 160.52 20.0398V19.9898ZM156.52 16.4898C156.52 16.4098 156.52 16.3698 156.38 16.3698H152.88C152.016 16.3231 151.157 16.5317 150.41 16.9698C150.208 17.125 150.045 17.3251 149.934 17.5543C149.823 17.7834 149.767 18.0352 149.77 18.2898C149.768 18.5427 149.821 18.793 149.927 19.0229C150.032 19.2528 150.187 19.4566 150.38 19.6198C150.96 20.0351 151.669 20.2301 152.38 20.1698C153.501 20.2543 154.611 19.8952 155.47 19.1698C155.793 18.8672 156.052 18.5038 156.234 18.1005C156.416 17.6972 156.517 17.262 156.53 16.8198L156.52 16.4898Z" fill="white"/>
<path d="M174.79 21.9998H172.54C172.494 21.9987 172.449 21.9863 172.409 21.9636C172.369 21.941 172.335 21.9087 172.31 21.8698L168.31 15.0498C168.257 14.9765 168.197 14.9765 168.13 15.0498L165.28 17.4898C165.262 17.5416 165.262 17.598 165.28 17.6498V21.8698C165.282 21.8882 165.279 21.9068 165.273 21.9241C165.266 21.9414 165.256 21.9569 165.242 21.9695C165.229 21.9821 165.212 21.9914 165.195 21.9966C165.177 22.0019 165.158 22.003 165.14 21.9998H163.02C163.003 22.0013 162.985 21.999 162.968 21.993C162.952 21.987 162.937 21.9775 162.925 21.9651C162.912 21.9527 162.903 21.9378 162.897 21.9213C162.891 21.9048 162.888 21.8873 162.89 21.8698V4.5198C162.888 4.50234 162.891 4.48477 162.897 4.4683C162.903 4.45183 162.912 4.43688 162.925 4.42449C162.937 4.4121 162.952 4.40257 162.968 4.39658C162.985 4.39059 163.003 4.38827 163.02 4.3898H165.14C165.158 4.38842 165.176 4.39076 165.193 4.39667C165.21 4.40258 165.225 4.41194 165.238 4.42415C165.252 4.43636 165.262 4.45117 165.269 4.46763C165.276 4.48409 165.28 4.50185 165.28 4.5198V14.3198C165.28 14.3198 165.28 14.3698 165.34 14.3898C165.356 14.402 165.375 14.4086 165.395 14.4086C165.415 14.4086 165.434 14.402 165.45 14.3898L171.2 9.4898C171.305 9.40607 171.436 9.3634 171.57 9.3698H174.65C174.665 9.3706 174.68 9.37573 174.692 9.38459C174.705 9.39345 174.714 9.40566 174.72 9.4198C174.72 9.4198 174.72 9.4698 174.72 9.4898L170.07 13.4898C170.02 13.4898 170.02 13.5998 170.07 13.6798L174.89 21.9298C174.94 22.0098 174.89 22.0598 174.8 22.0598" fill="white"/>
<path d="M189.73 19.9898V21.8698C189.73 21.9498 189.73 21.9998 189.61 21.9998H188.7C187.42 21.9998 186.6 21.6298 186.24 20.8498C186.19 20.7198 186.11 20.6998 186.01 20.7998C185.52 21.2494 184.941 21.5902 184.31 21.7998C183.438 22.1096 182.515 22.2553 181.59 22.2298C180.253 22.324 178.927 21.9374 177.85 21.1398C177.432 20.7969 177.098 20.3624 176.874 19.87C176.651 19.3776 176.543 18.8404 176.56 18.2998C176.544 17.7559 176.661 17.2162 176.902 16.7281C177.142 16.24 177.499 15.8182 177.94 15.4998C179.153 14.7235 180.583 14.3556 182.02 14.4498H184.82C185.29 14.4498 185.56 14.3298 185.63 14.0998C185.648 13.8568 185.648 13.6128 185.63 13.3698C185.593 12.869 185.405 12.3913 185.09 11.9998C184.73 11.4898 183.83 11.2198 182.38 11.1998C181.566 11.133 180.755 11.3562 180.09 11.8298C179.843 12.0305 179.646 12.2858 179.514 12.5755C179.382 12.8653 179.319 13.1816 179.33 13.4998C179.33 13.5798 179.33 13.6198 179.2 13.6198H177.07C177.054 13.6213 177.038 13.6193 177.022 13.6138C177.007 13.6083 176.993 13.5996 176.982 13.5881C176.97 13.5766 176.961 13.5628 176.956 13.5475C176.951 13.5322 176.948 13.5159 176.95 13.4998C176.922 12.8683 177.053 12.24 177.331 11.6722C177.609 11.1044 178.024 10.6154 178.54 10.2498C179.721 9.45735 181.119 9.05194 182.54 9.0898C183.952 9.01382 185.346 9.43487 186.48 10.2798C187.001 10.6868 187.416 11.2121 187.693 11.8122C187.969 12.4123 188.099 13.0697 188.07 13.7298V18.6298C188.035 18.9745 188.101 19.3221 188.26 19.6298C188.39 19.8198 188.68 19.9198 189.13 19.9198H189.61C189.626 19.9183 189.642 19.9203 189.658 19.9258C189.673 19.9313 189.687 19.94 189.698 19.9515C189.71 19.963 189.719 19.9768 189.724 19.9921C189.73 20.0074 189.732 20.0237 189.73 20.0398V19.9898ZM185.73 16.4898C185.73 16.4098 185.68 16.3698 185.59 16.3698H182.09C181.226 16.323 180.367 16.5317 179.62 16.9698C179.418 17.125 179.255 17.3251 179.144 17.5543C179.033 17.7834 178.977 18.0352 178.98 18.2898C178.977 18.5437 179.032 18.795 179.139 19.0251C179.246 19.2553 179.404 19.4585 179.6 19.6198C180.18 20.0351 180.889 20.2301 181.6 20.1698C182.718 20.2527 183.824 19.8936 184.68 19.1698C185.003 18.8672 185.262 18.5038 185.444 18.1005C185.626 17.6972 185.727 17.262 185.74 16.8198L185.73 16.4898Z" fill="white"/>
<path d="M198.63 19.9898V21.8698C198.632 21.8882 198.629 21.9068 198.623 21.9241C198.616 21.9414 198.606 21.9569 198.592 21.9695C198.579 21.9821 198.562 21.9914 198.545 21.9966C198.527 22.0019 198.508 22.003 198.49 21.9998H196.58C194.4 21.9998 193.3 21.0598 193.29 18.9998V11.3498C193.29 11.2698 193.29 11.2198 193.17 11.2198H190.94C190.86 11.2198 190.82 11.2198 190.82 11.0898V9.4698C190.818 9.45366 190.82 9.43737 190.826 9.42211C190.831 9.40685 190.84 9.39299 190.852 9.38152C190.863 9.37005 190.877 9.36126 190.892 9.35578C190.908 9.35029 190.924 9.34825 190.94 9.3498H193.16C193.24 9.3498 193.28 9.3498 193.28 9.2098V5.8498C193.28 5.7598 193.33 5.7198 193.42 5.7198H195.54C195.62 5.7198 195.66 5.7198 195.66 5.8498V9.2098C195.66 9.2998 195.66 9.3398 195.79 9.3498H198.48C198.497 9.34844 198.514 9.35046 198.531 9.35576C198.547 9.36106 198.562 9.36953 198.575 9.38069C198.588 9.39184 198.599 9.40545 198.606 9.42075C198.614 9.43604 198.619 9.45271 198.62 9.4698V11.0898C198.62 11.1798 198.57 11.2198 198.48 11.2198H195.79C195.7 11.2198 195.66 11.2198 195.66 11.3498V18.6298C195.66 19.4598 196.12 19.8698 197.02 19.8698H198.48C198.57 19.8698 198.62 19.8698 198.62 19.9898" fill="white"/>
<path d="M213.62 19.9898V21.8698C213.622 21.8873 213.619 21.9048 213.613 21.9213C213.607 21.9378 213.598 21.9527 213.585 21.9651C213.573 21.9775 213.558 21.987 213.542 21.993C213.525 21.999 213.507 22.0013 213.49 21.9998H212.59C211.31 21.9998 210.49 21.6298 210.13 20.8498C210.08 20.7198 210 20.6998 209.9 20.7998C209.41 21.2494 208.831 21.5902 208.2 21.7998C207.324 22.1103 206.399 22.2561 205.47 22.2298C204.136 22.3242 202.813 21.9375 201.74 21.1398C201.322 20.7969 200.988 20.3624 200.764 19.87C200.541 19.3776 200.433 18.8404 200.45 18.2998C200.435 17.7515 200.557 17.2081 200.803 16.7179C201.048 16.2277 201.412 15.8058 201.86 15.4898C203.074 14.717 204.504 14.3526 205.94 14.4498H208.74C209.21 14.4498 209.48 14.3298 209.55 14.0998C209.568 13.8568 209.568 13.6128 209.55 13.3698C209.513 12.869 209.325 12.3913 209.01 11.9998C208.65 11.4898 207.75 11.2198 206.3 11.1998C205.486 11.133 204.675 11.3562 204.01 11.8298C203.763 12.0305 203.566 12.2858 203.434 12.5755C203.302 12.8653 203.239 13.1816 203.25 13.4998C203.25 13.5798 203.2 13.6198 203.11 13.6198H200.99C200.974 13.6213 200.958 13.6193 200.942 13.6138C200.927 13.6083 200.913 13.5996 200.902 13.5881C200.89 13.5766 200.881 13.5628 200.876 13.5475C200.87 13.5322 200.868 13.5159 200.87 13.4998C200.842 12.8683 200.973 12.24 201.251 11.6722C201.529 11.1044 201.944 10.6154 202.46 10.2498C203.641 9.45735 205.039 9.05194 206.46 9.0898C207.872 9.01382 209.266 9.43487 210.4 10.2798C210.911 10.692 211.318 11.2196 211.585 11.8194C211.853 12.4192 211.975 13.0739 211.94 13.7298V18.6298C211.905 18.9745 211.971 19.3221 212.13 19.6298C212.26 19.8198 212.55 19.9198 213 19.9198H213.48C213.496 19.9183 213.512 19.9203 213.528 19.9258C213.543 19.9313 213.557 19.94 213.568 19.9515C213.58 19.963 213.589 19.9768 213.594 19.9921C213.6 20.0074 213.602 20.0237 213.6 20.0398L213.62 19.9898ZM209.6 16.4898C209.6 16.4098 209.6 16.3698 209.46 16.3698H205.94C205.076 16.323 204.217 16.5317 203.47 16.9698C203.268 17.125 203.105 17.3251 202.994 17.5543C202.883 17.7834 202.827 18.0352 202.83 18.2898C202.828 18.5427 202.881 18.793 202.987 19.0229C203.092 19.2528 203.247 19.4566 203.44 19.6198C204.02 20.0351 204.729 20.2301 205.44 20.1698C206.561 20.2543 207.671 19.8952 208.53 19.1698C208.853 18.8672 209.112 18.5038 209.294 18.1005C209.476 17.6972 209.577 17.262 209.59 16.8198L209.6 16.4898Z" fill="white"/>
<path d="M218.44 4.5098V21.8698C218.442 21.8859 218.44 21.9022 218.434 21.9175C218.429 21.9328 218.42 21.9466 218.408 21.9581C218.397 21.9696 218.383 21.9783 218.368 21.9838C218.352 21.9893 218.336 21.9913 218.32 21.9898H216.19C216.173 21.9912 216.157 21.9891 216.141 21.9837C216.125 21.9783 216.111 21.9697 216.099 21.9584C216.086 21.9471 216.077 21.9334 216.07 21.9182C216.063 21.9029 216.06 21.8864 216.06 21.8698V4.5098C216.06 4.4298 216.06 4.3898 216.19 4.3898H218.32C218.336 4.38825 218.352 4.39029 218.368 4.39577C218.383 4.40126 218.397 4.41005 218.408 4.42152C218.42 4.43298 218.429 4.44684 218.434 4.46211C218.44 4.47737 218.442 4.49366 218.44 4.5098Z" fill="white"/>
<path d="M233.86 15.6698C233.945 17.4147 233.35 19.1245 232.2 20.4398C231.613 21.0486 230.902 21.5244 230.115 21.8349C229.329 22.1455 228.485 22.2835 227.64 22.2398C226.798 22.2846 225.957 22.1469 225.173 21.8362C224.39 21.5256 223.682 21.0492 223.1 20.4398C221.954 19.123 221.362 17.4134 221.45 15.6698C221.365 13.9266 221.956 12.2177 223.1 10.8998C223.682 10.2904 224.39 9.81406 225.173 9.50338C225.957 9.1927 226.798 9.05504 227.64 9.09981C228.484 9.05612 229.327 9.19322 230.113 9.50193C230.9 9.81064 231.611 10.2838 232.2 10.8898C233.347 12.2108 233.941 13.9224 233.86 15.6698ZM230.45 18.8798C231.154 17.9625 231.508 16.8246 231.45 15.6698C231.508 14.515 231.154 13.3772 230.45 12.4598C230.113 12.0543 229.686 11.7323 229.204 11.519C228.722 11.3056 228.197 11.2066 227.67 11.2298C227.141 11.2083 226.615 11.307 226.13 11.5183C225.645 11.7296 225.214 12.0481 224.87 12.4498C224.164 13.3698 223.809 14.5116 223.87 15.6698C223.807 16.8252 224.162 17.9645 224.87 18.8798C225.212 19.2845 225.642 19.6057 226.128 19.8189C226.613 20.032 227.14 20.1315 227.67 20.1098C228.197 20.133 228.722 20.034 229.204 19.8207C229.686 19.6073 230.113 19.2853 230.45 18.8798Z" fill="white"/>
<path d="M242.1 25.0698C242.596 25.118 243.097 25.053 243.565 24.8798C244.032 24.7066 244.455 24.4297 244.8 24.0698C245.379 23.364 245.681 22.4719 245.65 21.5598V20.8798C245.65 20.8298 245.65 20.7998 245.56 20.7698C245.532 20.7614 245.502 20.7628 245.475 20.7737C245.447 20.7846 245.425 20.8044 245.41 20.8298C245.024 21.2356 244.557 21.5558 244.04 21.7698C243.352 22.1069 242.596 22.2813 241.83 22.2798C241.03 22.2999 240.235 22.1468 239.5 21.831C238.764 21.5151 238.106 21.0439 237.57 20.4498C236.414 19.1364 235.809 17.428 235.88 15.6798C235.802 13.9567 236.377 12.2675 237.49 10.9498C238.038 10.3492 238.71 9.87516 239.459 9.56083C240.209 9.24651 241.018 9.09941 241.83 9.12981C242.519 9.13823 243.199 9.28444 243.83 9.55981C244.432 9.77965 244.984 10.1199 245.45 10.5598C245.563 10.6665 245.643 10.6665 245.69 10.5598L245.95 9.55981C245.95 9.47981 245.99 9.43981 246.07 9.43981H247.94C247.956 9.43826 247.972 9.4403 247.988 9.44579C248.003 9.45127 248.017 9.46006 248.028 9.47153C248.04 9.48299 248.049 9.49686 248.054 9.51212C248.06 9.52738 248.062 9.54367 248.06 9.55981V21.5598C248.088 22.3198 247.956 23.0772 247.674 23.7834C247.391 24.4895 246.964 25.1287 246.42 25.6598C245.879 26.1812 245.24 26.5895 244.539 26.8608C243.839 27.1321 243.091 27.2609 242.34 27.2398C240.909 27.296 239.496 26.9121 238.29 26.1398C237.819 25.8622 237.416 25.4813 237.113 25.0258C236.81 24.5702 236.614 24.0519 236.54 23.5098C236.538 23.4937 236.54 23.4774 236.546 23.4621C236.551 23.4469 236.56 23.433 236.572 23.4215C236.583 23.4101 236.597 23.4013 236.612 23.3958C236.628 23.3903 236.644 23.3883 236.66 23.3898H238.84C238.84 23.3898 238.93 23.3898 238.96 23.5098C239.164 23.9738 239.515 24.3571 239.96 24.5998C240.62 24.972 241.373 25.1489 242.13 25.1098L242.1 25.0698ZM238.29 15.7098C238.226 16.8653 238.581 18.0049 239.29 18.9198C239.62 19.324 240.039 19.6462 240.514 19.8614C240.99 20.0765 241.509 20.1786 242.03 20.1598C242.541 20.1831 243.05 20.0836 243.515 19.8696C243.979 19.6555 244.386 19.3333 244.7 18.9298C245.387 18.0002 245.74 16.8653 245.7 15.7098C245.741 14.5511 245.389 13.4125 244.7 12.4798C244.385 12.0775 243.978 11.7567 243.514 11.5444C243.049 11.3321 242.54 11.2345 242.03 11.2598C241.51 11.237 240.992 11.3354 240.516 11.5471C240.041 11.7588 239.621 12.0781 239.29 12.4798C238.583 13.4033 238.229 14.5485 238.29 15.7098Z" fill="white"/>
</g>
<defs>
<clipPath id="clip0_1_611">
<rect width="248.03" height="26.4" fill="white" transform="translate(0 0.799805)"/>
</clipPath>
</defs>
</svg>
