<svg width="249" height="27" viewBox="0 0 249 27" fill="none" xmlns="http://www.w3.org/2000/svg">
<g clip-path="url(#clip0_1_573)">
<path d="M12.67 0H0.5C0.367392 0 0.240215 0.052678 0.146447 0.146446C0.0526785 0.240214 0 0.367392 0 0.5V24.23C0.00256007 24.3618 0.0560606 24.4875 0.14928 24.5807C0.242499 24.6739 0.368193 24.7274 0.5 24.73H12.67C15.8885 24.6385 18.9445 23.2956 21.1887 20.9867C23.4329 18.6778 24.6883 15.5848 24.6883 12.365C24.6883 9.14517 23.4329 6.05222 21.1887 3.74332C18.9445 1.43442 15.8885 0.0915386 12.67 0ZM13.86 21C12.0187 21.3169 10.1242 21.0395 8.45107 20.2079C6.77789 19.3764 5.4128 18.0339 4.55347 16.3748C3.69414 14.7158 3.38516 12.8263 3.67129 10.9799C3.95741 9.1335 4.82378 7.42612 6.14495 6.10495C7.46612 4.78378 9.1735 3.91741 11.0199 3.63129C12.8663 3.34516 14.7558 3.65414 16.4148 4.51347C18.0739 5.3728 19.4164 6.73789 20.2479 8.41106C21.0795 10.0842 21.3569 11.9787 21.04 13.82C20.7316 15.6119 19.8757 17.2643 18.59 18.55C17.3043 19.8357 15.6519 20.6916 13.86 21Z" fill="#1E2B3C"/>
<path d="M35.36 3.71C35.36 3.63 35.36 3.59 35.49 3.59H46.61C46.69 3.59 46.74 3.59 46.74 3.71V5.59C46.7415 5.60745 46.7392 5.62503 46.7332 5.6415C46.7272 5.65796 46.7177 5.67292 46.7053 5.68531C46.6929 5.6977 46.678 5.70722 46.6615 5.71322C46.645 5.71921 46.6274 5.72152 46.61 5.72H37.86C37.78 5.72 37.74 5.72 37.74 5.85V10.93C37.74 11.01 37.74 11.06 37.86 11.06H45.59C45.67 11.06 45.71 11.11 45.71 11.19V13.06C45.7114 13.0766 45.7093 13.0933 45.7039 13.109C45.6985 13.1247 45.6899 13.1392 45.6786 13.1514C45.6673 13.1636 45.6536 13.1734 45.6383 13.18C45.6231 13.1867 45.6066 13.1901 45.59 13.19H37.86C37.8438 13.1884 37.8276 13.1905 37.8123 13.196C37.797 13.2015 37.7832 13.2102 37.7717 13.2217C37.7602 13.2332 37.7514 13.247 37.746 13.2623C37.7405 13.2776 37.7384 13.2939 37.74 13.31V21.06C37.7415 21.0761 37.7395 21.0924 37.734 21.1077C37.7285 21.123 37.7197 21.1368 37.7083 21.1483C37.6968 21.1597 37.6829 21.1685 37.6677 21.174C37.6524 21.1795 37.6361 21.1815 37.62 21.18H35.49C35.4734 21.1814 35.4567 21.1793 35.441 21.1739C35.4253 21.1685 35.4108 21.1599 35.3986 21.1486C35.3864 21.1373 35.3766 21.1236 35.37 21.1084C35.3633 21.0931 35.3599 21.0766 35.36 21.06V3.71Z" fill="#1E2B3C"/>
<path d="M60.1 14.87C60.1 15.43 60.04 15.71 59.92 15.71H50.79C50.71 15.71 50.67 15.71 50.67 15.85C50.6629 16.3145 50.7504 16.7755 50.9274 17.205C51.1043 17.6345 51.3668 18.0235 51.699 18.3482C52.0312 18.6729 52.4261 18.9265 52.8595 19.0936C53.2929 19.2607 53.7558 19.3377 54.22 19.32C54.8629 19.3698 55.5063 19.2306 56.0713 18.9198C56.6362 18.6089 57.098 18.1397 57.4 17.57C57.4106 17.5357 57.4317 17.5055 57.4605 17.484C57.4892 17.4624 57.5241 17.4505 57.56 17.45H59.62C59.7067 17.45 59.7467 17.49 59.74 17.57C59.4586 18.7417 58.744 19.7635 57.74 20.43C56.6798 21.1276 55.4283 21.4772 54.16 21.43C53.3683 21.4528 52.5811 21.3036 51.8526 20.9929C51.1241 20.6821 50.4716 20.2172 49.94 19.63C48.8247 18.2945 48.2534 16.5878 48.34 14.85C48.2532 13.1299 48.7973 11.4374 49.87 10.09C50.4265 9.48078 51.1123 9.00382 51.8772 8.69409C52.642 8.38435 53.4664 8.2497 54.29 8.3C55.1065 8.24711 55.9243 8.3808 56.6815 8.69094C57.4386 9.00108 58.1152 9.47952 58.66 10.09C59.7141 11.4529 60.243 13.1495 60.15 14.87H60.1ZM57.77 13.72C57.7614 12.8799 57.4447 12.0721 56.88 11.45C56.1728 10.7797 55.2309 10.4136 54.2566 10.4304C53.2824 10.4472 52.3536 10.8457 51.67 11.54C51.0767 12.1167 50.7201 12.8941 50.67 13.72C50.67 13.81 50.67 13.85 50.79 13.85H57.6C57.68 13.85 57.72 13.85 57.72 13.72" fill="#1E2B3C"/>
<path d="M65.75 3.71001V21.07C65.7515 21.0862 65.7495 21.1024 65.744 21.1177C65.7385 21.133 65.7297 21.1468 65.7183 21.1583C65.7068 21.1698 65.693 21.1786 65.6777 21.184C65.6624 21.1895 65.6461 21.1916 65.63 21.19H63.51C63.4929 21.1914 63.4757 21.1893 63.4594 21.184C63.4431 21.1787 63.4281 21.1703 63.415 21.1591C63.402 21.148 63.3914 21.1344 63.3836 21.1191C63.3759 21.1038 63.3713 21.0871 63.37 21.07V3.71001C63.37 3.63001 63.37 3.59001 63.51 3.59001H65.63C65.6461 3.58846 65.6624 3.5905 65.6777 3.59599C65.693 3.60147 65.7068 3.61026 65.7183 3.62173C65.7297 3.63319 65.7385 3.64706 65.744 3.66232C65.7495 3.67758 65.7515 3.69387 65.75 3.71001Z" fill="#1E2B3C"/>
<path d="M71.75 3.71001V21.07C71.7515 21.0862 71.7495 21.1024 71.744 21.1177C71.7385 21.133 71.7297 21.1468 71.7183 21.1583C71.7068 21.1698 71.693 21.1786 71.6777 21.184C71.6624 21.1895 71.6461 21.1916 71.63 21.19H69.5C69.42 21.19 69.37 21.19 69.37 21.07V3.71001C69.37 3.63001 69.37 3.59001 69.5 3.59001H71.63C71.6461 3.58846 71.6624 3.5905 71.6777 3.59599C71.693 3.60147 71.7068 3.61026 71.7183 3.62173C71.7297 3.63319 71.7385 3.64706 71.744 3.66232C71.7495 3.67758 71.7515 3.69387 71.75 3.71001Z" fill="#1E2B3C"/>
<path d="M86.58 14.87C86.58 15.43 86.52 15.71 86.4 15.71H77.26C77.18 15.71 77.14 15.71 77.14 15.85C77.1357 16.3145 77.2255 16.7752 77.404 17.204C77.5825 17.6329 77.8461 18.0212 78.1788 18.3455C78.5114 18.6698 78.9063 18.9233 79.3397 19.0908C79.773 19.2583 80.2357 19.3362 80.7 19.32C81.3429 19.3698 81.9864 19.2307 82.5513 18.9198C83.1162 18.6089 83.578 18.1397 83.88 17.57C83.8891 17.5348 83.9099 17.5037 83.939 17.4819C83.968 17.4601 84.0037 17.4489 84.04 17.45H86.1C86.1933 17.45 86.2333 17.49 86.22 17.57C85.9385 18.7417 85.224 19.7635 84.22 20.43C83.1589 21.1258 81.9081 21.4752 80.64 21.43C79.8325 21.4655 79.0272 21.3216 78.2819 21.0086C77.5367 20.6956 76.8701 20.2214 76.33 19.62C75.212 18.2855 74.6372 16.579 74.72 14.84C74.636 13.1187 75.1837 11.4259 76.26 10.08C76.815 9.47157 77.4991 8.99503 78.2622 8.6853C79.0253 8.37557 79.848 8.24051 80.67 8.29001C81.4881 8.23631 82.3076 8.36959 83.0665 8.67973C83.8254 8.98987 84.5037 9.46873 85.05 10.08C86.1041 11.4429 86.633 13.1395 86.54 14.86L86.58 14.87ZM84.16 13.71C84.1514 12.8699 83.8347 12.0621 83.27 11.44C82.5628 10.7697 81.6209 10.4036 80.6466 10.4204C79.6724 10.4372 78.7436 10.8357 78.06 11.53C77.4683 12.1078 77.1119 12.8846 77.06 13.71C77.06 13.8 77.06 13.84 77.18 13.84H84C84.08 13.84 84.12 13.84 84.12 13.71" fill="#1E2B3C"/>
<path d="M99.85 12.82H97.7C97.6839 12.8216 97.6676 12.8195 97.6523 12.814C97.637 12.8086 97.6232 12.7998 97.6117 12.7883C97.6002 12.7768 97.5914 12.763 97.586 12.7477C97.5805 12.7324 97.5784 12.7162 97.58 12.7C97.59 12.3769 97.5215 12.0562 97.3804 11.7654C97.2394 11.4745 97.0299 11.2222 96.77 11.03C96.1133 10.5884 95.33 10.3741 94.54 10.42C93.8091 10.3682 93.079 10.5316 92.44 10.89C92.241 11.0022 92.0735 11.1627 91.9529 11.3567C91.8323 11.5507 91.7625 11.7719 91.75 12C91.7296 12.1577 91.7471 12.3179 91.801 12.4675C91.8549 12.6171 91.9437 12.7516 92.06 12.86C92.2387 13.001 92.4257 13.1313 92.62 13.25C93.4194 13.4751 94.2409 13.6126 95.07 13.66C96.213 13.7584 97.337 14.0141 98.41 14.42C99.0048 14.6527 99.5098 15.0691 99.8515 15.6087C100.193 16.1483 100.354 16.7828 100.31 17.42C100.354 18.0225 100.237 18.6259 99.9717 19.1686C99.7064 19.7114 99.3022 20.1742 98.8 20.51C97.5585 21.2321 96.1345 21.5794 94.7 21.51C93.2339 21.5981 91.7852 21.1543 90.62 20.26C90.1551 19.8804 89.7816 19.4011 89.5271 18.8576C89.2726 18.314 89.1438 17.7202 89.15 17.12C89.1485 17.1026 89.1508 17.085 89.1568 17.0685C89.1628 17.052 89.1723 17.0371 89.1847 17.0247C89.1971 17.0123 89.212 17.0028 89.2285 16.9968C89.245 16.9908 89.2625 16.9885 89.28 16.99H91.39C91.49 16.99 91.53 16.99 91.53 17.12C91.532 17.4439 91.6156 17.762 91.7728 18.0451C91.9301 18.3282 92.1561 18.5672 92.43 18.74C93.135 19.202 93.968 19.4295 94.81 19.39C96.89 19.39 97.93 18.75 97.93 17.49C97.9364 17.3433 97.9132 17.1969 97.8616 17.0594C97.8101 16.9219 97.7313 16.7963 97.63 16.69C97.4525 16.5065 97.2377 16.3632 97 16.27L96.55 16.11C96.3957 16.0686 96.2386 16.0385 96.08 16.02L95.44 15.91C95.2325 15.8693 95.0215 15.8492 94.81 15.85C93.5546 15.7437 92.3251 15.433 91.17 14.93C90.4707 14.6002 89.911 14.0334 89.59 13.33C89.4448 12.9016 89.3705 12.4524 89.37 12C89.3721 11.477 89.5016 10.9624 89.7473 10.5007C89.993 10.0389 90.3474 9.644 90.78 9.35002C91.8747 8.58221 93.1946 8.2021 94.53 8.27002C95.9161 8.21703 97.2817 8.61724 98.42 9.41002C98.9253 9.79029 99.3285 10.2898 99.5938 10.8639C99.859 11.4379 99.9779 12.0688 99.94 12.7C99.94 12.78 99.94 12.82 99.83 12.82" fill="#1E2B3C"/>
<path d="M120.3 21.2H118.42C118.42 21.2 118.33 21.15 118.29 21.07L118.04 20.07C118.04 19.93 117.91 19.91 117.79 20.02C116.791 20.8764 115.535 21.376 114.22 21.44C113.408 21.4765 112.598 21.3331 111.848 21.0202C111.097 20.7074 110.426 20.2326 109.88 19.63C108.763 18.3026 108.188 16.6028 108.27 14.87C108.187 13.1371 108.762 11.4369 109.88 10.11C110.428 9.50935 111.1 9.03535 111.849 8.72102C112.599 8.40669 113.408 8.2596 114.22 8.29C114.976 8.28876 115.723 8.46335 116.4 8.8C116.913 9.02059 117.383 9.3285 117.79 9.71C117.86 9.78 117.91 9.8 117.96 9.77C117.983 9.76191 118.003 9.74707 118.017 9.72742C118.031 9.70778 118.039 9.68427 118.04 9.66V3.72C118.04 3.63 118.04 3.59 118.17 3.59H120.3C120.38 3.59 120.42 3.59 120.42 3.72V21.07C120.42 21.15 120.42 21.2 120.3 21.2ZM110.65 14.87C110.591 16.0249 110.945 17.163 111.65 18.08C111.983 18.4838 112.404 18.8056 112.88 19.0206C113.357 19.2356 113.877 19.3381 114.4 19.32C114.912 19.3432 115.423 19.2438 115.889 19.0298C116.355 18.8159 116.764 18.4936 117.08 18.09C117.747 17.153 118.078 16.0185 118.02 14.87C118.074 13.7188 117.743 12.5824 117.08 11.64C116.767 11.2358 116.36 10.9136 115.895 10.7011C115.43 10.4886 114.921 10.3922 114.41 10.42C113.887 10.3987 113.367 10.4976 112.888 10.7091C112.41 10.9206 111.986 11.2391 111.65 11.64C110.947 12.5655 110.593 13.7092 110.65 14.87Z" fill="#1E2B3C"/>
<path d="M136.63 19.19V21.07C136.63 21.15 136.63 21.2 136.51 21.2H135.6C134.32 21.2 133.5 20.83 133.14 20.05C133.14 19.92 133.01 19.9 132.91 20C132.42 20.4496 131.841 20.7904 131.21 21C130.338 21.3098 129.415 21.4555 128.49 21.43C127.153 21.5242 125.827 21.1376 124.75 20.34C124.332 19.9971 123.998 19.5626 123.774 19.0702C123.551 18.5778 123.443 18.0406 123.46 17.5C123.445 16.9517 123.567 16.4083 123.813 15.9181C124.058 15.4279 124.422 15.006 124.87 14.69C126.082 13.9193 127.507 13.5549 128.94 13.65H131.74C132.21 13.65 132.48 13.53 132.55 13.3C132.568 13.057 132.568 12.813 132.55 12.57C132.513 12.0692 132.325 11.5915 132.01 11.2C131.65 10.69 130.75 10.42 129.3 10.4C128.486 10.3332 127.675 10.5564 127.01 11.03C126.763 11.2307 126.566 11.486 126.434 11.7757C126.302 12.0655 126.239 12.3818 126.25 12.7C126.25 12.78 126.25 12.82 126.12 12.82H123.99C123.974 12.8215 123.958 12.8195 123.942 12.814C123.927 12.8085 123.913 12.7997 123.902 12.7883C123.89 12.7768 123.881 12.7629 123.876 12.7477C123.87 12.7324 123.868 12.7161 123.87 12.7C123.842 12.0685 123.973 11.4402 124.251 10.8724C124.529 10.3046 124.944 9.81558 125.46 9.44999C126.641 8.65754 128.039 8.25213 129.46 8.28999C130.872 8.21402 132.266 8.63506 133.4 9.47999C133.911 9.89216 134.318 10.4198 134.585 11.0196C134.853 11.6194 134.975 12.2741 134.94 12.93V17.83C134.905 18.1747 134.971 18.5223 135.13 18.83C135.26 19.02 135.55 19.12 136 19.12H136.48C136.496 19.1184 136.512 19.1205 136.528 19.126C136.543 19.1315 136.557 19.1402 136.568 19.1517C136.58 19.1632 136.589 19.177 136.594 19.1923C136.6 19.2076 136.602 19.2239 136.6 19.24L136.63 19.19ZM132.6 15.69C132.6 15.61 132.55 15.57 132.46 15.57H128.94C128.076 15.5232 127.217 15.7319 126.47 16.17C126.268 16.3252 126.105 16.5253 125.994 16.7544C125.883 16.9836 125.827 17.2354 125.83 17.49C125.827 17.7439 125.882 17.9952 125.989 18.2253C126.096 18.4555 126.254 18.6587 126.45 18.82C127.03 19.2353 127.739 19.4303 128.45 19.37C129.568 19.4529 130.674 19.0938 131.53 18.37C131.853 18.0674 132.112 17.704 132.294 17.3007C132.476 16.8974 132.577 16.4622 132.59 16.02L132.6 15.69Z" fill="#1E2B3C"/>
<path d="M145.53 19.19V21.07C145.532 21.0884 145.529 21.107 145.523 21.1243C145.516 21.1416 145.506 21.1571 145.492 21.1697C145.479 21.1823 145.462 21.1916 145.445 21.1968C145.427 21.2021 145.408 21.2032 145.39 21.2H143.48C141.29 21.2 140.2 20.26 140.19 18.2V10.55C140.19 10.47 140.19 10.42 140.07 10.42H137.85C137.77 10.42 137.73 10.42 137.73 10.29V8.67001C137.728 8.65387 137.73 8.63758 137.736 8.62232C137.741 8.60706 137.75 8.5932 137.762 8.58173C137.773 8.57026 137.787 8.56147 137.802 8.55599C137.818 8.55051 137.834 8.54847 137.85 8.55001H140.07C140.15 8.55001 140.19 8.55001 140.19 8.41001V5.05001C140.19 4.96001 140.24 4.92001 140.33 4.92001H142.45C142.53 4.92001 142.57 4.92001 142.57 5.05001V8.41001C142.567 8.42736 142.568 8.44514 142.573 8.4621C142.577 8.47905 142.586 8.49476 142.597 8.50812C142.609 8.52148 142.623 8.53216 142.639 8.5394C142.655 8.54663 142.672 8.55026 142.69 8.55001H145.39C145.407 8.54865 145.424 8.55067 145.441 8.55597C145.457 8.56128 145.472 8.56975 145.485 8.5809C145.498 8.59205 145.509 8.60566 145.516 8.62096C145.524 8.63625 145.529 8.65292 145.53 8.67001V10.29C145.53 10.38 145.48 10.42 145.39 10.42H142.69C142.61 10.42 142.57 10.42 142.57 10.55V17.83C142.57 18.66 143.02 19.07 143.93 19.07H145.39C145.48 19.07 145.53 19.07 145.53 19.19Z" fill="#1E2B3C"/>
<path d="M160.52 19.19V21.07C160.522 21.0875 160.519 21.105 160.513 21.1215C160.507 21.138 160.498 21.1529 160.485 21.1653C160.473 21.1777 160.458 21.1872 160.441 21.1932C160.425 21.1992 160.407 21.2015 160.39 21.2H159.49C158.21 21.2 157.39 20.83 157.03 20.05C156.98 19.92 156.9 19.9 156.8 20C156.31 20.4496 155.731 20.7904 155.1 21C154.224 21.3105 153.299 21.4563 152.37 21.43C151.036 21.5244 149.713 21.1377 148.64 20.34C148.222 19.9971 147.888 19.5626 147.664 19.0702C147.441 18.5778 147.333 18.0406 147.35 17.5C147.335 16.9517 147.457 16.4084 147.703 15.9181C147.948 15.4279 148.312 15.0061 148.76 14.69C149.973 13.9137 151.403 13.5458 152.84 13.64H155.64C156.11 13.64 156.38 13.52 156.45 13.29C156.468 13.047 156.468 12.803 156.45 12.56C156.413 12.0592 156.225 11.5815 155.91 11.19C155.55 10.68 154.65 10.41 153.2 10.39C152.386 10.3232 151.575 10.5464 150.91 11.02C150.663 11.2207 150.466 11.476 150.334 11.7657C150.202 12.0555 150.139 12.3719 150.15 12.69C150.15 12.77 150.1 12.81 150.01 12.81H147.94C147.924 12.8116 147.908 12.8095 147.892 12.804C147.877 12.7986 147.863 12.7898 147.852 12.7783C147.84 12.7668 147.831 12.753 147.826 12.7377C147.82 12.7224 147.818 12.7062 147.82 12.69C147.792 12.0586 147.923 11.4302 148.201 10.8624C148.479 10.2947 148.894 9.8056 149.41 9.44001C150.591 8.64756 151.989 8.24215 153.41 8.28001C154.822 8.20404 156.216 8.62508 157.35 9.47002C157.857 9.88627 158.259 10.4169 158.521 11.0184C158.784 11.6198 158.9 12.275 158.86 12.93V17.83C158.825 18.1747 158.891 18.5223 159.05 18.83C159.18 19.02 159.47 19.12 159.92 19.12H160.4C160.416 19.1185 160.432 19.1205 160.448 19.126C160.463 19.1315 160.477 19.1403 160.488 19.1517C160.5 19.1632 160.509 19.1771 160.514 19.1923C160.519 19.2076 160.522 19.2239 160.52 19.24V19.19ZM156.52 15.69C156.52 15.61 156.52 15.57 156.38 15.57H152.88C152.016 15.5233 151.157 15.7319 150.41 16.17C150.208 16.3253 150.045 16.5254 149.934 16.7545C149.823 16.9836 149.767 17.2354 149.77 17.49C149.768 17.7429 149.821 17.9932 149.927 18.2231C150.032 18.453 150.187 18.6568 150.38 18.82C150.96 19.2353 151.669 19.4303 152.38 19.37C153.501 19.4545 154.611 19.0954 155.47 18.37C155.793 18.0674 156.052 17.704 156.234 17.3007C156.416 16.8974 156.517 16.4622 156.53 16.02L156.52 15.69Z" fill="#1E2B3C"/>
<path d="M174.79 21.2H172.54C172.494 21.1989 172.449 21.1865 172.409 21.1638C172.369 21.1411 172.335 21.1089 172.31 21.07L168.31 14.25C168.257 14.1767 168.197 14.1767 168.13 14.25L165.28 16.69C165.262 16.7418 165.262 16.7982 165.28 16.85V21.07C165.282 21.0884 165.279 21.107 165.273 21.1243C165.266 21.1416 165.256 21.1571 165.242 21.1697C165.229 21.1823 165.212 21.1916 165.195 21.1968C165.177 21.2021 165.158 21.2032 165.14 21.2H163.02C163.003 21.2015 162.985 21.1992 162.968 21.1932C162.952 21.1872 162.937 21.1777 162.925 21.1653C162.912 21.1529 162.903 21.138 162.897 21.1215C162.891 21.105 162.888 21.0875 162.89 21.07V3.72C162.888 3.70254 162.891 3.68496 162.897 3.66849C162.903 3.65203 162.912 3.63708 162.925 3.62469C162.937 3.6123 162.952 3.60277 162.968 3.59678C162.985 3.59078 163.003 3.58847 163.02 3.59H165.14C165.158 3.58861 165.176 3.59095 165.193 3.59687C165.21 3.60278 165.225 3.61213 165.238 3.62435C165.252 3.63656 165.262 3.65136 165.269 3.66782C165.276 3.68428 165.28 3.70205 165.28 3.72V13.52C165.28 13.52 165.28 13.57 165.34 13.59C165.356 13.6022 165.375 13.6088 165.395 13.6088C165.415 13.6088 165.434 13.6022 165.45 13.59L171.2 8.69C171.305 8.60626 171.436 8.56359 171.57 8.57H174.65C174.665 8.5708 174.68 8.57593 174.692 8.58479C174.705 8.59364 174.714 8.60586 174.72 8.61999C174.72 8.61999 174.72 8.67 174.72 8.69L170.07 12.69C170.02 12.69 170.02 12.8 170.07 12.88L174.89 21.13C174.94 21.21 174.89 21.26 174.8 21.26" fill="#1E2B3C"/>
<path d="M189.73 19.19V21.07C189.73 21.15 189.73 21.2 189.61 21.2H188.7C187.42 21.2 186.6 20.83 186.24 20.05C186.19 19.92 186.11 19.9 186.01 20C185.52 20.4496 184.941 20.7904 184.31 21C183.438 21.3098 182.515 21.4555 181.59 21.43C180.253 21.5242 178.927 21.1376 177.85 20.34C177.432 19.9971 177.098 19.5626 176.874 19.0702C176.651 18.5778 176.543 18.0406 176.56 17.5C176.544 16.956 176.661 16.4164 176.902 15.9283C177.142 15.4401 177.499 15.0184 177.94 14.7C179.153 13.9237 180.583 13.5557 182.02 13.65H184.82C185.29 13.65 185.56 13.53 185.63 13.3C185.648 13.057 185.648 12.813 185.63 12.57C185.593 12.0692 185.405 11.5915 185.09 11.2C184.73 10.69 183.83 10.42 182.38 10.4C181.566 10.3332 180.755 10.5564 180.09 11.03C179.843 11.2307 179.646 11.486 179.514 11.7757C179.382 12.0655 179.319 12.3818 179.33 12.7C179.33 12.78 179.33 12.82 179.2 12.82H177.07C177.054 12.8215 177.038 12.8195 177.022 12.814C177.007 12.8085 176.993 12.7997 176.982 12.7883C176.97 12.7768 176.961 12.7629 176.956 12.7477C176.951 12.7324 176.948 12.7161 176.95 12.7C176.922 12.0685 177.053 11.4402 177.331 10.8724C177.609 10.3046 178.024 9.81558 178.54 9.44999C179.721 8.65754 181.119 8.25213 182.54 8.28999C183.952 8.21402 185.346 8.63506 186.48 9.47999C187.001 9.88695 187.416 10.4123 187.693 11.0124C187.969 11.6125 188.099 12.2699 188.07 12.93V17.83C188.035 18.1747 188.101 18.5223 188.26 18.83C188.39 19.02 188.68 19.12 189.13 19.12H189.61C189.626 19.1184 189.642 19.1205 189.658 19.126C189.673 19.1315 189.687 19.1402 189.698 19.1517C189.71 19.1632 189.719 19.177 189.724 19.1923C189.73 19.2076 189.732 19.2239 189.73 19.24V19.19ZM185.73 15.69C185.73 15.61 185.68 15.57 185.59 15.57H182.09C181.226 15.5232 180.367 15.7319 179.62 16.17C179.418 16.3252 179.255 16.5253 179.144 16.7544C179.033 16.9836 178.977 17.2354 178.98 17.49C178.977 17.7439 179.032 17.9952 179.139 18.2253C179.246 18.4555 179.404 18.6587 179.6 18.82C180.18 19.2353 180.889 19.4303 181.6 19.37C182.718 19.4529 183.824 19.0938 184.68 18.37C185.003 18.0674 185.262 17.704 185.444 17.3007C185.626 16.8974 185.727 16.4622 185.74 16.02L185.73 15.69Z" fill="#1E2B3C"/>
<path d="M198.63 19.19V21.07C198.632 21.0884 198.629 21.107 198.623 21.1243C198.616 21.1416 198.606 21.1571 198.592 21.1697C198.579 21.1823 198.562 21.1916 198.545 21.1968C198.527 21.2021 198.508 21.2032 198.49 21.2H196.58C194.4 21.2 193.3 20.26 193.29 18.2V10.55C193.29 10.47 193.29 10.42 193.17 10.42H190.94C190.86 10.42 190.82 10.42 190.82 10.29V8.67001C190.818 8.65387 190.82 8.63758 190.826 8.62232C190.831 8.60706 190.84 8.5932 190.852 8.58173C190.863 8.57026 190.877 8.56147 190.892 8.55599C190.908 8.55051 190.924 8.54847 190.94 8.55001H193.16C193.24 8.55001 193.28 8.55001 193.28 8.41001V5.05001C193.28 4.96001 193.33 4.92001 193.42 4.92001H195.54C195.62 4.92001 195.66 4.92001 195.66 5.05001V8.41001C195.66 8.50001 195.66 8.54001 195.79 8.55001H198.48C198.497 8.54865 198.514 8.55067 198.531 8.55597C198.547 8.56128 198.562 8.56975 198.575 8.5809C198.588 8.59205 198.599 8.60566 198.606 8.62096C198.614 8.63625 198.619 8.65292 198.62 8.67001V10.29C198.62 10.38 198.57 10.42 198.48 10.42H195.79C195.7 10.42 195.66 10.42 195.66 10.55V17.83C195.66 18.66 196.12 19.07 197.02 19.07H198.48C198.57 19.07 198.62 19.07 198.62 19.19" fill="#1E2B3C"/>
<path d="M213.62 19.19V21.07C213.622 21.0875 213.619 21.105 213.613 21.1215C213.607 21.138 213.598 21.1529 213.585 21.1653C213.573 21.1777 213.558 21.1872 213.542 21.1932C213.525 21.1992 213.507 21.2015 213.49 21.2H212.59C211.31 21.2 210.49 20.83 210.13 20.05C210.08 19.92 210 19.9 209.9 20C209.41 20.4496 208.831 20.7904 208.2 21C207.324 21.3105 206.399 21.4563 205.47 21.43C204.136 21.5244 202.813 21.1377 201.74 20.34C201.322 19.9971 200.988 19.5626 200.764 19.0702C200.541 18.5778 200.433 18.0406 200.45 17.5C200.435 16.9517 200.557 16.4083 200.803 15.9181C201.048 15.4279 201.412 15.006 201.86 14.69C203.074 13.9172 204.504 13.5528 205.94 13.65H208.74C209.21 13.65 209.48 13.53 209.55 13.3C209.568 13.057 209.568 12.813 209.55 12.57C209.513 12.0692 209.325 11.5915 209.01 11.2C208.65 10.69 207.75 10.42 206.3 10.4C205.486 10.3332 204.675 10.5564 204.01 11.03C203.763 11.2307 203.566 11.486 203.434 11.7757C203.302 12.0655 203.239 12.3818 203.25 12.7C203.25 12.78 203.2 12.82 203.11 12.82H200.99C200.974 12.8215 200.958 12.8195 200.942 12.814C200.927 12.8085 200.913 12.7997 200.902 12.7883C200.89 12.7768 200.881 12.7629 200.876 12.7477C200.87 12.7324 200.868 12.7161 200.87 12.7C200.842 12.0685 200.973 11.4402 201.251 10.8724C201.529 10.3046 201.944 9.81558 202.46 9.44999C203.641 8.65754 205.039 8.25213 206.46 8.28999C207.872 8.21402 209.266 8.63506 210.4 9.47999C210.911 9.89216 211.318 10.4198 211.585 11.0196C211.853 11.6194 211.975 12.2741 211.94 12.93V17.83C211.905 18.1747 211.971 18.5223 212.13 18.83C212.26 19.02 212.55 19.12 213 19.12H213.48C213.496 19.1184 213.512 19.1205 213.528 19.126C213.543 19.1315 213.557 19.1402 213.568 19.1517C213.58 19.1632 213.589 19.177 213.594 19.1923C213.6 19.2076 213.602 19.2239 213.6 19.24L213.62 19.19ZM209.6 15.69C209.6 15.61 209.6 15.57 209.46 15.57H205.94C205.076 15.5232 204.217 15.7319 203.47 16.17C203.268 16.3252 203.105 16.5253 202.994 16.7544C202.883 16.9836 202.827 17.2354 202.83 17.49C202.828 17.7429 202.881 17.9932 202.987 18.2231C203.092 18.453 203.247 18.6568 203.44 18.82C204.02 19.2353 204.729 19.4303 205.44 19.37C206.561 19.4545 207.671 19.0954 208.53 18.37C208.853 18.0674 209.112 17.704 209.294 17.3007C209.476 16.8974 209.577 16.4622 209.59 16.02L209.6 15.69Z" fill="#1E2B3C"/>
<path d="M218.44 3.71001V21.07C218.442 21.0862 218.44 21.1024 218.434 21.1177C218.429 21.133 218.42 21.1468 218.408 21.1583C218.397 21.1698 218.383 21.1786 218.368 21.184C218.352 21.1895 218.336 21.1916 218.32 21.19H216.19C216.173 21.1914 216.157 21.1893 216.141 21.1839C216.125 21.1785 216.111 21.1699 216.099 21.1586C216.086 21.1473 216.077 21.1336 216.07 21.1184C216.063 21.1031 216.06 21.0866 216.06 21.07V3.71001C216.06 3.63001 216.06 3.59001 216.19 3.59001H218.32C218.336 3.58846 218.352 3.5905 218.368 3.59599C218.383 3.60147 218.397 3.61026 218.408 3.62173C218.42 3.63319 218.429 3.64706 218.434 3.66232C218.44 3.67758 218.442 3.69387 218.44 3.71001Z" fill="#1E2B3C"/>
<path d="M233.86 14.87C233.945 16.6149 233.35 18.3247 232.2 19.64C231.613 20.2488 230.902 20.7246 230.115 21.0351C229.329 21.3457 228.485 21.4837 227.64 21.44C226.798 21.4848 225.957 21.3471 225.173 21.0364C224.39 20.7258 223.682 20.2494 223.1 19.64C221.954 18.3232 221.362 16.6136 221.45 14.87C221.365 13.1268 221.956 11.4179 223.1 10.1C223.682 9.4906 224.39 9.01425 225.173 8.70358C225.957 8.3929 226.798 8.25523 227.64 8.30001C228.484 8.25632 229.327 8.39342 230.113 8.70213C230.9 9.01084 231.611 9.48403 232.2 10.09C233.347 11.411 233.941 13.1226 233.86 14.87ZM230.45 18.08C231.154 17.1626 231.508 16.0248 231.45 14.87C231.508 13.7152 231.154 12.5774 230.45 11.66C230.113 11.2545 229.686 10.9325 229.204 10.7191C228.722 10.5058 228.197 10.4068 227.67 10.43C227.141 10.4085 226.615 10.5072 226.13 10.7185C225.645 10.9298 225.214 11.2483 224.87 11.65C224.164 12.57 223.809 13.7118 223.87 14.87C223.807 16.0253 224.162 17.1647 224.87 18.08C225.212 18.4847 225.642 18.8059 226.128 19.0191C226.613 19.2322 227.14 19.3317 227.67 19.31C228.197 19.3332 228.722 19.2342 229.204 19.0209C229.686 18.8075 230.113 18.4855 230.45 18.08Z" fill="#1E2B3C"/>
<path d="M242.1 24.27C242.596 24.3181 243.097 24.2532 243.565 24.08C244.032 23.9068 244.455 23.6299 244.8 23.27C245.379 22.5642 245.681 21.6721 245.65 20.76V20.08C245.65 20.03 245.65 20 245.56 19.97C245.532 19.9616 245.502 19.963 245.475 19.9739C245.447 19.9848 245.425 20.0045 245.41 20.03C245.024 20.4358 244.557 20.756 244.04 20.97C243.352 21.307 242.596 21.4815 241.83 21.48C241.03 21.5001 240.235 21.347 239.5 21.0311C238.764 20.7153 238.106 20.2441 237.57 19.65C236.414 18.3366 235.809 16.6282 235.88 14.88C235.802 13.1569 236.377 11.4677 237.49 10.15C238.038 9.54935 238.71 9.07534 239.459 8.76101C240.209 8.44669 241.018 8.29959 241.83 8.32999C242.519 8.33841 243.199 8.48462 243.83 8.75999C244.432 8.97983 244.984 9.32008 245.45 9.75999C245.563 9.86666 245.643 9.86666 245.69 9.75999L245.95 8.75999C245.95 8.67999 245.99 8.63999 246.07 8.63999H247.94C247.956 8.63844 247.972 8.64048 247.988 8.64597C248.003 8.65145 248.017 8.66024 248.028 8.67171C248.04 8.68317 248.049 8.69704 248.054 8.7123C248.06 8.72756 248.062 8.74385 248.06 8.75999V20.76C248.088 21.52 247.956 22.2774 247.674 22.9835C247.391 23.6896 246.964 24.3288 246.42 24.86C245.879 25.3814 245.24 25.7897 244.539 26.061C243.839 26.3322 243.091 26.4611 242.34 26.44C240.909 26.4962 239.496 26.1122 238.29 25.34C237.819 25.0624 237.416 24.6815 237.113 24.226C236.81 23.7704 236.614 23.2521 236.54 22.71C236.538 22.6938 236.54 22.6776 236.546 22.6623C236.551 22.647 236.56 22.6332 236.572 22.6217C236.583 22.6102 236.597 22.6014 236.612 22.596C236.628 22.5905 236.644 22.5884 236.66 22.59H238.84C238.84 22.59 238.93 22.59 238.96 22.71C239.164 23.1739 239.515 23.5573 239.96 23.8C240.62 24.1722 241.373 24.349 242.13 24.31L242.1 24.27ZM238.29 14.91C238.226 16.0654 238.581 17.2051 239.29 18.12C239.62 18.5241 240.039 18.8464 240.514 19.0615C240.99 19.2767 241.509 19.3788 242.03 19.36C242.541 19.3833 243.05 19.2837 243.515 19.0697C243.979 18.8557 244.386 18.5335 244.7 18.13C245.387 17.2003 245.74 16.0654 245.7 14.91C245.741 13.7513 245.389 12.6127 244.7 11.68C244.385 11.2777 243.978 10.9569 243.514 10.7446C243.049 10.5323 242.54 10.4347 242.03 10.46C241.51 10.4372 240.992 10.5356 240.516 10.7473C240.041 10.959 239.621 11.2783 239.29 11.68C238.583 12.6035 238.229 13.7487 238.29 14.91Z" fill="#1E2B3C"/>
</g>
<defs>
<clipPath id="clip0_1_573">
<rect width="248.03" height="26.4" fill="white"/>
</clipPath>
</defs>
</svg>
