<svg width="147" height="27" viewBox="0 0 147 27" fill="none" xmlns="http://www.w3.org/2000/svg">
<g clip-path="url(#clip0_1_291)">
<path d="M12.67 0H0.5C0.368193 0.00256007 0.242499 0.0560606 0.14928 0.14928C0.0560606 0.242499 0.00256007 0.368193 0 0.5V24.23C0 24.3626 0.0526785 24.4898 0.146447 24.5836C0.240215 24.6773 0.367392 24.73 0.5 24.73H12.67C15.8885 24.6385 18.9445 23.2956 21.1887 20.9867C23.4329 18.6778 24.6883 15.5848 24.6883 12.365C24.6883 9.14517 23.4329 6.05222 21.1887 3.74332C18.9445 1.43442 15.8885 0.0915386 12.67 0ZM13.86 21C12.0187 21.3169 10.1242 21.0395 8.45107 20.2079C6.77789 19.3764 5.4128 18.0339 4.55347 16.3748C3.69414 14.7158 3.38516 12.8263 3.67129 10.9799C3.95741 9.1335 4.82378 7.42612 6.14495 6.10495C7.46612 4.78378 9.1735 3.91741 11.0199 3.63129C12.8663 3.34516 14.7558 3.65414 16.4148 4.51347C18.0739 5.3728 19.4164 6.73789 20.2479 8.41107C21.0795 10.0842 21.3569 11.9787 21.04 13.82C20.7316 15.6119 19.8757 17.2643 18.59 18.55C17.3043 19.8357 15.6519 20.6916 13.86 21Z" fill="#0062B8"/>
<path d="M35.48 3.59999H37.61C37.6266 3.5986 37.6433 3.60068 37.659 3.60609C37.6747 3.61149 37.6892 3.62011 37.7014 3.6314C37.7136 3.64268 37.7234 3.65638 37.73 3.67163C37.7367 3.68689 37.7401 3.70335 37.74 3.71999V21.08C37.7415 21.0974 37.7392 21.115 37.7332 21.1315C37.7272 21.148 37.7177 21.1629 37.7053 21.1753C37.6929 21.1877 37.678 21.1972 37.6615 21.2032C37.645 21.2092 37.6275 21.2115 37.61 21.21H35.48C35.4 21.21 35.36 21.16 35.36 21.08V3.71999C35.3585 3.70385 35.3605 3.68756 35.366 3.6723C35.3715 3.65703 35.3803 3.64317 35.3917 3.63171C35.4032 3.62024 35.417 3.61145 35.4323 3.60596C35.4476 3.60048 35.4639 3.59844 35.48 3.59999Z" fill="#1E2B3C"/>
<path d="M41.28 3.72001C41.2785 3.70386 41.2805 3.68758 41.286 3.67231C41.2915 3.65705 41.3003 3.64319 41.3117 3.63172C41.3232 3.62026 41.3371 3.61146 41.3523 3.60598C41.3676 3.6005 41.3839 3.59846 41.4 3.60001H47.8C48.8886 3.53887 49.9766 3.72997 50.9791 4.15841C51.9817 4.58685 52.8718 5.24105 53.58 6.07001C54.9901 7.94185 55.6979 10.2495 55.58 12.59C55.7144 14.8772 55.0025 17.1339 53.58 18.93C52.8456 19.7171 51.9446 20.3303 50.9429 20.7248C49.9411 21.1192 48.864 21.285 47.79 21.21H41.39C41.31 21.21 41.27 21.16 41.27 21.08L41.28 3.72001ZM47.86 5.72001H43.78C43.7 5.72001 43.66 5.72001 43.66 5.85001V18.94C43.6585 18.9562 43.6605 18.9724 43.666 18.9877C43.6715 19.003 43.6803 19.0168 43.6917 19.0283C43.7032 19.0398 43.7171 19.0485 43.7323 19.054C43.7476 19.0595 43.7639 19.0616 43.78 19.06H47.86C48.5991 19.1 49.3375 18.9703 50.0187 18.6808C50.6999 18.3913 51.3058 17.9498 51.79 17.39C52.8043 15.9961 53.2963 14.29 53.18 12.57C53.2717 10.7937 52.7762 9.03666 51.77 7.57001C51.3175 6.96728 50.725 6.48384 50.0438 6.16151C49.3625 5.83917 48.613 5.68764 47.86 5.72001Z" fill="#1E2B3C"/>
<path d="M67.83 16H60.01C59.94 16 59.94 15.94 59.94 15.94V14C59.9385 13.9839 59.9405 13.9676 59.946 13.9523C59.9515 13.9371 59.9603 13.9232 59.9717 13.9117C59.9832 13.9003 59.9971 13.8915 60.0123 13.886C60.0276 13.8805 60.0439 13.8785 60.06 13.88H67.88C67.8962 13.8785 67.9124 13.8805 67.9277 13.886C67.943 13.8915 67.9568 13.9003 67.9683 13.9117C67.9798 13.9232 67.9886 13.9371 67.994 13.9523C67.9995 13.9676 68.0016 13.9839 68 14V15.94C68 16.02 68 16.05 67.88 16.05" fill="#1E2B3C"/>
<path d="M72.78 8.56004H74.66C74.66 8.56004 74.74 8.56004 74.78 8.68004L75.03 9.68004C75.03 9.74004 75.11 9.78004 75.16 9.78004C75.1851 9.77787 75.2093 9.76939 75.2303 9.75541C75.2512 9.74143 75.2684 9.72239 75.28 9.70004C75.7255 9.25783 76.261 8.91676 76.85 8.70004C77.4827 8.42762 78.1615 8.27829 78.85 8.26004C79.6625 8.2276 80.4722 8.37376 81.2221 8.68821C81.9719 9.00267 82.6437 9.47778 83.19 10.08C84.3076 11.407 84.8827 13.1071 84.8 14.84C84.8817 16.5728 84.3068 18.2726 83.19 19.6C82.6441 20.2021 81.9721 20.6765 81.222 20.9893C80.4719 21.3022 79.662 21.4458 78.85 21.41C78.0969 21.4234 77.3508 21.2625 76.67 20.94C76.1592 20.7163 75.6894 20.4088 75.28 20.03C75.21 19.97 75.16 19.95 75.11 19.97C75.06 19.99 75.03 20.03 75.03 20.08V26.08C75.03 26.16 75.03 26.2 74.9 26.21H72.78C72.69 26.21 72.65 26.21 72.65 26.08V8.68004C72.65 8.60004 72.65 8.56004 72.78 8.56004ZM82.43 14.88C82.489 13.7221 82.1346 12.5809 81.43 11.66C81.0949 11.2573 80.6718 10.937 80.1932 10.7237C79.7147 10.5104 79.1936 10.41 78.67 10.43C78.1497 10.3931 77.6284 10.4851 77.1521 10.6979C76.6759 10.9107 76.2596 11.2378 75.94 11.65C75.2768 12.5925 74.9461 13.7289 75 14.88C74.9554 16.0361 75.3084 17.1726 76 18.1C76.3122 18.5028 76.7171 18.8241 77.1803 19.0365C77.6435 19.249 78.1511 19.3462 78.66 19.32C79.1832 19.3379 79.7037 19.2364 80.1818 19.0233C80.66 18.8102 81.0835 18.491 81.42 18.09C82.1231 17.1723 82.4775 16.0347 82.42 14.88" fill="#1E2B3C"/>
<path d="M99.5 14.88C99.5847 16.6249 98.9897 18.3348 97.84 19.65C96.6072 20.8066 94.9803 21.4503 93.29 21.4503C91.5996 21.4503 89.9727 20.8066 88.74 19.65C87.5938 18.3332 87.0025 16.6236 87.09 14.88C87.0046 13.1368 87.5957 11.4279 88.74 10.11C89.3228 9.50116 90.03 9.02517 90.8135 8.71453C91.597 8.4039 92.4383 8.26593 93.28 8.31003C94.1237 8.26634 94.967 8.40344 95.7535 8.71215C96.5399 9.02086 97.2513 9.49405 97.84 10.1C98.9867 11.421 99.5811 13.1326 99.5 14.88ZM96.09 18.09C96.7986 17.1752 97.1536 16.0355 97.09 14.88C97.1536 13.7246 96.7986 12.5849 96.09 11.67C95.7528 11.2646 95.3264 10.9425 94.8442 10.7292C94.3619 10.5158 93.8368 10.4168 93.31 10.44C92.7814 10.4186 92.2548 10.5172 91.7699 10.7285C91.2849 10.9398 90.8541 11.2583 90.51 11.66C89.8031 12.5796 89.4484 13.7218 89.51 14.88C89.4463 16.0355 89.8014 17.1752 90.51 18.09C90.8522 18.4947 91.2824 18.8159 91.7676 19.0291C92.2529 19.2423 92.7804 19.3418 93.31 19.32C93.8368 19.3432 94.3619 19.2443 94.8442 19.0309C95.3264 18.8175 95.7528 18.4955 96.09 18.09Z" fill="#1E2B3C"/>
<path d="M109.24 10.4299H107.94C107.48 10.4178 107.024 10.5116 106.606 10.704C106.188 10.8965 105.82 11.1825 105.53 11.5399C104.92 12.2927 104.603 13.2415 104.64 14.2099V21.0799C104.64 21.1599 104.64 21.1999 104.51 21.1999H102.38C102.364 21.2015 102.348 21.1995 102.332 21.194C102.317 21.1885 102.303 21.1797 102.292 21.1682C102.28 21.1568 102.271 21.1429 102.266 21.1276C102.261 21.1124 102.258 21.0961 102.26 21.0799V8.67995C102.258 8.6638 102.261 8.64752 102.266 8.63226C102.271 8.61699 102.28 8.60313 102.292 8.59166C102.303 8.5802 102.317 8.57141 102.332 8.56592C102.348 8.56044 102.364 8.5584 102.38 8.55995H104.26C104.31 8.55995 104.35 8.55995 104.39 8.67995L104.64 9.79995C104.693 9.95328 104.783 9.95328 104.91 9.79995C105.285 9.36002 105.743 8.9984 106.257 8.73584C106.772 8.47329 107.334 8.31496 107.91 8.26995H109.18C109.197 8.26856 109.213 8.27064 109.229 8.27604C109.245 8.28145 109.259 8.29007 109.271 8.30136C109.284 8.31264 109.293 8.32634 109.3 8.34159C109.307 8.35685 109.31 8.37331 109.31 8.38995V10.2699C109.31 10.3599 109.26 10.3999 109.18 10.3999" fill="#1E2B3C"/>
<path d="M118.21 19.2001V21.0801C118.212 21.0975 118.209 21.1151 118.203 21.1316C118.197 21.148 118.188 21.163 118.175 21.1754C118.163 21.1878 118.148 21.1973 118.132 21.2033C118.115 21.2093 118.098 21.2116 118.08 21.2101H116.16C113.98 21.2101 112.88 20.2701 112.88 18.2101V10.5601C112.882 10.5426 112.879 10.525 112.873 10.5086C112.867 10.4921 112.858 10.4771 112.845 10.4647C112.833 10.4524 112.818 10.4428 112.802 10.4368C112.785 10.4308 112.768 10.4285 112.75 10.4301H110.53C110.45 10.4301 110.41 10.4301 110.41 10.3001V8.68005C110.409 8.66391 110.411 8.64762 110.416 8.63236C110.422 8.6171 110.43 8.60324 110.442 8.59177C110.453 8.5803 110.467 8.57151 110.482 8.56603C110.498 8.56055 110.514 8.55851 110.53 8.56005H112.75C112.768 8.56187 112.787 8.5594 112.804 8.55285C112.822 8.5463 112.837 8.53584 112.85 8.52229C112.862 8.50873 112.872 8.49245 112.877 8.47472C112.882 8.45698 112.883 8.43828 112.88 8.42005V5.06005C112.88 4.97005 112.88 4.93005 113.01 4.93005H115.13C115.22 4.93005 115.26 4.93005 115.26 5.06005V8.42005C115.257 8.4374 115.258 8.45518 115.263 8.47214C115.267 8.48909 115.276 8.5048 115.287 8.51816C115.299 8.53152 115.313 8.5422 115.329 8.54944C115.345 8.55668 115.362 8.5603 115.38 8.56005H118.08C118.097 8.55867 118.113 8.56074 118.129 8.56615C118.145 8.57156 118.159 8.58018 118.171 8.59146C118.184 8.60274 118.193 8.61645 118.2 8.6317C118.207 8.64695 118.21 8.66342 118.21 8.68005V10.3001C118.21 10.3901 118.21 10.4301 118.08 10.4301H115.38C115.3 10.4301 115.26 10.4301 115.26 10.5601V17.8401C115.26 18.6701 115.71 19.0801 116.61 19.0801H118.08C118.17 19.0801 118.21 19.0801 118.21 19.2001Z" fill="#1E2B3C"/>
<path d="M131.85 14.88C131.85 15.44 131.79 15.72 131.67 15.72H122.53C122.45 15.72 122.41 15.72 122.41 15.86C122.406 16.322 122.495 16.78 122.671 17.2069C122.848 17.6337 123.109 18.0206 123.438 18.3444C123.768 18.6683 124.159 18.9224 124.589 19.0918C125.019 19.2611 125.478 19.3422 125.94 19.33C126.583 19.3798 127.226 19.2407 127.791 18.9298C128.356 18.6189 128.818 18.1498 129.12 17.58C129.129 17.5448 129.15 17.5138 129.179 17.492C129.208 17.4702 129.244 17.4589 129.28 17.46H131.28C131.37 17.46 131.41 17.46 131.41 17.58C131.129 18.7518 130.414 19.7736 129.41 20.44C128.346 21.1373 127.091 21.4867 125.82 21.44C125.013 21.4741 124.208 21.3296 123.463 21.0167C122.718 20.7038 122.051 20.2303 121.51 19.63C120.395 18.2945 119.823 16.5879 119.91 14.85C119.82 13.1278 120.368 11.4328 121.45 10.09C122.013 9.47066 122.711 8.98826 123.489 8.67975C124.267 8.37124 125.105 8.24478 125.94 8.31005C126.758 8.2571 127.577 8.39072 128.336 8.70081C129.095 9.0109 129.773 9.48936 130.32 10.1C131.37 11.4651 131.899 13.1601 131.81 14.88H131.85ZM129.43 13.73C129.422 12.8879 129.102 12.0786 128.53 11.46C128.2 11.1143 127.797 10.8456 127.351 10.6727C126.906 10.4999 126.427 10.4273 125.95 10.46C125.457 10.4364 124.964 10.5238 124.509 10.716C124.054 10.9081 123.647 11.1999 123.32 11.57C122.749 12.1571 122.411 12.9321 122.37 13.75C122.37 13.84 122.37 13.88 122.49 13.88H129.3C129.318 13.8816 129.335 13.8793 129.352 13.8733C129.368 13.8673 129.383 13.8577 129.395 13.8454C129.408 13.833 129.417 13.818 129.423 13.8015C129.429 13.7851 129.432 13.7675 129.43 13.75" fill="#1E2B3C"/>
<path d="M135.04 8.55997H136.94C136.99 8.55997 137.03 8.55997 137.07 8.67997L137.32 9.79997C137.329 9.82984 137.347 9.8559 137.373 9.87401C137.398 9.89212 137.429 9.90126 137.46 9.89997C137.487 9.90232 137.515 9.89703 137.54 9.88468C137.564 9.87233 137.585 9.85339 137.6 9.82997C137.973 9.32108 138.468 8.91421 139.039 8.64683C139.611 8.37946 140.24 8.26017 140.87 8.29997C141.618 8.25911 142.367 8.38708 143.059 8.67442C143.751 8.96176 144.37 9.40112 144.87 9.95997C145.851 11.1538 146.36 12.666 146.3 14.21V21.08C146.3 21.16 146.25 21.2 146.16 21.2H144.04C144.024 21.2015 144.008 21.1995 143.992 21.194C143.977 21.1885 143.963 21.1797 143.952 21.1683C143.94 21.1568 143.931 21.1429 143.926 21.1277C143.92 21.1124 143.918 21.0961 143.92 21.08V14.21C143.948 13.2492 143.671 12.3042 143.13 11.51C142.846 11.1455 142.477 10.8563 142.055 10.668C141.633 10.4797 141.171 10.3979 140.71 10.43C140.234 10.4076 139.76 10.4962 139.324 10.6889C138.888 10.8815 138.504 11.1729 138.2 11.54C137.595 12.2961 137.276 13.2417 137.3 14.21V21.08C137.301 21.0961 137.299 21.1124 137.294 21.1277C137.288 21.1429 137.28 21.1568 137.268 21.1683C137.257 21.1797 137.243 21.1885 137.228 21.194C137.212 21.1995 137.196 21.2015 137.18 21.2H135.04C135.024 21.2015 135.008 21.1995 134.992 21.194C134.977 21.1885 134.963 21.1797 134.952 21.1683C134.94 21.1568 134.931 21.1429 134.926 21.1277C134.92 21.1124 134.918 21.0961 134.92 21.08V8.67997C134.918 8.66383 134.92 8.64754 134.926 8.63228C134.931 8.61701 134.94 8.60315 134.952 8.59168C134.963 8.58022 134.977 8.57143 134.992 8.56594C135.008 8.56046 135.024 8.55842 135.04 8.55997Z" fill="#1E2B3C"/>
</g>
<defs>
<clipPath id="clip0_1_291">
<rect width="146.29" height="26.16" fill="white"/>
</clipPath>
</defs>
</svg>
