<svg width="147" height="27" viewBox="0 0 147 27" fill="none" xmlns="http://www.w3.org/2000/svg">
<g clip-path="url(#clip0_1_302)">
<path d="M12.67 0.320312H0.5C0.368193 0.322873 0.242499 0.376373 0.14928 0.469592C0.0560606 0.562811 0.00256007 0.688506 0 0.820312V24.5503C0 24.6829 0.0526785 24.8101 0.146447 24.9039C0.240215 24.9976 0.367392 25.0503 0.5 25.0503H12.67C15.8885 24.9588 18.9445 23.6159 21.1887 21.307C23.4329 18.9981 24.6883 15.9051 24.6883 12.6853C24.6883 9.46548 23.4329 6.37253 21.1887 4.06363C18.9445 1.75473 15.8885 0.411851 12.67 0.320312ZM13.86 21.3203C12.0187 21.6372 10.1242 21.3598 8.45107 20.5283C6.77789 19.6967 5.4128 18.3542 4.55347 16.6952C3.69414 15.0361 3.38516 13.1466 3.67129 11.3002C3.95741 9.45382 4.82378 7.74643 6.14495 6.42526C7.46612 5.1041 9.1735 4.23773 11.0199 3.9516C12.8663 3.66548 14.7558 3.97445 16.4148 4.83378C18.0739 5.69312 19.4164 7.0582 20.2479 8.73138C21.0795 10.4046 21.3569 12.299 21.04 14.1403C20.7316 15.9322 19.8757 17.5846 18.59 18.8703C17.3043 20.1561 15.6519 21.0119 13.86 21.3203Z" fill="black"/>
<path d="M35.48 3.9203H37.61C37.6266 3.91892 37.6433 3.92099 37.659 3.9264C37.6747 3.9318 37.6892 3.94042 37.7014 3.95171C37.7136 3.96299 37.7234 3.9767 37.73 3.99195C37.7367 4.0072 37.7401 4.02367 37.74 4.0403V21.4003C37.7415 21.4178 37.7392 21.4353 37.7332 21.4518C37.7272 21.4683 37.7177 21.4832 37.7053 21.4956C37.6929 21.508 37.678 21.5175 37.6615 21.5235C37.645 21.5295 37.6275 21.5318 37.61 21.5303H35.48C35.4 21.5303 35.36 21.4803 35.36 21.4003V4.0403C35.3585 4.02416 35.3605 4.00787 35.366 3.99261C35.3715 3.97735 35.3803 3.96349 35.3917 3.95202C35.4032 3.94055 35.417 3.93176 35.4323 3.92628C35.4476 3.92079 35.4639 3.91875 35.48 3.9203Z" fill="black"/>
<path d="M41.28 4.04032C41.2785 4.02418 41.2805 4.00789 41.286 3.99263C41.2915 3.97736 41.3003 3.9635 41.3117 3.95204C41.3232 3.94057 41.3371 3.93178 41.3523 3.92629C41.3676 3.92081 41.3839 3.91877 41.4 3.92032H47.8C48.8886 3.85919 49.9766 4.05029 50.9791 4.47872C51.9817 4.90716 52.8718 5.56136 53.58 6.39032C54.9901 8.26216 55.6979 10.5698 55.58 12.9103C55.7144 15.1975 55.0025 17.4542 53.58 19.2503C52.8456 20.0375 51.9446 20.6506 50.9429 21.0451C49.9411 21.4396 48.864 21.6053 47.79 21.5303H41.39C41.31 21.5303 41.27 21.4803 41.27 21.4003L41.28 4.04032ZM47.86 6.04032H43.78C43.7 6.04032 43.66 6.04032 43.66 6.17032V19.2603C43.6585 19.2765 43.6605 19.2927 43.666 19.308C43.6715 19.3233 43.6803 19.3371 43.6917 19.3486C43.7032 19.3601 43.7171 19.3689 43.7323 19.3743C43.7476 19.3798 43.7639 19.3819 43.78 19.3803H47.86C48.5991 19.4203 49.3375 19.2906 50.0187 19.0011C50.6999 18.7116 51.3058 18.2701 51.79 17.7103C52.8043 16.3164 53.2963 14.6103 53.18 12.8903C53.2717 11.114 52.7762 9.35697 51.77 7.89032C51.3175 7.28759 50.725 6.80416 50.0438 6.48182C49.3625 6.15948 48.613 6.00795 47.86 6.04032Z" fill="black"/>
<path d="M67.83 16.3203H60.01C59.94 16.3203 59.94 16.2603 59.94 16.2603V14.3203C59.9385 14.3042 59.9405 14.2879 59.946 14.2726C59.9515 14.2574 59.9603 14.2435 59.9717 14.232C59.9832 14.2206 59.9971 14.2118 60.0123 14.2063C60.0276 14.2008 60.0439 14.1988 60.06 14.2003H67.88C67.8962 14.1988 67.9124 14.2008 67.9277 14.2063C67.943 14.2118 67.9568 14.2206 67.9683 14.232C67.9798 14.2435 67.9886 14.2574 67.994 14.2726C67.9995 14.2879 68.0016 14.3042 68 14.3203V16.2603C68 16.3403 68 16.3703 67.88 16.3703" fill="black"/>
<path d="M72.78 8.88036H74.66C74.66 8.88036 74.74 8.88036 74.78 9.00036L75.03 10.0004C75.03 10.0604 75.11 10.1004 75.16 10.1004C75.1851 10.0982 75.2093 10.0897 75.2303 10.0757C75.2512 10.0617 75.2684 10.0427 75.28 10.0204C75.7255 9.57814 76.261 9.23707 76.85 9.02036C77.4827 8.74794 78.1615 8.5986 78.85 8.58036C79.6625 8.54791 80.4722 8.69407 81.2221 9.00853C81.9719 9.32299 82.6437 9.79809 83.19 10.4004C84.3076 11.7273 84.8827 13.4274 84.8 15.1604C84.8817 16.8931 84.3068 18.5929 83.19 19.9204C82.6441 20.5224 81.9721 20.9968 81.222 21.3096C80.4719 21.6225 79.662 21.7661 78.85 21.7304C78.0969 21.7437 77.3508 21.5828 76.67 21.2604C76.1592 21.0367 75.6894 20.7291 75.28 20.3504C75.21 20.2904 75.16 20.2704 75.11 20.2904C75.06 20.3104 75.03 20.3504 75.03 20.4004V26.4004C75.03 26.4804 75.03 26.5204 74.9 26.5304H72.78C72.69 26.5304 72.65 26.5304 72.65 26.4004V9.00036C72.65 8.92036 72.65 8.88036 72.78 8.88036ZM82.43 15.2004C82.489 14.0424 82.1346 12.9012 81.43 11.9804C81.0949 11.5776 80.6718 11.2573 80.1932 11.044C79.7147 10.8307 79.1936 10.7303 78.67 10.7504C78.1497 10.7134 77.6284 10.8054 77.1521 11.0182C76.6759 11.2311 76.2596 11.5581 75.94 11.9704C75.2768 12.9128 74.9461 14.0492 75 15.2004C74.9554 16.3565 75.3084 17.4929 76 18.4204C76.3122 18.8231 76.7171 19.1444 77.1803 19.3568C77.6435 19.5693 78.1511 19.6665 78.66 19.6404C79.1832 19.6582 79.7037 19.5567 80.1818 19.3436C80.66 19.1305 81.0835 18.8113 81.42 18.4104C82.1231 17.4926 82.4775 16.355 82.42 15.2004" fill="black"/>
<path d="M99.5 15.2003C99.5847 16.9452 98.9897 18.6551 97.84 19.9703C96.6072 21.1269 94.9803 21.7706 93.29 21.7706C91.5996 21.7706 89.9727 21.1269 88.74 19.9703C87.5938 18.6535 87.0025 16.9439 87.09 15.2003C87.0046 13.4571 87.5957 11.7482 88.74 10.4303C89.3228 9.82148 90.03 9.34548 90.8135 9.03485C91.597 8.72421 92.4383 8.58624 93.28 8.63034C94.1237 8.58665 94.967 8.72376 95.7535 9.03247C96.5399 9.34118 97.2513 9.81437 97.84 10.4203C98.9867 11.7413 99.5811 13.4529 99.5 15.2003ZM96.09 18.4103C96.7986 17.4955 97.1536 16.3558 97.09 15.2003C97.1536 14.0449 96.7986 12.9052 96.09 11.9903C95.7528 11.5849 95.3264 11.2629 94.8442 11.0495C94.3619 10.8361 93.8368 10.7372 93.31 10.7603C92.7814 10.7389 92.2548 10.8375 91.7699 11.0488C91.2849 11.2601 90.8541 11.5786 90.51 11.9803C89.8031 12.9 89.4484 14.0421 89.51 15.2003C89.4463 16.3558 89.8014 17.4955 90.51 18.4103C90.8522 18.8151 91.2824 19.1362 91.7676 19.3494C92.2529 19.5626 92.7804 19.6621 93.31 19.6403C93.8368 19.6635 94.3619 19.5646 94.8442 19.3512C95.3264 19.1378 95.7528 18.8158 96.09 18.4103Z" fill="black"/>
<path d="M109.24 10.7503H107.94C107.48 10.7381 107.024 10.8319 106.606 11.0243C106.188 11.2168 105.82 11.5028 105.53 11.8603C104.92 12.6131 104.603 13.5618 104.64 14.5303V21.4003C104.64 21.4803 104.64 21.5203 104.51 21.5203H102.38C102.364 21.5218 102.348 21.5198 102.332 21.5143C102.317 21.5088 102.303 21.5 102.292 21.4885C102.28 21.4771 102.271 21.4632 102.266 21.448C102.261 21.4327 102.258 21.4164 102.26 21.4003V9.00026C102.258 8.98412 102.261 8.96783 102.266 8.95257C102.271 8.93731 102.28 8.92344 102.292 8.91198C102.303 8.90051 102.317 8.89172 102.332 8.88624C102.348 8.88075 102.364 8.87871 102.38 8.88026H104.26C104.31 8.88026 104.35 8.88026 104.39 9.00026L104.64 10.1203C104.693 10.2736 104.783 10.2736 104.91 10.1203C105.285 9.68033 105.743 9.31871 106.257 9.05616C106.772 8.7936 107.334 8.63528 107.91 8.59026H109.18C109.197 8.58887 109.213 8.59095 109.229 8.59636C109.245 8.60176 109.259 8.61038 109.271 8.62167C109.284 8.63295 109.293 8.64665 109.3 8.66191C109.307 8.67716 109.31 8.69362 109.31 8.71026V10.5903C109.31 10.6803 109.26 10.7203 109.18 10.7203" fill="black"/>
<path d="M118.21 19.5204V21.4004C118.212 21.4178 118.209 21.4354 118.203 21.4519C118.197 21.4683 118.188 21.4833 118.175 21.4957C118.163 21.5081 118.148 21.5176 118.132 21.5236C118.115 21.5296 118.098 21.5319 118.08 21.5304H116.16C113.98 21.5304 112.88 20.5904 112.88 18.5304V10.8804C112.882 10.8629 112.879 10.8453 112.873 10.8289C112.867 10.8124 112.858 10.7974 112.845 10.7851C112.833 10.7727 112.818 10.7631 112.802 10.7571C112.785 10.7512 112.768 10.7488 112.75 10.7504H110.53C110.45 10.7504 110.41 10.7504 110.41 10.6204V9.00037C110.409 8.98422 110.411 8.96794 110.416 8.95267C110.422 8.93741 110.43 8.92355 110.442 8.91208C110.453 8.90061 110.467 8.89182 110.482 8.88634C110.498 8.88086 110.514 8.87882 110.53 8.88037H112.75C112.768 8.88218 112.787 8.87972 112.804 8.87317C112.822 8.86661 112.837 8.85615 112.85 8.8426C112.862 8.82905 112.872 8.81277 112.877 8.79503C112.882 8.7773 112.883 8.75859 112.88 8.74037V5.38037C112.88 5.29037 112.88 5.25037 113.01 5.25037H115.13C115.22 5.25037 115.26 5.25037 115.26 5.38037V8.74037C115.257 8.75771 115.258 8.77549 115.263 8.79245C115.267 8.8094 115.276 8.82511 115.287 8.83847C115.299 8.85183 115.313 8.86251 115.329 8.86975C115.345 8.87699 115.362 8.88061 115.38 8.88037H118.08C118.097 8.87898 118.113 8.88106 118.129 8.88646C118.145 8.89187 118.159 8.90049 118.171 8.91177C118.184 8.92306 118.193 8.93676 118.2 8.95201C118.207 8.96726 118.21 8.98373 118.21 9.00037V10.6204C118.21 10.7104 118.21 10.7504 118.08 10.7504H115.38C115.3 10.7504 115.26 10.7504 115.26 10.8804V18.1604C115.26 18.9904 115.71 19.4004 116.61 19.4004H118.08C118.17 19.4004 118.21 19.4004 118.21 19.5204Z" fill="black"/>
<path d="M131.85 15.2004C131.85 15.7604 131.79 16.0404 131.67 16.0404H122.53C122.45 16.0404 122.41 16.0404 122.41 16.1804C122.406 16.6423 122.495 17.1003 122.671 17.5272C122.848 17.954 123.109 18.3409 123.438 18.6647C123.768 18.9886 124.159 19.2428 124.589 19.4121C125.019 19.5814 125.478 19.6625 125.94 19.6504C126.583 19.7001 127.226 19.561 127.791 19.2501C128.356 18.9392 128.818 18.4701 129.12 17.9004C129.129 17.8652 129.15 17.8341 129.179 17.8123C129.208 17.7905 129.244 17.7792 129.28 17.7804H131.28C131.37 17.7804 131.41 17.7804 131.41 17.9004C131.129 19.0721 130.414 20.0939 129.41 20.7604C128.346 21.4576 127.091 21.807 125.82 21.7604C125.013 21.7944 124.208 21.6499 123.463 21.337C122.718 21.0241 122.051 20.5507 121.51 19.9504C120.395 18.6148 119.823 16.9082 119.91 15.1704C119.82 13.4482 120.368 11.7531 121.45 10.4104C122.013 9.79097 122.711 9.30858 123.489 9.00006C124.267 8.69155 125.105 8.56509 125.94 8.63036C126.758 8.57741 127.577 8.71103 128.336 9.02112C129.095 9.33122 129.773 9.80967 130.32 10.4204C131.37 11.7854 131.899 13.4804 131.81 15.2004H131.85ZM129.43 14.0504C129.422 13.2082 129.102 12.399 128.53 11.7804C128.2 11.4347 127.797 11.1659 127.351 10.993C126.906 10.8202 126.427 10.7476 125.95 10.7804C125.457 10.7567 124.964 10.8441 124.509 11.0363C124.054 11.2284 123.647 11.5203 123.32 11.8904C122.749 12.4774 122.411 13.2524 122.37 14.0704C122.37 14.1604 122.37 14.2004 122.49 14.2004H129.3C129.318 14.2019 129.335 14.1996 129.352 14.1936C129.368 14.1876 129.383 14.1781 129.395 14.1657C129.408 14.1533 129.417 14.1383 129.423 14.1219C129.429 14.1054 129.432 14.0878 129.43 14.0704" fill="black"/>
<path d="M135.04 8.88028H136.94C136.99 8.88028 137.03 8.88028 137.07 9.00028L137.32 10.1203C137.329 10.1502 137.347 10.1762 137.373 10.1943C137.398 10.2124 137.429 10.2216 137.46 10.2203C137.487 10.2226 137.515 10.2173 137.54 10.205C137.564 10.1926 137.585 10.1737 137.6 10.1503C137.973 9.64139 138.468 9.23452 139.039 8.96714C139.611 8.69977 140.24 8.58049 140.87 8.62028C141.618 8.57942 142.367 8.7074 143.059 8.99474C143.751 9.28208 144.37 9.72143 144.87 10.2803C145.851 11.4741 146.36 12.9863 146.3 14.5303V21.4003C146.3 21.4803 146.25 21.5203 146.16 21.5203H144.04C144.024 21.5218 144.008 21.5198 143.992 21.5143C143.977 21.5088 143.963 21.5 143.952 21.4886C143.94 21.4771 143.931 21.4632 143.926 21.448C143.92 21.4327 143.918 21.4164 143.92 21.4003V14.5303C143.948 13.5695 143.671 12.6245 143.13 11.8303C142.846 11.4658 142.477 11.1766 142.055 10.9883C141.633 10.8 141.171 10.7182 140.71 10.7503C140.234 10.7279 139.76 10.8165 139.324 11.0092C138.888 11.2018 138.504 11.4932 138.2 11.8603C137.595 12.6164 137.276 13.562 137.3 14.5303V21.4003C137.301 21.4164 137.299 21.4327 137.294 21.448C137.288 21.4632 137.28 21.4771 137.268 21.4886C137.257 21.5 137.243 21.5088 137.228 21.5143C137.212 21.5198 137.196 21.5218 137.18 21.5203H135.04C135.024 21.5218 135.008 21.5198 134.992 21.5143C134.977 21.5088 134.963 21.5 134.952 21.4886C134.94 21.4771 134.931 21.4632 134.926 21.448C134.92 21.4327 134.918 21.4164 134.92 21.4003V9.00028C134.918 8.98414 134.92 8.96785 134.926 8.95259C134.931 8.93733 134.94 8.92346 134.952 8.912C134.963 8.90053 134.977 8.89174 134.992 8.88626C135.008 8.88077 135.024 8.87873 135.04 8.88028Z" fill="black"/>
</g>
<defs>
<clipPath id="clip0_1_302">
<rect width="146.29" height="26.16" fill="white" transform="translate(0 0.320312)"/>
</clipPath>
</defs>
</svg>
