<svg width="147" height="27" viewBox="0 0 147 27" fill="none" xmlns="http://www.w3.org/2000/svg">
<g clip-path="url(#clip0_1_313)">
<path d="M12.67 0.160156H0.5C0.368193 0.162716 0.242499 0.216217 0.14928 0.309436C0.0560606 0.402655 0.00256007 0.52835 0 0.660156V24.3902C0 24.5228 0.0526785 24.6499 0.146447 24.7437C0.240215 24.8375 0.367392 24.8902 0.5 24.8902H12.67C15.8885 24.7986 18.9445 23.4557 21.1887 21.1468C23.4329 18.8379 24.6883 15.745 24.6883 12.5252C24.6883 9.30532 23.4329 6.21238 21.1887 3.90348C18.9445 1.59458 15.8885 0.251695 12.67 0.160156ZM13.86 21.1602C12.0187 21.477 10.1242 21.1996 8.45107 20.3681C6.77789 19.5366 5.4128 18.1941 4.55347 16.535C3.69414 14.8759 3.38516 12.9864 3.67129 11.14C3.95741 9.29366 4.82378 7.58627 6.14495 6.26511C7.46612 4.94394 9.1735 4.07757 11.0199 3.79144C12.8663 3.50532 14.7558 3.81429 16.4148 4.67363C18.0739 5.53296 19.4164 6.89805 20.2479 8.57122C21.0795 10.2444 21.3569 12.1388 21.04 13.9802C20.7316 15.7721 19.8757 17.4245 18.59 18.7102C17.3043 19.9959 15.6519 20.8518 13.86 21.1602Z" fill="white"/>
<path d="M35.48 3.76015H37.61C37.6266 3.75876 37.6433 3.76084 37.659 3.76624C37.6747 3.77165 37.6892 3.78027 37.7014 3.79155C37.7136 3.80284 37.7234 3.81654 37.73 3.83179C37.7367 3.84704 37.7401 3.86351 37.74 3.88015V21.2401C37.7415 21.2576 37.7392 21.2752 37.7332 21.2916C37.7272 21.3081 37.7177 21.3231 37.7053 21.3355C37.6929 21.3478 37.678 21.3574 37.6615 21.3634C37.645 21.3694 37.6275 21.3717 37.61 21.3701H35.48C35.4 21.3701 35.36 21.3201 35.36 21.2401V3.88015C35.3585 3.864 35.3605 3.84772 35.366 3.83245C35.3715 3.81719 35.3803 3.80333 35.3917 3.79186C35.4032 3.78039 35.417 3.7716 35.4323 3.76612C35.4476 3.76064 35.4639 3.7586 35.48 3.76015Z" fill="white"/>
<path d="M41.28 3.88016C41.2785 3.86402 41.2805 3.84773 41.286 3.83247C41.2915 3.81721 41.3003 3.80335 41.3117 3.79188C41.3232 3.78041 41.3371 3.77162 41.3523 3.76614C41.3676 3.76065 41.3839 3.75861 41.4 3.76016H47.8C48.8886 3.69903 49.9766 3.89013 50.9791 4.31857C51.9817 4.74701 52.8718 5.4012 53.58 6.23016C54.9901 8.102 55.6979 10.4096 55.58 12.7502C55.7144 15.0374 55.0025 17.2941 53.58 19.0902C52.8456 19.8773 51.9446 20.4905 50.9429 20.8849C49.9411 21.2794 48.864 21.4452 47.79 21.3702H41.39C41.31 21.3702 41.27 21.3202 41.27 21.2402L41.28 3.88016ZM47.86 5.88016H43.78C43.7 5.88016 43.66 5.88016 43.66 6.01016V19.1002C43.6585 19.1163 43.6605 19.1326 43.666 19.1479C43.6715 19.1631 43.6803 19.177 43.6917 19.1884C43.7032 19.1999 43.7171 19.2087 43.7323 19.2142C43.7476 19.2197 43.7639 19.2217 43.78 19.2202H47.86C48.5991 19.2601 49.3375 19.1304 50.0187 18.8409C50.6999 18.5515 51.3058 18.1099 51.79 17.5502C52.8043 16.1562 53.2963 14.4501 53.18 12.7302C53.2717 10.9539 52.7762 9.19682 51.77 7.73016C51.3175 7.12744 50.725 6.644 50.0438 6.32166C49.3625 5.99933 48.613 5.84779 47.86 5.88016Z" fill="white"/>
<path d="M67.83 16.1602H60.01C59.94 16.1602 59.94 16.1002 59.94 16.1002V14.1602C59.9385 14.144 59.9405 14.1277 59.946 14.1125C59.9515 14.0972 59.9603 14.0834 59.9717 14.0719C59.9832 14.0604 59.9971 14.0516 60.0123 14.0461C60.0276 14.0407 60.0439 14.0386 60.06 14.0402H67.88C67.8962 14.0386 67.9124 14.0407 67.9277 14.0461C67.943 14.0516 67.9568 14.0604 67.9683 14.0719C67.9798 14.0834 67.9886 14.0972 67.994 14.1125C67.9995 14.1277 68.0016 14.144 68 14.1602V16.1002C68 16.1802 68 16.2102 67.88 16.2102" fill="white"/>
<path d="M72.78 8.7202H74.66C74.66 8.7202 74.74 8.7202 74.78 8.8402L75.03 9.8402C75.03 9.9002 75.11 9.9402 75.16 9.9402C75.1851 9.93802 75.2093 9.92955 75.2303 9.91557C75.2512 9.90159 75.2684 9.88254 75.28 9.8602C75.7255 9.41798 76.261 9.07691 76.85 8.8602C77.4827 8.58778 78.1615 8.43845 78.85 8.4202C79.6625 8.38775 80.4722 8.53391 81.2221 8.84837C81.9719 9.16283 82.6437 9.63794 83.19 10.2402C84.3076 11.5671 84.8827 13.2673 84.8 15.0002C84.8817 16.733 84.3068 18.4328 83.19 19.7602C82.6441 20.3623 81.9721 20.8366 81.222 21.1495C80.4719 21.4623 79.662 21.606 78.85 21.5702C78.0969 21.5835 77.3508 21.4227 76.67 21.1002C76.1592 20.8765 75.6894 20.5689 75.28 20.1902C75.21 20.1302 75.16 20.1102 75.11 20.1302C75.06 20.1502 75.03 20.1902 75.03 20.2402V26.2402C75.03 26.3202 75.03 26.3602 74.9 26.3702H72.78C72.69 26.3702 72.65 26.3702 72.65 26.2402V8.8402C72.65 8.7602 72.65 8.7202 72.78 8.7202ZM82.43 15.0402C82.489 13.8823 82.1346 12.741 81.43 11.8202C81.0949 11.4175 80.6718 11.0971 80.1932 10.8839C79.7147 10.6706 79.1936 10.5701 78.67 10.5902C78.1497 10.5533 77.6284 10.6453 77.1521 10.8581C76.6759 11.0709 76.2596 11.3979 75.94 11.8102C75.2768 12.7526 74.9461 13.889 75 15.0402C74.9554 16.1963 75.3084 17.3328 76 18.2602C76.3122 18.663 76.7171 18.9842 77.1803 19.1967C77.6435 19.4091 78.1511 19.5064 78.66 19.4802C79.1832 19.498 79.7037 19.3965 80.1818 19.1834C80.66 18.9703 81.0835 18.6512 81.42 18.2502C82.1231 17.3324 82.4775 16.1949 82.42 15.0402" fill="white"/>
<path d="M99.5 15.0402C99.5847 16.7851 98.9897 18.4949 97.84 19.8102C96.6072 20.9667 94.9803 21.6104 93.29 21.6104C91.5996 21.6104 89.9727 20.9667 88.74 19.8102C87.5938 18.4934 87.0025 16.7837 87.09 15.0402C87.0046 13.2969 87.5957 11.5881 88.74 10.2702C89.3228 9.66132 90.03 9.18533 90.8135 8.87469C91.597 8.56405 92.4383 8.42608 93.28 8.47019C94.1237 8.4265 94.967 8.5636 95.7535 8.87231C96.5399 9.18102 97.2513 9.65421 97.84 10.2602C98.9867 11.5812 99.5811 13.2928 99.5 15.0402ZM96.09 18.2502C96.7986 17.3353 97.1536 16.1956 97.09 15.0402C97.1536 13.8847 96.7986 12.7451 96.09 11.8302C95.7528 11.4247 95.3264 11.1027 94.8442 10.8893C94.3619 10.676 93.8368 10.577 93.31 10.6002C92.7814 10.5787 92.2548 10.6773 91.7699 10.8887C91.2849 11.1 90.8541 11.4185 90.51 11.8202C89.8031 12.7398 89.4484 13.8819 89.51 15.0402C89.4463 16.1956 89.8014 17.3353 90.51 18.2502C90.8522 18.6549 91.2824 18.9761 91.7676 19.1893C92.2529 19.4024 92.7804 19.5019 93.31 19.4802C93.8368 19.5034 94.3619 19.4044 94.8442 19.191C95.3264 18.9777 95.7528 18.6557 96.09 18.2502Z" fill="white"/>
<path d="M109.24 10.5901H107.94C107.48 10.5779 107.024 10.6717 106.606 10.8642C106.188 11.0567 105.82 11.3427 105.53 11.7001C104.92 12.4529 104.603 13.4017 104.64 14.3701V21.2401C104.64 21.3201 104.64 21.3601 104.51 21.3601H102.38C102.364 21.3617 102.348 21.3596 102.332 21.3541C102.317 21.3486 102.303 21.3399 102.292 21.3284C102.28 21.3169 102.271 21.3031 102.266 21.2878C102.261 21.2725 102.258 21.2562 102.26 21.2401V8.8401C102.258 8.82396 102.261 8.80768 102.266 8.79241C102.271 8.77715 102.28 8.76329 102.292 8.75182C102.303 8.74035 102.317 8.73156 102.332 8.72608C102.348 8.7206 102.364 8.71856 102.38 8.7201H104.26C104.31 8.7201 104.35 8.7201 104.39 8.8401L104.64 9.96011C104.693 10.1134 104.783 10.1134 104.91 9.96011C105.285 9.52017 105.743 9.15855 106.257 8.896C106.772 8.63344 107.334 8.47512 107.91 8.4301H109.18C109.197 8.42872 109.213 8.43079 109.229 8.4362C109.245 8.44161 109.259 8.45023 109.271 8.46151C109.284 8.4728 109.293 8.4865 109.3 8.50175C109.307 8.517 109.31 8.53347 109.31 8.5501V10.4301C109.31 10.5201 109.26 10.5601 109.18 10.5601" fill="white"/>
<path d="M118.21 19.3602V21.2402C118.212 21.2577 118.209 21.2752 118.203 21.2917C118.197 21.3082 118.188 21.3231 118.175 21.3355C118.163 21.3479 118.148 21.3574 118.132 21.3634C118.115 21.3694 118.098 21.3717 118.08 21.3702H116.16C113.98 21.3702 112.88 20.4302 112.88 18.3702V10.7202C112.882 10.7028 112.879 10.6852 112.873 10.6687C112.867 10.6522 112.858 10.6373 112.845 10.6249C112.833 10.6125 112.818 10.603 112.802 10.597C112.785 10.591 112.768 10.5887 112.75 10.5902H110.53C110.45 10.5902 110.41 10.5902 110.41 10.4602V8.84021C110.409 8.82407 110.411 8.80778 110.416 8.79252C110.422 8.77726 110.43 8.76339 110.442 8.75193C110.453 8.74046 110.467 8.73167 110.482 8.72618C110.498 8.7207 110.514 8.71866 110.53 8.72021H112.75C112.768 8.72203 112.787 8.71956 112.804 8.71301C112.822 8.70646 112.837 8.696 112.85 8.68244C112.862 8.66889 112.872 8.65261 112.877 8.63488C112.882 8.61714 112.883 8.59843 112.88 8.58021V5.22021C112.88 5.13021 112.88 5.09021 113.01 5.09021H115.13C115.22 5.09021 115.26 5.09021 115.26 5.22021V8.58021C115.257 8.59756 115.258 8.61534 115.263 8.63229C115.267 8.64925 115.276 8.66496 115.287 8.67832C115.299 8.69168 115.313 8.70235 115.329 8.70959C115.345 8.71683 115.362 8.72046 115.38 8.72021H118.08C118.097 8.71882 118.113 8.7209 118.129 8.72631C118.145 8.73171 118.159 8.74033 118.171 8.75162C118.184 8.7629 118.193 8.7766 118.2 8.79185C118.207 8.80711 118.21 8.82357 118.21 8.84021V10.4602C118.21 10.5502 118.21 10.5902 118.08 10.5902H115.38C115.3 10.5902 115.26 10.5902 115.26 10.7202V18.0002C115.26 18.8302 115.71 19.2402 116.61 19.2402H118.08C118.17 19.2402 118.21 19.2402 118.21 19.3602Z" fill="white"/>
<path d="M131.85 15.0402C131.85 15.6002 131.79 15.8802 131.67 15.8802H122.53C122.45 15.8802 122.41 15.8802 122.41 16.0202C122.406 16.4821 122.495 16.9402 122.671 17.367C122.848 17.7939 123.109 18.1807 123.438 18.5046C123.768 18.8284 124.159 19.0826 124.589 19.2519C125.019 19.4213 125.478 19.5023 125.94 19.4902C126.583 19.54 127.226 19.4009 127.791 19.09C128.356 18.7791 128.818 18.3099 129.12 17.7402C129.129 17.705 129.15 17.6739 129.179 17.6521C129.208 17.6303 129.244 17.6191 129.28 17.6202H131.28C131.37 17.6202 131.41 17.6202 131.41 17.7402C131.129 18.9119 130.414 19.9337 129.41 20.6002C128.346 21.2974 127.091 21.6468 125.82 21.6002C125.013 21.6343 124.208 21.4897 123.463 21.1769C122.718 20.864 122.051 20.3905 121.51 19.7902C120.395 18.4547 119.823 16.748 119.91 15.0102C119.82 13.288 120.368 11.593 121.45 10.2502C122.013 9.63082 122.711 9.14842 123.489 8.83991C124.267 8.5314 125.105 8.40494 125.94 8.4702C126.758 8.41726 127.577 8.55088 128.336 8.86097C129.095 9.17106 129.773 9.64952 130.32 10.2602C131.37 11.6252 131.899 13.3203 131.81 15.0402H131.85ZM129.43 13.8902C129.422 13.048 129.102 12.2388 128.53 11.6202C128.2 11.2745 127.797 11.0057 127.351 10.8329C126.906 10.6601 126.427 10.5875 125.95 10.6202C125.457 10.5965 124.964 10.684 124.509 10.8761C124.054 11.0682 123.647 11.3601 123.32 11.7302C122.749 12.3173 122.411 13.0922 122.37 13.9102C122.37 14.0002 122.37 14.0402 122.49 14.0402H129.3C129.318 14.0417 129.335 14.0394 129.352 14.0334C129.368 14.0274 129.383 14.0179 129.395 14.0055C129.408 13.9931 129.417 13.9782 129.423 13.9617C129.429 13.9452 129.432 13.9277 129.43 13.9102" fill="white"/>
<path d="M135.04 8.72013H136.94C136.99 8.72013 137.03 8.72013 137.07 8.84013L137.32 9.96013C137.329 9.99 137.347 10.0161 137.373 10.0342C137.398 10.0523 137.429 10.0614 137.46 10.0601C137.487 10.0625 137.515 10.0572 137.54 10.0448C137.564 10.0325 137.585 10.0136 137.6 9.99012C137.973 9.48123 138.468 9.07436 139.039 8.80699C139.611 8.53961 140.24 8.42033 140.87 8.46013C141.618 8.41926 142.367 8.54724 143.059 8.83458C143.751 9.12192 144.37 9.56127 144.87 10.1201C145.851 11.3139 146.36 12.8262 146.3 14.3701V21.2401C146.3 21.3201 146.25 21.3601 146.16 21.3601H144.04C144.024 21.3617 144.008 21.3596 143.992 21.3541C143.977 21.3487 143.963 21.3399 143.952 21.3284C143.94 21.3169 143.931 21.3031 143.926 21.2878C143.92 21.2726 143.918 21.2563 143.92 21.2401V14.3701C143.948 13.4094 143.671 12.4644 143.13 11.6701C142.846 11.3056 142.477 11.0165 142.055 10.8281C141.633 10.6398 141.171 10.5581 140.71 10.5901C140.234 10.5677 139.76 10.6564 139.324 10.849C138.888 11.0417 138.504 11.3331 138.2 11.7001C137.595 12.4563 137.276 13.4019 137.3 14.3701V21.2401C137.301 21.2563 137.299 21.2726 137.294 21.2878C137.288 21.3031 137.28 21.3169 137.268 21.3284C137.257 21.3399 137.243 21.3487 137.228 21.3541C137.212 21.3596 137.196 21.3617 137.18 21.3601H135.04C135.024 21.3617 135.008 21.3596 134.992 21.3541C134.977 21.3487 134.963 21.3399 134.952 21.3284C134.94 21.3169 134.931 21.3031 134.926 21.2878C134.92 21.2726 134.918 21.2563 134.92 21.2401V8.84013C134.918 8.82398 134.92 8.8077 134.926 8.79243C134.931 8.77717 134.94 8.76331 134.952 8.75184C134.963 8.74037 134.977 8.73158 134.992 8.7261C135.008 8.72062 135.024 8.71858 135.04 8.72013Z" fill="white"/>
</g>
<defs>
<clipPath id="clip0_1_313">
<rect width="146.29" height="26.16" fill="white" transform="translate(0 0.160156)"/>
</clipPath>
</defs>
</svg>
