<svg id="logoer" xmlns="http://www.w3.org/2000/svg" viewBox="0 0 101.61 26.5"><defs><style>.cls-1{fill:#1e2b3c;}.cls-2{fill:#c2132c;}</style></defs><title>digdir</title><path class="cls-1" d="M35.28,3.82a.11.11,0,0,1,.12-.12h6.4a7.07,7.07,0,0,1,5.77,2.47,10,10,0,0,1,2,6.52,9.37,9.37,0,0,1-2,6.35A7.25,7.25,0,0,1,41.8,21.3H35.4a.11.11,0,0,1-.12-.12Zm6.58,2H37.78c-.08,0-.12,0-.12.13v13.1a.11.11,0,0,0,.12.12h4.08a4.83,4.83,0,0,0,3.93-1.67,7.36,7.36,0,0,0,1.39-4.82,8.05,8.05,0,0,0-1.42-5A4.64,4.64,0,0,0,41.86,5.82Z"/><path class="cls-1" d="M55.34,3.82V6.45c0,.08,0,.13-.13.13H52.58c-.08,0-.12,0-.12-.13V3.82a.11.11,0,0,1,.12-.12H55.2C55.29,3.7,55.34,3.74,55.34,3.82Zm-.26,5v12.4a.11.11,0,0,1-.12.12H52.82a.11.11,0,0,1-.12-.12V8.78a.11.11,0,0,1,.12-.12H55A.11.11,0,0,1,55.08,8.78Z"/><path class="cls-1" d="M64,24.38a3.31,3.31,0,0,0,2.69-1,3.76,3.76,0,0,0,.85-2.52v-.67a.12.12,0,0,0-.09-.11c-.06,0-.11,0-.16.06A3.84,3.84,0,0,1,66,21a5,5,0,0,1-2.21.51,5.54,5.54,0,0,1-4.26-1.83,6.76,6.76,0,0,1-1.69-4.77,6.83,6.83,0,0,1,1.61-4.73A5.56,5.56,0,0,1,63.77,8.4a5.32,5.32,0,0,1,2,.42,4.81,4.81,0,0,1,1.61,1q.17.17.24,0l.26-1c0-.08.07-.12.12-.12h1.88a.11.11,0,0,1,.12.12v12a5.44,5.44,0,0,1-1.63,4.1,5.66,5.66,0,0,1-4.08,1.57,7,7,0,0,1-4.05-1.1,3.6,3.6,0,0,1-1.75-2.62.11.11,0,0,1,.12-.12h2.18s.09,0,.12.12a2.25,2.25,0,0,0,1,1.09A4,4,0,0,0,64,24.38ZM60.21,15a4.87,4.87,0,0,0,1,3.21A3.38,3.38,0,0,0,64,19.42a3.19,3.19,0,0,0,2.67-1.22,5.11,5.11,0,0,0,1-3.23,5.11,5.11,0,0,0-1-3.23A3.19,3.19,0,0,0,64,10.52a3.39,3.39,0,0,0-2.74,1.22A4.92,4.92,0,0,0,60.21,15Z"/><path class="cls-1" d="M84.07,21.3H82.19s-.09,0-.12-.12l-.26-1q-.07-.22-.24,0A5.94,5.94,0,0,1,78,21.55a5.52,5.52,0,0,1-4.33-1.81A6.89,6.89,0,0,1,72,15a6.87,6.87,0,0,1,1.61-4.76A5.56,5.56,0,0,1,78,8.4a4.89,4.89,0,0,1,2.19.51,4.76,4.76,0,0,1,1.39.91q.1.1.17.06a.12.12,0,0,0,.07-.11V3.82c0-.08,0-.12.13-.12h2.12a.11.11,0,0,1,.12.12V21.18A.11.11,0,0,1,84.07,21.3ZM74.43,15a4.87,4.87,0,0,0,1,3.21,3.38,3.38,0,0,0,2.74,1.23,3.22,3.22,0,0,0,2.68-1.22A5.06,5.06,0,0,0,81.81,15a5.16,5.16,0,0,0-.94-3.23,3.17,3.17,0,0,0-2.67-1.22,3.41,3.41,0,0,0-2.75,1.22A4.92,4.92,0,0,0,74.43,15Z"/><path class="cls-1" d="M90.59,3.82V6.45c0,.08,0,.13-.13.13H87.83c-.08,0-.12,0-.12-.13V3.82a.11.11,0,0,1,.12-.12h2.62C90.54,3.7,90.59,3.74,90.59,3.82Zm-.26,5v12.4a.11.11,0,0,1-.12.12H88.08a.11.11,0,0,1-.12-.12V8.78a.11.11,0,0,1,.12-.12h2.14A.11.11,0,0,1,90.33,8.78Z"/><path class="cls-1" d="M100.79,10.52H99.52a2.94,2.94,0,0,0-2.4,1.11,4,4,0,0,0-.89,2.67v6.87c0,.08,0,.12-.13.12H94a.11.11,0,0,1-.12-.12V8.78A.11.11,0,0,1,94,8.65h1.88s.09,0,.12.12l.26,1.12q.07.22.27,0a4.38,4.38,0,0,1,3-1.53h1.27a.12.12,0,0,1,.13.12V10.4A.12.12,0,0,1,100.79,10.52Z"/><path class="cls-2" d="M12.67.1H.5A.5.5,0,0,0,0,.6V24.33a.5.5,0,0,0,.5.5H12.67A12.37,12.37,0,0,0,12.67.1m1.19,21A8.8,8.8,0,1,1,21,14a8.8,8.8,0,0,1-7.18,7.18"/></svg>