<svg width="194" height="27" viewBox="0 0 194 27" fill="none" xmlns="http://www.w3.org/2000/svg">
<g clip-path="url(#clip0_1_154)">
<path d="M12.67 0.160156H0.5C0.367392 0.160156 0.240215 0.212834 0.146447 0.306602C0.0526785 0.400371 0 0.527548 0 0.660156V24.3902C0.00256007 24.522 0.0560606 24.6477 0.14928 24.7409C0.242499 24.8341 0.368193 24.8876 0.5 24.8902H12.67C15.8885 24.7986 18.9445 23.4557 21.1887 21.1468C23.4329 18.8379 24.6883 15.745 24.6883 12.5252C24.6883 9.30533 23.4329 6.21238 21.1887 3.90348C18.9445 1.59458 15.8885 0.251695 12.67 0.160156V0.160156ZM13.86 21.1602C12.0187 21.477 10.1242 21.1996 8.45107 20.3681C6.77789 19.5366 5.4128 18.1941 4.55347 16.535C3.69414 14.8759 3.38516 12.9864 3.67129 11.14C3.95741 9.29366 4.82378 7.58627 6.14495 6.26511C7.46612 4.94394 9.1735 4.07757 11.0199 3.79144C12.8663 3.50532 14.7558 3.81429 16.4148 4.67363C18.0739 5.53296 19.4164 6.89804 20.2479 8.57122C21.0795 10.2444 21.3569 12.1388 21.04 13.9802C20.7316 15.7721 19.8757 17.4245 18.59 18.7102C17.3043 19.9959 15.6519 20.8518 13.86 21.1602" fill="white"/>
<path d="M49.02 3.75014H53.1C53.1161 3.74859 53.1324 3.75063 53.1477 3.75611C53.163 3.76159 53.1768 3.77039 53.1883 3.78185C53.1998 3.79332 53.2085 3.80718 53.214 3.82244C53.2195 3.83771 53.2215 3.85399 53.22 3.87014V21.2301C53.22 21.3101 53.22 21.3601 53.1 21.3601H50.94C50.86 21.3601 50.82 21.3101 50.82 21.2301V6.23014C50.82 6.15014 50.82 6.11014 50.68 6.11014C50.54 6.11014 50.52 6.11014 50.49 6.21014L46.11 21.2101C46.0983 21.2559 46.0709 21.2961 46.0324 21.3235C45.994 21.351 45.9471 21.364 45.9 21.3601H42.58C42.5388 21.3607 42.4984 21.3485 42.4644 21.3252C42.4304 21.3019 42.4044 21.2687 42.39 21.2301L37.99 6.23014C37.9752 6.20235 37.9538 6.17867 37.9276 6.16121C37.9014 6.14376 37.8713 6.13308 37.84 6.13014C37.77 6.13014 37.74 6.13014 37.74 6.25014V21.2501C37.7415 21.2676 37.7392 21.2852 37.7332 21.3016C37.7272 21.3181 37.7177 21.3331 37.7053 21.3454C37.6929 21.3578 37.678 21.3674 37.6615 21.3734C37.645 21.3793 37.6275 21.3817 37.61 21.3801H35.48C35.4 21.3801 35.36 21.3301 35.36 21.2501V3.87014C35.3585 3.85399 35.3605 3.83771 35.366 3.82244C35.3715 3.80718 35.3803 3.79332 35.3917 3.78185C35.4032 3.77039 35.417 3.76159 35.4323 3.75611C35.4476 3.75063 35.4639 3.74859 35.48 3.75014H39.53C39.59 3.75014 39.65 3.75014 39.7 3.88014L44.16 18.8801C44.1611 18.8943 44.1652 18.908 44.1721 18.9205C44.1789 18.9329 44.1883 18.9437 44.1997 18.9522C44.211 18.9607 44.2241 18.9667 44.2379 18.9698C44.2518 18.9729 44.2661 18.973 44.28 18.9701C44.3089 18.9734 44.338 18.9661 44.3619 18.9496C44.3858 18.933 44.4029 18.9083 44.41 18.8801L48.85 3.88014C48.8655 3.84709 48.8893 3.81864 48.9191 3.7976C48.9489 3.77656 48.9837 3.76365 49.02 3.76014" fill="white"/>
<path d="M69.43 19.3502V21.2302C69.43 21.3102 69.43 21.3602 69.31 21.3602H68.41C67.12 21.3602 66.3 20.9902 65.94 20.2102C65.94 20.0802 65.82 20.0602 65.71 20.1602C65.2202 20.6098 64.6409 20.9506 64.01 21.1602C63.138 21.4718 62.2155 21.6176 61.29 21.5902C59.9532 21.6844 58.6268 21.2978 57.55 20.5002C57.1318 20.1573 56.798 19.7228 56.5743 19.2304C56.3506 18.738 56.2431 18.2008 56.26 17.6602C56.2454 17.1119 56.3665 16.5686 56.6125 16.0783C56.8585 15.5881 57.2217 15.1663 57.67 14.8502C58.8831 14.0739 60.3128 13.706 61.75 13.8002H64.56C65.02 13.8002 65.29 13.6802 65.37 13.4502C65.45 13.2202 65.37 13.1202 65.37 12.7202C65.3329 12.2194 65.1446 11.7417 64.83 11.3502C64.47 10.8402 63.57 10.5702 62.12 10.5502C61.3064 10.4852 60.4958 10.7082 59.83 11.1802C59.5829 11.3809 59.3857 11.6362 59.2538 11.9259C59.1219 12.2157 59.059 12.5321 59.07 12.8502C59.07 12.9302 59.07 12.9702 58.94 12.9702H56.83C56.8139 12.9718 56.7976 12.9697 56.7823 12.9642C56.767 12.9588 56.7532 12.95 56.7417 12.9385C56.7302 12.927 56.7215 12.9132 56.716 12.8979C56.7105 12.8826 56.7084 12.8664 56.71 12.8502C56.6822 12.2188 56.8131 11.5904 57.0909 11.0226C57.3687 10.4549 57.7844 9.9658 58.3 9.60021C59.4817 8.81018 60.8789 8.40499 62.3 8.44021C63.7126 8.35993 65.108 8.78142 66.24 9.63021C66.751 10.0444 67.1562 10.5741 67.4222 11.1757C67.6882 11.7773 67.8074 12.4335 67.77 13.0902V17.9902C67.7402 18.3347 67.8059 18.6807 67.96 18.9902C68.09 19.1802 68.38 19.2802 68.84 19.2802H69.31C69.3261 19.2787 69.3424 19.2807 69.3577 19.2862C69.373 19.2917 69.3868 19.3005 69.3983 19.3119C69.4097 19.3234 69.4185 19.3373 69.424 19.3525C69.4295 19.3678 69.4315 19.3841 69.43 19.4002V19.3502ZM65.43 15.8502C65.43 15.7702 65.43 15.7302 65.3 15.7302H61.75C60.8858 15.6852 60.0273 15.8938 59.28 16.3302C59.0782 16.4855 58.9153 16.6856 58.8042 16.9147C58.6931 17.1438 58.6369 17.3956 58.64 17.6502C58.6395 17.9038 58.6949 18.1544 58.802 18.3842C58.9091 18.614 59.0655 18.8175 59.26 18.9802C59.8401 19.3955 60.5491 19.5905 61.26 19.5302C62.3812 19.6147 63.4909 19.2556 64.35 18.5302C64.664 18.2243 64.9141 17.859 65.0858 17.4555C65.2574 17.0521 65.3473 16.6186 65.35 16.1802L65.43 15.8502Z" fill="white"/>
<path d="M81.87 12.9801H79.72C79.7039 12.9817 79.6876 12.9796 79.6723 12.9741C79.657 12.9687 79.6432 12.9599 79.6317 12.9484C79.6203 12.9369 79.6115 12.9231 79.606 12.9078C79.6005 12.8925 79.5985 12.8763 79.6 12.8601C79.61 12.537 79.5415 12.2163 79.4005 11.9255C79.2594 11.6346 79.0499 11.3823 78.79 11.1901C78.1333 10.7485 77.35 10.5342 76.56 10.5801C75.8293 10.5306 75.0999 10.6938 74.46 11.0501C74.2623 11.1628 74.0963 11.3237 73.9774 11.5177C73.8585 11.7118 73.7906 11.9328 73.78 12.1601C73.7583 12.317 73.7743 12.4767 73.8264 12.6262C73.8786 12.7758 73.9655 12.9108 74.08 13.0201C74.28 13.1701 74.46 13.3001 74.64 13.4101C75.4429 13.6347 76.2677 13.7722 77.1 13.8201C78.2396 13.9195 79.3601 14.1752 80.43 14.5801C81.0248 14.8128 81.5298 15.2292 81.8715 15.7688C82.2133 16.3084 82.3739 16.9429 82.33 17.5801C82.3736 18.1826 82.2569 18.786 81.9917 19.3287C81.7264 19.8715 81.3222 20.3343 80.82 20.6701C79.5789 21.3933 78.1546 21.7406 76.72 21.6701C75.2541 21.7564 73.806 21.3128 72.64 20.4201C72.1736 20.0425 71.7996 19.5633 71.5465 19.0191C71.2935 18.4749 71.1681 17.8801 71.18 17.2801C71.18 17.1901 71.18 17.1501 71.3 17.1501H73.41C73.51 17.1501 73.56 17.1501 73.56 17.2801C73.5621 17.604 73.6456 17.9221 73.8028 18.2052C73.9601 18.4883 74.1861 18.7273 74.46 18.9001C75.1622 19.3601 75.9914 19.5875 76.83 19.5501C78.91 19.5501 79.95 18.9101 79.95 17.6501C79.9565 17.5034 79.9332 17.357 79.8817 17.2195C79.8301 17.082 79.7513 16.9564 79.65 16.8501C79.4761 16.667 79.2645 16.5237 79.03 16.4301L78.57 16.2701C78.416 16.2276 78.2588 16.1975 78.1 16.1801L77.46 16.0701C77.2525 16.0294 77.0415 16.0093 76.83 16.0101C75.5746 15.9038 74.3451 15.5931 73.19 15.0901C72.493 14.7606 71.9363 14.1933 71.62 13.4901C71.47 13.0629 71.3956 12.6129 71.4 12.1601C71.4002 11.6378 71.5278 11.1235 71.7717 10.6617C72.0157 10.1999 72.3687 9.8046 72.8 9.51011C73.8947 8.74231 75.2146 8.3622 76.55 8.43011C77.9384 8.38296 79.3042 8.79025 80.44 9.59011C80.9407 9.96885 81.3397 10.4657 81.6015 11.0364C81.8632 11.607 81.9795 12.2336 81.94 12.8601C81.94 12.9401 81.89 12.9801 81.83 12.9801" fill="white"/>
<path d="M97.09 21.3601H94.85C94.8024 21.3598 94.7556 21.3478 94.7138 21.3251C94.6719 21.3025 94.6363 21.2698 94.61 21.2301L90.61 14.4101C90.61 14.3401 90.5 14.3401 90.42 14.4101L87.58 16.8501C87.5438 16.8953 87.5259 16.9524 87.53 17.0101V21.2301C87.5315 21.2476 87.5292 21.2652 87.5232 21.2816C87.5172 21.2981 87.5077 21.313 87.4953 21.3254C87.4829 21.3378 87.468 21.3473 87.4515 21.3533C87.435 21.3593 87.4175 21.3616 87.4 21.3601H85.31C85.23 21.3601 85.19 21.3101 85.19 21.2301V3.88012C85.19 3.79012 85.19 3.75012 85.31 3.75012H87.44C87.52 3.75012 87.56 3.75012 87.57 3.88012V13.6801C87.57 13.6801 87.57 13.7301 87.63 13.7501C87.6458 13.7623 87.6651 13.7689 87.685 13.7689C87.7049 13.7689 87.7243 13.7623 87.74 13.7501L93.49 8.85012C93.5993 8.768 93.7334 8.72566 93.87 8.73012H96.94C96.94 8.73012 96.94 8.73012 97.01 8.78012C97.08 8.83012 97.01 8.83012 97.01 8.85012L92.36 12.8501C92.31 12.8501 92.31 12.9601 92.36 13.0401L97.18 21.2901C97.18 21.3701 97.18 21.4201 97.08 21.4201" fill="white"/>
<path d="M102.22 3.87014V6.50014C102.222 6.51854 102.219 6.53712 102.213 6.55442C102.206 6.57171 102.196 6.58726 102.182 6.59985C102.169 6.61244 102.152 6.62172 102.135 6.62697C102.117 6.63223 102.098 6.63331 102.08 6.63014H99.46C99.38 6.63014 99.34 6.63014 99.34 6.50014V3.87014C99.3385 3.85399 99.3405 3.83771 99.346 3.82244C99.3515 3.80718 99.3603 3.79332 99.3717 3.78185C99.3832 3.77039 99.397 3.76159 99.4123 3.75611C99.4276 3.75063 99.4439 3.74859 99.46 3.75014H102.08C102.17 3.75014 102.22 3.75014 102.22 3.87014ZM101.96 8.87014V21.2701C101.962 21.2863 101.96 21.3026 101.954 21.3178C101.949 21.3331 101.94 21.347 101.928 21.3584C101.917 21.3699 101.903 21.3787 101.888 21.3842C101.872 21.3896 101.856 21.3917 101.84 21.3901H99.7C99.6839 21.3917 99.6676 21.3896 99.6523 21.3842C99.637 21.3787 99.6232 21.3699 99.6117 21.3584C99.6002 21.347 99.5915 21.3331 99.586 21.3178C99.5805 21.3026 99.5785 21.2863 99.58 21.2701V8.83014C99.5785 8.81399 99.5805 8.79771 99.586 8.78244C99.5915 8.76718 99.6002 8.75332 99.6117 8.74185C99.6232 8.73038 99.637 8.72159 99.6523 8.71611C99.6676 8.71063 99.6839 8.70859 99.7 8.71014H101.84C101.856 8.70859 101.872 8.71063 101.888 8.71611C101.903 8.72159 101.917 8.73038 101.928 8.74185C101.94 8.75332 101.949 8.76718 101.954 8.78244C101.96 8.79771 101.962 8.81399 101.96 8.83014" fill="white"/>
<path d="M105.53 8.71021H107.41C107.41 8.71021 107.5 8.71021 107.53 8.83021L107.79 9.95021C107.795 9.98026 107.811 10.0073 107.835 10.0259C107.859 10.0444 107.89 10.0531 107.92 10.0502C107.949 10.0514 107.977 10.0457 108.004 10.0335C108.03 10.0213 108.052 10.003 108.07 9.9802C108.441 9.47211 108.935 9.06565 109.504 8.79827C110.074 8.53089 110.702 8.41119 111.33 8.45021C112.078 8.41434 112.825 8.5446 113.516 8.83162C114.208 9.11864 114.827 9.55529 115.33 10.1102C116.307 11.3054 116.813 12.8175 116.75 14.3602V21.2302C116.75 21.3102 116.75 21.3502 116.62 21.3502H114.49C114.474 21.3518 114.458 21.3497 114.442 21.3442C114.427 21.3387 114.413 21.33 114.402 21.3185C114.39 21.307 114.381 21.2932 114.376 21.2779C114.37 21.2626 114.368 21.2463 114.37 21.2302V14.3602C114.403 13.3988 114.126 12.4523 113.58 11.6602C113.297 11.2972 112.929 11.0089 112.509 10.8207C112.089 10.6324 111.629 10.5498 111.17 10.5802C110.694 10.557 110.219 10.6453 109.784 10.838C109.348 11.0307 108.963 11.3225 108.66 11.6902C108.055 12.4464 107.736 13.392 107.76 14.3602V21.2302C107.76 21.3102 107.76 21.3502 107.63 21.3502H105.5C105.484 21.3518 105.468 21.3497 105.452 21.3442C105.437 21.3387 105.423 21.33 105.412 21.3185C105.4 21.307 105.391 21.2932 105.386 21.2779C105.38 21.2626 105.378 21.2463 105.38 21.2302V8.83021C105.378 8.81406 105.38 8.79778 105.386 8.78251C105.391 8.76725 105.4 8.75339 105.412 8.74192C105.423 8.73045 105.437 8.72166 105.452 8.71618C105.468 8.7107 105.484 8.70866 105.5 8.71021" fill="white"/>
<path d="M119.94 8.71019H121.82C121.82 8.71019 121.91 8.71019 121.94 8.83019L122.2 9.83019C122.2 9.89019 122.27 9.93019 122.32 9.93019C122.345 9.929 122.37 9.92092 122.391 9.90683C122.412 9.89274 122.429 9.87316 122.44 9.85019C122.89 9.40824 123.428 9.06731 124.02 8.85019C124.652 8.57659 125.331 8.42721 126.02 8.41019C126.833 8.37636 127.643 8.52189 128.393 8.83644C129.143 9.15099 129.815 9.62683 130.36 10.2302C131.481 11.5693 132.046 13.287 131.94 15.0302C132.023 16.7648 131.444 18.4662 130.32 19.7902C129.774 20.3928 129.103 20.8675 128.352 21.1804C127.602 21.4933 126.792 21.6367 125.98 21.6002C125.22 21.6015 124.471 21.427 123.79 21.0902C123.281 20.8632 122.812 20.5559 122.4 20.1802C122.381 20.1543 122.355 20.1347 122.324 20.124C122.294 20.1133 122.261 20.1119 122.23 20.1202C122.209 20.1298 122.191 20.1453 122.179 20.1649C122.166 20.1844 122.16 20.2071 122.16 20.2302V26.2302C122.16 26.3102 122.11 26.3502 122.02 26.3602H119.94C119.86 26.3602 119.82 26.3602 119.82 26.2302V8.83019C119.818 8.81405 119.82 8.79776 119.826 8.7825C119.831 8.76723 119.84 8.75337 119.852 8.7419C119.863 8.73044 119.877 8.72165 119.892 8.71616C119.908 8.71068 119.924 8.70864 119.94 8.71019V8.71019ZM129.6 15.0302C129.658 13.8724 129.304 12.7314 128.6 11.8102C128.266 11.4063 127.843 11.0851 127.364 10.8717C126.885 10.6584 126.364 10.5586 125.84 10.5802C125.329 10.5515 124.819 10.6476 124.354 10.8602C123.889 11.0727 123.483 11.3954 123.17 11.8002C122.502 12.7403 122.171 13.8784 122.23 15.0302C122.176 16.1798 122.51 17.3141 123.18 18.2502C123.492 18.6529 123.897 18.9742 124.36 19.1867C124.823 19.3991 125.331 19.4964 125.84 19.4702C126.364 19.4903 126.885 19.3898 127.363 19.1765C127.842 18.9633 128.265 18.6429 128.6 18.2402C129.302 17.322 129.657 16.1848 129.6 15.0302" fill="white"/>
<path d="M146.64 15.0301C146.718 16.7811 146.108 18.4932 144.94 19.8001C143.709 20.956 142.084 21.5994 140.395 21.5994C138.706 21.5994 137.081 20.956 135.85 19.8001C134.704 18.4833 134.112 16.7737 134.2 15.0301C134.139 13.2746 134.763 11.5642 135.94 10.2601C136.522 9.64966 137.229 9.17259 138.012 8.86184C138.796 8.55108 139.638 8.41403 140.48 8.46014C141.307 8.42948 142.132 8.57298 142.9 8.88134C143.668 9.1897 144.363 9.65604 144.94 10.2501C146.09 11.569 146.685 13.2821 146.6 15.0301H146.64ZM143.19 18.2401C143.899 17.3253 144.254 16.1856 144.19 15.0301C144.254 13.8747 143.899 12.735 143.19 11.8201C142.853 11.4147 142.426 11.0927 141.944 10.8793C141.462 10.6659 140.937 10.5669 140.41 10.5901C139.883 10.5687 139.358 10.6674 138.874 10.8788C138.391 11.0901 137.962 11.4086 137.62 11.8101C136.909 12.7277 136.554 13.8713 136.62 15.0301C136.553 16.186 136.908 17.327 137.62 18.2401C137.973 18.6273 138.403 18.9366 138.883 19.1482C139.362 19.3598 139.881 19.4691 140.405 19.4691C140.929 19.4691 141.448 19.3598 141.927 19.1482C142.407 18.9366 142.837 18.6273 143.19 18.2401" fill="white"/>
<path d="M156.38 10.5802H155.11C154.651 10.5642 154.195 10.6563 153.778 10.8491C153.361 11.0419 152.995 11.33 152.71 11.6902C152.1 12.443 151.783 13.3918 151.82 14.3602V21.2302C151.82 21.3102 151.82 21.3502 151.68 21.3502H149.56C149.544 21.3518 149.528 21.3497 149.512 21.3442C149.497 21.3388 149.483 21.33 149.472 21.3185C149.46 21.307 149.451 21.2932 149.446 21.2779C149.44 21.2626 149.438 21.2464 149.44 21.2302V8.83021C149.438 8.81407 149.44 8.79778 149.446 8.78252C149.451 8.76726 149.46 8.7534 149.472 8.74193C149.483 8.73046 149.497 8.72167 149.512 8.71619C149.528 8.7107 149.544 8.70866 149.56 8.71021H151.44C151.493 8.71021 151.533 8.75021 151.56 8.83021L151.82 9.95021C151.82 10.1002 151.95 10.1102 152.08 9.95021C152.455 9.51028 152.913 9.14866 153.427 8.88611C153.942 8.62355 154.504 8.46523 155.08 8.42021H156.35C156.367 8.41885 156.384 8.42087 156.401 8.42617C156.417 8.43147 156.432 8.43994 156.445 8.4511C156.458 8.46225 156.469 8.47586 156.476 8.49116C156.484 8.50645 156.489 8.52312 156.49 8.54021V10.4202C156.49 10.4382 156.486 10.4559 156.479 10.4724C156.472 10.4888 156.462 10.5036 156.448 10.5159C156.435 10.5281 156.42 10.5374 156.403 10.5433C156.386 10.5493 156.368 10.5516 156.35 10.5502" fill="white"/>
<path d="M165.35 19.3502V21.2302C165.352 21.2477 165.349 21.2652 165.343 21.2817C165.337 21.2982 165.328 21.3131 165.315 21.3255C165.303 21.3379 165.288 21.3474 165.271 21.3534C165.255 21.3594 165.237 21.3617 165.22 21.3602H163.3C161.12 21.3602 160.03 20.4202 160.02 18.3602V10.7102C160.02 10.6302 160.02 10.5802 159.9 10.5802H157.68C157.59 10.5802 157.55 10.5802 157.55 10.4502V8.8302C157.55 8.7502 157.55 8.7102 157.68 8.7102H159.94C160.02 8.7102 160.06 8.7102 160.06 8.5702V5.2102C160.06 5.1202 160.06 5.0802 160.19 5.0802H162.32C162.4 5.0802 162.44 5.0802 162.44 5.2102V8.5702C162.437 8.58755 162.438 8.60533 162.443 8.62228C162.447 8.63924 162.456 8.65495 162.467 8.66831C162.479 8.68167 162.493 8.69234 162.509 8.69958C162.525 8.70682 162.542 8.71045 162.56 8.7102H165.26C165.34 8.7102 165.39 8.7102 165.39 8.8302V10.4502C165.39 10.5402 165.39 10.5802 165.26 10.5802H162.56C162.48 10.5802 162.44 10.5802 162.44 10.7102V17.9902C162.44 18.8202 162.89 19.2302 163.79 19.2302H165.26C165.35 19.2302 165.39 19.2302 165.39 19.3502" fill="white"/>
<path d="M178.99 15.0302C178.99 15.5902 178.93 15.8702 178.81 15.8702H169.67C169.59 15.8702 169.55 15.8702 169.55 16.0102C169.546 16.4747 169.635 16.9353 169.814 17.3642C169.993 17.7931 170.256 18.1814 170.589 18.5057C170.921 18.8299 171.316 19.0835 171.75 19.2509C172.183 19.4184 172.646 19.4964 173.11 19.4802C173.753 19.5299 174.396 19.3908 174.961 19.08C175.526 18.7691 175.988 18.2999 176.29 17.7302C176.299 17.695 176.32 17.6639 176.349 17.6421C176.378 17.6203 176.414 17.609 176.45 17.6102H178.51C178.597 17.6102 178.637 17.6502 178.63 17.7302C178.349 18.9019 177.634 19.9237 176.63 20.5902C175.569 21.286 174.318 21.6354 173.05 21.5902C172.242 21.6257 171.437 21.4818 170.692 21.1688C169.947 20.8558 169.28 20.3816 168.74 19.7802C167.622 18.4457 167.047 16.7392 167.13 15.0002C167.046 13.2789 167.594 11.5861 168.67 10.2402C169.225 9.63176 169.909 9.15521 170.672 8.84549C171.435 8.53576 172.258 8.40069 173.08 8.45019C173.898 8.3965 174.718 8.52978 175.476 8.83992C176.235 9.15006 176.914 9.62892 177.46 10.2402C178.514 11.6031 179.043 13.2997 178.95 15.0202L178.99 15.0302ZM176.57 13.8702C176.561 13.0301 176.245 12.2223 175.68 11.6002C174.973 10.9299 174.031 10.5638 173.057 10.5806C172.082 10.5974 171.154 10.9958 170.47 11.6902C169.878 12.268 169.522 13.0448 169.47 13.8702C169.47 13.9602 169.47 14.0002 169.59 14.0002H176.41C176.49 14.0002 176.53 14.0002 176.53 13.8702" fill="white"/>
<path d="M182.19 8.71021H184.07C184.123 8.71021 184.163 8.75021 184.19 8.83021L184.45 9.95021C184.455 9.98026 184.471 10.0073 184.495 10.0259C184.519 10.0444 184.55 10.0531 184.58 10.0502C184.609 10.0514 184.637 10.0457 184.664 10.0335C184.69 10.0213 184.712 10.003 184.73 9.9802C185.101 9.47211 185.595 9.06565 186.164 8.79827C186.734 8.53089 187.362 8.41119 187.99 8.45021C188.738 8.41434 189.485 8.5446 190.176 8.83162C190.868 9.11864 191.487 9.55529 191.99 10.1102C192.967 11.3054 193.473 12.8175 193.41 14.3602V21.2302C193.41 21.3102 193.41 21.3502 193.28 21.3502H191.15C191.134 21.3518 191.118 21.3497 191.102 21.3442C191.087 21.3387 191.073 21.33 191.062 21.3185C191.05 21.307 191.041 21.2932 191.036 21.2779C191.03 21.2626 191.028 21.2463 191.03 21.2302V14.3602C191.063 13.3988 190.786 12.4523 190.24 11.6602C189.957 11.2972 189.589 11.0089 189.169 10.8207C188.749 10.6324 188.289 10.5498 187.83 10.5802C187.354 10.557 186.879 10.6453 186.444 10.838C186.008 11.0307 185.623 11.3225 185.32 11.6902C184.715 12.4464 184.396 13.392 184.42 14.3602V21.2302C184.42 21.3102 184.42 21.3502 184.29 21.3502H182.16C182.144 21.3518 182.128 21.3497 182.112 21.3442C182.097 21.3387 182.083 21.33 182.072 21.3185C182.06 21.307 182.051 21.2932 182.046 21.2779C182.04 21.2626 182.038 21.2463 182.04 21.2302V8.83021C182.038 8.81406 182.04 8.79778 182.046 8.78251C182.051 8.76725 182.06 8.75339 182.072 8.74192C182.083 8.73045 182.097 8.72166 182.112 8.71618C182.128 8.7107 182.144 8.70866 182.16 8.71021" fill="white"/>
</g>
<defs>
<clipPath id="clip0_1_154">
<rect width="193.44" height="26.16" fill="white" transform="translate(0 0.160156)"/>
</clipPath>
</defs>
</svg>
