<svg width="194" height="27" viewBox="0 0 194 27" fill="none" xmlns="http://www.w3.org/2000/svg">
<g clip-path="url(#clip0_1_140)">
<path d="M12.67 0.320312H0.5C0.367392 0.320312 0.240215 0.372991 0.146447 0.466759C0.0526785 0.560527 0 0.687704 0 0.820312V24.5503C0.00256007 24.6821 0.0560606 24.8078 0.14928 24.901C0.242499 24.9943 0.368193 25.0478 0.5 25.0503H12.67C15.8885 24.9588 18.9445 23.6159 21.1887 21.307C23.4329 18.9981 24.6883 15.9051 24.6883 12.6853C24.6883 9.46548 23.4329 6.37253 21.1887 4.06363C18.9445 1.75473 15.8885 0.411851 12.67 0.320312V0.320312ZM13.86 21.3203C12.0187 21.6372 10.1242 21.3598 8.45107 20.5283C6.77789 19.6967 5.4128 18.3542 4.55347 16.6952C3.69414 15.0361 3.38516 13.1466 3.67129 11.3002C3.95741 9.45382 4.82378 7.74643 6.14495 6.42526C7.46612 5.1041 9.1735 4.23773 11.0199 3.9516C12.8663 3.66548 14.7558 3.97445 16.4148 4.83378C18.0739 5.69312 19.4164 7.0582 20.2479 8.73138C21.0795 10.4046 21.3569 12.299 21.04 14.1403C20.7316 15.9322 19.8757 17.5846 18.59 18.8703C17.3043 20.1561 15.6519 21.0119 13.86 21.3203" fill="black"/>
<path d="M49.02 3.91029H53.1C53.1161 3.90874 53.1324 3.91078 53.1477 3.91627C53.163 3.92175 53.1768 3.93054 53.1883 3.94201C53.1998 3.95348 53.2085 3.96734 53.214 3.9826C53.2195 3.99786 53.2215 4.01415 53.22 4.03029V21.3903C53.22 21.4703 53.22 21.5203 53.1 21.5203H50.94C50.86 21.5203 50.82 21.4703 50.82 21.3903V6.39029C50.82 6.31029 50.82 6.27029 50.68 6.27029C50.54 6.27029 50.52 6.27029 50.49 6.37029L46.11 21.3703C46.0983 21.4161 46.0709 21.4562 46.0324 21.4837C45.994 21.5111 45.9471 21.5241 45.9 21.5203H42.58C42.5388 21.5208 42.4984 21.5086 42.4644 21.4854C42.4304 21.4621 42.4044 21.4289 42.39 21.3903L37.99 6.39029C37.9752 6.36251 37.9538 6.33882 37.9276 6.32137C37.9014 6.30392 37.8713 6.29324 37.84 6.29029C37.77 6.29029 37.74 6.29029 37.74 6.41029V21.4103C37.7415 21.4277 37.7392 21.4453 37.7332 21.4618C37.7272 21.4783 37.7177 21.4932 37.7053 21.5056C37.6929 21.518 37.678 21.5275 37.6615 21.5335C37.645 21.5395 37.6275 21.5418 37.61 21.5403H35.48C35.4 21.5403 35.36 21.4903 35.36 21.4103V4.03029C35.3585 4.01415 35.3605 3.99786 35.366 3.9826C35.3715 3.96734 35.3803 3.95348 35.3917 3.94201C35.4032 3.93054 35.417 3.92175 35.4323 3.91627C35.4476 3.91078 35.4639 3.90874 35.48 3.91029H39.53C39.59 3.91029 39.65 3.91029 39.7 4.04029L44.16 19.0403C44.1611 19.0544 44.1652 19.0682 44.1721 19.0806C44.1789 19.093 44.1883 19.1039 44.1997 19.1124C44.211 19.1209 44.2241 19.1269 44.2379 19.13C44.2518 19.1331 44.2661 19.1332 44.28 19.1303C44.3089 19.1336 44.338 19.1263 44.3619 19.1097C44.3858 19.0932 44.4029 19.0685 44.41 19.0403L48.85 4.04029C48.8655 4.00725 48.8893 3.9788 48.9191 3.95776C48.9489 3.93671 48.9837 3.9238 49.02 3.92029" fill="black"/>
<path d="M69.43 19.5104V21.3904C69.43 21.4704 69.43 21.5204 69.31 21.5204H68.41C67.12 21.5204 66.3 21.1504 65.94 20.3704C65.94 20.2404 65.82 20.2204 65.71 20.3204C65.2202 20.7699 64.6409 21.1107 64.01 21.3204C63.138 21.6319 62.2155 21.7778 61.29 21.7504C59.9532 21.8445 58.6268 21.458 57.55 20.6604C57.1318 20.3174 56.798 19.883 56.5743 19.3906C56.3506 18.8982 56.2431 18.3609 56.26 17.8204C56.2454 17.2721 56.3665 16.7287 56.6125 16.2385C56.8585 15.7483 57.2217 15.3264 57.67 15.0104C58.8831 14.234 60.3128 13.8661 61.75 13.9604H64.56C65.02 13.9604 65.29 13.8404 65.37 13.6104C65.45 13.3804 65.37 13.2804 65.37 12.8804C65.3329 12.3796 65.1446 11.9018 64.83 11.5104C64.47 11.0004 63.57 10.7304 62.12 10.7104C61.3064 10.6453 60.4958 10.8683 59.83 11.3404C59.5829 11.5411 59.3857 11.7963 59.2538 12.0861C59.1219 12.3758 59.059 12.6922 59.07 13.0104C59.07 13.0904 59.07 13.1304 58.94 13.1304H56.83C56.8139 13.1319 56.7976 13.1299 56.7823 13.1244C56.767 13.1189 56.7532 13.1101 56.7417 13.0987C56.7302 13.0872 56.7215 13.0733 56.716 13.0581C56.7105 13.0428 56.7084 13.0265 56.71 13.0104C56.6822 12.3789 56.8131 11.7505 57.0909 11.1828C57.3687 10.615 57.7844 10.126 58.3 9.76037C59.4817 8.97033 60.8789 8.56515 62.3 8.60037C63.7126 8.52009 65.108 8.94157 66.24 9.79037C66.751 10.2046 67.1562 10.7343 67.4222 11.3359C67.6882 11.9375 67.8074 12.5937 67.77 13.2504V18.1504C67.7402 18.4948 67.8059 18.8408 67.96 19.1504C68.09 19.3404 68.38 19.4404 68.84 19.4404H69.31C69.3261 19.4388 69.3424 19.4409 69.3577 19.4463C69.373 19.4518 69.3868 19.4606 69.3983 19.4721C69.4097 19.4836 69.4185 19.4974 69.424 19.5127C69.4295 19.5279 69.4315 19.5442 69.43 19.5604V19.5104ZM65.43 16.0104C65.43 15.9304 65.43 15.8904 65.3 15.8904H61.75C60.8858 15.8454 60.0273 16.0539 59.28 16.4904C59.0782 16.6456 58.9153 16.8457 58.8042 17.0748C58.6931 17.3039 58.6369 17.5558 58.64 17.8104C58.6395 18.0639 58.6949 18.3145 58.802 18.5444C58.9091 18.7742 59.0655 18.9777 59.26 19.1404C59.8401 19.5557 60.5491 19.7507 61.26 19.6904C62.3812 19.7749 63.4909 19.4158 64.35 18.6904C64.664 18.3844 64.9141 18.0191 65.0858 17.6157C65.2574 17.2123 65.3473 16.7788 65.35 16.3404L65.43 16.0104Z" fill="black"/>
<path d="M81.87 13.1403H79.72C79.7039 13.1418 79.6876 13.1398 79.6723 13.1343C79.657 13.1288 79.6432 13.12 79.6317 13.1086C79.6203 13.0971 79.6115 13.0832 79.606 13.068C79.6005 13.0527 79.5985 13.0364 79.6 13.0203C79.61 12.6972 79.5415 12.3765 79.4005 12.0856C79.2594 11.7948 79.0499 11.5424 78.79 11.3503C78.1333 10.9087 77.35 10.6944 76.56 10.7403C75.8293 10.6907 75.0999 10.854 74.46 11.2103C74.2623 11.323 74.0963 11.4838 73.9774 11.6779C73.8585 11.872 73.7906 12.0929 73.78 12.3203C73.7583 12.4771 73.7743 12.6369 73.8264 12.7864C73.8786 12.9359 73.9655 13.0709 74.08 13.1803C74.28 13.3303 74.46 13.4603 74.64 13.5703C75.4429 13.7949 76.2677 13.9323 77.1 13.9803C78.2396 14.0797 79.3601 14.3354 80.43 14.7403C81.0248 14.9729 81.5298 15.3894 81.8715 15.929C82.2133 16.4685 82.3739 17.1031 82.33 17.7403C82.3736 18.3428 82.2569 18.9461 81.9917 19.4889C81.7264 20.0316 81.3222 20.4945 80.82 20.8303C79.5789 21.5534 78.1546 21.9008 76.72 21.8303C75.2541 21.9166 73.806 21.4729 72.64 20.5803C72.1736 20.2026 71.7996 19.7234 71.5465 19.1793C71.2935 18.6351 71.1681 18.0403 71.18 17.4403C71.18 17.3503 71.18 17.3103 71.3 17.3103H73.41C73.51 17.3103 73.56 17.3103 73.56 17.4403C73.5621 17.7641 73.6456 18.0823 73.8028 18.3654C73.9601 18.6485 74.1861 18.8874 74.46 19.0603C75.1622 19.5203 75.9914 19.7477 76.83 19.7103C78.91 19.7103 79.95 19.0703 79.95 17.8103C79.9565 17.6636 79.9332 17.5171 79.8817 17.3796C79.8301 17.2422 79.7513 17.1165 79.65 17.0103C79.4761 16.8272 79.2645 16.6839 79.03 16.5903L78.57 16.4303C78.416 16.3878 78.2588 16.3577 78.1 16.3403L77.46 16.2303C77.2525 16.1896 77.0415 16.1695 76.83 16.1703C75.5746 16.064 74.3451 15.7532 73.19 15.2503C72.493 14.9207 71.9363 14.3534 71.62 13.6503C71.47 13.2231 71.3956 12.773 71.4 12.3203C71.4002 11.798 71.5278 11.2836 71.7717 10.8218C72.0157 10.3601 72.3687 9.96476 72.8 9.67027C73.8947 8.90247 75.2146 8.52235 76.55 8.59027C77.9384 8.54312 79.3042 8.95041 80.44 9.75027C80.9407 10.129 81.3397 10.6259 81.6015 11.1965C81.8632 11.7671 81.9795 12.3937 81.94 13.0203C81.94 13.1003 81.89 13.1403 81.83 13.1403" fill="black"/>
<path d="M97.09 21.5203H94.85C94.8024 21.52 94.7556 21.508 94.7138 21.4853C94.6719 21.4626 94.6363 21.43 94.61 21.3903L90.61 14.5703C90.61 14.5003 90.5 14.5003 90.42 14.5703L87.58 17.0103C87.5438 17.0554 87.5259 17.1126 87.53 17.1703V21.3903C87.5315 21.4077 87.5292 21.4253 87.5232 21.4418C87.5172 21.4582 87.5077 21.4732 87.4953 21.4856C87.4829 21.498 87.468 21.5075 87.4515 21.5135C87.435 21.5195 87.4175 21.5218 87.4 21.5203H85.31C85.23 21.5203 85.19 21.4703 85.19 21.3903V4.04028C85.19 3.95028 85.19 3.91028 85.31 3.91028H87.44C87.52 3.91028 87.56 3.91028 87.57 4.04028V13.8403C87.57 13.8403 87.57 13.8903 87.63 13.9103C87.6458 13.9224 87.6651 13.929 87.685 13.929C87.7049 13.929 87.7243 13.9224 87.74 13.9103L93.49 9.01028C93.5993 8.92815 93.7334 8.88582 93.87 8.89028H96.94C96.94 8.89028 96.94 8.89028 97.01 8.94028C97.08 8.99028 97.01 8.99028 97.01 9.01028L92.36 13.0103C92.31 13.0103 92.31 13.1203 92.36 13.2003L97.18 21.4503C97.18 21.5303 97.18 21.5803 97.08 21.5803" fill="black"/>
<path d="M102.22 4.03029V6.66029C102.222 6.6787 102.219 6.69728 102.213 6.71457C102.206 6.73187 102.196 6.74742 102.182 6.76001C102.169 6.77259 102.152 6.78187 102.135 6.78713C102.117 6.79238 102.098 6.79346 102.08 6.79029H99.46C99.38 6.79029 99.34 6.79029 99.34 6.66029V4.03029C99.3385 4.01415 99.3405 3.99786 99.346 3.9826C99.3515 3.96734 99.3603 3.95348 99.3717 3.94201C99.3832 3.93054 99.397 3.92175 99.4123 3.91627C99.4276 3.91078 99.4439 3.90874 99.46 3.91029H102.08C102.17 3.91029 102.22 3.91029 102.22 4.03029ZM101.96 9.03029V21.4303C101.962 21.4464 101.96 21.4627 101.954 21.478C101.949 21.4932 101.94 21.5071 101.928 21.5186C101.917 21.53 101.903 21.5388 101.888 21.5443C101.872 21.5498 101.856 21.5518 101.84 21.5503H99.7C99.6839 21.5518 99.6676 21.5498 99.6523 21.5443C99.637 21.5388 99.6232 21.53 99.6117 21.5186C99.6002 21.5071 99.5915 21.4932 99.586 21.478C99.5805 21.4627 99.5785 21.4464 99.58 21.4303V8.99029C99.5785 8.97415 99.5805 8.95786 99.586 8.9426C99.5915 8.92734 99.6002 8.91348 99.6117 8.90201C99.6232 8.89054 99.637 8.88175 99.6523 8.87627C99.6676 8.87078 99.6839 8.86874 99.7 8.87029H101.84C101.856 8.86874 101.872 8.87078 101.888 8.87627C101.903 8.88175 101.917 8.89054 101.928 8.90201C101.94 8.91348 101.949 8.92734 101.954 8.9426C101.96 8.95786 101.962 8.97415 101.96 8.99029" fill="black"/>
<path d="M105.53 8.87036H107.41C107.41 8.87036 107.5 8.87036 107.53 8.99036L107.79 10.1104C107.795 10.1404 107.811 10.1675 107.835 10.186C107.859 10.2046 107.89 10.2133 107.92 10.2104C107.949 10.2115 107.977 10.2058 108.004 10.1936C108.03 10.1814 108.052 10.1632 108.07 10.1404C108.441 9.63227 108.935 9.22581 109.504 8.95843C110.074 8.69105 110.702 8.57135 111.33 8.61036C112.078 8.5745 112.825 8.70476 113.516 8.99178C114.208 9.2788 114.827 9.71545 115.33 10.2704C116.307 11.4656 116.813 12.9777 116.75 14.5204V21.3904C116.75 21.4704 116.75 21.5104 116.62 21.5104H114.49C114.474 21.5119 114.458 21.5099 114.442 21.5044C114.427 21.4989 114.413 21.4901 114.402 21.4786C114.39 21.4672 114.381 21.4533 114.376 21.4381C114.37 21.4228 114.368 21.4065 114.37 21.3904V14.5204C114.403 13.559 114.126 12.6125 113.58 11.8204C113.297 11.4573 112.929 11.1691 112.509 10.9808C112.089 10.7925 111.629 10.71 111.17 10.7404C110.694 10.7172 110.219 10.8055 109.784 10.9982C109.348 11.1909 108.963 11.4827 108.66 11.8504C108.055 12.6065 107.736 13.5521 107.76 14.5204V21.3904C107.76 21.4704 107.76 21.5104 107.63 21.5104H105.5C105.484 21.5119 105.468 21.5099 105.452 21.5044C105.437 21.4989 105.423 21.4901 105.412 21.4786C105.4 21.4672 105.391 21.4533 105.386 21.4381C105.38 21.4228 105.378 21.4065 105.38 21.3904V8.99036C105.378 8.97422 105.38 8.95793 105.386 8.94267C105.391 8.92741 105.4 8.91354 105.412 8.90208C105.423 8.89061 105.437 8.88182 105.452 8.87634C105.468 8.87085 105.484 8.86881 105.5 8.87036" fill="black"/>
<path d="M119.94 8.87035H121.82C121.82 8.87035 121.91 8.87035 121.94 8.99035L122.2 9.99035C122.2 10.0503 122.27 10.0903 122.32 10.0903C122.345 10.0892 122.37 10.0811 122.391 10.067C122.412 10.0529 122.429 10.0333 122.44 10.0103C122.89 9.56839 123.428 9.22747 124.02 9.01035C124.652 8.73674 125.331 8.58736 126.02 8.57035C126.833 8.53652 127.643 8.68205 128.393 8.9966C129.143 9.31114 129.815 9.78699 130.36 10.3903C131.481 11.7295 132.046 13.4472 131.94 15.1903C132.023 16.925 131.444 18.6264 130.32 19.9503C129.774 20.553 129.103 21.0277 128.352 21.3406C127.602 21.6535 126.792 21.7968 125.98 21.7603C125.22 21.7617 124.471 21.5871 123.79 21.2503C123.281 21.0233 122.812 20.7161 122.4 20.3403C122.381 20.3144 122.355 20.2948 122.324 20.2841C122.294 20.2734 122.261 20.2721 122.23 20.2803C122.209 20.29 122.191 20.3055 122.179 20.325C122.166 20.3445 122.16 20.3672 122.16 20.3903V26.3903C122.16 26.4703 122.11 26.5103 122.02 26.5203H119.94C119.86 26.5203 119.82 26.5203 119.82 26.3903V8.99035C119.818 8.9742 119.82 8.95792 119.826 8.94265C119.831 8.92739 119.84 8.91353 119.852 8.90206C119.863 8.89059 119.877 8.8818 119.892 8.87632C119.908 8.87084 119.924 8.8688 119.94 8.87035V8.87035ZM129.6 15.1903C129.658 14.0325 129.304 12.8916 128.6 11.9703C128.266 11.5664 127.843 11.2453 127.364 11.0319C126.885 10.8185 126.364 10.7187 125.84 10.7403C125.329 10.7117 124.819 10.8078 124.354 11.0203C123.889 11.2329 123.483 11.5555 123.17 11.9603C122.502 12.9004 122.171 14.0385 122.23 15.1903C122.176 16.3399 122.51 17.4743 123.18 18.4103C123.492 18.8131 123.897 19.1344 124.36 19.3468C124.823 19.5593 125.331 19.6565 125.84 19.6303C126.364 19.6504 126.885 19.55 127.363 19.3367C127.842 19.1234 128.265 18.8031 128.6 18.4003C129.302 17.4822 129.657 16.3449 129.6 15.1903" fill="black"/>
<path d="M146.64 15.1903C146.718 16.9413 146.108 18.6534 144.94 19.9603C143.709 21.1162 142.084 21.7596 140.395 21.7596C138.706 21.7596 137.081 21.1162 135.85 19.9603C134.704 18.6435 134.112 16.9338 134.2 15.1903C134.139 13.4348 134.763 11.7244 135.94 10.4203C136.522 9.80982 137.229 9.33275 138.012 9.02199C138.796 8.71124 139.638 8.57419 140.48 8.6203C141.307 8.58964 142.132 8.73313 142.9 9.04149C143.668 9.34985 144.363 9.81619 144.94 10.4103C146.09 11.7292 146.685 13.4423 146.6 15.1903H146.64ZM143.19 18.4003C143.899 17.4854 144.254 16.3458 144.19 15.1903C144.254 14.0348 143.899 12.8952 143.19 11.9803C142.853 11.5748 142.426 11.2528 141.944 11.0394C141.462 10.8261 140.937 10.7271 140.41 10.7503C139.883 10.7289 139.358 10.8276 138.874 11.0389C138.391 11.2503 137.962 11.5688 137.62 11.9703C136.909 12.8878 136.554 14.0315 136.62 15.1903C136.553 16.3462 136.908 17.4871 137.62 18.4003C137.973 18.7875 138.403 19.0968 138.883 19.3084C139.362 19.52 139.881 19.6293 140.405 19.6293C140.929 19.6293 141.448 19.52 141.927 19.3084C142.407 19.0968 142.837 18.7875 143.19 18.4003" fill="black"/>
<path d="M156.38 10.7404H155.11C154.651 10.7243 154.195 10.8164 153.778 11.0092C153.361 11.202 152.995 11.4902 152.71 11.8504C152.1 12.6032 151.783 13.5519 151.82 14.5204V21.3904C151.82 21.4704 151.82 21.5104 151.68 21.5104H149.56C149.544 21.5119 149.528 21.5099 149.512 21.5044C149.497 21.4989 149.483 21.4901 149.472 21.4787C149.46 21.4672 149.451 21.4533 149.446 21.4381C149.44 21.4228 149.438 21.4065 149.44 21.3904V8.99037C149.438 8.97423 149.44 8.95794 149.446 8.94268C149.451 8.92741 149.46 8.91355 149.472 8.90208C149.483 8.89062 149.497 8.88183 149.512 8.87634C149.528 8.87086 149.544 8.86882 149.56 8.87037H151.44C151.493 8.87037 151.533 8.91037 151.56 8.99037L151.82 10.1104C151.82 10.2604 151.95 10.2704 152.08 10.1104C152.455 9.67044 152.913 9.30882 153.427 9.04626C153.942 8.78371 154.504 8.62538 155.08 8.58037H156.35C156.367 8.579 156.384 8.58103 156.401 8.58633C156.417 8.59163 156.432 8.6001 156.445 8.61125C156.458 8.62241 156.469 8.63602 156.476 8.65131C156.484 8.66661 156.489 8.68328 156.49 8.70037V10.5804C156.49 10.5983 156.486 10.6161 156.479 10.6325C156.472 10.649 156.462 10.6638 156.448 10.676C156.435 10.6882 156.42 10.6976 156.403 10.7035C156.386 10.7094 156.368 10.7117 156.35 10.7104" fill="black"/>
<path d="M165.35 19.5104V21.3904C165.352 21.4078 165.349 21.4254 165.343 21.4419C165.337 21.4583 165.328 21.4733 165.315 21.4857C165.303 21.4981 165.288 21.5076 165.271 21.5136C165.255 21.5196 165.237 21.5219 165.22 21.5204H163.3C161.12 21.5204 160.03 20.5804 160.02 18.5204V10.8704C160.02 10.7904 160.02 10.7404 159.9 10.7404H157.68C157.59 10.7404 157.55 10.7404 157.55 10.6104V8.99036C157.55 8.91036 157.55 8.87036 157.68 8.87036H159.94C160.02 8.87036 160.06 8.87036 160.06 8.73036V5.37036C160.06 5.28036 160.06 5.24036 160.19 5.24036H162.32C162.4 5.24036 162.44 5.24036 162.44 5.37036V8.73036C162.437 8.7477 162.438 8.76548 162.443 8.78244C162.447 8.79939 162.456 8.81511 162.467 8.82846C162.479 8.84182 162.493 8.8525 162.509 8.85974C162.525 8.86698 162.542 8.8706 162.56 8.87036H165.26C165.34 8.87036 165.39 8.87036 165.39 8.99036V10.6104C165.39 10.7004 165.39 10.7404 165.26 10.7404H162.56C162.48 10.7404 162.44 10.7404 162.44 10.8704V18.1504C162.44 18.9804 162.89 19.3904 163.79 19.3904H165.26C165.35 19.3904 165.39 19.3904 165.39 19.5104" fill="black"/>
<path d="M178.99 15.1903C178.99 15.7503 178.93 16.0303 178.81 16.0303H169.67C169.59 16.0303 169.55 16.0303 169.55 16.1703C169.546 16.6349 169.635 17.0955 169.814 17.5244C169.993 17.9533 170.256 18.3416 170.589 18.6658C170.921 18.9901 171.316 19.2436 171.75 19.4111C172.183 19.5786 172.646 19.6566 173.11 19.6403C173.753 19.6901 174.396 19.551 174.961 19.2401C175.526 18.9292 175.988 18.4601 176.29 17.8903C176.299 17.8551 176.32 17.8241 176.349 17.8023C176.378 17.7805 176.414 17.7692 176.45 17.7703H178.51C178.597 17.7703 178.637 17.8103 178.63 17.8903C178.349 19.0621 177.634 20.0839 176.63 20.7503C175.569 21.4462 174.318 21.7956 173.05 21.7503C172.242 21.7858 171.437 21.6419 170.692 21.3289C169.947 21.016 169.28 20.5417 168.74 19.9403C167.622 18.6058 167.047 16.8994 167.13 15.1603C167.046 13.439 167.594 11.7463 168.67 10.4003C169.225 9.79191 169.909 9.31537 170.672 9.00564C171.435 8.69591 172.258 8.56085 173.08 8.61035C173.898 8.55666 174.718 8.68994 175.476 9.00008C176.235 9.31022 176.914 9.78908 177.46 10.4003C178.514 11.7633 179.043 13.4598 178.95 15.1803L178.99 15.1903ZM176.57 14.0303C176.561 13.1902 176.245 12.3825 175.68 11.7603C174.973 11.09 174.031 10.7239 173.057 10.7408C172.082 10.7576 171.154 11.156 170.47 11.8503C169.878 12.4281 169.522 13.2049 169.47 14.0303C169.47 14.1203 169.47 14.1603 169.59 14.1603H176.41C176.49 14.1603 176.53 14.1603 176.53 14.0303" fill="black"/>
<path d="M182.19 8.87036H184.07C184.123 8.87036 184.163 8.91036 184.19 8.99036L184.45 10.1104C184.455 10.1404 184.471 10.1675 184.495 10.186C184.519 10.2046 184.55 10.2133 184.58 10.2104C184.609 10.2115 184.637 10.2058 184.664 10.1936C184.69 10.1814 184.712 10.1632 184.73 10.1404C185.101 9.63227 185.595 9.22581 186.164 8.95843C186.734 8.69105 187.362 8.57135 187.99 8.61036C188.738 8.5745 189.485 8.70476 190.176 8.99178C190.868 9.2788 191.487 9.71545 191.99 10.2704C192.967 11.4656 193.473 12.9777 193.41 14.5204V21.3904C193.41 21.4704 193.41 21.5104 193.28 21.5104H191.15C191.134 21.5119 191.118 21.5099 191.102 21.5044C191.087 21.4989 191.073 21.4901 191.062 21.4786C191.05 21.4672 191.041 21.4533 191.036 21.4381C191.03 21.4228 191.028 21.4065 191.03 21.3904V14.5204C191.063 13.559 190.786 12.6125 190.24 11.8204C189.957 11.4573 189.589 11.1691 189.169 10.9808C188.749 10.7925 188.289 10.71 187.83 10.7404C187.354 10.7172 186.879 10.8055 186.444 10.9982C186.008 11.1909 185.623 11.4827 185.32 11.8504C184.715 12.6065 184.396 13.5521 184.42 14.5204V21.3904C184.42 21.4704 184.42 21.5104 184.29 21.5104H182.16C182.144 21.5119 182.128 21.5099 182.112 21.5044C182.097 21.4989 182.083 21.4901 182.072 21.4786C182.06 21.4672 182.051 21.4533 182.046 21.4381C182.04 21.4228 182.038 21.4065 182.04 21.3904V8.99036C182.038 8.97422 182.04 8.95793 182.046 8.94267C182.051 8.92741 182.06 8.91354 182.072 8.90208C182.083 8.89061 182.097 8.88182 182.112 8.87634C182.128 8.87085 182.144 8.86881 182.16 8.87036" fill="black"/>
</g>
<defs>
<clipPath id="clip0_1_140">
<rect width="193.44" height="26.16" fill="white" transform="translate(0 0.320312)"/>
</clipPath>
</defs>
</svg>
