<svg width="194" height="27" viewBox="0 0 194 27" fill="none" xmlns="http://www.w3.org/2000/svg">
    <g clip-path="url(#clip0_1_126)">
        <path d="M12.67 0H0.5C0.367392 0 0.240215 0.052678 0.146447 0.146446C0.0526785 0.240214 0 0.367392 0 0.5V24.23C0.00256007 24.3618 0.0560606 24.4875 0.14928 24.5807C0.242499 24.6739 0.368193 24.7274 0.5 24.73H12.67C15.8885 24.6385 18.9445 23.2956 21.1887 20.9867C23.4329 18.6778 24.6883 15.5848 24.6883 12.365C24.6883 9.14517 23.4329 6.05222 21.1887 3.74332C18.9445 1.43442 15.8885 0.0915386 12.67 0V0ZM13.86 21C12.0187 21.3169 10.1242 21.0395 8.45107 20.2079C6.77789 19.3764 5.4128 18.0339 4.55347 16.3748C3.69414 14.7158 3.38516 12.8263 3.67129 10.9799C3.95741 9.1335 4.82378 7.42612 6.14495 6.10495C7.46612 4.78378 9.1735 3.91741 11.0199 3.63129C12.8663 3.34516 14.7558 3.65414 16.4148 4.51347C18.0739 5.3728 19.4164 6.73789 20.2479 8.41106C21.0795 10.0842 21.3569 11.9787 21.04 13.82C20.7316 15.6119 19.8757 17.2643 18.59 18.55C17.3043 19.8357 15.6519 20.6916 13.86 21"
              fill="#0062B8"/>
        <path d="M49.02 3.58998H53.1C53.1161 3.58843 53.1324 3.59047 53.1477 3.59595C53.163 3.60144 53.1768 3.61023 53.1883 3.6217C53.1998 3.63316 53.2085 3.64703 53.214 3.66229C53.2195 3.67755 53.2215 3.69384 53.22 3.70998V21.07C53.22 21.15 53.22 21.2 53.1 21.2H50.94C50.86 21.2 50.82 21.15 50.82 21.07V6.06998C50.82 5.98998 50.82 5.94998 50.68 5.94998C50.54 5.94998 50.52 5.94998 50.49 6.04998L46.11 21.05C46.0983 21.0958 46.0709 21.1359 46.0324 21.1634C45.994 21.1908 45.9471 21.2038 45.9 21.2H42.58C42.5388 21.2005 42.4984 21.1883 42.4644 21.1651C42.4304 21.1418 42.4044 21.1086 42.39 21.07L37.99 6.06998C37.9752 6.04219 37.9538 6.01851 37.9276 6.00106C37.9014 5.9836 37.8713 5.97292 37.84 5.96998C37.77 5.96998 37.74 5.96998 37.74 6.08998V21.09C37.7415 21.1074 37.7392 21.125 37.7332 21.1415C37.7272 21.1579 37.7177 21.1729 37.7053 21.1853C37.6929 21.1977 37.678 21.2072 37.6615 21.2132C37.645 21.2192 37.6275 21.2215 37.61 21.22H35.48C35.4 21.22 35.36 21.17 35.36 21.09V3.70998C35.3585 3.69384 35.3605 3.67755 35.366 3.66229C35.3715 3.64703 35.3803 3.63316 35.3917 3.6217C35.4032 3.61023 35.417 3.60144 35.4323 3.59595C35.4476 3.59047 35.4639 3.58843 35.48 3.58998H39.53C39.59 3.58998 39.65 3.58998 39.7 3.71998L44.16 18.72C44.1611 18.7341 44.1652 18.7479 44.1721 18.7603C44.1789 18.7727 44.1883 18.7836 44.1997 18.7921C44.211 18.8006 44.2241 18.8066 44.2379 18.8097C44.2518 18.8128 44.2661 18.8129 44.28 18.81C44.3089 18.8133 44.338 18.806 44.3619 18.7894C44.3858 18.7729 44.4029 18.7482 44.41 18.72L48.85 3.71998C48.8655 3.68693 48.8893 3.65849 48.9191 3.63744C48.9489 3.6164 48.9837 3.60349 49.02 3.59998"
              fill="#1E2B3C"/>
        <path d="M69.43 19.1901V21.0701C69.43 21.1501 69.43 21.2001 69.31 21.2001H68.41C67.12 21.2001 66.3 20.8301 65.94 20.0501C65.94 19.9201 65.82 19.9001 65.71 20.0001C65.2202 20.4496 64.6409 20.7904 64.01 21.0001C63.138 21.3116 62.2155 21.4575 61.29 21.4301C59.9532 21.5242 58.6268 21.1377 57.55 20.3401C57.1318 19.9971 56.798 19.5627 56.5743 19.0703C56.3506 18.5779 56.2431 18.0406 56.26 17.5001C56.2454 16.9518 56.3665 16.4084 56.6125 15.9182C56.8585 15.428 57.2217 15.0061 57.67 14.6901C58.8831 13.9137 60.3128 13.5458 61.75 13.6401H64.56C65.02 13.6401 65.29 13.5201 65.37 13.2901C65.45 13.0601 65.37 12.9601 65.37 12.5601C65.3329 12.0592 65.1446 11.5815 64.83 11.1901C64.47 10.6801 63.57 10.4101 62.12 10.3901C61.3064 10.325 60.4958 10.548 59.83 11.0201C59.5829 11.2208 59.3857 11.476 59.2538 11.7658C59.1219 12.0555 59.059 12.3719 59.07 12.6901C59.07 12.7701 59.07 12.8101 58.94 12.8101H56.83C56.8139 12.8116 56.7976 12.8096 56.7823 12.8041C56.767 12.7986 56.7532 12.7898 56.7417 12.7783C56.7302 12.7669 56.7215 12.753 56.716 12.7377C56.7105 12.7225 56.7084 12.7062 56.71 12.6901C56.6822 12.0586 56.8131 11.4302 57.0909 10.8625C57.3687 10.2947 57.7844 9.80565 58.3 9.44006C59.4817 8.65002 60.8789 8.24484 62.3 8.28006C63.7126 8.19978 65.108 8.62126 66.24 9.47006C66.751 9.88426 67.1562 10.414 67.4222 11.0156C67.6882 11.6172 67.8074 12.2734 67.77 12.9301V17.8301C67.7402 18.1745 67.8059 18.5205 67.96 18.8301C68.09 19.0201 68.38 19.1201 68.84 19.1201H69.31C69.3261 19.1185 69.3424 19.1205 69.3577 19.126C69.373 19.1315 69.3868 19.1403 69.3983 19.1518C69.4097 19.1632 69.4185 19.1771 69.424 19.1924C69.4295 19.2076 69.4315 19.2239 69.43 19.2401V19.1901ZM65.43 15.6901C65.43 15.6101 65.43 15.5701 65.3 15.5701H61.75C60.8858 15.5251 60.0273 15.7336 59.28 16.1701C59.0782 16.3253 58.9153 16.5254 58.8042 16.7545C58.6931 16.9836 58.6369 17.2355 58.64 17.4901C58.6395 17.7436 58.6949 17.9942 58.802 18.224C58.9091 18.4539 59.0655 18.6574 59.26 18.8201C59.8401 19.2354 60.5491 19.4304 61.26 19.3701C62.3812 19.4546 63.4909 19.0955 64.35 18.3701C64.664 18.0641 64.9141 17.6988 65.0858 17.2954C65.2574 16.892 65.3473 16.4585 65.35 16.0201L65.43 15.6901Z"
              fill="#1E2B3C"/>
        <path d="M81.87 12.82H79.72C79.7039 12.8215 79.6876 12.8195 79.6723 12.814C79.657 12.8085 79.6432 12.7997 79.6317 12.7882C79.6203 12.7768 79.6115 12.7629 79.606 12.7476C79.6005 12.7324 79.5985 12.7161 79.6 12.7C79.61 12.3769 79.5415 12.0561 79.4005 11.7653C79.2594 11.4745 79.0499 11.2221 78.79 11.03C78.1333 10.5883 77.35 10.3741 76.56 10.42C75.8293 10.3704 75.0999 10.5337 74.46 10.89C74.2623 11.0027 74.0963 11.1635 73.9774 11.3576C73.8585 11.5516 73.7906 11.7726 73.78 12C73.7583 12.1568 73.7743 12.3166 73.8264 12.4661C73.8786 12.6156 73.9655 12.7506 74.08 12.86C74.28 13.01 74.46 13.14 74.64 13.25C75.4429 13.4746 76.2677 13.612 77.1 13.66C78.2396 13.7594 79.3601 14.0151 80.43 14.42C81.0248 14.6526 81.5298 15.0691 81.8715 15.6086C82.2133 16.1482 82.3739 16.7828 82.33 17.42C82.3736 18.0225 82.2569 18.6258 81.9917 19.1686C81.7264 19.7113 81.3222 20.1742 80.82 20.51C79.5789 21.2331 78.1546 21.5805 76.72 21.51C75.2541 21.5963 73.806 21.1526 72.64 20.26C72.1736 19.8823 71.7996 19.4031 71.5465 18.8589C71.2935 18.3148 71.1681 17.72 71.18 17.12C71.18 17.03 71.18 16.99 71.3 16.99H73.41C73.51 16.99 73.56 16.99 73.56 17.12C73.5621 17.4438 73.6456 17.7619 73.8028 18.045C73.9601 18.3281 74.1861 18.5671 74.46 18.74C75.1622 19.1999 75.9914 19.4273 76.83 19.39C78.91 19.39 79.95 18.75 79.95 17.49C79.9565 17.3433 79.9332 17.1968 79.8817 17.0593C79.8301 16.9219 79.7513 16.7962 79.65 16.69C79.4761 16.5069 79.2645 16.3636 79.03 16.27L78.57 16.11C78.416 16.0675 78.2588 16.0374 78.1 16.02L77.46 15.91C77.2525 15.8693 77.0415 15.8492 76.83 15.85C75.5746 15.7437 74.3451 15.4329 73.19 14.93C72.493 14.6004 71.9363 14.0331 71.62 13.33C71.47 12.9028 71.3956 12.4527 71.4 12C71.4002 11.4777 71.5278 10.9633 71.7717 10.5015C72.0157 10.0397 72.3687 9.64445 72.8 9.34995C73.8947 8.58215 75.2146 8.20204 76.55 8.26995C77.9384 8.22281 79.3042 8.6301 80.44 9.42995C80.9407 9.80869 81.3397 10.3056 81.6015 10.8762C81.8632 11.4468 81.9795 12.0734 81.94 12.7C81.94 12.78 81.89 12.82 81.83 12.82"
              fill="#1E2B3C"/>
        <path d="M97.09 21.2H94.85C94.8024 21.1997 94.7556 21.1876 94.7138 21.165C94.6719 21.1423 94.6363 21.1097 94.61 21.07L90.61 14.25C90.61 14.18 90.5 14.18 90.42 14.25L87.58 16.69C87.5438 16.7351 87.5259 16.7922 87.53 16.85V21.07C87.5315 21.0874 87.5292 21.105 87.5232 21.1215C87.5172 21.1379 87.5077 21.1529 87.4953 21.1653C87.4829 21.1777 87.468 21.1872 87.4515 21.1932C87.435 21.1992 87.4175 21.2015 87.4 21.2H85.31C85.23 21.2 85.19 21.15 85.19 21.07V3.71997C85.19 3.62997 85.19 3.58997 85.31 3.58997H87.44C87.52 3.58997 87.56 3.58997 87.57 3.71997V13.52C87.57 13.52 87.57 13.57 87.63 13.59C87.6458 13.6021 87.6651 13.6087 87.685 13.6087C87.7049 13.6087 87.7243 13.6021 87.74 13.59L93.49 8.68997C93.5993 8.60784 93.7334 8.56551 93.87 8.56997H96.94C96.94 8.56997 96.94 8.56997 97.01 8.61997C97.08 8.66997 97.01 8.66997 97.01 8.68997L92.36 12.69C92.31 12.69 92.31 12.8 92.36 12.88L97.18 21.13C97.18 21.21 97.18 21.26 97.08 21.26"
              fill="#1E2B3C"/>
        <path d="M102.22 3.70998V6.33998C102.222 6.35839 102.219 6.37696 102.213 6.39426C102.206 6.41156 102.196 6.42711 102.182 6.43969C102.169 6.45228 102.152 6.46156 102.135 6.46681C102.117 6.47207 102.098 6.47315 102.08 6.46998H99.46C99.38 6.46998 99.34 6.46998 99.34 6.33998V3.70998C99.3385 3.69384 99.3405 3.67755 99.346 3.66229C99.3515 3.64703 99.3603 3.63316 99.3717 3.6217C99.3832 3.61023 99.397 3.60144 99.4123 3.59595C99.4276 3.59047 99.4439 3.58843 99.46 3.58998H102.08C102.17 3.58998 102.22 3.58998 102.22 3.70998ZM101.96 8.70998V21.11C101.962 21.1261 101.96 21.1424 101.954 21.1577C101.949 21.1729 101.94 21.1868 101.928 21.1983C101.917 21.2097 101.903 21.2185 101.888 21.224C101.872 21.2295 101.856 21.2315 101.84 21.23H99.7C99.6839 21.2315 99.6676 21.2295 99.6523 21.224C99.637 21.2185 99.6232 21.2097 99.6117 21.1983C99.6002 21.1868 99.5915 21.1729 99.586 21.1577C99.5805 21.1424 99.5785 21.1261 99.58 21.11V8.66998C99.5785 8.65384 99.5805 8.63755 99.586 8.62229C99.5915 8.60703 99.6002 8.59316 99.6117 8.5817C99.6232 8.57023 99.637 8.56144 99.6523 8.55595C99.6676 8.55047 99.6839 8.54843 99.7 8.54998H101.84C101.856 8.54843 101.872 8.55047 101.888 8.55595C101.903 8.56144 101.917 8.57023 101.928 8.5817C101.94 8.59316 101.949 8.60703 101.954 8.62229C101.96 8.63755 101.962 8.65384 101.96 8.66998"
              fill="#1E2B3C"/>
        <path d="M105.53 8.55005H107.41C107.41 8.55005 107.5 8.55005 107.53 8.67005L107.79 9.79005C107.795 9.8201 107.811 9.84715 107.835 9.86572C107.859 9.88429 107.89 9.89299 107.92 9.89005C107.949 9.89123 107.977 9.8855 108.004 9.87332C108.03 9.86113 108.052 9.84287 108.07 9.82005C108.441 9.31196 108.935 8.9055 109.504 8.63812C110.074 8.37074 110.702 8.25104 111.33 8.29005C112.078 8.25419 112.825 8.38445 113.516 8.67147C114.208 8.95848 114.827 9.39514 115.33 9.95005C116.307 11.1453 116.813 12.6574 116.75 14.2V21.07C116.75 21.15 116.75 21.19 116.62 21.19H114.49C114.474 21.1916 114.458 21.1896 114.442 21.1841C114.427 21.1786 114.413 21.1698 114.402 21.1583C114.39 21.1469 114.381 21.133 114.376 21.1177C114.37 21.1025 114.368 21.0862 114.37 21.07V14.2C114.403 13.2387 114.126 12.2922 113.58 11.5C113.297 11.137 112.929 10.8488 112.509 10.6605C112.089 10.4722 111.629 10.3897 111.17 10.42C110.694 10.3969 110.219 10.4852 109.784 10.6779C109.348 10.8706 108.963 11.1624 108.66 11.53C108.055 12.2862 107.736 13.2318 107.76 14.2V21.07C107.76 21.15 107.76 21.19 107.63 21.19H105.5C105.484 21.1916 105.468 21.1896 105.452 21.1841C105.437 21.1786 105.423 21.1698 105.412 21.1583C105.4 21.1469 105.391 21.133 105.386 21.1177C105.38 21.1025 105.378 21.0862 105.38 21.07V8.67005C105.378 8.65391 105.38 8.63762 105.386 8.62236C105.391 8.60709 105.4 8.59323 105.412 8.58176C105.423 8.5703 105.437 8.56151 105.452 8.55602C105.468 8.55054 105.484 8.5485 105.5 8.55005"
              fill="#1E2B3C"/>
        <path d="M119.94 8.55003H121.82C121.82 8.55003 121.91 8.55003 121.94 8.67003L122.2 9.67003C122.2 9.73003 122.27 9.77003 122.32 9.77003C122.345 9.76884 122.37 9.76077 122.391 9.74667C122.412 9.73258 122.429 9.713 122.44 9.69003C122.89 9.24808 123.428 8.90715 124.02 8.69003C124.652 8.41643 125.331 8.26705 126.02 8.25003C126.833 8.21621 127.643 8.36174 128.393 8.67628C129.143 8.99083 129.815 9.46668 130.36 10.07C131.481 11.4092 132.046 13.1269 131.94 14.87C132.023 16.6047 131.444 18.3061 130.32 19.63C129.774 20.2327 129.103 20.7074 128.352 21.0203C127.602 21.3332 126.792 21.4765 125.98 21.44C125.22 21.4414 124.471 21.2668 123.79 20.93C123.281 20.703 122.812 20.3958 122.4 20.02C122.381 19.9941 122.355 19.9745 122.324 19.9638C122.294 19.9531 122.261 19.9518 122.23 19.96C122.209 19.9697 122.191 19.9852 122.179 20.0047C122.166 20.0242 122.16 20.0469 122.16 20.07V26.07C122.16 26.15 122.11 26.19 122.02 26.2H119.94C119.86 26.2 119.82 26.2 119.82 26.07V8.67003C119.818 8.65389 119.82 8.6376 119.826 8.62234C119.831 8.60708 119.84 8.59322 119.852 8.58175C119.863 8.57028 119.877 8.56149 119.892 8.55601C119.908 8.55052 119.924 8.54848 119.94 8.55003V8.55003ZM129.6 14.87C129.658 13.7122 129.304 12.5713 128.6 11.65C128.266 11.2461 127.843 10.9249 127.364 10.7116C126.885 10.4982 126.364 10.3984 125.84 10.42C125.329 10.3913 124.819 10.4874 124.354 10.7C123.889 10.9126 123.483 11.2352 123.17 11.64C122.502 12.5801 122.171 13.7182 122.23 14.87C122.176 16.0196 122.51 17.154 123.18 18.09C123.492 18.4928 123.897 18.8141 124.36 19.0265C124.823 19.2389 125.331 19.3362 125.84 19.31C126.364 19.3301 126.885 19.2296 127.363 19.0164C127.842 18.8031 128.265 18.4828 128.6 18.08C129.302 17.1619 129.657 16.0246 129.6 14.87"
              fill="#1E2B3C"/>
        <path d="M146.64 14.87C146.718 16.621 146.108 18.333 144.94 19.64C143.709 20.7959 142.084 21.4393 140.395 21.4393C138.706 21.4393 137.081 20.7959 135.85 19.64C134.704 18.3232 134.112 16.6135 134.2 14.87C134.139 13.1145 134.763 11.404 135.94 10.1C136.522 9.48951 137.229 9.01244 138.012 8.70168C138.796 8.39092 139.638 8.25387 140.48 8.29999C141.307 8.26932 142.132 8.41282 142.9 8.72118C143.668 9.02954 144.363 9.49588 144.94 10.09C146.09 11.4089 146.685 13.122 146.6 14.87H146.64ZM143.19 18.08C143.899 17.1651 144.254 16.0254 144.19 14.87C144.254 13.7145 143.899 12.5749 143.19 11.66C142.853 11.2545 142.426 10.9325 141.944 10.7191C141.462 10.5058 140.937 10.4068 140.41 10.43C139.883 10.4086 139.358 10.5073 138.874 10.7186C138.391 10.93 137.962 11.2485 137.62 11.65C136.909 12.5675 136.554 13.7112 136.62 14.87C136.553 16.0259 136.908 17.1668 137.62 18.08C137.973 18.4672 138.403 18.7765 138.883 18.9881C139.362 19.1997 139.881 19.309 140.405 19.309C140.929 19.309 141.448 19.1997 141.927 18.9881C142.407 18.7765 142.837 18.4672 143.19 18.08"
              fill="#1E2B3C"/>
        <path d="M156.38 10.4201H155.11C154.651 10.404 154.195 10.4961 153.778 10.6889C153.361 10.8817 152.995 11.1699 152.71 11.5301C152.1 12.2829 151.783 13.2316 151.82 14.2001V21.0701C151.82 21.1501 151.82 21.1901 151.68 21.1901H149.56C149.544 21.1916 149.528 21.1896 149.512 21.1841C149.497 21.1786 149.483 21.1698 149.472 21.1583C149.46 21.1469 149.451 21.133 149.446 21.1177C149.44 21.1025 149.438 21.0862 149.44 21.0701V8.67006C149.438 8.65391 149.44 8.63763 149.446 8.62236C149.451 8.6071 149.46 8.59324 149.472 8.58177C149.483 8.5703 149.497 8.56151 149.512 8.55603C149.528 8.55055 149.544 8.54851 149.56 8.55006H151.44C151.493 8.55006 151.533 8.59006 151.56 8.67006L151.82 9.79006C151.82 9.94006 151.95 9.95006 152.08 9.79006C152.455 9.35012 152.913 8.98851 153.427 8.72595C153.942 8.4634 154.504 8.30507 155.08 8.26006H156.35C156.367 8.25869 156.384 8.26072 156.401 8.26602C156.417 8.27132 156.432 8.27979 156.445 8.29094C156.458 8.30209 156.469 8.31571 156.476 8.331C156.484 8.3463 156.489 8.36297 156.49 8.38006V10.2601C156.49 10.278 156.486 10.2958 156.479 10.3122C156.472 10.3287 156.462 10.3435 156.448 10.3557C156.435 10.3679 156.42 10.3773 156.403 10.3832C156.386 10.3891 156.368 10.3914 156.35 10.3901"
              fill="#1E2B3C"/>
        <path d="M165.35 19.19V21.07C165.352 21.0875 165.349 21.1051 165.343 21.1215C165.337 21.138 165.328 21.153 165.315 21.1654C165.303 21.1777 165.288 21.1873 165.271 21.1933C165.255 21.1993 165.237 21.2016 165.22 21.2H163.3C161.12 21.2 160.03 20.26 160.02 18.2V10.55C160.02 10.47 160.02 10.42 159.9 10.42H157.68C157.59 10.42 157.55 10.42 157.55 10.29V8.67004C157.55 8.59004 157.55 8.55004 157.68 8.55004H159.94C160.02 8.55004 160.06 8.55004 160.06 8.41004V5.05004C160.06 4.96004 160.06 4.92004 160.19 4.92004H162.32C162.4 4.92004 162.44 4.92004 162.44 5.05004V8.41004C162.437 8.42739 162.438 8.44517 162.443 8.46213C162.447 8.47908 162.456 8.49479 162.467 8.50815C162.479 8.52151 162.493 8.53219 162.509 8.53943C162.525 8.54667 162.542 8.55029 162.56 8.55004H165.26C165.34 8.55004 165.39 8.55004 165.39 8.67004V10.29C165.39 10.38 165.39 10.42 165.26 10.42H162.56C162.48 10.42 162.44 10.42 162.44 10.55V17.83C162.44 18.66 162.89 19.07 163.79 19.07H165.26C165.35 19.07 165.39 19.07 165.39 19.19"
              fill="#1E2B3C"/>
        <path d="M178.99 14.87C178.99 15.43 178.93 15.71 178.81 15.71H169.67C169.59 15.71 169.55 15.71 169.55 15.85C169.546 16.3146 169.635 16.7752 169.814 17.2041C169.993 17.633 170.256 18.0213 170.589 18.3455C170.921 18.6698 171.316 18.9233 171.75 19.0908C172.183 19.2583 172.646 19.3363 173.11 19.32C173.753 19.3698 174.396 19.2307 174.961 18.9198C175.526 18.6089 175.988 18.1398 176.29 17.57C176.299 17.5348 176.32 17.5038 176.349 17.482C176.378 17.4601 176.414 17.4489 176.45 17.45H178.51C178.597 17.45 178.637 17.49 178.63 17.57C178.349 18.7418 177.634 19.7636 176.63 20.43C175.569 21.1259 174.318 21.4753 173.05 21.43C172.242 21.4655 171.437 21.3216 170.692 21.0086C169.947 20.6957 169.28 20.2214 168.74 19.62C167.622 18.2855 167.047 16.579 167.13 14.84C167.046 13.1187 167.594 11.426 168.67 10.08C169.225 9.4716 169.909 8.99506 170.672 8.68533C171.435 8.3756 172.258 8.24054 173.08 8.29004C173.898 8.23635 174.718 8.36962 175.476 8.67976C176.235 8.9899 176.914 9.46876 177.46 10.08C178.514 11.443 179.043 13.1395 178.95 14.86L178.99 14.87ZM176.57 13.71C176.561 12.8699 176.245 12.0622 175.68 11.44C174.973 10.7697 174.031 10.4036 173.057 10.4204C172.082 10.4373 171.154 10.8357 170.47 11.53C169.878 12.1078 169.522 12.8846 169.47 13.71C169.47 13.8 169.47 13.84 169.59 13.84H176.41C176.49 13.84 176.53 13.84 176.53 13.71"
              fill="#1E2B3C"/>
        <path d="M182.19 8.55005H184.07C184.123 8.55005 184.163 8.59005 184.19 8.67005L184.45 9.79005C184.455 9.8201 184.471 9.84715 184.495 9.86572C184.519 9.88429 184.55 9.89299 184.58 9.89005C184.609 9.89123 184.637 9.8855 184.664 9.87332C184.69 9.86113 184.712 9.84287 184.73 9.82005C185.101 9.31196 185.595 8.9055 186.164 8.63812C186.734 8.37074 187.362 8.25104 187.99 8.29005C188.738 8.25419 189.485 8.38445 190.176 8.67147C190.868 8.95848 191.487 9.39514 191.99 9.95005C192.967 11.1453 193.473 12.6574 193.41 14.2V21.07C193.41 21.15 193.41 21.19 193.28 21.19H191.15C191.134 21.1916 191.118 21.1896 191.102 21.1841C191.087 21.1786 191.073 21.1698 191.062 21.1583C191.05 21.1469 191.041 21.133 191.036 21.1177C191.03 21.1025 191.028 21.0862 191.03 21.07V14.2C191.063 13.2387 190.786 12.2922 190.24 11.5C189.957 11.137 189.589 10.8488 189.169 10.6605C188.749 10.4722 188.289 10.3897 187.83 10.42C187.354 10.3969 186.879 10.4852 186.444 10.6779C186.008 10.8706 185.623 11.1624 185.32 11.53C184.715 12.2862 184.396 13.2318 184.42 14.2V21.07C184.42 21.15 184.42 21.19 184.29 21.19H182.16C182.144 21.1916 182.128 21.1896 182.112 21.1841C182.097 21.1786 182.083 21.1698 182.072 21.1583C182.06 21.1469 182.051 21.133 182.046 21.1177C182.04 21.1025 182.038 21.0862 182.04 21.07V8.67005C182.038 8.65391 182.04 8.63762 182.046 8.62236C182.051 8.60709 182.06 8.59323 182.072 8.58176C182.083 8.5703 182.097 8.56151 182.112 8.55602C182.128 8.55054 182.144 8.5485 182.16 8.55005"
              fill="#1E2B3C"/>
    </g>
    <defs>
        <clipPath id="clip0_1_126">
            <rect width="193.44" height="26.16" fill="white"/>
        </clipPath>
    </defs>
</svg>
