<svg width="194" height="27" viewBox="0 0 194 27" fill="none" xmlns="http://www.w3.org/2000/svg">
<g clip-path="url(#clip0_129_290)">
<path d="M12.7067 0H0.501448C0.368455 0 0.24091 0.0528306 0.146871 0.14687C0.052831 0.24091 0 0.368455 0 0.501448V24.3002C0.00256749 24.4323 0.0562229 24.5584 0.149712 24.6519C0.243201 24.7454 0.369259 24.799 0.501448 24.8016H12.7067C15.9345 24.7098 18.9994 23.363 21.25 21.0474C23.5007 18.7319 24.7598 15.63 24.7598 12.4008C24.7598 9.17165 23.5007 6.06974 21.25 3.75416C18.9994 1.43857 15.9345 0.0918036 12.7067 0ZM13.9001 21.0608C12.0535 21.3786 10.1536 21.1004 8.47553 20.2665C6.79751 19.4325 5.42847 18.0861 4.56665 16.4223C3.70483 14.7584 3.39496 12.8634 3.68192 11.0117C3.96887 9.15995 4.83775 7.44762 6.16274 6.12263C7.48773 4.79763 9.20006 3.92875 11.0518 3.6418C12.9035 3.35485 14.7985 3.66472 16.4624 4.52654C18.1262 5.38836 19.4726 6.7574 20.3066 8.43542C21.1405 10.1134 21.4187 12.0133 21.1009 13.86C20.7916 15.6571 19.9333 17.3143 18.6439 18.6037C17.3544 19.8932 15.6972 20.7515 13.9001 21.0608Z" fill="white"/>
<path d="M49.1618 3.60037H53.2536C53.2698 3.59882 53.2861 3.60087 53.3014 3.60637C53.3168 3.61187 53.3307 3.62068 53.3422 3.63218C53.3537 3.64368 53.3625 3.65758 53.368 3.67289C53.3735 3.6882 53.3755 3.70453 53.374 3.72072V21.131C53.374 21.2112 53.374 21.2614 53.2536 21.2614H51.0874C51.0071 21.2614 50.967 21.2112 50.967 21.131V6.08755C50.967 6.00732 50.967 5.96721 50.8266 5.96721C50.6862 5.96721 50.6661 5.96721 50.6361 6.0675L46.2434 21.1109C46.2317 21.1568 46.2041 21.1971 46.1656 21.2247C46.127 21.2522 46.08 21.2652 46.0328 21.2614H42.7032C42.6618 21.2619 42.6213 21.2497 42.5872 21.2263C42.5531 21.203 42.5271 21.1697 42.5126 21.131L38.0999 6.08755C38.0851 6.05969 38.0636 6.03594 38.0373 6.01843C38.011 6.00093 37.9809 5.99022 37.9494 5.98726C37.8792 5.98726 37.8491 5.98726 37.8491 6.10761V21.151C37.8507 21.1685 37.8484 21.1862 37.8423 21.2027C37.8363 21.2192 37.8268 21.2342 37.8144 21.2466C37.8019 21.2591 37.7869 21.2686 37.7704 21.2746C37.7539 21.2806 37.7363 21.2829 37.7188 21.2814H35.5826C35.5024 21.2814 35.4623 21.2313 35.4623 21.151V3.72072C35.4607 3.70453 35.4627 3.6882 35.4682 3.67289C35.4737 3.65758 35.4826 3.64368 35.4941 3.63218C35.5056 3.62068 35.5195 3.61187 35.5348 3.60637C35.5501 3.60087 35.5664 3.59882 35.5826 3.60037H39.6443C39.7045 3.60037 39.7647 3.60037 39.8148 3.73075L44.2877 18.7742C44.2889 18.7884 44.293 18.8021 44.2999 18.8146C44.3067 18.8271 44.3162 18.8379 44.3275 18.8465C44.3389 18.855 44.352 18.861 44.3659 18.8641C44.3798 18.8672 44.3941 18.8673 44.4081 18.8644C44.4371 18.8677 44.4663 18.8604 44.4902 18.8438C44.5142 18.8272 44.5314 18.8025 44.5385 18.7742L48.9913 3.73075C49.0068 3.69761 49.0307 3.66908 49.0606 3.64797C49.0905 3.62687 49.1254 3.61392 49.1618 3.6104" fill="white"/>
<path d="M69.631 19.2456V21.1311C69.631 21.2113 69.631 21.2614 69.5107 21.2614H68.6081C67.3144 21.2614 66.492 20.8904 66.1309 20.1081C66.1309 19.9777 66.0106 19.9577 65.9003 20.058C65.4091 20.5088 64.8281 20.8506 64.1954 21.0609C63.3209 21.3733 62.3957 21.5196 61.4675 21.4921C60.1269 21.5866 58.7966 21.1989 57.7166 20.3989C57.2972 20.055 56.9624 19.6193 56.7381 19.1255C56.5138 18.6316 56.406 18.0929 56.4229 17.5507C56.4083 17.0009 56.5297 16.4559 56.7764 15.9643C57.0231 15.4726 57.3874 15.0495 57.837 14.7326C59.0537 13.954 60.4875 13.585 61.9288 13.6795H64.7469C65.2083 13.6795 65.4791 13.5592 65.5593 13.3285C65.6395 13.0979 65.5593 12.9976 65.5593 12.5964C65.522 12.0942 65.3332 11.615 65.0177 11.2225C64.6567 10.711 63.7541 10.4402 62.2999 10.4201C61.4839 10.3549 60.671 10.5785 60.0032 11.052C59.7554 11.2533 59.5576 11.5092 59.4254 11.7998C59.2931 12.0904 59.23 12.4077 59.241 12.7268C59.241 12.807 59.241 12.8471 59.1107 12.8471H56.9946C56.9784 12.8487 56.962 12.8467 56.9467 12.8412C56.9314 12.8357 56.9175 12.8268 56.906 12.8153C56.8945 12.8038 56.8857 12.7899 56.8802 12.7746C56.8747 12.7593 56.8727 12.743 56.8742 12.7268C56.8463 12.0935 56.9776 11.4633 57.2562 10.8939C57.5348 10.3245 57.9517 9.83404 58.4688 9.46739C59.654 8.67506 61.0552 8.26871 62.4804 8.30403C63.8971 8.22352 65.2966 8.64622 66.4318 9.49748C66.9443 9.91288 67.3506 10.4441 67.6174 11.0475C67.8842 11.6508 68.0038 12.3089 67.9662 12.9675V17.8817C67.9363 18.2271 68.0023 18.5742 68.1568 18.8846C68.2872 19.0751 68.578 19.1754 69.0393 19.1754H69.5107C69.5269 19.1739 69.5432 19.1759 69.5585 19.1814C69.5738 19.1869 69.5877 19.1957 69.5992 19.2072C69.6107 19.2187 69.6196 19.2326 69.6251 19.2479C69.6305 19.2632 69.6326 19.2796 69.631 19.2958V19.2456ZM65.6195 15.7355C65.6195 15.6553 65.6195 15.6151 65.4891 15.6151H61.9288C61.0621 15.57 60.2011 15.7792 59.4517 16.2169C59.2492 16.3726 59.0859 16.5732 58.9745 16.803C58.8631 17.0328 58.8067 17.2854 58.8098 17.5407C58.8094 17.795 58.8648 18.0463 58.9723 18.2768C59.0797 18.5073 59.2365 18.7114 59.4316 18.8745C60.0133 19.2911 60.7245 19.4866 61.4374 19.4261C62.5619 19.5109 63.6747 19.1507 64.5363 18.4232C64.8513 18.1164 65.1021 17.75 65.2742 17.3455C65.4464 16.9409 65.5365 16.5061 65.5392 16.0664L65.6195 15.7355Z" fill="white"/>
<path d="M82.107 12.8571H79.9508C79.9346 12.8586 79.9183 12.8566 79.9029 12.8511C79.8876 12.8456 79.8737 12.8368 79.8622 12.8253C79.8507 12.8138 79.8419 12.7999 79.8364 12.7846C79.8309 12.7692 79.8289 12.7529 79.8304 12.7367C79.8405 12.4127 79.7718 12.0911 79.6303 11.7994C79.4888 11.5077 79.2788 11.2546 79.0181 11.0619C78.3595 10.619 77.5739 10.4041 76.7816 10.4501C76.0488 10.4005 75.3173 10.5642 74.6755 10.9215C74.4773 11.0345 74.3108 11.1958 74.1915 11.3905C74.0723 11.5851 74.0042 11.8067 73.9936 12.0347C73.9719 12.192 73.9878 12.3522 74.0401 12.5022C74.0924 12.6521 74.1796 12.7875 74.2944 12.8972C74.495 13.0476 74.6755 13.178 74.8561 13.2883C75.6613 13.5136 76.4884 13.6514 77.3232 13.6995C78.4661 13.7992 79.5898 14.0557 80.6628 14.4617C81.2594 14.6951 81.7658 15.1127 82.1086 15.6538C82.4513 16.195 82.6124 16.8314 82.5683 17.4704C82.6121 18.0747 82.495 18.6797 82.229 19.2241C81.963 19.7684 81.5576 20.2326 81.054 20.5693C79.8093 21.2946 78.3809 21.643 76.9421 21.5722C75.4719 21.6588 74.0196 21.2139 72.8503 20.3186C72.3825 19.9399 72.0074 19.4593 71.7537 18.9135C71.4999 18.3678 71.3742 17.7713 71.3861 17.1695C71.3861 17.0793 71.3861 17.0391 71.5064 17.0391H73.6225C73.7228 17.0391 73.7729 17.0391 73.7729 17.1695C73.775 17.4943 73.8588 17.8134 74.0165 18.0973C74.1742 18.3812 74.4009 18.6209 74.6755 18.7942C75.3798 19.2555 76.2113 19.4836 77.0524 19.4461C79.1384 19.4461 80.1814 18.8042 80.1814 17.5406C80.1879 17.3935 80.1646 17.2466 80.1129 17.1087C80.0612 16.9709 79.9822 16.8449 79.8806 16.7383C79.7061 16.5546 79.494 16.411 79.2588 16.3171L78.7974 16.1566C78.643 16.114 78.4854 16.0838 78.3261 16.0663L77.6842 15.956C77.4761 15.9152 77.2645 15.895 77.0524 15.8958C75.7934 15.7893 74.5603 15.4776 73.4019 14.9732C72.7028 14.6427 72.1445 14.0737 71.8273 13.3685C71.6769 12.9401 71.6023 12.4888 71.6067 12.0347C71.6069 11.5109 71.7348 10.9951 71.9795 10.5319C72.2242 10.0688 72.5782 9.67237 73.0107 9.37703C74.1087 8.607 75.4323 8.22579 76.7716 8.2939C78.164 8.24661 79.5338 8.65508 80.6729 9.45726C81.175 9.83709 81.5752 10.3354 81.8377 10.9077C82.1002 11.48 82.2169 12.1084 82.1772 12.7367C82.1772 12.817 82.1271 12.8571 82.0669 12.8571" fill="white"/>
<path d="M97.371 21.2613H95.1246C95.0768 21.261 95.0299 21.249 94.9879 21.2262C94.9459 21.2035 94.9102 21.1708 94.8839 21.131L90.8723 14.2912C90.8723 14.221 90.762 14.221 90.6817 14.2912L87.8335 16.7383C87.7972 16.7836 87.7793 16.8409 87.7834 16.8988V21.131C87.7849 21.1485 87.7826 21.1661 87.7766 21.1826C87.7706 21.1991 87.761 21.2141 87.7486 21.2266C87.7361 21.239 87.7211 21.2485 87.7046 21.2545C87.6881 21.2606 87.6705 21.2629 87.653 21.2613H85.5569C85.4767 21.2613 85.4366 21.2112 85.4366 21.131V3.73074C85.4366 3.64048 85.4366 3.60036 85.5569 3.60036H87.6931C87.7733 3.60036 87.8134 3.60036 87.8235 3.73074V13.5591C87.8235 13.5591 87.8235 13.6093 87.8837 13.6293C87.8995 13.6415 87.9189 13.6481 87.9388 13.6481C87.9588 13.6481 87.9782 13.6415 87.994 13.6293L93.7606 8.71513C93.8702 8.63276 94.0047 8.59031 94.1417 8.59478H97.2206C97.2206 8.59478 97.2206 8.59478 97.2908 8.64492C97.361 8.69507 97.2908 8.69507 97.2908 8.71513L92.6273 12.7267C92.5772 12.7267 92.5772 12.837 92.6273 12.9173L97.4613 21.1911C97.4613 21.2714 97.4613 21.3215 97.361 21.3215" fill="white"/>
<path d="M102.516 3.72072V6.35834C102.518 6.3768 102.515 6.39543 102.509 6.41277C102.502 6.43012 102.492 6.44572 102.478 6.45834C102.464 6.47096 102.448 6.48027 102.43 6.48554C102.412 6.49081 102.394 6.49189 102.375 6.48871H99.7478C99.6676 6.48871 99.6275 6.48871 99.6275 6.35834V3.72072C99.6259 3.70453 99.628 3.6882 99.6335 3.67289C99.639 3.65758 99.6478 3.64368 99.6593 3.63218C99.6708 3.62068 99.6847 3.61187 99.7 3.60637C99.7153 3.60087 99.7316 3.59882 99.7478 3.60037H102.375C102.466 3.60037 102.516 3.60037 102.516 3.72072ZM102.255 8.7352V21.1711C102.257 21.1873 102.255 21.2036 102.249 21.2189C102.244 21.2342 102.235 21.2481 102.223 21.2596C102.212 21.2711 102.198 21.28 102.183 21.2855C102.167 21.291 102.151 21.293 102.135 21.2914H99.9885C99.9723 21.293 99.956 21.291 99.9407 21.2855C99.9254 21.28 99.9115 21.2711 99.9 21.2596C99.8885 21.2481 99.8797 21.2342 99.8742 21.2189C99.8687 21.2036 99.8666 21.1873 99.8682 21.1711V8.69508C99.8666 8.67889 99.8687 8.66256 99.8742 8.64725C99.8797 8.63194 99.8885 8.61804 99.9 8.60654C99.9115 8.59504 99.9254 8.58623 99.9407 8.58073C99.956 8.57523 99.9723 8.57318 99.9885 8.57473H102.135C102.151 8.57318 102.167 8.57523 102.183 8.58073C102.198 8.58623 102.212 8.59504 102.223 8.60654C102.235 8.61804 102.244 8.63194 102.249 8.64725C102.255 8.66256 102.257 8.67889 102.255 8.69508" fill="white"/>
<path d="M105.835 8.5748H107.721C107.721 8.5748 107.811 8.5748 107.841 8.69515L108.102 9.81839C108.107 9.84853 108.123 9.87566 108.147 9.89429C108.172 9.91291 108.202 9.92163 108.232 9.91868C108.261 9.91987 108.29 9.91412 108.316 9.9019C108.342 9.88969 108.365 9.87136 108.383 9.84848C108.755 9.33892 109.25 8.93128 109.821 8.66313C110.393 8.39497 111.022 8.27493 111.652 8.31405C112.402 8.27808 113.151 8.40872 113.845 8.69657C114.538 8.98442 115.16 9.42234 115.664 9.97886C116.644 11.1776 117.151 12.694 117.088 14.2412V21.1311C117.088 21.2113 117.088 21.2514 116.958 21.2514H114.821C114.805 21.253 114.789 21.2509 114.774 21.2454C114.758 21.2399 114.744 21.2311 114.733 21.2196C114.721 21.2081 114.713 21.1942 114.707 21.1789C114.702 21.1636 114.699 21.1472 114.701 21.1311V14.2412C114.734 13.277 114.456 12.3278 113.909 11.5333C113.625 11.1692 113.256 10.8802 112.835 10.6914C112.414 10.5026 111.952 10.4198 111.492 10.4502C111.014 10.427 110.538 10.5155 110.101 10.7088C109.664 10.9021 109.278 11.1947 108.974 11.5634C108.368 12.3218 108.048 13.2701 108.072 14.2412V21.1311C108.072 21.2113 108.072 21.2514 107.942 21.2514H105.805C105.789 21.253 105.773 21.2509 105.758 21.2454C105.742 21.2399 105.728 21.2311 105.717 21.2196C105.705 21.2081 105.696 21.1942 105.691 21.1789C105.685 21.1636 105.683 21.1472 105.685 21.1311V8.69515C105.683 8.67896 105.685 8.66263 105.691 8.64732C105.696 8.63201 105.705 8.61811 105.717 8.60661C105.728 8.59511 105.742 8.58629 105.758 8.5808C105.773 8.5753 105.789 8.57325 105.805 8.5748" fill="white"/>
<path d="M120.287 8.57479H122.173C122.173 8.57479 122.263 8.57479 122.293 8.69513L122.554 9.69803C122.554 9.7582 122.624 9.79832 122.674 9.79832C122.699 9.79713 122.724 9.78903 122.745 9.77489C122.766 9.76076 122.783 9.74112 122.794 9.71809C123.245 9.27486 123.785 8.93294 124.379 8.71519C125.013 8.4408 125.694 8.29098 126.385 8.27392C127.2 8.23999 128.012 8.38595 128.764 8.7014C129.517 9.01686 130.19 9.49409 130.737 10.0992C131.861 11.4422 132.429 13.1649 132.322 14.9131C132.405 16.6528 131.824 18.3591 130.697 19.6869C130.15 20.2913 129.476 20.7673 128.724 21.0811C127.971 21.3949 127.159 21.5387 126.345 21.5021C125.583 21.5034 124.831 21.3284 124.148 20.9906C123.638 20.7629 123.167 20.4548 122.754 20.078C122.735 20.052 122.709 20.0323 122.678 20.0216C122.648 20.0109 122.615 20.0096 122.584 20.0178C122.563 20.0275 122.545 20.043 122.532 20.0626C122.52 20.0822 122.513 20.1049 122.514 20.1281V26.1455C122.514 26.2257 122.463 26.2659 122.373 26.2759H120.287C120.207 26.2759 120.167 26.2759 120.167 26.1455V8.69513C120.165 8.67894 120.167 8.66261 120.173 8.6473C120.178 8.632 120.187 8.6181 120.199 8.60659C120.21 8.59509 120.224 8.58628 120.239 8.58078C120.255 8.57528 120.271 8.57323 120.287 8.57479ZM129.975 14.9131C130.033 13.7519 129.678 12.6077 128.972 11.6838C128.637 11.2787 128.213 10.9566 127.733 10.7426C127.253 10.5286 126.729 10.4285 126.204 10.4502C125.692 10.4214 125.181 10.5178 124.714 10.731C124.248 10.9442 123.84 11.2677 123.526 11.6737C122.856 12.6165 122.524 13.7579 122.584 14.9131C122.529 16.066 122.865 17.2036 123.536 18.1424C123.85 18.5463 124.256 18.8685 124.72 19.0816C125.185 19.2946 125.694 19.3922 126.204 19.3659C126.729 19.3861 127.252 19.2853 127.732 19.0714C128.212 18.8576 128.636 18.5363 128.972 18.1324C129.676 17.2115 130.032 16.071 129.975 14.9131Z" fill="white"/>
<path d="M147.064 14.913C147.143 16.6691 146.531 18.3861 145.36 19.6968C144.125 20.8561 142.495 21.5013 140.801 21.5013C139.108 21.5013 137.478 20.8561 136.243 19.6968C135.094 18.3762 134.501 16.6616 134.588 14.913C134.527 13.1524 135.153 11.4371 136.333 10.1292C136.917 9.51698 137.626 9.03853 138.412 8.72687C139.198 8.41522 140.042 8.27777 140.887 8.32402C141.716 8.29327 142.543 8.43718 143.314 8.74643C144.084 9.05568 144.781 9.52337 145.36 10.1192C146.513 11.4419 147.11 13.16 147.024 14.913H147.064ZM143.604 18.1323C144.315 17.2148 144.671 16.0718 144.607 14.913C144.671 13.7542 144.315 12.6113 143.604 11.6937C143.266 11.2871 142.839 10.9642 142.355 10.7502C141.871 10.5362 141.345 10.4369 140.816 10.4602C140.288 10.4387 139.761 10.5377 139.276 10.7497C138.792 10.9616 138.361 11.281 138.018 11.6837C137.305 12.6039 136.949 13.7509 137.015 14.913C136.948 16.0723 137.304 17.2165 138.018 18.1323C138.373 18.5207 138.804 18.8308 139.285 19.0431C139.766 19.2553 140.286 19.3649 140.811 19.3649C141.337 19.3649 141.857 19.2553 142.338 19.0431C142.819 18.8308 143.25 18.5207 143.604 18.1323Z" fill="white"/>
<path d="M156.833 10.4502H155.559C155.099 10.4341 154.641 10.5265 154.223 10.7199C153.805 10.9132 153.438 11.2022 153.152 11.5634C152.54 12.3184 152.223 13.2699 152.26 14.2412V21.1311C152.26 21.2113 152.26 21.2514 152.119 21.2514H149.993C149.977 21.253 149.96 21.2509 149.945 21.2454C149.93 21.2399 149.916 21.2311 149.904 21.2196C149.893 21.2081 149.884 21.1942 149.879 21.1789C149.873 21.1636 149.871 21.1472 149.873 21.1311V8.69516C149.871 8.67897 149.873 8.66263 149.879 8.64733C149.884 8.63202 149.893 8.61812 149.904 8.60662C149.916 8.59512 149.93 8.5863 149.945 8.5808C149.96 8.5753 149.977 8.57326 149.993 8.57481H151.878C151.932 8.57481 151.972 8.61493 151.999 8.69516L152.26 9.8184C152.26 9.96884 152.39 9.97887 152.52 9.8184C152.896 9.37719 153.355 9.01453 153.872 8.75122C154.388 8.4879 154.951 8.32912 155.529 8.28397H156.803C156.82 8.2826 156.837 8.28463 156.853 8.28995C156.87 8.29527 156.885 8.30376 156.898 8.31494C156.911 8.32613 156.922 8.33978 156.929 8.35512C156.937 8.37046 156.942 8.38718 156.943 8.40432V10.2898C156.943 10.3078 156.939 10.3256 156.932 10.3421C156.925 10.3586 156.915 10.3734 156.901 10.3857C156.888 10.3979 156.873 10.4073 156.856 10.4132C156.839 10.4192 156.821 10.4215 156.803 10.4201" fill="white"/>
<path d="M165.829 19.2456V21.131C165.83 21.1486 165.828 21.1662 165.822 21.1827C165.816 21.1992 165.806 21.2142 165.794 21.2266C165.781 21.2391 165.766 21.2486 165.75 21.2546C165.733 21.2606 165.716 21.263 165.698 21.2614H163.773C161.586 21.2614 160.493 20.3187 160.483 18.2527V10.5806C160.483 10.5004 160.483 10.4502 160.363 10.4502H158.136C158.046 10.4502 158.006 10.4502 158.006 10.3198V8.69515C158.006 8.61491 158.006 8.5748 158.136 8.5748H160.403C160.483 8.5748 160.523 8.5748 160.523 8.43439V5.06467C160.523 4.9744 160.523 4.93429 160.654 4.93429H162.79C162.87 4.93429 162.91 4.93429 162.91 5.06467V8.43439C162.907 8.45179 162.908 8.46962 162.913 8.48663C162.918 8.50363 162.926 8.51939 162.937 8.53278C162.949 8.54618 162.963 8.55689 162.979 8.56415C162.995 8.57141 163.013 8.57505 163.03 8.5748H165.738C165.819 8.5748 165.869 8.5748 165.869 8.69515V10.3198C165.869 10.4101 165.869 10.4502 165.738 10.4502H163.03C162.95 10.4502 162.91 10.4502 162.91 10.5806V17.8817C162.91 18.7141 163.361 19.1253 164.264 19.1253H165.738C165.829 19.1253 165.869 19.1253 165.869 19.2456" fill="white"/>
<path d="M179.508 14.9131C179.508 15.4747 179.448 15.7555 179.328 15.7555H170.161C170.081 15.7555 170.041 15.7555 170.041 15.8959C170.037 16.3618 170.127 16.8238 170.306 17.2539C170.485 17.684 170.749 18.0734 171.083 18.3986C171.416 18.7238 171.812 18.9781 172.247 19.1461C172.681 19.314 173.146 19.3922 173.611 19.376C174.256 19.4259 174.901 19.2864 175.468 18.9746C176.034 18.6628 176.498 18.1923 176.8 17.6209C176.809 17.5856 176.83 17.5544 176.859 17.5326C176.889 17.5107 176.924 17.4994 176.961 17.5006H179.027C179.114 17.5006 179.154 17.5407 179.147 17.6209C178.865 18.796 178.148 19.8208 177.141 20.4892C176.077 21.187 174.823 21.5374 173.551 21.4921C172.741 21.5277 171.933 21.3833 171.186 21.0695C170.439 20.7556 169.77 20.28 169.229 19.6768C168.107 18.3384 167.531 16.627 167.614 14.883C167.53 13.1567 168.079 11.4591 169.158 10.1092C169.715 9.49902 170.401 9.0211 171.166 8.71048C171.932 8.39985 172.757 8.2644 173.581 8.31404C174.402 8.26019 175.223 8.39385 175.985 8.70489C176.746 9.01593 177.426 9.49618 177.974 10.1092C179.031 11.4761 179.561 13.1776 179.468 14.9031L179.508 14.9131ZM177.081 13.7497C177.073 12.9072 176.755 12.0971 176.189 11.4732C175.479 10.8009 174.535 10.4337 173.558 10.4506C172.581 10.4675 171.649 10.8671 170.964 11.5634C170.37 12.1429 170.013 12.9219 169.961 13.7497C169.961 13.84 169.961 13.8801 170.081 13.8801H176.921C177.001 13.8801 177.041 13.8801 177.041 13.7497" fill="white"/>
<path d="M182.718 8.5748H184.603C184.656 8.5748 184.697 8.61492 184.723 8.69515L184.984 9.81839C184.989 9.84853 185.005 9.87566 185.029 9.89429C185.054 9.91291 185.084 9.92163 185.114 9.91868C185.143 9.91987 185.172 9.91412 185.198 9.9019C185.224 9.88969 185.247 9.87136 185.265 9.84848C185.637 9.33892 186.132 8.93128 186.703 8.66313C187.275 8.39497 187.904 8.27493 188.534 8.31405C189.284 8.27808 190.033 8.40872 190.727 8.69657C191.42 8.98442 192.042 9.42234 192.546 9.97886C193.526 11.1776 194.033 12.694 193.97 14.2412V21.1311C193.97 21.2113 193.97 21.2514 193.84 21.2514H191.703C191.687 21.253 191.671 21.2509 191.656 21.2454C191.64 21.2399 191.626 21.2311 191.615 21.2196C191.603 21.2081 191.595 21.1942 191.589 21.1789C191.584 21.1636 191.582 21.1472 191.583 21.1311V14.2412C191.616 13.277 191.338 12.3278 190.791 11.5333C190.507 11.1692 190.138 10.8802 189.717 10.6914C189.296 10.5026 188.835 10.4198 188.374 10.4502C187.897 10.427 187.42 10.5155 186.983 10.7088C186.546 10.9021 186.161 11.1947 185.857 11.5634C185.25 12.3218 184.93 13.2701 184.954 14.2412V21.1311C184.954 21.2113 184.954 21.2514 184.824 21.2514H182.687C182.671 21.253 182.655 21.2509 182.64 21.2454C182.624 21.2399 182.61 21.2311 182.599 21.2196C182.587 21.2081 182.579 21.1942 182.573 21.1789C182.568 21.1636 182.566 21.1472 182.567 21.1311V8.69515C182.566 8.67896 182.568 8.66263 182.573 8.64732C182.579 8.63201 182.587 8.61811 182.599 8.60661C182.61 8.59511 182.624 8.58629 182.64 8.5808C182.655 8.5753 182.671 8.57325 182.687 8.5748" fill="white"/>
</g>
<defs>
<clipPath id="clip0_129_290">
<rect width="193.44" height="26.16" fill="white" transform="scale(1.0029)"/>
</clipPath>
</defs>
</svg>
