<svg width="239" height="27" viewBox="0 0 239 27" fill="none" xmlns="http://www.w3.org/2000/svg">
<path d="M12.67 0H0.5C0.368193 0.00256007 0.242499 0.0560606 0.14928 0.14928C0.0560606 0.242499 0.00256007 0.368193 0 0.5V24.24C0.00256007 24.3718 0.0560606 24.4975 0.14928 24.5907C0.242499 24.6839 0.368193 24.7374 0.5 24.74H12.67C15.9507 24.74 19.0971 23.4367 21.4169 21.1169C23.7367 18.7971 25.04 15.6507 25.04 12.37C25.04 9.08927 23.7367 5.94291 21.4169 3.62309C19.0971 1.30326 15.9507 4.88867e-08 12.67 0ZM13.86 21C12.0187 21.3169 10.1242 21.0395 8.45107 20.2079C6.77789 19.3764 5.4128 18.0339 4.55347 16.3748C3.69414 14.7158 3.38516 12.8263 3.67129 10.9799C3.95741 9.1335 4.82378 7.42612 6.14495 6.10495C7.46612 4.78378 9.1735 3.91741 11.0199 3.63129C12.8663 3.34516 14.7558 3.65414 16.4148 4.51347C18.0739 5.3728 19.4164 6.73789 20.2479 8.41107C21.0795 10.0842 21.3569 11.9787 21.04 13.82C20.7316 15.6119 19.8757 17.2643 18.59 18.55C17.3043 19.8357 15.6519 20.6916 13.86 21Z" fill="#1E2B3C"/>
<path d="M47.0301 3.59984H49.1601C49.2501 3.59984 49.2901 3.59984 49.2901 3.71984V21.0798C49.2916 21.0973 49.2893 21.1149 49.2833 21.1313C49.2773 21.1478 49.2678 21.1628 49.2554 21.1751C49.243 21.1875 49.2281 21.1971 49.2116 21.2031C49.1951 21.2091 49.1776 21.2114 49.1601 21.2098H45.4801C45.4383 21.2075 45.3979 21.1943 45.3628 21.1714C45.3277 21.1486 45.2992 21.1171 45.2801 21.0798L37.7001 6.07984C37.7001 5.99984 37.6101 5.96984 37.5601 5.99984C37.5101 6.02984 37.4601 6.07984 37.4601 6.12984V21.1298C37.4619 21.1482 37.4594 21.1668 37.4529 21.1841C37.4463 21.2014 37.4359 21.217 37.4223 21.2296C37.4088 21.2421 37.3925 21.2514 37.3748 21.2567C37.357 21.2619 37.3383 21.263 37.3201 21.2598H35.2001C35.1201 21.2598 35.0801 21.2098 35.0801 21.1298V3.71984C35.0785 3.70369 35.0806 3.68741 35.0861 3.67215C35.0915 3.65688 35.1003 3.64302 35.1118 3.63155C35.1233 3.62009 35.1371 3.6113 35.1524 3.60581C35.1677 3.60033 35.1839 3.59829 35.2001 3.59984H38.9401C38.9774 3.60435 39.0131 3.61756 39.0444 3.63841C39.0756 3.65925 39.1016 3.68714 39.1201 3.71984L46.6901 18.7198C46.7057 18.749 46.7287 18.7736 46.7568 18.7911C46.7849 18.8086 46.817 18.8185 46.8501 18.8198C46.9101 18.8198 46.9501 18.7698 46.9501 18.6898V3.68984C46.9485 3.67369 46.9506 3.65741 46.9561 3.64215C46.9616 3.62688 46.9703 3.61302 46.9818 3.60155C46.9933 3.59009 47.0071 3.5813 47.0224 3.57581C47.0377 3.57033 47.054 3.56829 47.0701 3.56984" fill="#1E2B3C"/>
<path d="M64.7302 14.8798C64.815 16.6247 64.22 18.3345 63.0702 19.6498C61.8375 20.8063 60.2106 21.45 58.5202 21.45C56.8299 21.45 55.203 20.8063 53.9702 19.6498C52.8313 18.3294 52.2441 16.6214 52.3302 14.8798C52.2389 13.1426 52.8149 11.4363 53.9402 10.1098C54.523 9.50092 55.2303 9.02493 56.0138 8.71429C56.7973 8.40365 57.6385 8.26568 58.4802 8.30979C59.3239 8.2661 60.1672 8.4032 60.9537 8.71191C61.7401 9.02062 62.4515 9.49381 63.0402 10.0998C64.1869 11.4208 64.7813 13.1324 64.7002 14.8798H64.7302ZM61.2902 18.0898C61.9988 17.1749 62.3539 16.0352 62.2902 14.8798C62.3539 13.7243 61.9988 12.5847 61.2902 11.6698C60.9562 11.2684 60.5346 10.9489 60.0579 10.7357C59.5813 10.5225 59.0621 10.4213 58.5402 10.4398C58.0117 10.4191 57.4854 10.518 57.0006 10.7293C56.5157 10.9405 56.0849 11.2586 55.7402 11.6598C55.0333 12.5794 54.6786 13.7215 54.7402 14.8798C54.6766 16.0352 55.0316 17.1749 55.7402 18.0898C56.0829 18.4939 56.5132 18.8147 56.9983 19.0278C57.4834 19.2409 58.0107 19.3408 58.5402 19.3198C59.0671 19.343 59.5921 19.244 60.0744 19.0306C60.5566 18.8173 60.983 18.4953 61.3202 18.0898" fill="#1E2B3C"/>
<path d="M74.47 10.43H73.2C72.741 10.414 72.2846 10.5061 71.8677 10.6989C71.4508 10.8917 71.0851 11.1798 70.8 11.54C70.1901 12.2936 69.8708 13.241 69.9 14.21V21.08C69.9 21.16 69.9 21.2 69.77 21.2H67.65C67.56 21.2 67.52 21.2 67.52 21.08V8.68002C67.52 8.60002 67.52 8.56002 67.65 8.56002H69.53C69.53 8.56002 69.62 8.56002 69.65 8.68002L69.94 9.80002C69.9934 9.95335 70.0833 9.95335 70.21 9.80002C70.5847 9.36009 71.0427 8.99847 71.5575 8.73591C72.0723 8.47336 72.6339 8.31503 73.21 8.27002H74.48C74.56 8.27002 74.61 8.27002 74.61 8.39002V10.27C74.6115 10.2875 74.6092 10.3051 74.6032 10.3215C74.5972 10.338 74.5877 10.3529 74.5753 10.3653C74.5629 10.3777 74.548 10.3872 74.5315 10.3932C74.5151 10.3992 74.4975 10.4015 74.48 10.4" fill="#1E2B3C"/>
<path d="M86.9398 12.8302H84.8298C84.8137 12.8318 84.7974 12.8297 84.7821 12.8243C84.7669 12.8188 84.753 12.81 84.7415 12.7985C84.7301 12.787 84.7213 12.7732 84.7158 12.7579C84.7103 12.7427 84.7083 12.7264 84.7098 12.7102C84.7244 12.3906 84.6621 12.0721 84.5281 11.7815C84.3942 11.4909 84.1924 11.2367 83.9398 11.0402C83.2794 10.5985 82.493 10.3844 81.6998 10.4302C80.9688 10.376 80.238 10.5395 79.5998 10.9002C79.407 11.0167 79.2459 11.179 79.1308 11.3726C79.0157 11.5662 78.9501 11.7852 78.9398 12.0102C78.9242 12.1668 78.9429 12.3249 78.9947 12.4734C79.0465 12.622 79.1302 12.7574 79.2398 12.8702C79.4398 13.0202 79.6298 13.1502 79.7998 13.2602C80.6027 13.4848 81.4275 13.6223 82.2598 13.6702C83.3994 13.7696 84.5199 14.0254 85.5898 14.4302C86.1865 14.6612 86.6937 15.077 87.0373 15.6167C87.3809 16.1564 87.543 16.7919 87.4998 17.4302C87.5281 18.0291 87.399 18.6249 87.1253 19.1583C86.8516 19.6917 86.4428 20.144 85.9398 20.4702C84.6988 21.1934 83.2745 21.5408 81.8398 21.4702C80.3739 21.5565 78.9258 21.1129 77.7598 20.2202C77.2954 19.8386 76.923 19.3572 76.6702 18.8119C76.4175 18.2665 76.2909 17.6712 76.2998 17.0702C76.2983 17.0541 76.3003 17.0378 76.3058 17.0225C76.3113 17.0073 76.3201 16.9934 76.3315 16.9819C76.343 16.9705 76.3569 16.9617 76.3721 16.9562C76.3874 16.9507 76.4037 16.9487 76.4198 16.9502H78.5298C78.6298 16.9502 78.6798 16.9902 78.6798 17.0702C78.6802 17.3958 78.7629 17.7159 78.9203 18.0009C79.0776 18.2859 79.3045 18.5265 79.5798 18.7002C80.2832 19.1567 81.1123 19.3806 81.9498 19.3402C84.0298 19.3402 85.0698 18.7102 85.0698 17.4502C85.0763 17.3036 85.053 17.1571 85.0015 17.0196C84.9499 16.8821 84.8711 16.7565 84.7698 16.6502C84.5976 16.4651 84.3856 16.3215 84.1498 16.2302L83.6998 16.0702C83.5421 16.029 83.3817 15.999 83.2198 15.9802L82.5798 15.8702C82.3727 15.8261 82.1616 15.8027 81.9498 15.8002C80.6931 15.723 79.4588 15.4322 78.2998 14.9402C77.6019 14.6168 77.0443 14.0522 76.7298 13.3502C76.5839 12.9185 76.5096 12.4659 76.5098 12.0102C76.5182 11.489 76.6527 10.9775 76.9017 10.5196C77.1507 10.0616 77.5069 9.67067 77.9398 9.38023C79.0346 8.61243 80.3544 8.23231 81.6898 8.30023C83.0759 8.24725 84.4416 8.64745 85.5798 9.44023C86.0885 9.81393 86.4958 10.3088 86.7647 10.8798C87.0337 11.4509 87.1557 12.08 87.1198 12.7102C87.1198 12.7902 87.1198 12.8302 87.0098 12.8302" fill="#1E2B3C"/>
<path d="M102.2 21.2001H99.9398C99.8943 21.202 99.8491 21.1919 99.8088 21.1708C99.7684 21.1498 99.7343 21.1185 99.7098 21.0801L95.7098 14.2601C95.6631 14.1868 95.6031 14.1868 95.5298 14.2601L92.6798 16.7001C92.6436 16.7453 92.6258 16.8024 92.6298 16.8601V21.0801C92.6298 21.1601 92.6298 21.2001 92.4998 21.2001H90.4198C90.4037 21.2017 90.3874 21.1996 90.3721 21.1941C90.3569 21.1887 90.343 21.1799 90.3315 21.1684C90.3201 21.1569 90.3113 21.1431 90.3058 21.1278C90.3003 21.1125 90.2983 21.0963 90.2998 21.0801V3.72011C90.2983 3.70397 90.3003 3.68768 90.3058 3.67242C90.3113 3.65716 90.3201 3.6433 90.3315 3.63183C90.343 3.62036 90.3569 3.61157 90.3721 3.60609C90.3874 3.6006 90.4037 3.59856 90.4198 3.60011H92.5498C92.5664 3.59873 92.5831 3.6008 92.5988 3.60621C92.6145 3.61161 92.629 3.62023 92.6412 3.63152C92.6534 3.6428 92.6632 3.65651 92.6698 3.67176C92.6765 3.68701 92.6799 3.70348 92.6798 3.72011V13.5301C92.6798 13.5301 92.6798 13.5801 92.7398 13.6001C92.7556 13.6123 92.7749 13.6189 92.7948 13.6189C92.8147 13.6189 92.8341 13.6123 92.8498 13.6001L98.5998 8.70011C98.7091 8.61799 98.8432 8.57565 98.9798 8.58011H102.06C102.06 8.58011 102.06 8.58011 102.13 8.63011C102.2 8.68011 102.13 8.68011 102.13 8.70011L97.4798 12.7001C97.4298 12.7001 97.4298 12.8101 97.4798 12.8901L102.3 21.1401C102.3 21.2201 102.3 21.2601 102.2 21.2601" fill="#1E2B3C"/>
<path d="M112.85 3.72011V21.0801C112.852 21.0963 112.85 21.1125 112.844 21.1278C112.839 21.1431 112.83 21.1569 112.818 21.1684C112.807 21.1799 112.793 21.1887 112.778 21.1941C112.763 21.1996 112.746 21.2017 112.73 21.2001H110.6C110.52 21.2001 110.47 21.2001 110.47 21.0801V3.72011C110.47 3.64011 110.47 3.60011 110.6 3.60011H112.73C112.746 3.59856 112.763 3.6006 112.778 3.60609C112.793 3.61157 112.807 3.62036 112.818 3.63183C112.83 3.6433 112.839 3.65716 112.844 3.67242C112.85 3.68768 112.852 3.70397 112.85 3.72011Z" fill="#1E2B3C"/>
<path d="M115.69 24.1701C115.69 24.0901 115.69 24.0401 115.81 24.0401H118.63C118.906 24.0748 119.186 24.0347 119.441 23.9238C119.697 23.813 119.917 23.6355 120.08 23.4101C120.201 23.1519 120.264 22.8703 120.264 22.5851C120.264 22.2999 120.201 22.0182 120.08 21.7601L115.64 8.68006C115.64 8.60006 115.64 8.56006 115.78 8.56006H118.05C118.05 8.56006 118.14 8.56006 118.18 8.68006L121.45 18.6801C121.457 18.7075 121.472 18.7321 121.493 18.7501C121.515 18.7681 121.542 18.7786 121.57 18.7801C121.6 18.7809 121.629 18.7714 121.653 18.7531C121.677 18.7349 121.693 18.7091 121.7 18.6801L125 8.68006C125 8.60006 125.08 8.56006 125.13 8.56006H127.4C127.51 8.56006 127.56 8.56006 127.53 8.68006L122.53 23.3801C122.296 24.2008 121.855 24.9478 121.25 25.5501C120.599 25.9965 119.818 26.2113 119.03 26.1601H115.78C115.7 26.1601 115.66 26.1601 115.66 26.0301L115.69 24.1701Z" fill="#1E2B3C"/>
<path d="M139.94 12.8298H137.79C137.774 12.8313 137.757 12.8293 137.742 12.8238C137.727 12.8183 137.713 12.8095 137.702 12.798C137.69 12.7866 137.681 12.7727 137.676 12.7575C137.67 12.7422 137.668 12.7259 137.67 12.7098C137.681 12.3875 137.614 12.0674 137.475 11.7766C137.335 11.4858 137.128 11.233 136.87 11.0398C136.209 10.5981 135.423 10.3839 134.63 10.4298C133.899 10.3755 133.168 10.5391 132.53 10.8998C132.333 11.0139 132.168 11.1751 132.05 11.3688C131.931 11.5626 131.862 11.7829 131.85 12.0098C131.834 12.1663 131.853 12.3244 131.905 12.4729C131.957 12.6215 132.04 12.7569 132.15 12.8698C132.35 13.0198 132.54 13.1498 132.71 13.2598C133.513 13.4844 134.337 13.6218 135.17 13.6698C136.309 13.7692 137.43 14.0249 138.5 14.4298C139.096 14.6608 139.604 15.0765 139.947 15.6162C140.291 16.1559 140.453 16.7914 140.41 17.4298C140.448 18.0202 140.332 18.6105 140.075 19.1432C139.817 19.6759 139.426 20.1329 138.94 20.4698C137.699 21.1929 136.274 21.5403 134.84 21.4698C133.374 21.5561 131.926 21.1124 130.76 20.2198C130.295 19.8381 129.923 19.3568 129.67 18.8114C129.417 18.2661 129.291 17.6708 129.3 17.0698C129.298 17.0536 129.3 17.0373 129.306 17.0221C129.311 17.0068 129.32 16.9929 129.332 16.9815C129.343 16.97 129.357 16.9612 129.372 16.9557C129.387 16.9503 129.404 16.9482 129.42 16.9498H131.53C131.63 16.9498 131.68 16.9898 131.68 17.0698C131.68 17.3953 131.763 17.7155 131.92 18.0005C132.078 18.2855 132.305 18.526 132.58 18.6998C133.283 19.1562 134.112 19.3801 134.95 19.3398C137.03 19.3398 138.07 18.7098 138.07 17.4498C138.076 17.3031 138.053 17.1566 138.001 17.0191C137.95 16.8817 137.871 16.756 137.77 16.6498C137.598 16.4646 137.386 16.321 137.15 16.2298L136.7 16.0698C136.542 16.0286 136.382 15.9985 136.22 15.9798L135.58 15.8698C135.373 15.8256 135.162 15.8022 134.95 15.7998C133.698 15.731 132.467 15.4503 131.31 14.9698C130.612 14.6464 130.054 14.0817 129.74 13.3798C129.594 12.9481 129.52 12.4954 129.52 12.0398C129.523 11.5195 129.652 11.0078 129.896 10.5481C130.14 10.0885 130.491 9.69452 130.92 9.39976C132.015 8.63196 133.334 8.25184 134.67 8.31976C136.056 8.26678 137.422 8.66699 138.56 9.45976C139.069 9.83346 139.476 10.3283 139.745 10.8994C140.014 11.4704 140.136 12.0996 140.1 12.7298C140.1 12.8098 140.1 12.8498 139.99 12.8498" fill="#1E2B3C"/>
<path d="M146.12 3.7201V6.3501C146.122 6.36755 146.119 6.38513 146.113 6.4016C146.107 6.41806 146.098 6.43302 146.086 6.44541C146.073 6.4578 146.058 6.46732 146.042 6.47332C146.025 6.47931 146.008 6.48162 145.99 6.4801H143.37C143.28 6.4801 143.24 6.4801 143.24 6.3501V3.7201C143.24 3.6401 143.24 3.6001 143.37 3.6001H145.99C146.08 3.6001 146.12 3.6001 146.12 3.7201ZM145.87 8.7201V21.1201C145.87 21.2001 145.87 21.2401 145.74 21.2401H143.61C143.594 21.2416 143.578 21.2396 143.563 21.2341C143.547 21.2286 143.533 21.2198 143.522 21.2084C143.51 21.1969 143.502 21.1831 143.496 21.1678C143.491 21.1525 143.489 21.1362 143.49 21.1201V8.6801C143.489 8.66395 143.491 8.64767 143.496 8.63241C143.502 8.61714 143.51 8.60328 143.522 8.59181C143.533 8.58035 143.547 8.57156 143.563 8.56607C143.578 8.56059 143.594 8.55855 143.61 8.5601H145.74C145.83 8.5601 145.87 8.5601 145.87 8.6801" fill="#1E2B3C"/>
<path d="M149.43 8.55997H151.31C151.31 8.55997 151.4 8.55997 151.43 8.67997L151.69 9.79997C151.699 9.82984 151.718 9.8559 151.743 9.87401C151.768 9.89212 151.799 9.90126 151.83 9.89997C151.858 9.90232 151.885 9.89703 151.91 9.88468C151.935 9.87233 151.955 9.85339 151.97 9.82997C152.343 9.32108 152.838 8.91421 153.409 8.64683C153.981 8.37946 154.61 8.26017 155.24 8.29997C155.989 8.25911 156.737 8.38708 157.429 8.67442C158.121 8.96176 158.74 9.40112 159.24 9.95997C160.221 11.1538 160.73 12.666 160.67 14.21V21.08C160.67 21.16 160.62 21.2 160.53 21.2H158.41C158.394 21.2015 158.378 21.1995 158.362 21.194C158.347 21.1885 158.333 21.1797 158.322 21.1683C158.31 21.1568 158.302 21.1429 158.296 21.1277C158.291 21.1124 158.289 21.0961 158.29 21.08V14.21C158.318 13.2492 158.041 12.3042 157.5 11.51C157.215 11.1468 156.845 10.8586 156.424 10.6704C156.002 10.4822 155.541 10.3997 155.08 10.43C154.604 10.4068 154.129 10.4951 153.694 10.6878C153.258 10.8805 152.873 11.1723 152.57 11.54C151.965 12.2961 151.646 13.2417 151.67 14.21V21.08C151.672 21.0961 151.67 21.1124 151.664 21.1277C151.659 21.1429 151.65 21.1568 151.638 21.1683C151.627 21.1797 151.613 21.1885 151.598 21.194C151.582 21.1995 151.566 21.2015 151.55 21.2H149.41C149.394 21.2015 149.378 21.1995 149.362 21.194C149.347 21.1885 149.333 21.1797 149.322 21.1683C149.31 21.1568 149.302 21.1429 149.296 21.1277C149.291 21.1124 149.289 21.0961 149.29 21.08V8.67997C149.289 8.66383 149.291 8.64754 149.296 8.63228C149.302 8.61701 149.31 8.60315 149.322 8.59168C149.333 8.58022 149.347 8.57143 149.362 8.56594C149.378 8.56046 149.394 8.55842 149.41 8.55997" fill="#1E2B3C"/>
<path d="M169.15 24.2798C169.646 24.328 170.147 24.263 170.615 24.0898C171.082 23.9166 171.505 23.6397 171.85 23.2798C172.429 22.5741 172.731 21.6819 172.7 20.7698V20.0898C172.7 20.0398 172.7 20.0098 172.61 19.9798C172.582 19.9715 172.552 19.9728 172.525 19.9837C172.497 19.9946 172.475 20.0144 172.46 20.0398C172.074 20.4456 171.607 20.7658 171.09 20.9798C170.402 21.3169 169.646 21.4914 168.88 21.4898C168.08 21.51 167.285 21.3569 166.55 21.041C165.814 20.7251 165.156 20.254 164.62 19.6598C163.458 18.3348 162.855 16.6103 162.94 14.8498C162.86 13.1264 163.435 11.4366 164.55 10.1198C165.096 9.51758 165.768 9.04247 166.518 8.72801C167.268 8.41355 168.077 8.26739 168.89 8.29984C169.579 8.30826 170.259 8.45447 170.89 8.72984C171.492 8.94968 172.043 9.28993 172.51 9.72984C172.617 9.83651 172.697 9.83651 172.75 9.72984L173.01 8.72984C173.01 8.64984 173.05 8.60984 173.13 8.60984H174.94C174.956 8.60829 174.972 8.61033 174.988 8.61581C175.003 8.6213 175.017 8.63009 175.028 8.64155C175.04 8.65302 175.049 8.66688 175.054 8.68215C175.059 8.69741 175.062 8.7137 175.06 8.72984V20.7298C175.088 21.4898 174.956 22.2473 174.674 22.9534C174.391 23.6595 173.964 24.2987 173.42 24.8298C172.879 25.3499 172.239 25.7566 171.538 26.0262C170.838 26.2958 170.09 26.4228 169.34 26.3998C167.927 26.4487 166.533 26.0687 165.34 25.3098C164.868 25.0322 164.466 24.6513 164.163 24.1958C163.86 23.7403 163.664 23.222 163.59 22.6798C163.588 22.6637 163.59 22.6474 163.596 22.6321C163.601 22.6169 163.61 22.603 163.622 22.5916C163.633 22.5801 163.647 22.5713 163.662 22.5658C163.678 22.5603 163.694 22.5583 163.71 22.5598H165.89C165.943 22.5598 165.983 22.5998 166.01 22.6798C166.214 23.1438 166.565 23.5271 167.01 23.7698C167.67 24.142 168.423 24.3189 169.18 24.2798H169.15ZM165.34 14.8798C165.276 16.0353 165.631 17.175 166.34 18.0898C166.67 18.4928 167.09 18.8135 167.565 19.027C168.041 19.2404 168.559 19.3406 169.08 19.3198C169.59 19.3451 170.099 19.2475 170.564 19.0352C171.028 18.8229 171.435 18.5021 171.75 18.0998C172.42 17.1638 172.754 16.0294 172.7 14.8798C172.756 13.727 172.421 12.589 171.75 11.6498C171.435 11.2476 171.028 10.9268 170.564 10.7145C170.099 10.5022 169.59 10.4046 169.08 10.4298C168.56 10.4071 168.042 10.5054 167.566 10.7171C167.091 10.9289 166.671 11.2482 166.34 11.6498C165.633 12.5733 165.279 13.7185 165.34 14.8798Z" fill="#1E2B3C"/>
<path d="M188.02 12.8302H185.87C185.854 12.8318 185.837 12.8297 185.822 12.8243C185.807 12.8188 185.793 12.81 185.782 12.7985C185.77 12.787 185.761 12.7732 185.756 12.7579C185.75 12.7427 185.748 12.7264 185.75 12.7102C185.76 12.3871 185.691 12.0664 185.55 11.7756C185.409 11.4847 185.2 11.2324 184.94 11.0402C184.283 10.5986 183.5 10.3843 182.71 10.4302C181.979 10.3735 181.247 10.5372 180.61 10.9002C180.412 11.0129 180.246 11.1738 180.127 11.3679C180.008 11.5619 179.94 11.7829 179.93 12.0102C179.908 12.1671 179.924 12.3269 179.976 12.4764C180.028 12.6259 180.115 12.7609 180.23 12.8702C180.43 13.0202 180.61 13.1502 180.79 13.2602C181.593 13.4848 182.417 13.6223 183.25 13.6702C184.389 13.7696 185.51 14.0254 186.58 14.4302C187.175 14.6629 187.68 15.0793 188.021 15.6189C188.363 16.1585 188.524 16.793 188.48 17.4302C188.511 18.0274 188.386 18.6223 188.115 19.1557C187.845 19.6891 187.44 20.1424 186.94 20.4702C185.699 21.1934 184.274 21.5408 182.84 21.4702C181.374 21.5565 179.926 21.1129 178.76 20.2202C178.292 19.8416 177.917 19.3608 177.664 18.8147C177.411 18.2687 177.286 17.6719 177.3 17.0702C177.298 17.0541 177.3 17.0378 177.306 17.0225C177.311 17.0073 177.32 16.9934 177.332 16.9819C177.343 16.9705 177.357 16.9617 177.372 16.9562C177.387 16.9507 177.404 16.9487 177.42 16.9502H179.53C179.63 16.9502 179.68 16.9902 179.68 17.0702C179.68 17.3958 179.763 17.7159 179.92 18.0009C180.078 18.2859 180.304 18.5265 180.58 18.7002C181.283 19.1567 182.112 19.3806 182.95 19.3402C185.03 19.3402 186.07 18.7102 186.07 17.4502C186.076 17.3036 186.053 17.1571 186.001 17.0196C185.95 16.8821 185.871 16.7565 185.77 16.6502C185.594 16.4646 185.379 16.3211 185.14 16.2302L184.69 16.0702C184.536 16.0288 184.378 15.9987 184.22 15.9802L183.58 15.8702C183.373 15.8261 183.162 15.8027 182.95 15.8002C181.706 15.7201 180.486 15.4293 179.34 14.9402C178.64 14.6166 178.079 14.0524 177.76 13.3502C177.619 12.9174 177.544 12.4655 177.54 12.0102C177.543 11.4913 177.672 10.981 177.916 10.523C178.16 10.0649 178.511 9.67281 178.94 9.38023C180.035 8.61243 181.354 8.23231 182.69 8.30023C184.076 8.24725 185.442 8.64745 186.58 9.44023C187.088 9.81393 187.496 10.3088 187.765 10.8798C188.034 11.4509 188.156 12.08 188.12 12.7102C188.12 12.7902 188.07 12.8302 188.01 12.8302" fill="#1E2B3C"/>
<path d="M193.54 21.2001H191.67C191.654 21.2017 191.637 21.1996 191.622 21.1941C191.607 21.1887 191.593 21.1799 191.582 21.1684C191.57 21.1569 191.561 21.1431 191.556 21.1278C191.55 21.1125 191.548 21.0963 191.55 21.0801V3.72011C191.548 3.70397 191.55 3.68768 191.556 3.67242C191.561 3.65716 191.57 3.6433 191.582 3.63183C191.593 3.62036 191.607 3.61157 191.622 3.60609C191.637 3.6006 191.654 3.59856 191.67 3.60011H193.8C193.89 3.60011 193.93 3.60011 193.93 3.72011V9.72011C193.928 9.74352 193.934 9.76681 193.947 9.7866C193.959 9.80639 193.978 9.82164 194 9.83011C194.053 9.83011 194.113 9.81011 194.18 9.77011C195.16 8.88829 196.422 8.38481 197.74 8.35011C198.551 8.31846 199.359 8.46502 200.107 8.77948C200.855 9.09393 201.525 9.56863 202.07 10.1701C203.181 11.5014 203.758 13.1976 203.69 14.9301C203.775 16.6634 203.2 18.3647 202.08 19.6901C201.535 20.2939 200.863 20.7693 200.113 21.0823C199.363 21.3953 198.552 21.538 197.74 21.5001C197.051 21.4856 196.371 21.3361 195.74 21.0601C195.144 20.8401 194.599 20.4997 194.14 20.0601C194.03 19.9501 193.94 19.9701 193.89 20.1101L193.63 21.1101C193.63 21.1901 193.54 21.2301 193.5 21.2301L193.54 21.2001ZM200.25 18.1201C200.954 17.2032 201.309 16.065 201.25 14.9101C201.309 13.7522 200.954 12.611 200.25 11.6901C199.918 11.2884 199.499 10.9684 199.023 10.7551C198.548 10.5418 198.03 10.4409 197.51 10.4601C196.999 10.4323 196.49 10.5288 196.025 10.7413C195.559 10.9538 195.153 11.2759 194.84 11.6801C194.164 12.6171 193.829 13.7567 193.89 14.9101C193.831 16.0603 194.166 17.1962 194.84 18.1301C195.153 18.5343 195.559 18.8565 196.025 19.069C196.49 19.2815 196.999 19.3779 197.51 19.3501C198.03 19.3694 198.548 19.2684 199.023 19.0551C199.499 18.8418 199.918 18.5219 200.25 18.1201Z" fill="#1E2B3C"/>
<path d="M208.99 3.72011V21.0801C208.991 21.0963 208.989 21.1125 208.984 21.1278C208.978 21.1431 208.97 21.1569 208.958 21.1684C208.947 21.1799 208.933 21.1887 208.918 21.1941C208.902 21.1996 208.886 21.2017 208.87 21.2001H206.74C206.723 21.2015 206.707 21.1994 206.691 21.194C206.675 21.1886 206.661 21.18 206.648 21.1687C206.636 21.1574 206.627 21.1437 206.62 21.1285C206.613 21.1132 206.61 21.0967 206.61 21.0801V3.72011C206.61 3.64011 206.61 3.60011 206.74 3.60011H208.87C208.886 3.59856 208.902 3.6006 208.918 3.60609C208.933 3.61157 208.947 3.62036 208.958 3.63183C208.97 3.6433 208.978 3.65716 208.984 3.67242C208.989 3.68768 208.991 3.70397 208.99 3.72011Z" fill="#1E2B3C"/>
<path d="M225.18 19.2V21.08C225.18 21.16 225.18 21.2 225.05 21.2H224.15C222.87 21.2 222.05 20.82 221.69 20.06C221.64 19.93 221.56 19.91 221.46 20.01C220.97 20.4596 220.391 20.8004 219.76 21.01C218.884 21.3205 217.959 21.4663 217.03 21.44C215.696 21.5344 214.373 21.1477 213.3 20.35C212.882 20.0071 212.548 19.5726 212.324 19.0802C212.101 18.5878 211.993 18.0506 212.01 17.51C211.995 16.9617 212.117 16.4183 212.363 15.9281C212.608 15.4379 212.972 15.016 213.42 14.7C214.633 13.9237 216.063 13.5557 217.5 13.65H220.3C220.767 13.65 221.037 13.53 221.11 13.29C221.129 13.0504 221.129 12.8096 221.11 12.57C221.073 12.0692 220.885 11.5915 220.57 11.2C220.21 10.69 219.31 10.42 217.86 10.4C217.046 10.3332 216.235 10.5564 215.57 11.03C215.323 11.2307 215.126 11.486 214.994 11.7757C214.862 12.0655 214.799 12.3818 214.81 12.7C214.81 12.78 214.76 12.82 214.67 12.82H212.55C212.534 12.8215 212.518 12.8195 212.502 12.814C212.487 12.8085 212.473 12.7997 212.462 12.7883C212.45 12.7768 212.441 12.7629 212.436 12.7477C212.431 12.7324 212.428 12.7161 212.43 12.7C212.401 12.0684 212.532 11.4397 212.81 10.8718C213.088 10.3039 213.504 9.81494 214.02 9.44999C215.201 8.65754 216.599 8.25213 218.02 8.28999C219.432 8.21402 220.826 8.63506 221.96 9.47999C222.476 9.89109 222.887 10.4194 223.159 11.0212C223.43 11.623 223.554 12.2808 223.52 12.94V17.84C223.486 18.1847 223.552 18.5319 223.71 18.84C223.84 19.03 224.13 19.13 224.58 19.13H225.06C225.076 19.1284 225.092 19.1305 225.108 19.136C225.123 19.1415 225.137 19.1502 225.148 19.1617C225.16 19.1732 225.169 19.187 225.174 19.2023C225.18 19.2176 225.182 19.2338 225.18 19.25V19.2ZM221.18 15.7C221.18 15.62 221.18 15.58 221.04 15.58H217.54C216.676 15.5332 215.817 15.7419 215.07 16.18C214.868 16.3331 214.705 16.5314 214.594 16.7589C214.483 16.9864 214.427 17.2368 214.43 17.49C214.427 17.7445 214.48 17.9965 214.585 18.2281C214.691 18.4597 214.846 18.6653 215.04 18.83C215.621 19.2418 216.33 19.4332 217.04 19.37C218.161 19.4545 219.271 19.0954 220.13 18.37C220.453 18.0674 220.712 17.704 220.894 17.3007C221.076 16.8974 221.177 16.4622 221.19 16.02L221.18 15.7Z" fill="#1E2B3C"/>
<path d="M238.78 21.1998H236.94C236.89 21.1998 236.85 21.1998 236.81 21.0798L236.56 20.0798C236.51 19.9398 236.43 19.9198 236.31 20.0298C235.313 20.8902 234.056 21.3904 232.74 21.4498C231.928 21.4863 231.118 21.343 230.368 21.0301C229.617 20.7172 228.946 20.2425 228.4 19.6398C227.283 18.3124 226.708 16.6126 226.79 14.8798C226.707 13.1469 227.282 11.4467 228.4 10.1198C228.946 9.51756 229.618 9.04245 230.368 8.72799C231.118 8.41353 231.928 8.26737 232.74 8.29982C233.496 8.29858 234.243 8.47317 234.92 8.80982C235.435 9.02667 235.906 9.33499 236.31 9.71982C236.38 9.78982 236.44 9.80982 236.48 9.77982C236.503 9.77173 236.523 9.75689 236.537 9.73725C236.551 9.71761 236.559 9.6941 236.56 9.66982V3.66982C236.56 3.58982 236.56 3.54982 236.69 3.54982H238.82C238.836 3.54827 238.852 3.55031 238.868 3.55579C238.883 3.56128 238.897 3.57007 238.908 3.58154C238.92 3.593 238.929 3.60686 238.934 3.62213C238.94 3.63739 238.942 3.65368 238.94 3.66982V21.0798C238.942 21.096 238.94 21.1122 238.934 21.1275C238.929 21.1428 238.92 21.1566 238.908 21.1681C238.897 21.1796 238.883 21.1884 238.868 21.1938C238.852 21.1993 238.836 21.2014 238.82 21.1998H238.78ZM229.17 14.8798C229.106 16.0353 229.461 17.1749 230.17 18.0898C230.504 18.4969 230.928 18.8202 231.409 19.0338C231.89 19.2474 232.414 19.3453 232.94 19.3198C233.452 19.3451 233.962 19.2475 234.428 19.0352C234.894 18.823 235.303 18.5023 235.62 18.0998C236.291 17.1649 236.623 16.0289 236.56 14.8798C236.614 13.7287 236.283 12.5923 235.62 11.6498C235.306 11.2442 234.898 10.9211 234.431 10.7086C233.964 10.496 233.452 10.4003 232.94 10.4298C232.419 10.407 231.899 10.5053 231.422 10.717C230.945 10.9287 230.523 11.2479 230.19 11.6498C229.483 12.5733 229.129 13.7185 229.19 14.8798" fill="#1E2B3C"/>
</svg>
