<svg width="187" height="25" viewBox="0 0 187 25" fill="none" xmlns="http://www.w3.org/2000/svg">
<path d="M12.67 0H0.5C0.368193 0.00256007 0.242499 0.0560606 0.14928 0.14928C0.0560606 0.242499 0.00256007 0.368193 0 0.5V24.24C0.00256007 24.3718 0.0560606 24.4975 0.14928 24.5907C0.242499 24.6839 0.368193 24.7374 0.5 24.74H12.67C15.9507 24.74 19.0971 23.4367 21.4169 21.1169C23.7367 18.7971 25.04 15.6507 25.04 12.37C25.04 9.08927 23.7367 5.94291 21.4169 3.62309C19.0971 1.30326 15.9507 4.88867e-08 12.67 0ZM13.86 21C12.0187 21.3169 10.1242 21.0395 8.45107 20.2079C6.77789 19.3764 5.4128 18.0339 4.55347 16.3748C3.69414 14.7158 3.38516 12.8263 3.67129 10.9799C3.95741 9.1335 4.82378 7.42612 6.14495 6.10495C7.46612 4.78378 9.1735 3.91741 11.0199 3.63129C12.8663 3.34516 14.7558 3.65414 16.4148 4.51347C18.0739 5.3728 19.4164 6.73789 20.2479 8.41107C21.0795 10.0842 21.3569 11.9787 21.04 13.82C20.7316 15.6119 19.8757 17.2643 18.59 18.55C17.3043 19.8357 15.6519 20.6916 13.86 21Z" fill="#1E2B3C"/>
<path d="M35.5899 3.72011C35.5883 3.70397 35.5903 3.68768 35.5958 3.67242C35.6013 3.65716 35.6101 3.6433 35.6216 3.63183C35.633 3.62036 35.6469 3.61157 35.6622 3.60609C35.6774 3.6006 35.6937 3.59856 35.7099 3.60011H43.0099C43.684 3.5952 44.3517 3.73147 44.97 4.00014C45.5883 4.26882 46.1435 4.66395 46.5999 5.16011C47.091 5.6576 47.4776 6.24832 47.7369 6.8975C47.9962 7.54668 48.123 8.24118 48.1099 8.94011C48.1251 9.63334 47.9991 10.3224 47.7395 10.9654C47.4799 11.6084 47.0921 12.1918 46.5999 12.6801C46.1415 13.1683 45.5864 13.5555 44.97 13.8172C44.3536 14.0789 43.6894 14.2093 43.0199 14.2001H38.0899C38.0737 14.1986 38.0574 14.2006 38.0422 14.2061C38.0269 14.2116 38.013 14.2204 38.0016 14.2318C37.9901 14.2433 37.9813 14.2572 37.9758 14.2724C37.9703 14.2877 37.9683 14.304 37.9699 14.3201V21.0801C37.9699 21.1601 37.9699 21.2101 37.8499 21.2101H35.7099C35.6299 21.2101 35.5899 21.1601 35.5899 21.0801V3.72011ZM42.7099 5.72011H38.0899C38.0099 5.72011 37.9699 5.72011 37.9699 5.85011V11.9401C37.9683 11.9563 37.9703 11.9725 37.9758 11.9878C37.9813 12.0031 37.9901 12.0169 38.0016 12.0284C38.013 12.0399 38.0269 12.0487 38.0422 12.0541C38.0574 12.0596 38.0737 12.0617 38.0899 12.0601H42.7099C43.1061 12.0613 43.4983 11.9801 43.8615 11.8218C44.2247 11.6634 44.5511 11.4313 44.8199 11.1401C45.1136 10.8549 45.3459 10.5126 45.5024 10.1342C45.6589 9.75589 45.7363 9.34951 45.7299 8.94011C45.7348 8.09951 45.4078 7.29092 44.8199 6.69011C44.5604 6.38191 44.2377 6.13311 43.8736 5.96057C43.5096 5.78804 43.1127 5.6958 42.7099 5.69011" fill="#1E2B3C"/>
<path d="M57.3201 10.4299H56.0501C55.5902 10.4178 55.1336 10.5116 54.7157 10.704C54.2978 10.8965 53.9298 11.1825 53.6401 11.5399C53.0377 12.2971 52.7225 13.2428 52.7501 14.2099V21.0799C52.7501 21.1599 52.7501 21.1999 52.6201 21.1999H50.5001C50.4101 21.1999 50.3701 21.1999 50.3701 21.0799V8.67995C50.3701 8.59995 50.3701 8.55995 50.5001 8.55995H52.3801C52.3801 8.55995 52.4601 8.55995 52.5001 8.67995L52.7501 9.79995C52.7968 9.95328 52.8868 9.95328 53.0201 9.79995C53.3949 9.36002 53.8528 8.9984 54.3676 8.73584C54.8824 8.47329 55.444 8.31496 56.0201 8.26995H57.2901C57.3067 8.26856 57.3234 8.27064 57.3391 8.27604C57.3549 8.28145 57.3693 8.29007 57.3815 8.30136C57.3937 8.31264 57.4035 8.32634 57.4101 8.34159C57.4168 8.35685 57.4202 8.37331 57.4201 8.38995V10.2699C57.4201 10.3599 57.3701 10.3999 57.2901 10.3999" fill="#1E2B3C"/>
<path d="M71.6402 14.8798C71.714 16.6302 71.1044 18.3406 69.9402 19.6498C68.7074 20.8063 67.0805 21.45 65.3902 21.45C63.6998 21.45 62.0729 20.8063 60.8402 19.6498C59.6967 18.332 59.1088 16.6221 59.2002 14.8798C59.113 13.138 59.7004 11.4297 60.8402 10.1098C61.4229 9.50092 62.1302 9.02493 62.9137 8.71429C63.6972 8.40365 64.5385 8.26568 65.3802 8.30979C66.2239 8.2661 67.0672 8.4032 67.8536 8.71191C68.6401 9.02062 69.3515 9.49381 69.9402 10.0998C71.0869 11.4208 71.6813 13.1324 71.6002 14.8798H71.6402ZM68.1902 18.0898C68.8988 17.1749 69.2538 16.0352 69.1902 14.8798C69.2538 13.7243 68.8988 12.5847 68.1902 11.6698C67.853 11.2643 67.4266 10.9423 66.9443 10.7289C66.4621 10.5156 65.937 10.4166 65.4102 10.4398C64.8816 10.4183 64.355 10.5169 63.8701 10.7283C63.3851 10.9396 62.9543 11.2581 62.6102 11.6598C61.9033 12.5794 61.5486 13.7215 61.6102 14.8798C61.5465 16.0352 61.9015 17.1749 62.6102 18.0898C62.9524 18.4945 63.3826 18.8157 63.8678 19.0289C64.3531 19.242 64.8806 19.3415 65.4102 19.3198C65.937 19.343 66.4621 19.244 66.9443 19.0306C67.4266 18.8173 67.853 18.4953 68.1902 18.0898Z" fill="#1E2B3C"/>
<path d="M81.01 3.72006V5.60006C81.01 5.69006 81.01 5.73006 80.88 5.73006H79.23C79.0721 5.7217 78.9143 5.74779 78.7676 5.8065C78.6208 5.86521 78.4885 5.95514 78.38 6.07006C78.269 6.19298 78.1836 6.33673 78.1287 6.49295C78.0737 6.64917 78.0504 6.81474 78.06 6.98006V8.42006C78.057 8.43741 78.058 8.45519 78.0627 8.47214C78.0674 8.48909 78.0757 8.50481 78.0872 8.51817C78.0986 8.53152 78.1129 8.5422 78.1289 8.54944C78.145 8.55668 78.1624 8.56031 78.18 8.56006H80.88C80.8966 8.55867 80.9132 8.56075 80.929 8.56615C80.9447 8.57156 80.9591 8.58018 80.9714 8.59146C80.9836 8.60275 80.9933 8.61645 81 8.6317C81.0066 8.64696 81.01 8.66342 81.01 8.68006V10.3001C81.01 10.3901 81.01 10.4301 80.88 10.4301H78.18C78.1 10.4301 78.06 10.4301 78.06 10.5601V21.0801C78.0615 21.0962 78.0595 21.1125 78.054 21.1278C78.0485 21.143 78.0397 21.1569 78.0283 21.1683C78.0168 21.1798 78.0029 21.1886 77.9877 21.1941C77.9724 21.1996 77.9561 21.2016 77.94 21.2001H75.81C75.7934 21.2014 75.7767 21.1994 75.761 21.194C75.7452 21.1886 75.7308 21.1799 75.7186 21.1687C75.7064 21.1574 75.6966 21.1437 75.69 21.1284C75.6833 21.1132 75.6799 21.0967 75.68 21.0801V10.5601C75.68 10.4801 75.68 10.4301 75.56 10.4301H73.33C73.25 10.4301 73.21 10.4301 73.21 10.3001V8.68006C73.2084 8.66391 73.2105 8.64763 73.216 8.63237C73.2214 8.6171 73.2302 8.60324 73.2417 8.59177C73.2532 8.58031 73.267 8.57152 73.2823 8.56603C73.2975 8.56055 73.3138 8.55851 73.33 8.56006H75.56C75.64 8.56006 75.68 8.56006 75.68 8.42006V6.56006C75.68 4.56006 76.85 3.56006 79.21 3.56006H80.88C80.97 3.56006 81.01 3.56006 81.01 3.68006V3.72006ZM85.31 3.68006V6.31006C85.31 6.39006 85.31 6.44006 85.19 6.44006H82.56C82.48 6.44006 82.44 6.44006 82.43 6.31006V3.72006C82.43 3.64006 82.43 3.60006 82.56 3.60006H85.19C85.2061 3.59851 85.2224 3.60055 85.2377 3.60603C85.2529 3.61152 85.2668 3.62031 85.2783 3.63177C85.2897 3.64324 85.2985 3.6571 85.304 3.67237C85.3095 3.68763 85.3115 3.70391 85.31 3.72006V3.68006ZM85.07 8.72006V21.1201C85.07 21.2001 85.07 21.2401 84.94 21.2401H82.81C82.73 21.2401 82.68 21.2401 82.68 21.1201V8.68006C82.68 8.60006 82.73 8.56006 82.81 8.56006H84.94C85.02 8.56006 85.07 8.56006 85.07 8.68006" fill="#1E2B3C"/>
<path d="M91.0802 3.72011V21.0801C91.0817 21.0963 91.0797 21.1125 91.0742 21.1278C91.0687 21.1431 91.0599 21.1569 91.0485 21.1684C91.037 21.1799 91.0232 21.1887 91.0079 21.1941C90.9926 21.1996 90.9763 21.2017 90.9602 21.2001H88.8402C88.8231 21.2015 88.8059 21.1994 88.7896 21.1941C88.7733 21.1888 88.7583 21.1804 88.7452 21.1692C88.7322 21.1581 88.7215 21.1445 88.7138 21.1292C88.7061 21.1139 88.7015 21.0972 88.7002 21.0801V3.72011C88.7002 3.64011 88.7002 3.60011 88.8402 3.60011H90.9402C90.9563 3.59856 90.9726 3.6006 90.9879 3.60609C91.0031 3.61157 91.017 3.62036 91.0285 3.63183C91.0399 3.6433 91.0487 3.65716 91.0542 3.67242C91.0597 3.68768 91.0617 3.70397 91.0602 3.72011" fill="#1E2B3C"/>
<path d="M101.49 21.2001H98.3199C98.2853 21.199 98.252 21.1867 98.2249 21.1651C98.1979 21.1434 98.1786 21.1136 98.1699 21.0801L93.9399 8.68006C93.9399 8.60006 93.9399 8.56006 94.0899 8.56006H96.3499C96.3499 8.56006 96.4399 8.56006 96.4799 8.68006L99.7599 18.6801C99.7612 18.6945 99.7653 18.7086 99.772 18.7215C99.7787 18.7343 99.788 18.7458 99.7991 18.7551C99.8103 18.7644 99.8232 18.7713 99.837 18.7756C99.8509 18.7799 99.8655 18.7814 99.8799 18.7801C99.9081 18.7786 99.935 18.7681 99.9566 18.7501C99.9783 18.7321 99.9935 18.7075 99.9999 18.6801L103.31 8.68006C103.31 8.60006 103.35 8.56006 103.43 8.56006H105.7C105.81 8.56006 105.86 8.56006 105.83 8.68006L101.61 21.0801C101.61 21.1601 101.53 21.2001 101.48 21.2001" fill="#1E2B3C"/>
<path d="M120.11 14.8801C120.11 15.4401 120.05 15.7201 119.93 15.7201H110.8C110.72 15.7201 110.68 15.7201 110.68 15.8601C110.672 16.3245 110.758 16.7858 110.935 17.2155C111.111 17.6451 111.374 18.0341 111.706 18.3583C112.039 18.6825 112.435 18.9351 112.869 19.1005C113.303 19.2659 113.766 19.3407 114.23 19.3201C114.872 19.3708 115.515 19.2332 116.08 18.9241C116.644 18.6151 117.107 18.148 117.41 17.5801C117.421 17.5458 117.442 17.5156 117.471 17.4941C117.499 17.4725 117.534 17.4606 117.57 17.4601H119.63C119.724 17.4601 119.764 17.5001 119.75 17.5801C119.469 18.7518 118.754 19.7736 117.75 20.4401C116.69 21.1378 115.438 21.4873 114.17 21.4401C113.377 21.465 112.587 21.3169 111.857 21.006C111.126 20.6952 110.472 20.2291 109.94 19.6401C108.822 18.3056 108.247 16.5991 108.33 14.8601C108.246 13.1388 108.794 11.446 109.87 10.1001C110.427 9.49088 111.113 9.01392 111.877 8.70419C112.642 8.39445 113.467 8.2598 114.29 8.3101C115.107 8.25721 115.924 8.3909 116.682 8.70104C117.439 9.01118 118.115 9.48962 118.66 10.1001C119.714 11.463 120.243 13.1596 120.15 14.8801H120.11ZM117.77 13.7301C117.762 12.89 117.445 12.0822 116.88 11.4601C116.173 10.7898 115.231 10.4237 114.257 10.4405C113.283 10.4573 112.354 10.8558 111.67 11.5501C111.077 12.1268 110.72 12.9042 110.67 13.7301C110.67 13.8201 110.67 13.8601 110.79 13.8601H117.6C117.68 13.8601 117.72 13.8601 117.72 13.7301" fill="#1E2B3C"/>
<path d="M126.14 3.72011V6.35011C126.141 6.36757 126.139 6.38515 126.133 6.40161C126.127 6.41808 126.117 6.43303 126.105 6.44542C126.093 6.45781 126.078 6.46734 126.061 6.47333C126.045 6.47932 126.027 6.48164 126.01 6.48011H123.38C123.3 6.48011 123.26 6.48011 123.26 6.35011V3.72011C123.258 3.70397 123.26 3.68768 123.266 3.67242C123.271 3.65716 123.28 3.6433 123.291 3.63183C123.303 3.62036 123.317 3.61157 123.332 3.60609C123.347 3.6006 123.364 3.59856 123.38 3.60011H126.01C126.1 3.60011 126.14 3.60011 126.14 3.72011ZM125.89 8.72011V21.1201C125.89 21.2001 125.89 21.2401 125.76 21.2401H123.63C123.614 21.2417 123.597 21.2396 123.582 21.2341C123.567 21.2287 123.553 21.2199 123.541 21.2084C123.53 21.1969 123.521 21.1831 123.516 21.1678C123.51 21.1525 123.508 21.1363 123.51 21.1201V8.68011C123.508 8.66397 123.51 8.64768 123.516 8.63242C123.521 8.61716 123.53 8.60329 123.541 8.59183C123.553 8.58036 123.567 8.57157 123.582 8.56609C123.597 8.5606 123.614 8.55856 123.63 8.56011H125.76C125.85 8.56011 125.89 8.56011 125.89 8.68011" fill="#1E2B3C"/>
<path d="M131.94 3.72011V21.0801C131.942 21.0963 131.94 21.1125 131.934 21.1278C131.929 21.1431 131.92 21.1569 131.908 21.1684C131.897 21.1799 131.883 21.1887 131.868 21.1941C131.852 21.1996 131.836 21.2017 131.82 21.2001H129.7C129.683 21.2015 129.666 21.1994 129.65 21.1941C129.633 21.1888 129.618 21.1804 129.605 21.1692C129.592 21.1581 129.581 21.1445 129.574 21.1292C129.566 21.1139 129.561 21.0972 129.56 21.0801V3.72011C129.56 3.64011 129.56 3.60011 129.7 3.60011H131.82C131.836 3.59856 131.852 3.6006 131.868 3.60609C131.883 3.61157 131.897 3.62036 131.908 3.63183C131.92 3.6433 131.929 3.65716 131.934 3.67242C131.94 3.68768 131.942 3.70397 131.94 3.72011Z" fill="#1E2B3C"/>
<path d="M146.74 14.8799C146.74 15.4399 146.68 15.7199 146.56 15.7199H137.42C137.34 15.7199 137.3 15.7199 137.3 15.8599C137.294 16.3244 137.383 16.7852 137.561 17.2142C137.739 17.6433 138.003 18.0315 138.336 18.3553C138.669 18.679 139.065 18.9315 139.499 19.0974C139.932 19.2632 140.396 19.3389 140.86 19.3199C141.502 19.3705 142.144 19.2329 142.709 18.9239C143.274 18.6148 143.736 18.1478 144.04 17.5799C144.049 17.5447 144.07 17.5136 144.099 17.4918C144.128 17.47 144.163 17.4587 144.2 17.4599H146.25C146.34 17.4599 146.38 17.4599 146.38 17.5799C146.098 18.7516 145.384 19.7734 144.38 20.4399C143.315 21.1359 142.061 21.4852 140.79 21.4399C139.982 21.474 139.178 21.3294 138.432 21.0165C137.687 20.7036 137.021 20.2302 136.48 19.6299C135.364 18.2944 134.793 16.5877 134.88 14.8499C134.789 13.1277 135.338 11.4327 136.42 10.0899C136.973 9.47972 137.657 9.002 138.421 8.69214C139.184 8.38227 140.007 8.2482 140.83 8.29987C141.648 8.24693 142.467 8.38055 143.226 8.69064C143.985 9.00073 144.663 9.47919 145.21 10.0899C146.26 11.4549 146.788 13.1499 146.7 14.8699L146.74 14.8799ZM144.31 13.7199C144.306 12.8788 143.989 12.0695 143.42 11.4499C142.713 10.7795 141.771 10.4135 140.796 10.4303C139.822 10.4471 138.893 10.8455 138.21 11.5399C137.639 12.127 137.301 12.9019 137.26 13.7199C137.26 13.8099 137.26 13.8499 137.38 13.8499H144.19C144.27 13.8499 144.31 13.8499 144.31 13.7199Z" fill="#1E2B3C"/>
<path d="M161.16 21.1998H159.28C159.28 21.1998 159.19 21.1998 159.16 21.0798L158.91 20.0798C158.86 19.9398 158.78 19.9198 158.66 20.0298C157.661 20.8862 156.405 21.3858 155.09 21.4498C154.278 21.4863 153.468 21.3429 152.718 21.0301C151.968 20.7172 151.296 20.2424 150.75 19.6398C149.633 18.3124 149.058 16.6126 149.14 14.8798C149.057 13.1469 149.633 11.4467 150.75 10.1198C151.295 9.51832 151.965 9.04363 152.713 8.72917C153.461 8.41472 154.269 8.26815 155.08 8.2998C155.84 8.29738 156.59 8.47199 157.27 8.8098C157.785 9.02665 158.256 9.33497 158.66 9.71981C158.73 9.78981 158.78 9.80981 158.83 9.77981C158.853 9.77172 158.873 9.75687 158.887 9.73723C158.902 9.71759 158.91 9.69408 158.91 9.6698V3.6698C158.91 3.5898 158.91 3.5498 159.04 3.5498H161.16C161.25 3.5498 161.29 3.5498 161.29 3.6698V21.0798C161.29 21.1598 161.29 21.1998 161.16 21.1998ZM151.52 14.8798C151.461 16.0347 151.816 17.1729 152.52 18.0898C152.854 18.4917 153.275 18.8117 153.752 19.025C154.229 19.2382 154.748 19.3391 155.27 19.3198C155.78 19.3434 156.288 19.2451 156.753 19.0329C157.217 18.8207 157.624 18.5008 157.94 18.0998C158.607 17.1628 158.938 16.0283 158.88 14.8798C158.934 13.7286 158.603 12.5922 157.94 11.6498C157.627 11.2456 157.22 10.9234 156.755 10.7109C156.29 10.4985 155.781 10.402 155.27 10.4298C154.747 10.407 154.226 10.5052 153.747 10.7168C153.269 10.9284 152.845 11.2477 152.51 11.6498C151.807 12.5753 151.453 13.719 151.51 14.8798" fill="#1E2B3C"/>
<path d="M176.14 14.8801C176.14 15.4401 176.08 15.7201 175.96 15.7201H166.83C166.75 15.7201 166.71 15.7201 166.71 15.8601C166.704 16.3237 166.793 16.7837 166.971 17.212C167.148 17.6404 167.411 18.0281 167.743 18.3517C168.075 18.6754 168.469 18.9281 168.902 19.0946C169.335 19.261 169.797 19.3378 170.26 19.3201C170.902 19.3721 171.545 19.235 172.111 18.9258C172.676 18.6166 173.138 18.1488 173.44 17.5801C173.451 17.5458 173.472 17.5156 173.501 17.4941C173.529 17.4725 173.564 17.4606 173.6 17.4601H175.66C175.754 17.4601 175.794 17.5001 175.78 17.5801C175.502 18.7535 174.787 19.7766 173.78 20.4401C172.72 21.1378 171.469 21.4873 170.2 21.4401C169.402 21.4687 168.607 21.3224 167.871 21.0115C167.135 20.7006 166.476 20.2325 165.94 19.6401C164.825 18.3046 164.254 16.5979 164.34 14.8601C164.25 13.1379 164.798 11.4429 165.88 10.1001C166.434 9.48995 167.118 9.01223 167.881 8.70237C168.645 8.3925 169.468 8.25843 170.29 8.3101C171.107 8.25721 171.925 8.3909 172.682 8.70104C173.439 9.01118 174.115 9.48962 174.66 10.1001C175.714 11.463 176.243 13.1596 176.15 14.8801H176.14ZM173.77 13.7301C173.762 12.89 173.445 12.0822 172.88 11.4601C172.173 10.7898 171.231 10.4237 170.257 10.4405C169.283 10.4573 168.354 10.8558 167.67 11.5501C167.095 12.1345 166.757 12.9111 166.72 13.7301C166.72 13.8201 166.72 13.8601 166.84 13.8601H173.65C173.73 13.8601 173.77 13.8601 173.77 13.7301Z" fill="#1E2B3C"/>
<path d="M186.24 10.4299H184.94C184.48 10.4178 184.023 10.5116 183.605 10.704C183.187 10.8965 182.819 11.1825 182.53 11.5399C181.919 12.2927 181.603 13.2415 181.64 14.2099V21.0799C181.64 21.1599 181.64 21.1999 181.51 21.1999H179.38C179.364 21.2015 179.347 21.1995 179.332 21.194C179.317 21.1885 179.303 21.1797 179.291 21.1682C179.28 21.1568 179.271 21.1429 179.266 21.1276C179.26 21.1124 179.258 21.0961 179.26 21.0799V8.67995C179.258 8.6638 179.26 8.64752 179.266 8.63226C179.271 8.61699 179.28 8.60313 179.291 8.59166C179.303 8.5802 179.317 8.57141 179.332 8.56592C179.347 8.56044 179.364 8.5584 179.38 8.55995H181.26C181.31 8.55995 181.35 8.55995 181.39 8.67995L181.64 9.79995C181.693 9.95328 181.783 9.95328 181.91 9.79995C182.285 9.36002 182.742 8.9984 183.257 8.73584C183.772 8.47329 184.334 8.31496 184.91 8.26995H186.18C186.196 8.26856 186.213 8.27064 186.229 8.27604C186.245 8.28145 186.259 8.29007 186.271 8.30136C186.283 8.31264 186.293 8.32634 186.3 8.34159C186.306 8.35685 186.31 8.37331 186.31 8.38995V10.2699C186.31 10.3599 186.26 10.3999 186.18 10.3999" fill="#1E2B3C"/>
</svg>
