<svg width="251" height="27" viewBox="0 0 251 27" fill="none" xmlns="http://www.w3.org/2000/svg">
<path d="M12.67 0.32373H0.5C0.368193 0.326291 0.242499 0.379791 0.14928 0.47301C0.0560606 0.566229 0.00256007 0.691924 0 0.82373V24.5637C0.00256007 24.6955 0.0560606 24.8212 0.14928 24.9145C0.242499 25.0077 0.368193 25.0612 0.5 25.0637H12.67C15.9507 25.0637 19.0971 23.7605 21.4169 21.4406C23.7367 19.1208 25.04 15.9745 25.04 12.6937C25.04 9.413 23.7367 6.26664 21.4169 3.94682C19.0971 1.62699 15.9507 0.323731 12.67 0.32373ZM13.86 21.3237C12.0187 21.6406 10.1242 21.3632 8.45107 20.5317C6.77789 19.7001 5.4128 18.3576 4.55347 16.6986C3.69414 15.0395 3.38516 13.15 3.67129 11.3036C3.95741 9.45724 4.82378 7.74985 6.14495 6.42868C7.46612 5.10751 9.1735 4.24114 11.0199 3.95502C12.8663 3.66889 14.7558 3.97787 16.4148 4.8372C18.0739 5.69653 19.4164 7.06162 20.2479 8.7348C21.0795 10.408 21.3569 12.3024 21.04 14.1437C20.7316 15.9357 19.8757 17.5881 18.59 18.8738C17.3043 20.1595 15.6519 21.0153 13.86 21.3237Z" fill="white"/>
<path d="M35.33 4.04372C35.3285 4.02758 35.3305 4.01129 35.336 3.99603C35.3415 3.98077 35.3502 3.9669 35.3617 3.95544C35.3732 3.94397 35.387 3.93518 35.4023 3.9297C35.4176 3.92421 35.4339 3.92217 35.45 3.92372H42.75C43.4241 3.91881 44.0918 4.05508 44.7101 4.32375C45.3284 4.59242 45.8836 4.98756 46.34 5.48372C46.8325 5.98072 47.2206 6.57113 47.4816 7.22026C47.7427 7.8694 47.8713 8.56416 47.86 9.26372C47.8733 9.95759 47.7455 10.6469 47.4842 11.2899C47.2229 11.9328 46.8336 12.5159 46.34 13.0037C45.8824 13.4928 45.3274 13.8808 44.7108 14.1426C44.0943 14.4043 43.4298 14.5342 42.76 14.5237H37.84C37.75 14.5237 37.71 14.5237 37.71 14.6437V21.4037C37.71 21.4837 37.71 21.5337 37.59 21.5337H35.46C35.4425 21.5352 35.425 21.5329 35.4085 21.5269C35.392 21.5209 35.3771 21.5114 35.3647 21.499C35.3523 21.4866 35.3428 21.4717 35.3368 21.4552C35.3308 21.4388 35.3285 21.4212 35.33 21.4037V4.04372ZM42.45 6.04372H37.84C37.75 6.04372 37.71 6.04372 37.71 6.17372V12.2637C37.71 12.3437 37.71 12.3837 37.84 12.3837H42.45C42.8462 12.3849 43.2384 12.3037 43.6016 12.1454C43.9649 11.987 44.2912 11.7549 44.56 11.4637C44.8556 11.1794 45.0897 10.8375 45.248 10.4591C45.4062 10.0807 45.4852 9.67384 45.48 9.26372C45.4812 8.42191 45.1507 7.61351 44.56 7.01372C44.3005 6.70552 43.9778 6.45672 43.6138 6.28418C43.2497 6.11164 42.8528 6.01941 42.45 6.01372" fill="white"/>
<path d="M57.06 10.7537H55.79C55.331 10.7377 54.8746 10.8298 54.4577 11.0226C54.0408 11.2154 53.675 11.5035 53.39 11.8637C52.7797 12.6165 52.4634 13.5653 52.5 14.5337V21.4037C52.5018 21.4221 52.4994 21.4407 52.4928 21.458C52.4863 21.4753 52.4758 21.4909 52.4622 21.5034C52.4487 21.516 52.4324 21.5253 52.4147 21.5306C52.3969 21.5358 52.3782 21.5369 52.36 21.5337H50.24C50.16 21.5337 50.12 21.4837 50.12 21.4037V9.00374C50.1185 8.98759 50.1205 8.97131 50.126 8.95604C50.1315 8.94078 50.1403 8.92692 50.1517 8.91545C50.1632 8.90398 50.1771 8.89519 50.1923 8.88971C50.2076 8.88423 50.2239 8.88219 50.24 8.88374H52.12C52.12 8.88374 52.21 8.88374 52.24 9.00374L52.5 10.1237C52.5 10.2737 52.63 10.2837 52.76 10.1237C53.1347 9.6838 53.5927 9.32219 54.1075 9.05963C54.6223 8.79708 55.1839 8.63875 55.76 8.59374H57.03C57.0471 8.59237 57.0643 8.5944 57.0806 8.5997C57.0969 8.605 57.112 8.61347 57.125 8.62462C57.138 8.63577 57.1487 8.64939 57.1564 8.66468C57.1641 8.67997 57.1687 8.69665 57.17 8.71374V10.5937C57.1701 10.6117 57.1664 10.6294 57.1592 10.6459C57.1521 10.6624 57.1416 10.6772 57.1285 10.6894C57.1153 10.7016 57.0998 10.711 57.0828 10.7169C57.0659 10.7228 57.0479 10.7251 57.03 10.7237" fill="white"/>
<path d="M71.38 15.2037C71.469 16.9493 70.8735 18.6606 69.72 19.9737C68.4889 21.1296 66.8637 21.773 65.175 21.773C63.4863 21.773 61.8611 21.1296 60.63 19.9737C59.4694 18.6631 58.8635 16.9527 58.94 15.2037C58.8556 13.4607 59.4466 11.7521 60.59 10.4337C61.1724 9.82434 61.8796 9.34799 62.6632 9.03732C63.4468 8.72664 64.2883 8.58897 65.13 8.63375C65.9722 8.5902 66.814 8.72741 67.5988 9.03615C68.3836 9.34489 69.0932 9.81802 69.68 10.4237C70.8304 11.7426 71.4253 13.4557 71.34 15.2037H71.38ZM67.94 18.4137C68.6446 17.4968 68.9992 16.3586 68.94 15.2037C68.9992 14.0489 68.6446 12.9107 67.94 11.9937C67.585 11.6076 67.1538 11.2994 66.6735 11.0886C66.1933 10.8778 65.6745 10.7689 65.15 10.7689C64.6255 10.7689 64.1067 10.8778 63.6265 11.0886C63.1462 11.2994 62.715 11.6076 62.36 11.9937C61.6491 12.9113 61.2939 14.0549 61.36 15.2137C61.2927 16.3697 61.6481 17.5106 62.36 18.4237C62.7125 18.8139 63.143 19.1259 63.6236 19.3393C64.1041 19.5528 64.6241 19.6631 65.15 19.6631C65.6759 19.6631 66.1959 19.5528 66.6765 19.3393C67.157 19.1259 67.5875 18.8139 67.94 18.4237" fill="white"/>
<path d="M84.3 13.1537H82.15C82.07 13.1537 82.02 13.1537 82.02 13.0337C82.0312 12.7115 81.9642 12.3913 81.8249 12.1005C81.6856 11.8098 81.4781 11.557 81.22 11.3637C80.5673 11.0038 79.8374 10.8067 79.0923 10.7893C78.3471 10.7719 77.6088 10.9346 76.94 11.2637C76.741 11.3759 76.5735 11.5364 76.4529 11.7304C76.3323 11.9244 76.2625 12.1456 76.25 12.3737C76.2296 12.5314 76.2471 12.6916 76.301 12.8412C76.3549 12.9908 76.4437 13.1253 76.56 13.2337C76.7388 13.3747 76.9257 13.505 77.12 13.6237C77.9191 13.85 78.7408 13.9875 79.57 14.0337C80.7128 14.1333 81.8366 14.389 82.91 14.7937C83.5048 15.0264 84.0098 15.4428 84.3516 15.9824C84.6933 16.522 84.8539 17.1565 84.81 17.7937C84.8506 18.3958 84.7325 18.9981 84.4675 19.5403C84.2025 20.0825 83.8 20.5457 83.3 20.8837C82.0552 21.6066 80.6278 21.9539 79.19 21.8837C77.727 21.9712 76.2817 21.5273 75.12 20.6337C74.6538 20.2531 74.2795 19.7721 74.0249 19.2267C73.7704 18.6813 73.6423 18.0855 73.65 17.4837C73.6485 17.4676 73.6505 17.4513 73.656 17.436C73.6615 17.4207 73.6703 17.4069 73.6817 17.3954C73.6932 17.3839 73.7071 17.3752 73.7223 17.3697C73.7376 17.3642 73.7539 17.3622 73.77 17.3637H75.84C75.93 17.3637 75.98 17.3637 75.98 17.4837C75.9804 17.8093 76.0631 18.1294 76.2204 18.4144C76.3778 18.6994 76.6047 18.94 76.88 19.1137C77.5834 19.5702 78.4125 19.7941 79.25 19.7537C81.34 19.7537 82.38 19.1237 82.38 17.8637C82.3876 17.716 82.3639 17.5685 82.3104 17.4306C82.257 17.2927 82.1751 17.1677 82.07 17.0637C81.8978 16.8786 81.6858 16.735 81.45 16.6437L81 16.4837C80.8423 16.4425 80.6819 16.4124 80.52 16.3937L79.94 16.1737C79.7295 16.1296 79.5151 16.1061 79.3 16.1037C78.0341 16.0378 76.7891 15.7536 75.62 15.2637C74.9199 14.94 74.3592 14.3758 74.04 13.6737C73.8941 13.242 73.8198 12.7894 73.82 12.3337C73.8229 11.8122 73.9528 11.2993 74.1985 10.8393C74.4442 10.3793 74.7982 9.98612 75.23 9.6937C76.315 8.93799 77.6192 8.56183 78.94 8.6237C80.3292 8.57072 81.698 8.97083 82.84 9.7637C83.3474 10.1387 83.7537 10.6337 84.0225 11.2045C84.2913 11.7752 84.4141 12.4038 84.38 13.0337C84.38 13.1137 84.38 13.1537 84.27 13.1537" fill="white"/>
<path d="M86.32 26.3537V24.4937C86.32 24.4137 86.32 24.3637 86.44 24.3637H87.94C88.84 24.3637 89.29 23.9437 89.28 23.1137V9.00372C89.28 8.92372 89.33 8.88372 89.42 8.88372H91.54C91.5561 8.88217 91.5724 8.88421 91.5877 8.8897C91.603 8.89518 91.6168 8.90397 91.6283 8.91544C91.6398 8.9269 91.6485 8.94077 91.654 8.95603C91.6595 8.97129 91.6616 8.98758 91.66 9.00372V23.5337C91.66 25.5337 90.57 26.5337 88.39 26.4837H86.44C86.4234 26.4838 86.4069 26.4804 86.3916 26.4737C86.3764 26.4671 86.3627 26.4573 86.3514 26.4451C86.3401 26.4329 86.3315 26.4185 86.3261 26.4027C86.3207 26.387 86.3186 26.3703 86.32 26.3537ZM91.94 4.04372V6.67372C91.94 6.75372 91.94 6.80372 91.82 6.80372H89.14C89.06 6.80372 89.02 6.80372 89.02 6.67372V4.04372C89.0185 4.02758 89.0205 4.01129 89.026 3.99603C89.0315 3.98077 89.0402 3.9669 89.0517 3.95544C89.0632 3.94397 89.077 3.93518 89.0923 3.9297C89.1076 3.92421 89.1239 3.92217 89.14 3.92372H91.77C91.7861 3.92217 91.8024 3.92421 91.8177 3.9297C91.833 3.93518 91.8468 3.94397 91.8583 3.95544C91.8697 3.9669 91.8785 3.98077 91.884 3.99603C91.8895 4.01129 91.8915 4.02758 91.89 4.04372" fill="white"/>
<path d="M106.4 15.2037C106.4 15.7637 106.34 16.0437 106.22 16.0437H97.09C97.01 16.0437 96.97 16.0437 96.97 16.1837C96.9642 16.6473 97.0528 17.1073 97.2304 17.5356C97.4079 17.964 97.6706 18.3517 98.0027 18.6753C98.3347 18.999 98.7291 19.2517 99.1619 19.4182C99.5946 19.5846 100.057 19.6614 100.52 19.6437C101.162 19.6957 101.805 19.5586 102.37 19.2494C102.935 18.9402 103.398 18.4724 103.7 17.9037C103.711 17.8694 103.732 17.8392 103.76 17.8177C103.789 17.7961 103.824 17.7842 103.86 17.7837H105.94C106.027 17.7837 106.067 17.8237 106.06 17.9037C105.792 19.068 105.096 20.0889 104.11 20.7637C103.045 21.4597 101.791 21.809 100.52 21.7637C99.7126 21.7985 98.9075 21.6543 98.1623 21.3413C97.4172 21.0284 96.7505 20.5546 96.21 19.9537C95.0947 18.6182 94.5234 16.9115 94.61 15.1737C94.5195 13.4515 95.0678 11.7565 96.15 10.4137C96.7037 9.80355 97.3875 9.32584 98.151 9.01597C98.9144 8.70611 99.7377 8.57204 100.56 8.62371C101.379 8.5705 102.199 8.705 102.958 9.01694C103.717 9.32888 104.395 9.81003 104.94 10.4237C105.994 11.7866 106.523 13.4832 106.43 15.2037H106.4ZM104.05 14.0537C104.046 13.2127 103.729 12.4033 103.16 11.7837C102.453 11.1134 101.511 10.7473 100.537 10.7641C99.5624 10.7809 98.6336 11.1794 97.95 11.8737C97.3567 12.4504 97 13.2278 96.95 14.0537C96.95 14.1437 96.95 14.1837 97.07 14.1837H103.94C104.02 14.1837 104.06 14.1837 104.06 14.0537" fill="white"/>
<path d="M121.5 21.5337H119.26C119.212 21.5334 119.166 21.5214 119.124 21.4987C119.082 21.476 119.046 21.4434 119.02 21.4037L115.02 14.5837C114.97 14.5137 114.91 14.5137 114.83 14.5837L111.99 17.0237C111.971 17.0753 111.971 17.1321 111.99 17.1837V21.4037C111.992 21.4212 111.989 21.4387 111.983 21.4552C111.977 21.4717 111.968 21.4866 111.955 21.499C111.943 21.5114 111.928 21.5209 111.911 21.5269C111.895 21.5329 111.877 21.5352 111.86 21.5337H109.73C109.65 21.5337 109.61 21.4837 109.61 21.4037V4.05371C109.61 3.96371 109.61 3.92371 109.73 3.92371H111.86C111.94 3.92371 111.98 3.92371 111.99 4.05371V13.8537C111.99 13.8537 111.99 13.9037 112.05 13.9237C112.066 13.9359 112.085 13.9425 112.105 13.9425C112.125 13.9425 112.144 13.9359 112.16 13.9237L117.91 9.02371C118.019 8.94158 118.153 8.89925 118.29 8.90371H121.37C121.37 8.90371 121.42 8.90371 121.44 8.95371C121.46 9.00371 121.44 9.00371 121.44 9.02371L116.79 13.0237C116.79 13.0237 116.79 13.1337 116.79 13.2137L121.61 21.4637C121.66 21.5437 121.61 21.5937 121.51 21.5937" fill="white"/>
<path d="M130.33 19.5237V21.4037C130.332 21.4221 130.329 21.4407 130.323 21.458C130.316 21.4753 130.306 21.4909 130.292 21.5034C130.279 21.516 130.262 21.5253 130.245 21.5306C130.227 21.5358 130.208 21.5369 130.19 21.5337H128.28C126.1 21.5337 125 20.5937 124.99 18.5337V10.8837C124.99 10.8037 124.99 10.7537 124.87 10.7537H122.65C122.57 10.7537 122.53 10.7537 122.53 10.6237V9.00372C122.528 8.98758 122.53 8.97129 122.536 8.95603C122.541 8.94077 122.55 8.92691 122.562 8.91544C122.573 8.90397 122.587 8.89518 122.602 8.8897C122.618 8.88421 122.634 8.88217 122.65 8.88372H124.87C124.95 8.88372 124.99 8.88372 124.99 8.74372V5.38372C124.99 5.29372 124.99 5.25372 125.13 5.25372H127.25C127.33 5.25372 127.37 5.25372 127.37 5.38372V8.74372C127.37 8.83372 127.37 8.87372 127.5 8.88372H130.19C130.207 8.88079 130.225 8.88171 130.242 8.88641C130.259 8.89111 130.275 8.89948 130.288 8.91093C130.301 8.92238 130.312 8.93663 130.319 8.95266C130.327 8.9687 130.33 8.98613 130.33 9.00372V10.6237C130.33 10.7137 130.33 10.7537 130.19 10.7537H127.5C127.41 10.7537 127.37 10.7537 127.37 10.8837V18.1637C127.37 18.9937 127.83 19.4037 128.73 19.4037H130.19C130.28 19.4037 130.33 19.4037 130.33 19.5237Z" fill="white"/>
<path d="M139.54 21.5337H136.37C136.3 21.5337 136.25 21.5337 136.22 21.4037L132 9.00373C132 8.92373 132.05 8.88373 132.15 8.88373H134.41C134.46 8.88373 134.5 8.88373 134.54 9.00373L137.81 19.0037C137.815 19.0338 137.831 19.0608 137.855 19.0794C137.879 19.098 137.91 19.1067 137.94 19.1037C137.969 19.1041 137.996 19.0943 138.018 19.0759C138.041 19.0576 138.055 19.032 138.06 19.0037L141.37 9.00373C141.37 8.92373 141.41 8.88373 141.49 8.88373H143.76C143.87 8.88373 143.92 8.88373 143.89 9.00373L139.67 21.4037C139.67 21.4837 139.58 21.5337 139.54 21.5337Z" fill="white"/>
<path d="M158.16 15.2037C158.16 15.7637 158.1 16.0437 157.98 16.0437H148.85C148.832 16.0419 148.813 16.0444 148.796 16.0509C148.778 16.0575 148.763 16.0679 148.75 16.0815C148.738 16.095 148.728 16.1113 148.723 16.129C148.718 16.1468 148.717 16.1655 148.72 16.1837C148.714 16.6482 148.803 17.109 148.981 17.5381C149.159 17.9671 149.423 18.3553 149.756 18.6791C150.089 19.0029 150.485 19.2554 150.919 19.4212C151.353 19.5871 151.816 19.6628 152.28 19.6437C152.922 19.6944 153.565 19.5568 154.129 19.2477C154.694 18.9387 155.157 18.4716 155.46 17.9037C155.471 17.8694 155.492 17.8393 155.52 17.8177C155.549 17.7961 155.584 17.7842 155.62 17.7837H157.68C157.767 17.7837 157.807 17.8237 157.8 17.9037C157.519 19.0755 156.804 20.0972 155.8 20.7637C154.74 21.4614 153.488 21.8109 152.22 21.7637C151.418 21.796 150.619 21.6514 149.88 21.3404C149.14 21.0293 148.478 20.5593 147.94 19.9637C146.822 18.6292 146.247 16.9227 146.33 15.1837C146.246 13.4624 146.794 11.7697 147.87 10.4237C148.427 9.81449 149.112 9.33753 149.877 9.02779C150.642 8.71806 151.466 8.58341 152.29 8.63371C153.107 8.58082 153.924 8.71451 154.681 9.02465C155.439 9.33479 156.115 9.81323 156.66 10.4237C157.714 11.7867 158.243 13.4832 158.15 15.2037H158.16ZM155.77 14.0537C155.761 13.2136 155.445 12.4058 154.88 11.7837C154.173 11.1134 153.231 10.7473 152.257 10.7641C151.282 10.7809 150.354 11.1794 149.67 11.8737C149.078 12.4515 148.722 13.2283 148.67 14.0537C148.668 14.0712 148.671 14.0887 148.677 14.1052C148.683 14.1217 148.692 14.1366 148.705 14.149C148.717 14.1614 148.732 14.1709 148.749 14.1769C148.765 14.1829 148.783 14.1852 148.8 14.1837H155.61C155.69 14.1837 155.73 14.1837 155.73 14.0537" fill="white"/>
<path d="M164.19 4.04372V6.67372C164.192 6.69118 164.189 6.70876 164.183 6.72522C164.177 6.74169 164.168 6.75664 164.155 6.76903C164.143 6.78142 164.128 6.79095 164.112 6.79694C164.095 6.80293 164.077 6.80525 164.06 6.80372H161.43C161.35 6.80372 161.31 6.80372 161.31 6.67372V4.04372C161.308 4.02758 161.311 4.01129 161.316 3.99603C161.321 3.98077 161.33 3.9669 161.342 3.95544C161.353 3.94397 161.367 3.93518 161.382 3.9297C161.398 3.92421 161.414 3.92217 161.43 3.92372H164.06C164.15 3.92372 164.19 3.92372 164.19 4.04372ZM163.93 9.04372V21.4437C163.932 21.4599 163.93 21.4761 163.924 21.4914C163.919 21.5067 163.91 21.5205 163.898 21.532C163.887 21.5435 163.873 21.5523 163.858 21.5577C163.842 21.5632 163.826 21.5653 163.81 21.5637H161.68C161.6 21.5637 161.55 21.5637 161.55 21.4437V9.00372C161.55 8.92372 161.55 8.88372 161.68 8.88372H163.81C163.826 8.88217 163.842 8.88421 163.858 8.8897C163.873 8.89518 163.887 8.90397 163.898 8.91544C163.91 8.9269 163.919 8.94077 163.924 8.95603C163.93 8.97129 163.932 8.98758 163.93 9.00372" fill="white"/>
<path d="M174.36 21.5337H171.19C171.13 21.5337 171.08 21.5337 171.05 21.4037L166.83 9.00373C166.83 8.92373 166.83 8.88373 166.97 8.88373H169.24C169.24 8.88373 169.33 8.88373 169.37 9.00373L172.64 19.0037C172.645 19.032 172.66 19.0576 172.682 19.0759C172.704 19.0943 172.731 19.1041 172.76 19.1037C172.79 19.1067 172.821 19.098 172.845 19.0794C172.869 19.0608 172.885 19.0338 172.89 19.0037L176.19 9.00373C176.19 8.92373 176.27 8.88373 176.32 8.88373H178.59C178.7 8.88373 178.74 8.88373 178.72 9.00373L174.5 21.4037C174.5 21.4837 174.41 21.5337 174.36 21.5337Z" fill="white"/>
<path d="M184.53 4.04372V6.67372C184.532 6.69213 184.529 6.7107 184.523 6.728C184.516 6.7453 184.506 6.76085 184.492 6.77343C184.479 6.78602 184.462 6.7953 184.445 6.80056C184.427 6.80581 184.408 6.80689 184.39 6.80372H181.77C181.69 6.80372 181.65 6.80372 181.65 6.67372V4.04372C181.648 4.02758 181.65 4.01129 181.656 3.99603C181.661 3.98077 181.67 3.9669 181.682 3.95544C181.693 3.94397 181.707 3.93518 181.722 3.9297C181.738 3.92421 181.754 3.92217 181.77 3.92372H184.39C184.48 3.92372 184.53 3.92372 184.53 4.04372ZM184.27 9.04372V21.4437C184.272 21.4599 184.27 21.4761 184.264 21.4914C184.259 21.5067 184.25 21.5205 184.238 21.532C184.227 21.5435 184.213 21.5523 184.198 21.5577C184.182 21.5632 184.166 21.5653 184.15 21.5637H182.01C181.994 21.5653 181.978 21.5632 181.962 21.5577C181.947 21.5523 181.933 21.5435 181.922 21.532C181.91 21.5205 181.901 21.5067 181.896 21.4914C181.89 21.4761 181.888 21.4599 181.89 21.4437V9.00372C181.888 8.98758 181.89 8.97129 181.896 8.95603C181.901 8.94077 181.91 8.9269 181.922 8.91544C181.933 8.90397 181.947 8.89518 181.962 8.8897C181.978 8.88421 181.994 8.88217 182.01 8.88372H184.15C184.166 8.88217 184.182 8.88421 184.198 8.8897C184.213 8.89518 184.227 8.90397 184.238 8.91544C184.25 8.9269 184.259 8.94077 184.264 8.95603C184.27 8.97129 184.272 8.98758 184.27 9.00372" fill="white"/>
<path d="M197.94 13.1537H195.79C195.774 13.1553 195.758 13.1533 195.742 13.1478C195.727 13.1423 195.713 13.1335 195.702 13.122C195.69 13.1106 195.681 13.0967 195.676 13.0814C195.67 13.0662 195.668 13.0499 195.67 13.0337C195.68 12.7106 195.612 12.3899 195.47 12.0991C195.329 11.8082 195.12 11.5559 194.86 11.3637C194.204 10.9891 193.467 10.7805 192.712 10.7561C191.958 10.7317 191.208 10.8922 190.53 11.2237C190.331 11.3359 190.164 11.4964 190.043 11.6904C189.922 11.8844 189.853 12.1057 189.84 12.3337C189.82 12.4914 189.837 12.6517 189.891 12.8012C189.945 12.9508 190.034 13.0854 190.15 13.1937C190.329 13.3348 190.516 13.465 190.71 13.5837C191.509 13.8089 192.331 13.9463 193.16 13.9937C194.303 14.0921 195.427 14.3479 196.5 14.7537C197.095 14.9864 197.6 15.4029 197.942 15.9424C198.283 16.482 198.444 17.1166 198.4 17.7537C198.444 18.3563 198.327 18.9596 198.062 19.5024C197.796 20.0451 197.392 20.5079 196.89 20.8437C195.648 21.5658 194.225 21.9131 192.79 21.8437C191.324 21.9328 189.875 21.4888 188.71 20.5937C188.244 20.2131 187.869 19.7322 187.615 19.1868C187.36 18.6414 187.232 18.0456 187.24 17.4437C187.24 17.3637 187.24 17.3237 187.37 17.3237H189.48C189.57 17.3237 189.62 17.3237 189.62 17.4437C189.62 17.7693 189.703 18.0895 189.86 18.3745C190.018 18.6594 190.245 18.9 190.52 19.0737C191.223 19.5302 192.052 19.7541 192.89 19.7137C194.98 19.7137 196.02 19.0837 196.02 17.8237C196.028 17.6761 196.004 17.5285 195.95 17.3906C195.897 17.2528 195.815 17.1277 195.71 17.0237C195.538 16.8386 195.326 16.695 195.09 16.6037L194.64 16.4437C194.482 16.4025 194.322 16.3725 194.16 16.3537L193.53 16.2437C193.319 16.1996 193.105 16.1762 192.89 16.1737C191.642 16.1054 190.414 15.8247 189.26 15.3437C188.56 15.0201 187.999 14.4559 187.68 13.7537C187.534 13.3221 187.46 12.8694 187.46 12.4137C187.463 11.8923 187.593 11.3793 187.838 10.9194C188.084 10.4594 188.438 10.0662 188.87 9.77374C189.962 9.00809 191.278 8.62808 192.61 8.69374C193.999 8.64076 195.368 9.04087 196.51 9.83374C197.017 10.2087 197.424 10.7038 197.692 11.2745C197.961 11.8452 198.084 12.4738 198.05 13.1037C198.05 13.1837 198 13.2237 197.94 13.2237" fill="white"/>
<path d="M212.52 15.2037C212.52 15.7637 212.46 16.0437 212.34 16.0437H203.2C203.12 16.0437 203.08 16.0437 203.08 16.1837C203.074 16.6482 203.163 17.109 203.341 17.5381C203.519 17.9671 203.783 18.3553 204.116 18.6791C204.449 19.0029 204.845 19.2554 205.279 19.4212C205.713 19.5871 206.176 19.6628 206.64 19.6437C207.282 19.6944 207.925 19.5568 208.489 19.2477C209.054 18.9387 209.517 18.4716 209.82 17.9037C209.829 17.8685 209.85 17.8374 209.879 17.8156C209.908 17.7938 209.944 17.7826 209.98 17.7837H212.04C212.133 17.7837 212.173 17.8237 212.16 17.9037C211.879 19.0755 211.164 20.0972 210.16 20.7637C209.099 21.4595 207.848 21.8089 206.58 21.7637C205.772 21.7992 204.967 21.6553 204.222 21.3423C203.477 21.0293 202.81 20.5551 202.27 19.9537C201.152 18.6192 200.577 16.9127 200.66 15.1737C200.576 13.4524 201.124 11.7597 202.2 10.4137C202.755 9.80528 203.439 9.32874 204.202 9.01901C204.965 8.70928 205.788 8.57422 206.61 8.62372C207.428 8.57002 208.248 8.7033 209.006 9.01344C209.765 9.32358 210.444 9.80244 210.99 10.4137C212.044 11.7767 212.573 13.4732 212.48 15.1937L212.52 15.2037ZM210.1 14.0437C210.091 13.2036 209.775 12.3958 209.21 11.7737C208.503 11.1034 207.561 10.7373 206.587 10.7541C205.612 10.771 204.684 11.1694 204 11.8637C203.408 12.4415 203.052 13.2183 203 14.0437C203 14.1337 203 14.1737 203.12 14.1737H209.94C210.02 14.1737 210.06 14.1737 210.06 14.0437" fill="white"/>
<path d="M222.61 10.7537H221.34C220.881 10.7377 220.425 10.8298 220.008 11.0226C219.591 11.2154 219.225 11.5035 218.94 11.8637C218.33 12.6165 218.013 13.5653 218.05 14.5337V21.4037C218.052 21.4221 218.049 21.4407 218.043 21.458C218.036 21.4753 218.026 21.4909 218.012 21.5034C217.999 21.516 217.982 21.5253 217.965 21.5306C217.947 21.5358 217.928 21.5369 217.91 21.5337H215.79C215.71 21.5337 215.67 21.4837 215.67 21.4037V9.00374C215.668 8.98759 215.67 8.97131 215.676 8.95604C215.681 8.94078 215.69 8.92692 215.702 8.91545C215.713 8.90398 215.727 8.89519 215.742 8.88971C215.758 8.88423 215.774 8.88219 215.79 8.88374H217.67C217.723 8.88374 217.763 8.92374 217.79 9.00374L218.05 10.1237C218.097 10.2771 218.187 10.2771 218.32 10.1237C218.693 9.68212 219.151 9.31935 219.666 9.05665C220.181 8.79394 220.743 8.63657 221.32 8.59374H222.59C222.607 8.59237 222.624 8.5944 222.641 8.5997C222.657 8.605 222.672 8.61347 222.685 8.62462C222.698 8.63577 222.709 8.64939 222.716 8.66468C222.724 8.67997 222.729 8.69665 222.73 8.71374V10.5937C222.73 10.6117 222.726 10.6294 222.719 10.6459C222.712 10.6624 222.702 10.6772 222.688 10.6894C222.675 10.7016 222.66 10.711 222.643 10.7169C222.626 10.7228 222.608 10.7251 222.59 10.7237" fill="white"/>
<path d="M236.35 15.2037C236.35 15.7637 236.29 16.0437 236.17 16.0437H227.03C226.95 16.0437 226.91 16.0437 226.91 16.1837C226.904 16.6482 226.993 17.109 227.171 17.5381C227.349 17.9671 227.613 18.3553 227.946 18.6791C228.279 19.0029 228.675 19.2554 229.109 19.4212C229.543 19.5871 230.006 19.6628 230.47 19.6437C231.112 19.6944 231.755 19.5568 232.319 19.2477C232.884 18.9387 233.347 18.4716 233.65 17.9037C233.659 17.8685 233.68 17.8374 233.709 17.8156C233.738 17.7938 233.774 17.7826 233.81 17.7837H235.81C235.91 17.7837 235.95 17.7837 235.94 17.9037C235.659 19.0755 234.944 20.0972 233.94 20.7637C232.876 21.4609 231.621 21.8104 230.35 21.7637C229.543 21.7978 228.738 21.6532 227.993 21.3404C227.248 21.0275 226.581 20.554 226.04 19.9537C224.925 18.6182 224.353 16.9115 224.44 15.1737C224.349 13.4515 224.898 11.7565 225.98 10.4137C226.535 9.80471 227.219 9.32778 227.982 9.018C228.745 8.70823 229.568 8.5735 230.39 8.62372C231.208 8.57002 232.028 8.7033 232.787 9.01344C233.545 9.32358 234.224 9.80244 234.77 10.4137C235.82 11.7787 236.349 13.4738 236.26 15.1937L236.35 15.2037ZM233.94 14.0537C233.932 13.2115 233.612 12.4023 233.04 11.7837C232.71 11.438 232.307 11.1692 231.861 10.9964C231.415 10.8236 230.937 10.751 230.46 10.7837C229.966 10.7601 229.474 10.8475 229.019 11.0396C228.564 11.2317 228.157 11.5236 227.83 11.8937C227.259 12.4808 226.921 13.2558 226.88 14.0737C226.88 14.1637 226.88 14.2037 227 14.2037H233.81C233.9 14.2037 233.94 14.2037 233.94 14.0737" fill="white"/>
<path d="M239.54 8.8837H241.42C241.47 8.8837 241.51 8.8837 241.55 9.0037L241.8 10.1237C241.809 10.1536 241.827 10.1796 241.853 10.1977C241.878 10.2159 241.909 10.225 241.94 10.2237C241.968 10.2261 241.995 10.2208 242.02 10.2084C242.045 10.1961 242.065 10.1771 242.08 10.1537C242.453 9.64481 242.948 9.23794 243.519 8.97056C244.091 8.70319 244.72 8.5839 245.35 8.6237C246.099 8.58284 246.847 8.71081 247.539 8.99815C248.231 9.28549 248.85 9.72485 249.35 10.2837C250.331 11.4775 250.84 12.9897 250.78 14.5337V21.4037C250.78 21.4837 250.73 21.5237 250.65 21.5237H248.54C248.524 21.5252 248.508 21.5232 248.492 21.5177C248.477 21.5122 248.463 21.5035 248.452 21.492C248.44 21.4805 248.431 21.4667 248.426 21.4514C248.42 21.4361 248.418 21.4198 248.42 21.4037V14.5337C248.448 13.5729 248.171 12.6279 247.63 11.8337C247.346 11.4692 246.977 11.18 246.555 10.9917C246.133 10.8034 245.671 10.7217 245.21 10.7537C244.734 10.7313 244.26 10.82 243.824 11.0126C243.388 11.2053 243.004 11.4966 242.7 11.8637C242.095 12.6199 241.776 13.5655 241.8 14.5337V21.4037C241.802 21.4198 241.8 21.4361 241.794 21.4514C241.789 21.4667 241.78 21.4805 241.768 21.492C241.757 21.5035 241.743 21.5122 241.728 21.5177C241.712 21.5232 241.696 21.5252 241.68 21.5237H239.54C239.524 21.5252 239.508 21.5232 239.492 21.5177C239.477 21.5122 239.463 21.5035 239.452 21.492C239.44 21.4805 239.431 21.4667 239.426 21.4514C239.42 21.4361 239.418 21.4198 239.42 21.4037V9.0037C239.418 8.98756 239.42 8.97127 239.426 8.95601C239.431 8.94074 239.44 8.92688 239.452 8.91541C239.463 8.90395 239.477 8.89516 239.492 8.88967C239.508 8.88419 239.524 8.88215 239.54 8.8837Z" fill="white"/>
</svg>
