<svg width="251" height="27" viewBox="0 0 251 27" fill="none" xmlns="http://www.w3.org/2000/svg">
<path d="M12.67 0H0.5C0.368193 0.00256007 0.242499 0.0560606 0.14928 0.14928C0.0560606 0.242499 0.00256007 0.368193 0 0.5V24.24C0.00256007 24.3718 0.0560606 24.4975 0.14928 24.5907C0.242499 24.6839 0.368193 24.7374 0.5 24.74H12.67C15.9507 24.74 19.0971 23.4367 21.4169 21.1169C23.7367 18.7971 25.04 15.6507 25.04 12.37C25.04 9.08927 23.7367 5.94291 21.4169 3.62309C19.0971 1.30326 15.9507 4.88867e-08 12.67 0ZM13.86 21C12.0187 21.3169 10.1242 21.0395 8.45107 20.2079C6.77789 19.3764 5.4128 18.0339 4.55347 16.3748C3.69414 14.7158 3.38516 12.8263 3.67129 10.9799C3.95741 9.1335 4.82378 7.42612 6.14495 6.10495C7.46612 4.78378 9.1735 3.91741 11.0199 3.63129C12.8663 3.34516 14.7558 3.65414 16.4148 4.51347C18.0739 5.3728 19.4164 6.73789 20.2479 8.41107C21.0795 10.0842 21.3569 11.9787 21.04 13.82C20.7316 15.6119 19.8757 17.2643 18.59 18.55C17.3043 19.8357 15.6519 20.6916 13.86 21Z" fill="#1E2B3C"/>
<path d="M35.3301 3.72011C35.3285 3.70397 35.3306 3.68768 35.3361 3.67242C35.3415 3.65716 35.3503 3.6433 35.3618 3.63183C35.3733 3.62036 35.3871 3.61157 35.4024 3.60609C35.4177 3.6006 35.4339 3.59856 35.4501 3.60011H42.7501C43.4242 3.5952 44.0919 3.73147 44.7102 4.00014C45.3285 4.26882 45.8837 4.66395 46.3401 5.16011C46.8325 5.65711 47.2207 6.24752 47.4817 6.89666C47.7427 7.54579 47.8714 8.24055 47.8601 8.94011C47.8734 9.63398 47.7456 10.3233 47.4843 10.9662C47.223 11.6092 46.8337 12.1923 46.3401 12.6801C45.8825 13.1692 45.3275 13.5572 44.7109 13.819C44.0944 14.0807 43.4298 14.2106 42.7601 14.2001H37.8401C37.7501 14.2001 37.7101 14.2001 37.7101 14.3201V21.0801C37.7101 21.1601 37.7101 21.2101 37.5901 21.2101H35.4601C35.4426 21.2116 35.4251 21.2093 35.4086 21.2033C35.3921 21.1973 35.3772 21.1878 35.3648 21.1754C35.3524 21.163 35.3429 21.1481 35.3369 21.1316C35.3309 21.1151 35.3286 21.0976 35.3301 21.0801V3.72011ZM42.4501 5.72011H37.8401C37.7501 5.72011 37.7101 5.72011 37.7101 5.85011V11.9401C37.7101 12.0201 37.7101 12.0601 37.8401 12.0601H42.4501C42.8463 12.0613 43.2385 11.9801 43.6017 11.8218C43.965 11.6634 44.2913 11.4313 44.5601 11.1401C44.8557 10.8558 45.0898 10.5138 45.2481 10.1354C45.4063 9.75705 45.4853 9.35023 45.4801 8.94011C45.4813 8.0983 45.1508 7.28991 44.5601 6.69011C44.3006 6.38191 43.9779 6.13311 43.6139 5.96057C43.2498 5.78804 42.8529 5.6958 42.4501 5.69011" fill="#1E2B3C"/>
<path d="M57.0599 10.4299H55.7899C55.3308 10.4139 54.8744 10.506 54.4575 10.6988C54.0407 10.8916 53.6749 11.1798 53.3899 11.5399C52.7796 12.2927 52.4633 13.2415 52.4999 14.2099V21.0799C52.5017 21.0984 52.4992 21.1169 52.4927 21.1342C52.4861 21.1515 52.4757 21.1671 52.4621 21.1797C52.4486 21.1922 52.4323 21.2015 52.4146 21.2068C52.3968 21.212 52.3781 21.2131 52.3599 21.2099H50.2399C50.1599 21.2099 50.1199 21.1599 50.1199 21.0799V8.67994C50.1183 8.6638 50.1204 8.64751 50.1259 8.63225C50.1313 8.61699 50.1401 8.60313 50.1516 8.59166C50.1631 8.58019 50.1769 8.5714 50.1922 8.56592C50.2075 8.56044 50.2237 8.5584 50.2399 8.55994H52.1199C52.1199 8.55994 52.2099 8.55994 52.2399 8.67994L52.4999 9.79994C52.4999 9.94994 52.6299 9.95994 52.7599 9.79994C53.1346 9.36001 53.5925 8.99839 54.1073 8.73584C54.6222 8.47328 55.1837 8.31496 55.7599 8.26994H57.0299C57.047 8.26858 57.0642 8.27061 57.0805 8.27591C57.0967 8.28121 57.1118 8.28968 57.1248 8.30083C57.1379 8.31198 57.1485 8.3256 57.1563 8.34089C57.164 8.35618 57.1686 8.37285 57.1699 8.38994V10.2699C57.1699 10.2879 57.1663 10.3057 57.1591 10.3221C57.152 10.3386 57.1415 10.3534 57.1283 10.3656C57.1152 10.3778 57.0997 10.3872 57.0827 10.3931C57.0658 10.399 57.0478 10.4013 57.0299 10.3999" fill="#1E2B3C"/>
<path d="M71.3801 14.88C71.4691 16.6255 70.8735 18.3369 69.7201 19.65C68.489 20.8059 66.8637 21.4493 65.1751 21.4493C63.4864 21.4493 61.8612 20.8059 60.6301 19.65C59.4695 18.3393 58.8635 16.629 58.9401 14.88C58.8557 13.1369 59.4467 11.4284 60.5901 10.11C61.1724 9.50061 61.8796 9.02426 62.6632 8.71359C63.4468 8.40291 64.2883 8.26524 65.1301 8.31002C65.9723 8.26647 66.8141 8.40368 67.5989 8.71242C68.3837 9.02116 69.0933 9.49429 69.6801 10.1C70.8304 11.4189 71.4254 13.132 71.3401 14.88H71.3801ZM67.9401 18.09C68.6447 17.1731 68.9993 16.0349 68.9401 14.88C68.9993 13.7251 68.6447 12.587 67.9401 11.67C67.5851 11.2839 67.1538 10.9757 66.6736 10.7649C66.1933 10.554 65.6746 10.4452 65.1501 10.4452C64.6256 10.4452 64.1068 10.554 63.6266 10.7649C63.1463 10.9757 62.715 11.2839 62.3601 11.67C61.6491 12.5875 61.294 13.7312 61.3601 14.89C61.2928 16.0459 61.6482 17.1868 62.3601 18.1C62.7126 18.4902 63.143 18.8021 63.6236 19.0156C64.1042 19.2291 64.6242 19.3394 65.1501 19.3394C65.6759 19.3394 66.1959 19.2291 66.6765 19.0156C67.1571 18.8021 67.5875 18.4902 67.9401 18.1" fill="#1E2B3C"/>
<path d="M84.2999 12.83H82.1499C82.0699 12.83 82.0199 12.83 82.0199 12.71C82.0311 12.3878 81.9641 12.0677 81.8248 11.7769C81.6855 11.4861 81.478 11.2333 81.2199 11.04C80.5672 10.6801 79.8373 10.483 79.0922 10.4656C78.347 10.4482 77.6087 10.611 76.9399 10.94C76.7409 11.0522 76.5734 11.2127 76.4528 11.4067C76.3322 11.6007 76.2625 11.822 76.2499 12.05C76.2295 12.2077 76.247 12.368 76.3009 12.5175C76.3548 12.6671 76.4436 12.8016 76.5599 12.91C76.7387 13.0511 76.9257 13.1813 77.1199 13.3C77.919 13.5263 78.7407 13.6638 79.5699 13.71C80.7127 13.8096 81.8365 14.0654 82.9099 14.47C83.5047 14.7027 84.0097 15.1191 84.3515 15.6587C84.6932 16.1983 84.8538 16.8329 84.8099 17.47C84.8505 18.0722 84.7324 18.6744 84.4674 19.2166C84.2024 19.7588 83.7999 20.222 83.2999 20.56C82.0551 21.2829 80.6277 21.6302 79.1899 21.56C77.7269 21.6475 76.2816 21.2036 75.1199 20.31C74.6537 19.9294 74.2794 19.4485 74.0249 18.9031C73.7703 18.3577 73.6422 17.7618 73.6499 17.16C73.6484 17.1439 73.6504 17.1276 73.6559 17.1123C73.6614 17.0971 73.6702 17.0832 73.6816 17.0717C73.6931 17.0603 73.707 17.0515 73.7222 17.046C73.7375 17.0405 73.7538 17.0385 73.7699 17.04H75.8399C75.9299 17.04 75.9799 17.04 75.9799 17.16C75.9803 17.4856 76.063 17.8057 76.2204 18.0907C76.3777 18.3757 76.6046 18.6163 76.8799 18.79C77.5833 19.2465 78.4124 19.4704 79.2499 19.43C81.3399 19.43 82.3799 18.8 82.3799 17.54C82.3875 17.3924 82.3638 17.2448 82.3104 17.1069C82.2569 16.9691 82.175 16.844 82.0699 16.74C81.8977 16.5549 81.6857 16.4113 81.4499 16.32L80.9999 16.16C80.8422 16.1188 80.6818 16.0888 80.5199 16.07L79.9399 15.85C79.7294 15.8059 79.515 15.7824 79.2999 15.78C78.034 15.7142 76.789 15.43 75.6199 14.94C74.9198 14.6164 74.3592 14.0522 74.0399 13.35C73.894 12.9183 73.8197 12.4657 73.8199 12.01C73.8228 11.4886 73.9527 10.9756 74.1984 10.5156C74.4441 10.0557 74.7981 9.66245 75.2299 9.37003C76.3149 8.61432 77.6191 8.23816 78.9399 8.30003C80.3291 8.24705 81.6979 8.64716 82.8399 9.44003C83.3473 9.81498 83.7536 10.31 84.0224 10.8808C84.2912 11.4515 84.414 12.0801 84.3799 12.71C84.3799 12.79 84.3799 12.83 84.2699 12.83" fill="#1E2B3C"/>
<path d="M86.32 26.0301V24.1701C86.32 24.0901 86.32 24.0401 86.44 24.0401H87.94C88.84 24.0401 89.29 23.6201 89.28 22.7901V8.68011C89.28 8.60011 89.33 8.56011 89.42 8.56011H91.54C91.5561 8.55856 91.5724 8.5606 91.5877 8.56609C91.603 8.57157 91.6168 8.58036 91.6283 8.59183C91.6398 8.60329 91.6485 8.61716 91.654 8.63242C91.6595 8.64768 91.6616 8.66397 91.66 8.68011V23.2101C91.66 25.2101 90.57 26.2101 88.39 26.1601H86.44C86.4234 26.1602 86.4069 26.1568 86.3916 26.1501C86.3764 26.1435 86.3627 26.1337 86.3514 26.1215C86.3401 26.1093 86.3315 26.0948 86.3261 26.0791C86.3207 26.0634 86.3186 26.0467 86.32 26.0301ZM91.94 3.72011V6.35011C91.94 6.43011 91.94 6.48011 91.82 6.48011H89.14C89.06 6.48011 89.02 6.48011 89.02 6.35011V3.72011C89.0185 3.70397 89.0205 3.68768 89.026 3.67242C89.0315 3.65716 89.0402 3.6433 89.0517 3.63183C89.0632 3.62036 89.077 3.61157 89.0923 3.60609C89.1076 3.6006 89.1239 3.59856 89.14 3.60011H91.77C91.7861 3.59856 91.8024 3.6006 91.8177 3.60609C91.833 3.61157 91.8468 3.62036 91.8583 3.63183C91.8697 3.6433 91.8785 3.65716 91.884 3.67242C91.8895 3.68768 91.8915 3.70397 91.89 3.72011" fill="#1E2B3C"/>
<path d="M106.4 14.8799C106.4 15.4399 106.34 15.7199 106.22 15.7199H97.09C97.01 15.7199 96.97 15.7199 96.97 15.8599C96.9642 16.3235 97.0528 16.7835 97.2304 17.2118C97.4079 17.6402 97.6706 18.0279 98.0027 18.3515C98.3347 18.6752 98.7291 18.9279 99.1619 19.0944C99.5946 19.2608 100.057 19.3376 100.52 19.3199C101.162 19.3719 101.805 19.2348 102.37 18.9256C102.935 18.6165 103.398 18.1486 103.7 17.5799C103.711 17.5456 103.732 17.5155 103.76 17.4939C103.789 17.4723 103.824 17.4604 103.86 17.4599H105.94C106.027 17.4599 106.067 17.4999 106.06 17.5799C105.792 18.7442 105.096 19.7651 104.11 20.4399C103.045 21.1359 101.791 21.4852 100.52 21.4399C99.7126 21.4747 98.9075 21.3305 98.1623 21.0175C97.4172 20.7046 96.7505 20.2308 96.21 19.6299C95.0947 18.2944 94.5234 16.5877 94.61 14.8499C94.5195 13.1277 95.0678 11.4327 96.15 10.0899C96.7037 9.47976 97.3875 9.00205 98.151 8.69218C98.9144 8.38231 99.7377 8.24825 100.56 8.29992C101.379 8.24671 102.199 8.3812 102.958 8.69315C103.717 9.00509 104.395 9.48624 104.94 10.0999C105.994 11.4629 106.523 13.1594 106.43 14.8799H106.4ZM104.05 13.7299C104.046 12.8889 103.729 12.0795 103.16 11.4599C102.453 10.7896 101.511 10.4235 100.537 10.4403C99.5624 10.4572 98.6336 10.8556 97.95 11.5499C97.3567 12.1266 97 12.904 96.95 13.7299C96.95 13.8199 96.95 13.8599 97.07 13.8599H103.94C104.02 13.8599 104.06 13.8599 104.06 13.7299" fill="#1E2B3C"/>
<path d="M121.5 21.2101H119.26C119.213 21.2098 119.166 21.1978 119.124 21.1751C119.082 21.1524 119.046 21.1198 119.02 21.0801L115.02 14.2601C114.97 14.1901 114.91 14.1901 114.83 14.2601L111.99 16.7001C111.971 16.7517 111.971 16.8085 111.99 16.8601V21.0801C111.992 21.0976 111.989 21.1151 111.983 21.1316C111.977 21.1481 111.968 21.163 111.955 21.1754C111.943 21.1878 111.928 21.1973 111.912 21.2033C111.895 21.2093 111.878 21.2116 111.86 21.2101H109.73C109.65 21.2101 109.61 21.1601 109.61 21.0801V3.7301C109.61 3.6401 109.61 3.6001 109.73 3.6001H111.86C111.94 3.6001 111.98 3.6001 111.99 3.7301V13.5301C111.99 13.5301 111.99 13.5801 112.05 13.6001C112.066 13.6123 112.085 13.6189 112.105 13.6189C112.125 13.6189 112.144 13.6123 112.16 13.6001L117.91 8.7001C118.019 8.61797 118.153 8.57564 118.29 8.5801H121.37C121.37 8.5801 121.42 8.5801 121.44 8.6301C121.46 8.6801 121.44 8.6801 121.44 8.7001L116.79 12.7001C116.79 12.7001 116.79 12.8101 116.79 12.8901L121.61 21.1401C121.66 21.2201 121.61 21.2701 121.51 21.2701" fill="#1E2B3C"/>
<path d="M130.33 19.2002V21.0802C130.332 21.0986 130.329 21.1172 130.323 21.1345C130.316 21.1518 130.306 21.1673 130.292 21.1799C130.279 21.1925 130.262 21.2018 130.245 21.207C130.227 21.2123 130.208 21.2133 130.19 21.2102H128.28C126.1 21.2102 125 20.2702 124.99 18.2102V10.5602C124.99 10.4802 124.99 10.4302 124.87 10.4302H122.65C122.57 10.4302 122.53 10.4302 122.53 10.3002V8.68018C122.528 8.66403 122.531 8.64775 122.536 8.63248C122.542 8.61722 122.55 8.60336 122.562 8.59189C122.573 8.58042 122.587 8.57163 122.602 8.56615C122.618 8.56067 122.634 8.55863 122.65 8.56018H124.87C124.95 8.56018 124.99 8.56018 124.99 8.42018V5.06018C124.99 4.97018 124.99 4.93018 125.13 4.93018H127.25C127.33 4.93018 127.37 4.93018 127.37 5.06018V8.42018C127.37 8.51018 127.37 8.55018 127.5 8.56018H130.19C130.207 8.55724 130.225 8.55816 130.242 8.56286C130.259 8.56756 130.275 8.57594 130.288 8.58739C130.302 8.59884 130.312 8.61308 130.319 8.62912C130.327 8.64515 130.33 8.66258 130.33 8.68018V10.3002C130.33 10.3902 130.33 10.4302 130.19 10.4302H127.5C127.41 10.4302 127.37 10.4302 127.37 10.5602V17.8402C127.37 18.6702 127.83 19.0802 128.73 19.0802H130.19C130.28 19.0802 130.33 19.0802 130.33 19.2002Z" fill="#1E2B3C"/>
<path d="M139.54 21.2101H136.37C136.3 21.2101 136.25 21.2101 136.22 21.0801L132 8.68006C132 8.60006 132.05 8.56006 132.15 8.56006H134.41C134.46 8.56006 134.5 8.56006 134.54 8.68006L137.81 18.6801C137.815 18.7101 137.831 18.7372 137.855 18.7557C137.879 18.7743 137.91 18.783 137.94 18.7801C137.969 18.7805 137.996 18.7706 138.018 18.7523C138.041 18.7339 138.055 18.7083 138.06 18.6801L141.37 8.68006C141.37 8.60006 141.41 8.56006 141.49 8.56006H143.76C143.87 8.56006 143.92 8.56006 143.89 8.68006L139.67 21.0801C139.67 21.1601 139.58 21.2101 139.54 21.2101Z" fill="#1E2B3C"/>
<path d="M158.16 14.8801C158.16 15.4401 158.1 15.7201 157.98 15.7201H148.85C148.832 15.7183 148.813 15.7208 148.796 15.7273C148.778 15.7339 148.763 15.7443 148.75 15.7579C148.738 15.7714 148.728 15.7877 148.723 15.8054C148.718 15.8232 148.717 15.8419 148.72 15.8601C148.714 16.3246 148.803 16.7854 148.981 17.2145C149.159 17.6435 149.423 18.0317 149.756 18.3555C150.089 18.6793 150.485 18.9318 150.919 19.0976C151.353 19.2634 151.816 19.3392 152.28 19.3201C152.922 19.3708 153.564 19.2332 154.129 18.9241C154.694 18.6151 155.157 18.148 155.46 17.5801C155.471 17.5458 155.492 17.5156 155.52 17.4941C155.549 17.4725 155.584 17.4606 155.62 17.4601H157.68C157.767 17.4601 157.807 17.5001 157.8 17.5801C157.518 18.7518 156.804 19.7736 155.8 20.4401C154.74 21.1378 153.488 21.4873 152.22 21.4401C151.418 21.4724 150.619 21.3278 149.879 21.0168C149.14 20.7057 148.478 20.2357 147.94 19.6401C146.822 18.3056 146.247 16.5991 146.33 14.8601C146.246 13.1388 146.794 11.446 147.87 10.1001C148.426 9.49088 149.112 9.01392 149.877 8.70419C150.642 8.39445 151.466 8.2598 152.29 8.3101C153.106 8.25721 153.924 8.3909 154.681 8.70104C155.439 9.01118 156.115 9.48962 156.66 10.1001C157.714 11.463 158.243 13.1596 158.15 14.8801H158.16ZM155.77 13.7301C155.761 12.89 155.445 12.0822 154.88 11.4601C154.173 10.7898 153.231 10.4237 152.257 10.4405C151.282 10.4573 150.354 10.8558 149.67 11.5501C149.078 12.1279 148.722 12.9047 148.67 13.7301C148.668 13.7476 148.671 13.7651 148.677 13.7816C148.683 13.7981 148.692 13.813 148.705 13.8254C148.717 13.8378 148.732 13.8473 148.748 13.8533C148.765 13.8593 148.782 13.8616 148.8 13.8601H155.61C155.69 13.8601 155.73 13.8601 155.73 13.7301" fill="#1E2B3C"/>
<path d="M164.19 3.72011V6.35011C164.192 6.36757 164.189 6.38515 164.183 6.40161C164.177 6.41808 164.168 6.43303 164.155 6.44542C164.143 6.45781 164.128 6.46734 164.112 6.47333C164.095 6.47932 164.078 6.48164 164.06 6.48011H161.43C161.35 6.48011 161.31 6.48011 161.31 6.35011V3.72011C161.309 3.70397 161.311 3.68768 161.316 3.67242C161.322 3.65716 161.33 3.6433 161.342 3.63183C161.353 3.62036 161.367 3.61157 161.382 3.60609C161.398 3.6006 161.414 3.59856 161.43 3.60011H164.06C164.15 3.60011 164.19 3.60011 164.19 3.72011ZM163.93 8.72011V21.1201C163.932 21.1363 163.93 21.1525 163.924 21.1678C163.919 21.1831 163.91 21.1969 163.898 21.2084C163.887 21.2199 163.873 21.2287 163.858 21.2341C163.843 21.2396 163.826 21.2417 163.81 21.2401H161.68C161.6 21.2401 161.55 21.2401 161.55 21.1201V8.68011C161.55 8.60011 161.55 8.56011 161.68 8.56011H163.81C163.826 8.55856 163.843 8.5606 163.858 8.56609C163.873 8.57157 163.887 8.58036 163.898 8.59183C163.91 8.60329 163.919 8.61716 163.924 8.63242C163.93 8.64768 163.932 8.66397 163.93 8.68011" fill="#1E2B3C"/>
<path d="M174.36 21.2101H171.19C171.13 21.2101 171.08 21.2101 171.05 21.0801L166.83 8.68006C166.83 8.60006 166.83 8.56006 166.97 8.56006H169.24C169.24 8.56006 169.33 8.56006 169.37 8.68006L172.64 18.6801C172.645 18.7083 172.66 18.7339 172.682 18.7523C172.704 18.7706 172.731 18.7805 172.76 18.7801C172.79 18.783 172.821 18.7743 172.845 18.7557C172.869 18.7372 172.885 18.7101 172.89 18.6801L176.19 8.68006C176.19 8.60006 176.27 8.56006 176.32 8.56006H178.59C178.7 8.56006 178.74 8.56006 178.72 8.68006L174.5 21.0801C174.5 21.1601 174.41 21.2101 174.36 21.2101Z" fill="#1E2B3C"/>
<path d="M184.53 3.72011V6.35011C184.532 6.36852 184.529 6.3871 184.523 6.40439C184.516 6.42169 184.506 6.43724 184.492 6.44983C184.479 6.46241 184.462 6.47169 184.445 6.47695C184.427 6.4822 184.408 6.48328 184.39 6.48011H181.77C181.69 6.48011 181.65 6.48011 181.65 6.35011V3.72011C181.648 3.70397 181.65 3.68768 181.656 3.67242C181.661 3.65716 181.67 3.6433 181.682 3.63183C181.693 3.62036 181.707 3.61157 181.722 3.60609C181.737 3.6006 181.754 3.59856 181.77 3.60011H184.39C184.48 3.60011 184.53 3.60011 184.53 3.72011ZM184.27 8.72011V21.1201C184.271 21.1363 184.269 21.1525 184.264 21.1678C184.258 21.1831 184.25 21.1969 184.238 21.2084C184.227 21.2199 184.213 21.2287 184.198 21.2341C184.182 21.2396 184.166 21.2417 184.15 21.2401H182.01C181.994 21.2417 181.977 21.2396 181.962 21.2341C181.947 21.2287 181.933 21.2199 181.922 21.2084C181.91 21.1969 181.901 21.1831 181.896 21.1678C181.89 21.1525 181.888 21.1363 181.89 21.1201V8.68011C181.888 8.66397 181.89 8.64768 181.896 8.63242C181.901 8.61716 181.91 8.60329 181.922 8.59183C181.933 8.58036 181.947 8.57157 181.962 8.56609C181.977 8.5606 181.994 8.55856 182.01 8.56011H184.15C184.166 8.55856 184.182 8.5606 184.198 8.56609C184.213 8.57157 184.227 8.58036 184.238 8.59183C184.25 8.60329 184.258 8.61716 184.264 8.63242C184.269 8.64768 184.271 8.66397 184.27 8.68011" fill="#1E2B3C"/>
<path d="M197.94 12.8301H195.79C195.774 12.8316 195.758 12.8296 195.742 12.8241C195.727 12.8186 195.713 12.8098 195.702 12.7984C195.69 12.7869 195.682 12.773 195.676 12.7578C195.671 12.7425 195.669 12.7262 195.67 12.7101C195.68 12.387 195.612 12.0663 195.471 11.7754C195.329 11.4846 195.12 11.2323 194.86 11.0401C194.204 10.6654 193.467 10.4568 192.712 10.4324C191.958 10.408 191.209 10.5685 190.53 10.9001C190.331 11.0123 190.164 11.1728 190.043 11.3668C189.922 11.5607 189.853 11.782 189.84 12.0101C189.82 12.1677 189.837 12.328 189.891 12.4776C189.945 12.6271 190.034 12.7617 190.15 12.8701C190.329 13.0111 190.516 13.1413 190.71 13.2601C191.509 13.4852 192.331 13.6227 193.16 13.6701C194.303 13.7684 195.427 14.0242 196.5 14.4301C197.095 14.6627 197.6 15.0792 197.942 15.6188C198.283 16.1583 198.444 16.7929 198.4 17.4301C198.444 18.0326 198.327 18.6359 198.062 19.1787C197.797 19.7214 197.392 20.1843 196.89 20.5201C195.649 21.2422 194.225 21.5895 192.79 21.5201C191.324 21.6091 189.875 21.1652 188.71 20.2701C188.244 19.8894 187.87 19.4085 187.615 18.8631C187.36 18.3177 187.232 17.7219 187.24 17.1201C187.24 17.0401 187.24 17.0001 187.37 17.0001H189.48C189.57 17.0001 189.62 17.0001 189.62 17.1201C189.62 17.4456 189.703 17.7658 189.861 18.0508C190.018 18.3358 190.245 18.5763 190.52 18.7501C191.223 19.2065 192.053 19.4304 192.89 19.3901C194.98 19.3901 196.02 18.7601 196.02 17.5001C196.028 17.3524 196.004 17.2048 195.951 17.067C195.897 16.9291 195.815 16.8041 195.71 16.7001C195.538 16.5149 195.326 16.3713 195.09 16.2801L194.64 16.1201C194.482 16.0789 194.322 16.0488 194.16 16.0301L193.53 15.9201C193.32 15.8759 193.105 15.8525 192.89 15.8501C191.642 15.7817 190.414 15.501 189.26 15.0201C188.56 14.6964 187.999 14.1322 187.68 13.4301C187.534 12.9984 187.46 12.5457 187.46 12.0901C187.463 11.5686 187.593 11.0557 187.839 10.5957C188.084 10.1357 188.438 9.74249 188.87 9.45007C189.962 8.68442 191.278 8.30441 192.61 8.37007C193.999 8.31709 195.368 8.7172 196.51 9.51007C197.017 9.88502 197.424 10.3801 197.693 10.9508C197.961 11.5216 198.084 12.1501 198.05 12.7801C198.05 12.8601 198 12.9001 197.94 12.9001" fill="#1E2B3C"/>
<path d="M212.52 14.8802C212.52 15.4402 212.46 15.7202 212.34 15.7202H203.2C203.12 15.7202 203.08 15.7202 203.08 15.8602C203.074 16.3247 203.163 16.7855 203.341 17.2145C203.519 17.6435 203.783 18.0318 204.116 18.3556C204.449 18.6793 204.845 18.9318 205.279 19.0977C205.713 19.2635 206.176 19.3392 206.64 19.3202C207.282 19.3708 207.925 19.2332 208.489 18.9242C209.054 18.6151 209.517 18.1481 209.82 17.5802C209.829 17.545 209.85 17.5139 209.879 17.4921C209.908 17.4703 209.944 17.459 209.98 17.4602H212.04C212.133 17.4602 212.173 17.5002 212.16 17.5802C211.879 18.7519 211.164 19.7737 210.16 20.4402C209.099 21.136 207.848 21.4854 206.58 21.4402C205.773 21.4757 204.967 21.3317 204.222 21.0188C203.477 20.7058 202.81 20.2316 202.27 19.6302C201.152 18.2956 200.577 16.5892 200.66 14.8502C200.576 13.1288 201.124 11.4361 202.2 10.0902C202.755 9.48173 203.439 9.00519 204.202 8.69546C204.965 8.38573 205.788 8.25067 206.61 8.30017C207.428 8.24648 208.248 8.37975 209.007 8.68989C209.765 9.00003 210.444 9.4789 210.99 10.0902C212.044 11.4531 212.573 13.1497 212.48 14.8702L212.52 14.8802ZM210.1 13.7202C210.091 12.88 209.775 12.0723 209.21 11.4502C208.503 10.7798 207.561 10.4137 206.587 10.4306C205.612 10.4474 204.684 10.8458 204 11.5402C203.408 12.118 203.052 12.8948 203 13.7202C203 13.8102 203 13.8502 203.12 13.8502H209.94C210.02 13.8502 210.06 13.8502 210.06 13.7202" fill="#1E2B3C"/>
<path d="M222.61 10.4299H221.34C220.881 10.4139 220.424 10.506 220.008 10.6988C219.591 10.8916 219.225 11.1798 218.94 11.5399C218.33 12.2927 218.013 13.2415 218.05 14.2099V21.0799C218.052 21.0984 218.049 21.1169 218.043 21.1342C218.036 21.1515 218.026 21.1671 218.012 21.1797C217.999 21.1922 217.982 21.2015 217.965 21.2068C217.947 21.212 217.928 21.2131 217.91 21.2099H215.79C215.71 21.2099 215.67 21.1599 215.67 21.0799V8.67994C215.668 8.6638 215.67 8.64751 215.676 8.63225C215.681 8.61699 215.69 8.60313 215.702 8.59166C215.713 8.58019 215.727 8.5714 215.742 8.56592C215.758 8.56044 215.774 8.5584 215.79 8.55994H217.67C217.723 8.55994 217.763 8.59994 217.79 8.67994L218.05 9.79994C218.097 9.95328 218.187 9.95328 218.32 9.79994C218.693 9.35833 219.151 8.99556 219.666 8.73286C220.181 8.47015 220.743 8.31278 221.32 8.26994H222.59C222.607 8.26858 222.624 8.27061 222.641 8.27591C222.657 8.28121 222.672 8.28968 222.685 8.30083C222.698 8.31198 222.709 8.3256 222.716 8.34089C222.724 8.35618 222.729 8.37285 222.73 8.38994V10.2699C222.73 10.2879 222.726 10.3057 222.719 10.3221C222.712 10.3386 222.702 10.3534 222.688 10.3656C222.675 10.3778 222.66 10.3872 222.643 10.3931C222.626 10.399 222.608 10.4013 222.59 10.3999" fill="#1E2B3C"/>
<path d="M236.35 14.8802C236.35 15.4402 236.29 15.7202 236.17 15.7202H227.03C226.95 15.7202 226.91 15.7202 226.91 15.8602C226.904 16.3247 226.993 16.7855 227.171 17.2145C227.349 17.6435 227.613 18.0318 227.946 18.3556C228.279 18.6793 228.675 18.9318 229.109 19.0977C229.543 19.2635 230.006 19.3392 230.47 19.3202C231.112 19.3708 231.755 19.2332 232.319 18.9242C232.884 18.6151 233.347 18.1481 233.65 17.5802C233.659 17.545 233.68 17.5139 233.709 17.4921C233.738 17.4703 233.774 17.459 233.81 17.4602H235.81C235.91 17.4602 235.95 17.4602 235.94 17.5802C235.659 18.7519 234.944 19.7737 233.94 20.4402C232.876 21.1374 231.621 21.4868 230.35 21.4402C229.543 21.4743 228.738 21.3297 227.993 21.0168C227.248 20.7039 226.581 20.2305 226.04 19.6302C224.925 18.2947 224.354 16.588 224.44 14.8502C224.35 13.128 224.898 11.433 225.98 10.0902C226.535 9.48116 227.219 9.00423 227.982 8.69446C228.745 8.38468 229.568 8.24995 230.39 8.30017C231.208 8.24648 232.028 8.37975 232.787 8.68989C233.545 9.00003 234.224 9.4789 234.77 10.0902C235.82 11.4552 236.349 13.1502 236.26 14.8702L236.35 14.8802ZM233.94 13.7302C233.932 12.888 233.612 12.0788 233.04 11.4602C232.71 11.1145 232.307 10.8457 231.861 10.6729C231.416 10.5 230.937 10.4274 230.46 10.4602C229.967 10.4365 229.474 10.524 229.019 10.7161C228.564 10.9082 228.157 11.2001 227.83 11.5702C227.259 12.1573 226.921 12.9322 226.88 13.7502C226.88 13.8402 226.88 13.8802 227 13.8802H233.81C233.9 13.8802 233.94 13.8802 233.94 13.7502" fill="#1E2B3C"/>
<path d="M239.54 8.55997H241.42C241.47 8.55997 241.51 8.55997 241.55 8.67997L241.8 9.79997C241.809 9.82984 241.827 9.8559 241.853 9.87401C241.878 9.89212 241.909 9.90126 241.94 9.89997C241.967 9.90232 241.995 9.89703 242.02 9.88468C242.044 9.87233 242.065 9.85339 242.08 9.82997C242.453 9.32108 242.948 8.91421 243.519 8.64683C244.091 8.37946 244.72 8.26017 245.35 8.29997C246.098 8.25911 246.847 8.38708 247.539 8.67442C248.231 8.96176 248.85 9.40112 249.35 9.95997C250.331 11.1538 250.84 12.666 250.78 14.21V21.08C250.78 21.16 250.73 21.2 250.65 21.2H248.54C248.524 21.2015 248.508 21.1995 248.492 21.194C248.477 21.1885 248.463 21.1797 248.452 21.1683C248.44 21.1568 248.431 21.1429 248.426 21.1277C248.42 21.1124 248.418 21.0961 248.42 21.08V14.21C248.448 13.2492 248.171 12.3042 247.63 11.51C247.346 11.1455 246.977 10.8563 246.555 10.668C246.133 10.4797 245.671 10.3979 245.21 10.43C244.734 10.4076 244.26 10.4962 243.824 10.6889C243.388 10.8815 243.004 11.1729 242.7 11.54C242.095 12.2961 241.776 13.2417 241.8 14.21V21.08C241.801 21.0961 241.799 21.1124 241.794 21.1277C241.788 21.1429 241.78 21.1568 241.768 21.1683C241.757 21.1797 241.743 21.1885 241.728 21.194C241.712 21.1995 241.696 21.2015 241.68 21.2H239.54C239.524 21.2015 239.508 21.1995 239.492 21.194C239.477 21.1885 239.463 21.1797 239.452 21.1683C239.44 21.1568 239.431 21.1429 239.426 21.1277C239.42 21.1124 239.418 21.0961 239.42 21.08V8.67997C239.418 8.66383 239.42 8.64754 239.426 8.63228C239.431 8.61701 239.44 8.60315 239.452 8.59168C239.463 8.58022 239.477 8.57143 239.492 8.56594C239.508 8.56046 239.524 8.55842 239.54 8.55997Z" fill="#1E2B3C"/>
</svg>
