<svg width="272" height="27" viewBox="0 0 272 27" fill="none" xmlns="http://www.w3.org/2000/svg">
<path d="M12.67 0.339844H0.5C0.368193 0.342404 0.242499 0.395904 0.14928 0.489123C0.0560606 0.582342 0.00256007 0.708037 0 0.839844V24.5798C0.00256007 24.7117 0.0560606 24.8373 0.14928 24.9306C0.242499 25.0238 0.368193 25.0773 0.5 25.0798H12.67C15.9507 25.0798 19.0971 23.7766 21.4169 21.4568C23.7367 19.1369 25.04 15.9906 25.04 12.7098C25.04 9.42912 23.7367 6.28276 21.4169 3.96293C19.0971 1.64311 15.9507 0.339844 12.67 0.339844ZM13.86 21.3398C12.0187 21.6567 10.1242 21.3793 8.45107 20.5478C6.77789 19.7163 5.4128 18.3738 4.55347 16.7147C3.69414 15.0556 3.38516 13.1661 3.67129 11.3197C3.95741 9.47335 4.82378 7.76596 6.14495 6.4448C7.46612 5.12363 9.1735 4.25726 11.0199 3.97113C12.8663 3.68501 14.7558 3.99398 16.4148 4.85331C18.0739 5.71265 19.4164 7.07773 20.2479 8.75091C21.0795 10.4241 21.3569 12.3185 21.04 14.1598C20.7316 15.9518 19.8757 17.6042 18.59 18.8899C17.3043 20.1756 15.6519 21.0315 13.86 21.3398Z" fill="white"/>
<path d="M45.4 8.75982C45.4032 8.34928 45.3087 7.94386 45.1244 7.57699C44.9401 7.21013 44.6713 6.89234 44.34 6.64982C43.5798 6.08142 42.6487 5.78871 41.7 5.81982C40.7542 5.78778 39.826 6.08071 39.07 6.64982C38.7359 6.90274 38.4665 7.23129 38.284 7.60851C38.1014 7.98573 38.011 8.40086 38.02 8.81982C38.005 9.24368 38.1315 9.66047 38.3795 10.0045C38.6276 10.3485 38.9831 10.6002 39.39 10.7198C40.2098 11.0243 41.0681 11.2128 41.94 11.2798L44.46 11.7598C45.1634 11.898 45.8392 12.1514 46.46 12.5098C47.79 13.2698 48.46 14.6198 48.46 16.5798C48.466 17.2731 48.3277 17.96 48.054 18.597C47.7803 19.2339 47.3771 19.807 46.87 20.2798C45.526 21.4098 43.7901 21.9633 42.04 21.8198C40.2509 21.946 38.4761 21.4242 37.04 20.3498C36.4986 19.9199 36.0624 19.3722 35.7644 18.7484C35.4663 18.1246 35.3144 17.4411 35.32 16.7498C35.3186 16.7332 35.3207 16.7166 35.3261 16.7008C35.3315 16.6851 35.3401 16.6707 35.3514 16.6584C35.3627 16.6462 35.3764 16.6365 35.3916 16.6298C35.4069 16.6232 35.4234 16.6198 35.44 16.6198H37.56C37.66 16.6198 37.7 16.6698 37.7 16.7798C37.7251 17.1758 37.8387 17.561 38.0326 17.9072C38.2264 18.2533 38.4955 18.5516 38.82 18.7798C39.6991 19.4302 40.7782 19.7521 41.87 19.6898C42.9654 19.7433 44.0469 19.4263 44.94 18.7898C45.2997 18.5173 45.5891 18.1628 45.7839 17.7557C45.9788 17.3487 46.0734 16.9009 46.06 16.4498C46.0875 16.0185 45.9825 15.5891 45.7591 15.2191C45.5357 14.8492 45.2045 14.5563 44.81 14.3798C44.0552 14.0217 43.2424 13.8015 42.41 13.7298L40.26 13.3898C39.6793 13.2936 39.1121 13.1292 38.57 12.8998C38.0239 12.6935 37.5117 12.407 37.05 12.0498C36.6251 11.6716 36.2844 11.2082 36.05 10.6898C35.7598 10.0641 35.6195 9.37928 35.64 8.68982C35.6214 7.98418 35.7724 7.28437 36.0804 6.64923C36.3884 6.01408 36.8444 5.46215 37.41 5.03982C38.635 4.11706 40.1369 3.63755 41.67 3.67982C43.2027 3.63968 44.7051 4.11115 45.94 5.01982C46.5172 5.4571 46.9848 6.02263 47.3059 6.67172C47.627 7.3208 47.7927 8.03567 47.79 8.75982C47.79 8.84982 47.79 8.88982 47.68 8.89982H45.52C45.5024 8.90007 45.485 8.89644 45.4689 8.8892C45.4529 8.88196 45.4387 8.87128 45.4272 8.85793C45.4158 8.84457 45.4074 8.82886 45.4027 8.8119C45.398 8.79495 45.3971 8.77717 45.4 8.75982Z" fill="white"/>
<path d="M64.0101 19.5398V21.4198C64.0101 21.4998 64.0101 21.5398 63.8801 21.5398H62.9401C61.6601 21.5398 60.8301 21.1798 60.4801 20.3998C60.4801 20.2698 60.3501 20.2498 60.2401 20.3498C59.7536 20.8036 59.1732 21.145 58.5401 21.3498C57.6682 21.6613 56.7456 21.8072 55.8201 21.7798C54.4864 21.8742 53.1631 21.4875 52.0901 20.6898C51.6689 20.3488 51.3323 19.915 51.1068 19.4223C50.8813 18.9296 50.7729 18.3914 50.7901 17.8498C50.7758 17.3004 50.898 16.7562 51.1458 16.2657C51.3937 15.7753 51.7594 15.354 52.2101 15.0398C53.4202 14.2649 54.8462 13.897 56.2801 13.9898H59.0901C59.5601 13.9898 59.8301 13.8698 59.9001 13.6398C59.9159 13.3967 59.9159 13.1528 59.9001 12.9098C59.8628 12.4107 59.6784 11.934 59.3701 11.5398C59.0101 11.0298 58.1001 10.7598 56.6601 10.7398C55.8464 10.673 55.0352 10.8961 54.3701 11.3698C54.123 11.5705 53.9258 11.8257 53.7939 12.1155C53.662 12.4052 53.5991 12.7216 53.6101 13.0398C53.6101 13.1198 53.6101 13.1598 53.4701 13.1598H51.4101C51.394 13.1613 51.3777 13.1593 51.3624 13.1538C51.3472 13.1483 51.3333 13.1395 51.3218 13.128C51.3104 13.1166 51.3016 13.1027 51.2961 13.0874C51.2906 13.0722 51.2886 13.0559 51.2901 13.0398C51.2602 12.4091 51.3893 11.781 51.6653 11.2131C51.9414 10.6453 52.3557 10.1558 52.8701 9.78976C54.0521 9.00032 55.4491 8.59519 56.8701 8.62976C58.2793 8.55186 59.6708 8.97322 60.8001 9.81976C61.3148 10.2313 61.7233 10.7603 61.9912 11.3623C62.2592 11.9644 62.3788 12.6219 62.3401 13.2798V18.1798C62.3072 18.5255 62.3768 18.8733 62.5401 19.1798C62.6701 19.3698 62.9601 19.4698 63.4101 19.4698H63.8801C63.9601 19.4698 64.0101 19.4698 64.0101 19.5898V19.5398ZM60.0101 16.0398C60.0101 15.9598 60.0101 15.9198 59.8801 15.9198H56.3201C55.459 15.8744 54.6036 16.083 53.8601 16.5198C53.6572 16.6724 53.4928 16.8703 53.38 17.0978C53.2671 17.3252 53.2089 17.5759 53.2101 17.8298C53.2089 18.0849 53.2638 18.3372 53.3709 18.5688C53.4781 18.8003 53.6348 19.0055 53.8301 19.1698C54.4115 19.5815 55.1205 19.7729 55.8301 19.7098C56.9514 19.7943 58.061 19.4352 58.9201 18.7098C59.2341 18.4038 59.4842 18.0385 59.6559 17.6351C59.8275 17.2317 59.9174 16.7982 59.9201 16.3598L60.0101 16.0398Z" fill="white"/>
<path d="M76.6501 21.4196C76.6516 21.4358 76.6496 21.4521 76.6441 21.4673C76.6386 21.4826 76.6298 21.4964 76.6184 21.5079C76.6069 21.5194 76.593 21.5282 76.5778 21.5336C76.5625 21.5391 76.5462 21.5412 76.5301 21.5396H74.3701C74.3001 21.5396 74.2701 21.5396 74.2701 21.4196V14.5496C74.3154 13.5984 74.1157 12.6515 73.6901 11.7996C73.4595 11.4526 73.1379 11.1757 72.7604 10.9993C72.3829 10.823 71.9642 10.7539 71.5501 10.7996C71.1217 10.76 70.6906 10.8377 70.303 11.0245C69.9155 11.2112 69.586 11.4999 69.3501 11.8596C68.8876 12.6894 68.6627 13.6305 68.7001 14.5796V21.4496C68.7001 21.5296 68.7001 21.5696 68.5701 21.5696H66.4501C66.3601 21.5696 66.3201 21.5696 66.3201 21.4496V9.01962C66.3201 8.93962 66.3201 8.89962 66.4501 8.89962H68.3301C68.3301 8.89962 68.4201 8.89962 68.4501 9.01962L68.7001 10.1396C68.7111 10.1694 68.732 10.1946 68.7593 10.2109C68.7865 10.2273 68.8186 10.2339 68.8501 10.2296C68.8801 10.2263 68.909 10.2165 68.9349 10.201C68.9608 10.1855 68.983 10.1645 69.0001 10.1396C69.2589 9.66169 69.671 9.28479 70.1701 9.06962C70.7918 8.76559 71.4783 8.61798 72.1701 8.63962C72.7924 8.61806 73.4124 8.72707 73.9901 8.95962C74.5975 9.26572 75.1541 9.66374 75.6401 10.1396C75.7601 10.2196 75.8501 10.2196 75.9301 10.1396C76.403 9.62488 76.9855 9.22287 77.6345 8.96326C78.2836 8.70365 78.9826 8.59305 79.6801 8.63962C80.3762 8.5894 81.0746 8.70144 81.7201 8.96694C82.3656 9.23243 82.9407 9.64413 83.4001 10.1696C84.3094 11.4418 84.751 12.9892 84.6501 14.5496V21.4196C84.6516 21.4358 84.6496 21.4521 84.6441 21.4673C84.6386 21.4826 84.6298 21.4964 84.6184 21.5079C84.6069 21.5194 84.593 21.5282 84.5778 21.5336C84.5625 21.5391 84.5462 21.5412 84.5301 21.5396H82.3501C82.3339 21.5412 82.3176 21.5391 82.3024 21.5336C82.2871 21.5282 82.2733 21.5194 82.2618 21.5079C82.2503 21.4964 82.2415 21.4826 82.236 21.4673C82.2306 21.4521 82.2285 21.4358 82.2301 21.4196V14.5496C82.2301 12.6896 81.7801 11.5496 80.8901 11.0696C80.4306 10.8549 79.9269 10.7521 79.4201 10.7696C78.9999 10.7196 78.574 10.7865 78.1894 10.963C77.8048 11.1394 77.4763 11.4185 77.2401 11.7696C76.8089 12.6234 76.6056 13.5742 76.6501 14.5296V21.4196Z" fill="white"/>
<path d="M100.81 19.5396V21.4196C100.811 21.4357 100.809 21.452 100.804 21.4673C100.798 21.4826 100.79 21.4964 100.778 21.5079C100.767 21.5194 100.753 21.5281 100.738 21.5336C100.722 21.5391 100.706 21.5412 100.69 21.5396H99.7799C98.4999 21.5396 97.6799 21.1596 97.3199 20.3996C97.3199 20.2696 97.1899 20.2496 97.0899 20.3496C96.6002 20.7992 96.0208 21.14 95.3899 21.3496C94.5177 21.6603 93.5954 21.8061 92.6699 21.7796C91.3378 21.8742 90.0154 21.4914 88.9399 20.6996C88.5217 20.3567 88.1879 19.9222 87.9642 19.4298C87.7405 18.9374 87.633 18.4002 87.6499 17.8596C87.6354 17.3113 87.7564 16.7679 88.0024 16.2777C88.2484 15.7875 88.6117 15.3656 89.0599 15.0496C90.2731 14.2733 91.7027 13.9054 93.1399 13.9996H95.9399C96.3999 13.9996 96.6699 13.8796 96.7399 13.6496C96.7581 13.4066 96.7581 13.1626 96.7399 12.9196C96.7028 12.4188 96.5145 11.9411 96.1999 11.5496C95.8399 11.0396 94.9399 10.7696 93.4899 10.7496C92.6763 10.6846 91.8658 10.9076 91.1999 11.3796C90.9528 11.5803 90.7556 11.8356 90.6237 12.1253C90.4919 12.4151 90.4289 12.7314 90.4399 13.0496C90.4399 13.1296 90.4399 13.1696 90.3099 13.1696H88.2099C88.1938 13.1712 88.1775 13.1691 88.1622 13.1636C88.147 13.1581 88.1331 13.1494 88.1216 13.1379C88.1102 13.1264 88.1014 13.1126 88.0959 13.0973C88.0904 13.082 88.0884 13.0657 88.0899 13.0496C88.0621 12.4181 88.193 11.7898 88.4708 11.222C88.7486 10.6542 89.1643 10.1652 89.6799 9.7996C90.8611 9.00836 92.2587 8.60307 93.6799 8.6396C95.092 8.56362 96.486 8.98467 97.6199 9.8296C98.1295 10.2428 98.5338 10.7709 98.7998 11.3706C99.0657 11.9703 99.1857 12.6245 99.1499 13.2796V18.1796C99.1146 18.5243 99.1806 18.8719 99.3399 19.1796C99.4699 19.3696 99.7599 19.4696 100.22 19.4696H100.69C100.706 19.4681 100.722 19.4701 100.738 19.4756C100.753 19.4811 100.767 19.4899 100.778 19.5013C100.79 19.5128 100.798 19.5266 100.804 19.5419C100.809 19.5572 100.811 19.5735 100.81 19.5896V19.5396ZM96.8099 16.0396C96.8099 15.9596 96.8099 15.9196 96.6699 15.9196H93.1699C92.3055 15.8728 91.4465 16.0815 90.6999 16.5196C90.4983 16.6728 90.3354 16.871 90.2242 17.0985C90.1131 17.326 90.0568 17.5764 90.0599 17.8296C90.0559 18.0852 90.1095 18.3384 90.2169 18.5704C90.3242 18.8024 90.4825 19.0072 90.6799 19.1696C91.2613 19.5814 91.9703 19.7728 92.6799 19.7096C93.7982 19.7947 94.9049 19.4354 95.7599 18.7096C96.0844 18.4084 96.3453 18.0453 96.5273 17.6417C96.7094 17.2381 96.8088 16.8022 96.8199 16.3596L96.8099 16.0396Z" fill="white"/>
<path d="M110.07 10.7701H108.8C108.341 10.754 107.884 10.8461 107.468 11.0389C107.051 11.2318 106.685 11.5199 106.4 11.8801C105.79 12.6329 105.473 13.5817 105.51 14.5501V21.4201C105.51 21.5001 105.51 21.5401 105.37 21.5401H103.25C103.234 21.5416 103.217 21.5396 103.202 21.5341C103.187 21.5286 103.173 21.5198 103.162 21.5084C103.15 21.4969 103.141 21.483 103.136 21.4678C103.13 21.4525 103.128 21.4362 103.13 21.4201V9.02008C103.128 9.00394 103.13 8.98765 103.136 8.97239C103.141 8.95712 103.15 8.94326 103.162 8.93179C103.173 8.92033 103.187 8.91154 103.202 8.90605C103.217 8.90057 103.234 8.89853 103.25 8.90008H105.13C105.13 8.90008 105.22 8.90008 105.25 9.02008L105.51 10.1401C105.563 10.2934 105.653 10.2934 105.78 10.1401C106.153 9.69846 106.611 9.3357 107.126 9.07299C107.641 8.81029 108.203 8.65291 108.78 8.61008H110.05C110.067 8.60714 110.085 8.60806 110.102 8.61276C110.119 8.61747 110.135 8.62584 110.148 8.63729C110.161 8.64874 110.172 8.66298 110.179 8.67902C110.187 8.69506 110.19 8.71249 110.19 8.73008V10.6101C110.19 10.628 110.186 10.6458 110.179 10.6623C110.172 10.6787 110.162 10.6935 110.148 10.7057C110.135 10.7179 110.12 10.7273 110.103 10.7332C110.086 10.7391 110.068 10.7415 110.05 10.7401" fill="white"/>
<path d="M114.71 21.54H112.85C112.76 21.54 112.72 21.54 112.72 21.42V4.05996C112.72 3.97996 112.72 3.93996 112.85 3.93996H114.94C114.956 3.93841 114.972 3.94045 114.988 3.94593C115.003 3.95141 115.017 3.9602 115.028 3.97167C115.04 3.98314 115.049 3.997 115.054 4.01226C115.059 4.02753 115.062 4.04381 115.06 4.05996V10.06C115.061 10.0842 115.069 10.1077 115.083 10.1274C115.097 10.147 115.117 10.1619 115.14 10.17C115.193 10.17 115.253 10.15 115.32 10.11C115.722 9.72714 116.19 9.419 116.7 9.19996C117.377 8.86121 118.123 8.68649 118.88 8.68996C119.691 8.66035 120.498 8.80785 121.246 9.12217C121.994 9.4365 122.664 9.91009 123.21 10.51C124.321 11.8412 124.898 13.5374 124.83 15.27C124.912 17.0027 124.337 18.7025 123.22 20.03C122.677 20.6167 122.013 21.0781 121.274 21.382C120.535 21.686 119.738 21.8252 118.94 21.79C118.251 21.7768 117.571 21.6272 116.94 21.35C116.344 21.13 115.799 20.7896 115.34 20.35C115.23 20.24 115.14 20.25 115.08 20.4L114.83 21.4C114.83 21.48 114.74 21.52 114.69 21.52L114.71 21.54ZM121.45 18.41C122.153 17.4922 122.507 16.3546 122.45 15.2C122.511 14.0418 122.156 12.9 121.45 11.98C121.116 11.578 120.695 11.2581 120.218 11.0448C119.741 10.8315 119.222 10.7307 118.7 10.75C118.19 10.7247 117.681 10.8223 117.216 11.0346C116.752 11.2469 116.345 11.5677 116.03 11.97C115.341 12.9027 114.989 14.0412 115.03 15.2C114.99 16.3554 115.343 17.4903 116.03 18.42C116.345 18.8222 116.752 19.143 117.216 19.3553C117.681 19.5676 118.19 19.6652 118.7 19.64C119.222 19.6592 119.741 19.5584 120.218 19.3451C120.695 19.1318 121.116 18.8119 121.45 18.41Z" fill="white"/>
<path d="M139 15.22C139 15.78 138.95 16.06 138.83 16.06H129.69C129.61 16.06 129.57 16.06 129.57 16.2C129.564 16.6645 129.653 17.1253 129.831 17.5543C130.009 17.9834 130.273 18.3716 130.606 18.6954C130.939 19.0191 131.335 19.2716 131.769 19.4375C132.203 19.6033 132.666 19.679 133.13 19.66C133.772 19.7107 134.415 19.573 134.979 19.264C135.544 18.9549 136.007 18.4879 136.31 17.92C136.319 17.8864 136.338 17.8566 136.365 17.835C136.392 17.8133 136.425 17.8011 136.46 17.8H138.52C138.61 17.8 138.65 17.8 138.65 17.92C138.364 19.0897 137.651 20.1099 136.65 20.78C135.585 21.476 134.331 21.8253 133.06 21.78C132.253 21.8148 131.447 21.6705 130.702 21.3576C129.957 21.0447 129.291 20.5708 128.75 19.97C127.635 18.6345 127.063 16.9278 127.15 15.19C127.059 13.4678 127.608 11.7728 128.69 10.43C129.244 9.81983 129.928 9.34212 130.691 9.03225C131.454 8.72239 132.278 8.58832 133.1 8.63999C133.917 8.58635 134.735 8.7197 135.492 9.02988C136.249 9.34007 136.926 9.81892 137.47 10.43C138.528 11.7908 139.058 13.4889 138.96 15.21L139 15.22ZM136.58 14.06C136.576 13.2189 136.259 12.4096 135.69 11.79C134.983 11.1197 134.041 10.7536 133.067 10.7704C132.092 10.7872 131.164 11.1856 130.48 11.88C129.891 12.4594 129.535 13.2353 129.48 14.06C129.48 14.15 129.48 14.19 129.6 14.19H136.41C136.49 14.19 136.53 14.19 136.53 14.06" fill="white"/>
<path d="M145.03 4.05994V6.68994C145.031 6.7074 145.029 6.72498 145.023 6.74144C145.017 6.75791 145.008 6.77286 144.995 6.78525C144.983 6.79764 144.968 6.80717 144.951 6.81316C144.935 6.81915 144.917 6.82147 144.9 6.81994H142.28C142.19 6.81994 142.15 6.81994 142.15 6.68994V4.05994C142.15 3.97994 142.15 3.93994 142.28 3.93994H144.94C145.03 3.93994 145.07 3.93994 145.07 4.05994H145.03ZM144.82 9.05994V21.4599C144.821 21.4761 144.819 21.4924 144.814 21.5076C144.808 21.5229 144.8 21.5368 144.788 21.5482C144.777 21.5597 144.763 21.5685 144.748 21.574C144.732 21.5795 144.716 21.5815 144.7 21.5799H142.56C142.544 21.5815 142.527 21.5795 142.512 21.574C142.497 21.5685 142.483 21.5597 142.472 21.5482C142.46 21.5368 142.451 21.5229 142.446 21.5076C142.44 21.4924 142.438 21.4761 142.44 21.4599V9.01994C142.438 9.0038 142.44 8.98751 142.446 8.97225C142.451 8.95699 142.46 8.94312 142.472 8.93166C142.483 8.92019 142.497 8.9114 142.512 8.90592C142.527 8.90043 142.544 8.89839 142.56 8.89994H144.7C144.716 8.89839 144.732 8.90043 144.748 8.90592C144.763 8.9114 144.777 8.92019 144.788 8.93166C144.8 8.94312 144.808 8.95699 144.814 8.97225C144.819 8.98751 144.821 9.0038 144.82 9.01994" fill="white"/>
<path d="M159.57 21.5396H157.69C157.69 21.5396 157.6 21.5396 157.57 21.4196L157.32 20.4196C157.32 20.2796 157.19 20.2596 157.07 20.3696C156.071 21.226 154.815 21.7256 153.5 21.7896C152.688 21.8261 151.878 21.6828 151.128 21.3699C150.377 21.057 149.706 20.5823 149.16 19.9796C148.043 18.6522 147.468 16.9524 147.55 15.2196C147.467 13.4867 148.042 11.7866 149.16 10.4596C149.705 9.85817 150.375 9.38347 151.123 9.06902C151.871 8.75456 152.679 8.608 153.49 8.63965C154.25 8.63722 155 8.81184 155.68 9.14965C156.195 9.3665 156.666 9.67481 157.07 10.0596C157.14 10.1296 157.19 10.1496 157.24 10.1196C157.263 10.1116 157.283 10.0967 157.297 10.0771C157.311 10.0574 157.319 10.0339 157.32 10.0096V4.00965C157.32 3.92965 157.32 3.88965 157.45 3.88965H159.57C159.66 3.88965 159.7 3.88965 159.7 4.00965V21.4196C159.7 21.4996 159.7 21.5396 159.57 21.5396ZM149.94 15.2196C149.881 16.3745 150.235 17.5127 150.94 18.4296C151.274 18.8316 151.695 19.1515 152.172 19.3648C152.649 19.5781 153.168 19.6789 153.69 19.6596C154.202 19.6849 154.712 19.5873 155.178 19.3751C155.644 19.1628 156.053 18.8421 156.37 18.4396C157.037 17.5027 157.368 16.3682 157.31 15.2196C157.364 14.0685 157.033 12.9321 156.37 11.9896C156.057 11.5855 155.65 11.2633 155.185 11.0508C154.72 10.8383 154.211 10.7418 153.7 10.7696C153.177 10.7468 152.656 10.8451 152.177 11.0567C151.699 11.2683 151.275 11.5876 150.94 11.9896C150.237 12.9152 149.883 14.0589 149.94 15.2196Z" fill="white"/>
<path d="M173.33 13.1697H171.18C171.164 13.1713 171.147 13.1693 171.132 13.1638C171.117 13.1583 171.103 13.1495 171.092 13.138C171.08 13.1266 171.071 13.1127 171.066 13.0974C171.06 13.0822 171.058 13.0659 171.06 13.0497C171.07 12.7267 171.001 12.4059 170.86 12.1151C170.719 11.8242 170.51 11.5719 170.25 11.3797C169.593 10.9381 168.81 10.7239 168.02 10.7697C167.292 10.7316 166.568 10.909 165.94 11.2797C165.742 11.3925 165.576 11.5533 165.457 11.7474C165.338 11.9414 165.271 12.1624 165.26 12.3897C165.244 12.5463 165.263 12.7044 165.315 12.8529C165.367 13.0015 165.45 13.1369 165.56 13.2497C165.76 13.3997 165.94 13.5297 166.12 13.6397C166.923 13.8643 167.748 14.0018 168.58 14.0497C169.72 14.1491 170.84 14.4049 171.91 14.8097C172.505 15.0424 173.01 15.4589 173.351 15.9984C173.693 16.538 173.854 17.1726 173.81 17.8097C173.854 18.4123 173.737 19.0156 173.472 19.5584C173.206 20.1011 172.802 20.5639 172.3 20.8997C171.059 21.6229 169.635 21.9703 168.2 21.8997C166.734 21.9861 165.286 21.5424 164.12 20.6497C163.656 20.2681 163.283 19.7868 163.03 19.2414C162.778 18.6961 162.651 18.1008 162.66 17.4997C162.658 17.4836 162.66 17.4673 162.666 17.4521C162.671 17.4368 162.68 17.4229 162.692 17.4115C162.703 17.4 162.717 17.3912 162.732 17.3857C162.748 17.3802 162.764 17.3782 162.78 17.3797H164.89C164.99 17.3797 165.04 17.4197 165.04 17.4997C165.04 17.8253 165.123 18.1455 165.28 18.4305C165.438 18.7155 165.665 18.956 165.94 19.1297C166.643 19.5862 167.472 19.8101 168.31 19.7697C170.39 19.7697 171.43 19.1397 171.43 17.8797C171.436 17.7331 171.413 17.5866 171.362 17.4491C171.31 17.3117 171.231 17.186 171.13 17.0797C170.958 16.8946 170.746 16.751 170.51 16.6597L170.05 16.4997C169.896 16.4573 169.739 16.4272 169.58 16.4097L168.94 16.2997C168.733 16.2556 168.522 16.2322 168.31 16.2297C167.058 16.161 165.828 15.8803 164.67 15.3997C163.972 15.0764 163.414 14.5117 163.1 13.8097C162.949 13.3793 162.875 12.9258 162.88 12.4697C162.881 11.949 163.009 11.4364 163.253 10.9763C163.497 10.5162 163.849 10.1227 164.28 9.82975C165.375 9.06195 166.695 8.68183 168.03 8.74975C169.41 8.66008 170.783 9.02157 171.94 9.77975C172.449 10.1535 172.856 10.6483 173.125 11.2193C173.394 11.7904 173.516 12.4196 173.48 13.0497C173.48 13.1297 173.48 13.1697 173.37 13.1697" fill="white"/>
<path d="M176.72 8.89964H178.6C178.65 8.89964 178.69 8.89964 178.73 9.01964L178.98 10.0196C178.98 10.0796 179.06 10.1196 179.11 10.1196C179.135 10.1159 179.158 10.1068 179.179 10.093C179.2 10.0792 179.217 10.061 179.23 10.0396C179.676 9.59743 180.211 9.25636 180.8 9.03964C181.433 8.76722 182.112 8.61789 182.8 8.59964C183.613 8.5672 184.422 8.71336 185.172 9.02781C185.922 9.34227 186.594 9.81738 187.14 10.4196C188.258 11.7466 188.833 13.4467 188.75 15.1796C188.832 16.9124 188.257 18.6122 187.14 19.9396C186.593 20.5425 185.919 21.0173 185.167 21.3301C184.415 21.643 183.604 21.7862 182.79 21.7496C182.034 21.7509 181.287 21.5763 180.61 21.2396C180.099 21.0159 179.629 20.7084 179.22 20.3296C179.15 20.2696 179.1 20.2496 179.05 20.2696C179 20.2896 178.97 20.3296 178.97 20.3796V26.3796C178.97 26.4596 178.97 26.4996 178.84 26.5096H176.71C176.63 26.5096 176.59 26.5096 176.59 26.3796V9.01964C176.589 9.0035 176.591 8.98721 176.596 8.97195C176.602 8.95669 176.61 8.94283 176.622 8.93136C176.633 8.91989 176.647 8.9111 176.662 8.90562C176.678 8.90014 176.694 8.8981 176.71 8.89964H176.72ZM186.37 15.2196C186.429 14.0617 186.075 12.9205 185.37 11.9996C185.035 11.5969 184.612 11.2766 184.133 11.0633C183.655 10.85 183.134 10.7496 182.61 10.7696C182.1 10.7427 181.59 10.8395 181.125 11.052C180.66 11.2644 180.254 11.5861 179.94 11.9896C179.277 12.9321 178.946 14.0685 179 15.2196C178.956 16.3757 179.308 17.5122 180 18.4396C180.312 18.8424 180.717 19.1637 181.18 19.3761C181.644 19.5886 182.151 19.6858 182.66 19.6596C183.183 19.6775 183.704 19.576 184.182 19.3629C184.66 19.1498 185.084 18.8306 185.42 18.4296C186.125 17.5127 186.479 16.3745 186.42 15.2196" fill="white"/>
<path d="M203.45 15.2199C203.535 16.9648 202.94 18.6746 201.79 19.9899C201.203 20.5987 200.492 21.0744 199.705 21.385C198.919 21.6955 198.075 21.8336 197.23 21.7899C196.388 21.8346 195.547 21.697 194.763 21.3863C193.98 21.0756 193.272 20.5993 192.69 19.9899C191.544 18.673 190.952 16.9634 191.04 15.2199C190.955 13.4766 191.546 11.7677 192.69 10.4499C193.272 9.84046 193.98 9.36411 194.763 9.05343C195.547 8.74275 196.388 8.60509 197.23 8.64986C198.074 8.60617 198.917 8.74327 199.703 9.05198C200.49 9.36069 201.201 9.83388 201.79 10.4399C202.937 11.7609 203.531 13.4725 203.45 15.2199ZM200.04 18.4299C200.745 17.5129 201.099 16.3748 201.04 15.2199C201.099 14.065 200.745 12.9268 200.04 12.0099C199.685 11.6238 199.254 11.3155 198.773 11.1047C198.293 10.8939 197.774 10.785 197.25 10.785C196.725 10.785 196.207 10.8939 195.726 11.1047C195.246 11.3155 194.815 11.6238 194.46 12.0099C193.754 12.9299 193.399 14.0717 193.46 15.2299C193.397 16.3852 193.752 17.5246 194.46 18.4399C194.801 18.8457 195.231 19.1677 195.717 19.381C196.202 19.5943 196.73 19.6931 197.26 19.6699C197.787 19.6931 198.312 19.5941 198.794 19.3807C199.276 19.1673 199.703 18.8453 200.04 18.4399" fill="white"/>
<path d="M213.19 10.7698H211.94C211.48 10.7576 211.024 10.8514 210.606 11.0439C210.188 11.2363 209.82 11.5224 209.53 11.8798C208.92 12.6326 208.603 13.5814 208.64 14.5498V21.4198C208.64 21.4998 208.64 21.5398 208.51 21.5398H206.38C206.364 21.5413 206.348 21.5393 206.332 21.5338C206.317 21.5283 206.303 21.5195 206.292 21.5081C206.28 21.4966 206.271 21.4827 206.266 21.4675C206.261 21.4522 206.258 21.4359 206.26 21.4198V9.01979C206.258 9.00365 206.261 8.98736 206.266 8.9721C206.271 8.95684 206.28 8.94298 206.292 8.93151C206.303 8.92004 206.317 8.91125 206.332 8.90577C206.348 8.90028 206.364 8.89824 206.38 8.89979H208.26C208.26 8.89979 208.35 8.89979 208.38 9.01979L208.64 10.1398C208.687 10.2931 208.777 10.2931 208.91 10.1398C209.285 9.69986 209.743 9.33824 210.257 9.07569C210.772 8.81313 211.334 8.65481 211.91 8.60979H213.18C213.197 8.60841 213.213 8.61048 213.229 8.61589C213.245 8.62129 213.259 8.62991 213.271 8.6412C213.284 8.65248 213.293 8.66619 213.3 8.68144C213.307 8.69669 213.31 8.71316 213.31 8.72979V10.6098C213.31 10.6898 213.31 10.7398 213.18 10.7398" fill="white"/>
<path d="M222.16 19.54V21.42C222.16 21.5 222.11 21.54 222.03 21.54H220.11C217.93 21.54 216.83 20.61 216.83 18.54V10.9C216.831 10.8826 216.829 10.865 216.823 10.8485C216.817 10.8321 216.808 10.8171 216.795 10.8047C216.783 10.7923 216.768 10.7828 216.751 10.7768C216.735 10.7708 216.717 10.7685 216.7 10.77H214.48C214.4 10.77 214.36 10.77 214.36 10.64V9.02002C214.358 9.00388 214.36 8.98759 214.366 8.97233C214.371 8.95706 214.38 8.9432 214.392 8.93174C214.403 8.92027 214.417 8.91148 214.432 8.90599C214.447 8.90051 214.464 8.89847 214.48 8.90002H216.7C216.718 8.90183 216.737 8.89937 216.754 8.89282C216.771 8.88627 216.787 8.87581 216.8 8.86225C216.812 8.8487 216.821 8.83242 216.827 8.81468C216.832 8.79695 216.833 8.77824 216.83 8.76002V5.39002C216.83 5.31002 216.83 5.27002 216.96 5.27002H219.08C219.16 5.27002 219.21 5.27002 219.21 5.39002V8.76002C219.207 8.77737 219.208 8.79515 219.213 8.8121C219.217 8.82906 219.226 8.84477 219.237 8.85813C219.249 8.87148 219.263 8.88216 219.279 8.8894C219.295 8.89664 219.312 8.90027 219.33 8.90002H222.03C222.046 8.89863 222.063 8.90071 222.079 8.90612C222.095 8.91152 222.109 8.92014 222.121 8.93143C222.133 8.94271 222.143 8.95641 222.15 8.97166C222.157 8.98692 222.16 9.00338 222.16 9.02002V10.64C222.161 10.6575 222.159 10.6751 222.153 10.6915C222.147 10.708 222.138 10.7229 222.125 10.7353C222.113 10.7477 222.098 10.7572 222.081 10.7632C222.065 10.7692 222.047 10.7715 222.03 10.77H219.33C219.25 10.77 219.21 10.77 219.21 10.9V18.18C219.21 19.01 219.66 19.42 220.56 19.42H222.03C222.11 19.42 222.16 19.42 222.16 19.54Z" fill="white"/>
<path d="M237.15 19.5396V21.4196C237.151 21.4357 237.149 21.452 237.144 21.4673C237.138 21.4826 237.13 21.4964 237.118 21.5079C237.107 21.5194 237.093 21.5281 237.078 21.5336C237.062 21.5391 237.046 21.5412 237.03 21.5396H236.12C234.84 21.5396 234.02 21.1596 233.66 20.3996C233.61 20.2696 233.53 20.2496 233.43 20.3496C232.94 20.7992 232.361 21.14 231.73 21.3496C230.858 21.6603 229.935 21.8061 229.01 21.7796C227.673 21.8738 226.347 21.4872 225.27 20.6896C224.846 20.3517 224.505 19.9207 224.274 19.4299C224.044 18.9391 223.929 18.4018 223.94 17.8596C223.925 17.3113 224.046 16.7679 224.292 16.2777C224.538 15.7875 224.902 15.3656 225.35 15.0496C226.563 14.2733 227.993 13.9054 229.43 13.9996H232.24C232.7 13.9996 232.97 13.8796 233.04 13.6496C233.058 13.4066 233.058 13.1626 233.04 12.9196C233.003 12.4188 232.814 11.9411 232.5 11.5496C232.14 11.0396 231.24 10.7696 229.79 10.7496C228.976 10.6846 228.166 10.9076 227.5 11.3796C227.253 11.5803 227.056 11.8356 226.924 12.1253C226.792 12.4151 226.729 12.7314 226.74 13.0496C226.74 13.1296 226.74 13.1696 226.61 13.1696H224.48C224.464 13.1712 224.447 13.1691 224.432 13.1636C224.417 13.1581 224.403 13.1494 224.392 13.1379C224.38 13.1264 224.371 13.1126 224.366 13.0973C224.36 13.082 224.358 13.0657 224.36 13.0496C224.332 12.4181 224.463 11.7898 224.741 11.222C225.019 10.6542 225.434 10.1652 225.95 9.7996C227.131 9.00836 228.529 8.60307 229.95 8.6396C231.362 8.56362 232.756 8.98467 233.89 9.8296C234.412 10.2355 234.83 10.7604 235.108 11.3605C235.387 11.9607 235.517 12.6186 235.49 13.2796V18.1796C235.455 18.5243 235.521 18.8719 235.68 19.1796C235.81 19.3696 236.1 19.4696 236.56 19.4696H237.03C237.046 19.4681 237.062 19.4701 237.078 19.4756C237.093 19.4811 237.107 19.4899 237.118 19.5013C237.13 19.5128 237.138 19.5266 237.144 19.5419C237.149 19.5572 237.151 19.5735 237.15 19.5896V19.5396ZM233.15 16.0396C233.15 15.9596 233.15 15.9196 233.01 15.9196H229.51C228.646 15.8728 227.787 16.0815 227.04 16.5196C226.838 16.6728 226.675 16.871 226.564 17.0985C226.453 17.326 226.397 17.5764 226.4 17.8296C226.396 18.0852 226.449 18.3384 226.557 18.5704C226.664 18.8024 226.822 19.0072 227.02 19.1696C227.601 19.5814 228.31 19.7728 229.02 19.7096C230.138 19.7947 231.245 19.4354 232.1 18.7096C232.424 18.4084 232.685 18.0453 232.867 17.6417C233.049 17.2381 233.149 16.8022 233.16 16.3596L233.15 16.0396Z" fill="white"/>
<path d="M241.94 4.05996V21.42C241.942 21.4361 241.94 21.4524 241.934 21.4676C241.929 21.4829 241.92 21.4968 241.908 21.5082C241.897 21.5197 241.883 21.5285 241.868 21.534C241.853 21.5395 241.836 21.5415 241.82 21.54H239.7C239.683 21.5429 239.665 21.542 239.648 21.5373C239.631 21.5326 239.615 21.5242 239.602 21.5127C239.589 21.5013 239.578 21.487 239.571 21.471C239.563 21.455 239.56 21.4375 239.56 21.42V4.05996C239.56 3.97996 239.56 3.93996 239.7 3.93996H241.82C241.836 3.93841 241.853 3.94045 241.868 3.94593C241.883 3.95141 241.897 3.9602 241.908 3.97167C241.92 3.98314 241.929 3.997 241.934 4.01226C241.94 4.02753 241.942 4.04381 241.94 4.05996Z" fill="white"/>
<path d="M256.8 15.2199C256.8 15.7799 256.74 16.0599 256.62 16.0599H247.49C247.41 16.0599 247.37 16.0599 247.37 16.1999C247.364 16.6653 247.453 17.127 247.632 17.5567C247.811 17.9865 248.075 18.3752 248.409 18.6991C248.744 19.023 249.14 19.2753 249.576 19.4405C250.011 19.6057 250.475 19.6804 250.94 19.6599C251.582 19.7119 252.225 19.5749 252.79 19.2657C253.355 18.9565 253.817 18.4887 254.12 17.9199C254.13 17.8856 254.152 17.8555 254.18 17.8339C254.209 17.8124 254.244 17.8005 254.28 17.7999H256.34C256.433 17.7999 256.473 17.8399 256.46 17.9199C256.192 19.0842 255.496 20.1051 254.51 20.7799C253.445 21.4759 252.191 21.8253 250.92 21.7799C250.112 21.8147 249.307 21.6705 248.562 21.3576C247.817 21.0446 247.15 20.5708 246.61 19.9699C245.495 18.6344 244.923 16.9278 245.01 15.1899C244.919 13.4677 245.468 11.7727 246.55 10.4299C247.102 9.82433 247.783 9.35011 248.543 9.04209C249.303 8.73407 250.122 8.60008 250.94 8.64995C251.756 8.59706 252.574 8.73075 253.331 9.04088C254.089 9.35102 254.765 9.82946 255.31 10.4399C256.364 11.8029 256.893 13.4994 256.8 15.2199ZM254.42 14.0699C254.416 13.2289 254.099 12.4195 253.53 11.7999C252.823 11.1296 251.881 10.7635 250.907 10.7804C249.932 10.7972 249.004 11.1956 248.32 11.8899C247.745 12.4744 247.407 13.2509 247.37 14.0699C247.37 14.1599 247.37 14.1999 247.49 14.1999H254.3C254.38 14.1999 254.42 14.1999 254.42 14.0699Z" fill="white"/>
<path d="M260 8.89976H261.88C261.927 8.89976 261.967 8.93976 262 9.01976L262.26 10.1398C262.267 10.1688 262.284 10.1946 262.307 10.2128C262.331 10.2311 262.36 10.2406 262.39 10.2398C262.419 10.2429 262.448 10.238 262.475 10.2257C262.501 10.2133 262.524 10.194 262.54 10.1698C262.911 9.66167 263.405 9.25521 263.974 8.98783C264.544 8.72045 265.172 8.60075 265.8 8.63976C266.549 8.5989 267.297 8.72687 267.989 9.01421C268.682 9.30155 269.3 9.74091 269.8 10.2998C270.781 11.4936 271.29 13.0058 271.23 14.5498V21.4198C271.23 21.4998 271.18 21.5398 271.09 21.5398H268.97C268.954 21.5413 268.938 21.5393 268.922 21.5338C268.907 21.5283 268.893 21.5195 268.882 21.508C268.87 21.4966 268.862 21.4827 268.856 21.4675C268.851 21.4522 268.849 21.4359 268.85 21.4198V14.5498C268.879 13.5873 268.599 12.641 268.05 11.8498C267.768 11.486 267.4 11.1973 266.98 11.009C266.56 10.8207 266.1 10.7385 265.64 10.7698C265.164 10.7466 264.689 10.8349 264.254 11.0276C263.818 11.2203 263.433 11.5121 263.13 11.8798C262.525 12.6359 262.206 13.5815 262.23 14.5498V21.4198C262.232 21.4359 262.23 21.4522 262.224 21.4675C262.219 21.4827 262.21 21.4966 262.198 21.508C262.187 21.5195 262.173 21.5283 262.158 21.5338C262.143 21.5393 262.126 21.5413 262.11 21.5398H259.97C259.954 21.5413 259.938 21.5393 259.922 21.5338C259.907 21.5283 259.893 21.5195 259.882 21.508C259.87 21.4966 259.862 21.4827 259.856 21.4675C259.851 21.4522 259.849 21.4359 259.85 21.4198V9.01976C259.849 9.00361 259.851 8.98733 259.856 8.97207C259.862 8.9568 259.87 8.94294 259.882 8.93147C259.893 8.92001 259.907 8.91122 259.922 8.90573C259.938 8.90025 259.954 8.89821 259.97 8.89976" fill="white"/>
</svg>
