<svg width="272" height="27" viewBox="0 0 272 27" fill="none" xmlns="http://www.w3.org/2000/svg">
<path d="M12.67 0H0.5C0.368193 0.00256007 0.242499 0.0560606 0.14928 0.14928C0.0560606 0.242499 0.00256007 0.368193 0 0.5V24.24C0.00256007 24.3718 0.0560606 24.4975 0.14928 24.5907C0.242499 24.6839 0.368193 24.7374 0.5 24.74H12.67C15.9507 24.74 19.0971 23.4367 21.4169 21.1169C23.7367 18.7971 25.04 15.6507 25.04 12.37C25.04 9.08927 23.7367 5.94291 21.4169 3.62309C19.0971 1.30326 15.9507 4.88867e-08 12.67 0ZM13.86 21C12.0187 21.3169 10.1242 21.0395 8.45107 20.2079C6.77789 19.3764 5.4128 18.0339 4.55347 16.3748C3.69414 14.7158 3.38516 12.8263 3.67129 10.9799C3.95741 9.1335 4.82378 7.42612 6.14495 6.10495C7.46612 4.78378 9.1735 3.91741 11.0199 3.63129C12.8663 3.34516 14.7558 3.65414 16.4148 4.51347C18.0739 5.3728 19.4164 6.73789 20.2479 8.41107C21.0795 10.0842 21.3569 11.9787 21.04 13.82C20.7316 15.6119 19.8757 17.2643 18.59 18.55C17.3043 19.8357 15.6519 20.6916 13.86 21Z" fill="#1E2B3C"/>
<path d="M45.4 8.41998C45.4032 8.00943 45.3087 7.60401 45.1244 7.23715C44.9401 6.87029 44.6713 6.55249 44.34 6.30998C43.5798 5.74158 42.6487 5.44886 41.7 5.47998C40.7542 5.44793 39.826 5.74086 39.07 6.30998C38.7359 6.5629 38.4665 6.89145 38.284 7.26867C38.1014 7.64589 38.011 8.06102 38.02 8.47998C38.005 8.90383 38.1315 9.32063 38.3795 9.66464C38.6276 10.0087 38.9831 10.2603 39.39 10.38C40.2098 10.6845 41.0681 10.873 41.94 10.94L44.46 11.42C45.1634 11.5582 45.8392 11.8116 46.46 12.17C47.79 12.93 48.46 14.28 48.46 16.24C48.466 16.9332 48.3277 17.6202 48.054 18.2571C47.7803 18.8941 47.3771 19.4672 46.87 19.94C45.526 21.07 43.7901 21.6234 42.04 21.48C40.2509 21.6061 38.4761 21.0843 37.04 20.01C36.4986 19.58 36.0624 19.0323 35.7644 18.4086C35.4663 17.7848 35.3144 17.1013 35.32 16.41C35.3186 16.3934 35.3207 16.3767 35.3261 16.361C35.3315 16.3452 35.3401 16.3308 35.3514 16.3186C35.3627 16.3064 35.3764 16.2966 35.3916 16.29C35.4069 16.2833 35.4234 16.2799 35.44 16.28H37.56C37.66 16.28 37.7 16.33 37.7 16.44C37.7251 16.8359 37.8387 17.2212 38.0326 17.5673C38.2264 17.9135 38.4955 18.2117 38.82 18.44C39.6991 19.0903 40.7782 19.4123 41.87 19.35C42.9654 19.4035 44.0469 19.0864 44.94 18.45C45.2997 18.1775 45.5891 17.8229 45.7839 17.4159C45.9788 17.0088 46.0734 16.5611 46.06 16.11C46.0875 15.6787 45.9825 15.2492 45.7591 14.8793C45.5357 14.5093 45.2045 14.2165 44.81 14.04C44.0552 13.6818 43.2424 13.4617 42.41 13.39L40.26 13.05C39.6793 12.9538 39.1121 12.7893 38.57 12.56C38.0239 12.3537 37.5117 12.0672 37.05 11.71C36.6251 11.3317 36.2844 10.8684 36.05 10.35C35.7598 9.72421 35.6195 9.03944 35.64 8.34998C35.6214 7.64433 35.7724 6.94453 36.0804 6.30938C36.3884 5.67423 36.8444 5.1223 37.41 4.69998C38.635 3.77721 40.1369 3.29771 41.67 3.33998C43.2027 3.29983 44.7051 3.77131 45.94 4.67998C46.5172 5.11726 46.9848 5.68278 47.3059 6.33187C47.627 6.98096 47.7927 7.69582 47.79 8.41998C47.79 8.50998 47.79 8.54998 47.68 8.55998H45.52C45.5024 8.56022 45.485 8.5566 45.4689 8.54936C45.4529 8.54212 45.4387 8.53144 45.4272 8.51808C45.4158 8.50472 45.4074 8.48901 45.4027 8.47206C45.398 8.4551 45.3971 8.43732 45.4 8.41998Z" fill="#1E2B3C"/>
<path d="M64.0101 19.1999V21.0799C64.0101 21.1599 64.0101 21.1999 63.8801 21.1999H62.9401C61.6601 21.1999 60.8301 20.8399 60.4801 20.0599C60.4801 19.9299 60.3501 19.9099 60.2401 20.0099C59.7536 20.4638 59.1732 20.8052 58.5401 21.0099C57.6682 21.3215 56.7456 21.4673 55.8201 21.4399C54.4864 21.5343 53.1631 21.1476 52.0901 20.3499C51.6689 20.009 51.3323 19.5752 51.1068 19.0825C50.8813 18.5898 50.7729 18.0515 50.7901 17.5099C50.7758 16.9606 50.898 16.4163 51.1458 15.9259C51.3937 15.4354 51.7594 15.0142 52.2101 14.6999C53.4202 13.925 54.8462 13.5571 56.2801 13.6499H59.0901C59.5601 13.6499 59.8301 13.5299 59.9001 13.2999C59.9159 13.0568 59.9159 12.813 59.9001 12.5699C59.8628 12.0709 59.6784 11.5941 59.3701 11.1999C59.0101 10.6899 58.1001 10.4199 56.6601 10.3999C55.8464 10.3331 55.0352 10.5563 54.3701 11.0299C54.123 11.2306 53.9258 11.4859 53.7939 11.7756C53.662 12.0654 53.5991 12.3818 53.6101 12.6999C53.6101 12.7799 53.6101 12.8199 53.4701 12.8199H51.4101C51.394 12.8215 51.3777 12.8194 51.3624 12.8139C51.3472 12.8085 51.3333 12.7997 51.3218 12.7882C51.3104 12.7767 51.3016 12.7629 51.2961 12.7476C51.2906 12.7323 51.2886 12.7161 51.2901 12.6999C51.2602 12.0692 51.3893 11.4411 51.6653 10.8733C51.9414 10.3054 52.3557 9.81599 52.8701 9.44991C54.0521 8.66047 55.4491 8.25535 56.8701 8.28991C58.2793 8.21202 59.6708 8.63338 60.8001 9.47991C61.3148 9.89144 61.7233 10.4204 61.9912 11.0225C62.2592 11.6245 62.3788 12.2821 62.3401 12.9399V17.8399C62.3072 18.1856 62.3768 18.5334 62.5401 18.8399C62.6701 19.0299 62.9601 19.1299 63.4101 19.1299H63.8801C63.9601 19.1299 64.0101 19.1299 64.0101 19.2499V19.1999ZM60.0101 15.6999C60.0101 15.6199 60.0101 15.5799 59.8801 15.5799H56.3201C55.459 15.5345 54.6036 15.7432 53.8601 16.1799C53.6572 16.3326 53.4928 16.5305 53.38 16.7579C53.2671 16.9854 53.2089 17.236 53.2101 17.4899C53.2089 17.7451 53.2638 17.9974 53.3709 18.2289C53.4781 18.4605 53.6348 18.6657 53.8301 18.8299C54.4115 19.2417 55.1205 19.4331 55.8301 19.3699C56.9514 19.4544 58.061 19.0953 58.9201 18.3699C59.2341 18.064 59.4842 17.6987 59.6559 17.2952C59.8275 16.8918 59.9174 16.4583 59.9201 16.0199L60.0101 15.6999Z" fill="#1E2B3C"/>
<path d="M76.6501 21.0798C76.6516 21.0959 76.6496 21.1122 76.6441 21.1275C76.6386 21.1427 76.6298 21.1566 76.6184 21.1681C76.6069 21.1795 76.593 21.1883 76.5778 21.1938C76.5625 21.1993 76.5462 21.2013 76.5301 21.1998H74.3701C74.3001 21.1998 74.2701 21.1998 74.2701 21.0798V14.2098C74.3154 13.2586 74.1157 12.3116 73.6901 11.4598C73.4595 11.1128 73.1379 10.8359 72.7604 10.6595C72.3829 10.4831 71.9642 10.414 71.5501 10.4598C71.1217 10.4202 70.6906 10.4979 70.303 10.6846C69.9155 10.8713 69.586 11.1601 69.3501 11.5198C68.8876 12.3495 68.6627 13.2906 68.7001 14.2398V21.1098C68.7001 21.1898 68.7001 21.2298 68.5701 21.2298H66.4501C66.3601 21.2298 66.3201 21.2298 66.3201 21.1098V8.67978C66.3201 8.59978 66.3201 8.55978 66.4501 8.55978H68.3301C68.3301 8.55978 68.4201 8.55978 68.4501 8.67978L68.7001 9.79978C68.7111 9.82958 68.732 9.85473 68.7593 9.87109C68.7865 9.88745 68.8186 9.89404 68.8501 9.88978C68.8801 9.88644 68.909 9.87667 68.9349 9.86114C68.9608 9.84561 68.983 9.82468 69.0001 9.79978C69.2589 9.32185 69.671 8.94494 70.1701 8.72978C70.7918 8.42574 71.4783 8.27813 72.1701 8.29978C72.7924 8.27822 73.4124 8.38722 73.9901 8.61978C74.5975 8.92587 75.1541 9.32389 75.6401 9.79978C75.7601 9.87978 75.8501 9.87978 75.9301 9.79978C76.403 9.28503 76.9855 8.88303 77.6345 8.62341C78.2836 8.3638 78.9826 8.2532 79.6801 8.29978C80.3762 8.24955 81.0746 8.3616 81.7201 8.62709C82.3656 8.89259 82.9407 9.30428 83.4001 9.82978C84.3094 11.1019 84.751 12.6493 84.6501 14.2098V21.0798C84.6516 21.0959 84.6496 21.1122 84.6441 21.1275C84.6386 21.1427 84.6298 21.1566 84.6184 21.1681C84.6069 21.1795 84.593 21.1883 84.5778 21.1938C84.5625 21.1993 84.5462 21.2013 84.5301 21.1998H82.3501C82.3339 21.2013 82.3176 21.1993 82.3024 21.1938C82.2871 21.1883 82.2733 21.1795 82.2618 21.1681C82.2503 21.1566 82.2415 21.1427 82.236 21.1275C82.2306 21.1122 82.2285 21.0959 82.2301 21.0798V14.2098C82.2301 12.3498 81.7801 11.2098 80.8901 10.7298C80.4306 10.5151 79.9269 10.4123 79.4201 10.4298C78.9999 10.3798 78.574 10.4467 78.1894 10.6231C77.8048 10.7996 77.4763 11.0787 77.2401 11.4298C76.8089 12.2836 76.6056 13.2343 76.6501 14.1898V21.0798Z" fill="#1E2B3C"/>
<path d="M100.81 19.1998V21.0798C100.811 21.0959 100.809 21.1122 100.804 21.1275C100.798 21.1427 100.79 21.1566 100.778 21.168C100.767 21.1795 100.753 21.1883 100.738 21.1938C100.722 21.1993 100.706 21.2013 100.69 21.1998H99.7799C98.4999 21.1998 97.6799 20.8198 97.3199 20.0598C97.3199 19.9298 97.1899 19.9098 97.0899 20.0098C96.6002 20.4593 96.0208 20.8001 95.3899 21.0098C94.5177 21.3204 93.5954 21.4662 92.6699 21.4398C91.3378 21.5344 90.0154 21.1515 88.9399 20.3598C88.5217 20.0168 88.1879 19.5824 87.9642 19.09C87.7405 18.5976 87.633 18.0603 87.6499 17.5198C87.6354 16.9715 87.7564 16.4281 88.0024 15.9379C88.2484 15.4477 88.6117 15.0258 89.0599 14.7098C90.2731 13.9334 91.7027 13.5655 93.1399 13.6598H95.9399C96.3999 13.6598 96.6699 13.5398 96.7399 13.3098C96.7581 13.0668 96.7581 12.8228 96.7399 12.5798C96.7028 12.079 96.5145 11.6012 96.1999 11.2098C95.8399 10.6998 94.9399 10.4298 93.4899 10.4098C92.6763 10.3447 91.8658 10.5677 91.1999 11.0398C90.9528 11.2405 90.7556 11.4957 90.6237 11.7855C90.4919 12.0752 90.4289 12.3916 90.4399 12.7098C90.4399 12.7898 90.4399 12.8298 90.3099 12.8298H88.2099C88.1938 12.8313 88.1775 12.8293 88.1622 12.8238C88.147 12.8183 88.1331 12.8095 88.1216 12.798C88.1102 12.7866 88.1014 12.7727 88.0959 12.7575C88.0904 12.7422 88.0884 12.7259 88.0899 12.7098C88.0621 12.0783 88.193 11.4499 88.4708 10.8822C88.7486 10.3144 89.1643 9.82535 89.6799 9.45976C90.8611 8.66852 92.2587 8.26322 93.6799 8.29976C95.092 8.22378 96.486 8.64483 97.6199 9.48976C98.1295 9.90295 98.5338 10.4311 98.7998 11.0308C99.0657 11.6305 99.1857 12.2847 99.1499 12.9398V17.8398C99.1146 18.1845 99.1806 18.532 99.3399 18.8398C99.4699 19.0298 99.7599 19.1298 100.22 19.1298H100.69C100.706 19.1282 100.722 19.1303 100.738 19.1357C100.753 19.1412 100.767 19.15 100.778 19.1615C100.79 19.1729 100.798 19.1868 100.804 19.2021C100.809 19.2173 100.811 19.2336 100.81 19.2498V19.1998ZM96.8099 15.6998C96.8099 15.6198 96.8099 15.5798 96.6699 15.5798H93.1699C92.3055 15.533 91.4465 15.7417 90.6999 16.1798C90.4983 16.3329 90.3354 16.5312 90.2242 16.7587C90.1131 16.9862 90.0568 17.2366 90.0599 17.4898C90.0559 17.7454 90.1095 17.9986 90.2169 18.2306C90.3242 18.4626 90.4825 18.6674 90.6799 18.8298C91.2613 19.2415 91.9703 19.433 92.6799 19.3698C93.7982 19.4548 94.9049 19.0955 95.7599 18.3698C96.0844 18.0685 96.3453 17.7054 96.5273 17.3018C96.7094 16.8983 96.8088 16.4624 96.8199 16.0198L96.8099 15.6998Z" fill="#1E2B3C"/>
<path d="M110.07 10.4302H108.8C108.341 10.4142 107.884 10.5063 107.468 10.6991C107.051 10.8919 106.685 11.18 106.4 11.5402C105.79 12.293 105.473 13.2418 105.51 14.2102V21.0802C105.51 21.1602 105.51 21.2002 105.37 21.2002H103.25C103.234 21.2018 103.217 21.1997 103.202 21.1943C103.187 21.1888 103.173 21.18 103.162 21.1685C103.15 21.1571 103.141 21.1432 103.136 21.1279C103.13 21.1127 103.128 21.0964 103.13 21.0802V8.68023C103.128 8.66409 103.13 8.64781 103.136 8.63254C103.141 8.61728 103.15 8.60342 103.162 8.59195C103.173 8.58048 103.187 8.57169 103.202 8.56621C103.217 8.56073 103.234 8.55869 103.25 8.56023H105.13C105.13 8.56023 105.22 8.56023 105.25 8.68023L105.51 9.80024C105.563 9.95357 105.653 9.95357 105.78 9.80024C106.153 9.35862 106.611 8.99585 107.126 8.73315C107.641 8.47044 108.203 8.31307 108.78 8.27024H110.05C110.067 8.2673 110.085 8.26822 110.102 8.27292C110.119 8.27762 110.135 8.28599 110.148 8.29744C110.161 8.30889 110.172 8.32314 110.179 8.33918C110.187 8.35521 110.19 8.37264 110.19 8.39023V10.2702C110.19 10.2882 110.186 10.3059 110.179 10.3224C110.172 10.3389 110.162 10.3537 110.148 10.3659C110.135 10.3781 110.12 10.3875 110.103 10.3934C110.086 10.3993 110.068 10.4016 110.05 10.4002" fill="#1E2B3C"/>
<path d="M114.71 21.2001H112.85C112.76 21.2001 112.72 21.2001 112.72 21.0801V3.72011C112.72 3.64011 112.72 3.60011 112.85 3.60011H114.94C114.956 3.59856 114.972 3.6006 114.988 3.60609C115.003 3.61157 115.017 3.62036 115.028 3.63183C115.04 3.6433 115.049 3.65716 115.054 3.67242C115.059 3.68768 115.062 3.70397 115.06 3.72011V9.72011C115.061 9.74439 115.069 9.7679 115.083 9.78754C115.097 9.80718 115.117 9.82202 115.14 9.83011C115.193 9.83011 115.253 9.81011 115.32 9.77011C115.722 9.3873 116.19 9.07916 116.7 8.86011C117.377 8.52136 118.123 8.34665 118.88 8.35011C119.691 8.32051 120.498 8.468 121.246 8.78233C121.994 9.09665 122.664 9.57025 123.21 10.1701C124.321 11.5014 124.898 13.1976 124.83 14.9301C124.912 16.6629 124.337 18.3627 123.22 19.6901C122.677 20.2768 122.013 20.7382 121.274 21.0422C120.535 21.3461 119.738 21.4853 118.94 21.4501C118.251 21.4369 117.571 21.2874 116.94 21.0101C116.344 20.7901 115.799 20.4497 115.34 20.0101C115.23 19.9001 115.14 19.9101 115.08 20.0601L114.83 21.0601C114.83 21.1401 114.74 21.1801 114.69 21.1801L114.71 21.2001ZM121.45 18.0701C122.153 17.1523 122.507 16.0148 122.45 14.8601C122.511 13.7019 122.156 12.5601 121.45 11.6401C121.116 11.2382 120.695 10.9182 120.218 10.705C119.741 10.4917 119.222 10.3908 118.7 10.4101C118.19 10.3848 117.681 10.4824 117.216 10.6947C116.752 10.907 116.345 11.2278 116.03 11.6301C115.341 12.5628 114.989 13.7014 115.03 14.8601C114.99 16.0156 115.343 17.1505 116.03 18.0801C116.345 18.4824 116.752 18.8032 117.216 19.0155C117.681 19.2278 118.19 19.3254 118.7 19.3001C119.222 19.3194 119.741 19.2185 120.218 19.0053C120.695 18.792 121.116 18.4721 121.45 18.0701Z" fill="#1E2B3C"/>
<path d="M139 14.8801C139 15.4401 138.95 15.7201 138.83 15.7201H129.69C129.61 15.7201 129.57 15.7201 129.57 15.8601C129.564 16.3246 129.653 16.7855 129.831 17.2145C130.009 17.6435 130.273 18.0318 130.606 18.3555C130.939 18.6793 131.335 18.9318 131.769 19.0976C132.203 19.2635 132.666 19.3392 133.13 19.3201C133.772 19.3708 134.415 19.2332 134.979 18.9242C135.544 18.6151 136.007 18.148 136.31 17.5801C136.319 17.5466 136.338 17.5168 136.365 17.4951C136.392 17.4735 136.425 17.4612 136.46 17.4601H138.52C138.61 17.4601 138.65 17.4601 138.65 17.5801C138.364 18.7498 137.651 19.7701 136.65 20.4401C135.585 21.1361 134.331 21.4855 133.06 21.4401C132.253 21.4749 131.447 21.3307 130.702 21.0178C129.957 20.7048 129.291 20.231 128.75 19.6301C127.635 18.2946 127.063 16.588 127.15 14.8501C127.059 13.1279 127.608 11.4329 128.69 10.0901C129.244 9.47999 129.928 9.00227 130.691 8.69241C131.454 8.38254 132.278 8.24847 133.1 8.30014C133.917 8.24651 134.735 8.37985 135.492 8.69004C136.249 9.00023 136.926 9.47907 137.47 10.0901C138.528 11.451 139.058 13.1491 138.96 14.8701L139 14.8801ZM136.58 13.7201C136.576 12.8791 136.259 12.0697 135.69 11.4501C134.983 10.7798 134.041 10.4137 133.067 10.4306C132.092 10.4474 131.164 10.8458 130.48 11.5401C129.891 12.1196 129.535 12.8954 129.48 13.7201C129.48 13.8101 129.48 13.8501 129.6 13.8501H136.41C136.49 13.8501 136.53 13.8501 136.53 13.7201" fill="#1E2B3C"/>
<path d="M145.03 3.7201V6.3501C145.031 6.36755 145.029 6.38513 145.023 6.4016C145.017 6.41806 145.008 6.43302 144.995 6.44541C144.983 6.4578 144.968 6.46732 144.951 6.47332C144.935 6.47931 144.917 6.48162 144.9 6.4801H142.28C142.19 6.4801 142.15 6.4801 142.15 6.3501V3.7201C142.15 3.6401 142.15 3.6001 142.28 3.6001H144.94C145.03 3.6001 145.07 3.6001 145.07 3.7201H145.03ZM144.82 8.7201V21.1201C144.821 21.1362 144.819 21.1525 144.814 21.1678C144.808 21.1831 144.8 21.1969 144.788 21.2084C144.777 21.2198 144.763 21.2286 144.748 21.2341C144.732 21.2396 144.716 21.2416 144.7 21.2401H142.56C142.544 21.2416 142.527 21.2396 142.512 21.2341C142.497 21.2286 142.483 21.2198 142.472 21.2084C142.46 21.1969 142.451 21.1831 142.446 21.1678C142.44 21.1525 142.438 21.1362 142.44 21.1201V8.6801C142.438 8.66395 142.44 8.64767 142.446 8.63241C142.451 8.61714 142.46 8.60328 142.472 8.59181C142.483 8.58035 142.497 8.57156 142.512 8.56607C142.527 8.56059 142.544 8.55855 142.56 8.5601H144.7C144.716 8.55855 144.732 8.56059 144.748 8.56607C144.763 8.57156 144.777 8.58035 144.788 8.59181C144.8 8.60328 144.808 8.61714 144.814 8.63241C144.819 8.64767 144.821 8.66395 144.82 8.6801" fill="#1E2B3C"/>
<path d="M159.57 21.1998H157.69C157.69 21.1998 157.6 21.1998 157.57 21.0798L157.32 20.0798C157.32 19.9398 157.19 19.9198 157.07 20.0298C156.071 20.8862 154.815 21.3858 153.5 21.4498C152.688 21.4863 151.878 21.3429 151.128 21.0301C150.377 20.7172 149.706 20.2424 149.16 19.6398C148.043 18.3124 147.468 16.6126 147.55 14.8798C147.467 13.1469 148.042 11.4467 149.16 10.1198C149.705 9.51832 150.375 9.04363 151.123 8.72917C151.871 8.41472 152.679 8.26815 153.49 8.2998C154.25 8.29738 155 8.47199 155.68 8.8098C156.195 9.02665 156.666 9.33497 157.07 9.71981C157.14 9.78981 157.19 9.80981 157.24 9.77981C157.263 9.77172 157.283 9.75687 157.297 9.73723C157.311 9.71759 157.319 9.69408 157.32 9.6698V3.6698C157.32 3.5898 157.32 3.5498 157.45 3.5498H159.57C159.66 3.5498 159.7 3.5498 159.7 3.6698V21.0798C159.7 21.1598 159.7 21.1998 159.57 21.1998ZM149.94 14.8798C149.881 16.0347 150.235 17.1729 150.94 18.0898C151.274 18.4917 151.695 18.8117 152.172 19.025C152.649 19.2382 153.168 19.3391 153.69 19.3198C154.202 19.345 154.712 19.2475 155.178 19.0352C155.644 18.823 156.053 18.5022 156.37 18.0998C157.037 17.1628 157.368 16.0283 157.31 14.8798C157.364 13.7286 157.033 12.5922 156.37 11.6498C156.057 11.2456 155.65 10.9234 155.185 10.7109C154.72 10.4985 154.211 10.402 153.7 10.4298C153.177 10.407 152.656 10.5052 152.177 10.7168C151.699 10.9284 151.275 11.2477 150.94 11.6498C150.237 12.5753 149.883 13.719 149.94 14.8798Z" fill="#1E2B3C"/>
<path d="M173.33 12.8299H171.18C171.164 12.8315 171.147 12.8294 171.132 12.8239C171.117 12.8184 171.103 12.8097 171.092 12.7982C171.08 12.7867 171.071 12.7729 171.066 12.7576C171.06 12.7423 171.058 12.726 171.06 12.7099C171.07 12.3868 171.001 12.0661 170.86 11.7753C170.719 11.4844 170.51 11.2321 170.25 11.0399C169.593 10.5983 168.81 10.384 168.02 10.4299C167.292 10.3917 166.568 10.5691 165.94 10.9399C165.742 11.0526 165.576 11.2135 165.457 11.4075C165.338 11.6016 165.271 11.8226 165.26 12.0499C165.244 12.2065 165.263 12.3645 165.315 12.5131C165.367 12.6616 165.45 12.7971 165.56 12.9099C165.76 13.0599 165.94 13.1899 166.12 13.2999C166.923 13.5245 167.748 13.662 168.58 13.7099C169.72 13.8093 170.84 14.065 171.91 14.4699C172.505 14.7026 173.01 15.119 173.351 15.6586C173.693 16.1982 173.854 16.8327 173.81 17.4699C173.854 18.0724 173.737 18.6758 173.472 19.2185C173.206 19.7613 172.802 20.2241 172.3 20.5599C171.059 21.2831 169.635 21.6304 168.2 21.5599C166.734 21.6462 165.286 21.2026 164.12 20.3099C163.656 19.9283 163.283 19.4469 163.03 18.9016C162.778 18.3562 162.651 17.7609 162.66 17.1599C162.658 17.1438 162.66 17.1275 162.666 17.1122C162.671 17.097 162.68 17.0831 162.692 17.0716C162.703 17.0602 162.717 17.0514 162.732 17.0459C162.748 17.0404 162.764 17.0384 162.78 17.0399H164.89C164.99 17.0399 165.04 17.0799 165.04 17.1599C165.04 17.4855 165.123 17.8056 165.28 18.0906C165.438 18.3756 165.665 18.6162 165.94 18.7899C166.643 19.2464 167.472 19.4703 168.31 19.4299C170.39 19.4299 171.43 18.7999 171.43 17.5399C171.436 17.3932 171.413 17.2468 171.362 17.1093C171.31 16.9718 171.231 16.8462 171.13 16.7399C170.958 16.5548 170.746 16.4112 170.51 16.3199L170.05 16.1599C169.896 16.1174 169.739 16.0873 169.58 16.0699L168.94 15.9599C168.733 15.9158 168.522 15.8923 168.31 15.8899C167.058 15.8211 165.828 15.5405 164.67 15.0599C163.972 14.7365 163.414 14.1719 163.1 13.4699C162.949 13.0394 162.875 12.586 162.88 12.1299C162.881 11.6092 163.009 11.0965 163.253 10.6365C163.497 10.1764 163.849 9.78282 164.28 9.4899C165.375 8.7221 166.695 8.34199 168.03 8.40991C169.41 8.32023 170.783 8.68173 171.94 9.4399C172.449 9.81361 172.856 10.3084 173.125 10.8795C173.394 11.4505 173.516 12.0797 173.48 12.7099C173.48 12.7899 173.48 12.8299 173.37 12.8299" fill="#1E2B3C"/>
<path d="M176.72 8.5598H178.6C178.65 8.5598 178.69 8.5598 178.73 8.6798L178.98 9.6798C178.98 9.7398 179.06 9.7798 179.11 9.7798C179.135 9.77608 179.158 9.76698 179.179 9.75316C179.2 9.73933 179.217 9.72112 179.23 9.6998C179.676 9.25758 180.211 8.91651 180.8 8.6998C181.433 8.42738 182.112 8.27805 182.8 8.2598C183.613 8.22735 184.422 8.37351 185.172 8.68797C185.922 9.00243 186.594 9.47754 187.14 10.0798C188.258 11.4067 188.833 13.1069 188.75 14.8398C188.832 16.5726 188.257 18.2724 187.14 19.5998C186.593 20.2027 185.919 20.6774 185.167 20.9903C184.415 21.3031 183.604 21.4464 182.79 21.4098C182.034 21.411 181.287 21.2364 180.61 20.8998C180.099 20.6761 179.629 20.3685 179.22 19.9898C179.15 19.9298 179.1 19.9098 179.05 19.9298C179 19.9498 178.97 19.9898 178.97 20.0398V26.0398C178.97 26.1198 178.97 26.1598 178.84 26.1698H176.71C176.63 26.1698 176.59 26.1698 176.59 26.0398V8.6798C176.589 8.66366 176.591 8.64737 176.596 8.63211C176.602 8.61684 176.61 8.60298 176.622 8.59152C176.633 8.58005 176.647 8.57126 176.662 8.56577C176.678 8.56029 176.694 8.55825 176.71 8.5598H176.72ZM186.37 14.8798C186.429 13.7219 186.075 12.5806 185.37 11.6598C185.035 11.2571 184.612 10.9367 184.133 10.7235C183.655 10.5102 183.134 10.4097 182.61 10.4298C182.1 10.4028 181.59 10.4997 181.125 10.7121C180.66 10.9245 180.254 11.2462 179.94 11.6498C179.277 12.5922 178.946 13.7286 179 14.8798C178.956 16.0359 179.308 17.1724 180 18.0998C180.312 18.5026 180.717 18.8238 181.18 19.0363C181.644 19.2487 182.151 19.346 182.66 19.3198C183.183 19.3376 183.704 19.2361 184.182 19.023C184.66 18.8099 185.084 18.4908 185.42 18.0898C186.125 17.1728 186.479 16.0347 186.42 14.8798" fill="#1E2B3C"/>
<path d="M203.45 14.88C203.535 16.6249 202.94 18.3347 201.79 19.65C201.203 20.2589 200.492 20.7346 199.705 21.0451C198.919 21.3557 198.075 21.4937 197.23 21.45C196.388 21.4948 195.547 21.3571 194.763 21.0464C193.98 20.7358 193.272 20.2594 192.69 19.65C191.544 18.3332 190.952 16.6236 191.04 14.88C190.955 13.1368 191.546 11.4279 192.69 10.11C193.272 9.50061 193.98 9.02426 194.763 8.71359C195.547 8.40291 196.388 8.26524 197.23 8.31002C198.074 8.26633 198.917 8.40343 199.703 8.71214C200.49 9.02085 201.201 9.49404 201.79 10.1C202.937 11.421 203.531 13.1326 203.45 14.88ZM200.04 18.09C200.745 17.1731 201.099 16.0349 201.04 14.88C201.099 13.7251 200.745 12.587 200.04 11.67C199.685 11.2839 199.254 10.9757 198.773 10.7649C198.293 10.554 197.774 10.4452 197.25 10.4452C196.725 10.4452 196.207 10.554 195.726 10.7649C195.246 10.9757 194.815 11.2839 194.46 11.67C193.754 12.59 193.399 13.7319 193.46 14.89C193.397 16.0454 193.752 17.1847 194.46 18.1C194.801 18.5059 195.231 18.8279 195.717 19.0412C196.202 19.2544 196.73 19.3533 197.26 19.33C197.787 19.3532 198.312 19.2542 198.794 19.0409C199.276 18.8275 199.703 18.5055 200.04 18.1" fill="#1E2B3C"/>
<path d="M213.19 10.4299H211.94C211.48 10.4178 211.024 10.5116 210.606 10.704C210.188 10.8965 209.82 11.1825 209.53 11.5399C208.92 12.2927 208.603 13.2415 208.64 14.2099V21.0799C208.64 21.1599 208.64 21.1999 208.51 21.1999H206.38C206.364 21.2015 206.348 21.1995 206.332 21.194C206.317 21.1885 206.303 21.1797 206.292 21.1682C206.28 21.1568 206.271 21.1429 206.266 21.1276C206.261 21.1124 206.258 21.0961 206.26 21.0799V8.67995C206.258 8.6638 206.261 8.64752 206.266 8.63226C206.271 8.61699 206.28 8.60313 206.292 8.59166C206.303 8.5802 206.317 8.57141 206.332 8.56592C206.348 8.56044 206.364 8.5584 206.38 8.55995H208.26C208.26 8.55995 208.35 8.55995 208.38 8.67995L208.64 9.79995C208.687 9.95328 208.777 9.95328 208.91 9.79995C209.285 9.36002 209.743 8.9984 210.257 8.73584C210.772 8.47329 211.334 8.31496 211.91 8.26995H213.18C213.197 8.26856 213.213 8.27064 213.229 8.27604C213.245 8.28145 213.259 8.29007 213.271 8.30136C213.284 8.31264 213.293 8.32634 213.3 8.34159C213.307 8.35685 213.31 8.37331 213.31 8.38995V10.2699C213.31 10.3499 213.31 10.3999 213.18 10.3999" fill="#1E2B3C"/>
<path d="M222.16 19.2002V21.0802C222.16 21.1602 222.11 21.2002 222.03 21.2002H220.11C217.93 21.2002 216.83 20.2702 216.83 18.2002V10.5602C216.831 10.5427 216.829 10.5251 216.823 10.5087C216.817 10.4922 216.808 10.4773 216.795 10.4649C216.783 10.4525 216.768 10.4429 216.751 10.437C216.735 10.431 216.717 10.4286 216.7 10.4302H214.48C214.4 10.4302 214.36 10.4302 214.36 10.3002V8.68018C214.358 8.66403 214.36 8.64775 214.366 8.63248C214.371 8.61722 214.38 8.60336 214.392 8.59189C214.403 8.58042 214.417 8.57163 214.432 8.56615C214.447 8.56067 214.464 8.55863 214.48 8.56018H216.7C216.718 8.56199 216.737 8.55953 216.754 8.55298C216.771 8.54642 216.787 8.53596 216.8 8.52241C216.812 8.50886 216.821 8.49258 216.827 8.47484C216.832 8.45711 216.833 8.4384 216.83 8.42018V5.05018C216.83 4.97018 216.83 4.93018 216.96 4.93018H219.08C219.16 4.93018 219.21 4.93018 219.21 5.05018V8.42018C219.207 8.43752 219.208 8.4553 219.213 8.47226C219.217 8.48921 219.226 8.50492 219.237 8.51828C219.249 8.53164 219.263 8.54232 219.279 8.54956C219.295 8.5568 219.312 8.56042 219.33 8.56018H222.03C222.046 8.55879 222.063 8.56087 222.079 8.56627C222.095 8.57168 222.109 8.5803 222.121 8.59158C222.133 8.60287 222.143 8.61657 222.15 8.63182C222.157 8.64707 222.16 8.66354 222.16 8.68018V10.3002C222.161 10.3176 222.159 10.3352 222.153 10.3517C222.147 10.3681 222.138 10.3831 222.125 10.3955C222.113 10.4079 222.098 10.4174 222.081 10.4234C222.065 10.4294 222.047 10.4317 222.03 10.4302H219.33C219.25 10.4302 219.21 10.4302 219.21 10.5602V17.8402C219.21 18.6702 219.66 19.0802 220.56 19.0802H222.03C222.11 19.0802 222.16 19.0802 222.16 19.2002Z" fill="#1E2B3C"/>
<path d="M237.15 19.1998V21.0798C237.151 21.0959 237.149 21.1122 237.144 21.1275C237.138 21.1427 237.13 21.1566 237.118 21.168C237.107 21.1795 237.093 21.1883 237.078 21.1938C237.062 21.1993 237.046 21.2013 237.03 21.1998H236.12C234.84 21.1998 234.02 20.8198 233.66 20.0598C233.61 19.9298 233.53 19.9098 233.43 20.0098C232.94 20.4593 232.361 20.8001 231.73 21.0098C230.858 21.3204 229.935 21.4662 229.01 21.4398C227.673 21.5339 226.347 21.1474 225.27 20.3498C224.846 20.0119 224.505 19.5808 224.274 19.0901C224.044 18.5993 223.929 18.0619 223.94 17.5198C223.925 16.9715 224.046 16.4281 224.292 15.9379C224.538 15.4477 224.902 15.0258 225.35 14.7098C226.563 13.9334 227.993 13.5655 229.43 13.6598H232.24C232.7 13.6598 232.97 13.5398 233.04 13.3098C233.058 13.0668 233.058 12.8228 233.04 12.5798C233.003 12.079 232.814 11.6012 232.5 11.2098C232.14 10.6998 231.24 10.4298 229.79 10.4098C228.976 10.3447 228.166 10.5677 227.5 11.0398C227.253 11.2405 227.056 11.4957 226.924 11.7855C226.792 12.0752 226.729 12.3916 226.74 12.7098C226.74 12.7898 226.74 12.8298 226.61 12.8298H224.48C224.464 12.8313 224.447 12.8293 224.432 12.8238C224.417 12.8183 224.403 12.8095 224.392 12.798C224.38 12.7866 224.371 12.7727 224.366 12.7575C224.36 12.7422 224.358 12.7259 224.36 12.7098C224.332 12.0783 224.463 11.4499 224.741 10.8822C225.019 10.3144 225.434 9.82535 225.95 9.45976C227.131 8.66852 228.529 8.26322 229.95 8.29976C231.362 8.22378 232.756 8.64483 233.89 9.48976C234.412 9.89567 234.83 10.4206 235.108 11.0207C235.387 11.6208 235.517 12.2788 235.49 12.9398V17.8398C235.455 18.1845 235.521 18.532 235.68 18.8398C235.81 19.0298 236.1 19.1298 236.56 19.1298H237.03C237.046 19.1282 237.062 19.1303 237.078 19.1357C237.093 19.1412 237.107 19.15 237.118 19.1615C237.13 19.1729 237.138 19.1868 237.144 19.2021C237.149 19.2173 237.151 19.2336 237.15 19.2498V19.1998ZM233.15 15.6998C233.15 15.6198 233.15 15.5798 233.01 15.5798H229.51C228.646 15.533 227.787 15.7417 227.04 16.1798C226.838 16.3329 226.675 16.5312 226.564 16.7587C226.453 16.9862 226.397 17.2366 226.4 17.4898C226.396 17.7454 226.449 17.9986 226.557 18.2306C226.664 18.4626 226.822 18.6674 227.02 18.8298C227.601 19.2415 228.31 19.433 229.02 19.3698C230.138 19.4548 231.245 19.0955 232.1 18.3698C232.424 18.0685 232.685 17.7054 232.867 17.3018C233.049 16.8983 233.149 16.4624 233.16 16.0198L233.15 15.6998Z" fill="#1E2B3C"/>
<path d="M241.94 3.72011V21.0801C241.942 21.0963 241.94 21.1125 241.934 21.1278C241.929 21.1431 241.92 21.1569 241.908 21.1684C241.897 21.1799 241.883 21.1887 241.868 21.1941C241.853 21.1996 241.836 21.2017 241.82 21.2001H239.7C239.683 21.203 239.665 21.2021 239.648 21.1974C239.631 21.1927 239.615 21.1844 239.602 21.1729C239.589 21.1615 239.578 21.1472 239.571 21.1312C239.563 21.1151 239.56 21.0977 239.56 21.0801V3.72011C239.56 3.64011 239.56 3.60011 239.7 3.60011H241.82C241.836 3.59856 241.853 3.6006 241.868 3.60609C241.883 3.61157 241.897 3.62036 241.908 3.63183C241.92 3.6433 241.929 3.65716 241.934 3.67242C241.94 3.68768 241.942 3.70397 241.94 3.72011Z" fill="#1E2B3C"/>
<path d="M256.8 14.8801C256.8 15.4401 256.74 15.7201 256.62 15.7201H247.49C247.41 15.7201 247.37 15.7201 247.37 15.8601C247.364 16.3255 247.453 16.7872 247.632 17.2169C247.811 17.6466 248.075 18.0353 248.409 18.3592C248.744 18.6832 249.14 18.9354 249.576 19.1007C250.011 19.2659 250.475 19.3406 250.94 19.3201C251.582 19.3721 252.225 19.235 252.79 18.9258C253.355 18.6166 253.817 18.1488 254.12 17.5801C254.13 17.5458 254.152 17.5156 254.18 17.4941C254.209 17.4725 254.244 17.4606 254.28 17.4601H256.34C256.433 17.4601 256.473 17.5001 256.46 17.5801C256.192 18.7444 255.496 19.7653 254.51 20.4401C253.445 21.1361 252.191 21.4854 250.92 21.4401C250.112 21.4749 249.307 21.3306 248.562 21.0177C247.817 20.7048 247.15 20.2309 246.61 19.6301C245.495 18.2946 244.923 16.5879 245.01 14.8501C244.919 13.1279 245.468 11.4329 246.55 10.0901C247.102 9.48448 247.783 9.01026 248.543 8.70224C249.303 8.39423 250.122 8.26023 250.94 8.3101C251.756 8.25721 252.574 8.3909 253.331 8.70104C254.089 9.01118 254.765 9.48962 255.31 10.1001C256.364 11.463 256.893 13.1596 256.8 14.8801ZM254.42 13.7301C254.416 12.8891 254.099 12.0797 253.53 11.4601C252.823 10.7898 251.881 10.4237 250.907 10.4405C249.932 10.4573 249.004 10.8558 248.32 11.5501C247.745 12.1345 247.407 12.9111 247.37 13.7301C247.37 13.8201 247.37 13.8601 247.49 13.8601H254.3C254.38 13.8601 254.42 13.8601 254.42 13.7301Z" fill="#1E2B3C"/>
<path d="M260 8.55991H261.88C261.927 8.55991 261.967 8.59991 262 8.67991L262.26 9.79991C262.267 9.82898 262.284 9.85479 262.307 9.873C262.331 9.89121 262.36 9.90072 262.39 9.89991C262.419 9.90303 262.448 9.89816 262.475 9.88582C262.501 9.87348 262.524 9.85415 262.54 9.82991C262.911 9.32182 263.405 8.91536 263.974 8.64798C264.544 8.3806 265.172 8.2609 265.8 8.29991C266.549 8.25905 267.297 8.38703 267.989 8.67437C268.682 8.96171 269.3 9.40106 269.8 9.95991C270.781 11.1537 271.29 12.6659 271.23 14.2099V21.0799C271.23 21.1599 271.18 21.1999 271.09 21.1999H268.97C268.954 21.2015 268.938 21.1994 268.922 21.1939C268.907 21.1885 268.893 21.1797 268.882 21.1682C268.87 21.1567 268.862 21.1429 268.856 21.1276C268.851 21.1123 268.849 21.0961 268.85 21.0799V14.2099C268.879 13.2475 268.599 12.3012 268.05 11.5099C267.768 11.1462 267.4 10.8575 266.98 10.6692C266.56 10.4808 266.1 10.3987 265.64 10.4299C265.164 10.4067 264.689 10.495 264.254 10.6877C263.818 10.8804 263.433 11.1723 263.13 11.5399C262.525 12.2961 262.206 13.2417 262.23 14.2099V21.0799C262.232 21.0961 262.23 21.1123 262.224 21.1276C262.219 21.1429 262.21 21.1567 262.198 21.1682C262.187 21.1797 262.173 21.1885 262.158 21.1939C262.143 21.1994 262.126 21.2015 262.11 21.1999H259.97C259.954 21.2015 259.938 21.1994 259.922 21.1939C259.907 21.1885 259.893 21.1797 259.882 21.1682C259.87 21.1567 259.862 21.1429 259.856 21.1276C259.851 21.1123 259.849 21.0961 259.85 21.0799V8.67991C259.849 8.66377 259.851 8.64748 259.856 8.63222C259.862 8.61696 259.87 8.6031 259.882 8.59163C259.893 8.58016 259.907 8.57137 259.922 8.56589C259.938 8.56041 259.954 8.55837 259.97 8.55991" fill="#1E2B3C"/>
</svg>
