<svg width="101" height="26" viewBox="0 0 101 26" fill="none" xmlns="http://www.w3.org/2000/svg">
<path d="M12.67 0.480469H0.5C0.368193 0.483029 0.242499 0.536529 0.14928 0.629748C0.0560606 0.722967 0.00256007 0.848662 0 0.980469V24.7205C0.00256007 24.8523 0.0560606 24.978 0.14928 25.0712C0.242499 25.1644 0.368193 25.2179 0.5 25.2205H12.67C15.9507 25.2205 19.0971 23.9172 21.4169 21.5974C23.7367 19.2776 25.04 16.1312 25.04 12.8505C25.04 9.56974 23.7367 6.42338 21.4169 4.10356C19.0971 1.78373 15.9507 0.480469 12.67 0.480469ZM13.86 21.4805C12.0187 21.7974 10.1242 21.52 8.45107 20.6884C6.77789 19.8569 5.4128 18.5144 4.55347 16.8553C3.69414 15.1962 3.38516 13.3067 3.67129 11.4603C3.95741 9.61397 4.82378 7.90659 6.14495 6.58542C7.46612 5.26425 9.1735 4.39788 11.0199 4.11176C12.8663 3.82563 14.7558 4.13461 16.4148 4.99394C18.0739 5.85327 19.4164 7.21836 20.2479 8.89153C21.0795 10.5647 21.3569 12.4591 21.04 14.3005C20.7316 16.0924 19.8757 17.7448 18.59 19.0305C17.3043 20.3162 15.6519 21.1721 13.86 21.4805Z" fill="white"/>
<path d="M45.4 8.90066C45.4032 8.49011 45.3087 8.08469 45.1244 7.71783C44.9401 7.35097 44.6713 7.03317 44.34 6.79066C43.5798 6.22226 42.6487 5.92954 41.7 5.96066C40.754 5.92698 39.8253 6.22008 39.07 6.79066C38.7345 7.04457 38.4642 7.37473 38.2817 7.75382C38.0991 8.13291 38.0094 8.55002 38.02 8.97066C38.0055 9.39321 38.1324 9.80853 38.3805 10.1509C38.6287 10.4932 38.9839 10.743 39.39 10.8607C40.2094 11.1663 41.0679 11.3548 41.94 11.4207L44.46 11.9007C45.1634 12.0388 45.8392 12.2922 46.46 12.6507C47.79 13.4107 48.46 14.7607 48.46 16.7207C48.4697 17.4145 48.3331 18.1025 48.0591 18.74C47.7852 19.3775 47.38 19.9502 46.87 20.4207C45.526 21.5506 43.7901 22.1041 42.04 21.9607C40.2509 22.0868 38.4761 21.565 37.04 20.4907C36.4986 20.0607 36.0624 19.513 35.7644 18.8892C35.4663 18.2655 35.3144 17.582 35.32 16.8907C35.3186 16.8741 35.3207 16.8574 35.3261 16.8417C35.3315 16.8259 35.3401 16.8115 35.3514 16.7993C35.3627 16.787 35.3764 16.7773 35.3916 16.7706C35.4069 16.764 35.4234 16.7606 35.44 16.7607H37.56C37.66 16.7607 37.7 16.8107 37.7 16.9207C37.7251 17.3166 37.8387 17.7019 38.0326 18.048C38.2264 18.3942 38.4955 18.6924 38.82 18.9207C39.6991 19.571 40.7782 19.893 41.87 19.8307C42.9654 19.8841 44.0469 19.5671 44.94 18.9307C45.2997 18.6582 45.5891 18.3036 45.7839 17.8966C45.9788 17.4895 46.0734 17.0417 46.06 16.5907C46.0875 16.1593 45.9825 15.7299 45.7591 15.36C45.5357 14.99 45.2045 14.6971 44.81 14.5207C44.0552 14.1625 43.2424 13.9424 42.41 13.8707L40.26 13.5307C39.6793 13.4345 39.1121 13.27 38.57 13.0407C38.0239 12.8343 37.5117 12.5479 37.05 12.1907C36.6221 11.8151 36.2809 11.3511 36.05 10.8307C35.7564 10.2057 35.6126 9.52091 35.63 8.83066C35.6133 8.12569 35.7663 7.42704 36.0761 6.79357C36.3858 6.16009 36.8433 5.61035 37.41 5.19066C38.6314 4.26 40.1351 3.77643 41.67 3.82066C43.2025 3.78204 44.7044 4.25336 45.94 5.16066C46.5161 5.599 46.9829 6.16475 47.3038 6.81359C47.6248 7.46244 47.7912 8.17677 47.79 8.90066C47.7929 8.918 47.792 8.93579 47.7873 8.95274C47.7826 8.96969 47.7742 8.98541 47.7628 8.99876C47.7513 9.01212 47.7371 9.0228 47.7211 9.03004C47.705 9.03728 47.6876 9.0409 47.67 9.04066H45.52C45.5024 9.0409 45.485 9.03728 45.4689 9.03004C45.4529 9.0228 45.4387 9.01212 45.4272 8.99876C45.4158 8.98541 45.4074 8.96969 45.4027 8.95274C45.398 8.93579 45.3971 8.918 45.4 8.90066Z" fill="white"/>
<path d="M63.2599 21.6806H61.0099C60.9647 21.6806 60.9202 21.6697 60.8801 21.6488C60.8401 21.6279 60.8057 21.5977 60.7799 21.5606L56.7799 14.7406C56.7799 14.6706 56.6699 14.6706 56.5999 14.7406L53.7599 17.1806C53.7399 17.2017 53.7249 17.227 53.7163 17.2548C53.7076 17.2825 53.7054 17.3119 53.7099 17.3406V21.5606C53.7099 21.6406 53.7099 21.6806 53.5699 21.6806H51.4799C51.4637 21.6821 51.4474 21.6801 51.4322 21.6746C51.4169 21.6691 51.4031 21.6603 51.3916 21.6489C51.3801 21.6374 51.3713 21.6235 51.3659 21.6083C51.3604 21.593 51.3583 21.5767 51.3599 21.5606V4.20058C51.3583 4.18444 51.3604 4.16815 51.3659 4.15289C51.3713 4.13763 51.3801 4.12376 51.3916 4.1123C51.4031 4.10083 51.4169 4.09204 51.4322 4.08656C51.4474 4.08107 51.4637 4.07903 51.4799 4.08058H53.5999C53.617 4.07922 53.6341 4.08124 53.6504 4.08654C53.6667 4.09184 53.6818 4.10031 53.6948 4.11146C53.7078 4.12262 53.7185 4.13623 53.7263 4.15153C53.734 4.16682 53.7386 4.18349 53.7399 4.20058V14.0106C53.7399 14.0106 53.7399 14.0606 53.7999 14.0806C53.8147 14.0946 53.8344 14.1025 53.8549 14.1025C53.8753 14.1025 53.895 14.0946 53.9099 14.0806L59.6599 9.19058C59.7684 9.10696 59.903 9.06445 60.0399 9.07058H63.1099C63.127 9.06744 63.1448 9.07083 63.1596 9.08008C63.1744 9.08933 63.1852 9.10377 63.1899 9.12058C63.1952 9.13149 63.1979 9.14345 63.1979 9.15558C63.1979 9.16771 63.1952 9.17968 63.1899 9.19058L58.5399 13.1906C58.5399 13.1906 58.5399 13.3006 58.5399 13.3806L63.3599 21.6306C63.3599 21.7106 63.3599 21.7506 63.2599 21.7506" fill="white"/>
<path d="M78.2001 19.6804V21.5604C78.2001 21.6404 78.2 21.6904 78.08 21.6904H77.18C75.89 21.6904 75.07 21.3204 74.71 20.5404C74.71 20.4104 74.59 20.3904 74.4801 20.4904C73.9903 20.94 73.4109 21.2808 72.78 21.4904C71.9081 21.802 70.9856 21.9478 70.0601 21.9204C68.7233 22.0146 67.3969 21.628 66.32 20.8304C65.9018 20.4875 65.568 20.053 65.3443 19.5606C65.1207 19.0682 65.0131 18.531 65.03 17.9904C65.0155 17.4421 65.1366 16.8988 65.3826 16.4085C65.6285 15.9183 65.9918 15.4965 66.44 15.1804C67.6532 14.4041 69.0829 14.0362 70.5201 14.1304H73.33C73.79 14.1304 74.06 14.0104 74.14 13.7804C74.22 13.5504 74.14 13.4504 74.14 13.0504C74.1029 12.5496 73.9146 12.0719 73.6001 11.6804C73.2401 11.1704 72.34 10.9004 70.89 10.8804C70.0765 10.8154 69.2659 11.0384 68.6001 11.5104C68.3529 11.7111 68.1557 11.9664 68.0239 12.2561C67.892 12.5459 67.8291 12.8623 67.8401 13.1804C67.8401 13.2604 67.84 13.3004 67.71 13.3004H65.6001C65.5839 13.302 65.5676 13.2999 65.5524 13.2944C65.5371 13.289 65.5232 13.2802 65.5118 13.2687C65.5003 13.2572 65.4915 13.2434 65.486 13.2281C65.4805 13.2128 65.4785 13.1966 65.48 13.1804C65.4522 12.549 65.5832 11.9206 65.8609 11.3528C66.1387 10.7851 66.5544 10.296 67.07 9.93041C68.2518 9.14038 69.649 8.73519 71.07 8.77041C72.4826 8.69013 73.8781 9.11162 75.01 9.96041C75.521 10.3746 75.9262 10.9043 76.1923 11.5059C76.4583 12.1075 76.5775 12.7637 76.54 13.4204V18.3204C76.5102 18.6649 76.576 19.0109 76.7301 19.3204C76.8601 19.5104 77.15 19.6104 77.61 19.6104H78.08C78.0962 19.6089 78.1125 19.6109 78.1277 19.6164C78.143 19.6219 78.1569 19.6307 78.1683 19.6421C78.1798 19.6536 78.1886 19.6675 78.1941 19.6827C78.1996 19.698 78.2016 19.7143 78.2001 19.7304V19.6804ZM74.2001 16.1804C74.2001 16.1004 74.2 16.0604 74.07 16.0604H70.5201C69.6558 16.0154 68.7973 16.224 68.05 16.6604C67.8482 16.8157 67.6853 17.0158 67.5742 17.2449C67.4631 17.474 67.4069 17.7258 67.4101 17.9804C67.4096 18.234 67.4649 18.4846 67.572 18.7144C67.6792 18.9442 67.8355 19.1477 68.03 19.3104C68.6101 19.7257 69.3192 19.9207 70.03 19.8604C71.1513 19.9449 72.2609 19.5858 73.12 18.8604C73.4341 18.5545 73.6842 18.1892 73.8558 17.7857C74.0275 17.3823 74.1173 16.9488 74.12 16.5104L74.2001 16.1804Z" fill="white"/>
<path d="M87.1001 19.6806V21.5606C87.1001 21.6406 87.1001 21.6806 86.9701 21.6806H85.0501C82.8701 21.6806 81.7701 20.7506 81.7701 18.6806V11.0406C81.7716 11.0232 81.7693 11.0056 81.7633 10.9891C81.7573 10.9727 81.7478 10.9577 81.7354 10.9453C81.723 10.9329 81.708 10.9234 81.6916 10.9174C81.6751 10.9114 81.6575 10.9091 81.6401 10.9106H79.4201C79.3401 10.9106 79.3001 10.9106 79.3001 10.7806V9.16064C79.2985 9.1445 79.3006 9.12821 79.306 9.11295C79.3115 9.09769 79.3203 9.08383 79.3318 9.07236C79.3432 9.06089 79.3571 9.0521 79.3724 9.04662C79.3876 9.04114 79.4039 9.0391 79.4201 9.04064H81.6401C81.7301 9.04064 81.7701 9.04064 81.7701 8.90064V5.53064C81.7701 5.45064 81.7701 5.41064 81.9001 5.41064H84.0201C84.1101 5.41064 84.1501 5.41064 84.1501 5.53064V8.90064C84.1471 8.91799 84.148 8.93577 84.1527 8.95273C84.1574 8.96968 84.1658 8.98539 84.1773 8.99875C84.1887 9.01211 84.203 9.02279 84.219 9.03003C84.235 9.03727 84.2525 9.04089 84.2701 9.04064H86.9401C86.9566 9.03926 86.9733 9.04133 86.9891 9.04674C87.0048 9.05215 87.0192 9.06077 87.0315 9.07205C87.0437 9.08334 87.0534 9.09704 87.0601 9.11229C87.0667 9.12754 87.0701 9.14401 87.0701 9.16064V10.7806C87.0716 10.7981 87.0693 10.8157 87.0633 10.8321C87.0573 10.8486 87.0478 10.8636 87.0354 10.876C87.023 10.8883 87.008 10.8979 86.9916 10.9039C86.9751 10.9099 86.9575 10.9122 86.9401 10.9106H84.2401C84.1601 10.9106 84.1201 10.9106 84.1201 11.0406V18.3206C84.1201 19.1506 84.5701 19.5606 85.4701 19.5606H86.9401C87.0201 19.5606 87.0701 19.5606 87.0701 19.6806" fill="white"/>
<path d="M100.73 15.3604C100.73 15.9204 100.68 16.2004 100.56 16.2004H91.42C91.34 16.2004 91.3 16.2004 91.3 16.3404C91.2957 16.8049 91.3855 17.2655 91.564 17.6944C91.7425 18.1233 92.0061 18.5116 92.3387 18.8359C92.6714 19.1601 93.0663 19.4136 93.4996 19.5811C93.933 19.7486 94.3957 19.8266 94.86 19.8104C95.5029 19.8601 96.1463 19.721 96.7113 19.4101C97.2762 19.0992 97.738 18.6301 98.04 18.0604C98.0486 18.0268 98.0679 17.997 98.095 17.9754C98.122 17.9537 98.1554 17.9414 98.19 17.9404H100.25C100.34 17.9404 100.38 17.9404 100.38 18.0604C100.094 19.2301 99.3805 20.2503 98.38 20.9204C97.3153 21.6164 96.0612 21.9657 94.79 21.9204C93.9826 21.9552 93.1774 21.8109 92.4323 21.498C91.6872 21.1851 91.0205 20.7112 90.48 20.1104C89.3886 18.7687 88.8392 17.067 88.94 15.3404C88.8494 13.6182 89.3978 11.9232 90.48 10.5804C91.0336 9.97022 91.7175 9.49251 92.4809 9.18264C93.2443 8.87278 94.0677 8.73871 94.89 8.79038C95.7066 8.73674 96.5246 8.87009 97.2819 9.18027C98.0392 9.49046 98.7157 9.96931 99.26 10.5804C100.318 11.9412 100.847 13.6393 100.75 15.3604H100.73ZM98.37 14.2104C98.3661 13.3693 98.0488 12.56 97.48 11.9404C96.7728 11.2701 95.8309 10.904 94.8566 10.9208C93.8824 10.9376 92.9536 11.336 92.27 12.0304C91.6806 12.6098 91.3247 13.3857 91.27 14.2104C91.27 14.3004 91.27 14.3404 91.39 14.3404H98.2C98.28 14.3404 98.32 14.3404 98.32 14.2104" fill="white"/>
</svg>
