<svg width="101" height="25" viewBox="0 0 101 25" fill="none" xmlns="http://www.w3.org/2000/svg">
<path d="M12.67 0H0.5C0.368193 0.00256007 0.242499 0.0560606 0.14928 0.14928C0.0560606 0.242499 0.00256007 0.368193 0 0.5V24.24C0.00256007 24.3718 0.0560606 24.4975 0.14928 24.5907C0.242499 24.6839 0.368193 24.7374 0.5 24.74H12.67C15.9507 24.74 19.0971 23.4367 21.4169 21.1169C23.7367 18.7971 25.04 15.6507 25.04 12.37C25.04 9.08927 23.7367 5.94291 21.4169 3.62309C19.0971 1.30326 15.9507 4.88867e-08 12.67 0ZM13.86 21C12.0187 21.3169 10.1242 21.0395 8.45107 20.2079C6.77789 19.3764 5.4128 18.0339 4.55347 16.3748C3.69414 14.7158 3.38516 12.8263 3.67129 10.9799C3.95741 9.1335 4.82378 7.42612 6.14495 6.10495C7.46612 4.78378 9.1735 3.91741 11.0199 3.63129C12.8663 3.34516 14.7558 3.65414 16.4148 4.51347C18.0739 5.3728 19.4164 6.73789 20.2479 8.41107C21.0795 10.0842 21.3569 11.9787 21.04 13.82C20.7316 15.6119 19.8757 17.2643 18.59 18.55C17.3043 19.8357 15.6519 20.6916 13.86 21Z" fill="#1E2B3C"/>
<path d="M45.4 8.42019C45.4032 8.00965 45.3087 7.60423 45.1244 7.23736C44.9401 6.8705 44.6713 6.5527 44.34 6.31019C43.5798 5.74179 42.6487 5.44907 41.7 5.48019C40.754 5.44652 39.8253 5.73961 39.07 6.31019C38.7345 6.5641 38.4642 6.89426 38.2817 7.27335C38.0991 7.65244 38.0094 8.06956 38.02 8.49019C38.0055 8.91274 38.1324 9.32806 38.3805 9.67039C38.6287 10.0127 38.9839 10.2625 39.39 10.3802C40.2094 10.6858 41.0679 10.8744 41.94 10.9402L44.46 11.4202C45.1634 11.5584 45.8392 11.8118 46.46 12.1702C47.79 12.9302 48.46 14.2802 48.46 16.2402C48.4697 16.934 48.3331 17.6221 48.0591 18.2596C47.7852 18.8971 47.38 19.4697 46.87 19.9402C45.526 21.0702 43.7901 21.6237 42.04 21.4802C40.2509 21.6063 38.4761 21.0845 37.04 20.0102C36.4986 19.5802 36.0624 19.0326 35.7644 18.4088C35.4663 17.785 35.3144 17.1015 35.32 16.4102C35.3186 16.3936 35.3207 16.3769 35.3261 16.3612C35.3315 16.3455 35.3401 16.331 35.3514 16.3188C35.3627 16.3066 35.3764 16.2968 35.3916 16.2902C35.4069 16.2835 35.4234 16.2801 35.44 16.2802H37.56C37.66 16.2802 37.7 16.3302 37.7 16.4402C37.7251 16.8361 37.8387 17.2214 38.0326 17.5676C38.2264 17.9137 38.4955 18.2119 38.82 18.4402C39.6991 19.0905 40.7782 19.4125 41.87 19.3502C42.9654 19.4037 44.0469 19.0866 44.94 18.4502C45.2997 18.1777 45.5891 17.8231 45.7839 17.4161C45.9788 17.009 46.0734 16.5613 46.06 16.1102C46.0875 15.6789 45.9825 15.2495 45.7591 14.8795C45.5357 14.5095 45.2045 14.2167 44.81 14.0402C44.0552 13.682 43.2424 13.4619 42.41 13.3902L40.26 13.0502C39.6793 12.954 39.1121 12.7895 38.57 12.5602C38.0239 12.3539 37.5117 12.0674 37.05 11.7102C36.6221 11.3346 36.2809 10.8706 36.05 10.3502C35.7564 9.72525 35.6126 9.04044 35.63 8.35019C35.6133 7.64523 35.7663 6.94658 36.0761 6.3131C36.3858 5.67963 36.8433 5.12988 37.41 4.71019C38.6314 3.77953 40.1351 3.29596 41.67 3.34019C43.2025 3.30157 44.7044 3.7729 45.94 4.68019C46.5161 5.11853 46.9829 5.68428 47.3038 6.33312C47.6248 6.98197 47.7912 7.6963 47.79 8.42019C47.7929 8.43754 47.792 8.45532 47.7873 8.47227C47.7826 8.48922 47.7742 8.50494 47.7628 8.5183C47.7513 8.53165 47.7371 8.54233 47.7211 8.54957C47.705 8.55681 47.6876 8.56044 47.67 8.56019H45.52C45.5024 8.56044 45.485 8.55681 45.4689 8.54957C45.4529 8.54233 45.4387 8.53165 45.4272 8.5183C45.4158 8.50494 45.4074 8.48922 45.4027 8.47227C45.398 8.45532 45.3971 8.43754 45.4 8.42019Z" fill="#1E2B3C"/>
<path d="M63.2599 21.2001H61.0099C60.9647 21.2001 60.9202 21.1893 60.8801 21.1684C60.8401 21.1475 60.8057 21.1172 60.7799 21.0801L56.7799 14.2601C56.7799 14.1901 56.6699 14.1901 56.5999 14.2601L53.7599 16.7001C53.7399 16.7212 53.7249 16.7466 53.7163 16.7743C53.7076 16.802 53.7054 16.8314 53.7099 16.8601V21.0801C53.7099 21.1601 53.7099 21.2001 53.5699 21.2001H51.4799C51.4637 21.2017 51.4474 21.1996 51.4322 21.1941C51.4169 21.1887 51.4031 21.1799 51.3916 21.1684C51.3801 21.1569 51.3713 21.1431 51.3659 21.1278C51.3604 21.1125 51.3583 21.0963 51.3599 21.0801V3.72011C51.3583 3.70397 51.3604 3.68768 51.3659 3.67242C51.3713 3.65716 51.3801 3.6433 51.3916 3.63183C51.4031 3.62036 51.4169 3.61157 51.4322 3.60609C51.4474 3.6006 51.4637 3.59856 51.4799 3.60011H53.5999C53.617 3.59875 53.6341 3.60077 53.6504 3.60607C53.6667 3.61137 53.6818 3.61984 53.6948 3.631C53.7078 3.64215 53.7185 3.65576 53.7263 3.67106C53.734 3.68635 53.7386 3.70302 53.7399 3.72011V13.5301C53.7399 13.5301 53.7399 13.5801 53.7999 13.6001C53.8147 13.6142 53.8344 13.622 53.8549 13.622C53.8753 13.622 53.895 13.6142 53.9099 13.6001L59.6599 8.71011C59.7684 8.62649 59.903 8.58398 60.0399 8.59011H63.1099C63.127 8.58697 63.1448 8.59036 63.1596 8.59961C63.1744 8.60886 63.1852 8.6233 63.1899 8.64011C63.1952 8.65102 63.1979 8.66298 63.1979 8.67511C63.1979 8.68724 63.1952 8.69921 63.1899 8.71011L58.5399 12.7101C58.5399 12.7101 58.5399 12.8201 58.5399 12.9001L63.3599 21.1501C63.3599 21.2301 63.3599 21.2701 63.2599 21.2701" fill="#1E2B3C"/>
<path d="M78.2001 19.1999V21.0799C78.2001 21.1599 78.2 21.2099 78.08 21.2099H77.18C75.89 21.2099 75.07 20.8399 74.71 20.0599C74.71 19.9299 74.59 19.9099 74.4801 20.0099C73.9903 20.4595 73.4109 20.8003 72.78 21.0099C71.9081 21.3215 70.9856 21.4674 70.0601 21.4399C68.7233 21.5341 67.3969 21.1476 66.32 20.3499C65.9018 20.007 65.568 19.5726 65.3443 19.0802C65.1207 18.5877 65.0131 18.0505 65.03 17.5099C65.0155 16.9617 65.1366 16.4183 65.3826 15.9281C65.6285 15.4379 65.9918 15.016 66.44 14.6999C67.6532 13.9236 69.0829 13.5557 70.5201 13.6499H73.33C73.79 13.6499 74.06 13.5299 74.14 13.2999C74.22 13.0699 74.14 12.9699 74.14 12.5699C74.1029 12.0691 73.9146 11.5914 73.6001 11.1999C73.2401 10.6899 72.34 10.4199 70.89 10.3999C70.0765 10.3349 69.2659 10.5579 68.6001 11.0299C68.3529 11.2307 68.1557 11.4859 68.0239 11.7757C67.892 12.0654 67.8291 12.3818 67.8401 12.6999C67.8401 12.7799 67.84 12.8199 67.71 12.8199H65.6001C65.5839 12.8215 65.5676 12.8195 65.5524 12.814C65.5371 12.8085 65.5232 12.7997 65.5118 12.7882C65.5003 12.7768 65.4915 12.7629 65.486 12.7476C65.4805 12.7324 65.4785 12.7161 65.48 12.6999C65.4522 12.0685 65.5832 11.4401 65.8609 10.8724C66.1387 10.3046 66.5544 9.81553 67.07 9.44994C68.2518 8.65991 69.649 8.25472 71.07 8.28995C72.4826 8.20967 73.8781 8.63115 75.01 9.47995C75.521 9.89415 75.9262 10.4239 76.1923 11.0255C76.4583 11.627 76.5775 12.2832 76.54 12.9399V17.8399C76.5102 18.1844 76.576 18.5304 76.7301 18.8399C76.8601 19.0299 77.15 19.1299 77.61 19.1299H78.08C78.0962 19.1284 78.1125 19.1304 78.1277 19.1359C78.143 19.1414 78.1569 19.1502 78.1683 19.1617C78.1798 19.1731 78.1886 19.187 78.1941 19.2023C78.1996 19.2175 78.2016 19.2338 78.2001 19.2499V19.1999ZM74.2001 15.6999C74.2001 15.6199 74.2 15.5799 74.07 15.5799H70.5201C69.6558 15.535 68.7973 15.7435 68.05 16.1799C67.8482 16.3352 67.6853 16.5353 67.5742 16.7644C67.4631 16.9935 67.4069 17.2453 67.4101 17.4999C67.4096 17.7535 67.4649 18.0041 67.572 18.2339C67.6792 18.4638 67.8355 18.6672 68.03 18.8299C68.6101 19.2452 69.3192 19.4402 70.03 19.3799C71.1513 19.4644 72.2609 19.1053 73.12 18.3799C73.4341 18.074 73.6842 17.7087 73.8558 17.3053C74.0275 16.9019 74.1173 16.4684 74.12 16.0299L74.2001 15.6999Z" fill="#1E2B3C"/>
<path d="M87.1001 19.2002V21.0802C87.1001 21.1602 87.1001 21.2002 86.9701 21.2002H85.0501C82.8701 21.2002 81.7701 20.2702 81.7701 18.2002V10.5602C81.7716 10.5427 81.7693 10.5251 81.7633 10.5087C81.7573 10.4922 81.7478 10.4773 81.7354 10.4649C81.723 10.4525 81.708 10.4429 81.6916 10.437C81.6751 10.431 81.6575 10.4286 81.6401 10.4302H79.4201C79.3401 10.4302 79.3001 10.4302 79.3001 10.3002V8.68018C79.2985 8.66403 79.3006 8.64775 79.306 8.63248C79.3115 8.61722 79.3203 8.60336 79.3318 8.59189C79.3432 8.58042 79.3571 8.57163 79.3724 8.56615C79.3876 8.56067 79.4039 8.55863 79.4201 8.56018H81.6401C81.7301 8.56018 81.7701 8.56018 81.7701 8.42018V5.05018C81.7701 4.97018 81.7701 4.93018 81.9001 4.93018H84.0201C84.1101 4.93018 84.1501 4.93018 84.1501 5.05018V8.42018C84.1471 8.43752 84.148 8.4553 84.1527 8.47226C84.1574 8.48921 84.1658 8.50492 84.1773 8.51828C84.1887 8.53164 84.203 8.54232 84.219 8.54956C84.235 8.5568 84.2525 8.56042 84.2701 8.56018H86.9401C86.9566 8.55879 86.9733 8.56087 86.9891 8.56627C87.0048 8.57168 87.0192 8.5803 87.0315 8.59158C87.0437 8.60287 87.0534 8.61657 87.0601 8.63182C87.0667 8.64707 87.0701 8.66354 87.0701 8.68018V10.3002C87.0716 10.3176 87.0693 10.3352 87.0633 10.3517C87.0573 10.3681 87.0478 10.3831 87.0354 10.3955C87.023 10.4079 87.008 10.4174 86.9916 10.4234C86.9751 10.4294 86.9575 10.4317 86.9401 10.4302H84.2401C84.1601 10.4302 84.1201 10.4302 84.1201 10.5602V17.8402C84.1201 18.6702 84.5701 19.0802 85.4701 19.0802H86.9401C87.0201 19.0802 87.0701 19.0802 87.0701 19.2002" fill="#1E2B3C"/>
<path d="M100.73 14.8799C100.73 15.4399 100.68 15.7199 100.56 15.7199H91.42C91.34 15.7199 91.3 15.7199 91.3 15.8599C91.2957 16.3245 91.3855 16.7851 91.564 17.214C91.7425 17.6428 92.0061 18.0311 92.3387 18.3554C92.6714 18.6797 93.0663 18.9332 93.4996 19.1007C93.933 19.2682 94.3957 19.3461 94.86 19.3299C95.5029 19.3797 96.1463 19.2406 96.7113 18.9297C97.2762 18.6188 97.738 18.1496 98.04 17.5799C98.0486 17.5464 98.0679 17.5165 98.095 17.4949C98.122 17.4733 98.1554 17.461 98.19 17.4599H100.25C100.34 17.4599 100.38 17.4599 100.38 17.5799C100.094 18.7496 99.3805 19.7699 98.38 20.4399C97.3153 21.1359 96.0612 21.4852 94.79 21.4399C93.9826 21.4747 93.1774 21.3305 92.4323 21.0175C91.6872 20.7046 91.0205 20.2308 90.48 19.6299C89.3886 18.2882 88.8392 16.5865 88.94 14.8599C88.8494 13.1377 89.3978 11.4427 90.48 10.0999C91.0336 9.48976 91.7175 9.01204 92.4809 8.70217C93.2443 8.39231 94.0677 8.25824 94.89 8.30991C95.7066 8.25627 96.5246 8.38962 97.2819 8.69981C98.0392 9.00999 98.7157 9.48884 99.26 10.0999C100.318 11.4607 100.847 13.1588 100.75 14.8799H100.73ZM98.37 13.7299C98.3661 12.8889 98.0488 12.0795 97.48 11.4599C96.7728 10.7896 95.8309 10.4235 94.8566 10.4403C93.8824 10.4571 92.9536 10.8556 92.27 11.5499C91.6806 12.1294 91.3247 12.9052 91.27 13.7299C91.27 13.8199 91.27 13.8599 91.39 13.8599H98.2C98.28 13.8599 98.32 13.8599 98.32 13.7299" fill="#1E2B3C"/>
</svg>
