<svg width="143" height="25" viewBox="0 0 143 25" fill="none" xmlns="http://www.w3.org/2000/svg">
<path d="M12.67 0H0.5C0.368193 0.00256007 0.242499 0.0560606 0.14928 0.14928C0.0560606 0.242499 0.00256007 0.368193 0 0.5V24.24C0.00256007 24.3718 0.0560606 24.4975 0.14928 24.5907C0.242499 24.6839 0.368193 24.7374 0.5 24.74H12.67C15.9507 24.74 19.0971 23.4367 21.4169 21.1169C23.7367 18.7971 25.04 15.6507 25.04 12.37C25.04 9.08927 23.7367 5.94291 21.4169 3.62309C19.0971 1.30326 15.9507 4.88867e-08 12.67 0ZM13.86 21C12.0187 21.3169 10.1242 21.0395 8.45107 20.2079C6.77789 19.3764 5.4128 18.0339 4.55347 16.3748C3.69414 14.7158 3.38516 12.8263 3.67129 10.9799C3.95741 9.1335 4.82378 7.42612 6.14495 6.10495C7.46612 4.78378 9.1735 3.91741 11.0199 3.63129C12.8663 3.34516 14.7558 3.65414 16.4148 4.51347C18.0739 5.3728 19.4164 6.73789 20.2479 8.41107C21.0795 10.0842 21.3569 11.9787 21.04 13.82C20.7316 15.6119 19.8757 17.2643 18.59 18.55C17.3043 19.8357 15.6519 20.6916 13.86 21Z" fill="#1E2B3C"/>
<path d="M45.4 8.41993C45.4032 8.00939 45.3087 7.60397 45.1244 7.23711C44.9401 6.87024 44.6713 6.55245 44.34 6.30993C43.5798 5.74154 42.6487 5.44882 41.7 5.47993C40.754 5.44626 39.8253 5.73936 39.07 6.30993C38.7345 6.56385 38.4642 6.89401 38.2817 7.2731C38.0991 7.65218 38.0094 8.0693 38.02 8.48993C38.0055 8.91249 38.1324 9.32781 38.3805 9.67013C38.6287 10.0125 38.9839 10.2622 39.39 10.3799C40.2094 10.6856 41.0679 10.8741 41.94 10.9399L44.46 11.4199C45.1652 11.5572 45.8416 11.8142 46.46 12.1799C47.7933 12.9333 48.46 14.2866 48.46 16.2399C48.4697 16.9337 48.3331 17.6218 48.0591 18.2593C47.7852 18.8968 47.38 19.4695 46.87 19.9399C45.526 21.0699 43.7901 21.6234 42.04 21.4799C40.2509 21.6061 38.4761 21.0843 37.04 20.0099C36.4986 19.58 36.0624 19.0323 35.7644 18.4085C35.4663 17.7847 35.3144 17.1012 35.32 16.4099C35.3186 16.3934 35.3207 16.3767 35.3261 16.3609C35.3315 16.3452 35.3401 16.3308 35.3514 16.3185C35.3627 16.3063 35.3764 16.2966 35.3916 16.2899C35.4069 16.2833 35.4234 16.2799 35.44 16.2799H37.56C37.66 16.2799 37.7 16.3299 37.7 16.4399C37.7251 16.8359 37.8387 17.2211 38.0326 17.5673C38.2264 17.9135 38.4955 18.2117 38.82 18.4399C39.6991 19.0903 40.7782 19.4123 41.87 19.3499C42.9654 19.4034 44.0469 19.0864 44.94 18.4499C45.2997 18.1775 45.5891 17.8229 45.7839 17.4158C45.9788 17.0088 46.0734 16.561 46.06 16.1099C46.0875 15.6786 45.9825 15.2492 45.7591 14.8792C45.5357 14.5093 45.2045 14.2164 44.81 14.0399C44.0538 13.6855 43.2417 13.4656 42.41 13.3899L40.26 13.0499C39.6793 12.9538 39.1121 12.7893 38.57 12.5599C38.0239 12.3536 37.5117 12.0671 37.05 11.7099C36.6221 11.3344 36.2809 10.8704 36.05 10.3499C35.7557 9.72523 35.6118 9.04026 35.63 8.34993C35.6117 7.6433 35.7639 6.94265 36.0737 6.3073C36.3836 5.67195 36.8419 5.12061 37.41 4.69993C38.6314 3.76928 40.1351 3.2857 41.67 3.32993C43.2036 3.2942 44.7056 3.76908 45.94 4.67993C46.5155 5.11881 46.9819 5.68466 47.3028 6.33338C47.6237 6.98211 47.7904 7.69618 47.79 8.41993C47.7929 8.43728 47.792 8.45506 47.7873 8.47202C47.7826 8.48897 47.7742 8.50468 47.7628 8.51804C47.7513 8.5314 47.7371 8.54208 47.7211 8.54932C47.705 8.55656 47.6876 8.56018 47.67 8.55993H45.52C45.5024 8.56018 45.485 8.55656 45.4689 8.54932C45.4529 8.54208 45.4387 8.5314 45.4272 8.51804C45.4158 8.50468 45.4074 8.48897 45.4027 8.47202C45.398 8.45506 45.3971 8.43728 45.4 8.41993Z" fill="#1E2B3C"/>
<path d="M57.9401 19.2002V21.0802C57.9401 21.1602 57.9401 21.2002 57.8001 21.2002H55.8401C53.6601 21.2468 52.5634 20.2468 52.5501 18.2002V10.5602C52.5501 10.4802 52.5501 10.4302 52.4301 10.4302H50.2101C50.1301 10.4302 50.0901 10.4302 50.0901 10.3002V8.68018C50.0886 8.66403 50.0906 8.64775 50.0961 8.63248C50.1016 8.61722 50.1104 8.60336 50.1218 8.59189C50.1333 8.58042 50.1471 8.57163 50.1624 8.56615C50.1777 8.56067 50.194 8.55863 50.2101 8.56018H52.4301C52.5101 8.56018 52.5501 8.56018 52.5501 8.42018V5.06018C52.5501 4.97018 52.5501 4.93018 52.6901 4.93018H54.8101C54.8901 4.93018 54.9301 4.93018 54.9301 5.06018V8.42018C54.9301 8.51018 54.9301 8.55018 55.0601 8.56018H57.7501C57.7674 8.55724 57.7852 8.55816 57.8022 8.56286C57.8191 8.56756 57.8348 8.57594 57.8482 8.58739C57.8616 8.59884 57.8722 8.61308 57.8795 8.62912C57.8867 8.64515 57.8903 8.66258 57.8901 8.68018V10.3002C57.8901 10.3902 57.8901 10.4302 57.7501 10.4302H55.0601C54.9701 10.4302 54.9301 10.4302 54.9301 10.5602V17.8402C54.9301 18.6702 55.3901 19.0802 56.2901 19.0802H57.7501C57.8401 19.0802 57.8901 19.0802 57.8901 19.2002" fill="#1E2B3C"/>
<path d="M63.0599 3.7201V6.3501C63.0615 6.36755 63.0591 6.38513 63.0532 6.4016C63.0472 6.41806 63.0376 6.43302 63.0252 6.44541C63.0129 6.4578 62.9979 6.46732 62.9814 6.47332C62.965 6.47931 62.9474 6.48162 62.9299 6.4801H60.3099C60.2199 6.4801 60.1799 6.4801 60.1799 6.3501V3.7201C60.1799 3.6401 60.1799 3.6001 60.3099 3.6001H62.9399C63.0299 3.6001 63.0699 3.6001 63.0699 3.7201H63.0599ZM62.8199 8.7201V21.1201C62.8199 21.2001 62.8199 21.2401 62.6899 21.2401H60.5499C60.5338 21.2416 60.5175 21.2396 60.5022 21.2341C60.487 21.2286 60.4731 21.2198 60.4616 21.2084C60.4502 21.1969 60.4414 21.1831 60.4359 21.1678C60.4304 21.1525 60.4284 21.1362 60.4299 21.1201V8.6801C60.4284 8.66395 60.4304 8.64767 60.4359 8.63241C60.4414 8.61714 60.4502 8.60328 60.4616 8.59181C60.4731 8.58035 60.487 8.57156 60.5022 8.56607C60.5175 8.56059 60.5338 8.55855 60.5499 8.5601H62.6799C62.7699 8.5601 62.8099 8.5601 62.8099 8.6801" fill="#1E2B3C"/>
<path d="M76.6501 21.0798C76.6516 21.0959 76.6496 21.1122 76.6441 21.1275C76.6386 21.1427 76.6298 21.1566 76.6184 21.1681C76.6069 21.1795 76.593 21.1883 76.5778 21.1938C76.5625 21.1993 76.5462 21.2013 76.5301 21.1998H74.3701C74.3001 21.1998 74.2701 21.1998 74.2701 21.0798V14.2098C74.3123 13.2577 74.1092 12.3107 73.6801 11.4598C73.4519 11.1128 73.1322 10.8356 72.7562 10.6591C72.3803 10.4826 71.9628 10.4136 71.5501 10.4598C71.1216 10.419 70.6901 10.4963 70.3023 10.6831C69.9145 10.8699 69.5852 11.1593 69.3501 11.5198C68.8876 12.3495 68.6627 13.2906 68.7001 14.2398V21.1098C68.7001 21.1898 68.7001 21.2298 68.5701 21.2298H66.4501C66.3601 21.2298 66.3201 21.2298 66.3201 21.1098V8.67978C66.3201 8.59978 66.3201 8.55978 66.4501 8.55978H68.3301C68.3301 8.55978 68.4101 8.55978 68.4501 8.67978L68.7001 9.79978C68.7001 9.86978 68.7801 9.89978 68.8501 9.88978C68.8801 9.88644 68.909 9.87668 68.9349 9.86114C68.9608 9.84561 68.983 9.82468 69.0001 9.79978C69.2589 9.32185 69.671 8.94495 70.1701 8.72978C70.7918 8.42575 71.4783 8.27814 72.1701 8.29978C72.7923 8.2794 73.4121 8.38836 73.9901 8.61978C74.596 8.92841 75.1522 9.32616 75.6401 9.79978C75.7501 9.88978 75.8501 9.88978 75.9301 9.79978C76.403 9.28504 76.9855 8.88303 77.6345 8.62342C78.2836 8.36381 78.9826 8.25321 79.6801 8.29978C80.376 8.25188 81.0736 8.36498 81.7188 8.63032C82.3639 8.89567 82.9392 9.3061 83.4001 9.82978C84.3094 11.1019 84.751 12.6493 84.6501 14.2098V21.0798C84.6516 21.0959 84.6496 21.1122 84.6441 21.1275C84.6386 21.1427 84.6298 21.1566 84.6184 21.1681C84.6069 21.1795 84.593 21.1883 84.5778 21.1938C84.5625 21.1993 84.5462 21.2013 84.5301 21.1998H82.3501C82.3339 21.2013 82.3176 21.1993 82.3024 21.1938C82.2871 21.1883 82.2733 21.1795 82.2618 21.1681C82.2503 21.1566 82.2415 21.1427 82.236 21.1275C82.2306 21.1122 82.2285 21.0959 82.2301 21.0798V14.2098C82.2301 12.3498 81.7801 11.2098 80.8901 10.7298C80.4306 10.5151 79.9269 10.4123 79.4201 10.4298C78.9999 10.3798 78.574 10.4467 78.1894 10.6231C77.8048 10.7996 77.4763 11.0787 77.2401 11.4298C76.811 12.2843 76.6079 13.2345 76.6501 14.1898V21.0798Z" fill="#1E2B3C"/>
<path d="M99 21.2001H97.12C97.0666 21.2001 97.0266 21.1601 97 21.0801L96.74 19.9401C96.7297 19.9111 96.7108 19.8859 96.6857 19.868C96.6607 19.8501 96.6308 19.8404 96.6 19.8401C96.5726 19.8388 96.5453 19.8445 96.5208 19.8568C96.4963 19.869 96.4754 19.8874 96.46 19.9101C96.1219 20.3509 95.6829 20.7042 95.18 20.9401C94.5656 21.2682 93.8762 21.4302 93.18 21.4101C92.4076 21.4836 91.6288 21.3764 90.905 21.097C90.1813 20.8176 89.5325 20.3736 89.01 19.8001C88.107 18.5572 87.6523 17.0448 87.72 15.5101V8.68007C87.72 8.60007 87.72 8.56007 87.86 8.56007H89.98C89.9961 8.55852 90.0124 8.56056 90.0277 8.56605C90.0429 8.57153 90.0568 8.58032 90.0683 8.59179C90.0797 8.60326 90.0885 8.61712 90.094 8.63238C90.0995 8.64764 90.1015 8.66393 90.1 8.68007V15.5501C90.076 16.5148 90.3713 17.4604 90.94 18.2401C91.224 18.6046 91.5932 18.8937 92.0152 19.082C92.4372 19.2704 92.899 19.3521 93.36 19.3201C93.8359 19.3432 94.3106 19.255 94.7464 19.0623C95.1822 18.8695 95.5669 18.5777 95.87 18.2101C96.4753 17.4578 96.7942 16.5153 96.77 15.5501V8.68007C96.77 8.60007 96.77 8.56007 96.9 8.56007H99.03C99.0461 8.55852 99.0624 8.56056 99.0777 8.56605C99.0929 8.57153 99.1068 8.58032 99.1183 8.59179C99.1297 8.60326 99.1385 8.61712 99.144 8.63238C99.1495 8.64764 99.1515 8.66393 99.15 8.68007V21.0801C99.1515 21.0962 99.1495 21.1125 99.144 21.1278C99.1385 21.143 99.1297 21.1569 99.1183 21.1684C99.1068 21.1798 99.0929 21.1886 99.0777 21.1941C99.0624 21.1996 99.0461 21.2016 99.03 21.2001" fill="#1E2B3C"/>
<path d="M102.22 21.0801V3.72011C102.22 3.64011 102.22 3.60011 102.36 3.60011H104.48C104.496 3.59856 104.512 3.6006 104.528 3.60609C104.543 3.61157 104.557 3.62036 104.568 3.63183C104.58 3.6433 104.589 3.65716 104.594 3.67242C104.599 3.68768 104.602 3.70397 104.6 3.72011V18.9401C104.6 19.0201 104.6 19.0601 104.73 19.0601H113.48C113.496 19.0586 113.512 19.0606 113.528 19.0661C113.543 19.0716 113.557 19.0804 113.568 19.0918C113.58 19.1033 113.589 19.1172 113.594 19.1324C113.599 19.1477 113.602 19.164 113.6 19.1801V21.0601C113.602 21.0763 113.599 21.0925 113.594 21.1078C113.589 21.1231 113.58 21.1369 113.568 21.1484C113.557 21.1599 113.543 21.1687 113.528 21.1741C113.512 21.1796 113.496 21.1817 113.48 21.1801H102.36C102.27 21.1801 102.22 21.1801 102.22 21.0601" fill="#1E2B3C"/>
<path d="M128.29 19.1998V21.0798C128.29 21.1698 128.29 21.2098 128.16 21.2098H127.26C125.98 21.2098 125.16 20.8398 124.8 20.0598C124.75 19.9298 124.67 19.9098 124.56 20.0098C124.076 20.4617 123.499 20.8029 122.87 21.0098C121.996 21.3252 121.069 21.4711 120.14 21.4398C118.806 21.5342 117.483 21.1475 116.41 20.3498C115.991 20.0074 115.655 19.5733 115.43 19.0809C115.204 18.5886 115.095 18.0511 115.11 17.5098C115.097 16.9608 115.22 16.4171 115.468 15.927C115.716 15.4369 116.081 15.0154 116.53 14.6998C117.743 13.9235 119.173 13.5556 120.61 13.6498H123.41C123.88 13.6498 124.15 13.5298 124.22 13.2998C124.238 13.0568 124.238 12.8128 124.22 12.5698C124.182 12.0693 123.993 11.5919 123.68 11.1998C123.32 10.6898 122.41 10.4198 120.97 10.3998C120.156 10.333 119.345 10.5562 118.68 11.0298C118.433 11.2305 118.236 11.4858 118.104 11.7755C117.972 12.0653 117.909 12.3817 117.92 12.6998C117.92 12.7798 117.87 12.8198 117.78 12.8198H115.66C115.644 12.8214 115.628 12.8193 115.612 12.8138C115.597 12.8084 115.583 12.7996 115.572 12.7881C115.56 12.7766 115.551 12.7628 115.546 12.7475C115.54 12.7322 115.538 12.716 115.54 12.6998C115.512 12.0684 115.643 11.44 115.921 10.8722C116.199 10.3045 116.614 9.8154 117.13 9.44981C118.311 8.65736 119.709 8.25195 121.13 8.28981C122.539 8.21705 123.928 8.63789 125.06 9.47981C125.564 9.89401 125.963 10.4217 126.223 11.0196C126.484 11.6175 126.599 12.2687 126.56 12.9198V17.8398C126.525 18.1845 126.591 18.5321 126.75 18.8398C126.88 19.0298 127.17 19.1298 127.62 19.1298H128.09C128.18 19.1298 128.22 19.1298 128.22 19.2498L128.29 19.1998ZM124.22 15.6998C124.22 15.6198 124.17 15.5798 124.08 15.5798H120.58C119.716 15.5331 118.857 15.7417 118.11 16.1798C117.908 16.3351 117.745 16.5352 117.634 16.7643C117.523 16.9934 117.467 17.2452 117.47 17.4998C117.468 17.7527 117.521 18.003 117.627 18.2329C117.732 18.4628 117.887 18.6666 118.08 18.8298C118.66 19.2451 119.369 19.4401 120.08 19.3798C121.201 19.4643 122.311 19.1052 123.17 18.3798C123.819 17.771 124.201 16.9294 124.23 16.0398L124.22 15.6998Z" fill="#1E2B3C"/>
<path d="M132.85 21.2001H130.94C130.924 21.2017 130.908 21.1996 130.892 21.1941C130.877 21.1887 130.863 21.1799 130.852 21.1684C130.84 21.1569 130.832 21.1431 130.826 21.1278C130.821 21.1125 130.819 21.0963 130.82 21.0801V3.72011C130.819 3.70397 130.821 3.68768 130.826 3.67242C130.832 3.65716 130.84 3.6433 130.852 3.63183C130.863 3.62036 130.877 3.61157 130.892 3.60609C130.908 3.6006 130.924 3.59856 130.94 3.60011H133.08C133.096 3.59856 133.113 3.6006 133.128 3.60609C133.143 3.61157 133.157 3.62036 133.168 3.63183C133.18 3.6433 133.189 3.65716 133.194 3.67242C133.2 3.68768 133.202 3.70397 133.2 3.72011V9.72011C133.201 9.74439 133.209 9.7679 133.223 9.78754C133.237 9.80718 133.257 9.82202 133.28 9.83011C133.28 9.83011 133.39 9.83011 133.46 9.77011C133.861 9.38489 134.328 9.07644 134.84 8.86011C135.517 8.52136 136.263 8.34665 137.02 8.35011C137.831 8.32051 138.638 8.468 139.386 8.78233C140.134 9.09665 140.804 9.57025 141.35 10.1701C142.461 11.5014 143.038 13.1976 142.97 14.9301C143.052 16.6629 142.477 18.3627 141.36 19.6901C140.815 20.2939 140.144 20.7693 139.393 21.0823C138.643 21.3953 137.832 21.538 137.02 21.5001C136.331 21.4869 135.651 21.3374 135.02 21.0601C134.424 20.8401 133.879 20.4997 133.42 20.0601C133.3 19.9501 133.22 19.9701 133.16 20.1101L132.91 21.1101C132.91 21.1901 132.82 21.2301 132.77 21.2301L132.85 21.2001ZM139.52 18.1201C140.229 17.2052 140.584 16.0656 140.52 14.9101C140.583 13.7516 140.229 12.6089 139.52 11.6901C139.19 11.2872 138.77 10.9664 138.295 10.753C137.819 10.5396 137.301 10.4393 136.78 10.4601C136.27 10.4348 135.761 10.5324 135.296 10.7447C134.832 10.957 134.425 11.2778 134.11 11.6801C133.439 12.6192 133.104 13.7572 133.16 14.9101C133.106 16.0597 133.441 17.1941 134.11 18.1301C134.425 18.5324 134.832 18.8532 135.296 19.0655C135.761 19.2778 136.27 19.3754 136.78 19.3501C137.301 19.3709 137.819 19.2707 138.295 19.0572C138.77 18.8438 139.19 18.523 139.52 18.1201Z" fill="#1E2B3C"/>
</svg>
