<svg width="143" height="26" viewBox="0 0 143 26" fill="none" xmlns="http://www.w3.org/2000/svg">
<path d="M12.67 0.480469H0.5C0.368193 0.483029 0.242499 0.536529 0.14928 0.629748C0.0560606 0.722967 0.00256007 0.848662 0 0.980469V24.7205C0.00256007 24.8523 0.0560606 24.978 0.14928 25.0712C0.242499 25.1644 0.368193 25.2179 0.5 25.2205H12.67C15.9507 25.2205 19.0971 23.9172 21.4169 21.5974C23.7367 19.2776 25.04 16.1312 25.04 12.8505C25.04 9.56974 23.7367 6.42338 21.4169 4.10356C19.0971 1.78373 15.9507 0.480469 12.67 0.480469ZM13.86 21.4805C12.0187 21.7974 10.1242 21.52 8.45107 20.6884C6.77789 19.8569 5.4128 18.5144 4.55347 16.8553C3.69414 15.1962 3.38516 13.3067 3.67129 11.4603C3.95741 9.61397 4.82378 7.90659 6.14495 6.58542C7.46612 5.26425 9.1735 4.39788 11.0199 4.11176C12.8663 3.82563 14.7558 4.13461 16.4148 4.99394C18.0739 5.85327 19.4164 7.21836 20.2479 8.89153C21.0795 10.5647 21.3569 12.4591 21.04 14.3005C20.7316 16.0924 19.8757 17.7448 18.59 19.0305C17.3043 20.3162 15.6519 21.1721 13.86 21.4805Z" fill="white"/>
<path d="M45.4 8.9004C45.4032 8.48986 45.3087 8.08444 45.1244 7.71758C44.9401 7.35071 44.6713 7.03292 44.34 6.7904C43.5798 6.22201 42.6487 5.92929 41.7 5.9604C40.754 5.92673 39.8253 6.21983 39.07 6.7904C38.7345 7.04432 38.4642 7.37448 38.2817 7.75356C38.0991 8.13265 38.0094 8.54977 38.02 8.9704C38.0055 9.39296 38.1324 9.80827 38.3805 10.1506C38.6287 10.4929 38.9839 10.7427 39.39 10.8604C40.2094 11.166 41.0679 11.3546 41.94 11.4204L44.46 11.9004C45.1652 12.0377 45.8416 12.2947 46.46 12.6604C47.7933 13.4137 48.46 14.7671 48.46 16.7204C48.4697 17.4142 48.3331 18.1023 48.0591 18.7398C47.7852 19.3773 47.38 19.9499 46.87 20.4204C45.526 21.5504 43.7901 22.1039 42.04 21.9604C40.2509 22.0865 38.4761 21.5648 37.04 20.4904C36.4986 20.0604 36.0624 19.5128 35.7644 18.889C35.4663 18.2652 35.3144 17.5817 35.32 16.8904C35.3186 16.8738 35.3207 16.8571 35.3261 16.8414C35.3315 16.8257 35.3401 16.8112 35.3514 16.799C35.3627 16.7868 35.3764 16.777 35.3916 16.7704C35.4069 16.7637 35.4234 16.7603 35.44 16.7604H37.56C37.66 16.7604 37.7 16.8104 37.7 16.9204C37.7251 17.3163 37.8387 17.7016 38.0326 18.0478C38.2264 18.3939 38.4955 18.6921 38.82 18.9204C39.6991 19.5708 40.7782 19.8927 41.87 19.8304C42.9654 19.8839 44.0469 19.5668 44.94 18.9304C45.2997 18.6579 45.5891 18.3034 45.7839 17.8963C45.9788 17.4892 46.0734 17.0415 46.06 16.5904C46.0875 16.1591 45.9825 15.7297 45.7591 15.3597C45.5357 14.9897 45.2045 14.6969 44.81 14.5204C44.0538 14.166 43.2417 13.946 42.41 13.8704L40.26 13.5304C39.6793 13.4342 39.1121 13.2697 38.57 13.0404C38.0239 12.8341 37.5117 12.5476 37.05 12.1904C36.6221 11.8149 36.2809 11.3508 36.05 10.8304C35.7557 10.2057 35.6118 9.52073 35.63 8.8304C35.6117 8.12377 35.7639 7.42312 36.0737 6.78777C36.3836 6.15242 36.8419 5.60108 37.41 5.1804C38.6314 4.24974 40.1351 3.76617 41.67 3.8104C43.2036 3.77467 44.7056 4.24955 45.94 5.1604C46.5155 5.59927 46.9819 6.16513 47.3028 6.81385C47.6237 7.46258 47.7904 8.17665 47.79 8.9004C47.7929 8.91775 47.792 8.93553 47.7873 8.95248C47.7826 8.96944 47.7742 8.98515 47.7628 8.99851C47.7513 9.01187 47.7371 9.02254 47.7211 9.02978C47.705 9.03702 47.6876 9.04065 47.67 9.0404H45.52C45.5024 9.04065 45.485 9.03702 45.4689 9.02978C45.4529 9.02254 45.4387 9.01187 45.4272 8.99851C45.4158 8.98515 45.4074 8.96944 45.4027 8.95248C45.398 8.93553 45.3971 8.91775 45.4 8.9004Z" fill="white"/>
<path d="M57.9401 19.6806V21.5606C57.9401 21.6406 57.9401 21.6806 57.8001 21.6806H55.8401C53.6601 21.7273 52.5634 20.7273 52.5501 18.6806V11.0406C52.5501 10.9606 52.5501 10.9106 52.4301 10.9106H50.2101C50.1301 10.9106 50.0901 10.9106 50.0901 10.7806V9.16064C50.0886 9.1445 50.0906 9.12821 50.0961 9.11295C50.1016 9.09769 50.1104 9.08383 50.1218 9.07236C50.1333 9.06089 50.1471 9.0521 50.1624 9.04662C50.1777 9.04114 50.194 9.0391 50.2101 9.04064H52.4301C52.5101 9.04064 52.5501 9.04064 52.5501 8.90064V5.54064C52.5501 5.45064 52.5501 5.41064 52.6901 5.41064H54.8101C54.8901 5.41064 54.9301 5.41064 54.9301 5.54064V8.90064C54.9301 8.99064 54.9301 9.03064 55.0601 9.04064H57.7501C57.7674 9.03771 57.7852 9.03863 57.8022 9.04333C57.8191 9.04803 57.8348 9.0564 57.8482 9.06785C57.8616 9.0793 57.8722 9.09355 57.8795 9.10959C57.8867 9.12562 57.8903 9.14305 57.8901 9.16064V10.7806C57.8901 10.8706 57.8901 10.9106 57.7501 10.9106H55.0601C54.9701 10.9106 54.9301 10.9106 54.9301 11.0406V18.3206C54.9301 19.1506 55.3901 19.5606 56.2901 19.5606H57.7501C57.8401 19.5606 57.8901 19.5606 57.8901 19.6806" fill="white"/>
<path d="M63.0599 4.20057V6.83057C63.0615 6.84802 63.0591 6.8656 63.0532 6.88207C63.0472 6.89853 63.0376 6.91349 63.0252 6.92588C63.0129 6.93827 62.9979 6.94779 62.9814 6.95379C62.965 6.95978 62.9474 6.96209 62.9299 6.96057H60.3099C60.2199 6.96057 60.1799 6.96057 60.1799 6.83057V4.20057C60.1799 4.12057 60.1799 4.08057 60.3099 4.08057H62.9399C63.0299 4.08057 63.0699 4.08057 63.0699 4.20057H63.0599ZM62.8199 9.20057V21.6006C62.8199 21.6806 62.8199 21.7206 62.6899 21.7206H60.5499C60.5338 21.7221 60.5175 21.7201 60.5022 21.7146C60.487 21.7091 60.4731 21.7003 60.4616 21.6889C60.4502 21.6774 60.4414 21.6635 60.4359 21.6483C60.4304 21.633 60.4284 21.6167 60.4299 21.6006V9.16057C60.4284 9.14442 60.4304 9.12814 60.4359 9.11287C60.4414 9.09761 60.4502 9.08375 60.4616 9.07228C60.4731 9.06081 60.487 9.05202 60.5022 9.04654C60.5175 9.04106 60.5338 9.03902 60.5499 9.04057H62.6799C62.7699 9.04057 62.8099 9.04057 62.8099 9.16057" fill="white"/>
<path d="M76.6501 21.5603C76.6516 21.5764 76.6496 21.5927 76.6441 21.6079C76.6386 21.6232 76.6298 21.6371 76.6184 21.6485C76.6069 21.66 76.593 21.6688 76.5778 21.6743C76.5625 21.6798 76.5462 21.6818 76.5301 21.6803H74.3701C74.3001 21.6803 74.2701 21.6803 74.2701 21.5603V14.6903C74.3123 13.7382 74.1092 12.7912 73.6801 11.9403C73.4519 11.5932 73.1322 11.3161 72.7562 11.1396C72.3803 10.9631 71.9628 10.8941 71.5501 10.9403C71.1216 10.8995 70.6901 10.9767 70.3023 11.1636C69.9145 11.3504 69.5852 11.6397 69.3501 12.0003C68.8876 12.83 68.6627 13.7711 68.7001 14.7203V21.5903C68.7001 21.6703 68.7001 21.7103 68.5701 21.7103H66.4501C66.3601 21.7103 66.3201 21.7103 66.3201 21.5903V9.16025C66.3201 9.08025 66.3201 9.04025 66.4501 9.04025H68.3301C68.3301 9.04025 68.4101 9.04025 68.4501 9.16025L68.7001 10.2803C68.7001 10.3503 68.7801 10.3803 68.8501 10.3703C68.8801 10.3669 68.909 10.3571 68.9349 10.3416C68.9608 10.3261 68.983 10.3052 69.0001 10.2803C69.2589 9.80232 69.671 9.42542 70.1701 9.21025C70.7918 8.90622 71.4783 8.75861 72.1701 8.78025C72.7923 8.75986 73.4121 8.86883 73.9901 9.10025C74.596 9.40887 75.1522 9.80663 75.6401 10.2803C75.7501 10.3703 75.8501 10.3703 75.9301 10.2803C76.403 9.76551 76.9855 9.3635 77.6345 9.10389C78.2836 8.84427 78.9826 8.73368 79.6801 8.78025C80.376 8.73234 81.0736 8.84545 81.7188 9.11079C82.3639 9.37613 82.9392 9.78657 83.4001 10.3103C84.3094 11.5824 84.751 13.1298 84.6501 14.6903V21.5603C84.6516 21.5764 84.6496 21.5927 84.6441 21.6079C84.6386 21.6232 84.6298 21.6371 84.6184 21.6485C84.6069 21.66 84.593 21.6688 84.5778 21.6743C84.5625 21.6798 84.5462 21.6818 84.5301 21.6803H82.3501C82.3339 21.6818 82.3176 21.6798 82.3024 21.6743C82.2871 21.6688 82.2733 21.66 82.2618 21.6485C82.2503 21.6371 82.2415 21.6232 82.236 21.6079C82.2306 21.5927 82.2285 21.5764 82.2301 21.5603V14.6903C82.2301 12.8303 81.7801 11.6903 80.8901 11.2103C80.4306 10.9955 79.9269 10.8927 79.4201 10.9103C78.9999 10.8603 78.574 10.9272 78.1894 11.1036C77.8048 11.28 77.4763 11.5592 77.2401 11.9103C76.811 12.7648 76.6079 13.715 76.6501 14.6703V21.5603Z" fill="white"/>
<path d="M99 21.6805H97.12C97.0666 21.6805 97.0266 21.6405 97 21.5605L96.74 20.4205C96.7297 20.3915 96.7108 20.3664 96.6857 20.3485C96.6607 20.3306 96.6308 20.3208 96.6 20.3205C96.5726 20.3192 96.5453 20.325 96.5208 20.3373C96.4963 20.3495 96.4754 20.3679 96.46 20.3905C96.1219 20.8314 95.6829 21.1846 95.18 21.4205C94.5656 21.7487 93.8762 21.9107 93.18 21.8905C92.4076 21.9641 91.6288 21.8569 90.905 21.5775C90.1813 21.298 89.5325 20.854 89.01 20.2805C88.107 19.0377 87.6523 17.5253 87.72 15.9905V9.16054C87.72 9.08054 87.72 9.04054 87.86 9.04054H89.98C89.9961 9.03899 90.0124 9.04103 90.0277 9.04652C90.0429 9.052 90.0568 9.06079 90.0683 9.07226C90.0797 9.08372 90.0885 9.09759 90.094 9.11285C90.0995 9.12811 90.1015 9.1444 90.1 9.16054V16.0305C90.076 16.9953 90.3713 17.9409 90.94 18.7205C91.224 19.0851 91.5932 19.3742 92.0152 19.5625C92.4372 19.7508 92.899 19.8326 93.36 19.8005C93.8359 19.8237 94.3106 19.7354 94.7464 19.5427C95.1822 19.35 95.5669 19.0582 95.87 18.6905C96.4753 17.9383 96.7942 16.9958 96.77 16.0305V9.16054C96.77 9.08054 96.77 9.04054 96.9 9.04054H99.03C99.0461 9.03899 99.0624 9.04103 99.0777 9.04652C99.0929 9.052 99.1068 9.06079 99.1183 9.07226C99.1297 9.08372 99.1385 9.09759 99.144 9.11285C99.1495 9.12811 99.1515 9.1444 99.15 9.16054V21.5605C99.1515 21.5767 99.1495 21.593 99.144 21.6082C99.1385 21.6235 99.1297 21.6374 99.1183 21.6488C99.1068 21.6603 99.0929 21.6691 99.0777 21.6746C99.0624 21.68 99.0461 21.6821 99.03 21.6805" fill="white"/>
<path d="M102.22 21.5606V4.20058C102.22 4.12058 102.22 4.08058 102.36 4.08058H104.48C104.496 4.07903 104.512 4.08107 104.528 4.08656C104.543 4.09204 104.557 4.10083 104.568 4.1123C104.58 4.12376 104.589 4.13763 104.594 4.15289C104.599 4.16815 104.602 4.18444 104.6 4.20058V19.4206C104.6 19.5006 104.6 19.5406 104.73 19.5406H113.48C113.496 19.539 113.512 19.5411 113.528 19.5466C113.543 19.552 113.557 19.5608 113.568 19.5723C113.58 19.5838 113.589 19.5976 113.594 19.6129C113.599 19.6282 113.602 19.6444 113.6 19.6606V21.5406C113.602 21.5567 113.599 21.573 113.594 21.5883C113.589 21.6035 113.58 21.6174 113.568 21.6289C113.557 21.6403 113.543 21.6491 113.528 21.6546C113.512 21.6601 113.496 21.6621 113.48 21.6606H102.36C102.27 21.6606 102.22 21.6606 102.22 21.5406" fill="white"/>
<path d="M128.29 19.6803V21.5603C128.29 21.6503 128.29 21.6903 128.16 21.6903H127.26C125.98 21.6903 125.16 21.3203 124.8 20.5403C124.75 20.4103 124.67 20.3903 124.56 20.4903C124.076 20.9421 123.499 21.2833 122.87 21.4903C121.996 21.8057 121.069 21.9516 120.14 21.9203C118.806 22.0147 117.483 21.628 116.41 20.8303C115.991 20.4879 115.655 20.0538 115.43 19.5614C115.204 19.0691 115.095 18.5316 115.11 17.9903C115.097 17.4413 115.22 16.8976 115.468 16.4075C115.716 15.9173 116.081 15.4958 116.53 15.1803C117.743 14.404 119.173 14.036 120.61 14.1303H123.41C123.88 14.1303 124.15 14.0103 124.22 13.7803C124.238 13.5373 124.238 13.2933 124.22 13.0503C124.182 12.5498 123.993 12.0724 123.68 11.6803C123.32 11.1703 122.41 10.9003 120.97 10.8803C120.156 10.8135 119.345 11.0367 118.68 11.5103C118.433 11.711 118.236 11.9662 118.104 12.256C117.972 12.5457 117.909 12.8621 117.92 13.1803C117.92 13.2603 117.87 13.3003 117.78 13.3003H115.66C115.644 13.3018 115.628 13.2998 115.612 13.2943C115.597 13.2888 115.583 13.28 115.572 13.2686C115.56 13.2571 115.551 13.2432 115.546 13.228C115.54 13.2127 115.538 13.1964 115.54 13.1803C115.512 12.5488 115.643 11.9205 115.921 11.3527C116.199 10.7849 116.614 10.2959 117.13 9.93028C118.311 9.13783 119.709 8.73242 121.13 8.77028C122.539 8.69751 123.928 9.11836 125.06 9.96028C125.564 10.3745 125.963 10.9021 126.223 11.5001C126.484 12.098 126.599 12.7492 126.56 13.4003V18.3203C126.525 18.665 126.591 19.0125 126.75 19.3203C126.88 19.5103 127.17 19.6103 127.62 19.6103H128.09C128.18 19.6103 128.22 19.6103 128.22 19.7303L128.29 19.6803ZM124.22 16.1803C124.22 16.1003 124.17 16.0603 124.08 16.0603H120.58C119.716 16.0135 118.857 16.2222 118.11 16.6603C117.908 16.8155 117.745 17.0156 117.634 17.2447C117.523 17.4738 117.467 17.7257 117.47 17.9803C117.468 18.2332 117.521 18.4835 117.627 18.7134C117.732 18.9433 117.887 19.1471 118.08 19.3103C118.66 19.7256 119.369 19.9206 120.08 19.8603C121.201 19.9448 122.311 19.5857 123.17 18.8603C123.819 18.2515 124.201 17.4099 124.23 16.5203L124.22 16.1803Z" fill="white"/>
<path d="M132.85 21.6806H130.94C130.924 21.6821 130.908 21.6801 130.892 21.6746C130.877 21.6691 130.863 21.6603 130.852 21.6489C130.84 21.6374 130.832 21.6235 130.826 21.6083C130.821 21.593 130.819 21.5767 130.82 21.5606V4.20058C130.819 4.18444 130.821 4.16815 130.826 4.15289C130.832 4.13763 130.84 4.12376 130.852 4.1123C130.863 4.10083 130.877 4.09204 130.892 4.08656C130.908 4.08107 130.924 4.07903 130.94 4.08058H133.08C133.096 4.07903 133.113 4.08107 133.128 4.08656C133.143 4.09204 133.157 4.10083 133.168 4.1123C133.18 4.12376 133.189 4.13763 133.194 4.15289C133.2 4.16815 133.202 4.18444 133.2 4.20058V10.2006C133.201 10.2249 133.209 10.2484 133.223 10.268C133.237 10.2877 133.257 10.3025 133.28 10.3106C133.28 10.3106 133.39 10.3106 133.46 10.2506C133.861 9.86535 134.328 9.55691 134.84 9.34058C135.517 9.00183 136.263 8.82712 137.02 8.83058C137.831 8.80097 138.638 8.94847 139.386 9.2628C140.134 9.57712 140.804 10.0507 141.35 10.6506C142.461 11.9819 143.038 13.678 142.97 15.4106C143.052 17.1433 142.477 18.8432 141.36 20.1706C140.815 20.7743 140.144 21.2498 139.393 21.5628C138.643 21.8758 137.832 22.0184 137.02 21.9806C136.331 21.9674 135.651 21.8179 135.02 21.5406C134.424 21.3206 133.879 20.9802 133.42 20.5406C133.3 20.4306 133.22 20.4506 133.16 20.5906L132.91 21.5906C132.91 21.6706 132.82 21.7106 132.77 21.7106L132.85 21.6806ZM139.52 18.6006C140.229 17.6857 140.584 16.546 140.52 15.3906C140.583 14.2321 140.229 13.0894 139.52 12.1706C139.19 11.7677 138.77 11.4469 138.295 11.2335C137.819 11.02 137.301 10.9198 136.78 10.9406C136.27 10.9153 135.761 11.0129 135.296 11.2252C134.832 11.4375 134.425 11.7583 134.11 12.1606C133.439 13.0997 133.104 14.2377 133.16 15.3906C133.106 16.5402 133.441 17.6745 134.11 18.6106C134.425 19.0129 134.832 19.3336 135.296 19.546C135.761 19.7583 136.27 19.8559 136.78 19.8306C137.301 19.8514 137.819 19.7511 138.295 19.5377C138.77 19.3243 139.19 19.0035 139.52 18.6006Z" fill="white"/>
</svg>
