<svg width="145" height="27" viewBox="0 0 145 27" fill="none" xmlns="http://www.w3.org/2000/svg">
<path d="M12.67 0H0.5C0.367392 0 0.240215 0.052678 0.146447 0.146446C0.0526785 0.240214 0 0.367392 0 0.5V24.23C0.00256007 24.3618 0.0560606 24.4875 0.14928 24.5807C0.242499 24.6739 0.368193 24.7274 0.5 24.73H12.67C15.8885 24.6385 18.9445 23.2956 21.1887 20.9867C23.4329 18.6778 24.6883 15.5848 24.6883 12.365C24.6883 9.14517 23.4329 6.05222 21.1887 3.74332C18.9445 1.43442 15.8885 0.0915386 12.67 0ZM13.86 21C12.0187 21.3169 10.1242 21.0395 8.45107 20.2079C6.77789 19.3764 5.4128 18.0339 4.55347 16.3748C3.69414 14.7158 3.38516 12.8263 3.67129 10.9799C3.95741 9.1335 4.82378 7.42612 6.14495 6.10495C7.46612 4.78378 9.1735 3.91741 11.0199 3.63129C12.8663 3.34516 14.7558 3.65414 16.4148 4.51347C18.0739 5.3728 19.4164 6.73789 20.2479 8.41106C21.0795 10.0842 21.3569 11.9787 21.04 13.82C20.7316 15.6119 19.8757 17.2643 18.59 18.55C17.3043 19.8357 15.6519 20.6916 13.86 21Z" fill="#95227D"/>
<path d="M46.39 21.2601C46.32 21.2601 46.29 21.2601 46.27 21.1401L46.02 20.0101C46.02 19.8701 45.79 19.9101 45.74 20.0101C45.3449 20.4937 44.8455 20.8816 44.2792 21.1448C43.7129 21.4081 43.0944 21.5398 42.47 21.5301C38.34 21.5301 37.02 18.8901 37.02 15.6401V8.74012C37.02 8.70829 37.0327 8.67777 37.0552 8.65526C37.0777 8.63276 37.1082 8.62012 37.14 8.62012H39.27C39.3018 8.62012 39.3324 8.63276 39.3549 8.65526C39.3774 8.67777 39.39 8.70829 39.39 8.74012V15.6201C39.39 17.5201 40.24 19.3901 42.72 19.3901C44.82 19.3901 46.02 17.5701 46.02 15.6201V8.74012C46.02 8.70829 46.0327 8.67777 46.0552 8.65526C46.0777 8.63276 46.1082 8.62012 46.14 8.62012H48.27C48.3018 8.62012 48.3324 8.63276 48.3549 8.65526C48.3774 8.67777 48.39 8.70829 48.39 8.74012V21.1401C48.39 21.1719 48.3774 21.2025 48.3549 21.225C48.3324 21.2475 48.3018 21.2601 48.27 21.2601H46.39Z" fill="#1E2B3C"/>
<path d="M60.88 21.26C60.8 21.26 60.78 21.26 60.75 21.14L60.5 20.01C60.4877 19.9847 60.4685 19.9633 60.4447 19.9483C60.4208 19.9334 60.3932 19.9254 60.365 19.9254C60.3368 19.9254 60.3092 19.9334 60.2853 19.9483C60.2615 19.9633 60.2423 19.9847 60.23 20.01C59.8293 20.491 59.3256 20.8755 58.756 21.1352C58.1865 21.3949 57.5658 21.523 56.94 21.51C52.82 21.51 51.49 18.87 51.49 15.62V8.74005C51.4899 8.72341 51.4933 8.70694 51.5 8.69169C51.5066 8.67644 51.5164 8.66274 51.5286 8.65145C51.5408 8.64017 51.5553 8.63155 51.571 8.62614C51.5867 8.62074 51.6034 8.61866 51.62 8.62005H53.74C53.7566 8.61866 53.7733 8.62074 53.789 8.62614C53.8047 8.63155 53.8192 8.64017 53.8314 8.65145C53.8436 8.66274 53.8534 8.67644 53.86 8.69169C53.8666 8.70694 53.87 8.72341 53.87 8.74005V15.62C53.87 17.52 54.72 19.39 57.19 19.39C59.29 19.39 60.49 17.57 60.49 15.62V8.74005C60.4899 8.72341 60.4933 8.70694 60.5 8.69169C60.5066 8.67644 60.5164 8.66274 60.5286 8.65145C60.5408 8.64017 60.5553 8.63155 60.571 8.62614C60.5867 8.62074 60.6034 8.61866 60.62 8.62005H62.74C62.7566 8.61866 62.7733 8.62074 62.789 8.62614C62.8047 8.63155 62.8192 8.64017 62.8314 8.65145C62.8436 8.66274 62.8534 8.67644 62.86 8.69169C62.8667 8.70694 62.8701 8.72341 62.87 8.74005V21.14C62.8701 21.1567 62.8667 21.1732 62.86 21.1884C62.8534 21.2037 62.8436 21.2174 62.8314 21.2286C62.8192 21.2399 62.8047 21.2485 62.789 21.254C62.7733 21.2594 62.7566 21.2614 62.74 21.26H60.88Z" fill="#1E2B3C"/>
<path d="M72.31 21.1402C72.3101 21.1568 72.3067 21.1733 72.3 21.1886C72.2934 21.2038 72.2836 21.2175 72.2714 21.2288C72.2592 21.2401 72.2447 21.2487 72.229 21.2541C72.2133 21.2595 72.1966 21.2616 72.18 21.2602H70.26C68.18 21.2602 66.98 20.3602 66.98 18.3202V10.6202C66.9814 10.6036 66.9793 10.5869 66.9739 10.5712C66.9685 10.5555 66.9599 10.541 66.9486 10.5288C66.9373 10.5166 66.9236 10.5068 66.9084 10.5002C66.8931 10.4935 66.8766 10.4901 66.86 10.4902H64.64C64.6234 10.4916 64.6067 10.4895 64.591 10.4841C64.5753 10.4787 64.5608 10.4701 64.5486 10.4588C64.5364 10.4475 64.5266 10.4338 64.52 10.4186C64.5134 10.4033 64.51 10.3868 64.51 10.3702V8.7402C64.51 8.72357 64.5134 8.7071 64.52 8.69185C64.5266 8.6766 64.5364 8.66289 64.5486 8.65161C64.5608 8.64032 64.5753 8.63171 64.591 8.6263C64.6067 8.62089 64.6234 8.61882 64.64 8.6202H66.86C66.8766 8.62026 66.8931 8.61686 66.9084 8.61021C66.9236 8.60357 66.9373 8.59382 66.9486 8.5816C66.9599 8.56937 66.9685 8.55493 66.9739 8.5392C66.9793 8.52347 66.9814 8.50678 66.98 8.4902V5.1202C66.9785 5.10275 66.9808 5.08517 66.9868 5.0687C66.9928 5.05224 67.0023 5.03728 67.0147 5.02489C67.0271 5.0125 67.042 5.00298 67.0585 4.99698C67.075 4.99099 67.0926 4.98868 67.11 4.9902H69.23C69.2475 4.98868 69.265 4.99099 69.2815 4.99698C69.298 5.00298 69.3129 5.0125 69.3253 5.02489C69.3377 5.03728 69.3472 5.05224 69.3532 5.0687C69.3592 5.08517 69.3615 5.10275 69.36 5.1202V8.4902C69.3586 8.50678 69.3607 8.52347 69.3661 8.5392C69.3715 8.55493 69.3801 8.56937 69.3914 8.5816C69.4027 8.59382 69.4164 8.60357 69.4317 8.61021C69.4469 8.61686 69.4634 8.62026 69.48 8.6202H72.18C72.1966 8.61882 72.2133 8.62089 72.229 8.6263C72.2447 8.63171 72.2592 8.64032 72.2714 8.65161C72.2836 8.66289 72.2934 8.6766 72.3 8.69185C72.3067 8.7071 72.3101 8.72357 72.31 8.7402V10.3702C72.3101 10.3868 72.3067 10.4033 72.3 10.4186C72.2934 10.4338 72.2836 10.4475 72.2714 10.4588C72.2592 10.4701 72.2447 10.4787 72.229 10.4841C72.2133 10.4895 72.1966 10.4916 72.18 10.4902H69.48C69.4634 10.4901 69.4469 10.4935 69.4317 10.5002C69.4164 10.5068 69.4027 10.5166 69.3914 10.5288C69.3801 10.541 69.3715 10.5555 69.3661 10.5712C69.3607 10.5869 69.3586 10.6036 69.36 10.6202V17.9302C69.36 18.7002 69.71 19.1802 70.71 19.1802H72.18C72.1966 19.1788 72.2133 19.1809 72.229 19.1863C72.2447 19.1917 72.2592 19.2003 72.2714 19.2116C72.2836 19.2229 72.2934 19.2366 72.3 19.2518C72.3067 19.2671 72.3101 19.2836 72.31 19.3002V21.1402Z" fill="#1E2B3C"/>
<path d="M74.3199 7.03995C74.3034 7.04133 74.2867 7.03926 74.2709 7.03385C74.2552 7.02845 74.2408 7.01983 74.2285 7.00854C74.2163 6.99726 74.2066 6.98356 74.1999 6.9683C74.1933 6.95305 74.1899 6.93658 74.1899 6.91995V4.38995C74.1899 4.37331 74.1933 4.35685 74.1999 4.34159C74.2066 4.32634 74.2163 4.31264 74.2285 4.30136C74.2408 4.29007 74.2552 4.28145 74.2709 4.27604C74.2867 4.27064 74.3034 4.26856 74.3199 4.26995H76.8199C76.8518 4.26995 76.8823 4.28259 76.9048 4.3051C76.9273 4.3276 76.9399 4.35812 76.9399 4.38995V6.92995C76.9399 6.96177 76.9273 6.9923 76.9048 7.0148C76.8823 7.03731 76.8518 7.04995 76.8199 7.04995L74.3199 7.03995ZM76.7699 21.1399C76.77 21.1566 76.7666 21.1731 76.7599 21.1883C76.7533 21.2036 76.7436 21.2173 76.7313 21.2285C76.7191 21.2398 76.7047 21.2484 76.6889 21.2539C76.6732 21.2593 76.6565 21.2613 76.6399 21.2599H74.5199C74.5034 21.2613 74.4867 21.2593 74.4709 21.2539C74.4552 21.2484 74.4408 21.2398 74.4286 21.2285C74.4163 21.2173 74.4066 21.2036 74.3999 21.1883C74.3933 21.1731 74.3899 21.1566 74.3899 21.1399V8.73995C74.3899 8.72331 74.3933 8.70685 74.3999 8.69159C74.4066 8.67634 74.4163 8.66264 74.4286 8.65135C74.4408 8.64007 74.4552 8.63145 74.4709 8.62605C74.4867 8.62064 74.5034 8.61856 74.5199 8.61995H76.6399C76.6565 8.61856 76.6732 8.62064 76.6889 8.62605C76.7047 8.63145 76.7191 8.64007 76.7313 8.65135C76.7436 8.66264 76.7533 8.67634 76.7599 8.69159C76.7666 8.70685 76.77 8.72331 76.7699 8.73995V21.1399Z" fill="#1E2B3C"/>
<path d="M80.13 3.66992H82.25C82.2818 3.66992 82.3124 3.68256 82.3349 3.70507C82.3574 3.72757 82.37 3.7581 82.37 3.78992V21.1399C82.3701 21.1727 82.3578 21.2044 82.3355 21.2285C82.3133 21.2526 82.2827 21.2674 82.25 21.2699H80.13C80.0989 21.2676 80.0698 21.2542 80.0477 21.2322C80.0257 21.2102 80.0123 21.181 80.01 21.1499V3.79992C80.01 3.7681 80.0227 3.73757 80.0452 3.71507C80.0677 3.69256 80.0982 3.67992 80.13 3.67992V3.66992Z" fill="#1E2B3C"/>
<path d="M93.3299 12.9301C93.3142 12.9301 93.2986 12.927 93.284 12.921C93.2695 12.915 93.2562 12.9061 93.2451 12.895C93.2339 12.8838 93.2251 12.8706 93.2191 12.8561C93.2131 12.8415 93.2099 12.8259 93.2099 12.8101C93.2099 11.4301 92.1099 10.5301 90.0799 10.5301C88.2099 10.5301 87.38 11.3601 87.38 12.1301C87.38 13.5601 89.1799 13.5801 90.38 13.7601C92.8799 14.1101 95.8799 14.3301 95.8799 17.5301C95.8799 20.3801 93.51 21.5301 90.38 21.5301C86.58 21.5301 84.7299 19.5301 84.7299 17.1401C84.7284 17.1227 84.7307 17.1051 84.7367 17.0886C84.7427 17.0722 84.7522 17.0572 84.7646 17.0448C84.777 17.0324 84.792 17.0229 84.8084 17.0169C84.8249 17.0109 84.8425 17.0086 84.8599 17.0101H86.9599C86.9783 17.0088 86.9968 17.0111 87.0143 17.0169C87.0318 17.0227 87.048 17.0319 87.062 17.044C87.0759 17.056 87.0873 17.0708 87.0956 17.0873C87.1038 17.1038 87.1087 17.1217 87.1099 17.1401C87.1099 18.3901 88.38 19.4101 90.38 19.4101C91.66 19.4101 93.5099 19.1401 93.5099 17.5101C93.5099 16.0901 91.4299 15.9901 90.38 15.8601C87.9799 15.5901 84.9599 15.2101 84.9599 12.1101C84.9599 10.0601 86.9599 8.39014 90.0299 8.39014C93.0999 8.39014 95.5299 9.84014 95.5299 12.7901C95.5299 12.8601 95.5299 12.9101 95.4299 12.9101L93.3299 12.9301Z" fill="#1E2B3C"/>
<path d="M96.52 24.2101C96.5199 24.1935 96.5233 24.177 96.53 24.1618C96.5366 24.1465 96.5464 24.1328 96.5586 24.1215C96.5708 24.1102 96.5853 24.1016 96.601 24.0962C96.6167 24.0908 96.6334 24.0887 96.65 24.0901H99.47C100.95 24.0901 101.4 23.1401 100.95 21.8101L96.5 8.74012C96.5 8.64012 96.57 8.62012 96.65 8.62012H98.94C99.02 8.62012 99.04 8.67012 99.07 8.74012L102.34 18.7401C102.348 18.7673 102.364 18.7912 102.387 18.8082C102.409 18.8252 102.437 18.8344 102.465 18.8344C102.493 18.8344 102.521 18.8252 102.543 18.8082C102.566 18.7912 102.582 18.7673 102.59 18.7401L105.89 8.74012C105.89 8.67012 105.89 8.62012 106.02 8.62012H108.29C108.37 8.62012 108.44 8.67012 108.42 8.74012L103.42 23.4401C102.72 25.4401 101.94 26.2101 99.92 26.2101H96.67C96.6534 26.2115 96.6367 26.2094 96.621 26.204C96.6053 26.1986 96.5908 26.19 96.5786 26.1787C96.5664 26.1674 96.5566 26.1537 96.55 26.1385C96.5433 26.1232 96.5399 26.1068 96.54 26.0901L96.52 24.2101Z" fill="#1E2B3C"/>
<path d="M112.17 8.61976C112.24 8.61976 112.27 8.66976 112.29 8.73976L112.54 9.86976C112.54 10.0198 112.77 9.96976 112.82 9.86976C113.199 9.36806 113.695 8.96708 114.265 8.70205C114.836 8.43702 115.462 8.31605 116.09 8.34976C119.71 8.34976 121.54 10.9998 121.54 14.2498V21.1198C121.54 21.1364 121.537 21.1529 121.53 21.1681C121.523 21.1834 121.514 21.1971 121.501 21.2084C121.489 21.2196 121.475 21.2283 121.459 21.2337C121.443 21.2391 121.426 21.2411 121.41 21.2398H119.29C119.273 21.2411 119.257 21.2391 119.241 21.2337C119.225 21.2283 119.211 21.2196 119.199 21.2084C119.186 21.1971 119.177 21.1834 119.17 21.1681C119.163 21.1529 119.16 21.1364 119.16 21.1198V14.2698C119.16 12.3698 118.31 10.4898 115.84 10.4898C113.74 10.4898 112.54 12.3198 112.54 14.2698V21.1398C112.54 21.1716 112.527 21.2021 112.505 21.2246C112.482 21.2471 112.452 21.2598 112.42 21.2598H110.29C110.274 21.2598 110.259 21.2567 110.244 21.2506C110.229 21.2446 110.216 21.2358 110.205 21.2246C110.194 21.2135 110.185 21.2002 110.179 21.1857C110.173 21.1711 110.17 21.1555 110.17 21.1398V8.73976C110.17 8.724 110.173 8.7084 110.179 8.69384C110.185 8.67928 110.194 8.66605 110.205 8.65491C110.216 8.64377 110.229 8.63493 110.244 8.6289C110.259 8.62287 110.274 8.61976 110.29 8.61976H112.17Z" fill="#1E2B3C"/>
<path d="M126.47 15.7901C126.453 15.7886 126.435 15.7909 126.419 15.7969C126.402 15.8029 126.387 15.8124 126.375 15.8248C126.362 15.8372 126.353 15.8522 126.347 15.8686C126.341 15.8851 126.339 15.9027 126.34 15.9201C126.331 16.3894 126.419 16.8555 126.599 17.2892C126.778 17.7229 127.045 18.1149 127.383 18.4406C127.721 18.7663 128.122 19.0188 128.562 19.1822C129.002 19.3456 129.471 19.4164 129.94 19.3901C130.585 19.4534 131.234 19.3201 131.801 19.0077C132.369 18.6954 132.829 18.2186 133.12 17.6401C133.17 17.5401 133.22 17.5101 133.29 17.5101H135.52C135.59 17.5101 135.67 17.5101 135.64 17.6401C134.99 20.0901 132.77 21.5101 129.94 21.5101C126.19 21.5101 123.87 18.8401 123.87 14.9401C123.87 11.0401 126.07 8.37012 129.94 8.37012C133.81 8.37012 136.04 11.0401 136.04 14.9401C136.029 15.1873 135.988 15.4323 135.92 15.6701C135.92 15.7401 135.87 15.7901 135.79 15.7901H126.47ZM129.89 10.4901C128.99 10.4855 128.121 10.8242 127.462 11.4373C126.802 12.0504 126.401 12.8917 126.34 13.7901C126.342 13.8238 126.357 13.8556 126.381 13.8794C126.405 13.9033 126.436 13.9178 126.47 13.9201H133.27C133.287 13.9202 133.303 13.9168 133.318 13.9101C133.334 13.9035 133.347 13.8937 133.359 13.8815C133.37 13.8693 133.379 13.8548 133.384 13.8391C133.389 13.8234 133.392 13.8067 133.39 13.7901C133.391 13.3394 133.299 12.8933 133.121 12.4793C132.943 12.0653 132.682 11.6922 132.354 11.383C132.026 11.0738 131.638 10.8351 131.214 10.6815C130.791 10.5279 130.34 10.4628 129.89 10.4901Z" fill="#1E2B3C"/>
<path d="M144.39 21.1402C144.39 21.1568 144.387 21.1733 144.38 21.1886C144.373 21.2038 144.364 21.2175 144.351 21.2288C144.339 21.2401 144.325 21.2487 144.309 21.2541C144.293 21.2595 144.277 21.2616 144.26 21.2602H142.34C140.26 21.2602 139.06 20.3602 139.06 18.3202V10.6202C139.061 10.6036 139.059 10.5869 139.054 10.5712C139.049 10.5555 139.04 10.541 139.029 10.5288C139.017 10.5166 139.004 10.5068 138.988 10.5002C138.973 10.4935 138.957 10.4901 138.94 10.4902H136.71C136.694 10.4902 136.679 10.4871 136.664 10.4811C136.65 10.475 136.636 10.4662 136.625 10.4551C136.614 10.4439 136.605 10.4307 136.599 10.4161C136.593 10.4016 136.59 10.386 136.59 10.3702V8.7402C136.59 8.70838 136.603 8.67785 136.625 8.65535C136.648 8.63285 136.678 8.6202 136.71 8.6202H138.94C138.957 8.62026 138.973 8.61686 138.988 8.61021C139.004 8.60357 139.017 8.59382 139.029 8.5816C139.04 8.56937 139.049 8.55493 139.054 8.5392C139.059 8.52347 139.061 8.50678 139.06 8.4902V5.1202C139.059 5.10275 139.061 5.08517 139.067 5.0687C139.073 5.05224 139.082 5.03728 139.095 5.02489C139.107 5.0125 139.122 5.00298 139.139 4.99698C139.155 4.99099 139.173 4.98868 139.19 4.9902H141.31C141.328 4.98868 141.345 4.99099 141.362 4.99698C141.378 5.00298 141.393 5.0125 141.405 5.02489C141.418 5.03728 141.427 5.05224 141.433 5.0687C141.439 5.08517 141.442 5.10275 141.44 5.1202V8.4902C141.439 8.50678 141.441 8.52347 141.446 8.5392C141.452 8.55493 141.46 8.56937 141.471 8.5816C141.483 8.59382 141.496 8.60357 141.512 8.61021C141.527 8.61686 141.543 8.62026 141.56 8.6202H144.26C144.277 8.61882 144.293 8.62089 144.309 8.6263C144.325 8.63171 144.339 8.64032 144.351 8.65161C144.364 8.66289 144.373 8.6766 144.38 8.69185C144.387 8.7071 144.39 8.72357 144.39 8.7402V10.3702C144.39 10.3868 144.387 10.4033 144.38 10.4186C144.373 10.4338 144.364 10.4475 144.351 10.4588C144.339 10.4701 144.325 10.4787 144.309 10.4841C144.293 10.4895 144.277 10.4916 144.26 10.4902H141.56C141.543 10.4901 141.527 10.4935 141.512 10.5002C141.496 10.5068 141.483 10.5166 141.471 10.5288C141.46 10.541 141.452 10.5555 141.446 10.5712C141.441 10.5869 141.439 10.6036 141.44 10.6202V17.9302C141.44 18.7002 141.79 19.1802 142.79 19.1802H144.26C144.277 19.1788 144.293 19.1809 144.309 19.1863C144.325 19.1917 144.339 19.2003 144.351 19.2116C144.364 19.2229 144.373 19.2366 144.38 19.2518C144.387 19.2671 144.39 19.2836 144.39 19.3002V21.1402Z" fill="#1E2B3C"/>
</svg>
