<svg width="145" height="27" viewBox="0 0 145 27" fill="none" xmlns="http://www.w3.org/2000/svg">
<path d="M12.67 0.210449H0.5C0.367392 0.210449 0.240215 0.263127 0.146447 0.356895C0.0526785 0.450664 0 0.577841 0 0.710449V24.4404C0.00256007 24.5723 0.0560606 24.698 0.14928 24.7912C0.242499 24.8844 0.368193 24.9379 0.5 24.9404H12.67C15.8885 24.8489 18.9445 23.506 21.1887 21.1971C23.4329 18.8882 24.6883 15.7953 24.6883 12.5754C24.6883 9.35562 23.4329 6.26267 21.1887 3.95377C18.9445 1.64487 15.8885 0.301988 12.67 0.210449ZM13.86 21.2104C12.0187 21.5273 10.1242 21.2499 8.45107 20.4184C6.77789 19.5869 5.4128 18.2444 4.55347 16.5853C3.69414 14.9262 3.38516 13.0367 3.67129 11.1903C3.95741 9.34395 4.82378 7.63657 6.14495 6.3154C7.46612 4.99423 9.1735 4.12786 11.0199 3.84174C12.8663 3.55561 14.7558 3.86459 16.4148 4.72392C18.0739 5.58325 19.4164 6.94834 20.2479 8.62151C21.0795 10.2947 21.3569 12.1891 21.04 14.0304C20.7316 15.8224 19.8757 17.4748 18.59 18.7605C17.3043 20.0462 15.6519 20.9021 13.86 21.2104Z" fill="black"/>
<path d="M46.39 21.4706C46.32 21.4706 46.29 21.4706 46.27 21.3506L46.02 20.2206C46.02 20.0806 45.79 20.1206 45.74 20.2206C45.3449 20.7041 44.8455 21.0921 44.2792 21.3553C43.7129 21.6185 43.0944 21.7502 42.47 21.7406C38.34 21.7406 37.02 19.1006 37.02 15.8506V8.95057C37.02 8.91874 37.0327 8.88822 37.0552 8.86571C37.0777 8.84321 37.1082 8.83057 37.14 8.83057H39.27C39.3018 8.83057 39.3324 8.84321 39.3549 8.86571C39.3774 8.88822 39.39 8.91874 39.39 8.95057V15.8306C39.39 17.7306 40.24 19.6006 42.72 19.6006C44.82 19.6006 46.02 17.7806 46.02 15.8306V8.95057C46.02 8.91874 46.0327 8.88822 46.0552 8.86571C46.0777 8.84321 46.1082 8.83057 46.14 8.83057H48.27C48.3018 8.83057 48.3324 8.84321 48.3549 8.86571C48.3774 8.88822 48.39 8.91874 48.39 8.95057V21.3506C48.39 21.3824 48.3774 21.4129 48.3549 21.4354C48.3324 21.4579 48.3018 21.4706 48.27 21.4706H46.39Z" fill="black"/>
<path d="M60.88 21.4705C60.8 21.4705 60.78 21.4705 60.75 21.3505L60.5 20.2205C60.4877 20.1951 60.4685 20.1737 60.4447 20.1588C60.4208 20.1438 60.3932 20.1359 60.365 20.1359C60.3368 20.1359 60.3092 20.1438 60.2853 20.1588C60.2615 20.1737 60.2423 20.1951 60.23 20.2205C59.8293 20.7014 59.3256 21.086 58.756 21.3456C58.1865 21.6053 57.5658 21.7334 56.94 21.7205C52.82 21.7205 51.49 19.0805 51.49 15.8305V8.9505C51.4899 8.93386 51.4933 8.91739 51.5 8.90214C51.5066 8.88689 51.5164 8.87319 51.5286 8.8619C51.5408 8.85062 51.5553 8.842 51.571 8.83659C51.5867 8.83119 51.6034 8.82911 51.62 8.8305H53.74C53.7566 8.82911 53.7733 8.83119 53.789 8.83659C53.8047 8.842 53.8192 8.85062 53.8314 8.8619C53.8436 8.87319 53.8534 8.88689 53.86 8.90214C53.8666 8.91739 53.87 8.93386 53.87 8.9505V15.8305C53.87 17.7305 54.72 19.6005 57.19 19.6005C59.29 19.6005 60.49 17.7805 60.49 15.8305V8.9505C60.4899 8.93386 60.4933 8.91739 60.5 8.90214C60.5066 8.88689 60.5164 8.87319 60.5286 8.8619C60.5408 8.85062 60.5553 8.842 60.571 8.83659C60.5867 8.83119 60.6034 8.82911 60.62 8.8305H62.74C62.7566 8.82911 62.7733 8.83119 62.789 8.83659C62.8047 8.842 62.8192 8.85062 62.8314 8.8619C62.8436 8.87319 62.8534 8.88689 62.86 8.90214C62.8667 8.91739 62.8701 8.93386 62.87 8.9505V21.3505C62.8701 21.3671 62.8667 21.3836 62.86 21.3989C62.8534 21.4141 62.8436 21.4278 62.8314 21.4391C62.8192 21.4504 62.8047 21.459 62.789 21.4644C62.7733 21.4698 62.7566 21.4719 62.74 21.4705H60.88Z" fill="black"/>
<path d="M72.31 21.3507C72.3101 21.3673 72.3067 21.3838 72.3 21.399C72.2934 21.4143 72.2836 21.428 72.2714 21.4392C72.2592 21.4505 72.2447 21.4591 72.229 21.4646C72.2133 21.47 72.1966 21.472 72.18 21.4707H70.26C68.18 21.4707 66.98 20.5707 66.98 18.5307V10.8307C66.9814 10.8141 66.9793 10.7974 66.9739 10.7817C66.9685 10.7659 66.9599 10.7515 66.9486 10.7393C66.9373 10.727 66.9236 10.7173 66.9084 10.7106C66.8931 10.704 66.8766 10.7006 66.86 10.7007H64.64C64.6234 10.702 64.6067 10.7 64.591 10.6946C64.5753 10.6891 64.5608 10.6805 64.5486 10.6692C64.5364 10.658 64.5266 10.6443 64.52 10.629C64.5134 10.6138 64.51 10.5973 64.51 10.5807V8.95065C64.51 8.93402 64.5134 8.91755 64.52 8.9023C64.5266 8.88705 64.5364 8.87334 64.5486 8.86206C64.5608 8.85077 64.5753 8.84215 64.591 8.83675C64.6067 8.83134 64.6234 8.82926 64.64 8.83065H66.86C66.8766 8.83071 66.8931 8.82731 66.9084 8.82066C66.9236 8.81402 66.9373 8.80427 66.9486 8.79205C66.9599 8.77982 66.9685 8.76538 66.9739 8.74965C66.9793 8.73392 66.9814 8.71723 66.98 8.70065V5.33065C66.9785 5.3132 66.9808 5.29562 66.9868 5.27915C66.9928 5.26269 67.0023 5.24773 67.0147 5.23534C67.0271 5.22295 67.042 5.21343 67.0585 5.20743C67.075 5.20144 67.0926 5.19912 67.11 5.20065H69.23C69.2475 5.19912 69.265 5.20144 69.2815 5.20743C69.298 5.21343 69.3129 5.22295 69.3253 5.23534C69.3377 5.24773 69.3472 5.26269 69.3532 5.27915C69.3592 5.29562 69.3615 5.3132 69.36 5.33065V8.70065C69.3586 8.71723 69.3607 8.73392 69.3661 8.74965C69.3715 8.76538 69.3801 8.77982 69.3914 8.79205C69.4027 8.80427 69.4164 8.81402 69.4317 8.82066C69.4469 8.82731 69.4634 8.83071 69.48 8.83065H72.18C72.1966 8.82926 72.2133 8.83134 72.229 8.83675C72.2447 8.84215 72.2592 8.85077 72.2714 8.86206C72.2836 8.87334 72.2934 8.88705 72.3 8.9023C72.3067 8.91755 72.3101 8.93402 72.31 8.95065V10.5807C72.3101 10.5973 72.3067 10.6138 72.3 10.629C72.2934 10.6443 72.2836 10.658 72.2714 10.6692C72.2592 10.6805 72.2447 10.6891 72.229 10.6946C72.2133 10.7 72.1966 10.702 72.18 10.7007H69.48C69.4634 10.7006 69.4469 10.704 69.4317 10.7106C69.4164 10.7173 69.4027 10.727 69.3914 10.7393C69.3801 10.7515 69.3715 10.7659 69.3661 10.7817C69.3607 10.7974 69.3586 10.8141 69.36 10.8307V18.1407C69.36 18.9107 69.71 19.3907 70.71 19.3907H72.18C72.1966 19.3893 72.2133 19.3913 72.229 19.3967C72.2447 19.4022 72.2592 19.4108 72.2714 19.4221C72.2836 19.4333 72.2934 19.447 72.3 19.4623C72.3067 19.4775 72.3101 19.494 72.31 19.5107V21.3507Z" fill="black"/>
<path d="M74.3199 7.2504C74.3034 7.25178 74.2867 7.24971 74.2709 7.2443C74.2552 7.23889 74.2408 7.23028 74.2285 7.21899C74.2163 7.20771 74.2066 7.194 74.1999 7.17875C74.1933 7.1635 74.1899 7.14703 74.1899 7.1304V4.6004C74.1899 4.58376 74.1933 4.56729 74.1999 4.55204C74.2066 4.53679 74.2163 4.52309 74.2285 4.5118C74.2408 4.50052 74.2552 4.4919 74.2709 4.48649C74.2867 4.48109 74.3034 4.47901 74.3199 4.4804H76.8199C76.8518 4.4804 76.8823 4.49304 76.9048 4.51554C76.9273 4.53805 76.9399 4.56857 76.9399 4.6004V7.1404C76.9399 7.17222 76.9273 7.20275 76.9048 7.22525C76.8823 7.24776 76.8518 7.2604 76.8199 7.2604L74.3199 7.2504ZM76.7699 21.3504C76.77 21.367 76.7666 21.3835 76.7599 21.3988C76.7533 21.414 76.7436 21.4277 76.7313 21.439C76.7191 21.4503 76.7047 21.4589 76.6889 21.4643C76.6732 21.4697 76.6565 21.4718 76.6399 21.4704H74.5199C74.5034 21.4718 74.4867 21.4697 74.4709 21.4643C74.4552 21.4589 74.4408 21.4503 74.4286 21.439C74.4163 21.4277 74.4066 21.414 74.3999 21.3988C74.3933 21.3835 74.3899 21.367 74.3899 21.3504V8.9504C74.3899 8.93376 74.3933 8.91729 74.3999 8.90204C74.4066 8.88679 74.4163 8.87309 74.4286 8.8618C74.4408 8.85052 74.4552 8.8419 74.4709 8.83649C74.4867 8.83109 74.5034 8.82901 74.5199 8.8304H76.6399C76.6565 8.82901 76.6732 8.83109 76.6889 8.83649C76.7047 8.8419 76.7191 8.85052 76.7313 8.8618C76.7436 8.87309 76.7533 8.88679 76.7599 8.90204C76.7666 8.91729 76.77 8.93376 76.7699 8.9504V21.3504Z" fill="black"/>
<path d="M80.13 3.88037H82.25C82.2818 3.88037 82.3124 3.89301 82.3349 3.91552C82.3574 3.93802 82.37 3.96855 82.37 4.00037V21.3504C82.3701 21.3832 82.3578 21.4148 82.3355 21.4389C82.3133 21.463 82.2827 21.4778 82.25 21.4804H80.13C80.0989 21.4781 80.0698 21.4647 80.0477 21.4427C80.0257 21.4206 80.0123 21.3914 80.01 21.3604V4.01037C80.01 3.97854 80.0227 3.94802 80.0452 3.92552C80.0677 3.90301 80.0982 3.89037 80.13 3.89037V3.88037Z" fill="black"/>
<path d="M93.3299 13.1406C93.3142 13.1406 93.2986 13.1375 93.284 13.1315C93.2695 13.1254 93.2562 13.1166 93.2451 13.1054C93.2339 13.0943 93.2251 13.0811 93.2191 13.0665C93.2131 13.0519 93.2099 13.0363 93.2099 13.0206C93.2099 11.6406 92.1099 10.7406 90.0799 10.7406C88.2099 10.7406 87.38 11.5706 87.38 12.3406C87.38 13.7706 89.1799 13.7906 90.38 13.9706C92.8799 14.3206 95.8799 14.5406 95.8799 17.7406C95.8799 20.5906 93.51 21.7406 90.38 21.7406C86.58 21.7406 84.7299 19.7406 84.7299 17.3506C84.7284 17.3331 84.7307 17.3156 84.7367 17.2991C84.7427 17.2826 84.7522 17.2677 84.7646 17.2553C84.777 17.2429 84.792 17.2334 84.8084 17.2274C84.8249 17.2214 84.8425 17.2191 84.8599 17.2206H86.9599C86.9783 17.2192 86.9968 17.2215 87.0143 17.2273C87.0318 17.2331 87.048 17.2423 87.062 17.2544C87.0759 17.2665 87.0873 17.2812 87.0956 17.2977C87.1038 17.3142 87.1087 17.3322 87.1099 17.3506C87.1099 18.6006 88.38 19.6206 90.38 19.6206C91.66 19.6206 93.5099 19.3506 93.5099 17.7206C93.5099 16.3006 91.4299 16.2006 90.38 16.0706C87.9799 15.8006 84.9599 15.4206 84.9599 12.3206C84.9599 10.2706 86.9599 8.60059 90.0299 8.60059C93.0999 8.60059 95.5299 10.0506 95.5299 13.0006C95.5299 13.0706 95.5299 13.1206 95.4299 13.1206L93.3299 13.1406Z" fill="black"/>
<path d="M96.52 24.4206C96.5199 24.4039 96.5233 24.3875 96.53 24.3722C96.5366 24.357 96.5464 24.3433 96.5586 24.332C96.5708 24.3207 96.5853 24.3121 96.601 24.3067C96.6167 24.3013 96.6334 24.2992 96.65 24.3006H99.47C100.95 24.3006 101.4 23.3506 100.95 22.0206L96.5 8.95057C96.5 8.85057 96.57 8.83057 96.65 8.83057H98.94C99.02 8.83057 99.04 8.88057 99.07 8.95057L102.34 18.9506C102.348 18.9777 102.364 19.0016 102.387 19.0186C102.409 19.0357 102.437 19.0449 102.465 19.0449C102.493 19.0449 102.521 19.0357 102.543 19.0186C102.566 19.0016 102.582 18.9777 102.59 18.9506L105.89 8.95057C105.89 8.88057 105.89 8.83057 106.02 8.83057H108.29C108.37 8.83057 108.44 8.88057 108.42 8.95057L103.42 23.6506C102.72 25.6506 101.94 26.4206 99.92 26.4206H96.67C96.6534 26.422 96.6367 26.4199 96.621 26.4145C96.6053 26.4091 96.5908 26.4004 96.5786 26.3892C96.5664 26.3779 96.5566 26.3642 96.55 26.3489C96.5433 26.3337 96.5399 26.3172 96.54 26.3006L96.52 24.4206Z" fill="black"/>
<path d="M112.17 8.83021C112.24 8.83021 112.27 8.88021 112.29 8.95021L112.54 10.0802C112.54 10.2302 112.77 10.1802 112.82 10.0802C113.199 9.57851 113.695 9.17753 114.265 8.9125C114.836 8.64747 115.462 8.5265 116.09 8.56021C119.71 8.56021 121.54 11.2102 121.54 14.4602V21.3302C121.54 21.3468 121.537 21.3633 121.53 21.3786C121.523 21.3938 121.514 21.4075 121.501 21.4188C121.489 21.4301 121.475 21.4387 121.459 21.4441C121.443 21.4495 121.426 21.4516 121.41 21.4502H119.29C119.273 21.4516 119.257 21.4495 119.241 21.4441C119.225 21.4387 119.211 21.4301 119.199 21.4188C119.186 21.4075 119.177 21.3938 119.17 21.3786C119.163 21.3633 119.16 21.3468 119.16 21.3302V14.4802C119.16 12.5802 118.31 10.7002 115.84 10.7002C113.74 10.7002 112.54 12.5302 112.54 14.4802V21.3502C112.54 21.382 112.527 21.4126 112.505 21.4351C112.482 21.4576 112.452 21.4702 112.42 21.4702H110.29C110.274 21.4702 110.259 21.4671 110.244 21.4611C110.229 21.455 110.216 21.4462 110.205 21.4351C110.194 21.4239 110.185 21.4107 110.179 21.3961C110.173 21.3816 110.17 21.366 110.17 21.3502V8.95021C110.17 8.93445 110.173 8.91885 110.179 8.90429C110.185 8.88973 110.194 8.8765 110.205 8.86536C110.216 8.85422 110.229 8.84538 110.244 8.83935C110.259 8.83332 110.274 8.83021 110.29 8.83021H112.17Z" fill="black"/>
<path d="M126.47 16.0006C126.453 15.999 126.435 16.0014 126.419 16.0073C126.402 16.0133 126.387 16.0229 126.375 16.0353C126.362 16.0476 126.353 16.0626 126.347 16.0791C126.341 16.0955 126.339 16.1131 126.34 16.1306C126.331 16.5998 126.419 17.0659 126.599 17.4996C126.778 17.9333 127.045 18.3253 127.383 18.6511C127.721 18.9768 128.122 19.2292 128.562 19.3926C129.002 19.556 129.471 19.6268 129.94 19.6006C130.585 19.6638 131.234 19.5305 131.801 19.2182C132.369 18.9058 132.829 18.4291 133.12 17.8506C133.17 17.7506 133.22 17.7206 133.29 17.7206H135.52C135.59 17.7206 135.67 17.7206 135.64 17.8506C134.99 20.3006 132.77 21.7206 129.94 21.7206C126.19 21.7206 123.87 19.0506 123.87 15.1506C123.87 11.2506 126.07 8.58057 129.94 8.58057C133.81 8.58057 136.04 11.2506 136.04 15.1506C136.029 15.3977 135.988 15.6427 135.92 15.8806C135.92 15.9506 135.87 16.0006 135.79 16.0006H126.47ZM129.89 10.7006C128.99 10.696 128.121 11.0347 127.462 11.6477C126.802 12.2608 126.401 13.1022 126.34 14.0006C126.342 14.0343 126.357 14.066 126.381 14.0899C126.405 14.1138 126.436 14.1282 126.47 14.1306H133.27C133.287 14.1306 133.303 14.1272 133.318 14.1206C133.334 14.1139 133.347 14.1042 133.359 14.092C133.37 14.0797 133.379 14.0653 133.384 14.0496C133.389 14.0338 133.392 14.0171 133.39 14.0006C133.391 13.5498 133.299 13.1037 133.121 12.6897C132.943 12.2758 132.682 11.9027 132.354 11.5935C132.026 11.2843 131.638 11.0455 131.214 10.8919C130.791 10.7384 130.34 10.6732 129.89 10.7006Z" fill="black"/>
<path d="M144.39 21.3507C144.39 21.3673 144.387 21.3838 144.38 21.399C144.373 21.4143 144.364 21.428 144.351 21.4392C144.339 21.4505 144.325 21.4591 144.309 21.4646C144.293 21.47 144.277 21.472 144.26 21.4707H142.34C140.26 21.4707 139.06 20.5707 139.06 18.5307V10.8307C139.061 10.8141 139.059 10.7974 139.054 10.7817C139.049 10.7659 139.04 10.7515 139.029 10.7393C139.017 10.727 139.004 10.7173 138.988 10.7106C138.973 10.704 138.957 10.7006 138.94 10.7007H136.71C136.694 10.7007 136.679 10.6975 136.664 10.6915C136.65 10.6855 136.636 10.6766 136.625 10.6655C136.614 10.6544 136.605 10.6411 136.599 10.6266C136.593 10.612 136.59 10.5964 136.59 10.5807V8.95065C136.59 8.91883 136.603 8.8883 136.625 8.8658C136.648 8.84329 136.678 8.83065 136.71 8.83065H138.94C138.957 8.83071 138.973 8.82731 138.988 8.82066C139.004 8.81402 139.017 8.80427 139.029 8.79205C139.04 8.77982 139.049 8.76538 139.054 8.74965C139.059 8.73392 139.061 8.71723 139.06 8.70065V5.33065C139.059 5.3132 139.061 5.29562 139.067 5.27915C139.073 5.26269 139.082 5.24773 139.095 5.23534C139.107 5.22295 139.122 5.21343 139.139 5.20743C139.155 5.20144 139.173 5.19912 139.19 5.20065H141.31C141.328 5.19912 141.345 5.20144 141.362 5.20743C141.378 5.21343 141.393 5.22295 141.405 5.23534C141.418 5.24773 141.427 5.26269 141.433 5.27915C141.439 5.29562 141.442 5.3132 141.44 5.33065V8.70065C141.439 8.71723 141.441 8.73392 141.446 8.74965C141.452 8.76538 141.46 8.77982 141.471 8.79205C141.483 8.80427 141.496 8.81402 141.512 8.82066C141.527 8.82731 141.543 8.83071 141.56 8.83065H144.26C144.277 8.82926 144.293 8.83134 144.309 8.83675C144.325 8.84215 144.339 8.85077 144.351 8.86206C144.364 8.87334 144.373 8.88705 144.38 8.9023C144.387 8.91755 144.39 8.93402 144.39 8.95065V10.5807C144.39 10.5973 144.387 10.6138 144.38 10.629C144.373 10.6443 144.364 10.658 144.351 10.6692C144.339 10.6805 144.325 10.6891 144.309 10.6946C144.293 10.7 144.277 10.702 144.26 10.7007H141.56C141.543 10.7006 141.527 10.704 141.512 10.7106C141.496 10.7173 141.483 10.727 141.471 10.7393C141.46 10.7515 141.452 10.7659 141.446 10.7817C141.441 10.7974 141.439 10.8141 141.44 10.8307V18.1407C141.44 18.9107 141.79 19.3907 142.79 19.3907H144.26C144.277 19.3893 144.293 19.3913 144.309 19.3967C144.325 19.4022 144.339 19.4108 144.351 19.4221C144.364 19.4333 144.373 19.447 144.38 19.4623C144.387 19.4775 144.39 19.494 144.39 19.5107V21.3507Z" fill="black"/>
</svg>
