<svg width="145" height="27" viewBox="0 0 145 27" fill="none" xmlns="http://www.w3.org/2000/svg">
<path d="M12.67 0.420898H0.5C0.367392 0.420898 0.240215 0.473576 0.146447 0.567345C0.0526785 0.661113 0 0.78829 0 0.920898V24.6509C0.00256007 24.7827 0.0560606 24.9084 0.14928 25.0016C0.242499 25.0948 0.368193 25.1483 0.5 25.1509H12.67C15.8885 25.0594 18.9445 23.7165 21.1887 21.4076C23.4329 19.0987 24.6883 16.0057 24.6883 12.7859C24.6883 9.56607 23.4329 6.47312 21.1887 4.16422C18.9445 1.85532 15.8885 0.512437 12.67 0.420898ZM13.86 21.4209C12.0187 21.7378 10.1242 21.4604 8.45107 20.6288C6.77789 19.7973 5.4128 18.4548 4.55347 16.7957C3.69414 15.1367 3.38516 13.2472 3.67129 11.4008C3.95741 9.5544 4.82378 7.84702 6.14495 6.52585C7.46612 5.20468 9.1735 4.33831 11.0199 4.05219C12.8663 3.76606 14.7558 4.07504 16.4148 4.93437C18.0739 5.7937 19.4164 7.15879 20.2479 8.83196C21.0795 10.5051 21.3569 12.3996 21.04 14.2409C20.7316 16.0328 19.8757 17.6852 18.59 18.9709C17.3043 20.2566 15.6519 21.1125 13.86 21.4209Z" fill="white"/>
<path d="M46.39 21.681C46.32 21.681 46.29 21.681 46.27 21.561L46.02 20.431C46.02 20.291 45.79 20.331 45.74 20.431C45.3449 20.9146 44.8455 21.3025 44.2792 21.5657C43.7129 21.829 43.0944 21.9607 42.47 21.951C38.34 21.951 37.02 19.311 37.02 16.061V9.16102C37.02 9.12919 37.0327 9.09867 37.0552 9.07616C37.0777 9.05366 37.1082 9.04102 37.14 9.04102H39.27C39.3018 9.04102 39.3324 9.05366 39.3549 9.07616C39.3774 9.09867 39.39 9.12919 39.39 9.16102V16.041C39.39 17.941 40.24 19.811 42.72 19.811C44.82 19.811 46.02 17.991 46.02 16.041V9.16102C46.02 9.12919 46.0327 9.09867 46.0552 9.07616C46.0777 9.05366 46.1082 9.04102 46.14 9.04102H48.27C48.3018 9.04102 48.3324 9.05366 48.3549 9.07616C48.3774 9.09867 48.39 9.12919 48.39 9.16102V21.561C48.39 21.5928 48.3774 21.6234 48.3549 21.6459C48.3324 21.6684 48.3018 21.681 48.27 21.681H46.39Z" fill="white"/>
<path d="M60.88 21.6809C60.8 21.6809 60.78 21.6809 60.75 21.5609L60.5 20.4309C60.4877 20.4056 60.4685 20.3842 60.4447 20.3692C60.4208 20.3543 60.3932 20.3463 60.365 20.3463C60.3368 20.3463 60.3092 20.3543 60.2853 20.3692C60.2615 20.3842 60.2423 20.4056 60.23 20.4309C59.8293 20.9119 59.3256 21.2964 58.756 21.5561C58.1865 21.8158 57.5658 21.9439 56.94 21.9309C52.82 21.9309 51.49 19.2909 51.49 16.0409V9.16095C51.4899 9.14431 51.4933 9.12784 51.5 9.11259C51.5066 9.09734 51.5164 9.08364 51.5286 9.07235C51.5408 9.06107 51.5553 9.05245 51.571 9.04704C51.5867 9.04163 51.6034 9.03956 51.62 9.04094H53.74C53.7566 9.03956 53.7733 9.04163 53.789 9.04704C53.8047 9.05245 53.8192 9.06107 53.8314 9.07235C53.8436 9.08364 53.8534 9.09734 53.86 9.11259C53.8666 9.12784 53.87 9.14431 53.87 9.16095V16.0409C53.87 17.9409 54.72 19.8109 57.19 19.8109C59.29 19.8109 60.49 17.9909 60.49 16.0409V9.16095C60.4899 9.14431 60.4933 9.12784 60.5 9.11259C60.5066 9.09734 60.5164 9.08364 60.5286 9.07235C60.5408 9.06107 60.5553 9.05245 60.571 9.04704C60.5867 9.04163 60.6034 9.03956 60.62 9.04094H62.74C62.7566 9.03956 62.7733 9.04163 62.789 9.04704C62.8047 9.05245 62.8192 9.06107 62.8314 9.07235C62.8436 9.08364 62.8534 9.09734 62.86 9.11259C62.8667 9.12784 62.8701 9.14431 62.87 9.16095V21.5609C62.8701 21.5776 62.8667 21.594 62.86 21.6093C62.8534 21.6246 62.8436 21.6383 62.8314 21.6495C62.8192 21.6608 62.8047 21.6694 62.789 21.6748C62.7733 21.6803 62.7566 21.6823 62.74 21.6809H60.88Z" fill="white"/>
<path d="M72.31 21.5611C72.3101 21.5777 72.3067 21.5942 72.3 21.6095C72.2934 21.6247 72.2836 21.6384 72.2714 21.6497C72.2592 21.661 72.2447 21.6696 72.229 21.675C72.2133 21.6804 72.1966 21.6825 72.18 21.6811H70.26C68.18 21.6811 66.98 20.7811 66.98 18.7411V11.0411C66.9814 11.0245 66.9793 11.0078 66.9739 10.9921C66.9685 10.9764 66.9599 10.9619 66.9486 10.9497C66.9373 10.9375 66.9236 10.9277 66.9084 10.9211C66.8931 10.9144 66.8766 10.911 66.86 10.9111H64.64C64.6234 10.9125 64.6067 10.9104 64.591 10.905C64.5753 10.8996 64.5608 10.891 64.5486 10.8797C64.5364 10.8684 64.5266 10.8547 64.52 10.8395C64.5134 10.8242 64.51 10.8077 64.51 10.7911V9.1611C64.51 9.14446 64.5134 9.128 64.52 9.11275C64.5266 9.09749 64.5364 9.08379 64.5486 9.07251C64.5608 9.06122 64.5753 9.0526 64.591 9.0472C64.6067 9.04179 64.6234 9.03971 64.64 9.0411H66.86C66.8766 9.04116 66.8931 9.03776 66.9084 9.03111C66.9236 9.02446 66.9373 9.01472 66.9486 9.00249C66.9599 8.99027 66.9685 8.97583 66.9739 8.9601C66.9793 8.94437 66.9814 8.92768 66.98 8.9111V5.5411C66.9785 5.52364 66.9808 5.50607 66.9868 5.4896C66.9928 5.47314 67.0023 5.45818 67.0147 5.44579C67.0271 5.4334 67.042 5.42387 67.0585 5.41788C67.075 5.41189 67.0926 5.40957 67.11 5.4111H69.23C69.2475 5.40957 69.265 5.41189 69.2815 5.41788C69.298 5.42387 69.3129 5.4334 69.3253 5.44579C69.3377 5.45818 69.3472 5.47314 69.3532 5.4896C69.3592 5.50607 69.3615 5.52364 69.36 5.5411V8.9111C69.3586 8.92768 69.3607 8.94437 69.3661 8.9601C69.3715 8.97583 69.3801 8.99027 69.3914 9.00249C69.4027 9.01472 69.4164 9.02446 69.4317 9.03111C69.4469 9.03776 69.4634 9.04116 69.48 9.0411H72.18C72.1966 9.03971 72.2133 9.04179 72.229 9.0472C72.2447 9.0526 72.2592 9.06122 72.2714 9.07251C72.2836 9.08379 72.2934 9.09749 72.3 9.11275C72.3067 9.128 72.3101 9.14446 72.31 9.1611V10.7911C72.3101 10.8077 72.3067 10.8242 72.3 10.8395C72.2934 10.8547 72.2836 10.8684 72.2714 10.8797C72.2592 10.891 72.2447 10.8996 72.229 10.905C72.2133 10.9104 72.1966 10.9125 72.18 10.9111H69.48C69.4634 10.911 69.4469 10.9144 69.4317 10.9211C69.4164 10.9277 69.4027 10.9375 69.3914 10.9497C69.3801 10.9619 69.3715 10.9764 69.3661 10.9921C69.3607 11.0078 69.3586 11.0245 69.36 11.0411V18.3511C69.36 19.1211 69.71 19.6011 70.71 19.6011H72.18C72.1966 19.5997 72.2133 19.6018 72.229 19.6072C72.2447 19.6126 72.2592 19.6212 72.2714 19.6325C72.2836 19.6438 72.2934 19.6575 72.3 19.6727C72.3067 19.688 72.3101 19.7045 72.31 19.7211V21.5611Z" fill="white"/>
<path d="M74.3199 7.46085C74.3034 7.46223 74.2867 7.46016 74.2709 7.45475C74.2552 7.44934 74.2408 7.44073 74.2285 7.42944C74.2163 7.41816 74.2066 7.40445 74.1999 7.3892C74.1933 7.37395 74.1899 7.35748 74.1899 7.34085V4.81085C74.1899 4.79421 74.1933 4.77774 74.1999 4.76249C74.2066 4.74724 74.2163 4.73354 74.2285 4.72225C74.2408 4.71097 74.2552 4.70235 74.2709 4.69694C74.2867 4.69154 74.3034 4.68946 74.3199 4.69085H76.8199C76.8518 4.69085 76.8823 4.70349 76.9048 4.72599C76.9273 4.7485 76.9399 4.77902 76.9399 4.81085V7.35085C76.9399 7.38267 76.9273 7.4132 76.9048 7.4357C76.8823 7.4582 76.8518 7.47085 76.8199 7.47085L74.3199 7.46085ZM76.7699 21.5608C76.77 21.5775 76.7666 21.594 76.7599 21.6092C76.7533 21.6245 76.7436 21.6382 76.7313 21.6494C76.7191 21.6607 76.7047 21.6693 76.6889 21.6748C76.6732 21.6802 76.6565 21.6822 76.6399 21.6808H74.5199C74.5034 21.6822 74.4867 21.6802 74.4709 21.6748C74.4552 21.6693 74.4408 21.6607 74.4286 21.6494C74.4163 21.6382 74.4066 21.6245 74.3999 21.6092C74.3933 21.594 74.3899 21.5775 74.3899 21.5608V9.16085C74.3899 9.14421 74.3933 9.12774 74.3999 9.11249C74.4066 9.09724 74.4163 9.08354 74.4286 9.07225C74.4408 9.06097 74.4552 9.05235 74.4709 9.04694C74.4867 9.04154 74.5034 9.03946 74.5199 9.04085H76.6399C76.6565 9.03946 76.6732 9.04154 76.6889 9.04694C76.7047 9.05235 76.7191 9.06097 76.7313 9.07225C76.7436 9.08354 76.7533 9.09724 76.7599 9.11249C76.7666 9.12774 76.77 9.14421 76.7699 9.16085V21.5608Z" fill="white"/>
<path d="M80.13 4.09082H82.25C82.2818 4.09082 82.3124 4.10346 82.3349 4.12597C82.3574 4.14847 82.37 4.17899 82.37 4.21082V21.5608C82.3701 21.5936 82.3578 21.6253 82.3355 21.6494C82.3133 21.6735 82.2827 21.6883 82.25 21.6908H80.13C80.0989 21.6885 80.0698 21.6751 80.0477 21.6531C80.0257 21.6311 80.0123 21.6019 80.01 21.5708V4.22082C80.01 4.18899 80.0227 4.15847 80.0452 4.13597C80.0677 4.11346 80.0982 4.10082 80.13 4.10082V4.09082Z" fill="white"/>
<path d="M93.3299 13.351C93.3142 13.351 93.2986 13.3479 93.284 13.3419C93.2695 13.3359 93.2562 13.327 93.2451 13.3159C93.2339 13.3047 93.2251 13.2915 93.2191 13.277C93.2131 13.2624 93.2099 13.2468 93.2099 13.231C93.2099 11.851 92.1099 10.951 90.0799 10.951C88.2099 10.951 87.38 11.781 87.38 12.551C87.38 13.981 89.1799 14.001 90.38 14.181C92.8799 14.531 95.8799 14.751 95.8799 17.951C95.8799 20.801 93.51 21.951 90.38 21.951C86.58 21.951 84.7299 19.951 84.7299 17.561C84.7284 17.5436 84.7307 17.526 84.7367 17.5095C84.7427 17.4931 84.7522 17.4781 84.7646 17.4657C84.777 17.4533 84.792 17.4438 84.8084 17.4378C84.8249 17.4318 84.8425 17.4295 84.8599 17.431H86.9599C86.9783 17.4297 86.9968 17.432 87.0143 17.4378C87.0318 17.4436 87.048 17.4528 87.062 17.4649C87.0759 17.4769 87.0873 17.4917 87.0956 17.5082C87.1038 17.5247 87.1087 17.5426 87.1099 17.561C87.1099 18.811 88.38 19.831 90.38 19.831C91.66 19.831 93.5099 19.561 93.5099 17.931C93.5099 16.511 91.4299 16.411 90.38 16.281C87.9799 16.011 84.9599 15.631 84.9599 12.531C84.9599 10.481 86.9599 8.81104 90.0299 8.81104C93.0999 8.81104 95.5299 10.261 95.5299 13.211C95.5299 13.281 95.5299 13.331 95.4299 13.331L93.3299 13.351Z" fill="white"/>
<path d="M96.52 24.631C96.5199 24.6144 96.5233 24.5979 96.53 24.5827C96.5366 24.5674 96.5464 24.5537 96.5586 24.5424C96.5708 24.5311 96.5853 24.5225 96.601 24.5171C96.6167 24.5117 96.6334 24.5096 96.65 24.511H99.47C100.95 24.511 101.4 23.561 100.95 22.231L96.5 9.16102C96.5 9.06102 96.57 9.04102 96.65 9.04102H98.94C99.02 9.04102 99.04 9.09102 99.07 9.16102L102.34 19.161C102.348 19.1882 102.364 19.2121 102.387 19.2291C102.409 19.2461 102.437 19.2553 102.465 19.2553C102.493 19.2553 102.521 19.2461 102.543 19.2291C102.566 19.2121 102.582 19.1882 102.59 19.161L105.89 9.16102C105.89 9.09102 105.89 9.04102 106.02 9.04102H108.29C108.37 9.04102 108.44 9.09102 108.42 9.16102L103.42 23.861C102.72 25.861 101.94 26.631 99.92 26.631H96.67C96.6534 26.6324 96.6367 26.6303 96.621 26.6249C96.6053 26.6195 96.5908 26.6109 96.5786 26.5996C96.5664 26.5883 96.5566 26.5746 96.55 26.5594C96.5433 26.5441 96.5399 26.5277 96.54 26.511L96.52 24.631Z" fill="white"/>
<path d="M112.17 9.04066C112.24 9.04066 112.27 9.09066 112.29 9.16066L112.54 10.2907C112.54 10.4407 112.77 10.3907 112.82 10.2907C113.199 9.78895 113.695 9.38798 114.265 9.12295C114.836 8.85792 115.462 8.73695 116.09 8.77066C119.71 8.77066 121.54 11.4207 121.54 14.6707V21.5407C121.54 21.5573 121.537 21.5738 121.53 21.589C121.523 21.6043 121.514 21.618 121.501 21.6293C121.489 21.6405 121.475 21.6492 121.459 21.6546C121.443 21.66 121.426 21.662 121.41 21.6607H119.29C119.273 21.662 119.257 21.66 119.241 21.6546C119.225 21.6492 119.211 21.6405 119.199 21.6293C119.186 21.618 119.177 21.6043 119.17 21.589C119.163 21.5738 119.16 21.5573 119.16 21.5407V14.6907C119.16 12.7907 118.31 10.9107 115.84 10.9107C113.74 10.9107 112.54 12.7407 112.54 14.6907V21.5607C112.54 21.5925 112.527 21.623 112.505 21.6455C112.482 21.668 112.452 21.6807 112.42 21.6807H110.29C110.274 21.6807 110.259 21.6776 110.244 21.6715C110.229 21.6655 110.216 21.6567 110.205 21.6455C110.194 21.6344 110.185 21.6211 110.179 21.6066C110.173 21.592 110.17 21.5764 110.17 21.5607V9.16066C110.17 9.1449 110.173 9.1293 110.179 9.11474C110.185 9.10018 110.194 9.08695 110.205 9.07581C110.216 9.06466 110.229 9.05583 110.244 9.0498C110.259 9.04376 110.274 9.04066 110.29 9.04066H112.17Z" fill="white"/>
<path d="M126.47 16.211C126.453 16.2095 126.435 16.2118 126.419 16.2178C126.402 16.2238 126.387 16.2333 126.375 16.2457C126.362 16.2581 126.353 16.273 126.347 16.2895C126.341 16.306 126.339 16.3236 126.34 16.341C126.331 16.8103 126.419 17.2764 126.599 17.7101C126.778 18.1438 127.045 18.5358 127.383 18.8615C127.721 19.1872 128.122 19.4397 128.562 19.6031C129.002 19.7665 129.471 19.8373 129.94 19.811C130.585 19.8743 131.234 19.741 131.801 19.4286C132.369 19.1163 132.829 18.6395 133.12 18.061C133.17 17.961 133.22 17.931 133.29 17.931H135.52C135.59 17.931 135.67 17.931 135.64 18.061C134.99 20.511 132.77 21.931 129.94 21.931C126.19 21.931 123.87 19.261 123.87 15.361C123.87 11.461 126.07 8.79102 129.94 8.79102C133.81 8.79102 136.04 11.461 136.04 15.361C136.029 15.6082 135.988 15.8532 135.92 16.091C135.92 16.161 135.87 16.211 135.79 16.211H126.47ZM129.89 10.911C128.99 10.9064 128.121 11.2451 127.462 11.8582C126.802 12.4713 126.401 13.3126 126.34 14.211C126.342 14.2447 126.357 14.2765 126.381 14.3003C126.405 14.3242 126.436 14.3387 126.47 14.341H133.27C133.287 14.3411 133.303 14.3377 133.318 14.331C133.334 14.3244 133.347 14.3146 133.359 14.3024C133.37 14.2902 133.379 14.2757 133.384 14.26C133.389 14.2443 133.392 14.2276 133.39 14.211C133.391 13.7603 133.299 13.3142 133.121 12.9002C132.943 12.4862 132.682 12.1131 132.354 11.8039C132.026 11.4947 131.638 11.256 131.214 11.1024C130.791 10.9488 130.34 10.8837 129.89 10.911Z" fill="white"/>
<path d="M144.39 21.5611C144.39 21.5777 144.387 21.5942 144.38 21.6095C144.373 21.6247 144.364 21.6384 144.351 21.6497C144.339 21.661 144.325 21.6696 144.309 21.675C144.293 21.6804 144.277 21.6825 144.26 21.6811H142.34C140.26 21.6811 139.06 20.7811 139.06 18.7411V11.0411C139.061 11.0245 139.059 11.0078 139.054 10.9921C139.049 10.9764 139.04 10.9619 139.029 10.9497C139.017 10.9375 139.004 10.9277 138.988 10.9211C138.973 10.9144 138.957 10.911 138.94 10.9111H136.71C136.694 10.9111 136.679 10.908 136.664 10.902C136.65 10.8959 136.636 10.8871 136.625 10.876C136.614 10.8648 136.605 10.8516 136.599 10.837C136.593 10.8225 136.59 10.8069 136.59 10.7911V9.1611C136.59 9.12928 136.603 9.09875 136.625 9.07625C136.648 9.05374 136.678 9.0411 136.71 9.0411H138.94C138.957 9.04116 138.973 9.03776 138.988 9.03111C139.004 9.02446 139.017 9.01472 139.029 9.00249C139.04 8.99027 139.049 8.97583 139.054 8.9601C139.059 8.94437 139.061 8.92768 139.06 8.9111V5.5411C139.059 5.52364 139.061 5.50607 139.067 5.4896C139.073 5.47314 139.082 5.45818 139.095 5.44579C139.107 5.4334 139.122 5.42387 139.139 5.41788C139.155 5.41189 139.173 5.40957 139.19 5.4111H141.31C141.328 5.40957 141.345 5.41189 141.362 5.41788C141.378 5.42387 141.393 5.4334 141.405 5.44579C141.418 5.45818 141.427 5.47314 141.433 5.4896C141.439 5.50607 141.442 5.52364 141.44 5.5411V8.9111C141.439 8.92768 141.441 8.94437 141.446 8.9601C141.452 8.97583 141.46 8.99027 141.471 9.00249C141.483 9.01472 141.496 9.02446 141.512 9.03111C141.527 9.03776 141.543 9.04116 141.56 9.0411H144.26C144.277 9.03971 144.293 9.04179 144.309 9.0472C144.325 9.0526 144.339 9.06122 144.351 9.07251C144.364 9.08379 144.373 9.09749 144.38 9.11275C144.387 9.128 144.39 9.14446 144.39 9.1611V10.7911C144.39 10.8077 144.387 10.8242 144.38 10.8395C144.373 10.8547 144.364 10.8684 144.351 10.8797C144.339 10.891 144.325 10.8996 144.309 10.905C144.293 10.9104 144.277 10.9125 144.26 10.9111H141.56C141.543 10.911 141.527 10.9144 141.512 10.9211C141.496 10.9277 141.483 10.9375 141.471 10.9497C141.46 10.9619 141.452 10.9764 141.446 10.9921C141.441 11.0078 141.439 11.0245 141.44 11.0411V18.3511C141.44 19.1211 141.79 19.6011 142.79 19.6011H144.26C144.277 19.5997 144.293 19.6018 144.309 19.6072C144.325 19.6126 144.339 19.6212 144.351 19.6325C144.364 19.6438 144.373 19.6575 144.38 19.6727C144.387 19.688 144.39 19.7045 144.39 19.7211V21.5611Z" fill="white"/>
</svg>
