<svg width="124" height="124" viewBox="0 0 124 124" fill="none" xmlns="http://www.w3.org/2000/svg">
<rect width="124" height="124" rx="62" fill="#1E2B3C"/>
<path d="M62.3834 30H31.278C30.9411 30.0065 30.6198 30.1428 30.3815 30.3801C30.1433 30.6175 30.0065 30.9376 30 31.2732V91.7268C30.0065 92.0624 30.1433 92.3825 30.3815 92.6199C30.6198 92.8572 30.9411 92.9935 31.278 93H62.3834C70.7686 93 78.8104 89.6813 84.7397 83.7739C90.669 77.8665 94 69.8543 94 61.5C94 53.1457 90.669 45.1335 84.7397 39.2261C78.8104 33.3187 70.7686 30 62.3834 30ZM65.4249 83.4762C60.7186 84.2831 55.8767 83.5767 51.6002 81.4592C47.3237 79.3417 43.8346 75.9231 41.6383 71.6983C39.4419 67.4735 38.6522 62.6618 39.3835 57.9601C40.1148 53.2583 42.3292 48.9105 45.7059 45.5462C49.0827 42.1818 53.4467 39.9756 58.1658 39.247C62.885 38.5184 67.7144 39.3052 71.9549 41.4935C76.1953 43.6818 79.6266 47.1579 81.7519 51.4186C83.8773 55.6794 84.5863 60.5035 83.7764 65.1924C82.9882 69.7555 80.8006 73.9633 77.5145 77.2374C74.2283 80.5114 70.0049 82.6909 65.4249 83.4762Z" fill="white"/>
</svg>
