<svg width="1195" height="844" viewBox="0 0 1195 844" fill="none" xmlns="http://www.w3.org/2000/svg">
<path d="M652.102 78.8398L649.551 84.5799C649.551 84.835 649.551 85.2174 649.678 85.6001C649.806 85.0899 649.933 84.5799 650.189 83.9421C650.699 82.1563 651.337 80.4981 652.102 78.8398Z" fill="white"/>
<path d="M579.271 488.209C578.889 494.715 578.506 501.348 578.251 507.854C578.123 511.171 577.996 514.361 578.123 517.677C578.123 519.336 578.123 520.866 578.251 522.525C578.378 524.056 578.506 525.587 578.888 527.118C579.526 530.052 580.929 532.858 582.843 535.282C584.756 537.578 587.307 539.492 589.986 540.895C590.241 541.023 590.369 541.151 590.624 541.151L582.843 437.309C582.588 441.136 582.333 445.09 581.95 448.917C581.057 462.057 580.037 475.197 579.271 488.209Z" fill="white"/>
<path d="M659.376 60.9805C659.249 61.3631 659.249 61.618 659.121 62.0007V61.8736C659.249 61.6185 659.376 61.2356 659.376 60.9805Z" fill="white"/>
<path d="M704.402 562.453C707.081 570.234 705.55 577.634 705.55 577.634L617.664 577.123H511.41L511.027 558.754C333.596 585.544 182.825 693.722 98 843.999H1096C1014.49 699.845 872.521 594.345 704.402 562.453Z" fill="#F45F63"/>
<path d="M706.956 48.6017C707.722 50.2601 708.615 51.919 709.38 53.5774C709.89 55.3634 710.4 57.1491 710.655 59.0626C710.911 60.8486 711.038 62.8896 710.655 64.6756C710.528 62.8896 709.762 61.2312 708.997 59.5728C708.232 57.9144 707.339 56.3839 706.446 54.8531C705.681 53.1947 704.915 51.6635 704.15 50.0051C703.385 48.4742 702.364 46.6886 701.854 44.6475C701.344 42.734 701.216 40.5649 701.727 38.5238C701.982 37.5032 702.364 36.4831 702.747 35.7176C703.13 34.8247 703.385 34.0592 703.895 33.1663C704.66 31.5079 705.553 29.7214 706.829 28.1905C707.467 27.4251 708.104 26.6601 708.742 26.0222L709.252 25.5121L709.635 25.129C709.89 24.8739 710.018 24.6186 710.273 24.3635C711.038 23.2153 711.421 21.5571 711.293 20.0262C711.293 18.4954 710.783 16.9649 710.018 15.9444C709.89 15.8168 709.762 15.689 709.762 15.689C709.635 15.689 709.635 15.5613 709.635 15.5613C709.507 15.5613 709.252 15.4336 708.997 15.4336C708.487 15.4336 707.722 15.6887 706.956 16.0714C705.553 16.7093 704.022 17.73 702.619 18.7505C701.982 19.2608 701.216 19.7715 700.578 20.4093C700.196 20.6644 699.941 20.9192 699.686 21.3019L698.793 22.1952C697.517 23.4708 696.369 24.7465 695.093 26.0222C692.287 28.3185 689.481 30.6146 686.547 32.9109C686.802 32.5282 687.057 32.1456 687.313 31.7629C685.399 34.4418 683.869 37.5032 683.358 41.0752C682.976 43.499 682.721 45.7951 682.593 47.9638C682.21 53.9596 682.721 59.3175 682.976 65.1857C682.848 66.8441 682.721 67.7371 682.721 67.7371L651.852 110.601C651.852 112.77 651.724 114.939 651.724 116.98C651.597 119.786 651.469 122.593 651.342 125.272C650.576 136.37 649.173 147.468 646.112 158.311C644.581 163.669 642.668 169.027 639.989 174.002C639.734 174.64 639.351 175.151 638.969 175.789C640.117 175.789 641.265 175.661 642.413 175.533C683.103 172.089 709.763 95.0372 711.931 88.4036C714.099 85.2144 716.268 82.1522 718.309 78.963C720.86 75.2635 723.666 71.9471 725.835 67.9925C727.876 64.1654 729.151 59.8278 730.044 55.618C730.554 52.939 731.192 50.2604 731.702 47.7091H706.829C706.829 48.2193 706.829 48.3465 706.956 48.6017Z" fill="#1E2B3C"/>
<path d="M696.242 19.8983L697.262 18.878C697.645 18.4953 698.028 18.2404 698.283 17.8577C699.048 17.2198 699.686 16.709 700.451 16.0712C701.982 14.9231 703.513 13.9026 705.426 13.0096C706.319 12.6269 707.339 12.2446 708.615 12.117C709.253 12.117 709.89 12.1168 710.656 12.4995C711.038 12.6271 711.293 12.8822 711.676 13.1373C711.931 13.3925 712.059 13.52 712.314 13.7752C713.844 15.6887 714.355 17.7301 714.355 19.7712C714.482 21.8123 713.972 23.9807 712.824 25.8943C712.569 26.4046 712.186 26.7873 711.804 27.17L711.293 27.8078L710.783 28.1903C710.656 28.3179 710.528 28.4459 710.4 28.7011C711.421 29.2113 712.569 29.4665 713.589 28.7011C715.12 27.6805 716.268 24.8737 716.013 23.3429C719.074 26.6597 721.37 26.9147 724.559 23.2152C724.687 23.0876 724.687 22.9603 724.814 22.8327H736.039C736.932 17.6024 730.682 8.92742 725.069 7.26901C721.243 6.12089 719.074 9.56551 718.182 11.9893C717.799 12.8823 717.544 13.6475 717.544 13.6475C717.544 13.6475 717.416 13.2647 717.289 12.8819C717.033 11.8614 716.651 10.3311 716.013 8.92779C715.885 8.80022 715.885 8.67228 715.758 8.54471C714.865 6.8863 713.334 5.48304 711.166 5.35547C710.273 5.35547 709.508 5.48341 708.742 5.73855C708.742 5.73855 708.742 5.73855 708.615 5.73855C707.722 5.99369 706.957 6.50359 706.319 7.26901C704.533 8.92742 703.768 11.2237 703.64 11.7339L703.513 11.6063C703.002 10.4581 701.217 6.50397 698.538 6.3764C696.624 6.24883 694.201 7.26926 692.67 8.16225C691.522 8.8001 690.629 9.9481 690.247 11.2238C689.609 13.6476 688.843 17.8577 688.078 22.9604H693.053C694.328 21.9399 695.221 20.9188 696.242 19.8983Z" fill="#1E2B3C"/>
<path d="M558.991 40.0583V31.1285C558.991 30.6182 559.246 30.2356 559.628 29.9805C554.781 20.6679 544.067 15.437 533.352 17.9884C521.744 20.6674 514.218 31.5111 515.239 43.1199C515.366 44.0129 514.346 44.7782 513.453 44.2679C511.922 43.2473 510.392 43.1199 509.244 43.7577C507.33 45.0334 507.33 48.7328 509.371 51.9221C511.412 55.2389 514.729 56.7696 516.642 55.6214C517.025 55.3663 517.28 54.9838 517.535 54.6011L518.428 58.5559C521.489 71.1853 534.117 79.095 546.873 76.1609C552.23 74.8852 556.822 71.8228 560.011 67.7406L557.715 58.0458C556.695 58.3009 555.674 58.4282 554.654 58.4282C552.103 58.4282 549.679 57.7903 547.511 56.387C546.745 55.8767 546.49 54.9841 547 54.2187C547.511 53.4533 548.404 53.1976 549.169 53.7079C551.465 55.1112 554.271 55.6214 556.95 54.9836L555.419 48.4781L564.093 46.4368L562.945 41.4617H560.266C559.628 41.3342 558.991 40.8238 558.991 40.0583Z" fill="#1E2B3C"/>
<path d="M549.293 53.5819C548.528 53.0717 547.507 53.3267 547.125 54.092C546.615 54.8573 546.87 55.8774 547.635 56.2601C549.804 57.5356 552.227 58.3011 554.778 58.3011C555.799 58.3011 556.819 58.1738 557.84 57.9187L557.074 54.8575C554.396 55.4952 551.589 54.985 549.293 53.5819Z" fill="#E5AA20"/>
<path d="M617.666 577.125L705.552 577.635C705.552 577.635 707.083 570.236 704.404 562.454C702.491 556.841 698.409 551.101 689.862 547.912C660.652 536.941 650.065 517.805 651.468 504.538C658.101 442.539 659.759 411.795 642.412 356.94C624.554 300.554 610.14 279.378 598.149 253.353C590.496 236.769 588.073 220.823 586.925 197.223C579.654 195.309 572.638 192.247 566.133 188.675C556.311 183.317 547.255 176.557 538.708 169.413C536.54 167.627 534.627 165.586 532.713 163.672C530.8 161.631 528.887 159.717 526.973 157.676C523.274 153.594 519.575 149.384 516.258 144.919C518.172 146.96 520.213 148.875 522.126 150.788C524.167 152.702 526.208 154.615 528.249 156.401C530.29 158.187 532.458 159.973 534.499 161.759C536.668 163.545 538.836 165.203 540.877 166.989C549.168 174.132 558.097 180.64 567.664 185.87C577.23 191.1 587.562 195.182 598.277 195.82C603.635 196.203 608.992 195.564 613.966 193.778C618.941 192.12 623.533 189.186 627.487 185.614C631.314 181.915 634.375 177.449 636.927 172.729C639.35 167.882 641.263 162.78 642.794 157.549C645.728 147.089 647.131 136.117 647.896 125.146C648.024 122.467 648.152 119.661 648.279 116.854C648.407 114.047 648.279 111.369 648.534 108.562C648.789 103.077 649.044 97.591 649.172 91.978L649.3 87.7684C649.3 87.1306 649.3 86.2373 649.555 85.5995C649.555 85.4719 649.682 85.3446 649.682 85.217C649.682 84.8343 649.682 84.5794 649.555 84.1967L652.106 78.4561C652.488 77.5631 652.871 76.6694 653.254 75.7764L656.57 68.1222L658.229 64.2957L658.994 62.3822L659.376 61.489C659.504 61.1063 659.504 60.8514 659.632 60.4687V60.341V60.4687C659.632 60.3411 659.759 60.2136 659.759 59.9585C661.035 54.6006 661.673 49.1147 662.31 43.6292C662.948 37.761 663.713 32.0204 665.499 26.4074C665.499 26.2798 665.499 26.1526 665.627 26.1526C667.285 20.7947 680.806 0.638682 668.943 0.000834176C666.137 -0.126735 654.402 14.4157 656.06 17.3498C654.274 13.9054 652.488 9.95101 648.407 9.31316C645.856 8.93045 643.305 9.69562 641.008 10.9713C640.243 11.354 636.034 14.6712 635.524 14.5436C632.717 13.3955 629.401 11.9924 626.467 12.7578C620.089 14.4162 614.604 19.9013 613.201 26.4074C613.074 26.9176 612.946 27.5559 612.946 28.0661C612.563 33.2965 612.053 38.3989 611.671 43.6292L606.568 43.8846C605.931 47.0739 604.4 51.0286 605.165 54.2179C605.93 57.6623 608.482 60.341 609.885 63.5302C611.288 66.7194 612.181 70.036 612.818 73.4804C612.818 73.7355 612.946 74.1185 612.946 74.3736C612.946 73.8633 612.946 73.4811 612.946 72.9708C613.584 76.0325 614.222 79.0932 614.732 82.1549C615.242 85.2165 615.625 88.2787 615.497 91.5955C615.497 93.1263 615.37 95.0396 614.859 96.4429C614.477 97.9737 614.094 99.377 613.711 100.908L611.415 109.838L602.104 145.685L601.466 148.237L599.553 146.45L574.679 123.743L562.179 112.389C558.352 108.307 554.525 104.097 550.826 99.8875C555.418 103.204 559.883 106.649 564.347 110.093L576.848 121.447L599.808 142.368L607.206 113.665L560.52 95.805C554.78 91.8504 547.892 89.81 539.729 90.1927C513.07 91.7236 498.145 128.718 502.993 210.362C503.248 213.807 503.503 217.89 503.758 222.227L511.284 558.5L511.666 576.87H617.666V577.125ZM589.603 331.044C588.965 344.183 588.2 357.323 587.435 370.335C586.032 392.66 584.373 414.984 582.843 437.309L590.624 541.151C595.981 543.83 602.231 544.977 608.354 545.488C608.737 545.488 609.119 545.616 609.63 545.616C610.14 545.743 610.523 545.742 611.033 545.87C611.926 546.125 612.819 546.381 613.584 546.763C615.242 547.529 616.645 548.677 617.921 549.825C620.472 552.249 622.258 555.056 623.788 558.117C626.85 564.113 628.635 570.491 629.783 576.997C628.891 573.808 627.87 570.747 626.595 567.685C625.319 564.624 623.916 561.69 622.258 559.011C620.599 556.332 618.559 553.78 616.135 551.739C614.987 550.718 613.584 549.953 612.308 549.443C611.671 549.188 610.905 548.933 610.267 548.805C609.885 548.678 609.502 548.677 609.247 548.677L608.099 548.55C604.782 548.295 601.466 547.784 598.149 547.019C594.833 546.253 591.644 545.105 588.583 543.574C585.521 542.043 582.715 539.875 580.419 537.068C578.123 534.39 576.592 531.072 575.827 527.628C575.444 525.969 575.189 524.183 575.189 522.525C575.189 520.867 575.062 519.209 575.062 517.551C575.062 514.234 575.189 510.916 575.189 507.599C575.444 500.966 575.827 494.46 576.21 487.954C576.975 474.815 577.868 461.675 578.889 448.663C580.802 422.511 582.715 396.231 584.374 370.079C585.139 356.94 585.904 343.928 586.542 330.788C587.69 317.649 588.455 304.637 589.221 291.497C589.603 304.764 589.603 317.904 589.603 331.044Z" fill="#1E2B3C"/>
<path d="M586.416 330.917C585.778 344.056 585.013 357.07 584.247 370.209C582.589 396.361 580.676 422.64 578.762 448.791C577.869 461.931 576.849 474.943 576.084 488.083C575.701 494.589 575.318 501.223 575.063 507.729C574.936 511.046 574.808 514.362 574.936 517.679C574.936 519.337 574.936 520.996 575.063 522.655C575.191 524.313 575.318 526.099 575.701 527.758C576.466 531.202 577.997 534.518 580.293 537.197C582.589 540.003 585.395 542.045 588.457 543.704C591.518 545.362 594.834 546.382 598.023 547.147C601.34 547.913 604.656 548.423 607.973 548.678L609.121 548.806C609.503 548.806 609.886 548.934 610.141 548.934C610.906 549.061 611.544 549.316 612.182 549.571C613.585 550.082 614.861 550.847 616.009 551.867C618.432 553.781 620.346 556.333 622.131 559.139C623.79 561.946 625.193 564.88 626.468 567.814C627.744 570.875 628.764 573.937 629.657 577.126C628.509 570.62 626.723 564.242 623.662 558.246C622.131 555.312 620.218 552.378 617.795 549.954C616.519 548.806 615.116 547.658 613.458 546.893C612.692 546.51 611.799 546.127 610.906 546C610.524 545.872 610.014 545.744 609.503 545.744C608.993 545.617 608.61 545.617 608.228 545.617C602.105 545.107 595.855 543.958 590.497 541.279C590.242 541.152 590.115 541.152 589.86 541.024C587.053 539.621 584.63 537.708 582.717 535.412C580.803 533.115 579.528 530.308 578.762 527.247C578.38 525.716 578.252 524.186 578.125 522.655C578.125 520.996 577.997 519.465 577.997 517.806C577.997 514.617 578.125 511.301 578.125 507.984C578.38 501.478 578.762 494.844 579.145 488.338C579.91 475.198 580.803 462.187 581.824 449.047C582.079 445.22 582.334 441.264 582.717 437.437C584.375 415.113 585.905 392.788 587.309 370.463C588.074 357.324 588.839 344.184 589.477 331.172C589.605 318.032 589.605 304.894 588.967 291.754C588.329 304.766 587.564 317.777 586.416 330.917Z" fill="#EDCFC5"/>
<path d="M669.959 44.1388V46.6902C669.959 47.4556 670.597 48.0936 671.362 48.0936H682.332C682.46 45.9249 682.715 43.6288 683.098 41.205C683.608 37.633 685.138 34.6992 687.052 31.8926C688.838 29.2137 690.623 26.5343 692.537 23.8554C692.792 23.6002 693.047 23.345 693.302 23.0898H688.327H671.235C670.469 23.0898 669.832 23.7278 669.832 24.4932V27.0446H665.24C663.454 32.6577 662.689 38.3983 662.051 44.2665H669.959V44.1388Z" fill="#E5AA20"/>
<path d="M612.943 26.918H574.421C573.656 26.918 573.018 27.5559 573.018 28.3214V29.7247H560.262C560.007 29.7247 559.752 29.8526 559.497 29.9801C559.114 30.2353 558.859 30.6179 558.859 31.1281V40.058C558.859 40.8234 559.497 41.4614 560.262 41.4614H562.941H572.891V42.8642C572.891 43.6296 573.528 44.2675 574.294 44.2675H611.157C611.54 39.0372 612.05 33.9348 612.433 28.7044C612.688 28.0666 612.816 27.4282 612.943 26.918Z" fill="#E5AA20"/>
<path d="M724.682 23.3452C721.366 26.9172 719.069 26.7897 716.136 23.4729C716.391 25.0038 715.243 27.8099 713.712 28.8305C712.692 29.5959 711.416 29.3408 710.523 28.8305C710.141 29.3408 709.63 29.7236 709.248 30.2339C708.227 31.5096 707.462 33.0403 706.697 34.5711C706.314 35.3365 706.059 36.23 705.676 36.9954C705.293 37.8884 705.038 38.526 704.911 39.2914C704.528 40.8223 704.656 42.3532 705.038 43.8841C705.421 45.2873 706.059 46.5626 706.697 47.9659H731.57H770.347V52.8139C770.347 53.5793 770.985 54.2173 771.75 54.2173H869.969V59.5749C869.969 60.3403 870.606 60.9782 871.371 60.9782H969.335V64.6776C969.335 65.4431 969.973 66.081 970.738 66.081H976.605C977.371 66.081 978.009 65.4431 978.009 64.6776V6.25105C978.009 5.48563 977.371 4.84766 976.605 4.84766H970.738C969.973 4.84766 969.335 5.48563 969.335 6.25105V9.95044H871.371C870.606 9.95044 869.969 10.5884 869.969 11.3538V16.7114H771.75C770.985 16.7114 770.347 17.3493 770.347 18.1148V22.9628H736.29H725.065C724.809 23.2179 724.81 23.3452 724.682 23.3452Z" fill="#E5AA20"/>
<path d="M659.121 62.2539L658.993 62.764L658.355 64.5497L658.993 63.0194C658.993 62.8918 658.993 62.509 659.121 62.2539Z" fill="#1E2B3C"/>
<path d="M576.338 121.828L563.837 110.474C559.373 107.029 554.908 103.585 550.316 100.268C554.016 104.478 557.842 108.688 561.669 112.77L574.17 124.124L599.043 146.831L600.956 148.618L601.594 146.066L610.906 110.218L613.202 101.289C613.584 99.7577 613.967 98.3544 614.35 96.8236C614.86 95.4203 614.988 93.6346 614.988 91.9762C614.988 88.787 614.605 85.5985 614.222 82.5368C613.712 79.4751 613.074 76.4132 612.436 73.3516C612.436 73.8618 612.436 74.2441 612.436 74.7543C612.564 80.495 612.819 86.2353 612.181 91.7208C611.926 93.2517 611.543 94.4003 611.161 96.0587C610.778 97.5895 610.395 98.9928 610.013 100.524L607.717 109.453L606.569 113.918L599.171 142.622L576.338 121.828Z" fill="#EDCFC5"/>
<path d="M645.855 158.568C648.916 147.724 650.319 136.625 651.085 125.527C651.212 122.72 651.34 119.914 651.467 117.235C651.595 115.066 651.595 112.897 651.595 110.856C651.595 110.218 651.595 109.58 651.467 108.943C651.212 103.33 650.829 97.844 650.447 92.3585L650.192 88.2773C650.064 87.5119 650.192 87.0016 650.319 86.3638C650.447 85.7259 650.702 85.0881 650.83 84.4502C651.595 81.7712 652.615 79.2191 653.636 76.6677L656.697 69.0135L658.228 65.1865V65.0594L658.866 63.2729L658.993 62.7628L659.121 62.3803C659.248 62.1252 659.376 61.7422 659.248 61.4871V61.3594V61.4871C659.248 61.7422 659.121 62.1252 658.993 62.3803V62.508L658.61 63.4006L657.845 65.3142L656.187 69.1419L652.87 76.796C652.488 77.689 652.105 78.5815 651.722 79.4745C651.085 81.1329 650.319 82.7913 649.809 84.5773C649.681 85.0876 649.426 85.5976 649.299 86.2354C649.299 86.363 649.171 86.4903 649.171 86.6179C648.916 87.2557 648.916 88.149 648.916 88.7868L648.789 92.9964C648.661 98.4819 648.406 104.095 648.151 109.58C647.896 112.387 648.023 115.066 647.896 117.872C647.768 120.679 647.641 123.358 647.513 126.164C646.748 137.135 645.345 148.107 642.411 158.568C640.88 163.798 639.094 168.901 636.543 173.749C634.12 178.469 630.931 182.933 627.104 186.633C623.277 190.332 618.685 193.139 613.583 194.798C608.609 196.584 603.124 197.094 597.894 196.838C587.179 196.201 576.847 192.119 567.28 186.888C557.714 181.53 548.785 175.152 540.493 168.008C538.453 166.222 536.157 164.563 534.116 162.777C531.947 160.991 529.906 159.205 527.865 157.419C525.824 155.633 523.784 153.72 521.743 151.807C519.702 149.893 517.788 147.979 515.875 145.938C519.191 150.403 522.891 154.612 526.59 158.695C528.503 160.736 530.416 162.777 532.33 164.691C534.243 166.604 536.284 168.645 538.325 170.431C546.871 177.575 555.928 184.21 565.75 189.695C572.255 193.267 579.27 196.328 586.541 198.241C590.24 199.134 593.94 199.773 597.766 200.028C603.506 200.41 609.246 199.772 614.731 197.859C620.216 196.073 625.191 192.884 629.4 188.929C633.099 185.357 636.033 181.275 638.457 176.938C638.839 176.3 639.094 175.789 639.477 175.152C642.283 169.283 644.324 163.926 645.855 158.568Z" fill="#EDCFC5"/>
<path d="M686.285 32.9138C689.219 30.6176 692.025 28.3214 694.831 26.0252C696.107 24.7495 697.255 23.3462 698.531 22.1981L699.423 21.3049C699.678 21.0497 700.061 20.795 700.316 20.4123C700.954 19.902 701.719 19.2638 702.357 18.7535C703.76 17.7329 705.163 16.7122 706.694 16.0744C707.459 15.8193 708.097 15.5641 708.735 15.4365C708.99 15.4365 709.245 15.4367 709.373 15.5642C709.5 15.5642 709.5 15.6919 709.5 15.6919C709.628 15.8195 709.755 15.9473 709.755 15.9473C710.521 16.8403 711.031 18.4983 711.031 20.0292C711.031 21.56 710.776 23.0907 710.011 24.3664C709.755 24.6216 709.628 25.0044 709.373 25.132L708.99 25.515L708.48 26.0252C707.842 26.663 707.077 27.4281 706.566 28.1935C705.418 29.7243 704.526 31.5108 703.633 33.1692C703.25 34.0622 702.867 34.8276 702.485 35.7206C702.102 36.486 701.719 37.5062 701.464 38.5268C700.954 40.5679 701.082 42.7369 701.592 44.6505C702.102 46.564 702.995 48.4772 703.888 50.008C704.781 51.5388 705.419 53.1976 706.184 54.856C707.077 56.3869 707.97 57.9173 708.735 59.5757C709.5 61.2341 710.138 62.765 710.393 64.6785C710.903 62.8925 710.648 60.9791 710.393 59.0656C710.138 57.152 709.628 55.3663 709.118 53.5803C708.352 51.9219 707.587 50.263 706.694 48.6046C706.567 48.4771 706.439 48.222 706.439 48.0945C705.674 46.6912 705.036 45.4159 704.781 44.0126C704.398 42.4818 704.27 40.8233 704.653 39.42C704.781 38.6546 705.036 38.0164 705.419 37.1234C705.801 36.2304 706.056 35.4651 706.439 34.6997C707.204 33.1688 707.97 31.6381 708.99 30.3624C709.373 29.8521 709.755 29.4693 710.266 28.959C710.393 28.8315 710.521 28.704 710.648 28.4489L711.159 28.0664L711.669 27.4286C712.051 27.0459 712.434 26.5356 712.689 26.1529C713.837 24.2393 714.22 22.1979 714.22 20.0292C714.092 17.9881 713.582 15.8198 712.179 14.0338C711.924 13.7786 711.796 13.6511 711.541 13.3959C711.286 13.1408 710.904 12.8857 710.521 12.7581C709.883 12.5029 709.118 12.375 708.48 12.375C707.204 12.375 706.184 12.8855 705.291 13.2682C703.378 14.1612 701.847 15.1817 700.316 16.3298C699.551 16.8401 698.786 17.4778 698.148 18.1156C697.765 18.3708 697.383 18.7539 697.127 19.1366L696.107 20.1569C695.086 21.1774 694.066 22.1979 693.046 23.2184C692.79 23.4735 692.535 23.7288 692.28 23.984C690.367 26.6629 688.581 29.2141 686.795 32.0206C686.795 32.1482 686.54 32.5311 686.285 32.9138Z" fill="#EDCFC5"/>
</svg>
