<svg width="330" height="330" viewBox="0 0 330 330" fill="none" xmlns="http://www.w3.org/2000/svg">
<path fill-rule="evenodd" clip-rule="evenodd" d="M320.993 165.293L257.034 101.334C256.644 100.943 256.011 100.943 255.62 101.334L191.661 165.293C191.271 165.683 191.271 166.317 191.661 166.707L255.62 230.666C256.011 231.057 256.644 231.057 257.034 230.666L320.993 166.707C321.384 166.317 321.384 165.683 320.993 165.293ZM261.984 96.3841C258.86 93.26 253.794 93.26 250.67 96.3841L186.711 160.343C183.587 163.467 183.587 168.533 186.711 171.657L250.67 235.616C253.794 238.74 258.86 238.74 261.984 235.616L325.943 171.657C329.067 168.533 329.067 163.467 325.943 160.343L261.984 96.3841Z" fill="#1E98F5"/>
<path fill-rule="evenodd" clip-rule="evenodd" d="M230.666 255.62L166.707 191.661C166.317 191.271 165.683 191.271 165.293 191.661L101.334 255.62C100.943 256.011 100.943 256.644 101.334 257.034L165.293 320.993C165.683 321.384 166.317 321.384 166.707 320.993L230.666 257.034C231.057 256.644 231.057 256.011 230.666 255.62ZM171.657 186.711C168.533 183.587 163.467 183.587 160.343 186.711L96.3842 250.67C93.26 253.794 93.26 258.86 96.3842 261.984L160.343 325.943C163.467 329.067 168.533 329.067 171.657 325.943L235.616 261.984C238.74 258.86 238.74 253.794 235.616 250.67L171.657 186.711Z" fill="#68707C"/>
<path fill-rule="evenodd" clip-rule="evenodd" d="M140.339 165.293L76.38 101.334C75.9894 100.943 75.3563 100.943 74.9657 101.334L11.0068 165.293C10.6163 165.683 10.6163 166.317 11.0068 166.707L74.9657 230.666C75.3563 231.057 75.9894 231.057 76.38 230.666L140.339 166.707C140.729 166.317 140.729 165.683 140.339 165.293ZM81.3297 96.3841C78.2055 93.26 73.1402 93.26 70.016 96.3841L6.05705 160.343C2.93286 163.467 2.93286 168.533 6.05705 171.657L70.016 235.616C73.1402 238.74 78.2055 238.74 81.3297 235.616L145.289 171.657C148.413 168.533 148.413 163.467 145.289 160.343L81.3297 96.3841Z" fill="#E5AA20"/>
<path fill-rule="evenodd" clip-rule="evenodd" d="M230.666 74.9657L166.707 11.0067C166.317 10.6162 165.683 10.6162 165.293 11.0067L101.334 74.9657C100.943 75.3562 100.943 75.9894 101.334 76.3799L165.293 140.339C165.683 140.729 166.317 140.729 166.707 140.339L230.666 76.3799C231.057 75.9894 231.057 75.3562 230.666 74.9657ZM171.657 6.057C168.533 2.93281 163.467 2.93281 160.343 6.057L96.3842 70.0159C93.26 73.1401 93.26 78.2055 96.3842 81.3297L160.343 145.289C163.467 148.413 168.533 148.413 171.657 145.289L235.616 81.3297C238.74 78.2055 238.74 73.1401 235.616 70.0159L171.657 6.057Z" fill="#F45F63"/>
</svg>
