<svg width="341" height="36" viewBox="0 0 341 36" fill="none" xmlns="http://www.w3.org/2000/svg">
<path d="M16.4135 2H0.647731C0.47698 2.00331 0.314148 2.07251 0.193386 2.19309C0.0726244 2.31366 0.00331648 2.47624 0 2.64673V33.3533C0.00331648 33.5238 0.0726244 33.6863 0.193386 33.8069C0.314148 33.9275 0.47698 33.9967 0.647731 34H16.4135C20.6636 34 24.7395 32.3143 27.7448 29.3137C30.75 26.3131 32.4384 22.2435 32.4384 18C32.4384 13.7565 30.75 9.68687 27.7448 6.68629C24.7395 3.68571 20.6636 2 16.4135 2ZM17.9551 29.1625C15.5697 29.5724 13.1156 29.2136 10.948 28.138C8.7805 27.0625 7.01208 25.326 5.89885 23.1801C4.78561 21.0341 4.38535 18.5901 4.75601 16.2019C5.12668 13.8137 6.24903 11.6053 7.96055 9.89646C9.67207 8.1876 11.8839 7.06698 14.2758 6.6969C16.6677 6.32681 19.1155 6.72645 21.2648 7.83796C23.4141 8.94946 25.1532 10.7151 26.2304 12.8793C27.3077 15.0435 27.667 17.4938 27.2565 19.8755C26.857 22.1933 25.7483 24.3306 24.0827 25.9936C22.4171 27.6566 20.2765 28.7636 17.9551 29.1625Z" fill="#1E2B3C"/>
<path d="M47.8354 29V7.18182H61.3652V10.0156H51.1273V16.6634H60.3957V19.4865H51.1273V29H47.8354ZM71.0392 29.3303C69.427 29.3303 68.0385 28.9858 66.8737 28.2969C65.716 27.6009 64.8212 26.6243 64.1891 25.3672C63.5641 24.103 63.2516 22.6222 63.2516 20.9247C63.2516 19.2486 63.5641 17.7713 64.1891 16.4929C64.8212 15.2145 65.7018 14.2166 66.8311 13.4993C67.9675 12.782 69.2956 12.4233 70.8155 12.4233C71.7388 12.4233 72.6337 12.576 73.5001 12.8814C74.3666 13.1868 75.1443 13.6662 75.8332 14.3196C76.5222 14.973 77.0655 15.8217 77.4632 16.8658C77.8609 17.9027 78.0598 19.1634 78.0598 20.6477V21.777H65.052V19.3906H74.9383C74.9383 18.5526 74.7679 17.8104 74.427 17.1641C74.0861 16.5107 73.6067 15.9957 72.9888 15.6193C72.378 15.2429 71.6606 15.0547 70.8368 15.0547C69.9419 15.0547 69.1606 15.2749 68.493 15.7152C67.8325 16.1484 67.3212 16.7166 66.9589 17.4197C66.6038 18.1158 66.4263 18.8722 66.4263 19.6889V21.5533C66.4263 22.647 66.618 23.5774 67.0016 24.3445C67.3922 25.1115 67.9355 25.6974 68.6315 26.1023C69.3276 26.5 70.1408 26.6989 71.0712 26.6989C71.6749 26.6989 72.2253 26.6136 72.7224 26.4432C73.2196 26.2656 73.6493 26.0028 74.0115 25.6548C74.3737 25.3068 74.6507 24.8771 74.8425 24.3658L77.8574 24.9091C77.6159 25.7969 77.1827 26.5746 76.5577 27.2422C75.9398 27.9027 75.1621 28.4176 74.2246 28.7869C73.2942 29.1491 72.2324 29.3303 71.0392 29.3303ZM84.8094 7.18182V29H81.6241V7.18182H84.8094ZM92.3101 7.18182V29H89.1248V7.18182H92.3101ZM103.678 29.3303C102.066 29.3303 100.677 28.9858 99.5125 28.2969C98.3549 27.6009 97.46 26.6243 96.8279 25.3672C96.2029 24.103 95.8904 22.6222 95.8904 20.9247C95.8904 19.2486 96.2029 17.7713 96.8279 16.4929C97.46 15.2145 98.3407 14.2166 99.4699 13.4993C100.606 12.782 101.934 12.4233 103.454 12.4233C104.378 12.4233 105.272 12.576 106.139 12.8814C107.005 13.1868 107.783 13.6662 108.472 14.3196C109.161 14.973 109.704 15.8217 110.102 16.8658C110.5 17.9027 110.699 19.1634 110.699 20.6477V21.777H97.6908V19.3906H107.577C107.577 18.5526 107.407 17.8104 107.066 17.1641C106.725 16.5107 106.245 15.9957 105.628 15.6193C105.017 15.2429 104.299 15.0547 103.476 15.0547C102.581 15.0547 101.799 15.2749 101.132 15.7152C100.471 16.1484 99.96 16.7166 99.5978 17.4197C99.2427 18.1158 99.0651 18.8722 99.0651 19.6889V21.5533C99.0651 22.647 99.2569 23.5774 99.6404 24.3445C100.031 25.1115 100.574 25.6974 101.27 26.1023C101.966 26.5 102.78 26.6989 103.71 26.6989C104.314 26.6989 104.864 26.6136 105.361 26.4432C105.858 26.2656 106.288 26.0028 106.65 25.6548C107.013 25.3068 107.29 24.8771 107.481 24.3658L110.496 24.9091C110.255 25.7969 109.821 26.5746 109.196 27.2422C108.579 27.9027 107.801 28.4176 106.863 28.7869C105.933 29.1491 104.871 29.3303 103.678 29.3303ZM126.525 16.6314L123.638 17.1428C123.517 16.7734 123.325 16.4219 123.063 16.0881C122.807 15.7543 122.459 15.4808 122.019 15.2678C121.578 15.0547 121.028 14.9482 120.367 14.9482C119.465 14.9482 118.712 15.1506 118.109 15.5554C117.505 15.9531 117.203 16.468 117.203 17.1001C117.203 17.647 117.406 18.0874 117.81 18.4212C118.215 18.755 118.869 19.0284 119.771 19.2415L122.37 19.8381C123.876 20.1861 124.998 20.7223 125.737 21.4467C126.475 22.1712 126.845 23.1122 126.845 24.2699C126.845 25.25 126.56 26.1236 125.992 26.8906C125.431 27.6506 124.646 28.2472 123.638 28.6804C122.636 29.1136 121.475 29.3303 120.154 29.3303C118.322 29.3303 116.827 28.9396 115.669 28.1584C114.511 27.37 113.801 26.2514 113.538 24.8026L116.617 24.3338C116.809 25.1364 117.203 25.7436 117.8 26.1555C118.396 26.5604 119.174 26.7628 120.133 26.7628C121.177 26.7628 122.011 26.5462 122.636 26.1129C123.261 25.6726 123.574 25.1364 123.574 24.5043C123.574 23.9929 123.382 23.5632 122.999 23.2152C122.622 22.8672 122.043 22.6044 121.262 22.4268L118.492 21.8196C116.965 21.4716 115.836 20.9176 115.105 20.1577C114.38 19.3977 114.018 18.4354 114.018 17.2706C114.018 16.3047 114.288 15.4595 114.828 14.7351C115.367 14.0107 116.113 13.446 117.065 13.0412C118.016 12.6293 119.107 12.4233 120.335 12.4233C122.104 12.4233 123.496 12.8068 124.511 13.5739C125.527 14.3338 126.198 15.353 126.525 16.6314ZM145.665 29H138.602V7.18182H145.889C148.027 7.18182 149.863 7.61861 151.397 8.49219C152.931 9.35866 154.106 10.6051 154.923 12.2315C155.747 13.8509 156.159 15.7933 156.159 18.0589C156.159 20.3317 155.743 22.2848 154.912 23.9183C154.089 25.5518 152.895 26.8089 151.333 27.6896C149.77 28.5632 147.881 29 145.665 29ZM141.894 26.1236H145.484C147.146 26.1236 148.527 25.8111 149.628 25.1861C150.729 24.554 151.553 23.6413 152.1 22.4482C152.647 21.2479 152.92 19.7848 152.92 18.0589C152.92 16.3473 152.647 14.8949 152.1 13.7017C151.56 12.5085 150.754 11.603 149.682 10.9851C148.609 10.3672 147.277 10.0582 145.687 10.0582H141.894V26.1236ZM167.079 29.3303C165.467 29.3303 164.079 28.9858 162.914 28.2969C161.756 27.6009 160.861 26.6243 160.229 25.3672C159.604 24.103 159.292 22.6222 159.292 20.9247C159.292 19.2486 159.604 17.7713 160.229 16.4929C160.861 15.2145 161.742 14.2166 162.871 13.4993C164.008 12.782 165.336 12.4233 166.856 12.4233C167.779 12.4233 168.674 12.576 169.54 12.8814C170.407 13.1868 171.184 13.6662 171.873 14.3196C172.562 14.973 173.106 15.8217 173.503 16.8658C173.901 17.9027 174.1 19.1634 174.1 20.6477V21.777H161.092V19.3906H170.978C170.978 18.5526 170.808 17.8104 170.467 17.1641C170.126 16.5107 169.647 15.9957 169.029 15.6193C168.418 15.2429 167.701 15.0547 166.877 15.0547C165.982 15.0547 165.201 15.2749 164.533 15.7152C163.873 16.1484 163.361 16.7166 162.999 17.4197C162.644 18.1158 162.466 18.8722 162.466 19.6889V21.5533C162.466 22.647 162.658 23.5774 163.042 24.3445C163.432 25.1115 163.976 25.6974 164.672 26.1023C165.368 26.5 166.181 26.6989 167.111 26.6989C167.715 26.6989 168.265 26.6136 168.763 26.4432C169.26 26.2656 169.689 26.0028 170.052 25.6548C170.414 25.3068 170.691 24.8771 170.883 24.3658L173.897 24.9091C173.656 25.7969 173.223 26.5746 172.598 27.2422C171.98 27.9027 171.202 28.4176 170.265 28.7869C169.334 29.1491 168.272 29.3303 167.079 29.3303ZM189.926 16.6314L187.039 17.1428C186.918 16.7734 186.727 16.4219 186.464 16.0881C186.208 15.7543 185.86 15.4808 185.42 15.2678C184.979 15.0547 184.429 14.9482 183.769 14.9482C182.867 14.9482 182.114 15.1506 181.51 15.5554C180.906 15.9531 180.604 16.468 180.604 17.1001C180.604 17.647 180.807 18.0874 181.212 18.4212C181.617 18.755 182.27 19.0284 183.172 19.2415L185.771 19.8381C187.277 20.1861 188.399 20.7223 189.138 21.4467C189.877 22.1712 190.246 23.1122 190.246 24.2699C190.246 25.25 189.962 26.1236 189.394 26.8906C188.832 27.6506 188.048 28.2472 187.039 28.6804C186.038 29.1136 184.877 29.3303 183.555 29.3303C181.723 29.3303 180.228 28.9396 179.07 28.1584C177.913 27.37 177.202 26.2514 176.94 24.8026L180.019 24.3338C180.21 25.1364 180.604 25.7436 181.201 26.1555C181.798 26.5604 182.575 26.7628 183.534 26.7628C184.578 26.7628 185.413 26.5462 186.038 26.1129C186.663 25.6726 186.975 25.1364 186.975 24.5043C186.975 23.9929 186.783 23.5632 186.4 23.2152C186.024 22.8672 185.445 22.6044 184.663 22.4268L181.894 21.8196C180.367 21.4716 179.237 20.9176 178.506 20.1577C177.781 19.3977 177.419 18.4354 177.419 17.2706C177.419 16.3047 177.689 15.4595 178.229 14.7351C178.769 14.0107 179.514 13.446 180.466 13.0412C181.418 12.6293 182.508 12.4233 183.737 12.4233C185.505 12.4233 186.897 12.8068 187.913 13.5739C188.928 14.3338 189.6 15.353 189.926 16.6314ZM193.778 29V12.6364H196.963V29H193.778ZM195.387 10.1115C194.833 10.1115 194.357 9.92685 193.959 9.55753C193.569 9.18111 193.373 8.73366 193.373 8.2152C193.373 7.68963 193.569 7.24219 193.959 6.87287C194.357 6.49645 194.833 6.30824 195.387 6.30824C195.941 6.30824 196.413 6.49645 196.804 6.87287C197.201 7.24219 197.4 7.68963 197.4 8.2152C197.4 8.73366 197.201 9.18111 196.804 9.55753C196.413 9.92685 195.941 10.1115 195.387 10.1115ZM208.14 35.4773C206.84 35.4773 205.721 35.3068 204.784 34.9659C203.853 34.625 203.093 34.174 202.504 33.6129C201.914 33.0518 201.474 32.4375 201.183 31.7699L203.921 30.6406C204.113 30.9531 204.368 31.2834 204.688 31.6314C205.015 31.9865 205.455 32.2884 206.009 32.5369C206.57 32.7855 207.291 32.9098 208.172 32.9098C209.379 32.9098 210.377 32.6151 211.165 32.0256C211.954 31.4432 212.348 30.5128 212.348 29.2344V26.017H212.145C211.954 26.3651 211.677 26.7521 211.314 27.1783C210.959 27.6044 210.469 27.9737 209.844 28.2862C209.219 28.5987 208.406 28.755 207.405 28.755C206.112 28.755 204.947 28.4531 203.91 27.8494C202.88 27.2386 202.064 26.3402 201.46 25.1541C200.863 23.9609 200.565 22.4943 200.565 20.7543C200.565 19.0142 200.86 17.5227 201.449 16.2798C202.046 15.0369 202.863 14.0852 203.9 13.4247C204.937 12.7571 206.112 12.4233 207.426 12.4233C208.441 12.4233 209.262 12.5938 209.887 12.9347C210.512 13.2685 210.998 13.6591 211.346 14.1065C211.701 14.554 211.975 14.9482 212.167 15.2891H212.401V12.6364H215.522V29.3622C215.522 30.7685 215.196 31.9226 214.542 32.8246C213.889 33.7266 213.005 34.3942 211.89 34.8274C210.782 35.2607 209.532 35.4773 208.14 35.4773ZM208.108 26.1129C209.024 26.1129 209.798 25.8999 210.43 25.4737C211.069 25.0405 211.552 24.4226 211.879 23.62C212.213 22.8104 212.38 21.8409 212.38 20.7116C212.38 19.6108 212.216 18.6413 211.89 17.8033C211.563 16.9652 211.084 16.3118 210.451 15.843C209.819 15.3672 209.038 15.1293 208.108 15.1293C207.149 15.1293 206.35 15.3778 205.711 15.875C205.071 16.3651 204.588 17.0327 204.262 17.8778C203.942 18.723 203.782 19.6676 203.782 20.7116C203.782 21.7841 203.946 22.7251 204.272 23.5348C204.599 24.3445 205.082 24.9766 205.721 25.4311C206.368 25.8857 207.163 26.1129 208.108 26.1129ZM223.01 19.2841V29H219.824V12.6364H222.882V15.2997H223.084C223.461 14.4332 224.05 13.7372 224.853 13.2116C225.663 12.6861 226.682 12.4233 227.91 12.4233C229.025 12.4233 230.002 12.6577 230.84 13.1264C231.678 13.5881 232.328 14.277 232.79 15.1932C233.251 16.1094 233.482 17.2422 233.482 18.5916V29H230.297V18.9751C230.297 17.7891 229.988 16.8622 229.37 16.1946C228.752 15.5199 227.903 15.1825 226.824 15.1825C226.085 15.1825 225.428 15.3423 224.853 15.6619C224.285 15.9815 223.834 16.4503 223.5 17.0682C223.173 17.679 223.01 18.4176 223.01 19.2841ZM250.046 16.6314L247.159 17.1428C247.038 16.7734 246.847 16.4219 246.584 16.0881C246.328 15.7543 245.98 15.4808 245.54 15.2678C245.099 15.0547 244.549 14.9482 243.889 14.9482C242.987 14.9482 242.234 15.1506 241.63 15.5554C241.026 15.9531 240.724 16.468 240.724 17.1001C240.724 17.647 240.927 18.0874 241.332 18.4212C241.737 18.755 242.39 19.0284 243.292 19.2415L245.891 19.8381C247.397 20.1861 248.519 20.7223 249.258 21.4467C249.997 22.1712 250.366 23.1122 250.366 24.2699C250.366 25.25 250.082 26.1236 249.514 26.8906C248.952 27.6506 248.168 28.2472 247.159 28.6804C246.158 29.1136 244.997 29.3303 243.675 29.3303C241.843 29.3303 240.348 28.9396 239.19 28.1584C238.033 27.37 237.322 26.2514 237.06 24.8026L240.139 24.3338C240.33 25.1364 240.724 25.7436 241.321 26.1555C241.918 26.5604 242.695 26.7628 243.654 26.7628C244.698 26.7628 245.533 26.5462 246.158 26.1129C246.783 25.6726 247.095 25.1364 247.095 24.5043C247.095 23.9929 246.903 23.5632 246.52 23.2152C246.144 22.8672 245.565 22.6044 244.783 22.4268L242.014 21.8196C240.487 21.4716 239.357 20.9176 238.626 20.1577C237.901 19.3977 237.539 18.4354 237.539 17.2706C237.539 16.3047 237.809 15.4595 238.349 14.7351C238.889 14.0107 239.634 13.446 240.586 13.0412C241.538 12.6293 242.628 12.4233 243.857 12.4233C245.625 12.4233 247.017 12.8068 248.033 13.5739C249.048 14.3338 249.72 15.353 250.046 16.6314ZM255.912 35.1364C255.436 35.1364 255.003 35.0973 254.612 35.0192C254.221 34.9482 253.93 34.87 253.738 34.7848L254.505 32.1747C255.088 32.331 255.606 32.3984 256.061 32.3771C256.515 32.3558 256.917 32.1854 257.265 31.8658C257.62 31.5462 257.932 31.0241 258.202 30.2997L258.596 29.2131L252.609 12.6364H256.018L260.162 25.3352H260.333L264.477 12.6364H267.897L261.153 31.1839C260.841 32.0362 260.443 32.7571 259.96 33.3466C259.477 33.9432 258.902 34.3906 258.234 34.6889C257.566 34.9872 256.792 35.1364 255.912 35.1364ZM283.182 16.6314L280.295 17.1428C280.175 16.7734 279.983 16.4219 279.72 16.0881C279.464 15.7543 279.116 15.4808 278.676 15.2678C278.236 15.0547 277.685 14.9482 277.025 14.9482C276.123 14.9482 275.37 15.1506 274.766 15.5554C274.162 15.9531 273.861 16.468 273.861 17.1001C273.861 17.647 274.063 18.0874 274.468 18.4212C274.873 18.755 275.526 19.0284 276.428 19.2415L279.028 19.8381C280.533 20.1861 281.655 20.7223 282.394 21.4467C283.133 22.1712 283.502 23.1122 283.502 24.2699C283.502 25.25 283.218 26.1236 282.65 26.8906C282.089 27.6506 281.304 28.2472 280.295 28.6804C279.294 29.1136 278.133 29.3303 276.812 29.3303C274.979 29.3303 273.484 28.9396 272.327 28.1584C271.169 27.37 270.459 26.2514 270.196 24.8026L273.275 24.3338C273.466 25.1364 273.861 25.7436 274.457 26.1555C275.054 26.5604 275.832 26.7628 276.79 26.7628C277.834 26.7628 278.669 26.5462 279.294 26.1129C279.919 25.6726 280.231 25.1364 280.231 24.5043C280.231 23.9929 280.04 23.5632 279.656 23.2152C279.28 22.8672 278.701 22.6044 277.92 22.4268L275.15 21.8196C273.623 21.4716 272.493 20.9176 271.762 20.1577C271.037 19.3977 270.675 18.4354 270.675 17.2706C270.675 16.3047 270.945 15.4595 271.485 14.7351C272.025 14.0107 272.77 13.446 273.722 13.0412C274.674 12.6293 275.764 12.4233 276.993 12.4233C278.761 12.4233 280.153 12.8068 281.169 13.5739C282.185 14.3338 282.856 15.353 283.182 16.6314ZM294.673 12.6364V15.1932H285.735V12.6364H294.673ZM288.132 8.71591H291.317V24.1953C291.317 24.8132 291.409 25.2784 291.594 25.5909C291.779 25.8963 292.017 26.1058 292.308 26.2195C292.606 26.326 292.929 26.3793 293.277 26.3793C293.533 26.3793 293.757 26.3615 293.948 26.326C294.14 26.2905 294.289 26.2621 294.396 26.2408L294.971 28.8722C294.786 28.9432 294.524 29.0142 294.183 29.0852C293.842 29.1634 293.416 29.206 292.904 29.2131C292.066 29.2273 291.285 29.0781 290.561 28.7656C289.836 28.4531 289.25 27.9702 288.803 27.3168C288.355 26.6634 288.132 25.843 288.132 24.8558V8.71591ZM305.103 29.3303C303.491 29.3303 302.102 28.9858 300.938 28.2969C299.78 27.6009 298.885 26.6243 298.253 25.3672C297.628 24.103 297.316 22.6222 297.316 20.9247C297.316 19.2486 297.628 17.7713 298.253 16.4929C298.885 15.2145 299.766 14.2166 300.895 13.4993C302.031 12.782 303.36 12.4233 304.879 12.4233C305.803 12.4233 306.698 12.576 307.564 12.8814C308.431 13.1868 309.208 13.6662 309.897 14.3196C310.586 14.973 311.129 15.8217 311.527 16.8658C311.925 17.9027 312.124 19.1634 312.124 20.6477V21.777H299.116V19.3906H309.002C309.002 18.5526 308.832 17.8104 308.491 17.1641C308.15 16.5107 307.671 15.9957 307.053 15.6193C306.442 15.2429 305.725 15.0547 304.901 15.0547C304.006 15.0547 303.225 15.2749 302.557 15.7152C301.897 16.1484 301.385 16.7166 301.023 17.4197C300.668 18.1158 300.49 18.8722 300.49 19.6889V21.5533C300.49 22.647 300.682 23.5774 301.066 24.3445C301.456 25.1115 301.999 25.6974 302.696 26.1023C303.392 26.5 304.205 26.6989 305.135 26.6989C305.739 26.6989 306.289 26.6136 306.786 26.4432C307.284 26.2656 307.713 26.0028 308.075 25.6548C308.438 25.3068 308.715 24.8771 308.906 24.3658L311.921 24.9091C311.68 25.7969 311.247 26.5746 310.622 27.2422C310.004 27.9027 309.226 28.4176 308.289 28.7869C307.358 29.1491 306.296 29.3303 305.103 29.3303ZM315.688 29V12.6364H318.746V15.2997H318.948C319.289 14.3977 319.846 13.6946 320.621 13.1903C321.395 12.679 322.322 12.4233 323.401 12.4233C324.495 12.4233 325.411 12.679 326.15 13.1903C326.895 13.7017 327.446 14.4048 327.801 15.2997H327.971C328.362 14.4261 328.984 13.7301 329.836 13.2116C330.688 12.6861 331.704 12.4233 332.883 12.4233C334.367 12.4233 335.578 12.8885 336.515 13.8189C337.46 14.7493 337.932 16.152 337.932 18.027V29H334.747V18.3253C334.747 17.2173 334.445 16.4148 333.841 15.9176C333.238 15.4205 332.517 15.1719 331.679 15.1719C330.642 15.1719 329.836 15.4915 329.261 16.1307C328.685 16.7628 328.398 17.576 328.398 18.5703V29H325.223V18.1229C325.223 17.2351 324.946 16.5213 324.392 15.9815C323.838 15.4418 323.117 15.1719 322.229 15.1719C321.626 15.1719 321.068 15.3317 320.557 15.6513C320.052 15.9638 319.644 16.4006 319.332 16.9616C319.026 17.5227 318.873 18.1726 318.873 18.9112V29H315.688Z" fill="#1E2B3C"/>
</svg>
