<?xml version="1.0" encoding="UTF-8"?>
<svg id="Layer_1" xmlns="http://www.w3.org/2000/svg" viewBox="0 0 694.96 200">
  <defs>
    <style>
      .cls-1 {
        fill: #fdfeff;
      }

      .cls-2 {
        fill: #fff;
      }
    </style>
  </defs>
  <g>
    <g>
      <path class="cls-2" d="M258.1,167.42h-6.41l-.33-7.57c-1.66,2.83-3.88,4.92-6.66,6.28-2.77,1.36-5.69,2.04-8.74,2.04s-5.67-.47-8.2-1.41c-2.52-.94-4.73-2.33-6.62-4.16-1.89-1.83-3.36-4.06-4.41-6.7-1.05-2.64-1.58-5.65-1.58-9.03s.53-6.49,1.58-9.15,2.52-4.9,4.41-6.7,4.08-3.16,6.57-4.08c2.5-.92,5.22-1.37,8.16-1.37,1.44,0,2.93.17,4.45.5,1.53.33,2.97.85,4.33,1.54s2.62,1.55,3.79,2.58c1.17,1.03,2.11,2.23,2.83,3.62v-22.34l6.82-2.48v58.44ZM230.85,132.85c-1.75.64-3.29,1.6-4.62,2.87-1.33,1.28-2.37,2.84-3.12,4.7-.75,1.86-1.12,3.98-1.12,6.37s.37,4.49,1.12,6.33c.75,1.83,1.79,3.38,3.12,4.66,1.33,1.28,2.87,2.25,4.62,2.91,1.75.67,3.62,1,5.62,1s3.97-.36,5.74-1.08c1.78-.72,3.32-1.73,4.62-3.04,1.3-1.3,2.33-2.87,3.08-4.7.75-1.83,1.12-3.88,1.12-6.16s-.38-4.23-1.12-6.03c-.75-1.8-1.79-3.36-3.12-4.66-1.33-1.3-2.89-2.32-4.66-3.04s-3.69-1.08-5.74-1.08h.08c-2,0-3.87.32-5.62.96Z"/>
      <path class="cls-2" d="M271.42,112.4c.94-.75,1.97-1.12,3.08-1.12s2.14.37,3.08,1.12c.94.75,1.41,1.87,1.41,3.37s-.47,2.61-1.41,3.33c-.94.72-1.97,1.08-3.08,1.08s-2.14-.38-3.08-1.12c-.94-.75-1.41-1.87-1.41-3.37s.47-2.54,1.41-3.29ZM277.82,126.31v41.11h-6.82v-41.11h6.82Z"/>
      <path class="cls-2" d="M297.63,132.39c1.44-2.66,3.32-4.47,5.62-5.41,2.3-.94,4.65-1.42,7.03-1.42,1.78-.05,3.5.21,5.16.79,1.67.58,3.13,1.34,4.41,2.29l-3.08,5.83c-1.11-.78-2.22-1.35-3.33-1.71-1.11-.36-2.39-.54-3.83-.54-1.66,0-3.22.29-4.66.87-1.44.58-2.72,1.4-3.83,2.46-1.11,1.05-1.98,2.34-2.62,3.87-.64,1.53-.96,3.23-.96,5.12v22.89h-6.82v-41.11h6.41s.49,6.07.49,6.07Z"/>
      <path class="cls-2" d="M353.57,166.38c-3.25,1.19-6.48,1.79-9.69,1.79s-6.08-.5-8.74-1.5c-2.66-1-4.95-2.44-6.87-4.33-1.91-1.89-3.4-4.15-4.45-6.78-1.05-2.64-1.58-5.59-1.58-8.86s.53-5.96,1.58-8.57c1.05-2.61,2.52-4.85,4.41-6.74,1.89-1.89,4.13-3.35,6.74-4.41,2.61-1.05,5.46-1.58,8.57-1.58s6.07.49,8.74,1.46c2.66.97,4.94,2.46,6.82,4.45,1.89,2,3.29,4.51,4.2,7.53.91,3.02,1.18,6.59.79,10.69h-34.95c.17,1.89.67,3.59,1.5,5.12s1.91,2.82,3.25,3.87c1.33,1.05,2.86,1.87,4.58,2.46,1.72.58,3.58.87,5.58.87,1.17,0,2.37-.11,3.62-.33,1.25-.22,2.46-.56,3.62-1,1.16-.44,2.26-.98,3.29-1.62,1.03-.64,1.87-1.37,2.54-2.21l4.53,4.12-.04.04c-2.11,2.49-4.78,4.34-8.03,5.53ZM353.57,134.72c-2.52-2.11-5.81-3.16-9.86-3.16-3.61,0-6.78,1.04-9.53,3.12-2.75,2.08-4.42,5.12-5.03,9.11h28.46v.08c-.17-3.99-1.51-7.05-4.04-9.15Z"/>
      <path class="cls-2" d="M397.64,126.31h8.49v.42l-18.97,18.97,21.3,21.22v.5h-8.32l-19.39-19.39v19.39h-6.74v-55.99l6.74-2.45v34.64l16.89-17.31Z"/>
      <path class="cls-2" d="M440,126.31v5.82h-12.82v21.8c0,2.44.46,4.37,1.37,5.78.92,1.42,2.62,2.12,5.12,2.12.94,0,1.9-.14,2.87-.42.97-.28,1.93-.64,2.87-1.08l2,5.66c-1.39.61-2.72,1.08-3.99,1.42-1.28.33-2.61.53-3.99.58-4.44.11-7.71-1.07-9.82-3.54-2.11-2.47-3.16-5.98-3.16-10.53v-21.8h-8.24v-5.82h8.24v-11.05l6.82-2.48v13.53h12.73Z"/>
      <path class="cls-2" d="M448.11,138.21c1.08-2.66,2.57-4.94,4.45-6.82,1.89-1.89,4.13-3.35,6.74-4.41,2.61-1.05,5.44-1.58,8.49-1.58s6.05.53,8.65,1.58c2.61,1.05,4.85,2.52,6.74,4.41,1.89,1.89,3.36,4.16,4.41,6.82,1.05,2.66,1.58,5.58,1.58,8.74s-.53,5.96-1.58,8.57c-1.05,2.61-2.54,4.85-4.45,6.74-1.91,1.89-4.18,3.34-6.78,4.37-2.61,1.03-5.46,1.54-8.57,1.54s-5.95-.51-8.53-1.54c-2.58-1.03-4.83-2.48-6.74-4.37-1.91-1.89-3.4-4.13-4.45-6.74-1.05-2.61-1.58-5.47-1.58-8.57s.54-6.07,1.62-8.74ZM481.32,140.71c-.75-1.89-1.78-3.49-3.08-4.83-1.3-1.33-2.84-2.37-4.62-3.12-1.78-.75-3.69-1.12-5.74-1.12s-4.05.37-5.83,1.12c-1.77.75-3.31,1.79-4.62,3.12-1.3,1.33-2.32,2.94-3.04,4.83-.72,1.89-1.08,3.97-1.08,6.24s.36,4.15,1.08,5.95c.72,1.8,1.72,3.37,3,4.7,1.28,1.33,2.8,2.36,4.58,3.08,1.78.72,3.72,1.08,5.83,1.08s4.06-.36,5.87-1.08c1.8-.72,3.34-1.75,4.62-3.08,1.28-1.33,2.29-2.9,3.04-4.7.75-1.8,1.12-3.79,1.12-5.95,0-2.27-.38-4.35-1.12-6.24Z"/>
      <path class="cls-2" d="M506.32,132.39c1.44-2.66,3.32-4.47,5.62-5.41s4.65-1.42,7.03-1.42c1.77-.05,3.49.21,5.16.79,1.66.58,3.13,1.34,4.41,2.29l-3.08,5.83c-1.11-.78-2.22-1.35-3.33-1.71-1.11-.36-2.39-.54-3.83-.54-1.66,0-3.22.29-4.66.87-1.44.58-2.72,1.4-3.83,2.46-1.11,1.05-1.98,2.34-2.62,3.87-.64,1.53-.96,3.23-.96,5.12v22.89h-6.82v-41.11h6.42s.49,6.07.49,6.07Z"/>
      <path class="cls-2" d="M567.14,160.1c-.83,1.44-1.82,2.68-2.95,3.7-1.14,1.03-2.37,1.89-3.7,2.58-1.33.69-2.73,1.21-4.2,1.54-1.47.33-2.9.5-4.29.5-2.94,0-5.7-.5-8.28-1.5-2.58-1-4.81-2.43-6.7-4.29-1.89-1.86-3.37-4.12-4.45-6.78-1.08-2.66-1.62-5.66-1.62-8.99s.56-6.31,1.67-8.95c1.11-2.63,2.62-4.87,4.54-6.7,1.91-1.83,4.15-3.22,6.7-4.16,2.55-.94,5.3-1.42,8.24-1.42,3.11,0,6.05.69,8.82,2.08,2.77,1.39,4.91,3.41,6.41,6.07l.08-7.49h6.66v41.11h-6.75s-.16-7.32-.16-7.32ZM546.58,133.18c-1.77.69-3.33,1.69-4.66,3-1.33,1.3-2.39,2.89-3.16,4.74-.78,1.86-1.16,3.93-1.16,6.2s.39,4.34,1.16,6.2c.78,1.86,1.83,3.44,3.16,4.74,1.33,1.3,2.89,2.32,4.66,3.04,1.78.72,3.69,1.08,5.74,1.08,3.27,0,6.02-.75,8.24-2.25,2.22-1.5,3.88-3.36,4.99-5.58,1.11-2.22,1.67-4.63,1.67-7.24s-.56-5.02-1.67-7.24c-1.11-2.22-2.76-4.08-4.95-5.58-2.19-1.5-4.95-2.22-8.28-2.16-2.05,0-3.97.35-5.74,1.04Z"/>
      <path class="cls-2" d="M611.24,126.31v5.82h-12.81v21.8c0,2.44.46,4.37,1.37,5.78.92,1.42,2.62,2.12,5.12,2.12.94,0,1.9-.14,2.87-.42.97-.28,1.93-.64,2.87-1.08l2,5.66c-1.39.61-2.72,1.08-4,1.42-1.28.33-2.61.53-3.99.58-4.44.11-7.71-1.07-9.82-3.54-2.11-2.47-3.16-5.98-3.16-10.53v-21.8h-8.24v-5.82h8.24v-11.05l6.82-2.48v13.53h12.73Z"/>
      <path class="cls-2" d="M649.15,166.38c-3.25,1.19-6.48,1.79-9.69,1.79s-6.08-.5-8.74-1.5c-2.66-1-4.95-2.44-6.86-4.33-1.91-1.89-3.4-4.15-4.45-6.78-1.05-2.64-1.58-5.59-1.58-8.86s.53-5.96,1.58-8.57c1.05-2.61,2.53-4.85,4.41-6.74,1.89-1.89,4.13-3.35,6.74-4.41,2.61-1.05,5.47-1.58,8.57-1.58s6.08.49,8.74,1.46c2.66.97,4.94,2.46,6.82,4.45,1.89,2,3.29,4.51,4.2,7.53.91,3.02,1.18,6.59.79,10.69h-34.95c.17,1.89.67,3.59,1.5,5.12.83,1.53,1.91,2.82,3.25,3.87,1.33,1.05,2.86,1.87,4.58,2.46,1.72.58,3.58.87,5.58.87,1.16,0,2.37-.11,3.62-.33,1.25-.22,2.46-.56,3.62-1,1.17-.44,2.26-.98,3.29-1.62,1.03-.64,1.87-1.37,2.54-2.21l4.53,4.12-.04.04c-2.11,2.49-4.79,4.34-8.03,5.53ZM649.15,134.72c-2.52-2.11-5.81-3.16-9.86-3.16-3.61,0-6.78,1.04-9.53,3.12-2.75,2.08-4.42,5.12-5.03,9.11h28.46v.08c-.17-3.99-1.51-7.05-4.04-9.15Z"/>
      <path class="cls-2" d="M693.55,126.31v5.82h-12.81v21.8c0,2.44.46,4.37,1.37,5.78.92,1.42,2.62,2.12,5.12,2.12.94,0,1.9-.14,2.87-.42s1.93-.64,2.87-1.08l2,5.66c-1.39.61-2.72,1.08-3.99,1.42-1.28.33-2.61.53-4,.58-4.44.11-7.71-1.07-9.82-3.54-2.11-2.47-3.16-5.98-3.16-10.53v-21.8h-8.24v-5.82h8.24v-11.05l6.82-2.48v13.53h12.73Z"/>
    </g>
    <g>
      <path class="cls-2" d="M266.01,55.63c0,4.05-.64,7.59-1.91,10.61-1.28,3.02-3,5.55-5.16,7.57-2.16,2.03-4.67,3.55-7.53,4.58-2.86,1.03-5.87,1.54-9.03,1.54s-6.1-.5-8.99-1.5c-2.88-1-5.42-2.51-7.61-4.54-2.19-2.02-3.95-4.55-5.28-7.57-1.33-3.02-2-6.59-2-10.69V23.09l7.16-2.6v35.14c0,2.89.44,5.42,1.33,7.61.89,2.19,2.11,4.04,3.66,5.53,1.55,1.5,3.33,2.62,5.33,3.37,2,.75,4.13,1.12,6.41,1.12s4.33-.39,6.32-1.17c2-.77,3.75-1.91,5.24-3.41,1.5-1.5,2.69-3.36,3.58-5.58.89-2.22,1.33-4.74,1.33-7.57V23l7.16-2.6v35.23Z"/>
      <path class="cls-2" d="M302.79,37.65v5.82h-12.82v21.89c0,2.44.46,4.37,1.37,5.78.92,1.42,2.62,2.12,5.12,2.12.94,0,1.9-.14,2.87-.42.97-.28,1.93-.64,2.87-1.08l2,5.66c-1.39.61-2.72,1.08-3.99,1.42-1.28.33-2.61.53-3.99.58-4.44.11-7.71-1.07-9.82-3.54-2.11-2.47-3.16-5.98-3.16-10.53v-21.89h-8.24v-5.82h8.24v-10.96l6.82-2.48v13.45h12.73Z"/>
      <path class="cls-2" d="M351.14,78.84h-6.41l-.33-7.57c-1.66,2.83-3.88,4.92-6.66,6.28-2.77,1.36-5.69,2.04-8.74,2.04s-5.67-.47-8.2-1.41c-2.52-.94-4.73-2.33-6.62-4.16-1.89-1.83-3.36-4.06-4.41-6.7-1.05-2.64-1.58-5.65-1.58-9.03s.53-6.49,1.58-9.15c1.05-2.66,2.52-4.9,4.41-6.7s4.08-3.16,6.57-4.08c2.5-.92,5.22-1.37,8.16-1.37,1.44,0,2.93.17,4.45.5,1.53.33,2.97.85,4.33,1.54s2.62,1.55,3.79,2.58,2.11,2.23,2.83,3.62v-22.34l6.82-2.48v58.44ZM323.89,44.27c-1.75.64-3.29,1.6-4.62,2.87-1.33,1.28-2.37,2.84-3.12,4.7-.75,1.86-1.12,3.98-1.12,6.37s.37,4.49,1.12,6.33c.75,1.83,1.79,3.38,3.12,4.66,1.33,1.28,2.87,2.25,4.62,2.91,1.75.67,3.62,1,5.62,1s3.97-.36,5.74-1.08c1.78-.72,3.32-1.73,4.62-3.04,1.3-1.3,2.33-2.87,3.08-4.7.75-1.83,1.12-3.88,1.12-6.16s-.38-4.23-1.12-6.03c-.75-1.8-1.79-3.36-3.12-4.66s-2.89-2.32-4.66-3.04c-1.78-.72-3.69-1.08-5.74-1.08h.08c-2,0-3.87.32-5.62.96Z"/>
      <path class="cls-2" d="M396.41,71.52c-.83,1.44-1.82,2.68-2.95,3.7-1.14,1.03-2.37,1.89-3.7,2.58-1.33.69-2.73,1.21-4.2,1.54-1.47.33-2.9.5-4.29.5-2.94,0-5.7-.5-8.28-1.5-2.58-1-4.81-2.43-6.7-4.29-1.89-1.86-3.37-4.12-4.45-6.78-1.08-2.66-1.62-5.66-1.62-8.99s.55-6.31,1.66-8.95c1.11-2.63,2.62-4.87,4.54-6.7,1.91-1.83,4.15-3.22,6.7-4.16,2.55-.94,5.3-1.42,8.24-1.42,3.11,0,6.05.69,8.82,2.08,2.77,1.39,4.91,3.41,6.41,6.07l.08-7.49h6.66v41.11h-6.74s-.16-7.32-.16-7.32ZM375.86,44.6c-1.78.69-3.33,1.69-4.66,3-1.33,1.3-2.39,2.89-3.16,4.74s-1.17,3.93-1.17,6.2.39,4.34,1.17,6.2c.78,1.86,1.83,3.44,3.16,4.74,1.33,1.3,2.89,2.32,4.66,3.04,1.77.72,3.69,1.08,5.74,1.08,3.27,0,6.02-.75,8.24-2.25,2.22-1.5,3.88-3.36,4.99-5.58,1.11-2.22,1.66-4.63,1.66-7.24s-.55-5.02-1.66-7.24c-1.11-2.22-2.76-4.08-4.95-5.58-2.19-1.5-4.95-2.22-8.28-2.16-2.05,0-3.97.35-5.74,1.04Z"/>
      <path class="cls-2" d="M421.21,37.65l.33,6.57c1.77-2.5,3.87-4.31,6.28-5.45,2.41-1.14,5.01-1.71,7.78-1.71,2.61,0,5.01.43,7.2,1.29s4.09,2.09,5.7,3.7c1.61,1.61,2.87,3.61,3.79,5.99.91,2.39,1.37,5.08,1.37,8.07v22.72h-6.82v-22.63c0-4-1.1-7.13-3.29-9.4-2.19-2.28-5.26-3.41-9.2-3.41-1.89,0-3.61.36-5.16,1.08-1.55.72-2.88,1.68-3.99,2.87-1.11,1.19-1.97,2.61-2.58,4.24-.61,1.64-.91,3.37-.91,5.2v22.05h-6.74v-41.19h6.24Z"/>
      <path class="cls-2" d="M470.98,37.65l.33,6.57c1.77-2.5,3.87-4.31,6.28-5.45,2.41-1.14,5.01-1.71,7.78-1.71,2.61,0,5.01.43,7.2,1.29,2.19.86,4.09,2.09,5.7,3.7,1.61,1.61,2.87,3.61,3.79,5.99.92,2.39,1.37,5.08,1.37,8.07v22.72h-6.82v-22.63c0-4-1.09-7.13-3.29-9.4-2.19-2.28-5.26-3.41-9.2-3.41-1.89,0-3.61.36-5.16,1.08-1.55.72-2.88,1.68-3.99,2.87-1.11,1.19-1.97,2.61-2.58,4.24-.61,1.64-.91,3.37-.91,5.2v22.05h-6.74v-41.19h6.24Z"/>
      <path class="cls-2" d="M514.91,23.82c.95-.75,1.97-1.12,3.08-1.12s2.14.37,3.08,1.12c.94.75,1.41,1.87,1.41,3.37s-.47,2.61-1.41,3.33c-.94.72-1.97,1.08-3.08,1.08s-2.14-.38-3.08-1.12c-.94-.75-1.41-1.87-1.41-3.37s.47-2.54,1.41-3.29ZM521.32,37.65v41.19h-6.82v-41.19h6.82Z"/>
      <path class="cls-2" d="M539.22,37.65l.33,6.57c1.77-2.5,3.87-4.31,6.28-5.45s5.01-1.71,7.78-1.71c2.61,0,5.01.43,7.2,1.29,2.19.86,4.09,2.09,5.7,3.7,1.61,1.61,2.87,3.61,3.79,5.99.92,2.39,1.37,5.08,1.37,8.07v22.72h-6.82v-22.63c0-4-1.09-7.13-3.29-9.4-2.19-2.28-5.26-3.41-9.19-3.41-1.89,0-3.61.36-5.16,1.08s-2.89,1.68-4,2.87c-1.11,1.19-1.97,2.61-2.58,4.24-.61,1.64-.91,3.37-.91,5.2v22.05h-6.74v-41.19h6.24Z"/>
      <path class="cls-2" d="M588.52,90.87c.8,1.41,1.89,2.58,3.25,3.49,1.36.91,2.91,1.6,4.66,2.04,1.75.44,3.56.67,5.45.67,1.77,0,3.52-.17,5.24-.5,1.72-.33,3.27-.89,4.66-1.67,1.39-.78,2.5-1.79,3.33-3.04.83-1.25,1.25-2.76,1.25-4.54,0-1.66-.39-3.12-1.16-4.37-.78-1.25-1.83-2.28-3.16-3.08-1.33-.8-2.87-1.41-4.62-1.83-1.75-.42-3.56-.63-5.45-.63-3.22,0-6.16-.46-8.82-1.37-2.66-.91-4.95-2.25-6.86-4-1.91-1.75-3.4-3.87-4.45-6.37-1.05-2.5-1.58-5.35-1.58-8.57,0-3.38.64-6.35,1.91-8.91,1.28-2.55,2.94-4.67,4.99-6.37,2.05-1.69,4.37-2.97,6.95-3.83s5.2-1.29,7.86-1.29c1.89,0,3.92.25,6.12.75,2.19.5,4.04,1.28,5.53,2.33l4.41-5.33,4.83,3.83-4.66,5.49c1.61,1.83,2.9,3.76,3.87,5.78.97,2.02,1.46,4.54,1.46,7.53,0,1.77-.22,3.51-.67,5.2-.44,1.69-1.15,3.29-2.12,4.79-.97,1.5-2.18,2.83-3.62,3.99-1.44,1.17-3.16,2.08-5.16,2.75,4,1.17,6.88,2.94,8.66,5.33,1.77,2.39,2.66,5.08,2.66,8.07,0,2.66-.61,4.99-1.83,6.99-1.22,2-2.83,3.67-4.83,5.03-2,1.36-4.29,2.37-6.87,3.04-2.58.67-5.23,1-7.95,1-3.11,0-5.96-.4-8.57-1.21-2.61-.81-4.84-1.96-6.7-3.45-1.86-1.5-3.3-3.33-4.33-5.49-1.03-2.16-1.51-4.63-1.46-7.41h6.57c0,2,.4,3.7,1.21,5.12ZM588.27,63.32c.81,1.8,1.89,3.3,3.25,4.49,1.36,1.19,2.94,2.09,4.74,2.7,1.8.61,3.73.91,5.79.91,2.16,0,4.16-.37,5.99-1.12s3.4-1.76,4.7-3.04c1.3-1.28,2.32-2.77,3.04-4.49.72-1.72,1.08-3.58,1.08-5.58,0-2.33-.42-4.38-1.25-6.16-.83-1.78-1.93-3.26-3.29-4.45-1.36-1.19-2.94-2.09-4.74-2.7-1.8-.61-3.68-.91-5.62-.91-1.83,0-3.65.29-5.45.87-1.8.58-3.41,1.46-4.83,2.62-1.42,1.16-2.55,2.63-3.41,4.41-.86,1.77-1.29,3.86-1.29,6.24.05,2.33.49,4.4,1.29,6.2Z"/>
      <path class="cls-2" d="M653.6,43.68c-1.91-.53-3.93-.79-6.03-.79-1.44,0-2.77.11-4,.33-1.22.22-2.29.58-3.2,1.08-.91.5-1.64,1.14-2.16,1.91-.53.78-.79,1.66-.79,2.66,0,1.05.29,1.94.87,2.66.58.72,1.36,1.3,2.33,1.75.97.44,2.07.79,3.29,1.04,1.22.25,2.47.46,3.74.62,1.89.22,3.86.53,5.91.91,2.05.39,3.93,1.03,5.62,1.91,1.69.89,3.09,2.09,4.2,3.62,1.11,1.53,1.64,3.56,1.58,6.12-.05,2.05-.54,3.86-1.46,5.41s-2.16,2.84-3.75,3.87c-1.58,1.03-3.4,1.79-5.45,2.29-2.05.5-4.24.75-6.57.75-3.44,0-6.78-.55-10.03-1.66-3.25-1.11-6.03-3.14-8.36-6.08l3.91-4.74c1.83,2.27,4.09,3.9,6.78,4.87,2.69.97,5.31,1.46,7.86,1.46,1.11,0,2.28-.1,3.49-.29,1.22-.19,2.33-.54,3.33-1.04,1-.5,1.83-1.15,2.5-1.96.67-.81,1.03-1.84,1.08-3.12,0-1.11-.28-2.04-.83-2.79-.56-.75-1.33-1.37-2.33-1.87-1-.5-2.18-.9-3.54-1.21-1.36-.3-2.81-.54-4.37-.71-2-.22-3.97-.55-5.91-1-1.94-.44-3.69-1.11-5.24-2-1.55-.89-2.82-2.04-3.79-3.45-.97-1.42-1.46-3.2-1.46-5.37s.48-4.02,1.46-5.58c.97-1.55,2.26-2.82,3.87-3.79,1.61-.97,3.4-1.66,5.37-2.08,1.97-.42,3.95-.62,5.95-.62,3.11,0,5.94.42,8.49,1.25,2.55.83,4.94,2.25,7.16,4.24l-3.91,4.49-.08.08c-1.77-1.61-3.62-2.68-5.53-3.2Z"/>
      <path class="cls-2" d="M693.57,59.95h-20.62v-6.49h20.62v6.49Z"/>
    </g>
  </g>
  <g>
    <path class="cls-1" d="M168.15,0v124.14c0,29.8-24.14,53.94-53.94,53.94-5.32,0-10.44-.77-15.29-2.19,5.66-8.55,8.96-18.82,8.96-29.83V21.92L168.15,0Z"/>
    <path class="cls-2" d="M98.92,175.89c-9.7,14.55-26.23,24.11-44.98,24.11-29.76,0-53.94-24.14-53.94-53.94V30.33L60.27,8.41v115.73c0,24.48,16.3,45.15,38.65,51.75Z"/>
  </g>
</svg>