<svg width="432" height="242" viewBox="0 0 432 242" fill="none" xmlns="http://www.w3.org/2000/svg">
<g clip-path="url(#clip0_2557_1544)">
<rect width="432" height="242" fill="#F4F5F6"/>
<g opacity="0.4">
<path fill-rule="evenodd" clip-rule="evenodd" d="M293.901 121.328L222.19 49.6168C221.752 49.1789 221.042 49.1789 220.604 49.6168L148.893 121.328C148.455 121.766 148.455 122.476 148.893 122.914L220.604 194.626C221.042 195.063 221.752 195.063 222.19 194.626L293.901 122.914C294.339 122.476 294.339 121.766 293.901 121.328ZM227.74 44.0671C224.237 40.5642 218.557 40.5642 215.054 44.0671L143.343 115.779C139.84 119.282 139.84 124.961 143.343 128.464L215.054 200.175C218.557 203.678 224.237 203.678 227.74 200.175L299.451 128.464C302.954 124.961 302.954 119.282 299.451 115.779L227.74 44.0671Z" fill="#1E98F5"/>
<path fill-rule="evenodd" clip-rule="evenodd" d="M192.625 222.604L120.914 150.893C120.476 150.455 119.766 150.455 119.328 150.893L47.6167 222.604C47.1789 223.042 47.1789 223.752 47.6167 224.19L119.328 295.901C119.766 296.339 120.476 296.339 120.914 295.901L192.625 224.19C193.063 223.752 193.063 223.042 192.625 222.604ZM126.464 145.343C122.961 141.84 117.281 141.84 113.779 145.343L42.067 217.055C38.5641 220.557 38.5641 226.237 42.067 229.74L113.779 301.451C117.281 304.954 122.961 304.954 126.464 301.451L198.175 229.74C201.678 226.237 201.678 220.557 198.175 217.055L126.464 145.343Z" fill="#68707C"/>
<path fill-rule="evenodd" clip-rule="evenodd" d="M91.3496 121.328L19.638 49.6168C19.2002 49.1789 18.4903 49.1789 18.0524 49.6168L-53.6591 121.328C-54.097 121.766 -54.097 122.476 -53.6591 122.914L18.0524 194.626C18.4903 195.063 19.2002 195.063 19.638 194.626L91.3496 122.914C91.7874 122.476 91.7874 121.766 91.3496 121.328ZM25.1877 44.0671C21.6849 40.5642 16.0056 40.5642 12.5027 44.0671L-59.2089 115.779C-62.7117 119.282 -62.7117 124.961 -59.2089 128.464L12.5027 200.175C16.0056 203.678 21.6849 203.678 25.1877 200.175L96.8993 128.464C100.402 124.961 100.402 119.282 96.8993 115.779L25.1877 44.0671Z" fill="#E5AA20"/>
<path fill-rule="evenodd" clip-rule="evenodd" d="M192.625 20.0525L120.914 -51.6591C120.476 -52.0969 119.766 -52.0969 119.328 -51.6591L47.6167 20.0525C47.1789 20.4903 47.1789 21.2002 47.6167 21.6381L119.328 93.3496C119.766 93.7875 120.476 93.7875 120.914 93.3496L192.625 21.6381C193.063 21.2002 193.063 20.4903 192.625 20.0525ZM126.464 -57.2088C122.961 -60.7117 117.281 -60.7117 113.779 -57.2088L42.067 14.5027C38.5641 18.0056 38.5641 23.6849 42.067 27.1878L113.779 98.8994C117.281 102.402 122.961 102.402 126.464 98.8994L198.175 27.1878C201.678 23.6849 201.678 18.0056 198.175 14.5027L126.464 -57.2088Z" fill="#F45F63"/>
</g>
</g>
<defs>
<clipPath id="clip0_2557_1544">
<rect width="432" height="242" fill="white"/>
</clipPath>
</defs>
</svg>
