<svg width="432" height="242" viewBox="0 0 432 242" fill="none" xmlns="http://www.w3.org/2000/svg">
<g clip-path="url(#clip0_2557_1540)">
<rect width="432" height="242" fill="#F9EBB8"/>
<path d="M213.916 42.9634C217.429 39.4511 223.123 39.4511 226.636 42.9634L298.313 114.641C301.825 118.153 301.825 123.848 298.313 127.36L226.636 199.037C223.123 202.55 217.429 202.55 213.916 199.037L142.239 127.36C138.727 123.848 138.727 118.153 142.239 114.641L213.916 42.9634Z" fill="#F8DA97"/>
<rect x="119" y="137.88" width="119.355" height="119.355" rx="8.99394" transform="rotate(45 119 137.88)" fill="#F8DA97"/>
<rect x="17.7241" y="36.6038" width="119.355" height="119.355" rx="8.99394" transform="rotate(45 17.7241 36.6038)" fill="#F8DA97"/>
<rect x="119" y="-64.6722" width="119.355" height="119.355" rx="8.99394" transform="rotate(45 119 -64.6722)" fill="#F8DA97"/>
</g>
<defs>
<clipPath id="clip0_2557_1540">
<rect width="432" height="242" fill="white"/>
</clipPath>
</defs>
</svg>
