<svg xmlns="http://www.w3.org/2000/svg" viewBox="0 0 36 36">
    <path d="M18 34.5C8.85811 34.5 1.5 27.117 1.5 18.0559C1.5 8.99492 8.85811 1.5 18 1.5C27.1419 1.5 34.5 8.88305 34.5 18.0559C34.5 27.2288 27.0304 34.5 18 34.5ZM18 3.17797C9.75 3.17797 3.1723 9.77797 3.1723 18.0559C3.1723 26.3339 9.75 32.822 18 32.822C26.25 32.822 32.7162 26.222 32.7162 18.0559C32.7162 9.88983 26.1385 3.17797 18 3.17797Z"/>
    <path fill-rule="evenodd" clip-rule="evenodd" d="M14.941 23.9412L7.99999 17.0001L9.06065 15.9395L16.0017 22.8805L14.941 23.9412Z"/>
    <path fill-rule="evenodd" clip-rule="evenodd" d="M28 13L16 25L14.9393 23.9393L26.9393 11.9393L28 13Z"/>
</svg>